<svg xmlns="http://www.w3.org/2000/svg" viewBox="0 0 327.48 81.98"><defs><style>.cls-1{fill:#003970;}.cls-2{fill:none;stroke:#003970;stroke-miterlimit:10;stroke-width:5px;}</style></defs><g id="Layer_2" data-name="Layer 2"><g id="choice"><g id="bake_your_own_icon" data-name="bake your own icon"><path class="cls-1" d="M49.82,55.6c-.08-.52-1.13-.18-2.75.84a5.65,5.65,0,0,0-7.14-4.14,5.66,5.66,0,0,0-7.15,4.14c-1.62-1-2.67-1.36-2.75-.84-4.06-.52-6.51,1.93-5,4.95-1.56,3,.89,5.46,5,4.94.08.52,1.13.18,2.75-.83a5.66,5.66,0,0,0,7.15,4.13,5.66,5.66,0,0,0,7.14-4.13c1.62,1,2.67,1.35,2.75.83,4.06.52,6.51-1.93,5-4.94C56.33,57.53,53.88,55.08,49.82,55.6ZM29.51,62.2a1.65,1.65,0,0,1,0-3.3,1.65,1.65,0,0,1,0,3.3Zm10.42,3.29a4.2,4.2,0,0,1-5-4.94,4.2,4.2,0,0,1,5-4.95,4.2,4.2,0,0,1,4.94,4.95A4.19,4.19,0,0,1,39.93,65.49ZM50.34,62.2a1.65,1.65,0,0,1,0-3.3,1.65,1.65,0,0,1,0,3.3Z" transform="translate(-0.16)"/><path class="cls-1" d="M76.21,38.93C80,34,77.57,31.56,71.26,34c3.3-2.43-66-2.43-62.67,0-6.31-2.43-8.76,0-4.94,4.94-3.82.48-2.28,2.52,3.32,4.68C4.08,56.11,12.49,68,25.91,72.08c-1.48,1.58-1.48,6.87,0,4.78-1.48,2.09-9.68,2.09-7.42,0-3.27,2.09-4.08,2.9-1.65,1.65-2.43,3.27-1.62,4.08,1.65,1.65-1.24,2.43,43.64,2.43,42.87,0,3.27,2.43,4.08,1.62,1.65-1.65,2.43,1.25,1.62.44-1.65-1.65,2.26,2.09-5.94,2.09-7.42,0,1.48,2.09,1.48-3.2,0-4.78,13.42-4,21.83-16,18.94-28.47C78.48,41.45,80,39.41,76.21,38.93ZM50.64,74.38c1.13-.18,1.13,3.62,0,3.43,1.13.19-22.56.19-21.43,0-1.13.19-1.13-3.61,0-3.43A32.22,32.22,0,0,0,50.64,74.38ZM38.45,71.92c-14.37.78-26.23-9-27-21.4-3-.78,46.74-.78,45,0,2.74-.78,3.55-1.6,1.65-1.65,1.9-2,1.09-2.78-1.65-1.65,1.73-1.13-48.84-1.13-45.76,0-3.29-2.32-3.42-3.54-.37-3.3-3.12-1.47,62.39-1.47,59.27,0C71.71,60.07,56.7,74.26,38.45,71.92ZM71.26,39.63c3.3.17-66,.17-62.67,0C4.29,39.8,3.47,39,6.94,38c-3.47-1-2.65-1.82,1.65-1.65-3.3-.17,66-.17,62.67,0,4.3-.17,5.12.64,1.65,1.65C76.38,39,75.56,39.8,71.26,39.63Z" transform="translate(-0.16)"/><circle class="cls-1" cx="6.78" cy="11.94" r="1.65"/><circle class="cls-1" cx="44.97" cy="22.36" r="1.65"/><path class="cls-1" d="M71.09,15.59a1.65,1.65,0,0,0,3.29-.33,1.65,1.65,0,0,0-3.29.33Z" transform="translate(-0.16)"/><path class="cls-1" d="M36.63,3.34h0A1.39,1.39,0,0,0,38.1,1.53,1.39,1.39,0,0,0,36.3.06a1.4,1.4,0,0,0-1.48,1.8A1.4,1.4,0,0,0,36.63,3.34Z" transform="translate(-0.16)"/><circle class="cls-1" cx="50.18" cy="5" r="1.65"/><path class="cls-1" d="M26,26.07c2.79,1.26,6.46-2.42,7.42-7.42-1,.47-1-1.35,0-1.65-1,.3,30.94.3,28.86,0,4.59.3,6.64-1.74,4.12-4.13,2.52-2.64.47-4.68-4.12-4.12,2.08-.56-31.71-.56-30.57,0C31.17,4.28,28.13.9,26,2.16,20.48.9,17.43,4.28,20.33,8.75c-2.34-.56-2.41-.56-.06,0-3.35-.56-4.17.25-1.65,1.65-2.52-.39-2.52,8.72,0,8.25C16.1,23.65,19.78,27.33,26,26.07Zm37.1-13c2.17,0,1.76.43-.82.82,2.08-.39-31.64-.39-30.51,0-2.13-.39-2.95.43-1.65,1.65-1.3-.22-1.3,3.43,0,3.3-1.3,2.64-3.35,4.69-4.12,4.12-4.25.57-6.29-1.48-4.12-4.12-2.17.13-2.17-7.16,0-6.6-1.18-.56,40.62-.56,40.4,0C64.9,11.66,65.31,12.07,63.14,13.05Zm-38-8a2.28,2.28,0,0,1,2.33,3.3,20.17,20.17,0,0,1-4.66,0A2.28,2.28,0,0,1,25.17,5.08Z" transform="translate(-0.16)"/><path class="cls-1" d="M8.46,23.22A3.5,3.5,0,0,0,4.34,19.1,3.5,3.5,0,0,0,.22,23.22a3.5,3.5,0,0,0,4.12,4.13A3.5,3.5,0,0,0,8.46,23.22Zm-4.94,0a.69.69,0,0,1,.82-.82.69.69,0,0,1,.82.82.7.7,0,0,1-.82.83A.7.7,0,0,1,3.52,23.22Z" transform="translate(-0.16)"/><path class="cls-1" d="M59.89,20.84A3.49,3.49,0,0,0,55.77,25a3.49,3.49,0,0,0,4.12,4.12A3.5,3.5,0,0,0,64,25,3.5,3.5,0,0,0,59.89,20.84Zm0,4.94a.7.7,0,0,1-.83-.82.7.7,0,0,1,.83-.82.69.69,0,0,1,.82.82A.69.69,0,0,1,59.89,25.78Z" transform="translate(-0.16)"/></g><g id="bake-your-own_hover" data-name="bake-your-own hover"><g id="bake-your-own"><path id="BG" class="cls-2" d="M300.14,14.51h-180a25,25,0,1,0,0,50h180a25,25,0,0,0,0-50Z" transform="translate(-0.16)"/><path class="cls-1" d="M313,39.35a15,15,0,1,0-15,14.79A14.89,14.89,0,0,0,313,39.35Zm-16.37,6.89a1.74,1.74,0,0,1,0-2.49l2.62-2.55h-6.93a1.81,1.81,0,0,1-1.82-1.79v-.12a1.81,1.81,0,0,1,1.82-1.79h6.9L296.66,35a1.74,1.74,0,0,1,0-2.49,1.84,1.84,0,0,1,2.56,0L305,38.12a1.74,1.74,0,0,1,0,2.49l-5.77,5.64A1.85,1.85,0,0,1,296.66,46.24Z" transform="translate(-0.16)"/></g><g id="bake-your-own_label_in_outlines_hover" data-name="bake-your-own label in outlines hover"><path class="cls-1" d="M124.64,35a21.26,21.26,0,0,1,3.55-.25,6.72,6.72,0,0,1,3.58.68,2.64,2.64,0,0,1,1.46,2.38,2.74,2.74,0,0,1-2,2.59v0a3,3,0,0,1,2.42,3A3.26,3.26,0,0,1,132.39,46c-.89.7-2.36,1.1-4.78,1.1a21.32,21.32,0,0,1-3-.18Zm2.72,4.64h.9c1.44,0,2.22-.59,2.22-1.49s-.71-1.41-1.95-1.41a6.85,6.85,0,0,0-1.17.08Zm0,5.39a10.42,10.42,0,0,0,1.06,0c1.25,0,2.35-.47,2.35-1.74s-1.1-1.71-2.47-1.71h-.94Z" transform="translate(-0.16)"/><path class="cls-1" d="M138.27,43.86,137.41,47h-2.85l3.71-12.13h3.6L145.63,47h-2.95l-.94-3.11Zm3.08-2.06-.76-2.57c-.21-.72-.43-1.62-.61-2.34h0c-.18.72-.36,1.64-.55,2.34l-.72,2.57Z" transform="translate(-0.16)"/><path class="cls-1" d="M147.25,34.84H150V40.2H150c.27-.47.56-.9.83-1.33l2.76-4H157L153,40l4.23,7H154l-3-5.24L150,43v4h-2.72Z" transform="translate(-0.16)"/><path class="cls-1" d="M165.52,41.84h-4.46v2.88h5V47H158.3V34.84h7.49v2.25h-4.73v2.52h4.46Z" transform="translate(-0.16)"/><path class="cls-1" d="M172,40V41.8h-4.71V40Z" transform="translate(-0.16)"/><path class="cls-1" d="M176.52,47V42l-3.84-7.16h3.14l1.24,2.91c.38.88.63,1.53.94,2.32h0c.27-.75.56-1.45.92-2.32l1.22-2.91h3.08l-4,7.07V47Z" transform="translate(-0.16)"/><path class="cls-1" d="M194.83,40.78c0,4-2.42,6.39-6,6.39s-5.71-2.72-5.71-6.18c0-3.63,2.32-6.35,5.91-6.35S194.83,37.43,194.83,40.78Zm-8.77.16c0,2.38,1.12,4.05,2.95,4.05s2.92-1.76,2.92-4.12c0-2.18-1.05-4-2.94-4S186.06,38.58,186.06,40.94Z" transform="translate(-0.16)"/><path class="cls-1" d="M199.36,34.84v7c0,2.09.79,3.15,2.2,3.15s2.23-1,2.23-3.15v-7h2.74v6.8c0,3.75-1.89,5.53-5.06,5.53s-4.86-1.69-4.86-5.56V34.84Z" transform="translate(-0.16)"/><path class="cls-1" d="M208.9,35a23.43,23.43,0,0,1,3.66-.25,6.13,6.13,0,0,1,3.92,1,3.09,3.09,0,0,1,1.12,2.54,3.22,3.22,0,0,1-2.15,3v.05a3,3,0,0,1,1.62,2.27,34.53,34.53,0,0,0,1,3.42h-2.81a14.78,14.78,0,0,1-.85-2.83c-.32-1.51-.85-1.92-2-1.94h-.83V47H208.9Zm2.72,5.22h1.08c1.37,0,2.18-.69,2.18-1.75s-.76-1.67-2-1.69a6.52,6.52,0,0,0-1.24.09Z" transform="translate(-0.16)"/><path class="cls-1" d="M223.64,40V41.8h-4.71V40Z" transform="translate(-0.16)"/><path class="cls-1" d="M236.48,40.78c0,4-2.41,6.39-6,6.39s-5.71-2.72-5.71-6.18c0-3.63,2.32-6.35,5.91-6.35S236.48,37.43,236.48,40.78Zm-8.77.16c0,2.38,1.12,4.05,2.95,4.05s2.92-1.76,2.92-4.12c0-2.18-1-4-2.94-4S227.71,38.58,227.71,40.94Z" transform="translate(-0.16)"/><path class="cls-1" d="M240.11,47l-2.88-12.13h2.94l.91,5c.27,1.44.53,3,.73,4.23h0c.2-1.31.49-2.77.79-4.27l1-5h2.92l1,5.11c.27,1.42.47,2.72.65,4.07h0c.18-1.35.45-2.77.7-4.22l1-5h2.79L249.58,47h-3l-1-5.22c-.24-1.23-.44-2.36-.58-3.75h0c-.21,1.37-.41,2.52-.7,3.75L243.12,47Z" transform="translate(-0.16)"/><path class="cls-1" d="M254.13,47V34.84h3.21l2.52,4.44a35.2,35.2,0,0,1,2,4.16h.05a45,45,0,0,1-.23-5.06V34.84h2.52V47H261.3l-2.59-4.68A43.81,43.81,0,0,1,256.6,38l-.05,0c.07,1.6.1,3.32.1,5.3V47Z" transform="translate(-0.16)"/></g></g></g></g></svg>