<svg xmlns="http://www.w3.org/2000/svg" viewBox="0 0 101.27 84.42"><g id="Layer_2" data-name="Layer 2"><g id="base_credits_logo" data-name="base, credits &amp; logo"><g id="text_in_bottom" data-name="text in bottom"><path d="M0,19.81H39.33V0h61.94V62H64.69c0,.23,0,.4,0,.57V83.89a4.75,4.75,0,0,0,0,.53H39.29c0-.18,0-.35,0-.53q0-10.68,0-21.37c0-.17,0-.34,0-.55H0ZM42.15,59.06H98.42V2.86H42.15Zm-39.33,0H39.3V22.68H2.82Zm59,2.95H42.16V81.53H61.85Z"/><path d="M57.6,20.52a1.4,1.4,0,0,1-1.7-.6A21.83,21.83,0,0,0,54.4,18v2.56H53.08V15.73c.72-.12,1.33-.12,1.77.63a8.56,8.56,0,0,0,1.42,1.69V15.72H57.6Z"/><path d="M73.33,19.17v1.36H72V15.78c1,0,2-.06,3.06,0A1.29,1.29,0,0,1,76.25,17a1.57,1.57,0,0,1-.61,1.7l-.31.21,1.14,1.67c-.55,0-1,0-1.45,0-.1,0-.22-.12-.29-.22a8.92,8.92,0,0,1-.58-.88A.57.57,0,0,0,73.33,19.17Zm0-1.18a4.13,4.13,0,0,0,1.06,0,.69.69,0,0,0,.44-.5.71.71,0,0,0-.41-.52c-1-.29-1.2-.08-1.13.9A.54.54,0,0,0,73.38,18Z"/><path d="M64.5,12.87V8.14a19.61,19.61,0,0,1,2.66,0,2.17,2.17,0,0,1,1.93,2.36A2.28,2.28,0,0,1,67,12.85,21.1,21.1,0,0,1,64.5,12.87ZM65.89,9.3v2.4c.67,0,1.3,0,1.66-.59a1.2,1.2,0,0,0,0-1.32A1.55,1.55,0,0,0,65.89,9.3Z"/><path d="M49.84,8a2.48,2.48,0,0,1,2.59,2.51A2.62,2.62,0,1,1,49.84,8Zm-1.23,2.49a1.22,1.22,0,1,0,2.44,0,1.24,1.24,0,0,0-1.21-1.28A1.19,1.19,0,0,0,48.61,10.46Z"/><path d="M67,15.72h3.84v1.13H68.3v.72h2.25v1.08H68.3v.76h2.55v1.12H67Z"/><path d="M47.32,15.72h1.39v2.36a3.33,3.33,0,0,0,0,.63.78.78,0,0,0,.79.7.76.76,0,0,0,.87-.65,7.2,7.2,0,0,0,.06-1.14v-1.9h1.32c0,1.14.09,2.26,0,3.36s-1,1.59-2.2,1.58a2,2,0,0,1-2.24-2c-.06-.86,0-1.73,0-2.59C47.3,15.94,47.31,15.85,47.32,15.72Z"/><path d="M58.3,12.93c.23-.55.42-1,.62-1.48.43-1,.86-2,1.28-3.06.11-.27.25-.42.56-.37a1.55,1.55,0,0,0,.43,0,.56.56,0,0,1,.68.42c.53,1.34,1.11,2.66,1.67,4,.06.15.11.29.19.51a8.94,8.94,0,0,1-1.28,0c-.14,0-.28-.28-.35-.45a.49.49,0,0,0-.6-.4,2.57,2.57,0,0,1-.62,0c-.52-.05-1,0-1.07.64,0,.09-.23.21-.35.22C59.11,13,58.76,12.93,58.3,12.93ZM61,9.66,60.52,11h1Z"/><path d="M76.92,19.83l.7-.83c.5.17.94.34,1.39.47a.75.75,0,0,0,.47,0c.12,0,.28-.16.3-.26s-.13-.26-.23-.31a5.77,5.77,0,0,0-.74-.22c-.26-.08-.52-.15-.77-.25a1.23,1.23,0,0,1-.88-1.2,1.43,1.43,0,0,1,.76-1.35A3,3,0,0,1,81,16.3l-.61.88a8,8,0,0,0-1.23-.4c-.19,0-.4.15-.61.24.15.13.27.33.44.4.4.15.83.23,1.24.38a1.23,1.23,0,0,1,.92,1.2,1.4,1.4,0,0,1-.92,1.44A3.34,3.34,0,0,1,76.92,19.83Z"/><path d="M57.84,9l-1,.75c-.8-.64-1.41-.7-1.88-.2a1.45,1.45,0,0,0,0,1.85c.48.53,1.09.48,1.92-.2l1,.67A2.4,2.4,0,0,1,55.16,13a2.45,2.45,0,0,1-1.91-2.2,2.48,2.48,0,0,1,1.63-2.65A2.51,2.51,0,0,1,57.84,9Z"/><path d="M61.07,15.69c.42,0,.84,0,1.24,0,.12,0,.27.19.33.33.32.85.62,1.71,1,2.67.32-.9.64-1.69.89-2.51.13-.4.32-.58.75-.52a6.91,6.91,0,0,0,.92,0c-.06.17-.09.31-.14.43-.55,1.37-1.11,2.73-1.64,4.1a.47.47,0,0,1-.57.37c-.2,0-.42,0-.62,0a.42.42,0,0,1-.32-.2c-.61-1.49-1.21-3-1.82-4.49A1.58,1.58,0,0,1,61.07,15.69Z"/><path d="M89.21,15.69c.52,0,.93,0,1.34,0a.52.52,0,0,1,.35.25c.29.46.55.93.85,1.47.28-.48.55-.91.78-1.36a.57.57,0,0,1,.63-.38,9.43,9.43,0,0,0,1.07,0,2.53,2.53,0,0,1-.16.36l-.45.74C92.91,17.92,92,19,92.53,20.53H91.08c0-.44,0-.88,0-1.32a1.85,1.85,0,0,0-.23-.8C90.34,17.52,89.79,16.66,89.21,15.69Z"/><path d="M85.83,16.9H84.4V15.73h4.2v1.16H87.21v3.65H85.83Z"/><path d="M58.92,20.53V15.71h1.31v4.82Z"/><path d="M83.56,20.54h-1.3V15.72h1.3Z"/><path d="M13.31,38.12A5.24,5.24,0,0,1,7.9,32.83a5.29,5.29,0,0,1,5.51-5.22,5.26,5.26,0,1,1-.1,10.51Zm-2.52-5.3a2.64,2.64,0,0,0,2.53,2.77,2.71,2.71,0,0,0,0-5.42A2.52,2.52,0,0,0,10.79,32.82Z"/><path d="M24.56,53.7V43.59c1.38,0,2.74,0,4.09,0a8.08,8.08,0,0,1,1.48.17,4.7,4.7,0,0,1,4,4.84,4.81,4.81,0,0,1-4,4.9,10.29,10.29,0,0,1-1.66.19C27.16,53.72,25.88,53.7,24.56,53.7Zm2.8-2.45c.71-.06,1.37,0,2-.16a2.51,2.51,0,0,0,.17-4.83A15.18,15.18,0,0,0,27.36,46Z"/><path d="M18.93,53.72c-.93,0-1.85,0-2.78,0-.1,0-.23-.15-.28-.25a6.2,6.2,0,0,1-.37-.89.57.57,0,0,0-.66-.46c-1,0-2.08,0-3.13,0a.49.49,0,0,0-.56.37c-.14.41-.22,1-.52,1.16s-.87.07-1.32.08H7.7c.25-.6.47-1.16.7-1.71,1.13-2.67,2.27-5.33,3.38-8a.6.6,0,0,1,.68-.43c.64,0,1.28,0,1.92,0a.59.59,0,0,1,.43.26q2.07,4.86,4.12,9.73A.59.59,0,0,1,18.93,53.72Zm-4.43-3.8-1.18-3-1.19,3Z"/><path d="M33.64,29.74l-2.11,1.64a2.69,2.69,0,0,0-2.39-1.18,2.24,2.24,0,0,0-1.48.71,3,3,0,0,0,0,3.92c1,1.09,2.27,1,4-.48l.23.15,1.83,1.31A5.25,5.25,0,0,1,27.9,38,5.1,5.1,0,0,1,24,33.05a5.15,5.15,0,0,1,3.55-5.16A5.27,5.27,0,0,1,33.64,29.74Z"/><path d="M47.61,67.16h2.66v1.51c0,1.3,0,2.59,0,3.89a1.68,1.68,0,0,0,2.06,1.85,1.46,1.46,0,0,0,1.3-1.17,4.38,4.38,0,0,0,.1-.95c0-1.7,0-3.4,0-5.13h2.71v.49c0,1.62,0,3.24,0,4.86,0,2.87-1.65,4.4-4.52,4.33a6.19,6.19,0,0,1-1-.06,3.47,3.47,0,0,1-3.32-3.35C47.48,71.36,47.61,69.27,47.61,67.16Z"/></g></g></g></svg>