<svg xmlns="http://www.w3.org/2000/svg" viewBox="0 0 200.59 53.97"><defs><style>.cls-1{fill:#f06522;}.cls-2{fill:#44abe0;}</style></defs><g id="Layer_2" data-name="Layer 2"><g id="base_credits_logo" data-name="base, credits &amp; logo"><g id="logo"><path class="cls-1" d="M69.1,16.69A26.46,26.46,0,0,0,44.68.51h-39A26.46,26.46,0,0,1,16,2.59a26.62,26.62,0,0,1,14.1,14.1A26.46,26.46,0,0,1,32.15,27a26.39,26.39,0,0,1-2.08,10.32,26.5,26.5,0,0,1-5.68,8.43A26.49,26.49,0,0,1,5.65,53.52h39A26.51,26.51,0,0,0,71.19,27,26.29,26.29,0,0,0,69.1,16.69ZM44.68,44.14H39.09V9.89h5.59a17.13,17.13,0,0,1,0,34.25Z"/><path class="cls-2" d="M5.6,9.92H0V44.16H5.6a17.12,17.12,0,0,0,0-34.24Z"/><path class="cls-1" d="M99,15.57a7,7,0,0,1-2.46,5.55,9.5,9.5,0,0,1-6.45,2.22H83.42a1.93,1.93,0,0,1-2.2-2.17V2.68A1.93,1.93,0,0,1,83.42.51h6.71a9.26,9.26,0,0,1,6.46,2.21A7.14,7.14,0,0,1,99,8.26Zm-5.29,0V8.26a3,3,0,0,0-1-2.42A3.83,3.83,0,0,0,90.12,5H87c-.35,0-.53.18-.53.55V18.35c0,.37.18.55.53.55h3.08a3.82,3.82,0,0,0,2.59-.9A3.09,3.09,0,0,0,93.75,15.57Z"/><path class="cls-1" d="M119.4,15.57a7.61,7.61,0,0,1-4.27,7.12,9.38,9.38,0,0,1-4.64,1.14q-5.33,0-7.77-4.16a7.84,7.84,0,0,1-1.13-4.1V8.26a7.67,7.67,0,0,1,4.27-7.13A9.48,9.48,0,0,1,110.49,0q5.37,0,7.8,4.15a8,8,0,0,1,1.11,4.11Zm-5.28,0V8.26a3.38,3.38,0,0,0-1.05-2.55,3.56,3.56,0,0,0-2.59-1,3.51,3.51,0,0,0-2.56,1,3.41,3.41,0,0,0-1,2.53v7.31a3.44,3.44,0,0,0,1,2.55,3.51,3.51,0,0,0,2.56,1,3.57,3.57,0,0,0,2.59-1A3.42,3.42,0,0,0,114.12,15.57Z"/><path class="cls-1" d="M139.77,16.51a6.5,6.5,0,0,1-2.71,5.6,10.41,10.41,0,0,1-6.2,1.72q-5.34,0-7.77-4.16a7.75,7.75,0,0,1-1.14-4.1v-14A1,1,0,0,1,123.06.51H125a1,1,0,0,1,.89.43c.1.13.33.19.7.19A9.21,9.21,0,0,1,130.86,0a10.34,10.34,0,0,1,6.2,1.71,6.47,6.47,0,0,1,2.71,5.6,5.58,5.58,0,0,1-2,4.23.46.46,0,0,0-.2.34,1.38,1.38,0,0,0,.2.33A5.8,5.8,0,0,1,139.77,16.51Zm-5.29,0c0-1.58-1.39-2.36-4.15-2.36a1,1,0,0,1-1.09-1.09V10.79a1,1,0,0,1,1.09-1.09c2.76,0,4.15-.79,4.15-2.39s-1.21-2.6-3.63-2.6a3.52,3.52,0,0,0-2.57,1,3.4,3.4,0,0,0-1,2.53v7.31a3.43,3.43,0,0,0,1,2.55,3.52,3.52,0,0,0,2.57,1C133.27,19.14,134.48,18.27,134.48,16.51Z"/><path class="cls-1" d="M160.13,16.51a6.49,6.49,0,0,1-2.7,5.6,10.46,10.46,0,0,1-6.21,1.72q-5.34,0-7.77-4.16a7.75,7.75,0,0,1-1.14-4.1v-14A1,1,0,0,1,143.42.51h1.91a1,1,0,0,1,.89.43c.1.13.33.19.7.19A9.24,9.24,0,0,1,151.22,0a10.37,10.37,0,0,1,6.21,1.71,6.47,6.47,0,0,1,2.7,5.6,5.58,5.58,0,0,1-2,4.23.45.45,0,0,0-.19.34,1.23,1.23,0,0,0,.19.33A5.8,5.8,0,0,1,160.13,16.51Zm-5.29,0c0-1.58-1.38-2.36-4.15-2.36a1,1,0,0,1-1.09-1.09V10.79a1,1,0,0,1,1.09-1.09c2.77,0,4.15-.79,4.15-2.39s-1.21-2.6-3.63-2.6a3.54,3.54,0,0,0-2.57,1,3.44,3.44,0,0,0-1,2.53v7.31a3.47,3.47,0,0,0,1,2.55,3.54,3.54,0,0,0,2.57,1C153.63,19.14,154.84,18.27,154.84,16.51Z"/><path class="cls-1" d="M180.49,22.26a1,1,0,0,1-1.08,1.08H166.68a1.92,1.92,0,0,1-2.17-2.17V1.59A1,1,0,0,1,165.6.51h3.11a1,1,0,0,1,1.09,1.08V18.35a.48.48,0,0,0,.55.55h9.06A1,1,0,0,1,180.49,20Z"/><path class="cls-1" d="M200.45,18.9a7.42,7.42,0,0,1-4.3,4.2,9.67,9.67,0,0,1-3.82.73q-5.31,0-7.74-4.16a7.75,7.75,0,0,1-1.14-4.1V8.26a7.69,7.69,0,0,1,4.27-7.13A9.37,9.37,0,0,1,192.33,0a8.72,8.72,0,0,1,6.52,2.53A7.23,7.23,0,0,1,200.45,5a2.06,2.06,0,0,1,.14.65.94.94,0,0,1-.43.84L197.84,8a1.31,1.31,0,0,1-.7.19,1,1,0,0,1-.8-.44q-1.76-3-4-3a3.49,3.49,0,0,0-2.55,1,3.4,3.4,0,0,0-1,2.53v.89c0,.37.17.55.53.55h4.85a1,1,0,0,1,1.09,1.09v2.27a1,1,0,0,1-1.09,1.09h-4.85c-.36,0-.53.18-.53.55v.87a3.43,3.43,0,0,0,1,2.55,3.49,3.49,0,0,0,2.55,1c1.5,0,2.84-1,4-3a1,1,0,0,1,.8-.43,1.22,1.22,0,0,1,.7.19l2.32,1.52a1,1,0,0,1,.43.85A2.06,2.06,0,0,1,200.45,18.9Z"/><path class="cls-2" d="M99.08,45.73a7,7,0,0,1-2.46,5.54,9.42,9.42,0,0,1-6.42,2.21H83.5a1.92,1.92,0,0,1-2.19-2.16V32.88a1.92,1.92,0,0,1,2.19-2.16h6.7a9.23,9.23,0,0,1,6.43,2.2,7.13,7.13,0,0,1,2.45,5.52Zm-5.27,0V38.44a3,3,0,0,0-1-2.4,3.81,3.81,0,0,0-2.6-.9H87.12a.49.49,0,0,0-.54.56V48.5a.49.49,0,0,0,.54.56h3.06a3.84,3.84,0,0,0,2.59-.91A3,3,0,0,0,93.81,45.73Z"/><path class="cls-2" d="M119,49.06a7.35,7.35,0,0,1-4.28,4.18,9.66,9.66,0,0,1-3.81.73q-5.3,0-7.72-4.14a7.77,7.77,0,0,1-1.13-4.1V38.44a7.63,7.63,0,0,1,4.26-7.1,9.27,9.27,0,0,1,4.59-1.13,8.68,8.68,0,0,1,6.5,2.53,6.88,6.88,0,0,1,1.59,2.4,1.86,1.86,0,0,1,.14.65,1,1,0,0,1-.43.85l-2.31,1.51a1.2,1.2,0,0,1-.7.2,1,1,0,0,1-.79-.44c-1.17-2-2.5-3-4-3a3.5,3.5,0,0,0-2.55,1,3.39,3.39,0,0,0-1,2.51v.89c0,.37.17.56.53.56h4.83A1,1,0,0,1,113.75,41v2.26a1,1,0,0,1-1.09,1.08h-4.83c-.36,0-.53.19-.53.56v.86a3.41,3.41,0,0,0,1,2.54,3.46,3.46,0,0,0,2.55,1c1.5,0,2.83-1,4-3a.94.94,0,0,1,.79-.44,1.2,1.2,0,0,1,.7.2l2.31,1.51a1,1,0,0,1,.43.85A1.86,1.86,0,0,1,119,49.06Z"/><path class="cls-2" d="M139.68,46.67A6.49,6.49,0,0,1,137,52.26,10.37,10.37,0,0,1,130.8,54c-3.54,0-6.13-1.38-7.75-4.14a7.86,7.86,0,0,1-1.13-4.1V31.8A1,1,0,0,1,123,30.72h1.9a1,1,0,0,1,.89.43c.1.13.33.19.7.19a9.13,9.13,0,0,1,4.28-1.13A10.33,10.33,0,0,1,137,31.92a6.44,6.44,0,0,1,2.69,5.58,5.58,5.58,0,0,1-2,4.22.44.44,0,0,0-.19.33,1.1,1.1,0,0,0,.19.34A5.78,5.78,0,0,1,139.68,46.67Zm-5.27,0q0-2.36-4.14-2.36a1,1,0,0,1-1.08-1.08V41a1,1,0,0,1,1.08-1.08q4.14,0,4.14-2.39,0-2.59-3.62-2.6a3.52,3.52,0,0,0-2.56,1,3.4,3.4,0,0,0-1,2.51v7.29a3.42,3.42,0,0,0,1,2.54,3.48,3.48,0,0,0,2.56,1Q134.4,49.3,134.41,46.67Z"/><path class="cls-2" d="M160,52.4a1,1,0,0,1-1.09,1.08h-3.1a1,1,0,0,1-1.09-1.08V44.87a.49.49,0,0,0-.55-.56H148a.49.49,0,0,0-.54.56V52.4a1,1,0,0,1-1.07,1.08h-3.09a1,1,0,0,1-1.11-1.08v-14a7.6,7.6,0,0,1,4.29-7.07,9.39,9.39,0,0,1,4.59-1.11q5.33,0,7.78,4.12A7.9,7.9,0,0,1,160,38.39Zm-5.28-13.07v-.89a3.39,3.39,0,0,0-1-2.54,3.63,3.63,0,0,0-2.59-1,3.52,3.52,0,0,0-2.56,1,3.4,3.4,0,0,0-1,2.51v.89a.49.49,0,0,0,.54.56h6.13A.49.49,0,0,0,154.71,39.33Z"/><path class="cls-2" d="M180.29,34.06a1,1,0,0,1-1.08,1.08h-4.65c-.35,0-.53.19-.53.56V52.4A1,1,0,0,1,173,53.48h-3.06a1,1,0,0,1-1.08-1.08V35.7a.49.49,0,0,0-.55-.56h-4.63a1,1,0,0,1-1.1-1.08V31.8a1,1,0,0,1,1.1-1.08h15.58a1,1,0,0,1,1.08,1.08Z"/><path class="cls-2" d="M200.18,49.06a7.32,7.32,0,0,1-4.28,4.18,9.57,9.57,0,0,1-3.8.73q-5.29,0-7.73-4.14a7.86,7.86,0,0,1-1.13-4.1V38.44a7.63,7.63,0,0,1,4.26-7.1,9.3,9.3,0,0,1,4.6-1.13,8.65,8.65,0,0,1,6.49,2.53,6.88,6.88,0,0,1,1.59,2.4,1.91,1.91,0,0,1,.15.65,1,1,0,0,1-.44.85l-2.31,1.51a1.19,1.19,0,0,1-.69.2,1,1,0,0,1-.8-.44c-1.17-2-2.5-3-4-3a3.48,3.48,0,0,0-2.55,1,3.4,3.4,0,0,0-1,2.51v.89c0,.37.18.56.53.56h4.84A1,1,0,0,1,195,41v2.26a1,1,0,0,1-1.08,1.08H189c-.35,0-.53.19-.53.56v.86a3.53,3.53,0,0,0,3.59,3.57c1.49,0,2.82-1,4-3a1,1,0,0,1,.8-.44,1.19,1.19,0,0,1,.69.2l2.31,1.51a1,1,0,0,1,.44.85A1.91,1.91,0,0,1,200.18,49.06Z"/></g></g></g></svg>