<svg xmlns="http://www.w3.org/2000/svg" viewBox="0 0 325.98 90.12"><defs><style>.cls-1{fill:none;stroke:#003970;stroke-miterlimit:10;stroke-width:4px;}.cls-2{fill:#003970;}</style></defs><g id="Layer_2" data-name="Layer 2"><g id="choice"><g id="educator_s_guide_hover" data-name="educator&apos;s guide hover"><path id="BG" class="cls-1" d="M299.05,32.24h-180a25,25,0,0,0,0,50h180a25,25,0,1,0,0-50Z" transform="translate(-0.07)"/><path class="cls-2" d="M311.94,57.08a15,15,0,1,0-15,14.79A14.89,14.89,0,0,0,311.94,57.08ZM295.57,64a1.74,1.74,0,0,1,0-2.49l2.62-2.55h-6.93a1.81,1.81,0,0,1-1.82-1.79V57a1.81,1.81,0,0,1,1.82-1.79h6.9l-2.59-2.53a1.74,1.74,0,0,1,0-2.49,1.84,1.84,0,0,1,2.56,0l5.77,5.64a1.74,1.74,0,0,1,0,2.49L298.13,64A1.85,1.85,0,0,1,295.57,64Z" transform="translate(-0.07)"/><path class="cls-2" d="M114.16,59.46H109.8V61.7h4.88v2.66h-8.14V52.22h7.89v2.65H109.8v2h4.36Z" transform="translate(-0.07)"/><path class="cls-2" d="M116.47,52.39a25.66,25.66,0,0,1,3.88-.26,8.24,8.24,0,0,1,5,1.21,5.3,5.3,0,0,1,2.2,4.67,6,6,0,0,1-2.12,5,9.2,9.2,0,0,1-5.69,1.5,20.16,20.16,0,0,1-3.25-.2Zm3.26,9.54a3.72,3.72,0,0,0,.69,0c2.1,0,3.65-1.14,3.65-3.88a3.12,3.12,0,0,0-3.35-3.47,5.61,5.61,0,0,0-1,.07Z" transform="translate(-0.07)"/><path class="cls-2" d="M132.5,52.22V59.1c0,1.84.63,2.88,1.9,2.88s1.93-.95,1.93-2.88V52.22h3.26v6.7c0,3.75-1.87,5.64-5.28,5.64s-5.07-1.82-5.07-5.73V52.22Z" transform="translate(-0.07)"/><path class="cls-2" d="M150.89,64.05a8.15,8.15,0,0,1-3.06.49c-4.54,0-6.53-2.83-6.53-6.05,0-4.28,3.13-6.46,6.75-6.46a7.28,7.28,0,0,1,3,.54l-.63,2.55a6.05,6.05,0,0,0-2.25-.43,3.28,3.28,0,0,0-3.49,3.58,3.28,3.28,0,0,0,3.54,3.59,6.6,6.6,0,0,0,2.18-.36Z" transform="translate(-0.07)"/><path class="cls-2" d="M156,61.55l-.68,2.81H152l3.53-12.14h4.32l3.62,12.14H160l-.78-2.81Zm2.68-2.41L158.16,57c-.18-.68-.41-1.67-.59-2.39h0c-.18.72-.36,1.72-.54,2.41l-.52,2.16Z" transform="translate(-0.07)"/><path class="cls-2" d="M165.81,54.94h-3.09V52.22h9.5v2.72h-3.15v9.42h-3.26Z" transform="translate(-0.07)"/><path class="cls-2" d="M184.59,58.17c0,3.9-2.34,6.39-6.09,6.39s-5.83-2.83-5.83-6.2S175,52,178.7,52C182.61,52,184.59,54.93,184.59,58.17Zm-8.48.14c0,2.27,1,3.67,2.56,3.67s2.48-1.53,2.48-3.71-.94-3.67-2.5-3.67S176.11,56.08,176.11,58.31Z" transform="translate(-0.07)"/><path class="cls-2" d="M186.31,52.39a26,26,0,0,1,3.93-.26,6.8,6.8,0,0,1,4.1.94,3.13,3.13,0,0,1,1.21,2.65,3.21,3.21,0,0,1-2.09,2.93v.07A3,3,0,0,1,195,60.89c.38,1.24.77,3,1,3.47h-3.33a16.55,16.55,0,0,1-.85-2.79c-.32-1.46-.77-1.77-1.78-1.77h-.52v4.56h-3.23Zm3.23,5.09h.84c1.23,0,1.93-.61,1.93-1.51s-.6-1.42-1.68-1.44a6.14,6.14,0,0,0-1.09.07Z" transform="translate(-0.07)"/><path class="cls-2" d="M201.09,52a24.51,24.51,0,0,1-2.36,5.13l-1.94.16a30,30,0,0,0,1.35-5.13Z" transform="translate(-0.07)"/><path class="cls-2" d="M202.46,61.12a7.34,7.34,0,0,0,3.15.76c1.12,0,1.66-.38,1.66-1s-.54-.94-1.91-1.41c-2.05-.72-3.41-1.85-3.41-3.65,0-2.15,1.81-3.8,4.87-3.8a7.82,7.82,0,0,1,3.29.63l-.68,2.59a6.43,6.43,0,0,0-2.65-.58c-1,0-1.53.36-1.53.9s.65.87,2.18,1.44c2.18.8,3.17,2,3.17,3.66,0,2.09-1.64,3.87-5.19,3.87a8.55,8.55,0,0,1-3.56-.74Z" transform="translate(-0.07)"/><path class="cls-2" d="M226.42,63.78a14.13,14.13,0,0,1-4.18.71,7.09,7.09,0,0,1-5.11-1.64,5.94,5.94,0,0,1-1.73-4.39c0-4.22,3.15-6.36,7.09-6.36a8.91,8.91,0,0,1,3.52.59l-.65,2.6a6.92,6.92,0,0,0-2.88-.51c-2,0-3.66,1-3.66,3.51a3.31,3.31,0,0,0,3.46,3.59,4.14,4.14,0,0,0,1-.11V59.68h-1.62V57.16h4.75Z" transform="translate(-0.07)"/><path class="cls-2" d="M231.69,52.22V59.1c0,1.84.63,2.88,1.91,2.88s1.93-.95,1.93-2.88V52.22h3.26v6.7c0,3.75-1.88,5.64-5.28,5.64s-5.08-1.82-5.08-5.73V52.22Z" transform="translate(-0.07)"/><path class="cls-2" d="M244.26,52.22V64.36H241V52.22Z" transform="translate(-0.07)"/><path class="cls-2" d="M246.49,52.39a25.42,25.42,0,0,1,3.87-.26,8.24,8.24,0,0,1,5,1.21,5.3,5.3,0,0,1,2.2,4.67,6,6,0,0,1-2.12,5,9.2,9.2,0,0,1-5.69,1.5,20,20,0,0,1-3.24-.2Zm3.25,9.54a3.72,3.72,0,0,0,.69,0c2.11,0,3.65-1.14,3.65-3.88a3.12,3.12,0,0,0-3.34-3.47,5.66,5.66,0,0,0-1,.07Z" transform="translate(-0.07)"/><path class="cls-2" d="M266.88,59.46h-4.35V61.7h4.88v2.66h-8.14V52.22h7.88v2.65h-4.62v2h4.35Z" transform="translate(-0.07)"/></g><g id="educator_s_icon" data-name="educator&apos;s icon"><path class="cls-2" d="M49.81,84.85c-2.43,1.58-4.79,1-6.74-1.66-.08,1.46-.17,1.4-.26-.15,0,1.5,0,1.5,0,0-.1,1.56-.18,1.61-.26.15-2,2.65-4.31,3.24-6.74,1.66-9,1.58-16.68-4.12-22-16.27A12.12,12.12,0,0,1,9,58.59c-3.5-5-4.57-10.27-3.07-15.14-1.5-5.93.46-11,5.62-14.47,3-5.27,8.62-7.58,16.09-6.6,1.94-1,5.85.07,11.49,3.07.67-.51,1.43-.19,2.2.92A23.66,23.66,0,0,0,41.2,23c-.57-5.34-2.4-9.58-5.24-12.13-1-2.33-.81-3.61.34-2.75.62-2.25,1.91-2.09,2.75.34,3.43,3.06,5.55,8,6,14.07.24.2.31,1.39.19,3.41.5-1,.9-1.15,1.16-.46,5.68-3,9.59-4.05,11.5-3.07,7.5-1,13.14,1.34,16.09,6.6,5.15,3.48,7.12,8.54,5.62,14.47,1.5,7.89-1.25,16.7-7.87,25.14C66.49,80.73,58.79,86.43,49.81,84.85Zm-5.1-5.11c.17,1.13.23,1.17.19.13.13,1.09.18,1.11.14.07,1.39,1.86,3.06,2.26,4.77,1.14,7.42,1.12,13.93-3.89,18.58-14.31,6.11-8.19,8.68-16.3,7.34-23.17,1.34-5.23-.21-9.25-4.57-11.8-2.32-4.65-6.82-6.47-13.22-5.35-.74-1.12-3.66-.61-10.07,2.8-1.26-.42-2.6.13-3.84,1.57,0-.93-.1-.83-.15.1a1.23,1.23,0,0,0-1.88.16,4.54,4.54,0,0,0-4.31-1.84c-6.33-3.4-9.27-3.91-10-2.79-6.37-1.12-10.87.71-13.22,5.35-4.36,2.55-5.91,6.57-4.57,11.8-1.34,4.07-.36,8.88,2.81,13.74,0,3.31,1.54,6.61,4.52,9.43C21.86,77.19,28.37,82.2,35.79,81.08c1.71,1.12,3.38.72,4.77-1.14,0,1,0,1,.14-.07,0,1,0,1,.19-.13,0,1,0,1,.13-.11.12.92.31.78.52-.39a2.74,2.74,0,0,0,2.51,0c.22,1.18.4,1.32.52.4C44.69,80.72,44.74,80.76,44.71,79.74Zm7.47-59.43a4.19,4.19,0,0,1-3.74-.47c-1.11.19-1.7-.42-1.45-1.52-1.41-4.65-.68-11.47,8.55-15.4A16,16,0,0,1,62.72.58c.28-.41.33-.42.14,0,.24-.4,2.48-.71,2.16-.3,1-.5,1.61-.27,1.66.58.85.07,1.06.72.53,1.68.42-.32.07,1.87-.34,2.11.4-.18.39-.12,0,.16a16.27,16.27,0,0,1-2.61,7.12C61,18.81,56.23,20.72,52.18,20.31Zm-1.55-4c4.32.92,7.68-1.15,10.11-6.16a16.47,16.47,0,0,0,2.1-5.56,16.66,16.66,0,0,0-5.65,1.91C52.1,8.67,49.9,11.93,50.63,16.29Z" transform="translate(-0.07)"/><path class="cls-2" d="M32,89.87c.38.33.35.33-.08,0-7.51-.3-14.7-5.43-20.53-14.64-.75-.74-.62-1.38.27-1.36.05-.64.68-.51,1.36.27C18.51,82.76,25.18,87.58,32,87.92c1,.29,1.38.78.9,1C33.33,89.8,32.88,90.2,32,89.87Zm2.32-12c.28.5.19.49-.25,0-4.86-.85-9.6-5.14-13.54-12.26a35.83,35.83,0,0,1-4.94-11.4c-.55-1-.24-1.57.68-1.21.17-.66.73-.34,1.2.68a38.37,38.37,0,0,0,4.76,11c3.72,6.59,8,10.56,12.34,11.35.91.57,1.24,1.13.7,1.19C35.5,78,35.09,78.34,34.27,77.84ZM7.34,67.14c-.25.8-.61.59-.88-.54C2.15,58.6-.08,50.28.08,42.84-.08,37,1.62,32,5,28.46c.38-1.22,1-1.3,1.37-.16.53-.44.61.2.17,1.37C3.51,32.85,2,37.46,2,42.84,2,50,4.12,58,8.21,65.72c.42,1.24.21,1.86-.43,1.32C7.77,67.9,7.62,67.94,7.34,67.14ZM83.85,48.51c.14.56.08.55-.17,0-.36.46-.73-.06-.8-1.13a18.7,18.7,0,0,0,.63-6.79A17.8,17.8,0,0,0,78.23,27,11.52,11.52,0,0,0,72.88,23c-.75-.74-1-1.35-.44-1.32,0-1,.6-1.25,1.31-.44a12,12,0,0,1,5.92,4.47,19.11,19.11,0,0,1,5.8,14.88,17,17,0,0,1-.66,7.13C85,48.72,84.54,49.07,83.85,48.51Zm-22.5-.75a.89.89,0,0,1-1-1,5.34,5.34,0,0,1,0-1.13,1,1,0,0,1,2,0,5.34,5.34,0,0,1,0,1.13A.89.89,0,0,1,61.35,47.76ZM15.1,47.48a.83.83,0,0,1-1-.9,5.36,5.36,0,0,1,0-1.35,10.11,10.11,0,0,1,.16-2.43A.84.84,0,0,1,15.32,42a.86.86,0,0,1,.85,1.1c-.05.67-.1,1.43-.14,2.18,0,.44,0,.85,0,1.2a.85.85,0,0,1-.91,1C15.15,47.59,15.12,47.6,15.1,47.48Zm50.7-3.12a.89.89,0,0,1-1-1,3.24,3.24,0,0,1,0-.88,1,1,0,1,1,2,0,3.24,3.24,0,0,1,0,.88A.89.89,0,0,1,65.8,44.36Zm-3.95-5.85a.89.89,0,0,1-1-1,7.39,7.39,0,0,1,0-1.33,1,1,0,0,1,2,0,7.39,7.39,0,0,1,0,1.33A.89.89,0,0,1,61.85,38.51Zm-44.25-19a.84.84,0,0,1-1-1c0,.08,0-3.9,0-3.82a.84.84,0,0,1,1-1,.84.84,0,0,1,1,1c0-.08,0,3.9,0,3.82A.84.84,0,0,1,17.6,19.53Zm7.81-7.81c.08,0-3.95,0-3.87,0a.84.84,0,0,1-1-1,.84.84,0,0,1,1-1c-.08,0,3.95,0,3.87,0a.84.84,0,0,1,1,1A.84.84,0,0,1,25.41,11.72Zm-11.7,0c.08,0-4,0-3.87,0a.84.84,0,0,1-1-1,.84.84,0,0,1,1-1c-.08,0,3.95,0,3.87,0a.84.84,0,0,1,1,1A.84.84,0,0,1,13.71,11.72ZM17.6,7.83a.84.84,0,0,1-1-1c0,.08,0-3.9,0-3.82a.84.84,0,0,1,1-1,.84.84,0,0,1,1,1c0-.08,0,3.9,0,3.82A.84.84,0,0,1,17.6,7.83Z" transform="translate(-0.07)"/></g></g></g></svg>