<svg xmlns="http://www.w3.org/2000/svg" viewBox="0 0 323.37 105.89"><defs><style>.cls-1{fill:none;stroke:#003970;stroke-miterlimit:10;stroke-width:4px;}.cls-2{fill:#003970;}</style></defs><g id="Layer_2" data-name="Layer 2"><g id="choice"><g id="ready-to-go"><path id="BG" class="cls-1" d="M296.37,42.64h-180a25,25,0,0,0,0,50h180a25,25,0,0,0,0-50Z"/><path class="cls-2" d="M309.26,67.48a15,15,0,1,0-15,14.79A14.9,14.9,0,0,0,309.26,67.48Zm-16.37,6.89a1.74,1.74,0,0,1,0-2.49l2.61-2.55h-6.92a1.8,1.8,0,0,1-1.82-1.79v-.12a1.8,1.8,0,0,1,1.82-1.79h6.9l-2.59-2.53a1.74,1.74,0,0,1,0-2.49,1.83,1.83,0,0,1,2.55,0l5.77,5.64a1.74,1.74,0,0,1,0,2.49l-5.77,5.64A1.84,1.84,0,0,1,292.89,74.37Z"/><g id="ready-to-go_label" data-name="ready-to-go label"><path class="cls-2" d="M150.94,63.06a27.62,27.62,0,0,1,3.93-.25,6.73,6.73,0,0,1,4.1.94,3.12,3.12,0,0,1,1.21,2.64,3.22,3.22,0,0,1-2.09,2.94v.07a3,3,0,0,1,1.55,2.16c.38,1.25.77,3,1,3.48h-3.33a16.55,16.55,0,0,1-.85-2.79c-.32-1.46-.77-1.77-1.78-1.77h-.52V75h-3.23Zm3.23,5.1H155c1.23,0,1.93-.61,1.93-1.51s-.6-1.43-1.68-1.44a5.26,5.26,0,0,0-1.09.07Z"/><path class="cls-2" d="M169.66,70.14h-4.35v2.23h4.88V75h-8.14V62.9h7.89v2.65h-4.63v2h4.35Z"/><path class="cls-2" d="M175.17,72.23,174.49,75h-3.37l3.53-12.14H179L182.59,75h-3.51l-.77-2.81Zm2.69-2.41-.56-2.18c-.18-.69-.42-1.68-.6-2.4h0c-.18.72-.36,1.73-.54,2.42l-.53,2.16Z"/><path class="cls-2" d="M184.13,63.06a27.16,27.16,0,0,1,3.88-.25A8.24,8.24,0,0,1,193,64a5.3,5.3,0,0,1,2.2,4.66,6,6,0,0,1-2.12,5,9.26,9.26,0,0,1-5.69,1.49,21.82,21.82,0,0,1-3.25-.19Zm3.26,9.55a4.94,4.94,0,0,0,.69,0c2.1,0,3.65-1.13,3.65-3.87a3.11,3.11,0,0,0-3.35-3.47,4.75,4.75,0,0,0-1,.07Z"/><path class="cls-2" d="M199,75v-4.9L195.2,62.9h3.73l1,2.74c.34.84.56,1.46.83,2.23h0c.24-.74.49-1.4.78-2.23l1-2.74h3.66l-4,7.11v5Z"/><path class="cls-2" d="M211.77,68v2.11h-4.83V68Z"/><path class="cls-2" d="M215.78,65.62h-3.1V62.9h9.51v2.72H219V75h-3.26Z"/><path class="cls-2" d="M234.56,68.84c0,3.91-2.34,6.4-6.09,6.4s-5.83-2.83-5.83-6.2c0-3.53,2.32-6.34,6-6.34C232.57,62.7,234.56,65.6,234.56,68.84Zm-8.49.15c0,2.27,1,3.67,2.56,3.67s2.49-1.53,2.49-3.71-.94-3.67-2.51-3.67S226.07,66.76,226.07,69Z"/><path class="cls-2" d="M240.53,68v2.11H235.7V68Z"/><path class="cls-2" d="M252.7,74.46a14.17,14.17,0,0,1-4.18.7,7,7,0,0,1-5.11-1.64,5.92,5.92,0,0,1-1.73-4.39c0-4.21,3.15-6.35,7.09-6.35a8.67,8.67,0,0,1,3.51.59L251.64,66a7.12,7.12,0,0,0-2.88-.5c-2,0-3.66,1-3.66,3.51a3.3,3.3,0,0,0,3.46,3.58,3.69,3.69,0,0,0,1-.11V70.36h-1.63V67.84h4.76Z"/><path class="cls-2" d="M266.15,68.84c0,3.91-2.35,6.4-6.09,6.4s-5.83-2.83-5.83-6.2c0-3.53,2.32-6.34,6-6.34C264.16,62.7,266.15,65.6,266.15,68.84Zm-8.49.15c0,2.27,1,3.67,2.56,3.67s2.49-1.53,2.49-3.71-.94-3.67-2.51-3.67S257.66,66.76,257.66,69Z"/></g></g><g id="ready_to_go_icon" data-name="ready to go icon"><path class="cls-2" d="M35.55,40.42a22.94,22.94,0,0,0-13.68,9.34c-1.1,1.06-.95,2.29.32,2.59-.12.63.28.76,1.07.38.16.38.71.12,1.39-.72a22,22,0,0,1,11.8-8c1.41-.44,2-1.51,1.24-2.26C37.92,40.39,36.9,39.77,35.55,40.42Z"/><path class="cls-2" d="M73.9,61.43c1.69-2.94.84-6.44-2.4-9.81.1-3.62-2.27-6.92-6.61-9.23-1.65-3.33-5.12-5.53-9.73-6.18-1.11-1.63-3-2.19-5.34-1.59.4-1,.4-3.87,0-2.71.4-4.51-2.33-7.24-5.73-5.73,0-1.51-1.64-1.51-1.59,0-3.4-1.51-6.13,1.22-5.72,5.73-.41-1.16-.41,1.71,0,2.71-2.34-.6-4.24,0-5.35,1.59-4.6.65-8.08,2.85-9.73,6.18C17.36,44.7,15,48,15.09,51.62,11.86,55,11,58.49,12.7,61.43,8,63,6,65.71,8.15,67.87,6,68.94,6,69.62,8.15,68.52c-2.18,5,.87,8.25,6.38,6.73-1.77,1.52,59.31,1.52,57.53,0,5.52,1.52,8.56-1.69,6.39-6.73,2.17,1.1,2.17.42,0-.65C80.62,65.71,78.58,63,73.9,61.43ZM40.28,31.33a1.89,1.89,0,0,1,2.22-2,3.29,3.29,0,0,1,1.59,0,1.9,1.9,0,0,1,2.23,2c.19,0,.19,2.32,0,2.19a21.71,21.71,0,0,1-3-.14,21.71,21.71,0,0,1-3,.14C40.09,33.65,40.09,31.33,40.28,31.33Zm3,6.27C58.49,36.88,71,47.9,70.37,61.1c1.68.73-55.82.73-54.15,0C15.62,47.9,28.11,36.88,43.3,37.6ZM75,69.06c2,1.8.58,3.25-2.89,3,1.78.21-59.3.21-57.53,0-3.47.21-4.84-1.24-2.89-3-2,0-2-.66,0-.64-2-1.81-.58-3.26,2.89-3-1.77-.21,59.31-.21,57.53,0,3.47-.21,4.85,1.24,2.89,3,2,0,2,.66,0,.64Z"/><path class="cls-2" d="M30.72,24c.4.57.78.45,1-.35.91-.08,1.1-1.31.39-2.57-1.61-2.12-1-3.66-.19-6,1-2.28,2.13-5.14.35-8.34C32,5.29,30.88,4.87,30,5.89,29,5.79,28.63,7,29.14,8.34c.88,1.73.29,3.22-.42,5.36a8.56,8.56,0,0,0-1.1,4.17,6.31,6.31,0,0,0,1.68,5.4C29.6,24.32,30.17,24.6,30.72,24Z"/><path class="cls-2" d="M43.75,18.7c.4.57.78.45,1-.35.91-.08,1.1-1.31.39-2.57-1.61-2.12-1-3.66-.18-6,1-2.28,2.12-5.13.34-8.34C45,0,43.91-.46,43,.56c-.95-.1-1.35,1.07-.84,2.45.88,1.74.3,3.22-.41,5.36a8.49,8.49,0,0,0-1.11,4.17,6.29,6.29,0,0,0,1.69,5.4C42.63,19,43.2,19.27,43.75,18.7Z"/><path class="cls-2" d="M56.79,24c.4.57.78.45,1-.35.92-.08,1.1-1.31.39-2.57-1.61-2.12-1-3.66-.18-6,1-2.28,2.12-5.14.35-8.34-.32-1.48-1.43-1.9-2.33-.88-.95-.1-1.35,1.07-.84,2.45.88,1.73.3,3.22-.41,5.36a8.57,8.57,0,0,0-1.11,4.17,6.29,6.29,0,0,0,1.69,5.4C55.67,24.32,56.23,24.6,56.79,24Z"/><path class="cls-2" d="M56.1,84.48c.94-2.21-.05-4.09-3.29-4,.85-.89.17-1-1.89-.28-.26-.71-2.12-.22-5.37,1.4a37.26,37.26,0,0,0-7.14,4.16A21,21,0,0,1,36.69,87c.18-1.88-.62-3.21-2.17-3.55-2.08-2.22-6.18-3.86-10.57-4.24-1.47-1-5.4-2-7-1.13-1.13-.84-1.45-.81-.92.07-3.08-.49-7.84,1.29-8.2,2.61-1.32-.68-5.95,0-4.36.66-2.32-.52-3-.12-1.71,1.07-2.13,0-2.32.81-.49,2-1.72-.44,1,19.13,2.52,18.43-1.45,1.57-1,2.33,1.24,2-1.07,1.08-.59,1.23,1.32.38-1.08.85-.76.78.9-.17-1.35.83,3.41-1,4.48-1.75-1.05.71-1,.7.07,0-1.06.72-1,.71,0,0-1.05.71-1,.69.07,0l0,0c-1.07.72-1.06.72,0,0-1.06.71-1.05.71,0,0-1,.71-1,.7,0,0-1.06.71,1.27-.49,2.19-1.14-.92.65,18.07,3.79,17.89,3,.84.94,1.51.79,1.78-.39.29.81,23.68-14.76,22-14.65,2.69-.8,3.17-2.16,1.09-3.1C58.67,86.59,58.31,85.36,56.1,84.48ZM6.39,101.3C6.39,101.82,4,84.5,4.16,85,4,84.5,6.09,84.18,6.1,84.7c0-.52,2.58,16.22,2.45,15.76C8.68,100.92,6.39,101.82,6.39,101.3Zm26,.08c0,.61-19.18-2.57-18.09-3-1.19.4-1.28.4-.27,0-1.39.42-1.67.48-.77.19-1.15.43-1.79.75-.6.3-1.19.45-3.67-15.55-2.33-15.07,1-1.32,4-2.37,6.33-2-.89-.61-.76-.63.4,0,.38-.61,3-.18,6.23,1,3.63.48,7.47,2,9.42,3.71.49,0,.73.48.7,1.39.13.12.11.51,0,1.1a33.41,33.41,0,0,0-5.66,0c-1.29-.16-2.12.71-1.75,1.84-.37,1,.46,1.91,1.75,1.84-.26.07,7.2.07,7,0,.18.07.18.07,0,0,.18.07.19.07,0,0,.21.07.25.07.11,0,.19.06.2.06,0,0,.23.07.27.06.12,0,.2.07.2.06,0,0,.24.06.28,0,.13,0h0c.25,0,.29,0,.13,0,.21.06.21.06,0,0,.3,0,.38,0,.24-.11.23,0,.23,0,0,0,.27,0,.31,0,.12-.07.23,0,.23,0,0,0,.27,0,.31,0,.11-.09a49,49,0,0,0,4.67-3.44c3.2-2,5.55-3.38,6.6-3.86,2.68-1.19,4.11-1.58,4-1.11,1.53-.47,1.84-.43.88.12,1.29-.43,1.71-.12,1.09,1.91,1.53.18,1.71.7.51,1.37C54.82,87.05,32.37,102,32.34,101.38Z"/></g></g></g></svg>