<svg xmlns="http://www.w3.org/2000/svg" viewBox="0 0 562.03 121.66"><defs><style>.cls-1{stroke:#000;stroke-miterlimit:10;}</style></defs><g id="Layer_2" data-name="Layer 2"><g id="ref_weighs_in" data-name="ref weighs in"><path class="cls-1" d="M36.09,53.93A85.44,85.44,0,0,1,24.16,68.48c-3.88,3.59-8.44,7.18-14,7.76C-.09,76.54-1,65.86,2,58.3c2.23-6,6.3-12.61,12.8-14.45,4.37-1,8.25,1.06,5.73,5.82a19.68,19.68,0,0,1-8.54,8,11.53,11.53,0,0,1-7,1.35,1.36,1.36,0,0,1-.59-.19C2.34,64,2,69.45,5.05,72.56c9.51,7.37,25.13-12.32,30-19.4a.65.65,0,0,1,.88-.2A.75.75,0,0,1,36.09,53.93ZM5.83,55.78c3.39.29,6.89-1.94,9.41-4.27a12.25,12.25,0,0,0,2.91-4.08.64.64,0,0,0-.49-.77,7.53,7.53,0,0,0-4.75,1C10.48,49,7.77,52.09,5.83,55.78Z"/><path class="cls-1" d="M72.27,2.81C66.94,18.43,62.18,34.34,58,50.34c-3.1,12-6.11,24.16-7.08,36.48-.19,3-.58,6.11.49,8.82,2.62-.68,3.2,2.53,1.65,3-5.63,1.84-5-5.53-4.66-8.92,1.84-14.36,5.24-26.19,8.34-39a2,2,0,0,1-2.42-.48c-3.11,6.5-8,17.94-14.55,21.34-3.3,1.65-7.28-.49-8.34-3.88-1.75-5.43.67-11.25,3.78-15.72C39,46.37,46.08,42,52.87,45.3,59,31,64,16.39,69.07,1.75A1.85,1.85,0,0,1,71.4.58,1.67,1.67,0,0,1,72.27,2.81ZM51.51,48.4c-8.73-3.88-16.68,7.47-17.26,15.14-.1,2,.39,4.46,2.42,5.14,3.88.58,8.54-8.05,10.29-11.06S50.06,51.51,51.51,48.4Zm9-12.7c-1.56,3.78-3.11,7.56-4.76,11.35.49.48,1.17.77,1.46,1.35C58.3,44.14,59.37,39.87,60.54,35.7Z"/><path class="cls-1" d="M112,53.93A103.12,103.12,0,0,1,105,64c-2.62,3-5.53,6.5-9.7,7.47-6.21,1-7.76-5.72-7.86-12.22-3.59,7.37-8.92,15.62-14.84,17-3.59.88-6.69-1.65-7.47-5-1.55-7.47,1.75-16.3,5.14-22.89a1.69,1.69,0,0,1,3,1.55c-3,5.82-6.21,14-4.95,20.47,1.46,5.43,6.5,1.84,8.83-.88A56.52,56.52,0,0,0,85,57.13a62.07,62.07,0,0,0,3-6.79,1.52,1.52,0,0,1,2.91.88,1,1,0,0,1-.2.48C89,57,86.92,71.59,95.07,70.62c6.5-1.55,12.7-11.64,15.71-17.27C111.17,52.58,112.43,53.16,112,53.93Z"/><path class="cls-1" d="M143.47,53.93c-5.14,8-21.83,29.39-32.69,23.87-10.77-6.41.39-29.2,8-34.73a7.4,7.4,0,0,1,5.14-1.84A4.54,4.54,0,0,1,128,45.79a11.31,11.31,0,0,1-2.52,6.4,1.69,1.69,0,0,1-2.62-2.14c1.26-1.45,3.59-6.2-.2-5.62-3.29,1.16-5.62,4.36-7.56,7.18a36.9,36.9,0,0,0-6.21,15.61c-.58,4.27.87,9.41,5.92,9.41,4.65-.19,8.73-3.3,12.32-6.11A84.63,84.63,0,0,0,142.5,53.25C142.89,52.67,144,53.25,143.47,53.93Z"/><path class="cls-1" d="M182.75,53.84A85.69,85.69,0,0,1,177,62.37c-3.2,4-12.22,15.91-17.85,12-3.1-2.62-3.1-8.54-2.23-14A91,91,0,0,1,144.53,74c-1.94,1.46-4.46,3.4-7.08,2.43a5.33,5.33,0,0,1-2.91-4.17,16.43,16.43,0,0,1,1.17-7.86c2.71-7.37,7.95-16,15-19.79,4.08-2,8.25-.77,10.38,3.3a1.72,1.72,0,0,1-3,1.65C152.58,38.9,135,65.67,138.23,72.46a1.57,1.57,0,0,0,1.84.87c3.69-1.26,10.87-11,13.48-14.06l2.91-3.78,2.91-3.79a1.72,1.72,0,0,1,2.43-.29,1.66,1.66,0,0,1,.48,2.14,27.46,27.46,0,0,0-2.52,5.91,29,29,0,0,0-1.16,6.4c-.2,2.43-.29,5.44,1.55,7.18,5.34,3.69,17.27-12.7,19.69-16.88a28.23,28.23,0,0,0,1.55-3A.76.76,0,0,1,182.75,53.84Z"/><path class="cls-1" d="M232.61,32.69a.53.53,0,0,1-.49.49c-5.43-.49-10.86-.49-16.39-.49-9,.19-18.14.39-27.26.87-.87,2.62-1.55,5.24-2.32,7.86-2.72,10-5,20.27-5.53,30.75-.2,4.66-.49,10.86,2.33,14.74a3.4,3.4,0,0,0,4.46,1.17c8.44-4.27,17.65-25.51,20.08-34.73a.85.85,0,0,1,1.65.39,131.32,131.32,0,0,1-6.21,14.65c-2.82,5.53-13.39,28-21.05,19.4-6.6-8.83-.58-36.38,1.94-46.95.58-2.43,1.26-4.75,1.84-7.08-4.85.29-9.8.68-14.65,1.16-.38.1-.67.1-1.06.2a1.66,1.66,0,0,1-1.94,1c-.29-.1-.68-.2-.88-.3a1.88,1.88,0,0,1,.39-3.58,43.83,43.83,0,0,1,7.28-.78c3.88-.19,7.76-.29,11.64-.39,1.26-4.36,2.71-8.73,4.27-13,1-2.52,1.94-4.94,3-7.37A1.78,1.78,0,0,1,196,9.8a1.67,1.67,0,0,1,.78,2.33,142.64,142.64,0,0,0-7.57,18.81c8.83-.09,17.75,0,26.58.2,5.43.19,10.86.39,16.39,1.07A.44.44,0,0,1,232.61,32.69Z"/><path class="cls-1" d="M286.54,53.74a24.39,24.39,0,0,1-3.49,2.81c-2.81,1.94-6.31,4.37-9.9,4.76-2.91.29-4.07-2.82-4-5.34,0-2.91,1.74-10.09.68-11.15-3.79-.68-16.59,22.69-17.17,33.17a1.61,1.61,0,0,1-2,1.26,1.56,1.56,0,0,1-1.26-1.16,16.92,16.92,0,0,1-.19-5,78.37,78.37,0,0,1,5.43-21.53c1.06-2.53,4.85-9.32,1.94-11.64-5.43-4.56-25.71,3.68-35.8,8.05a2.4,2.4,0,0,0-.29.48,2.52,2.52,0,0,0-.29.49,10.53,10.53,0,0,1,5.82.29c12.81,4.95-1.45,27.35-11.06,28.32a6.46,6.46,0,0,1-6.88-4.07c-1.36-3.3-.39-6.89.68-10.09.58-1.46,1.26-3,1.94-4.37,1.16-2.42,2.42-4.65,3.68-7-1.36.49-2.71,1.07-4.07,1.55a9.33,9.33,0,0,1-2.23.59.71.71,0,0,1-.39-.1c-.29-.2-.29-.78-.29-.78.19-.87,3.78-2.33,4.75-2.81,1.46-.68,2.91-1.36,4.46-2,.39-.58.68-1.16,1.07-1.74a26.73,26.73,0,0,0,1.75-3.21,1.75,1.75,0,0,1,3.2-1,2.52,2.52,0,0,1-.29,2.72,3,3,0,0,1-.49,1c1.07-.39,2.14-.77,3.2-1.26,6.79-2.43,26.1-10.38,31.82-5.92,4.27,3.4-3.3,21.44-4.27,30,2.23-5.24,4.85-10.38,7.57-15.43A47.22,47.22,0,0,1,266,44.82a11,11,0,0,1,3.59-2.62c2.42-.78,4.07.87,4,3.3-.29,4.36-2.91,8.24-2.52,12.51.29,2.42,2.13,2.52,4.17,1.94a27.68,27.68,0,0,0,9.12-5.24,11.35,11.35,0,0,0,1.55-1.55C286.15,52.77,286.93,53.25,286.54,53.74Zm-67.61-2.91c-1.94,3.1-4,6.3-5.62,9.51a31.17,31.17,0,0,0-3,8.34c-.87,4.36,1.84,7.86,6.3,6,4.08-1.74,7.18-5.33,9.51-9,2-3.49,4.27-8.34,2.42-12.32-1.35-2.52-4.55-3.3-7.27-2.91A21,21,0,0,0,218.93,50.83Z"/><path class="cls-1" d="M293,29.1c-.58.49-3.49,2.43-3.78,1.26,0-.19.19-.29.38-.29a7.38,7.38,0,0,0,2.72-1.74c2.33-2.24,3.1-6.31,2.33-6.7a1.87,1.87,0,0,1,1.74-3.3C300.7,21.24,295.85,27,293,29.1Z"/><path class="cls-1" d="M345.51,54.32a11.7,11.7,0,0,0-3.68.68c-8.54,2.81-16.39,7.66-23.57,13a54.27,54.27,0,0,0-7.37,6.5c.77,1.36,1.74,2.71,2.61,4.07,1.56,2.62,4,5.24,4.47,8.44a2.24,2.24,0,0,1-1.56,2.33c-2.23.77-4.36-.1-6.49-.78-2.24-.87-4.47-2.62-4.66-5.24,0-2.42,1.36-5.14,3.59-7.85a53.34,53.34,0,0,1-4.46-7.57c-3-6.3-3-13,1.94-18.43a29.31,29.31,0,0,1,16.87-8.92c2.72-.2,4.85,1.55,3.5,4.27-.88,1.55-2.23,2.91-2.62,4.46a1.68,1.68,0,1,1-3.3-.68c.39-1.84,1.55-3.2,2.42-4.75-2.32.09-6,1.74-7.76,2.61-6.3,3.11-11.93,8.83-10.08,16.4a37.93,37.93,0,0,0,4.94,10.86c7.57-8,21.34-15.91,27.45-18.53,2.53-1.06,4.95-2.23,7.67-2.32A.73.73,0,1,1,345.51,54.32ZM309.33,76.24c-4.07,5.14-5.43,10.58,4.66,12.13,1,0,2.81,0,2.52-1.36a11.19,11.19,0,0,0-1.94-3.69C312.92,80.9,311.08,78.57,309.33,76.24Z"/><path class="cls-1" d="M427.48,54.61a61.25,61.25,0,0,0-18.33.39,157,157,0,0,1-3,17c-3.79,14.74-8.73,31.13-18.72,43-3.88,4.56-10.28,8.34-16,4.85-7.66-5-6.5-17.66-4.46-25.32a56.6,56.6,0,0,1,27.16-34.82,54.58,54.58,0,0,1,13.39-5.24A76.61,76.61,0,0,0,408,44c-.19-3.78-1.55-10.38-6.5-6.4A24.45,24.45,0,0,0,397,43.07a24.82,24.82,0,0,1,4.85,4.36,1.69,1.69,0,1,1-2.52,2.24A20.94,20.94,0,0,0,395.27,46c-5.62,9.6-11.34,23-17.46,23.67-2.32.39-4.26-1.46-4.75-3.59-1.26-5.72.78-11.64,3.49-16.69,5.05-8.63,12.23-10.76,19.11-7.08a23.57,23.57,0,0,1,3.11-4.17c1.74-1.94,4.65-4.36,7.47-2.71,3.68,2.32,3.88,10.38,3,18.62a69,69,0,0,1,18.43-1.55A1.07,1.07,0,1,1,427.48,54.61Zm-20.08.78a61.06,61.06,0,0,0-7.18,2.13,48.34,48.34,0,0,0-14,8.25A50.66,50.66,0,0,0,373.45,82c-4.46,8.82-7.66,21-4.27,30.75,1.46,4.07,4.85,6.59,9.22,5.33,6.79-2.42,11.15-10.28,14.45-16.3C399.54,88.47,405.46,71.3,407.4,55.39ZM393.82,45.11c-3.3-1.75-7-2-10.48.87-4.46,3.78-7,9.6-7.85,15.23-.1,1.65-.39,5.82,1.84,5.92C381.79,66.93,388.48,53.93,393.82,45.11Z"/><path class="cls-1" d="M471.22,53.93A103.12,103.12,0,0,1,464.14,64c-2.62,3-5.53,6.5-9.7,7.47-6.21,1-7.76-5.72-7.85-12.22-3.59,7.37-8.93,15.62-14.85,17-3.58.88-6.69-1.65-7.46-5-1.56-7.47,1.74-16.3,5.14-22.89a1.69,1.69,0,0,1,3,1.55c-3,5.82-6.2,14-4.94,20.47,1.45,5.43,6.5,1.84,8.82-.88a56.15,56.15,0,0,0,7.86-12.32,62.07,62.07,0,0,0,3-6.79,1.52,1.52,0,0,1,2.91.88,1,1,0,0,1-.2.48c-1.74,5.34-3.78,19.89,4.37,18.92C460.75,69.07,467,59,470,53.35,470.35,52.58,471.61,53.16,471.22,53.93Z"/><path class="cls-1" d="M497.12,53.84C492.27,60.72,483,72.46,474.81,75c-14.45,3.3-5.33-25.51.1-30.36a1.74,1.74,0,0,1,2.71.29c.59,1,.3,2.14.2,3.11a4.74,4.74,0,0,1-.2,1.06,1.37,1.37,0,0,1-.09,1.36,1.72,1.72,0,0,1-3.11.1c-.58,1-1.06,2-1.55,3C468.22,63.63,465.4,82,481.6,69.16A67.92,67.92,0,0,0,490.82,60a73.12,73.12,0,0,0,5.33-6.88C496.64,52.58,497.61,53.25,497.12,53.84ZM476.56,32.69c1.26-2.42,2.52-3.1,3.88-2.42s2.32,2.42,1.16,4.85-1.26,6.11-2.62,5.33C476.46,39,475.2,35,476.56,32.69Z"/><path class="cls-1" d="M533.88,2.81c-5.33,15.62-10.09,31.53-14.26,47.53-3.1,12-6.11,24.16-7.08,36.48-.19,3-.58,6.11.49,8.82,2.62-.68,3.2,2.53,1.65,3-5.63,1.84-5-5.53-4.66-8.92,1.84-14.36,5.24-26.19,8.34-39a2,2,0,0,1-2.42-.48c-3.11,6.5-8.05,17.94-14.55,21.34-3.3,1.65-7.28-.49-8.34-3.88-1.75-5.43.67-11.25,3.78-15.72,3.78-5.62,10.86-10,17.65-6.69,6.11-14.26,11.16-28.91,16.2-43.55A1.85,1.85,0,0,1,533,.58,1.67,1.67,0,0,1,533.88,2.81ZM513.12,48.4c-8.73-3.88-16.68,7.47-17.26,15.14-.1,2,.39,4.46,2.42,5.14,3.88.58,8.54-8.05,10.29-11.06S511.67,51.51,513.12,48.4Zm9-12.7c-1.56,3.78-3.11,7.56-4.76,11.35.49.48,1.17.77,1.46,1.35C519.92,44.14,521,39.87,522.15,35.7Z"/><path class="cls-1" d="M561.43,53.93A85.44,85.44,0,0,1,549.5,68.48c-3.88,3.59-8.44,7.18-14,7.76-10.28.3-11.15-10.38-8.24-17.94,2.23-6,6.3-12.61,12.8-14.45,4.37-1,8.25,1.06,5.72,5.82a19.6,19.6,0,0,1-8.53,8,11.56,11.56,0,0,1-7,1.35,1.36,1.36,0,0,1-.58-.19c-2,5.14-2.42,10.57.68,13.68,9.51,7.37,25.12-12.32,30-19.4a.65.65,0,0,1,.88-.2A.76.76,0,0,1,561.43,53.93Zm-30.26,1.85c3.39.29,6.88-1.94,9.41-4.27a12.25,12.25,0,0,0,2.91-4.08.64.64,0,0,0-.49-.77,7.53,7.53,0,0,0-4.75,1C535.82,49,533.11,52.09,531.17,55.78Z"/></g></g></svg>