<svg xmlns="http://www.w3.org/2000/svg" viewBox="0 0 695.26 121.66"><defs><style>.cls-1{stroke:#000;stroke-miterlimit:10;}</style></defs><g id="Layer_2" data-name="Layer 2"><g id="ref_weighs_in" data-name="ref weighs in"><path class="cls-1" d="M38.22,53.74C36.08,60.14,32.4,69.36,27.55,74c-1.84,1.85-4.85,1.07-6.31-.87-2.52-3.39-3.49-9.51-3.59-15.23-1.16,2.33-2.32,4.56-3.49,6.89-1.36,2.52-2.71,5-4.17,7.56-1.36,2.14-2.52,4.47-4.36,6.31a2.45,2.45,0,0,1-1.85.68c-1.74-.1-2.71-1.94-3-3.49C-.29,68.39,1.94,59.37,4,52.09a69.59,69.59,0,0,1,3.1-8.15,1.58,1.58,0,0,1,2.23-.77,1.67,1.67,0,0,1,.88,2.23c-3,6-7.47,22.6-6,29.68,4.17-6,7.37-12.8,10.67-19.4,1.26-2.52,2.43-5,3.49-7.57a1.81,1.81,0,0,1,2.23-1,1.79,1.79,0,0,1,1,2.23c-.29.78-.67,1.46-1,2.14-.09.48-.29,1-.38,1.45-1.36,5.73-1.65,13.78,1.65,18.92a10.9,10.9,0,0,0,1,1.16c1.95,1.55,3.69.68,5.24-1.45A49.29,49.29,0,0,0,35,57c1.06-3.69,2.13-7.76,1.84-11.64a3.09,3.09,0,0,0-.68-1.94,1.78,1.78,0,0,1-1.84-1.85,1.81,1.81,0,0,1,2.81-1.35C41.71,42.39,39.19,50.05,38.22,53.74Z"/><path class="cls-1" d="M85.94,53.84q-3.06,4.65-6.4,9.31c-2.72,3.39-5.92,8.34-10.19,9.8-3.88,1-5.43-2.82-5.43-5.92-.19-4.75.68-9.41,1.17-14.07a19.49,19.49,0,0,0,.19-4.75.61.61,0,0,0-1.07-.39L62,50.54c-5.33,7.56-9.5,15.91-14.35,23.86-.88,1.26-2.43,4.75-4.17,4.56-2.91-.48-1.75-5.43-1.56-7.47C42.49,67.71,43,64,43.75,60.34c3.2-16.59,7-33.18,13.38-48.89A33.4,33.4,0,0,1,61,4.37,1.59,1.59,0,0,1,63,3.69c1.55.58.68,2.91.39,3.78-.58,1.65-2,5.14-1.84,5.53A1.72,1.72,0,0,1,60,15.23a2.22,2.22,0,0,1-1.27-.48c-3.29,7.56-5.82,16.49-8,24.15C48.69,46.08,47,53.35,45.49,60.63,44.62,65.19,43.16,74.79,44,75c1.45-2.13,2.62-4.56,4-6.79C52.19,60.82,56.07,53,61.59,46.56c1-1.06,2-2.23,3.59-2.23a3.19,3.19,0,0,1,2.72,2.91c.48,4.85-1.36,9.6-2,14.26-.39,2.62-1,5.43-.29,8,1.26,4.56,5.72,1.65,7.86-.58,4.56-4.66,8-10.28,11.45-15.81a.63.63,0,0,1,.87-.2A.52.52,0,0,1,85.94,53.84Z"/><path class="cls-1" d="M125.91,53.84a87.53,87.53,0,0,1-5.73,8.53c-3.2,4-12.22,15.91-17.85,12-3.1-2.62-3.1-8.54-2.23-14A91.51,91.51,0,0,1,87.69,74c-1.94,1.46-4.46,3.4-7.08,2.43a5.33,5.33,0,0,1-2.91-4.17,16.55,16.55,0,0,1,1.16-7.86c2.72-7.37,8-16,15-19.79a7.36,7.36,0,0,1,10.37,3.3,1.71,1.71,0,0,1-3,1.65C95.74,38.9,78.18,65.67,81.38,72.46a1.57,1.57,0,0,0,1.85.87c3.68-1.26,10.86-11,13.48-14.06l2.91-3.78,2.91-3.79a1.71,1.71,0,0,1,2.42-.29,1.66,1.66,0,0,1,.49,2.14,27,27,0,0,0-2.52,5.91,28.41,28.41,0,0,0-1.17,6.4c-.19,2.43-.29,5.44,1.55,7.18,5.34,3.69,17.27-12.7,19.7-16.88a30.22,30.22,0,0,0,1.55-3A.76.76,0,0,1,125.91,53.84Z"/><path class="cls-1" d="M175.76,32.69a.52.52,0,0,1-.48.49c-5.43-.49-10.87-.49-16.39-.49-9,.19-18.14.39-27.26.87-.88,2.62-1.55,5.24-2.33,7.86-2.72,10-5,20.27-5.53,30.75-.19,4.66-.48,10.86,2.33,14.74a3.4,3.4,0,0,0,4.46,1.17c8.44-4.27,17.66-25.51,20.08-34.73a.85.85,0,0,1,1.65.39,131.32,131.32,0,0,1-6.21,14.65c-2.81,5.53-13.38,28-21.05,19.4-6.59-8.83-.58-36.38,1.94-46.95.58-2.43,1.26-4.75,1.85-7.08-4.86.29-9.8.68-14.65,1.16-.39.1-.68.1-1.07.2a1.66,1.66,0,0,1-1.94,1,8.61,8.61,0,0,1-.87-.3,1.87,1.87,0,0,1,.39-3.58,43.71,43.71,0,0,1,7.27-.78c3.88-.19,7.76-.29,11.64-.39,1.26-4.36,2.72-8.73,4.27-13,1-2.52,1.94-4.94,3-7.37a1.77,1.77,0,0,1,2.32-.87,1.66,1.66,0,0,1,.78,2.33,144,144,0,0,0-7.57,18.81c8.83-.09,17.76,0,26.58.2,5.43.19,10.87.39,16.4,1.07A.44.44,0,0,1,175.76,32.69Z"/><path class="cls-1" d="M207.87,53.84C203,60.72,193.71,72.46,185.56,75c-14.45,3.3-5.34-25.51.1-30.36a1.74,1.74,0,0,1,2.71.29c.58,1,.29,2.14.2,3.11a4.74,4.74,0,0,1-.2,1.06,1.37,1.37,0,0,1-.09,1.36,1.72,1.72,0,0,1-3.11.1c-.58,1-1.07,2-1.55,3C179,63.63,176.15,82,192.35,69.16A67.84,67.84,0,0,0,201.56,60a73.22,73.22,0,0,0,5.34-6.88C207.38,52.58,208.35,53.25,207.87,53.84ZM187.31,32.69c1.26-2.42,2.52-3.1,3.88-2.42s2.32,2.42,1.16,4.85-1.26,6.11-2.62,5.33C187.21,39,186,35,187.31,32.69Z"/><path class="cls-1" d="M248.51,54.32a11.7,11.7,0,0,0-3.68.68c-8.54,2.81-16.4,7.66-23.58,13a54.87,54.87,0,0,0-7.37,6.5c.78,1.36,1.75,2.71,2.62,4.07,1.55,2.62,4,5.24,4.46,8.44a2.22,2.22,0,0,1-1.55,2.33c-2.23.77-4.36-.1-6.5-.78-2.23-.87-4.46-2.62-4.65-5.24,0-2.42,1.35-5.14,3.59-7.85a53.4,53.4,0,0,1-4.47-7.57c-3-6.3-3-13,1.94-18.43a29.34,29.34,0,0,1,16.88-8.92c2.72-.2,4.85,1.55,3.49,4.27-.87,1.55-2.23,2.91-2.62,4.46a1.68,1.68,0,1,1-3.29-.68c.38-1.84,1.55-3.2,2.42-4.75-2.33.09-6,1.74-7.76,2.61-6.3,3.11-11.93,8.83-10.09,16.4a38,38,0,0,0,5,10.86c7.57-8,21.34-15.91,27.45-18.53,2.52-1.06,4.95-2.23,7.66-2.32A.73.73,0,1,1,248.51,54.32ZM212.33,76.24c-4.07,5.14-5.43,10.58,4.66,12.13,1,0,2.81,0,2.52-1.36a11.38,11.38,0,0,0-1.94-3.69C215.92,80.9,214.08,78.57,212.33,76.24Z"/><path class="cls-1" d="M310.59,55.29c-2.81,2.14-9.6,7.08-13.09,5.92-4.18-1.84-2.24-8.34-1.75-11.74.19-.87.39-1.74.48-2.52a1.38,1.38,0,0,0-2-1.45c-5.43,3.2-14.84,20.17-15.72,32.59a1.73,1.73,0,0,1-3.39-.39,127,127,0,0,1,5.72-36.09,1.75,1.75,0,0,1,3.3,1.17,124.59,124.59,0,0,0-5,24.64c1.94-5.34,8.14-18.34,12.61-22.51,4.26-4.07,8.92-3.68,7.17,3-.48,3-4.17,10.48-.77,12.22,3.59,1,11.15-4.17,13.48-6.89.1-.19.39-.19.58-.09C312.92,53.84,310.88,54.9,310.59,55.29Z"/><path class="cls-1" d="M343.38,53.93a86,86,0,0,1-11.94,14.55c-3.87,3.59-8.43,7.18-14,7.76-10.29.3-11.16-10.38-8.25-17.94,2.23-6,6.31-12.61,12.81-14.45,4.36-1,8.24,1.06,5.72,5.82a19.63,19.63,0,0,1-8.54,8,11.53,11.53,0,0,1-7,1.35,1.28,1.28,0,0,1-.58-.19c-2,5.14-2.43,10.57.68,13.68,9.5,7.37,25.12-12.32,30-19.4a.63.63,0,0,1,.87-.2A.76.76,0,0,1,343.38,53.93Zm-30.27,1.85c3.4.29,6.89-1.94,9.41-4.27a12,12,0,0,0,2.91-4.08.63.63,0,0,0-.48-.77,7.56,7.56,0,0,0-4.76,1C317.77,49,315.05,52.09,313.11,55.78Z"/><path class="cls-1" d="M382.85,53.84a85.69,85.69,0,0,1-5.72,8.53c-3.2,4-12.22,15.91-17.85,12-3.1-2.62-3.1-8.54-2.23-14A91.51,91.51,0,0,1,344.64,74c-1.94,1.46-4.47,3.4-7.09,2.43a5.34,5.34,0,0,1-2.9-4.17,16.55,16.55,0,0,1,1.16-7.86c2.71-7.37,7.95-16,15-19.79,4.08-2,8.25-.77,10.38,3.3a1.71,1.71,0,0,1-3,1.65c-5.53-10.67-23.09,16.1-19.89,22.89a1.57,1.57,0,0,0,1.84.87c3.69-1.26,10.87-11,13.49-14.06l2.91-3.78,2.91-3.79a1.71,1.71,0,0,1,2.42-.29,1.67,1.67,0,0,1,.49,2.14,27,27,0,0,0-2.53,5.91,29,29,0,0,0-1.16,6.4c-.19,2.43-.29,5.44,1.55,7.18,5.34,3.69,17.27-12.7,19.69-16.88a28.28,28.28,0,0,0,1.56-3A.76.76,0,0,1,382.85,53.84Z"/><path class="cls-1" d="M419,2.81C413.7,18.43,409,34.34,404.78,50.34c-3.11,12-6.11,24.16-7.09,36.48-.19,3-.58,6.11.49,8.82,2.62-.68,3.2,2.53,1.65,3-5.63,1.84-5.05-5.53-4.66-8.92,1.85-14.36,5.24-26.19,8.34-39a2,2,0,0,1-2.42-.48c-3.1,6.5-8,17.94-14.55,21.34-3.3,1.65-7.28-.49-8.34-3.88-1.75-5.43.68-11.25,3.78-15.72,3.78-5.62,10.86-10,17.65-6.69,6.12-14.26,11.16-28.91,16.2-43.55A1.86,1.86,0,0,1,418.16.58,1.67,1.67,0,0,1,419,2.81ZM398.28,48.4c-8.73-3.88-16.69,7.47-17.27,15.14-.1,2,.39,4.46,2.43,5.14,3.88.58,8.53-8.05,10.28-11.06S396.82,51.51,398.28,48.4Zm9-12.7c-1.55,3.78-3.11,7.56-4.76,11.35.49.48,1.17.77,1.46,1.35C405.07,44.14,406.13,39.87,407.3,35.7Z"/><path class="cls-1" d="M468.31,53.55a.87.87,0,0,1-.87.87,57.46,57.46,0,0,0-17.37,2.13,182.64,182.64,0,0,1-12.61,42.88c-3.58,7.56-7.76,16.2-15.32,20.37-9.51,4.36-14.36-3.2-14.07-12,.2-10,4.27-19.5,9.61-27.74A60.26,60.26,0,0,1,447,56.46c.29-2,.58-4,.87-6a77.2,77.2,0,0,0,.78-8.15c.77-5.91-2.23-4.56-2.91-4a39,39,0,0,0-2.43,3.1c-4.85,6.89-8.53,14.26-13.48,21.15a25.8,25.8,0,0,1-6,6.5,6,6,0,0,1-7.86,0c-4.07-3.88-2.62-11-1.16-15.82a24.74,24.74,0,0,1,1.84-4.07,1.67,1.67,0,1,1,2.91,1.65c-1.94,4-3.2,8.54-2.62,13,.19,1.65,1.36,3.49,3.2,3.3,1.84-.49,3.11-1.94,4.46-3.4,4.37-5.24,7.76-11.35,11.35-17.17,2.81-4.17,5.53-9.5,9.9-12.41a3.78,3.78,0,0,1,4.46.09c2.91,2.43,1.07,13,.77,16.69-.29,1.45-.48,2.91-.77,4.36a53.29,53.29,0,0,1,8.63-1.94,82.73,82.73,0,0,1,8.44-.68A1,1,0,0,1,468.31,53.55Zm-21.63,4.17a57.06,57.06,0,0,0-32,30.16c-3.2,7.38-5.63,15.81-4.17,23.87.58,3.49,2.91,7.27,7,6.88,8.54-1,14.26-13.29,17.56-20.27A185.62,185.62,0,0,0,446.68,57.72Z"/><path class="cls-1" d="M490.23,60.43c-5.14-.09-10.38-.09-15.52,0-1.74.1-3.39.1-5.14.29a1.16,1.16,0,1,1,0-2.32,181.15,181.15,0,0,0,20.56-.3A1.17,1.17,0,1,1,490.23,60.43Z"/><path class="cls-1" d="M548.33,32.69a.52.52,0,0,1-.48.49c-5.43-.49-10.87-.49-16.39-.49-9,.19-18.14.39-27.26.87-.87,2.62-1.55,5.24-2.33,7.86-2.72,10-4.95,20.27-5.53,30.75-.19,4.66-.48,10.86,2.33,14.74a3.4,3.4,0,0,0,4.46,1.17c8.44-4.27,17.66-25.51,20.08-34.73a.85.85,0,0,1,1.65.39,131.32,131.32,0,0,1-6.21,14.65c-2.81,5.53-13.38,28-21,19.4C491,79,497,51.41,499.54,40.84c.58-2.43,1.26-4.75,1.85-7.08-4.85.29-9.8.68-14.65,1.16-.39.1-.68.1-1.07.2a1.66,1.66,0,0,1-1.94,1,8.61,8.61,0,0,1-.87-.3,1.87,1.87,0,0,1,.39-3.58,43.71,43.71,0,0,1,7.27-.78c3.88-.19,7.76-.29,11.64-.39,1.26-4.36,2.72-8.73,4.27-13,1-2.52,1.94-4.94,3-7.37a1.78,1.78,0,0,1,2.33-.87,1.66,1.66,0,0,1,.77,2.33A142.59,142.59,0,0,0,505,30.94c8.82-.09,17.75,0,26.57.2,5.43.19,10.87.39,16.4,1.07A.44.44,0,0,1,548.33,32.69Z"/><path class="cls-1" d="M568.32,54c-4.08,3-8.93,4.75-13.78,6.11A67.53,67.53,0,0,1,545.62,62c-3.49,7.47-9.7,14.17-14.65,14.56-5.92.38-6.6-7.28-5.63-11.55a15.65,15.65,0,0,1,1.75-4.85,6.76,6.76,0,0,1-1.65-1.26c-3.1-2.91-2.33-8.05.39-11,4.46-5,13-7.86,19.11-4.07,4.85,3.1,4.07,10.67.87,17.65,8.63-1.26,17.46-4.75,21.63-8.44C568.12,52.48,569,53.55,568.32,54Zm-40.65,5.24a10.4,10.4,0,0,1,2.52-2.52,8,8,0,0,1,5.15-1.46,1.71,1.71,0,0,1-.3,3.4,5.35,5.35,0,0,0-4.26,2.23A28.9,28.9,0,0,0,541.93,62c2.52-4.55,4.17-9.6,3.11-13.19a4.82,4.82,0,0,0-1.75-2.42c-3.49-2.62-8.92-1.36-12.61.77C526.31,49.47,523.31,55.49,527.67,59.27Zm14,3.2a40.92,40.92,0,0,1-10.28-.68c-.29-.1-.68-.19-1-.29a13.45,13.45,0,0,0-1.55,9.7c.29.87.58,1.75,1.55,1.84a6.75,6.75,0,0,0,4.17-1.84A29.85,29.85,0,0,0,541.64,62.47Z"/><path class="cls-1" d="M590.43,60.43c-5.14-.09-10.38-.09-15.52,0-1.75.1-3.39.1-5.14.29a1.16,1.16,0,1,1,0-2.32,181.15,181.15,0,0,0,20.56-.3A1.17,1.17,0,1,1,590.43,60.43Z"/><path class="cls-1" d="M649.8,54.61a61.32,61.32,0,0,0-18.34.39,155,155,0,0,1-3,17c-3.79,14.74-8.73,31.13-18.73,43-3.88,4.56-10.28,8.34-16,4.85-7.66-5-6.5-17.66-4.46-25.32a56.6,56.6,0,0,1,27.16-34.82,54.67,54.67,0,0,1,13.38-5.24A75.06,75.06,0,0,0,630.3,44c-.2-3.78-1.55-10.38-6.5-6.4a23.91,23.91,0,0,0-4.46,5.43,24.82,24.82,0,0,1,4.85,4.36,1.69,1.69,0,1,1-2.52,2.24A20.94,20.94,0,0,0,617.59,46c-5.62,9.6-11.35,23-17.46,23.67a4.37,4.37,0,0,1-4.75-3.59c-1.26-5.72.77-11.64,3.49-16.69,5-8.63,12.22-10.76,19.11-7.08a23.58,23.58,0,0,1,3.1-4.17c1.75-1.94,4.66-4.36,7.47-2.71,3.69,2.32,3.88,10.38,3,18.62A69,69,0,0,1,650,52.48,1.07,1.07,0,1,1,649.8,54.61Zm-20.08.78a61.06,61.06,0,0,0-7.18,2.13,48.34,48.34,0,0,0-14,8.25A50.52,50.52,0,0,0,595.77,82c-4.47,8.82-7.67,21-4.27,30.75,1.45,4.07,4.85,6.59,9.21,5.33,6.79-2.42,11.16-10.28,14.46-16.3C621.86,88.47,627.78,71.3,629.72,55.39ZM616.14,45.11c-3.3-1.75-7-2-10.48.87-4.46,3.78-7,9.6-7.86,15.23-.09,1.65-.38,5.82,1.85,5.92C604.11,66.93,610.8,53.93,616.14,45.11Z"/><path class="cls-1" d="M694.51,54c-4.07,3-8.92,4.75-13.77,6.11A67.34,67.34,0,0,1,671.81,62c-3.49,7.47-9.7,14.17-14.64,14.56-5.92.38-6.6-7.28-5.63-11.55a15.15,15.15,0,0,1,1.75-4.85,6.41,6.41,0,0,1-1.65-1.26c-3.11-2.91-2.33-8.05.38-11,4.47-5,13-7.86,19.11-4.07C676,47,675.21,54.52,672,61.5c8.63-1.26,17.46-4.75,21.63-8.44C694.32,52.48,695.19,53.55,694.51,54Zm-40.64,5.24a10.4,10.4,0,0,1,2.52-2.52,8,8,0,0,1,5.14-1.46,1.71,1.71,0,0,1-.29,3.4A5.37,5.37,0,0,0,657,60.92,29,29,0,0,0,668.13,62c2.52-4.55,4.17-9.6,3.1-13.19a4.71,4.71,0,0,0-1.75-2.42c-3.49-2.62-8.92-1.36-12.61.77C652.51,49.47,649.5,55.49,653.87,59.27Zm14,3.2a41,41,0,0,1-10.29-.68c-.29-.1-.68-.19-1-.29A13.45,13.45,0,0,0,655,71.2c.29.87.58,1.75,1.55,1.84a6.7,6.7,0,0,0,4.17-1.84C662.89,69.65,665.7,66.25,667.84,62.47Z"/></g></g></svg>