<svg xmlns="http://www.w3.org/2000/svg" viewBox="0 0 47.88 47.88"><defs><style>.cls-1{fill:#f16522;}</style></defs><g id="Layer_2" data-name="Layer 2"><g id="base_credits_logo" data-name="base, credits &amp; logo"><g id="sound_on" data-name="sound on"><path class="cls-1" d="M23.94,0A23.94,23.94,0,1,0,47.88,23.94,24,24,0,0,0,23.94,0ZM37.8,39.82a21.41,21.41,0,0,1-15.41,5.09A21,21,0,0,1,8.12,10.13s11-7.38,16.55-7.19A21,21,0,0,1,39.82,37.75"/><path class="cls-1" d="M30.44,19.1a.87.87,0,0,0-1.21-.05l-.85.91A.85.85,0,0,0,28.33,21a4.74,4.74,0,0,1,0,5.85.83.83,0,0,0,.05,1.05l.85.91a.79.79,0,0,0,1.21,0,7.55,7.55,0,0,0,1.72-4.84A7.68,7.68,0,0,0,30.44,19.1Z"/><path class="cls-1" d="M32.56,15l-.8.91a.83.83,0,0,0,0,1.11,9.92,9.92,0,0,1,2.82,7,10.05,10.05,0,0,1-2.82,7,.78.78,0,0,0,0,1.11l.8.9a.81.81,0,0,0,1.21,0,12.84,12.84,0,0,0,3.68-9,12.66,12.66,0,0,0-3.68-9A.83.83,0,0,0,32.56,15Z"/><path class="cls-1" d="M23.34,11.19l-6.45,7h-5a1.41,1.41,0,0,0-1.42,1.41v8.72a1.42,1.42,0,0,0,1.42,1.41h5l6.45,7a1.42,1.42,0,0,0,2.47-.95V12.15A1.42,1.42,0,0,0,23.34,11.19Z"/></g></g></g></svg>