<svg xmlns="http://www.w3.org/2000/svg" viewBox="0 0 3508.2 192.78"><defs><style>.cls-1{fill:#231f20;}</style></defs><g id="Layer_2" data-name="Layer 2"><g id="Layer_1-2" data-name="Layer 1"><path class="cls-1" d="M187.43,16.62v0Zm38.82,109c1.08-1,32.84-28.44,32.84-28.44l-3.18-1.54-2-1c-3.13-1.47-2.64-4.11-2.15-5.88s5.72-20.1,5.72-20.1-13.7,3.07-16.9,3.56c-2.55.4-3.44-.78-4.22-2.55s-4.11-9.79-4.11-9.79-16.79,18.57-17.15,18.91c-3.23,2.94-6.37.69-5.77-2.74.53-3.14,8.62-40.27,8.62-40.27l-11.86,7c-2.94,1.77-4.51,1.47-6.07-1.37s-12.49-24.73-12.56-24.86c-.07.13-11,22-12.55,24.86s-3.14,3.14-6.08,1.37l-11.85-7s8.09,37.13,8.62,40.27c.59,3.43-2.55,5.68-5.78,2.74-.36-.34-17.14-18.91-17.14-18.91s-3.33,8-4.12,9.79-1.66,3-4.21,2.55c-3.2-.49-17.46-3.56-17.46-3.56s5.78,18.34,6.27,20.1,1,4.41-2.15,5.88l-2,1-3.17,1.54s31.75,27.45,32.84,28.44,3.13,1.85,1.56,6.54-3.82,11.08-3.82,11.08,29.39-6,32.52-6.66,5.79.38,5.79,3.52-1.28,34.57-1.28,34.57h8.07s-1.28-31.43-1.28-34.57,2.65-4.21,5.78-3.52,32.52,6.66,32.52,6.66-2.25-6.38-3.82-11.08S225.17,126.63,226.25,125.65Z"/><rect class="cls-1" x="283.59" y="0.47" width="93.31" height="191.46"/><rect class="cls-1" y="0.41" width="93.31" height="191.44"/><path class="cls-1" d="M569.94,50.91h9a19.36,19.36,0,0,0,2.85,9.79q4.77,7,16.83,7a29.72,29.72,0,0,0,9.83-1.55c5.72-2,8.59-5.56,8.59-10.7q0-5.77-3.62-8.23c-2.45-1.62-6.27-3-11.48-4.21l-9.59-2.17q-9.4-2.11-13.31-4.67-6.75-4.43-6.75-13.26a20.42,20.42,0,0,1,6.61-15.67q6.6-6.12,18.7-6.12,11.14,0,18.93,5.37t7.79,17.19h-9c-.48-3.79-1.51-6.69-3.09-8.73q-4.38-5.54-14.89-5.54c-5.67,0-9.73,1.2-12.21,3.56a11.19,11.19,0,0,0-3.71,8.31,8.13,8.13,0,0,0,4.34,7.62q2.85,1.53,12.88,3.84L608.56,35c4.79,1.1,8.49,2.59,11.09,4.5q6.75,5,6.75,14.4,0,11.76-8.56,16.83A38.28,38.28,0,0,1,598,75.84q-13.22,0-20.68-6.76T569.94,50.91Z"/><path class="cls-1" d="M646.41,62.68c-2.41-3.68-3.62-8.25-3.62-13.75a28.12,28.12,0,0,1,3.62-14.65Q650,28.19,658,28.2q9,0,12.64,7.13,2.31,4.53,2.31,11.77a32.46,32.46,0,0,1-3.21,14.53q-3.21,6.54-11.83,6.53Q650,68.16,646.41,62.68Zm-5.93-34.35q-6.6,7.72-6.61,20.75,0,12.14,6.27,19.35t16.93,7.22q12.76,0,18.84-8.15C680,62.07,682,55.17,682,46.85q0-12.91-6.89-19.56a23.39,23.39,0,0,0-16.88-6.67Q647.07,20.62,640.48,28.33Z"/><path class="cls-1" d="M712.2,20.62c5.82,0,10.55,1.43,14.2,4.25s5.84,7.69,6.58,14.61h-8.44A15.46,15.46,0,0,0,721,31.55q-2.74-3.16-8.82-3.16-8.3,0-11.86,8.1a32.23,32.23,0,0,0-2.31,13,24.49,24.49,0,0,0,3.27,13.07c2.19,3.54,5.63,5.29,10.32,5.29a11.26,11.26,0,0,0,8.56-3.29,18.22,18.22,0,0,0,4.36-9.05H733q-1.44,10.29-7.23,15T711,75.25q-10.12,0-16.16-7.39t-6-18.5q0-13.59,6.6-21.16A21.34,21.34,0,0,1,712.2,20.62Z"/><path class="cls-1" d="M741.66,73.77V22.37h8.83v51.4Zm0-61V2.92h8.83v9.85Z"/><path class="cls-1" d="M774.23,52.79a20,20,0,0,1,7.09-2l5.25-.68a35.85,35.85,0,0,0,4.92-1,14.72,14.72,0,0,0,4.1-1.69v7A11.93,11.93,0,0,1,788.36,66a19.61,19.61,0,0,1-8.87,2.14A10.22,10.22,0,0,1,773,66,7.15,7.15,0,0,1,770.23,60,7.7,7.7,0,0,1,774.23,52.79Zm-8.58-3.71q-4.49,3.95-4.49,11.14a14.52,14.52,0,0,0,4.56,10.92,16.36,16.36,0,0,0,11.74,4.36A23.77,23.77,0,0,0,788.41,73a22.36,22.36,0,0,0,7.62-6,12.24,12.24,0,0,0,1.49,4.78c1.35,2.11,3.52,3.18,6.51,3.18a20.16,20.16,0,0,0,2.89-.15A22.61,22.61,0,0,0,810,74v-6.4a13.59,13.59,0,0,1-1.55.21,10.38,10.38,0,0,1-1.3.08c-1.19,0-2-.27-2.33-.82a3.76,3.76,0,0,1-.56-2.17V35.14q0-7.32-5.64-10.81t-14.8-3.46A25.46,25.46,0,0,0,770,24.6c-4,2.5-6,6.92-6.2,13.3h8.11a12.1,12.1,0,0,1,2.07-6q2.85-3.66,9.64-3.66c3.92,0,6.94.67,9,2s3.16,3.49,3.16,6.44a7.44,7.44,0,0,1-.58,3.31,4.67,4.67,0,0,1-4,2.52L777.41,44.2A21.23,21.23,0,0,0,765.65,49.08Z"/><path class="cls-1" d="M818.71,73.77V2.92h8.68V73.77Z"/><path class="cls-1" d="M866.23,50.91h9a19.27,19.27,0,0,0,2.85,9.79q4.75,7,16.82,7a29.72,29.72,0,0,0,9.83-1.55c5.73-2,8.59-5.56,8.59-10.7,0-3.85-1.2-6.59-3.62-8.23s-6.27-3-11.47-4.21l-9.6-2.17q-9.4-2.11-13.32-4.67-6.74-4.43-6.74-13.26A20.42,20.42,0,0,1,875.2,7.27q6.6-6.12,18.7-6.12,11.16,0,18.93,5.37t7.78,17.19h-9c-.48-3.79-1.51-6.69-3.08-8.73q-4.41-5.54-14.9-5.54c-5.66,0-9.72,1.2-12.2,3.56a11.16,11.16,0,0,0-3.72,8.31A8.13,8.13,0,0,0,882,28.93q2.85,1.53,12.88,3.84L904.85,35c4.78,1.1,8.49,2.59,11.1,4.5q6.74,5,6.74,14.4,0,11.76-8.55,16.83a38.37,38.37,0,0,1-19.9,5.07q-13.22,0-20.68-6.76T866.23,50.91Z"/><path class="cls-1" d="M953.6,20.62c5.81,0,10.55,1.43,14.2,4.25s5.84,7.69,6.58,14.61h-8.44a15.63,15.63,0,0,0-3.52-7.93c-1.83-2.11-4.78-3.16-8.82-3.16-5.54,0-9.48,2.71-11.86,8.1a32,32,0,0,0-2.33,13,24.5,24.5,0,0,0,3.29,13.07c2.18,3.54,5.63,5.29,10.31,5.29a11.28,11.28,0,0,0,8.57-3.29,18.3,18.3,0,0,0,4.36-9.05h8.44q-1.46,10.29-7.23,15t-14.8,4.74q-10.14,0-16.16-7.39t-6-18.5q0-13.59,6.61-21.16A21.35,21.35,0,0,1,953.6,20.62Z"/><path class="cls-1" d="M991.87,12.77V2.92h-8.82v9.85Zm0,61V22.37h-8.82v51.4Z"/><path class="cls-1" d="M1015.91,32.85a13.23,13.23,0,0,1,10-4.32q8.33,0,11.91,6.28a22.45,22.45,0,0,1,2.45,9h-28.68A16.29,16.29,0,0,1,1015.91,32.85Zm-7.08-4.11q-6.75,7.74-6.75,20.19,0,12.63,6.7,19.65a21.76,21.76,0,0,0,16.35,7,30.64,30.64,0,0,0,7.09-.76,20.37,20.37,0,0,0,9.78-5.22,22.16,22.16,0,0,0,4.27-5.71,17.77,17.77,0,0,0,2.23-6.35H1040a15,15,0,0,1-3.28,6,13.86,13.86,0,0,1-10.83,4.48c-4.86,0-8.44-1.58-10.77-4.74s-3.54-7.37-3.71-12.61h37.85a60.27,60.27,0,0,0-.76-11.39,23,23,0,0,0-3.48-9.11,19.73,19.73,0,0,0-7.86-6.67A23.47,23.47,0,0,0,1026.47,21Q1015.58,21,1008.83,28.74Z"/><path class="cls-1" d="M1059.87,73.77V22.12h8.24v7.34a22.92,22.92,0,0,1,7.77-6.52,20.76,20.76,0,0,1,9.1-2q11,0,14.86,7.68,2.12,4.17,2.11,12V73.77h-8.81V41.21a17.73,17.73,0,0,0-1.4-7.62c-1.55-3.2-4.34-4.82-8.4-4.82a17,17,0,0,0-5.06.63,13.1,13.1,0,0,0-6.27,4.25,12.76,12.76,0,0,0-2.82,5.28,35.76,35.76,0,0,0-.65,7.79V73.77Z"/><path class="cls-1" d="M1134.68,20.62c5.81,0,10.54,1.43,14.19,4.25s5.85,7.69,6.58,14.61H1147a15.63,15.63,0,0,0-3.52-7.93c-1.83-2.11-4.78-3.16-8.82-3.16q-8.31,0-11.87,8.1a32.23,32.23,0,0,0-2.31,13,24.49,24.49,0,0,0,3.27,13.07c2.19,3.54,5.63,5.29,10.32,5.29a11.24,11.24,0,0,0,8.56-3.29,18.23,18.23,0,0,0,4.37-9.05h8.43q-1.44,10.29-7.23,15t-14.8,4.74q-10.12,0-16.15-7.39t-6-18.5q0-13.59,6.6-21.16A21.37,21.37,0,0,1,1134.68,20.62Z"/><path class="cls-1" d="M1175.08,32.85a13.2,13.2,0,0,1,10-4.32q8.34,0,11.92,6.28a22.61,22.61,0,0,1,2.46,9h-28.69A16.3,16.3,0,0,1,1175.08,32.85ZM1168,28.74q-6.76,7.74-6.76,20.19,0,12.63,6.7,19.65a21.77,21.77,0,0,0,16.34,7,30.55,30.55,0,0,0,7.1-.76,20.33,20.33,0,0,0,9.78-5.22,21.94,21.94,0,0,0,4.27-5.71,17.81,17.81,0,0,0,2.24-6.35h-8.53a15.08,15.08,0,0,1-3.28,6A13.9,13.9,0,0,1,1185,68.07q-7.27,0-10.75-4.74t-3.71-12.61h37.85a60.07,60.07,0,0,0-.77-11.39,23.19,23.19,0,0,0-3.48-9.11,19.66,19.66,0,0,0-7.86-6.67A23.43,23.43,0,0,0,1185.64,21Q1174.75,21,1168,28.74Z"/><path class="cls-1" d="M1215.85,57.55h8.34a12.58,12.58,0,0,0,2.17,6.67c2.18,2.78,6,4.19,11.37,4.19a16.92,16.92,0,0,0,8.5-2.09,7,7,0,0,0,3.66-6.5,5.6,5.6,0,0,0-2.94-5.07,35.32,35.32,0,0,0-7.43-2.45l-6.89-1.74a33.45,33.45,0,0,1-9.75-3.65,11,11,0,0,1-5.59-9.74,14.87,14.87,0,0,1,5.28-11.86q5.28-4.54,14.2-4.54,11.67,0,16.83,6.84a14.87,14.87,0,0,1,3.13,9.35h-8.2a10,10,0,0,0-2.06-5.35c-2-2.27-5.46-3.41-10.38-3.41-3.27,0-5.75.63-7.44,1.87a5.91,5.91,0,0,0-2.54,5,6.14,6.14,0,0,0,3.34,5.41,19.93,19.93,0,0,0,5.68,2.11l5.75,1.39c6.22,1.53,10.41,3,12.53,4.41,3.37,2.2,5.07,5.69,5.07,10.45a16,16,0,0,1-5.24,11.91q-5.23,5-15.94,5c-7.68,0-13.12-1.76-16.32-5.24A19.82,19.82,0,0,1,1215.85,57.55Z"/><path class="cls-1" d="M1306.5,52.79a19.85,19.85,0,0,1,7.08-2l5.26-.68a36.44,36.44,0,0,0,4.92-1,14.64,14.64,0,0,0,4.09-1.69v7A11.93,11.93,0,0,1,1320.62,66a19.6,19.6,0,0,1-8.86,2.14,10.23,10.23,0,0,1-6.52-2.17A7.17,7.17,0,0,1,1302.5,60,7.7,7.7,0,0,1,1306.5,52.79Zm-8.59-3.71q-4.48,3.95-4.48,11.14A14.55,14.55,0,0,0,1298,71.14a16.37,16.37,0,0,0,11.74,4.36,23.74,23.74,0,0,0,11-2.55,22.27,22.27,0,0,0,7.62-6,12.08,12.08,0,0,0,1.49,4.78c1.35,2.11,3.52,3.18,6.51,3.18a20.07,20.07,0,0,0,2.89-.15,22.61,22.61,0,0,0,3.09-.73v-6.4a13.74,13.74,0,0,1-1.54.21,10.49,10.49,0,0,1-1.3.08c-1.2,0-2-.27-2.34-.82a3.84,3.84,0,0,1-.55-2.17V35.14q0-7.32-5.65-10.81t-14.8-3.46a25.46,25.46,0,0,0-13.82,3.73c-4,2.5-6,6.92-6.19,13.3h8.09a12.19,12.19,0,0,1,2.08-6c1.91-2.44,5.11-3.66,9.64-3.66q5.88,0,9,2c2.1,1.34,3.16,3.49,3.16,6.44a7.44,7.44,0,0,1-.58,3.31,4.69,4.69,0,0,1-4,2.52l-13.83,1.73A21.23,21.23,0,0,0,1297.91,49.08Z"/><path class="cls-1" d="M1350.73,73.77V22.12H1359v7.34a23,23,0,0,1,7.76-6.52,20.8,20.8,0,0,1,9.11-2q11,0,14.85,7.68,2.13,4.17,2.13,12V73.77H1384V41.21a17.72,17.72,0,0,0-1.41-7.62c-1.55-3.2-4.34-4.82-8.38-4.82a17,17,0,0,0-5.07.63,13,13,0,0,0-6.27,4.25,12.76,12.76,0,0,0-2.82,5.28,35.14,35.14,0,0,0-.65,7.79V73.77Z"/><path class="cls-1" d="M1415.2,33.78a13.08,13.08,0,0,1,10.64-5,12.42,12.42,0,0,1,9.87,4.71q4,4.68,4,14.49t-3.88,14.86a11.88,11.88,0,0,1-9.91,5.2q-7.77,0-11.29-5.6t-3.52-13.88C1411.12,42.05,1412.48,37.14,1415.2,33.78Zm-7.48-4.3A33.28,33.28,0,0,0,1402,49q0,12.06,6.3,19.32t15,7.25a20.59,20.59,0,0,0,9.49-2.11,18.86,18.86,0,0,0,7.19-6.9v7.19h7.81V2.69h-8.34V28.77a23.52,23.52,0,0,0-5.26-5.06,18.45,18.45,0,0,0-9.93-2.5C1417.06,21.21,1411.57,24,1407.72,29.48Z"/><path class="cls-1" d="M1489.35,73.77V2.92H1499V32.2h36.84V2.92h9.7V73.77h-9.7V40.64H1499V73.77Z"/><path class="cls-1" d="M1559.05,22.12h8.87V56.41a14.43,14.43,0,0,0,1.26,6.46q2.31,4.63,8.63,4.63,9,0,12.34-8.12c1.19-2.87,1.79-6.85,1.79-11.9V22.12h8.68V73.77h-8.2l.09-7.62a17.3,17.3,0,0,1-4.19,5,18.57,18.57,0,0,1-12.06,4q-11,0-15-7.38c-1.44-2.62-2.17-6.15-2.17-10.55Z"/><path class="cls-1" d="M1614.14,73.77V22.12h8.58v7.34a28.13,28.13,0,0,1,5.6-5.54,16.75,16.75,0,0,1,9.74-3c4.11,0,7.43,1,9.93,3.05a15.79,15.79,0,0,1,3.86,5.11,18.69,18.69,0,0,1,6.8-6.16,19,19,0,0,1,8.77-2q10.41,0,14.18,7.53c1.34,2.7,2,6.32,2,10.89V73.77h-9V37.9c0-3.45-.87-5.81-2.59-7.11a10.27,10.27,0,0,0-6.29-1.92,12.46,12.46,0,0,0-8.8,3.43c-2.45,2.28-3.69,6.09-3.69,11.43v30h-8.82V40.05c0-3.49-.42-6.06-1.26-7.66-1.31-2.42-3.77-3.62-7.37-3.62a12.73,12.73,0,0,0-8.94,3.81c-2.69,2.54-4,7.15-4,13.79v27.4Z"/><path class="cls-1" d="M1707,52.79a19.85,19.85,0,0,1,7.09-2l5.25-.68a36.44,36.44,0,0,0,4.92-1,14.59,14.59,0,0,0,4.1-1.69v7A11.93,11.93,0,0,1,1721.16,66a19.64,19.64,0,0,1-8.87,2.14,10.23,10.23,0,0,1-6.52-2.17A7.2,7.2,0,0,1,1703,60,7.7,7.7,0,0,1,1707,52.79Zm-8.59-3.71Q1694,53,1694,60.22a14.52,14.52,0,0,0,4.56,10.92,16.36,16.36,0,0,0,11.74,4.36A23.69,23.69,0,0,0,1721.2,73a22.17,22.17,0,0,0,7.62-6,12.07,12.07,0,0,0,1.5,4.78c1.34,2.11,3.51,3.18,6.5,3.18a20.32,20.32,0,0,0,2.9-.15,22.9,22.9,0,0,0,3.08-.73v-6.4a13.14,13.14,0,0,1-1.54.21,10.23,10.23,0,0,1-1.29.08c-1.2,0-2-.27-2.35-.82a3.84,3.84,0,0,1-.55-2.17V35.14c0-4.88-1.89-8.48-5.64-10.81s-8.73-3.46-14.81-3.46a25.43,25.43,0,0,0-13.81,3.73c-4,2.5-6,6.92-6.2,13.3h8.1a12.19,12.19,0,0,1,2.07-6q2.87-3.66,9.65-3.66c3.92,0,6.94.67,9,2s3.16,3.49,3.16,6.44a7.44,7.44,0,0,1-.58,3.31,4.67,4.67,0,0,1-4,2.52l-13.84,1.73A21.23,21.23,0,0,0,1698.44,49.08Z"/><path class="cls-1" d="M1751.26,73.77V22.12h8.25v7.34a23,23,0,0,1,7.77-6.52,20.77,20.77,0,0,1,9.11-2q11,0,14.86,7.68,2.1,4.17,2.11,12V73.77h-8.82V41.21a17.88,17.88,0,0,0-1.4-7.62c-1.54-3.2-4.33-4.82-8.39-4.82a17.05,17.05,0,0,0-5.07.63,13,13,0,0,0-6.26,4.25,12.64,12.64,0,0,0-2.82,5.28,35.14,35.14,0,0,0-.65,7.79V73.77Z"/><path class="cls-1" d="M1806.16,73.77V22.37H1815v51.4Zm0-61V2.92H1815v9.85Z"/><path class="cls-1" d="M1829.82,22.12V7.71h8.77V22.12h8.24v7.09h-8.24v33.7c0,1.81.61,3,1.83,3.62a7.69,7.69,0,0,0,3.38.53c.42,0,.86,0,1.34,0s1-.06,1.69-.13v6.86a20.38,20.38,0,0,1-3.11.62,31.4,31.4,0,0,1-3.49.19c-4,0-6.8-1-8.25-3.1a13.92,13.92,0,0,1-2.16-8.08V29.21h-7V22.12Z"/><path class="cls-1" d="M1855.51,73.77V22.37h8.82v51.4Zm0-61V2.92h8.82v9.85Z"/><path class="cls-1" d="M1888.37,32.85a13.21,13.21,0,0,1,10-4.32c5.55,0,9.54,2.09,11.92,6.28a22.78,22.78,0,0,1,2.45,9h-28.68A16.24,16.24,0,0,1,1888.37,32.85Zm-7.08-4.11q-6.76,7.74-6.76,20.19,0,12.63,6.7,19.65a21.79,21.79,0,0,0,16.35,7,30.52,30.52,0,0,0,7.09-.76,20.24,20.24,0,0,0,9.78-5.22,21.72,21.72,0,0,0,4.27-5.71,18,18,0,0,0,2.25-6.35h-8.54a15.18,15.18,0,0,1-3.27,6,13.94,13.94,0,0,1-10.86,4.48q-7.27,0-10.75-4.74c-2.31-3.17-3.56-7.37-3.71-12.61h37.85a60.07,60.07,0,0,0-.77-11.39,23,23,0,0,0-3.48-9.11,19.7,19.7,0,0,0-7.85-6.67A23.47,23.47,0,0,0,1898.93,21Q1888,21,1881.29,28.74Z"/><path class="cls-1" d="M1929.14,57.55h8.34a12.67,12.67,0,0,0,2.17,6.67c2.18,2.78,6,4.19,11.37,4.19a16.92,16.92,0,0,0,8.5-2.09,7,7,0,0,0,3.66-6.5,5.56,5.56,0,0,0-2.94-5.07,35.32,35.32,0,0,0-7.43-2.45l-6.89-1.74c-4.4-1.08-7.66-2.3-9.73-3.65a11,11,0,0,1-5.6-9.74,14.89,14.89,0,0,1,5.27-11.86q5.3-4.54,14.21-4.54,11.65,0,16.82,6.84A14.87,14.87,0,0,1,1970,37h-8.2a10,10,0,0,0-2.06-5.35q-3-3.41-10.37-3.41c-3.28,0-5.76.63-7.45,1.87a5.91,5.91,0,0,0-2.54,5,6.14,6.14,0,0,0,3.34,5.41,19.93,19.93,0,0,0,5.68,2.11l5.75,1.39c6.23,1.53,10.41,3,12.53,4.41,3.37,2.2,5.07,5.69,5.07,10.45a16,16,0,0,1-5.24,11.91q-5.23,5-15.93,5c-7.69,0-13.13-1.76-16.32-5.24A19.83,19.83,0,0,1,1929.14,57.55Z"/><path class="cls-1" d="M583.44,128.21h23.43a18.18,18.18,0,0,1,7.86,1.44q5.49,2.74,5.5,10.33c0,4.68-1.31,7.94-3.93,9.73s-6.18,2.71-10.68,2.71H583.44Zm0,62.59V160.42h21.84c3.92,0,6.8.44,8.63,1.29,3.22,1.58,4.93,4.69,5.16,9.32l.58,11.81a44.69,44.69,0,0,0,.48,5.6,9,9,0,0,0,.77,2.36h11.76v-1.6q-2.2-.94-3.08-4.34a29,29,0,0,1-.67-6l-.34-9.51q-.24-6.17-2.34-8.91A14.47,14.47,0,0,0,620,156a19.06,19.06,0,0,0,7.36-6.5A18.83,18.83,0,0,0,630,139.06q0-12.19-10-16.74A32.91,32.91,0,0,0,606.63,120H573.84V190.8Z"/><path class="cls-1" d="M653.76,149.88a13.24,13.24,0,0,1,10-4.32q8.34,0,11.91,6.29a22.19,22.19,0,0,1,2.46,9H649.47A16.32,16.32,0,0,1,653.76,149.88Zm-7.08-4.11q-6.76,7.74-6.76,20.19,0,12.63,6.7,19.66a21.78,21.78,0,0,0,16.35,7,31.07,31.07,0,0,0,7.09-.76,20.37,20.37,0,0,0,9.78-5.22,22.25,22.25,0,0,0,4.28-5.72,18.17,18.17,0,0,0,2.24-6.34h-8.54a15,15,0,0,1-3.28,6,13.89,13.89,0,0,1-10.84,4.47q-7.29,0-10.76-4.74t-3.71-12.61h37.85a60.07,60.07,0,0,0-.77-11.39,23,23,0,0,0-3.48-9.11,19.6,19.6,0,0,0-7.85-6.66A23.31,23.31,0,0,0,664.32,138Q653.43,138,646.68,145.77Z"/><path class="cls-1" d="M694.53,174.59h8.34a12.73,12.73,0,0,0,2.17,6.67c2.19,2.78,6,4.19,11.38,4.19a16.85,16.85,0,0,0,8.48-2.1,7,7,0,0,0,3.67-6.49,5.57,5.57,0,0,0-2.94-5.07,35.39,35.39,0,0,0-7.43-2.46l-6.89-1.73a33.39,33.39,0,0,1-9.74-3.66,11,11,0,0,1-5.6-9.73,14.89,14.89,0,0,1,5.28-11.87q5.28-4.54,14.2-4.53,11.67,0,16.83,6.83a14.89,14.89,0,0,1,3.14,9.36h-8.2a10.11,10.11,0,0,0-2.07-5.35q-3-3.41-10.37-3.41-4.92,0-7.45,1.86a5.91,5.91,0,0,0-2.53,5,6.13,6.13,0,0,0,3.33,5.41,20,20,0,0,0,5.69,2.12l5.73,1.39q9.36,2.28,12.54,4.4,5.07,3.31,5.06,10.46a15.9,15.9,0,0,1-5.23,11.9q-5.24,5-15.94,5-11.52,0-16.32-5.24A19.75,19.75,0,0,1,694.53,174.59Z"/><path class="cls-1" d="M758,149.88a13.23,13.23,0,0,1,10-4.32q8.34,0,11.91,6.29a22.51,22.51,0,0,1,2.46,9H753.74A16.32,16.32,0,0,1,758,149.88Zm-7.09-4.11q-6.75,7.74-6.75,20.19,0,12.63,6.7,19.66a21.78,21.78,0,0,0,16.35,7,30.92,30.92,0,0,0,7.08-.76,20.43,20.43,0,0,0,9.8-5.22,22.2,22.2,0,0,0,4.26-5.72,18,18,0,0,0,2.25-6.34h-8.54a15.15,15.15,0,0,1-3.28,6A13.88,13.88,0,0,1,768,185.1q-7.28,0-10.75-4.74t-3.71-12.61h37.85a60.07,60.07,0,0,0-.77-11.39,23.18,23.18,0,0,0-3.47-9.11,19.66,19.66,0,0,0-7.87-6.66A23.27,23.27,0,0,0,768.59,138Q757.69,138,750.94,145.77Z"/><path class="cls-1" d="M812.64,169.83a19.64,19.64,0,0,1,7.08-2l5.26-.69a35.37,35.37,0,0,0,4.91-.95,14.78,14.78,0,0,0,4.11-1.7v7A12,12,0,0,1,826.76,183a19.57,19.57,0,0,1-8.87,2.13,10.16,10.16,0,0,1-6.51-2.17,7.17,7.17,0,0,1-2.74-5.94A7.66,7.66,0,0,1,812.64,169.83Zm-8.59-3.72q-4.49,3.94-4.48,11.15a14.48,14.48,0,0,0,4.56,10.91,16.27,16.27,0,0,0,11.73,4.36A23.61,23.61,0,0,0,826.81,190a21.94,21.94,0,0,0,7.62-6,12.41,12.41,0,0,0,1.49,4.78c1.35,2.12,3.53,3.18,6.52,3.18a18.79,18.79,0,0,0,2.89-.15,21.16,21.16,0,0,0,3.09-.72v-6.4c-.55.09-1.07.17-1.54.21a13,13,0,0,1-1.32.07c-1.19,0-2-.26-2.33-.82a3.82,3.82,0,0,1-.56-2.17V152.17q0-7.32-5.64-10.8t-14.8-3.47a25.33,25.33,0,0,0-13.81,3.74q-6,3.74-6.2,13.29h8.1a12.13,12.13,0,0,1,2.07-6q2.85-3.66,9.65-3.65c3.92,0,6.93.66,9,2s3.17,3.48,3.17,6.43a7.49,7.49,0,0,1-.58,3.32,4.65,4.65,0,0,1-4,2.51l-13.84,1.74A21.23,21.23,0,0,0,804.05,166.11Z"/><path class="cls-1" d="M857.11,190.8V139.16h8.24v8.91q1-2.59,5-6.34a12.94,12.94,0,0,1,9.12-3.73l.82.05c.39,0,1,.1,2,.2v9.16a10.14,10.14,0,0,0-1.42-.19c-.45,0-.91-.06-1.43-.06q-6.55,0-10.08,4.21a14.75,14.75,0,0,0-3.52,9.73v29.7Z"/><path class="cls-1" d="M909.64,137.65c5.83,0,10.55,1.43,14.21,4.25s5.84,7.7,6.57,14.61H922a15.38,15.38,0,0,0-3.51-7.92c-1.84-2.12-4.77-3.16-8.83-3.16q-8.28,0-11.85,8.09a32.26,32.26,0,0,0-2.31,13,24.38,24.38,0,0,0,3.27,13.07c2.19,3.54,5.62,5.3,10.32,5.3a11.26,11.26,0,0,0,8.56-3.3,18.13,18.13,0,0,0,4.35-9.05h8.44q-1.42,10.29-7.23,15t-14.8,4.75q-10.12,0-16.15-7.4t-6-18.49q0-13.6,6.6-21.16A21.34,21.34,0,0,1,909.64,137.65Z"/><path class="cls-1" d="M939.11,190.8V119.73h8.68v26.42a24.76,24.76,0,0,1,5.54-5.5,18.73,18.73,0,0,1,10.47-2.75c7.48,0,12.57,2.63,15.23,7.87q2.18,4.29,2.18,11.9V190.8h-8.93V158.25c0-3.79-.48-6.58-1.45-8.35q-2.36-4.23-8.86-4.23a14.84,14.84,0,0,0-9.79,3.7c-2.94,2.48-4.39,7.16-4.39,14V190.8Z"/><path class="cls-1" d="M1052.44,118q13.45,0,20.89,7.09t8.23,16.12h-9.35a19.39,19.39,0,0,0-6.34-10.86q-4.75-4-13.33-4-10.47,0-16.9,7.35t-6.44,22.53q0,12.47,5.81,20.2t17.33,7.73q10.62,0,16.16-8.15a31.2,31.2,0,0,0,4.39-11.28h9.35a32,32,0,0,1-8.3,18.76q-8.43,9.12-22.75,9.11-12.35,0-20.74-7.47-11-9.89-11-30.53,0-15.66,8.28-25.7Q1036.67,118,1052.44,118Z"/><path class="cls-1" d="M1101.74,179.71c-2.41-3.67-3.61-8.24-3.61-13.75a28.14,28.14,0,0,1,3.61-14.65c2.41-4.06,6.27-6.07,11.57-6.07q9,0,12.64,7.12,2.31,4.54,2.31,11.77a32.66,32.66,0,0,1-3.2,14.54q-3.21,6.54-11.85,6.53Q1105.35,185.2,1101.74,179.71Zm-5.93-34.34q-6.61,7.71-6.6,20.74,0,12.15,6.27,19.36t16.91,7.22c8.53,0,14.8-2.73,18.86-8.16s6.08-12.32,6.08-20.65q0-12.91-6.9-19.56a23.4,23.4,0,0,0-16.87-6.67Q1102.42,137.65,1095.81,145.37Z"/><path class="cls-1" d="M1147.42,139.16h8.88v34.29a14.35,14.35,0,0,0,1.26,6.45q2.31,4.64,8.63,4.63,9,0,12.34-8.11c1.18-2.88,1.78-6.86,1.78-11.91V139.16H1189V190.8h-8.19l.09-7.62a17.46,17.46,0,0,1-4.19,5,18.51,18.51,0,0,1-12.06,4q-11.06,0-15-7.37-2.17-3.94-2.18-10.55Z"/><path class="cls-1" d="M1202.51,190.8V139.16h8.25v7.33a22.92,22.92,0,0,1,7.76-6.51,20.71,20.71,0,0,1,9.12-2q11,0,14.85,7.67c1.41,2.79,2.12,6.78,2.12,12V190.8h-8.82V158.25a17.69,17.69,0,0,0-1.41-7.62c-1.54-3.2-4.33-4.82-8.38-4.82a17.05,17.05,0,0,0-5.07.63,12.92,12.92,0,0,0-6.27,4.24,12.79,12.79,0,0,0-2.81,5.28,35.2,35.2,0,0,0-.65,7.79V190.8Z"/><path class="cls-1" d="M1277.32,137.65c5.82,0,10.55,1.43,14.21,4.25s5.83,7.7,6.57,14.61h-8.44a15.47,15.47,0,0,0-3.52-7.92c-1.82-2.12-4.77-3.16-8.82-3.16q-8.29,0-11.85,8.09a32.07,32.07,0,0,0-2.33,13,24.47,24.47,0,0,0,3.28,13.07c2.19,3.54,5.64,5.3,10.32,5.3a11.25,11.25,0,0,0,8.56-3.3,18.14,18.14,0,0,0,4.36-9.05h8.44c-.95,6.86-3.37,11.87-7.22,15s-8.8,4.75-14.81,4.75q-10.12,0-16.16-7.4t-6-18.49q0-13.6,6.61-21.16A21.34,21.34,0,0,1,1277.32,137.65Z"/><path class="cls-1" d="M1306.78,190.8V139.41h8.82V190.8Zm0-61V120h8.82v9.85Z"/><path class="cls-1" d="M1328.94,190.8V120h8.68V190.8Z"/><path class="cls-1" d="M1387.06,179.71c-2.41-3.67-3.61-8.24-3.61-13.75a28.14,28.14,0,0,1,3.61-14.65c2.41-4.06,6.27-6.07,11.58-6.07q9,0,12.63,7.12,2.31,4.54,2.32,11.77a32.54,32.54,0,0,1-3.22,14.54q-3.19,6.54-11.83,6.53Q1390.68,185.2,1387.06,179.71Zm-5.93-34.34q-6.6,7.71-6.61,20.74,0,12.15,6.28,19.36t16.92,7.22q12.78,0,18.86-8.16t6.07-20.65q0-12.91-6.9-19.56a23.38,23.38,0,0,0-16.87-6.67Q1387.74,137.65,1381.13,145.37Z"/><path class="cls-1" d="M1435.11,131.29q.2-5.4,1.88-7.9,3-4.44,11.72-4.44c.54,0,1.11,0,1.68.06s1.24.07,2,.13V127l-1.95-.11c-.4,0-.78,0-1.13,0-2.63,0-4.21.69-4.73,2s-.77,4.86-.77,10.46h8.58v6.84h-8.68V190.8h-8.58V146.25h-7.18v-6.84h7.18Z"/><path class="cls-1" d="M1518.81,118q13.45,0,20.88,7.09t8.25,16.12h-9.36a19.45,19.45,0,0,0-6.34-10.86q-4.74-4-13.33-4-10.46,0-16.9,7.35t-6.44,22.53q0,12.47,5.81,20.2t17.34,7.73c7.06,0,12.46-2.72,16.15-8.15a30.84,30.84,0,0,0,4.39-11.28h9.35a32,32,0,0,1-8.29,18.76q-8.43,9.12-22.76,9.11-12.35,0-20.73-7.47-11-9.89-11-30.53,0-15.66,8.3-25.7Q1503.05,118,1518.81,118Z"/><path class="cls-1" d="M1569.76,169.83a19.64,19.64,0,0,1,7.08-2l5.26-.69a35.79,35.79,0,0,0,4.92-.95,15,15,0,0,0,4.1-1.7v7a12,12,0,0,1-7.24,11.53,19.57,19.57,0,0,1-8.87,2.13,10.2,10.2,0,0,1-6.51-2.17,7.17,7.17,0,0,1-2.75-5.94A7.67,7.67,0,0,1,1569.76,169.83Zm-8.58-3.72q-4.48,3.94-4.49,11.15a14.48,14.48,0,0,0,4.56,10.91,16.3,16.3,0,0,0,11.74,4.36,23.57,23.57,0,0,0,10.94-2.55,21.94,21.94,0,0,0,7.62-6,12.59,12.59,0,0,0,1.49,4.78q2,3.18,6.52,3.18a18.79,18.79,0,0,0,2.89-.15,20.52,20.52,0,0,0,3.08-.72v-6.4c-.54.09-1.06.17-1.54.21a12.83,12.83,0,0,1-1.31.07c-1.18,0-2-.26-2.33-.82a3.82,3.82,0,0,1-.55-2.17V152.17q0-7.32-5.65-10.8t-14.8-3.47a25.33,25.33,0,0,0-13.81,3.74q-6,3.74-6.19,13.29h8.09a12.13,12.13,0,0,1,2.08-6q2.84-3.66,9.64-3.65c3.92,0,6.93.66,9,2s3.16,3.48,3.16,6.43a7.63,7.63,0,0,1-.58,3.32,4.66,4.66,0,0,1-4,2.51l-13.84,1.74A21.19,21.19,0,0,0,1561.18,166.11Z"/><path class="cls-1" d="M1614,190.8V139.16h8.25v7.33A22.9,22.9,0,0,1,1630,140a20.66,20.66,0,0,1,9.11-2q11,0,14.85,7.67c1.42,2.79,2.13,6.78,2.13,12V190.8h-8.82V158.25a17.7,17.7,0,0,0-1.4-7.62c-1.55-3.2-4.35-4.82-8.39-4.82a16.93,16.93,0,0,0-5.06.63,12.88,12.88,0,0,0-6.27,4.24,12.7,12.7,0,0,0-2.82,5.28,35.09,35.09,0,0,0-.66,7.79V190.8Z"/><path class="cls-1" d="M1679.54,169.83a19.89,19.89,0,0,1,7.09-2l5.26-.69a35.65,35.65,0,0,0,4.91-.95,14.66,14.66,0,0,0,4.11-1.7v7a12,12,0,0,1-7.23,11.53,19.67,19.67,0,0,1-8.88,2.13,10.18,10.18,0,0,1-6.51-2.17,7.17,7.17,0,0,1-2.75-5.94A7.69,7.69,0,0,1,1679.54,169.83Zm-8.58-3.72q-4.49,3.94-4.48,11.15a14.51,14.51,0,0,0,4.55,10.91,16.34,16.34,0,0,0,11.75,4.36,23.63,23.63,0,0,0,10.94-2.55,22.13,22.13,0,0,0,7.62-6,12.23,12.23,0,0,0,1.5,4.78c1.34,2.12,3.52,3.18,6.5,3.18a18.71,18.71,0,0,0,2.89-.15,20.87,20.87,0,0,0,3.09-.72v-6.4c-.55.09-1.06.17-1.55.21a12.32,12.32,0,0,1-1.29.07c-1.19,0-2-.26-2.34-.82a3.82,3.82,0,0,1-.56-2.17V152.17q0-7.32-5.63-10.8t-14.81-3.47a25.43,25.43,0,0,0-13.82,3.74c-4,2.49-6,6.91-6.2,13.29h8.11a12.13,12.13,0,0,1,2.08-6q2.84-3.66,9.64-3.65c3.92,0,6.94.66,9,2s3.17,3.48,3.17,6.43a7.49,7.49,0,0,1-.58,3.32,4.66,4.66,0,0,1-4,2.51l-13.83,1.74A21.23,21.23,0,0,0,1671,166.11Z"/><path class="cls-1" d="M1733.36,150.82a13,13,0,0,1,10.63-5,12.46,12.46,0,0,1,9.88,4.7q4,4.69,4,14.5T1754,179.87a11.89,11.89,0,0,1-9.91,5.2q-7.75,0-11.28-5.6t-3.52-13.89Q1729.28,155.83,1733.36,150.82Zm-7.48-4.31a33.31,33.31,0,0,0-5.76,19.55q0,12,6.32,19.31c4.21,4.84,9.18,7.26,15,7.26a20.56,20.56,0,0,0,9.49-2.12,18.81,18.81,0,0,0,7.18-6.89v7.18h7.81V119.73h-8.34v26.08a23.81,23.81,0,0,0-5.25-5.07,18.48,18.48,0,0,0-9.93-2.49Q1731.64,138.25,1725.88,146.51Z"/><path class="cls-1" d="M1789.34,169.83a19.64,19.64,0,0,1,7.09-2l5.25-.69a36.37,36.37,0,0,0,4.92-.95,14.64,14.64,0,0,0,4.09-1.7v7a11.94,11.94,0,0,1-7.24,11.53,19.5,19.5,0,0,1-8.86,2.13,10.16,10.16,0,0,1-6.51-2.17,7.17,7.17,0,0,1-2.74-5.94A7.66,7.66,0,0,1,1789.34,169.83Zm-8.59-3.72q-4.49,3.94-4.48,11.15a14.48,14.48,0,0,0,4.56,10.91,16.29,16.29,0,0,0,11.73,4.36,23.61,23.61,0,0,0,11-2.55,21.94,21.94,0,0,0,7.62-6,12.24,12.24,0,0,0,1.49,4.78q2,3.18,6.51,3.18a18.93,18.93,0,0,0,2.9-.15,21.1,21.1,0,0,0,3.08-.72v-6.4c-.55.09-1.06.17-1.54.21a12.65,12.65,0,0,1-1.3.07c-1.19,0-2-.26-2.34-.82a3.74,3.74,0,0,1-.55-2.17V152.17q0-7.32-5.65-10.8t-14.8-3.47a25.36,25.36,0,0,0-13.82,3.74c-4,2.49-6,6.91-6.19,13.29h8.1a12.23,12.23,0,0,1,2.07-6q2.85-3.66,9.64-3.65c3.92,0,6.93.66,9,2s3.16,3.48,3.16,6.43a7.47,7.47,0,0,1-.59,3.32,4.63,4.63,0,0,1-4,2.51l-13.83,1.74A21.23,21.23,0,0,0,1780.75,166.11Z"/><path class="cls-1" d="M2197.72,0q13.46,0,20.88,7.09t8.24,16.11h-9.35a19.52,19.52,0,0,0-6.34-10.86q-4.76-4-13.34-4-10.45,0-16.9,7.36c-4.29,4.89-6.43,12.42-6.43,22.53q0,12.47,5.81,20.19t17.33,7.74q10.62,0,16.16-8.16a31,31,0,0,0,4.38-11.27h9.36a32,32,0,0,1-8.3,18.76q-8.43,9.12-22.75,9.1-12.34,0-20.74-7.46-11-9.88-11-30.54,0-15.66,8.29-25.69Q2182,0,2197.72,0Z"/><path class="cls-1" d="M2247,61.68c-2.41-3.68-3.61-8.25-3.61-13.75A28.12,28.12,0,0,1,2247,33.28q3.61-6.09,11.57-6.08,9,0,12.64,7.13,2.31,4.53,2.31,11.77a32.46,32.46,0,0,1-3.21,14.53q-3.21,6.54-11.83,6.53Q2250.64,67.16,2247,61.68Zm-5.93-34.35q-6.6,7.72-6.6,20.75,0,12.14,6.26,19.35t16.93,7.22q12.77,0,18.85-8.15c4-5.43,6.07-12.33,6.07-20.65q0-12.91-6.89-19.56a23.38,23.38,0,0,0-16.87-6.67Q2247.69,19.62,2241.09,27.33Z"/><path class="cls-1" d="M2292.9,72.77V21.12h8.24v7.34a23.17,23.17,0,0,1,7.76-6.52,20.88,20.88,0,0,1,9.12-2q11,0,14.85,7.68,2.12,4.17,2.12,12V72.77h-8.82V40.21a17.73,17.73,0,0,0-1.4-7.62c-1.55-3.2-4.34-4.82-8.39-4.82a16.93,16.93,0,0,0-5.06.63,13,13,0,0,0-6.27,4.25,12.76,12.76,0,0,0-2.82,5.28,35.76,35.76,0,0,0-.65,7.79V72.77Z"/><path class="cls-1" d="M2344.61,56.55H2353a12.67,12.67,0,0,0,2.17,6.67c2.19,2.78,6,4.19,11.38,4.19a16.88,16.88,0,0,0,8.49-2.09,7,7,0,0,0,3.66-6.5,5.58,5.58,0,0,0-2.94-5.07,35.32,35.32,0,0,0-7.43-2.45l-6.89-1.74a33.37,33.37,0,0,1-9.74-3.65,11,11,0,0,1-5.59-9.74,14.87,14.87,0,0,1,5.28-11.86q5.28-4.54,14.2-4.54,11.65,0,16.83,6.84A14.93,14.93,0,0,1,2385.5,36h-8.2a10.14,10.14,0,0,0-2.07-5.35q-3-3.41-10.37-3.41c-3.28,0-5.76.63-7.45,1.87a5.92,5.92,0,0,0-2.53,5,6.13,6.13,0,0,0,3.33,5.41,20,20,0,0,0,5.69,2.11l5.74,1.39c6.23,1.53,10.41,3,12.53,4.41q5.07,3.3,5.07,10.45A16,16,0,0,1,2382,69.72q-5.23,5-15.93,5c-7.69,0-13.13-1.76-16.33-5.24A19.82,19.82,0,0,1,2344.61,56.55Z"/><path class="cls-1" d="M2408.11,31.85a13.19,13.19,0,0,1,10-4.32q8.34,0,11.91,6.28a22.61,22.61,0,0,1,2.46,9h-28.69A16.3,16.3,0,0,1,2408.11,31.85ZM2401,27.74q-6.75,7.74-6.74,20.19,0,12.63,6.7,19.65a21.74,21.74,0,0,0,16.34,7,30.52,30.52,0,0,0,7.09-.76,20.36,20.36,0,0,0,9.79-5.22,21.92,21.92,0,0,0,4.26-5.71,17.85,17.85,0,0,0,2.25-6.35h-8.54a15.06,15.06,0,0,1-3.27,6A13.92,13.92,0,0,1,2418,67.07q-7.27,0-10.75-4.74t-3.71-12.61h37.85a60.07,60.07,0,0,0-.77-11.39,23,23,0,0,0-3.47-9.11,19.73,19.73,0,0,0-7.86-6.67A23.47,23.47,0,0,0,2418.67,20Q2407.78,20,2401,27.74Z"/><path class="cls-1" d="M2452.06,72.77V21.37h8.82v51.4Zm0-61V1.92h8.82v9.85Z"/><path class="cls-1" d="M2474.22,72.77V1.92h8.68V72.77Z"/><path class="cls-1" d="M2532.9,32.78a13.06,13.06,0,0,1,10.63-5,12.46,12.46,0,0,1,9.88,4.71q4,4.68,4,14.49t-3.89,14.86a11.85,11.85,0,0,1-9.9,5.2q-7.77,0-11.29-5.6t-3.52-13.88C2528.82,41.05,2530.18,36.14,2532.9,32.78Zm-7.48-4.3A33.28,33.28,0,0,0,2519.66,48q0,12.06,6.32,19.32t14.95,7.25a20.66,20.66,0,0,0,9.5-2.11,18.84,18.84,0,0,0,7.18-6.9v7.19h7.81V1.69h-8.34V27.77a24,24,0,0,0-5.26-5.06,18.43,18.43,0,0,0-9.93-2.5C2534.75,20.21,2529.26,23,2525.42,28.48Z"/><path class="cls-1" d="M2589.16,31.85a13.23,13.23,0,0,1,10-4.32q8.33,0,11.91,6.28a22.45,22.45,0,0,1,2.45,9h-28.68A16.29,16.29,0,0,1,2589.16,31.85Zm-7.07-4.11q-6.77,7.74-6.76,20.19,0,12.63,6.7,19.65a21.75,21.75,0,0,0,16.35,7,30.49,30.49,0,0,0,7.08-.76,20.36,20.36,0,0,0,9.79-5.22,21.94,21.94,0,0,0,4.27-5.71,18,18,0,0,0,2.23-6.35h-8.53a15,15,0,0,1-3.28,6,13.87,13.87,0,0,1-10.84,4.48c-4.86,0-8.43-1.58-10.75-4.74s-3.55-7.37-3.72-12.61h37.86a59,59,0,0,0-.78-11.39,23.18,23.18,0,0,0-3.47-9.11,19.73,19.73,0,0,0-7.86-6.67A23.44,23.44,0,0,0,2599.72,20Q2588.83,20,2582.09,27.74Z"/><path class="cls-1" d="M2660.79,72.77V21.12H2669V30c.68-1.73,2.34-3.85,5-6.34a12.93,12.93,0,0,1,9.12-3.74c.16,0,.44,0,.82.06s1,.1,2,.19v9.16a12.31,12.31,0,0,0-1.43-.19c-.44,0-.9-.06-1.42-.06-4.38,0-7.73,1.42-10.08,4.22a14.71,14.71,0,0,0-3.52,9.73v29.7Z"/><path class="cls-1" d="M2704.36,31.85a13.18,13.18,0,0,1,10-4.32q8.33,0,11.9,6.28a22.28,22.28,0,0,1,2.46,9h-28.69A16.26,16.26,0,0,1,2704.36,31.85Zm-7.1-4.11q-6.74,7.74-6.74,20.19,0,12.63,6.69,19.65a21.78,21.78,0,0,0,16.35,7,30.52,30.52,0,0,0,7.09-.76,20.32,20.32,0,0,0,9.79-5.22,22.16,22.16,0,0,0,4.27-5.71,18,18,0,0,0,2.24-6.35h-8.53a15.08,15.08,0,0,1-3.28,6,13.92,13.92,0,0,1-10.86,4.48q-7.28,0-10.75-4.74t-3.71-12.61h37.85a59.23,59.23,0,0,0-.77-11.39,23,23,0,0,0-3.47-9.11,19.59,19.59,0,0,0-7.86-6.67A23.43,23.43,0,0,0,2714.92,20Q2704,20,2697.26,27.74Z"/><path class="cls-1" d="M2768.22,19.62c5.82,0,10.55,1.43,14.2,4.25s5.84,7.69,6.58,14.61h-8.44a15.46,15.46,0,0,0-3.52-7.93q-2.74-3.16-8.82-3.16c-5.54,0-9.48,2.71-11.87,8.1a32.24,32.24,0,0,0-2.3,13,24.4,24.4,0,0,0,3.27,13.07c2.19,3.54,5.62,5.29,10.32,5.29a11.24,11.24,0,0,0,8.56-3.29,18.3,18.3,0,0,0,4.36-9.05H2789q-1.44,10.29-7.24,15T2767,74.25q-10.12,0-16.14-7.39t-6-18.5q0-13.59,6.6-21.16A21.35,21.35,0,0,1,2768.22,19.62Z"/><path class="cls-1" d="M2797.68,72.77V1.69h8.68V28.12a25.28,25.28,0,0,1,5.54-5.51,18.74,18.74,0,0,1,10.46-2.74q11.23,0,15.24,7.87,2.18,4.28,2.17,11.9V72.77h-8.92V40.21q0-5.68-1.44-8.34-2.37-4.23-8.88-4.23a14.9,14.9,0,0,0-9.79,3.69q-4.38,3.72-4.38,14v27.4Z"/><path class="cls-1" d="M2863.52,31.85a13.19,13.19,0,0,1,10-4.32q8.34,0,11.9,6.28a22.27,22.27,0,0,1,2.47,9h-28.69A16.3,16.3,0,0,1,2863.52,31.85Zm-7.09-4.11q-6.75,7.74-6.75,20.19,0,12.63,6.7,19.65a21.78,21.78,0,0,0,16.35,7,30.37,30.37,0,0,0,7.08-.76,20.32,20.32,0,0,0,9.79-5.22,21.94,21.94,0,0,0,4.27-5.71,17.81,17.81,0,0,0,2.24-6.35h-8.53a15.2,15.2,0,0,1-3.28,6,13.92,13.92,0,0,1-10.85,4.48q-7.29,0-10.75-4.74c-2.32-3.17-3.55-7.37-3.72-12.61h37.85a60.27,60.27,0,0,0-.76-11.39,23.33,23.33,0,0,0-3.47-9.11,19.8,19.8,0,0,0-7.86-6.67A23.44,23.44,0,0,0,2874.08,20Q2863.18,20,2856.43,27.74Z"/><path class="cls-1" d="M2907.71,72.77V21.12H2916V30c.66-1.73,2.32-3.85,5-6.34A12.93,12.93,0,0,1,2930,20c.16,0,.44,0,.82.06s1,.1,2,.19v9.16a11.63,11.63,0,0,0-1.42-.19c-.44,0-.92-.06-1.42-.06-4.37,0-7.74,1.42-10.09,4.22a14.75,14.75,0,0,0-3.51,9.73v29.7Z"/><path class="cls-1" d="M2960.25,19.62c5.82,0,10.54,1.43,14.19,4.25s5.85,7.69,6.58,14.61h-8.43a15.63,15.63,0,0,0-3.52-7.93c-1.83-2.11-4.79-3.16-8.82-3.16q-8.31,0-11.87,8.1a32.22,32.22,0,0,0-2.32,13,24.41,24.41,0,0,0,3.29,13.07c2.18,3.54,5.62,5.29,10.31,5.29a11.24,11.24,0,0,0,8.56-3.29,18.23,18.23,0,0,0,4.37-9.05H2981q-1.44,10.29-7.23,15T2959,74.25q-10.12,0-16.15-7.39t-6-18.5q0-13.59,6.6-21.16A21.37,21.37,0,0,1,2960.25,19.62Z"/><path class="cls-1" d="M2989.69,72.77V1.69h8.69V28.12a25.5,25.5,0,0,1,5.54-5.51,18.74,18.74,0,0,1,10.46-2.74q11.25,0,15.24,7.87,2.18,4.28,2.17,11.9V72.77h-8.91V40.21c0-3.79-.49-6.57-1.45-8.34-1.58-2.82-4.53-4.23-8.88-4.23a14.9,14.9,0,0,0-9.79,3.69q-4.38,3.72-4.38,14v27.4Z"/><path class="cls-1" d="M3055.55,31.85a13.15,13.15,0,0,1,10-4.32q8.34,0,11.91,6.28a22.44,22.44,0,0,1,2.46,9h-28.69A16.21,16.21,0,0,1,3055.55,31.85Zm-7.09-4.11q-6.77,7.74-6.76,20.19,0,12.63,6.7,19.65a21.78,21.78,0,0,0,16.35,7,30.58,30.58,0,0,0,7.09-.76,20.36,20.36,0,0,0,9.79-5.22,22.39,22.39,0,0,0,4.27-5.71,18,18,0,0,0,2.24-6.35h-8.54a15.08,15.08,0,0,1-3.28,6,13.9,13.9,0,0,1-10.85,4.48c-4.85,0-8.44-1.58-10.74-4.74S3051.17,55,3051,49.72h37.86a59.87,59.87,0,0,0-.78-11.39,22.73,22.73,0,0,0-3.47-9.11,19.77,19.77,0,0,0-7.85-6.67A23.44,23.44,0,0,0,3066.1,20Q3055.21,20,3048.46,27.74Z"/><path class="cls-1" d="M3096.31,56.55h8.33a12.58,12.58,0,0,0,2.18,6.67c2.19,2.78,6,4.19,11.38,4.19a16.84,16.84,0,0,0,8.48-2.09,7,7,0,0,0,3.67-6.5,5.58,5.58,0,0,0-2.94-5.07A35.39,35.39,0,0,0,3120,51.3l-6.9-1.74a33.14,33.14,0,0,1-9.74-3.65,11,11,0,0,1-5.59-9.74A14.89,14.89,0,0,1,3103,24.31q5.28-4.54,14.2-4.54,11.67,0,16.83,6.84A14.88,14.88,0,0,1,3137.2,36H3129a10.15,10.15,0,0,0-2.08-5.35q-3-3.41-10.36-3.41c-3.28,0-5.76.63-7.45,1.87a5.9,5.9,0,0,0-2.53,5,6.13,6.13,0,0,0,3.33,5.41,20,20,0,0,0,5.69,2.11l5.74,1.39c6.23,1.53,10.41,3,12.52,4.41q5.07,3.3,5.07,10.45a15.94,15.94,0,0,1-5.23,11.91q-5.23,5-15.93,5c-7.69,0-13.13-1.76-16.33-5.24A19.82,19.82,0,0,1,3096.31,56.55Z"/><path class="cls-1" d="M3187.25,31.85a13.17,13.17,0,0,1,10-4.32q8.34,0,11.91,6.28a22.28,22.28,0,0,1,2.46,9H3183A16.26,16.26,0,0,1,3187.25,31.85Zm-7.1-4.11q-6.74,7.74-6.74,20.19,0,12.63,6.69,19.65a21.78,21.78,0,0,0,16.35,7,30.46,30.46,0,0,0,7.09-.76,20.24,20.24,0,0,0,9.78-5.22,21.72,21.72,0,0,0,4.27-5.71,17.85,17.85,0,0,0,2.25-6.35h-8.53a15.22,15.22,0,0,1-3.29,6,13.87,13.87,0,0,1-10.85,4.48c-4.85,0-8.44-1.58-10.74-4.74s-3.56-7.37-3.72-12.61h37.85a59.23,59.23,0,0,0-.77-11.39,22.89,22.89,0,0,0-3.48-9.11,19.56,19.56,0,0,0-7.85-6.67A23.44,23.44,0,0,0,3197.8,20Q3186.91,20,3180.15,27.74Z"/><path class="cls-1" d="M3231.19,72.77V21.12h8.25v7.34a23.08,23.08,0,0,1,7.76-6.52,20.85,20.85,0,0,1,9.12-2q11,0,14.85,7.68,2.13,4.17,2.12,12V72.77h-8.83V40.21a17.73,17.73,0,0,0-1.4-7.62c-1.54-3.2-4.33-4.82-8.39-4.82a17.07,17.07,0,0,0-5.06.63,13,13,0,0,0-6.26,4.25,12.64,12.64,0,0,0-2.82,5.28,35.14,35.14,0,0,0-.65,7.79V72.77Z"/><path class="cls-1" d="M2163.53,173.59h8.34a12.73,12.73,0,0,0,2.18,6.67c2.18,2.78,6,4.19,11.37,4.19a16.86,16.86,0,0,0,8.49-2.1,7,7,0,0,0,3.67-6.49,5.58,5.58,0,0,0-2.95-5.07,35.23,35.23,0,0,0-7.42-2.46l-6.9-1.73a33.62,33.62,0,0,1-9.74-3.66,11,11,0,0,1-5.59-9.73,14.89,14.89,0,0,1,5.28-11.87q5.28-4.54,14.2-4.53,11.67,0,16.83,6.83a14.88,14.88,0,0,1,3.13,9.36h-8.2a10.11,10.11,0,0,0-2.07-5.35q-3-3.41-10.37-3.41-4.92,0-7.44,1.86a5.92,5.92,0,0,0-2.54,5,6.13,6.13,0,0,0,3.33,5.41,20.11,20.11,0,0,0,5.69,2.12l5.74,1.39q9.34,2.28,12.53,4.4,5.07,3.31,5.07,10.46a15.91,15.91,0,0,1-5.24,11.9q-5.22,5-15.93,5-11.52,0-16.32-5.24A19.81,19.81,0,0,1,2163.53,173.59Z"/><path class="cls-1" d="M2236,136.65c5.82,0,10.55,1.43,14.2,4.25s5.85,7.7,6.58,14.61h-8.44a15.46,15.46,0,0,0-3.51-7.92c-1.84-2.12-4.78-3.16-8.83-3.16q-8.3,0-11.86,8.09a32.26,32.26,0,0,0-2.31,13,24.38,24.38,0,0,0,3.28,13.07q3.27,5.31,10.31,5.3a11.23,11.23,0,0,0,8.56-3.3,18.14,18.14,0,0,0,4.36-9.05h8.44q-1.44,10.29-7.23,15t-14.8,4.75q-10.12,0-16.15-7.4t-6-18.49q0-13.6,6.61-21.16A21.34,21.34,0,0,1,2236,136.65Z"/><path class="cls-1" d="M2265.46,189.8V138.41h8.83V189.8Zm0-61V119h8.83v9.85Z"/><path class="cls-1" d="M2297.74,150a13.2,13.2,0,0,1,10-4.31q8.34,0,11.91,6.27a22.38,22.38,0,0,1,2.46,9h-28.69A16.3,16.3,0,0,1,2297.74,150Zm-7.08-4.12q-6.76,7.78-6.76,20.2,0,12.64,6.7,19.65a21.79,21.79,0,0,0,16.35,7A29.47,29.47,0,0,0,2314,192a20.28,20.28,0,0,0,9.78-5.22,22.18,22.18,0,0,0,4.28-5.71,18.26,18.26,0,0,0,2.24-6.33h-8.54a15,15,0,0,1-3.28,6,13.88,13.88,0,0,1-10.84,4.48q-7.29,0-10.76-4.74t-3.71-12.61h37.85a60,60,0,0,0-.77-11.37,23,23,0,0,0-3.48-9.13,19.63,19.63,0,0,0-7.85-6.67,23.44,23.44,0,0,0-10.66-2.59Q2297.4,138.08,2290.66,145.85Z"/><path class="cls-1" d="M2342.27,189.8V138.16h8.25v7.33a22.83,22.83,0,0,1,7.76-6.51,20.66,20.66,0,0,1,9.11-2q11,0,14.86,7.67c1.41,2.79,2.12,6.78,2.12,12V189.8h-8.83V157.25a17.7,17.7,0,0,0-1.4-7.62c-1.54-3.2-4.34-4.82-8.38-4.82a17,17,0,0,0-5.07.63,14.1,14.1,0,0,0-9.09,9.52,35.82,35.82,0,0,0-.65,7.79V189.8Z"/><path class="cls-1" d="M2417.08,136.65c5.82,0,10.55,1.43,14.2,4.25s5.84,7.7,6.58,14.61h-8.44a15.54,15.54,0,0,0-3.51-7.92c-1.84-2.12-4.78-3.16-8.83-3.16q-8.29,0-11.86,8.09a32.25,32.25,0,0,0-2.32,13,24.38,24.38,0,0,0,3.29,13.07q3.27,5.31,10.31,5.3a11.26,11.26,0,0,0,8.56-3.3,18.14,18.14,0,0,0,4.36-9.05h8.44q-1.44,10.29-7.23,15t-14.8,4.75q-10.12,0-16.15-7.4t-6-18.49q0-13.6,6.6-21.16A21.37,21.37,0,0,1,2417.08,136.65Z"/><path class="cls-1" d="M2457.49,148.88a13.21,13.21,0,0,1,10-4.32c5.55,0,9.53,2.09,11.9,6.29a22.19,22.19,0,0,1,2.46,9h-28.69A16.38,16.38,0,0,1,2457.49,148.88Zm-7.09-4.11q-6.75,7.74-6.75,20.19,0,12.63,6.7,19.66a21.76,21.76,0,0,0,16.34,7,31.07,31.07,0,0,0,7.09-.76,20.45,20.45,0,0,0,9.79-5.22,22,22,0,0,0,4.27-5.72,17.77,17.77,0,0,0,2.24-6.34h-8.53a15.27,15.27,0,0,1-3.28,6,13.89,13.89,0,0,1-10.85,4.47q-7.29,0-10.76-4.74T2453,166.75h37.85a59.23,59.23,0,0,0-.77-11.39,23,23,0,0,0-3.47-9.11,19.63,19.63,0,0,0-7.86-6.66,23.3,23.3,0,0,0-10.65-2.59Q2457.15,137,2450.4,144.77Z"/><path class="cls-1" d="M2498.25,173.59h8.35a12.73,12.73,0,0,0,2.16,6.67c2.19,2.78,6,4.19,11.38,4.19a16.86,16.86,0,0,0,8.49-2.1,7,7,0,0,0,3.66-6.49,5.55,5.55,0,0,0-2.94-5.07,35.23,35.23,0,0,0-7.42-2.46l-6.9-1.73a33.62,33.62,0,0,1-9.74-3.66,10.94,10.94,0,0,1-5.59-9.73,14.89,14.89,0,0,1,5.28-11.87q5.28-4.54,14.2-4.53,11.67,0,16.83,6.83a14.94,14.94,0,0,1,3.13,9.36h-8.2a10.11,10.11,0,0,0-2.07-5.35q-3-3.41-10.36-3.41c-3.29,0-5.77.62-7.46,1.86a5.93,5.93,0,0,0-2.53,5,6.13,6.13,0,0,0,3.33,5.41,20,20,0,0,0,5.69,2.12l5.74,1.39q9.34,2.28,12.54,4.4,5.05,3.31,5.06,10.46a15.91,15.91,0,0,1-5.24,11.9q-5.22,5-15.93,5-11.53,0-16.32-5.24A19.81,19.81,0,0,1,2498.25,173.59Z"/><path class="cls-1" d="M2578.25,189.8V118.73h8.67v26.42a24.78,24.78,0,0,1,5.56-5.5,18.66,18.66,0,0,1,10.45-2.75q11.24,0,15.24,7.87c1.45,2.86,2.16,6.82,2.16,11.9V189.8h-8.91V157.25c0-3.79-.49-6.58-1.45-8.35q-2.37-4.23-8.86-4.23a14.86,14.86,0,0,0-9.8,3.7q-4.38,3.72-4.39,14V189.8Z"/><path class="cls-1" d="M2632.94,138.16h8.88v34.29a14.22,14.22,0,0,0,1.26,6.45q2.3,4.64,8.62,4.63,9.08,0,12.35-8.11c1.18-2.88,1.78-6.86,1.78-11.91V138.16h8.68V189.8h-8.2l.1-7.62a17.49,17.49,0,0,1-4.2,5,18.5,18.5,0,0,1-12.05,4q-11,0-15-7.37-2.17-3.94-2.18-10.55Z"/><path class="cls-1" d="M2688,189.8V138.16h8.58v7.33a28.13,28.13,0,0,1,5.6-5.54A16.82,16.82,0,0,1,2712,137c4.11,0,7.43,1,9.93,3.05a15.6,15.6,0,0,1,3.86,5.1,18.66,18.66,0,0,1,6.8-6.15,18.85,18.85,0,0,1,8.77-2q10.43,0,14.17,7.52c1.36,2.71,2,6.33,2,10.9V189.8h-9V153.93c0-3.45-.86-5.81-2.59-7.1a10.2,10.2,0,0,0-6.28-1.93,12.55,12.55,0,0,0-8.81,3.43q-3.68,3.43-3.68,11.43v30h-8.83V156.08c0-3.48-.41-6.05-1.25-7.65-1.31-2.42-3.78-3.62-7.38-3.62a12.71,12.71,0,0,0-8.94,3.81c-2.69,2.53-4,7.14-4,13.79V189.8Z"/><path class="cls-1" d="M2780.92,168.83a19.83,19.83,0,0,1,7.09-2l5.26-.69a36.37,36.37,0,0,0,4.92-.95,14.51,14.51,0,0,0,4.09-1.7v7a12,12,0,0,1-7.22,11.53,19.67,19.67,0,0,1-8.88,2.13,10.16,10.16,0,0,1-6.51-2.17,7.17,7.17,0,0,1-2.75-5.94A7.69,7.69,0,0,1,2780.92,168.83Zm-8.58-3.72q-4.49,3.94-4.48,11.15a14.51,14.51,0,0,0,4.55,10.91,16.31,16.31,0,0,0,11.74,4.36A23.64,23.64,0,0,0,2795.1,189a21.9,21.9,0,0,0,7.61-6,12.4,12.4,0,0,0,1.5,4.78q2,3.18,6.51,3.18a18.71,18.71,0,0,0,2.89-.15,21.16,21.16,0,0,0,3.09-.72v-6.4c-.55.09-1.06.17-1.55.21a12.36,12.36,0,0,1-1.3.07c-1.18,0-2-.26-2.33-.82a3.74,3.74,0,0,1-.56-2.17V151.17c0-4.88-1.87-8.48-5.65-10.8s-8.71-3.47-14.8-3.47a25.4,25.4,0,0,0-13.81,3.74c-4,2.49-6,6.91-6.2,13.29h8.11a12.13,12.13,0,0,1,2.08-6c1.89-2.44,5.11-3.65,9.63-3.65,3.93,0,6.94.66,9,2s3.15,3.48,3.15,6.43a7.49,7.49,0,0,1-.58,3.32,4.65,4.65,0,0,1-4,2.51l-13.84,1.74A21.26,21.26,0,0,0,2772.34,165.11Z"/><path class="cls-1" d="M2825.16,189.8V138.41H2834V189.8Zm0-61V119H2834v9.85Z"/><path class="cls-1" d="M2847.08,189.8V138.16h8.25v7.33a22.83,22.83,0,0,1,7.76-6.51,20.62,20.62,0,0,1,9.1-2q11,0,14.85,7.67c1.42,2.79,2.14,6.78,2.14,12V189.8h-8.83V157.25a17.7,17.7,0,0,0-1.4-7.62c-1.55-3.2-4.35-4.82-8.39-4.82a17.05,17.05,0,0,0-5.07.63,12.9,12.9,0,0,0-6.26,4.24,12.59,12.59,0,0,0-2.82,5.28,35.2,35.2,0,0,0-.65,7.79V189.8Z"/><path class="cls-1" d="M2912.92,148.88a13.23,13.23,0,0,1,10-4.32q8.34,0,11.9,6.29a22.19,22.19,0,0,1,2.46,9h-28.69A16.33,16.33,0,0,1,2912.92,148.88Zm-7.1-4.11q-6.74,7.74-6.74,20.19,0,12.63,6.71,19.66a21.71,21.71,0,0,0,16.34,7,31.13,31.13,0,0,0,7.09-.76,20.54,20.54,0,0,0,9.79-5.22,22.44,22.44,0,0,0,4.26-5.72,18.17,18.17,0,0,0,2.24-6.34H2937a15.29,15.29,0,0,1-3.29,6c-2.69,3-6.31,4.47-10.84,4.47q-7.28,0-10.75-4.74t-3.72-12.61h37.86a59,59,0,0,0-.78-11.39,23.32,23.32,0,0,0-3.46-9.11,19.73,19.73,0,0,0-7.87-6.66,23.3,23.3,0,0,0-10.65-2.59Q2912.58,137,2905.82,144.77Z"/><path class="cls-1" d="M2953.68,173.59H2962a12.65,12.65,0,0,0,2.17,6.67c2.18,2.78,6,4.19,11.38,4.19a16.91,16.91,0,0,0,8.49-2.1,7,7,0,0,0,3.65-6.49,5.57,5.57,0,0,0-2.94-5.07,35.23,35.23,0,0,0-7.42-2.46l-6.89-1.73a33.82,33.82,0,0,1-9.75-3.66,11,11,0,0,1-5.59-9.73,14.86,14.86,0,0,1,5.28-11.87q5.28-4.54,14.2-4.53,11.66,0,16.83,6.83a14.88,14.88,0,0,1,3.13,9.36h-8.19a10.12,10.12,0,0,0-2.08-5.35c-2-2.27-5.44-3.41-10.37-3.41-3.27,0-5.76.62-7.45,1.86a5.93,5.93,0,0,0-2.53,5,6.13,6.13,0,0,0,3.33,5.41,20.23,20.23,0,0,0,5.69,2.12l5.73,1.39q9.36,2.28,12.54,4.4,5.07,3.31,5.07,10.46a15.94,15.94,0,0,1-5.23,11.9c-3.5,3.35-8.8,5-15.94,5q-11.52,0-16.32-5.24A19.81,19.81,0,0,1,2953.68,173.59Z"/><path class="cls-1" d="M3043.24,149.82a13.08,13.08,0,0,1,10.64-5,12.48,12.48,0,0,1,9.88,4.7c2.66,3.13,4,8,4,14.5s-1.3,11.41-3.89,14.86a11.89,11.89,0,0,1-9.91,5.2c-5.17,0-8.94-1.87-11.28-5.6s-3.52-8.37-3.52-13.89C3039.17,158.08,3040.54,153.17,3043.24,149.82Zm-7.47-4.31a33.38,33.38,0,0,0-5.76,19.55q0,12,6.32,19.31t15,7.26a20.62,20.62,0,0,0,9.49-2.12,18.83,18.83,0,0,0,7.19-6.89v7.18h7.81V118.73h-8.35v26.08a23.59,23.59,0,0,0-5.24-5.07,18.55,18.55,0,0,0-9.95-2.49Q3041.55,137.25,3035.77,145.51Z"/><path class="cls-1" d="M3088.38,138.16h8.86v34.29a14.35,14.35,0,0,0,1.26,6.45q2.31,4.64,8.63,4.63,9.07,0,12.34-8.11c1.19-2.88,1.79-6.86,1.79-11.91V138.16h8.68V189.8h-8.19l.08-7.62a17.46,17.46,0,0,1-4.19,5,18.5,18.5,0,0,1-12,4q-11.06,0-15-7.37-2.18-3.94-2.17-10.55Z"/><path class="cls-1" d="M3201.9,117q13.45,0,20.88,7.09t8.24,16.12h-9.34a19.46,19.46,0,0,0-6.35-10.86q-4.76-4-13.33-4-10.47,0-16.9,7.35t-6.44,22.53q0,12.47,5.81,20.2t17.33,7.73q10.62,0,16.15-8.15a30.49,30.49,0,0,0,4.39-11.28h9.37a32,32,0,0,1-8.31,18.76q-8.43,9.12-22.75,9.11-12.34,0-20.74-7.47-11-9.89-11-30.53,0-15.66,8.29-25.7Q3186.14,117,3201.9,117Z"/><path class="cls-1" d="M3252.84,168.83a19.77,19.77,0,0,1,7.1-2l5.24-.69a36.21,36.21,0,0,0,4.93-.95,14.64,14.64,0,0,0,4.09-1.7v7A12,12,0,0,1,3267,182a19.57,19.57,0,0,1-8.87,2.13,10.21,10.21,0,0,1-6.52-2.17,7.19,7.19,0,0,1-2.74-5.94A7.68,7.68,0,0,1,3252.84,168.83Zm-8.58-3.72q-4.49,3.94-4.48,11.15a14.48,14.48,0,0,0,4.56,10.91,16.27,16.27,0,0,0,11.73,4.36A23.61,23.61,0,0,0,3267,189a21.9,21.9,0,0,0,7.61-6,12.4,12.4,0,0,0,1.5,4.78q2,3.18,6.51,3.18a19,19,0,0,0,2.9-.15,21.1,21.1,0,0,0,3.08-.72v-6.4c-.55.09-1.06.17-1.54.21a12.5,12.5,0,0,1-1.3.07c-1.2,0-2-.26-2.34-.82a3.82,3.82,0,0,1-.56-2.17V151.17q0-7.32-5.64-10.8t-14.81-3.47a25.35,25.35,0,0,0-13.81,3.74c-4,2.49-6,6.91-6.19,13.29h8.1a12.23,12.23,0,0,1,2.07-6q2.85-3.66,9.64-3.65c3.93,0,6.94.66,9.05,2s3.15,3.48,3.15,6.43a7.49,7.49,0,0,1-.58,3.32,4.63,4.63,0,0,1-4,2.51L3256,160.24A21.23,21.23,0,0,0,3244.26,165.11Z"/><path class="cls-1" d="M3297.08,189.8V138.16h8.25v7.33a22.92,22.92,0,0,1,7.76-6.51,20.68,20.68,0,0,1,9.12-2q11,0,14.84,7.67c1.41,2.79,2.13,6.78,2.13,12V189.8h-8.83V157.25a17.86,17.86,0,0,0-1.39-7.62c-1.54-3.2-4.34-4.82-8.39-4.82a17.05,17.05,0,0,0-5.07.63,14.1,14.1,0,0,0-9.09,9.52,35.82,35.82,0,0,0-.65,7.79V189.8Z"/><path class="cls-1" d="M3362.64,168.83a19.64,19.64,0,0,1,7.08-2l5.25-.69a35.5,35.5,0,0,0,4.92-.95,14.91,14.91,0,0,0,4.11-1.7v7a12,12,0,0,1-7.24,11.53,19.6,19.6,0,0,1-8.87,2.13,10.16,10.16,0,0,1-6.51-2.17,7.17,7.17,0,0,1-2.75-5.94A7.67,7.67,0,0,1,3362.64,168.83Zm-8.58-3.72c-3,2.63-4.5,6.35-4.5,11.15a14.48,14.48,0,0,0,4.56,10.91,16.32,16.32,0,0,0,11.75,4.36,23.63,23.63,0,0,0,10.94-2.55,22.13,22.13,0,0,0,7.62-6,12.24,12.24,0,0,0,1.49,4.78c1.35,2.12,3.53,3.18,6.51,3.18a18.71,18.71,0,0,0,2.89-.15,20.87,20.87,0,0,0,3.09-.72v-6.4c-.54.09-1.07.17-1.54.21a13,13,0,0,1-1.31.07c-1.19,0-2-.26-2.34-.82a3.9,3.9,0,0,1-.54-2.17V151.17q0-7.32-5.65-10.8t-14.8-3.47a25.33,25.33,0,0,0-13.81,3.74q-6,3.74-6.2,13.29h8.1a12.13,12.13,0,0,1,2.07-6q2.84-3.66,9.65-3.65c3.92,0,6.93.66,9,2s3.15,3.48,3.15,6.43a7.65,7.65,0,0,1-.57,3.32,4.66,4.66,0,0,1-4,2.51l-13.84,1.74A21.16,21.16,0,0,0,3354.06,165.11Z"/><path class="cls-1" d="M3416.45,149.82a13,13,0,0,1,10.62-5,12.48,12.48,0,0,1,9.89,4.7q4,4.69,4,14.5t-3.87,14.86a11.89,11.89,0,0,1-9.91,5.2q-7.76,0-11.28-5.6t-3.53-13.89Q3412.36,154.83,3416.45,149.82Zm-7.48-4.31a33.25,33.25,0,0,0-5.77,19.55q0,12,6.32,19.31t14.95,7.26a20.56,20.56,0,0,0,9.49-2.12,18.85,18.85,0,0,0,7.2-6.89v7.18h7.8V118.73h-8.34v26.08a23.6,23.6,0,0,0-5.25-5.07,18.49,18.49,0,0,0-9.94-2.49Q3414.74,137.25,3409,145.51Z"/><path class="cls-1" d="M3472.42,168.83a19.77,19.77,0,0,1,7.09-2l5.26-.69a35.65,35.65,0,0,0,4.91-.95,14.71,14.71,0,0,0,4.1-1.7v7a11.93,11.93,0,0,1-7.23,11.53,19.63,19.63,0,0,1-8.87,2.13,10.14,10.14,0,0,1-6.51-2.17,7.17,7.17,0,0,1-2.75-5.94A7.69,7.69,0,0,1,3472.42,168.83Zm-8.58-3.72q-4.49,3.94-4.48,11.15a14.48,14.48,0,0,0,4.55,10.91,16.33,16.33,0,0,0,11.74,4.36,23.57,23.57,0,0,0,10.94-2.55,21.94,21.94,0,0,0,7.62-6,12.4,12.4,0,0,0,1.5,4.78c1.35,2.12,3.51,3.18,6.51,3.18a18.71,18.71,0,0,0,2.89-.15,21.46,21.46,0,0,0,3.09-.72v-6.4c-.55.09-1.06.17-1.55.21a12.32,12.32,0,0,1-1.29.07c-1.2,0-2-.26-2.35-.82a3.82,3.82,0,0,1-.55-2.17V151.17q0-7.32-5.64-10.8T3482,136.9a25.38,25.38,0,0,0-13.82,3.74q-6,3.74-6.2,13.29h8.11a12,12,0,0,1,2.07-6q2.84-3.66,9.64-3.65c3.92,0,6.94.66,9,2s3.16,3.48,3.16,6.43a7.63,7.63,0,0,1-.58,3.32,4.65,4.65,0,0,1-4,2.51l-13.84,1.74A21.23,21.23,0,0,0,3463.84,165.11Z"/></g></g></svg>