<svg xmlns="http://www.w3.org/2000/svg" viewBox="0 0 556.66 87"><defs><style>.cls-1{fill:#44ade2;}.cls-2{fill:#f16522;}</style></defs><g id="Layer_2" data-name="Layer 2"><g id="choice"><g id="title_tagline" data-name="title, tagline"><g id="debating_with_a_difference" data-name="debating with a difference"><path class="cls-1" d="M13.12,81.74V79.22h-.06a3.81,3.81,0,0,1-.75,1.18,5.07,5.07,0,0,1-1.15.91,5.94,5.94,0,0,1-1.37.58,5.23,5.23,0,0,1-1.45.2,5.83,5.83,0,0,1-2.63-.55A5.31,5.31,0,0,1,3.84,80a6.7,6.7,0,0,1-1.1-2.24,10.19,10.19,0,0,1,0-5.37,6.65,6.65,0,0,1,1.1-2.23,5.48,5.48,0,0,1,1.87-1.53,5.83,5.83,0,0,1,2.63-.56,5.88,5.88,0,0,1,1.45.18,4.79,4.79,0,0,1,1.32.55,4.55,4.55,0,0,1,1.09.91A4,4,0,0,1,12.94,71H13V63.4H14.6V81.74ZM4.24,77.15A5.56,5.56,0,0,0,5,79a4.3,4.3,0,0,0,1.35,1.3,3.78,3.78,0,0,0,2,.5,4.41,4.41,0,0,0,2.17-.5A4.4,4.4,0,0,0,12,79a5.39,5.39,0,0,0,.79-1.81,8.38,8.38,0,0,0,.25-2,8.26,8.26,0,0,0-.25-2A5.39,5.39,0,0,0,12,71.26,4.3,4.3,0,0,0,10.51,70a4.41,4.41,0,0,0-2.17-.5,3.78,3.78,0,0,0-2,.5A4.19,4.19,0,0,0,5,71.26a5.56,5.56,0,0,0-.77,1.81,8.75,8.75,0,0,0-.24,2A8.88,8.88,0,0,0,4.24,77.15Z"/><path class="cls-1" d="M18.88,77.36A5,5,0,0,0,19.66,79,4.38,4.38,0,0,0,21,80.27a3.72,3.72,0,0,0,2,.49,3.94,3.94,0,0,0,2.78-.93,4.81,4.81,0,0,0,1.38-2.46h1.62a6.4,6.4,0,0,1-1.89,3.49A5.62,5.62,0,0,1,23,82.09a6.18,6.18,0,0,1-2.71-.55A5,5,0,0,1,18.43,80a6.63,6.63,0,0,1-1.06-2.24A9.8,9.8,0,0,1,17,75.11a9.32,9.32,0,0,1,.35-2.57,6.86,6.86,0,0,1,1.06-2.25,5.33,5.33,0,0,1,1.86-1.59A5.79,5.79,0,0,1,23,68.1a5.22,5.22,0,0,1,4.56,2.32,7.06,7.06,0,0,1,1,2.39,10.48,10.48,0,0,1,.25,2.74H18.64A7.33,7.33,0,0,0,18.88,77.36Zm8-5a4.77,4.77,0,0,0-.83-1.5,4.05,4.05,0,0,0-1.31-1,3.7,3.7,0,0,0-1.75-.4,3.75,3.75,0,0,0-1.77.4,4.05,4.05,0,0,0-1.31,1,5.21,5.21,0,0,0-.86,1.51,7.78,7.78,0,0,0-.42,1.76h8.58A5.9,5.9,0,0,0,26.89,72.41Z"/><path class="cls-1" d="M32.63,63.4V71h.06a3.76,3.76,0,0,1,.73-1.26,4.55,4.55,0,0,1,1.09-.91,4.79,4.79,0,0,1,1.34-.55,5.78,5.78,0,0,1,1.43-.18,5.9,5.9,0,0,1,2.64.56,5.54,5.54,0,0,1,1.86,1.53,6.65,6.65,0,0,1,1.1,2.23,10.19,10.19,0,0,1,0,5.37A6.7,6.7,0,0,1,41.78,80a5.37,5.37,0,0,1-1.86,1.51,5.9,5.9,0,0,1-2.64.55,5.58,5.58,0,0,1-2.89-.74,4.29,4.29,0,0,1-1.83-2.13h-.05v2.52H31V63.4Zm8.75,9.67a5.56,5.56,0,0,0-.77-1.81A4.19,4.19,0,0,0,39.26,70a3.78,3.78,0,0,0-2-.5,4.41,4.41,0,0,0-2.17.5,4.3,4.3,0,0,0-1.44,1.3,5.39,5.39,0,0,0-.79,1.81,8.76,8.76,0,0,0-.25,2,8.9,8.9,0,0,0,.25,2A5.39,5.39,0,0,0,33.67,79a4.15,4.15,0,0,0,3.61,1.8,3.78,3.78,0,0,0,2-.5A4.3,4.3,0,0,0,40.61,79a5.56,5.56,0,0,0,.77-1.81,8.88,8.88,0,0,0,.24-2A8.75,8.75,0,0,0,41.38,73.07Z"/><path class="cls-1" d="M46.09,70.54a3.85,3.85,0,0,1,1.12-1.39,4.66,4.66,0,0,1,1.66-.8A8.06,8.06,0,0,1,51,68.1a9.42,9.42,0,0,1,1.75.16,4.43,4.43,0,0,1,1.57.63,3.52,3.52,0,0,1,1.13,1.3,4.71,4.71,0,0,1,.43,2.17v7a.85.85,0,0,0,.95,1,1.27,1.27,0,0,0,.52-.1v1.36l-.5.08a4.28,4.28,0,0,1-.56,0,2.48,2.48,0,0,1-1-.17,1.28,1.28,0,0,1-.57-.48,1.68,1.68,0,0,1-.27-.73,5.37,5.37,0,0,1-.07-.94h0a12.77,12.77,0,0,1-.88,1.15,4.43,4.43,0,0,1-1,.83,4.55,4.55,0,0,1-1.25.51,7,7,0,0,1-1.69.18,6.89,6.89,0,0,1-1.73-.21,3.89,3.89,0,0,1-1.41-.7,3.21,3.21,0,0,1-1-1.2A4.06,4.06,0,0,1,45,78.24a3.44,3.44,0,0,1,.62-2.17,3.82,3.82,0,0,1,1.63-1.19,9,9,0,0,1,2.28-.58L52.15,74c.35,0,.65-.08.9-.13a1.6,1.6,0,0,0,.65-.27,1.19,1.19,0,0,0,.39-.53,2.14,2.14,0,0,0,.14-.87A3,3,0,0,0,54,70.83a2,2,0,0,0-.74-.83,3,3,0,0,0-1.1-.43,8.2,8.2,0,0,0-1.35-.11,4.07,4.07,0,0,0-2.52.73,2.89,2.89,0,0,0-1,2.35H45.61A5.4,5.4,0,0,1,46.09,70.54Zm8.09,3.95a.9.9,0,0,1-.59.41,4.88,4.88,0,0,1-.77.18c-.68.12-1.39.23-2.12.32a12,12,0,0,0-2,.43,3.85,3.85,0,0,0-1.47.81,1.91,1.91,0,0,0-.58,1.5,2.39,2.39,0,0,0,.24,1.09,2.49,2.49,0,0,0,.66.82,2.84,2.84,0,0,0,.95.53,3.43,3.43,0,0,0,1.1.18,5.47,5.47,0,0,0,1.77-.28,4.37,4.37,0,0,0,1.48-.83,3.86,3.86,0,0,0,1.37-3.05V74.49Z"/><path class="cls-1" d="M64.35,68.48v1.36H61.66v8.94A2.86,2.86,0,0,0,61.88,80c.14.3.5.46,1.09.5a12.77,12.77,0,0,0,1.38-.08v1.36q-.36,0-.72,0l-.71,0a3.18,3.18,0,0,1-2.26-.63A3.12,3.12,0,0,1,60,78.91V69.84H57.73V68.48H60v-4h1.62v4Z"/><path class="cls-1" d="M68.34,63.4V66H66.72V63.4Zm0,5.08V81.74H66.72V68.48Z"/><path class="cls-1" d="M73,68.48v2.29h0a3.81,3.81,0,0,1,1.64-1.94,4.81,4.81,0,0,1,2.59-.73,6.56,6.56,0,0,1,2.33.36,3.69,3.69,0,0,1,1.5,1,3.82,3.82,0,0,1,.8,1.61,9.21,9.21,0,0,1,.23,2.13v8.53H80.56V73.46a7.92,7.92,0,0,0-.15-1.58,3.64,3.64,0,0,0-.54-1.27,2.62,2.62,0,0,0-1-.84,3.76,3.76,0,0,0-1.63-.31,4.16,4.16,0,0,0-1.74.34,3.82,3.82,0,0,0-1.28,1,4.28,4.28,0,0,0-.82,1.43A5.59,5.59,0,0,0,73,74v7.74H71.42V68.48Z"/><path class="cls-1" d="M96.11,83.3a5.15,5.15,0,0,1-1,2,4.49,4.49,0,0,1-1.81,1.25,7.6,7.6,0,0,1-2.74.44,8.39,8.39,0,0,1-2-.23,5.44,5.44,0,0,1-1.71-.72,4.41,4.41,0,0,1-1.26-1.25A3.8,3.8,0,0,1,85.05,83h1.62a3,3,0,0,0,.5,1.25,3.16,3.16,0,0,0,.9.81,4.31,4.31,0,0,0,1.17.45,6.41,6.41,0,0,0,1.31.14,3.86,3.86,0,0,0,3.26-1.29,5.86,5.86,0,0,0,1-3.69v-1.8h0a4.76,4.76,0,0,1-1.65,2,4.48,4.48,0,0,1-2.56.74,6.26,6.26,0,0,1-2.72-.53A4.89,4.89,0,0,1,86,79.6a5.81,5.81,0,0,1-1.07-2.17,10.31,10.31,0,0,1-.33-2.66A8.48,8.48,0,0,1,85,72.19a6.64,6.64,0,0,1,1.16-2.13A5.37,5.37,0,0,1,88,68.62a5.9,5.9,0,0,1,2.55-.52,4.88,4.88,0,0,1,1.4.2,4.45,4.45,0,0,1,1.2.58,5.62,5.62,0,0,1,1,.86,4,4,0,0,1,.65,1h0V68.48h1.62V80.66A9.85,9.85,0,0,1,96.11,83.3ZM92.4,79.77a4.22,4.22,0,0,0,1.34-1.18,5.24,5.24,0,0,0,.81-1.68,7.18,7.18,0,0,0,.26-2,8.12,8.12,0,0,0-.23-2,5.58,5.58,0,0,0-.74-1.77A3.94,3.94,0,0,0,92.52,70a3.72,3.72,0,0,0-2-.49,4,4,0,0,0-2,.47,4.28,4.28,0,0,0-1.36,1.25,5.11,5.11,0,0,0-.78,1.76,8.51,8.51,0,0,0-.25,2,7.59,7.59,0,0,0,.26,2,5,5,0,0,0,.8,1.68,4.08,4.08,0,0,0,1.36,1.18,4,4,0,0,0,2,.45A3.7,3.7,0,0,0,92.4,79.77Z"/><path class="cls-1" d="M107,68.48l3.39,11.35h0l3.24-11.35h1.82l3.24,11.35h0l3.39-11.35h1.72l-4.26,13.26H117.9l-3.26-11.15h0l-3.23,11.15h-1.78l-4.26-13.26Z"/><path class="cls-1" d="M127.33,63.4V66h-1.62V63.4Zm0,5.08V81.74h-1.62V68.48Z"/><path class="cls-1" d="M135.7,68.48v1.36H133v8.94a2.86,2.86,0,0,0,.22,1.25c.14.3.5.46,1.09.5a12.77,12.77,0,0,0,1.38-.08v1.36q-.36,0-.72,0l-.71,0a3.18,3.18,0,0,1-2.26-.63,3.12,3.12,0,0,1-.62-2.32V69.84h-2.31V68.48h2.31v-4H133v4Z"/><path class="cls-1" d="M139.63,63.4v7.37h.05a3.88,3.88,0,0,1,1.65-1.94,4.81,4.81,0,0,1,2.59-.73,6.56,6.56,0,0,1,2.33.36,3.69,3.69,0,0,1,1.5,1,3.82,3.82,0,0,1,.8,1.61,9.21,9.21,0,0,1,.23,2.13v8.53h-1.62V73.46a7.23,7.23,0,0,0-.16-1.58,3.45,3.45,0,0,0-.53-1.27,2.58,2.58,0,0,0-1.05-.84,3.73,3.73,0,0,0-1.63-.31,4.14,4.14,0,0,0-1.73.34,3.82,3.82,0,0,0-1.28,1,4.48,4.48,0,0,0-.83,1.43,6.18,6.18,0,0,0-.32,1.81v7.74H138V63.4Z"/><path class="cls-1" d="M159.31,70.54a3.72,3.72,0,0,1,1.11-1.39,4.75,4.75,0,0,1,1.66-.8,8.14,8.14,0,0,1,2.11-.25,9.31,9.31,0,0,1,1.74.16,4.28,4.28,0,0,1,1.57.63,3.43,3.43,0,0,1,1.13,1.3,4.7,4.7,0,0,1,.44,2.17v7a.84.84,0,0,0,1,1,1.19,1.19,0,0,0,.51-.1v1.36l-.5.08a4.22,4.22,0,0,1-.55,0,2.48,2.48,0,0,1-1-.17,1.31,1.31,0,0,1-.58-.48,1.68,1.68,0,0,1-.27-.73,6.65,6.65,0,0,1-.06-.94h-.05a12.79,12.79,0,0,1-.89,1.15,4.38,4.38,0,0,1-1,.83,4.75,4.75,0,0,1-1.26.51,7.6,7.6,0,0,1-3.42,0,3.89,3.89,0,0,1-1.41-.7,3.31,3.31,0,0,1-1-1.2,4.06,4.06,0,0,1-.35-1.74,3.44,3.44,0,0,1,.62-2.17,3.82,3.82,0,0,1,1.63-1.19,9,9,0,0,1,2.29-.58l2.58-.32c.34,0,.64-.08.9-.13a1.55,1.55,0,0,0,.64-.27,1.29,1.29,0,0,0,.4-.53,2.33,2.33,0,0,0,.14-.87,3,3,0,0,0-.27-1.35,2.08,2.08,0,0,0-.75-.83,2.91,2.91,0,0,0-1.1-.43,8.2,8.2,0,0,0-1.35-.11,4.07,4.07,0,0,0-2.52.73,2.85,2.85,0,0,0-1,2.35h-1.62A5.21,5.21,0,0,1,159.31,70.54Zm8.09,3.95a.92.92,0,0,1-.59.41,4.88,4.88,0,0,1-.77.18c-.69.12-1.4.23-2.12.32a12,12,0,0,0-2,.43,4,4,0,0,0-1.48.81,1.91,1.91,0,0,0-.58,1.5,2.28,2.28,0,0,0,.25,1.09,2.59,2.59,0,0,0,.65.82,2.84,2.84,0,0,0,.95.53,3.49,3.49,0,0,0,1.11.18,5.56,5.56,0,0,0,1.77-.28,4.42,4.42,0,0,0,1.47-.83,4,4,0,0,0,1-1.3,4.12,4.12,0,0,0,.37-1.75V74.49Z"/><path class="cls-1" d="M189.61,81.74V79.22h-.05a3.81,3.81,0,0,1-.75,1.18,5.07,5.07,0,0,1-1.15.91,5.94,5.94,0,0,1-1.37.58,5.23,5.23,0,0,1-1.45.2,5.9,5.9,0,0,1-2.64-.55A5.37,5.37,0,0,1,180.34,80a6.7,6.7,0,0,1-1.1-2.24,10.19,10.19,0,0,1,0-5.37,6.65,6.65,0,0,1,1.1-2.23,5.54,5.54,0,0,1,1.86-1.53,6.29,6.29,0,0,1,4.09-.38,4.79,4.79,0,0,1,1.32.55,4.55,4.55,0,0,1,1.09.91,3.76,3.76,0,0,1,.73,1.26h.06V63.4h1.61V81.74Zm-8.87-4.59a5.56,5.56,0,0,0,.77,1.81,4.3,4.3,0,0,0,1.35,1.3,3.78,3.78,0,0,0,2,.5,4.15,4.15,0,0,0,3.61-1.8,5.39,5.39,0,0,0,.79-1.81,8.9,8.9,0,0,0,.25-2,8.76,8.76,0,0,0-.25-2,5.39,5.39,0,0,0-.79-1.81A4.3,4.3,0,0,0,187,70a4.41,4.41,0,0,0-2.17-.5,3.78,3.78,0,0,0-2,.5,4.19,4.19,0,0,0-1.35,1.3,5.56,5.56,0,0,0-.77,1.81,8.75,8.75,0,0,0-.24,2A8.88,8.88,0,0,0,180.74,77.15Z"/><path class="cls-1" d="M195.83,63.4V66h-1.62V63.4Zm0,5.08V81.74h-1.62V68.48Z"/><path class="cls-1" d="M201.43,69.84v11.9h-1.62V69.84h-2.26V68.48h2.26V67.27a8.49,8.49,0,0,1,.13-1.56,3,3,0,0,1,.49-1.23,2.32,2.32,0,0,1,1-.8,3.89,3.89,0,0,1,1.6-.28l.67,0,.69.08v1.39l-.61-.09a3.64,3.64,0,0,0-.57,0,2.21,2.21,0,0,0-1,.2,1.22,1.22,0,0,0-.52.56,2.19,2.19,0,0,0-.2.8c0,.31,0,.65,0,1v1.15h2.62v1.36Z"/><path class="cls-1" d="M207.62,69.84v11.9H206V69.84h-2.26V68.48H206V67.27a8.49,8.49,0,0,1,.13-1.56,3,3,0,0,1,.49-1.23,2.32,2.32,0,0,1,1-.8,3.89,3.89,0,0,1,1.6-.28l.67,0,.69.08v1.39L210,64.8a3.64,3.64,0,0,0-.57,0,2.21,2.21,0,0,0-1,.2,1.22,1.22,0,0,0-.52.56,2.19,2.19,0,0,0-.2.8c0,.31,0,.65,0,1v1.15h2.62v1.36Z"/><path class="cls-1" d="M213,77.36a5.19,5.19,0,0,0,.79,1.68,4.34,4.34,0,0,0,1.36,1.23,3.74,3.74,0,0,0,2,.49,3.93,3.93,0,0,0,2.78-.93,4.82,4.82,0,0,0,1.39-2.46h1.61A6.45,6.45,0,0,1,221,80.86a5.67,5.67,0,0,1-3.9,1.23,6.11,6.11,0,0,1-2.7-.55A5,5,0,0,1,212.52,80a6.63,6.63,0,0,1-1.06-2.24,10.2,10.2,0,0,1-.35-2.68,9.71,9.71,0,0,1,.35-2.57,6.86,6.86,0,0,1,1.06-2.25,5.27,5.27,0,0,1,1.87-1.59,5.72,5.72,0,0,1,2.7-.6,5.22,5.22,0,0,1,4.56,2.32,7.06,7.06,0,0,1,1,2.39,10.94,10.94,0,0,1,.26,2.74h-10.2A7.33,7.33,0,0,0,213,77.36Zm8-5a5,5,0,0,0-.84-1.5,4,4,0,0,0-1.31-1,3.67,3.67,0,0,0-1.75-.4,3.78,3.78,0,0,0-1.77.4,4.05,4.05,0,0,0-1.31,1,5.44,5.44,0,0,0-.86,1.51,7.78,7.78,0,0,0-.42,1.76h8.58A6.22,6.22,0,0,0,221,72.41Z"/><path class="cls-1" d="M226.6,68.48v3.11h.05a4.86,4.86,0,0,1,5-3.29v1.62a4.83,4.83,0,0,0-2,.3,4.7,4.7,0,0,0-1.55,1,4.44,4.44,0,0,0-1,1.53,5.11,5.11,0,0,0-.36,1.94v7.07h-1.62V68.48Z"/><path class="cls-1" d="M233.93,77.36a5.17,5.17,0,0,0,.78,1.68,4.38,4.38,0,0,0,1.37,1.23,3.72,3.72,0,0,0,2,.49,3.93,3.93,0,0,0,2.78-.93,4.81,4.81,0,0,0,1.38-2.46h1.62a6.4,6.4,0,0,1-1.89,3.49,5.62,5.62,0,0,1-3.89,1.23,6.18,6.18,0,0,1-2.71-.55A5,5,0,0,1,233.48,80a6.63,6.63,0,0,1-1.06-2.24,9.8,9.8,0,0,1-.35-2.68,9.32,9.32,0,0,1,.35-2.57,6.86,6.86,0,0,1,1.06-2.25,5.33,5.33,0,0,1,1.86-1.59,5.79,5.79,0,0,1,2.71-.6,5.22,5.22,0,0,1,4.56,2.32,7.06,7.06,0,0,1,1,2.39,10.48,10.48,0,0,1,.25,2.74H233.69A7.33,7.33,0,0,0,233.93,77.36Zm8-5a4.77,4.77,0,0,0-.83-1.5,4.05,4.05,0,0,0-1.31-1,3.7,3.7,0,0,0-1.75-.4,3.78,3.78,0,0,0-1.77.4,4.05,4.05,0,0,0-1.31,1,5.44,5.44,0,0,0-.86,1.51,7.78,7.78,0,0,0-.42,1.76h8.58A5.9,5.9,0,0,0,241.94,72.41Z"/><path class="cls-1" d="M247.66,68.48v2.29h.05a3.91,3.91,0,0,1,1.64-1.94,4.84,4.84,0,0,1,2.6-.73,6.5,6.5,0,0,1,2.32.36,3.66,3.66,0,0,1,1.51,1,3.8,3.8,0,0,1,.79,1.61,8.69,8.69,0,0,1,.23,2.13v8.53h-1.62V73.46a7.92,7.92,0,0,0-.15-1.58,3.3,3.3,0,0,0-.54-1.27,2.55,2.55,0,0,0-1-.84,3.76,3.76,0,0,0-1.63-.31,4.11,4.11,0,0,0-1.73.34,3.76,3.76,0,0,0-1.29,1,4.46,4.46,0,0,0-.82,1.43,5.87,5.87,0,0,0-.32,1.81v7.74H246V68.48Z"/><path class="cls-1" d="M268,70.31a3.51,3.51,0,0,0-2.52-.85,4,4,0,0,0-2,.49A4.36,4.36,0,0,0,262,71.23,5.75,5.75,0,0,0,261.1,73a7.53,7.53,0,0,0,0,4.14A5.86,5.86,0,0,0,262,79a4.36,4.36,0,0,0,1.45,1.28,4,4,0,0,0,2,.49,3.55,3.55,0,0,0,1.41-.28,3.65,3.65,0,0,0,1.18-.79,4.15,4.15,0,0,0,.85-1.19,4.44,4.44,0,0,0,.41-1.52h1.62a6.11,6.11,0,0,1-1.77,3.77,5.2,5.2,0,0,1-3.7,1.34,6.22,6.22,0,0,1-2.69-.55,5.73,5.73,0,0,1-2-1.5,6.62,6.62,0,0,1-1.21-2.22,9.16,9.16,0,0,1,0-5.42,6.62,6.62,0,0,1,1.21-2.22,5.78,5.78,0,0,1,2-1.52,6.22,6.22,0,0,1,2.69-.56,5.74,5.74,0,0,1,3.61,1.13,4.83,4.83,0,0,1,1.76,3.41h-1.62A4.54,4.54,0,0,0,268,70.31Z"/><path class="cls-1" d="M274.38,77.36a5.19,5.19,0,0,0,.79,1.68,4.34,4.34,0,0,0,1.36,1.23,3.75,3.75,0,0,0,2,.49,3.92,3.92,0,0,0,2.77-.93,4.82,4.82,0,0,0,1.39-2.46h1.61a6.45,6.45,0,0,1-1.88,3.49,5.66,5.66,0,0,1-3.89,1.23,6.12,6.12,0,0,1-2.71-.55A5,5,0,0,1,273.93,80a6.63,6.63,0,0,1-1.06-2.24,10.2,10.2,0,0,1-.35-2.68,9.71,9.71,0,0,1,.35-2.57,6.86,6.86,0,0,1,1.06-2.25,5.27,5.27,0,0,1,1.87-1.59,5.74,5.74,0,0,1,2.71-.6,5.22,5.22,0,0,1,4.55,2.32,7.06,7.06,0,0,1,1,2.39,10.94,10.94,0,0,1,.26,2.74h-10.2A7.33,7.33,0,0,0,274.38,77.36Zm8-5a5,5,0,0,0-.84-1.5,4,4,0,0,0-1.31-1,3.66,3.66,0,0,0-1.74-.4,3.8,3.8,0,0,0-1.78.4,4.05,4.05,0,0,0-1.31,1,5.44,5.44,0,0,0-.86,1.51,7.78,7.78,0,0,0-.42,1.76h8.58A6.22,6.22,0,0,0,282.4,72.41Z"/></g><g id="title"><g id="Debate"><path class="cls-2" d="M331,34.7A15.61,15.61,0,0,1,325.56,47Q319.88,52,311.24,52H296.33q-4.87,0-4.88-4.82V6.06q0-4.81,4.88-4.82h14.91q8.91,0,14.35,4.9A15.89,15.89,0,0,1,331,18.45Zm-11.74,0V18.45A6.72,6.72,0,0,0,317,13.09a8.51,8.51,0,0,0-5.78-2h-6.84c-.79,0-1.18.42-1.18,1.24V40.87c0,.82.39,1.23,1.18,1.23h6.84a8.45,8.45,0,0,0,5.75-2A6.75,6.75,0,0,0,319.29,34.7Z"/><path class="cls-2" d="M375.37,42.1q-2.37,6.28-9.55,9.34a21.36,21.36,0,0,1-8.47,1.61q-11.81,0-17.22-9.23a17.36,17.36,0,0,1-2.52-9.12V18.45q0-10.56,9.49-15.82A20.65,20.65,0,0,1,357.35.11q9,0,14.48,5.63a15.71,15.71,0,0,1,3.54,5.36,4.45,4.45,0,0,1,.32,1.45,2.1,2.1,0,0,1-1,1.88l-5.15,3.38a2.69,2.69,0,0,1-1.55.43,2.19,2.19,0,0,1-1.77-1q-3.92-6.7-8.9-6.7a7.77,7.77,0,0,0-5.69,2.28,7.56,7.56,0,0,0-2.3,5.6v2q0,1.23,1.17,1.23h10.78a2.13,2.13,0,0,1,2.42,2.41v5.05a2.14,2.14,0,0,1-2.42,2.41H350.53q-1.17,0-1.17,1.23V34.7a7.61,7.61,0,0,0,2.3,5.66,7.77,7.77,0,0,0,5.69,2.28q5,0,8.9-6.7A2.08,2.08,0,0,1,368,35a2.69,2.69,0,0,1,1.55.43l5.15,3.38a2.1,2.1,0,0,1,1,1.88A4.35,4.35,0,0,1,375.37,42.1Z"/><path class="cls-2" d="M421.52,36.8q0,8.09-6,12.44-5.31,3.81-13.78,3.81-11.85,0-17.27-9.23a17.36,17.36,0,0,1-2.52-9.12V3.65a2.15,2.15,0,0,1,2.47-2.41h4.23a2.23,2.23,0,0,1,2,1c.21.29.73.43,1.55.43A20.33,20.33,0,0,1,401.73.11q8.53,0,13.78,3.81,6,4.29,6,12.44a12.35,12.35,0,0,1-4.4,9.39,1.06,1.06,0,0,0-.43.75,3.22,3.22,0,0,0,.43.75A12.83,12.83,0,0,1,421.52,36.8Zm-11.74,0q0-5.26-9.23-5.26a2.13,2.13,0,0,1-2.41-2.41V24.08a2.13,2.13,0,0,1,2.41-2.41q9.22,0,9.23-5.31,0-5.79-8.08-5.79a7.8,7.8,0,0,0-5.7,2.28,7.57,7.57,0,0,0-2.31,5.6V34.7A7.62,7.62,0,0,0,396,40.36a7.8,7.8,0,0,0,5.7,2.28Q409.79,42.64,409.78,36.8Z"/><path class="cls-2" d="M466.77,49.56A2.13,2.13,0,0,1,464.35,52h-6.92A2.13,2.13,0,0,1,455,49.56V32.77a1.09,1.09,0,0,0-1.24-1.23H440.11c-.78,0-1.18.41-1.18,1.23V49.56a2.12,2.12,0,0,1-2.4,2.41h-6.89a2.15,2.15,0,0,1-2.46-2.41V18.35q0-10.52,9.55-15.77A20.91,20.91,0,0,1,447,.11q11.86,0,17.33,9.17a17.8,17.8,0,0,1,2.47,9.07ZM455,20.44v-2a7.55,7.55,0,0,0-2.31-5.66A8,8,0,0,0,447,10.57a7.84,7.84,0,0,0-5.71,2.28,7.57,7.57,0,0,0-2.31,5.6v2c0,.82.4,1.23,1.18,1.23h13.67A1.09,1.09,0,0,0,455,20.44Z"/><path class="cls-2" d="M512,8.69a2.13,2.13,0,0,1-2.41,2.41H499.24c-.78,0-1.18.42-1.18,1.24V49.56A2.13,2.13,0,0,1,495.65,52h-6.81a2.13,2.13,0,0,1-2.41-2.41V12.34a1.1,1.1,0,0,0-1.24-1.24H474.9a2.15,2.15,0,0,1-2.47-2.41v-5a2.15,2.15,0,0,1,2.47-2.41h34.7A2.13,2.13,0,0,1,512,3.65Z"/><path class="cls-2" d="M556.34,42.1q-2.36,6.28-9.54,9.34a21.41,21.41,0,0,1-8.48,1.61q-11.8,0-17.21-9.23a17.27,17.27,0,0,1-2.53-9.12V18.45q0-10.56,9.5-15.82A20.59,20.59,0,0,1,538.32.11q9,0,14.48,5.63a15.43,15.43,0,0,1,3.54,5.36,4.2,4.2,0,0,1,.32,1.45,2.12,2.12,0,0,1-1,1.88l-5.15,3.38a2.72,2.72,0,0,1-1.56.43,2.19,2.19,0,0,1-1.77-1q-3.91-6.7-8.9-6.7a7.75,7.75,0,0,0-5.68,2.28,7.57,7.57,0,0,0-2.31,5.6v2c0,.82.39,1.23,1.18,1.23h10.78a2.13,2.13,0,0,1,2.41,2.41v5.05a2.13,2.13,0,0,1-2.41,2.41H531.51c-.79,0-1.18.41-1.18,1.23V34.7a7.62,7.62,0,0,0,2.31,5.66,7.75,7.75,0,0,0,5.68,2.28q5,0,8.9-6.7A2.11,2.11,0,0,1,549,35a2.72,2.72,0,0,1,1.56.43l5.15,3.38a2.12,2.12,0,0,1,1,1.88A4.11,4.11,0,0,1,556.34,42.1Z"/></g><g id="Dobble"><path class="cls-2" d="M39.7,34.7a15.66,15.66,0,0,1-5.49,12.37Q28.51,52,19.85,52h-15C1.63,52,0,50.4,0,47.18V6Q0,1.13,4.89,1.13h15q8.92,0,14.39,4.92A15.93,15.93,0,0,1,39.7,18.4Zm-11.78,0V18.4A6.75,6.75,0,0,0,25.62,13a8.51,8.51,0,0,0-5.8-2H13a1.07,1.07,0,0,0-1.19,1.23V40.88c0,.83.4,1.24,1.19,1.24h6.85a8.49,8.49,0,0,0,5.78-2A6.82,6.82,0,0,0,27.92,34.7Z"/><path class="cls-2" d="M85.08,34.7q0,10.65-9.53,15.86a20.9,20.9,0,0,1-10.32,2.53q-11.9,0-17.32-9.25a17.37,17.37,0,0,1-2.53-9.14V18.4q0-10.6,9.52-15.87A20.94,20.94,0,0,1,65.23,0Q77.17,0,82.6,9.25a17.89,17.89,0,0,1,2.48,9.15Zm-11.78,0V18.4A7.54,7.54,0,0,0,71,12.72a8,8,0,0,0-5.77-2.23,7.81,7.81,0,0,0-5.72,2.29,7.55,7.55,0,0,0-2.32,5.62V34.7a7.63,7.63,0,0,0,2.32,5.67,7.81,7.81,0,0,0,5.72,2.29A8,8,0,0,0,71,40.4,7.63,7.63,0,0,0,73.3,34.7Z"/><path class="cls-2" d="M130.45,36.79q0,8.13-6,12.48-5.33,3.82-13.83,3.82-11.88,0-17.32-9.25a17.45,17.45,0,0,1-2.52-9.14V3.55a2.16,2.16,0,0,1,2.47-2.42h4.25a2.21,2.21,0,0,1,2,1c.22.29.73.43,1.56.43A20.28,20.28,0,0,1,110.6,0c5.71,0,10.31,1.27,13.83,3.82q6,4.31,6,12.48A12.4,12.4,0,0,1,126,25.71a1.08,1.08,0,0,0-.43.76,3.22,3.22,0,0,0,.43.75A12.9,12.9,0,0,1,130.45,36.79Zm-11.78,0q0-5.26-9.25-5.27A2.14,2.14,0,0,1,107,29.1V24a2.14,2.14,0,0,1,2.42-2.42q9.26,0,9.25-5.32,0-5.81-8.09-5.81a7.8,7.8,0,0,0-5.72,2.29,7.55,7.55,0,0,0-2.32,5.62V34.7a7.63,7.63,0,0,0,2.32,5.67,7.8,7.8,0,0,0,5.72,2.29Q118.67,42.66,118.67,36.79Z"/><path class="cls-2" d="M175.83,36.79q0,8.13-6,12.48Q164.49,53.1,156,53.09q-11.88,0-17.32-9.25a17.46,17.46,0,0,1-2.53-9.14V3.55a2.17,2.17,0,0,1,2.48-2.42h4.25a2.22,2.22,0,0,1,2,1c.21.29.73.43,1.56.43A20.28,20.28,0,0,1,156,0c5.71,0,10.31,1.27,13.83,3.82q6,4.31,6,12.48a12.4,12.4,0,0,1-4.41,9.41,1,1,0,0,0-.43.76,3.22,3.22,0,0,0,.43.75A12.9,12.9,0,0,1,175.83,36.79Zm-11.78,0q0-5.26-9.25-5.27a2.14,2.14,0,0,1-2.42-2.42V24a2.14,2.14,0,0,1,2.42-2.42q9.25,0,9.25-5.32,0-5.81-8.09-5.81a7.83,7.83,0,0,0-5.73,2.29,7.59,7.59,0,0,0-2.32,5.62V34.7a7.67,7.67,0,0,0,2.32,5.67A7.83,7.83,0,0,0,156,42.66Q164,42.66,164.05,36.79Z"/><path class="cls-2" d="M221.21,49.6A2.14,2.14,0,0,1,218.79,52H190.44c-3.23,0-4.84-1.62-4.84-4.84V3.55A2.14,2.14,0,0,1,188,1.13H195a2.14,2.14,0,0,1,2.42,2.42V40.88a1.09,1.09,0,0,0,1.24,1.24h20.17a2.14,2.14,0,0,1,2.42,2.42Z"/><path class="cls-2" d="M265.67,42.12q-2.35,6.29-9.57,9.36a21.51,21.51,0,0,1-8.5,1.61q-11.83,0-17.27-9.25a17.45,17.45,0,0,1-2.52-9.14V18.4q0-10.6,9.52-15.87A20.6,20.6,0,0,1,247.6,0q9,0,14.52,5.65A15.44,15.44,0,0,1,265.67,11a4.2,4.2,0,0,1,.33,1.45,2.12,2.12,0,0,1-1,1.88l-5.17,3.39a2.72,2.72,0,0,1-1.56.43,2.19,2.19,0,0,1-1.77-1q-3.93-6.72-8.93-6.72a7.77,7.77,0,0,0-5.7,2.29,7.58,7.58,0,0,0-2.31,5.62v2c0,.82.39,1.23,1.18,1.23h10.81A2.14,2.14,0,0,1,254,24V29.1a2.14,2.14,0,0,1-2.42,2.42H240.77c-.79,0-1.18.41-1.18,1.24V34.7a7.66,7.66,0,0,0,2.31,5.67,7.77,7.77,0,0,0,5.7,2.29q5,0,8.93-6.73a2.12,2.12,0,0,1,1.77-1,2.8,2.8,0,0,1,1.56.43L265,38.78a2.14,2.14,0,0,1,1,1.89A4.2,4.2,0,0,1,265.67,42.12Z"/></g></g></g></g></g></svg>