<svg xmlns="http://www.w3.org/2000/svg" viewBox="0 0 360 504"><defs><style>.cls-1{fill:#3eade2;}.cls-2{fill:#f16522;}.cls-3{fill:#fff;}</style></defs><g id="Layer_2" data-name="Layer 2"><g id="back"><rect id="black" width="360" height="504" rx="18"/><rect id="blue" class="cls-1" width="360" height="504" rx="18"/><rect id="orange" class="cls-2" width="360" height="504" rx="18"/><path class="cls-3" d="M139.53,164.09a34.33,34.33,0,0,0-31.68-21H57.2a34.39,34.39,0,1,1,0,68.78h50.65a34.4,34.4,0,0,0,31.68-47.78Zm-31.68,35.6h-7.27V155.26h7.27a22.22,22.22,0,0,1,0,44.43Z"/><path class="cls-3" d="M57.13,155.3H49.87v44.43h7.26a22.22,22.22,0,1,0,0-44.43Z"/><path class="cls-3" d="M178.37,162.63a9.15,9.15,0,0,1-3.19,7.2,12.34,12.34,0,0,1-8.37,2.88h-8.7a2.51,2.51,0,0,1-2.85-2.82v-24c0-1.88,1-2.81,2.85-2.81h8.7a12,12,0,0,1,8.38,2.86,9.27,9.27,0,0,1,3.18,7.19Zm-6.86,0v-9.49a4,4,0,0,0-1.33-3.13,5,5,0,0,0-3.38-1.16h-4a.63.63,0,0,0-.7.72v16.66a.63.63,0,0,0,.7.72h4a5,5,0,0,0,3.36-1.17A4,4,0,0,0,171.51,162.63Z"/><path class="cls-3" d="M204.79,162.63a9.91,9.91,0,0,1-5.54,9.24,12.25,12.25,0,0,1-6,1.47q-6.91,0-10.08-5.39a10.13,10.13,0,0,1-1.47-5.32v-9.49a9.93,9.93,0,0,1,5.54-9.24,12.22,12.22,0,0,1,6-1.47q7,0,10.12,5.38a10.43,10.43,0,0,1,1.44,5.33Zm-6.86,0v-9.49a4.4,4.4,0,0,0-1.35-3.31,4.68,4.68,0,0,0-3.36-1.3,4.56,4.56,0,0,0-3.33,1.34,4.39,4.39,0,0,0-1.35,3.27v9.49a4.44,4.44,0,0,0,1.35,3.3,4.55,4.55,0,0,0,3.33,1.33,4.65,4.65,0,0,0,3.36-1.31A4.45,4.45,0,0,0,197.93,162.63Z"/><path class="cls-3" d="M231.21,163.85a8.44,8.44,0,0,1-3.51,7.27,13.5,13.5,0,0,1-8,2.22q-6.92,0-10.08-5.39a10.13,10.13,0,0,1-1.47-5.32V144.49a1.25,1.25,0,0,1,1.44-1.4H212a1.29,1.29,0,0,1,1.16.56c.13.17.43.25.91.25a11.87,11.87,0,0,1,5.57-1.47,13.41,13.41,0,0,1,8,2.22,8.37,8.37,0,0,1,3.51,7.27,7.24,7.24,0,0,1-2.57,5.48.61.61,0,0,0-.25.44,1.79,1.79,0,0,0,.25.43A7.53,7.53,0,0,1,231.21,163.85Zm-6.86,0c0-2-1.79-3.07-5.39-3.07a1.24,1.24,0,0,1-1.4-1.41v-2.94A1.24,1.24,0,0,1,219,155c3.6,0,5.39-1,5.39-3.1q0-3.39-4.71-3.39a4.56,4.56,0,0,0-3.33,1.34,4.39,4.39,0,0,0-1.35,3.27v9.49a4.44,4.44,0,0,0,1.35,3.3,4.55,4.55,0,0,0,3.33,1.33C222.78,167.26,224.35,166.13,224.35,163.85Z"/><path class="cls-3" d="M257.63,163.85a8.44,8.44,0,0,1-3.51,7.27,13.5,13.5,0,0,1-8.05,2.22q-6.91,0-10.08-5.39a10.13,10.13,0,0,1-1.47-5.32V144.49a1.25,1.25,0,0,1,1.44-1.4h2.47a1.29,1.29,0,0,1,1.16.56c.13.17.43.25.91.25a11.87,11.87,0,0,1,5.57-1.47,13.41,13.41,0,0,1,8.05,2.22,8.37,8.37,0,0,1,3.51,7.27,7.21,7.21,0,0,1-2.57,5.48.61.61,0,0,0-.25.44,1.79,1.79,0,0,0,.25.43A7.49,7.49,0,0,1,257.63,163.85Zm-6.86,0q0-3.07-5.38-3.07a1.25,1.25,0,0,1-1.41-1.41v-2.94a1.25,1.25,0,0,1,1.41-1.41c3.59,0,5.38-1,5.38-3.1q0-3.39-4.71-3.39a4.56,4.56,0,0,0-3.33,1.34,4.39,4.39,0,0,0-1.35,3.27v9.49a4.44,4.44,0,0,0,1.35,3.3,4.55,4.55,0,0,0,3.33,1.33C249.2,167.26,250.77,166.13,250.77,163.85Z"/><path class="cls-3" d="M284.05,171.3a1.25,1.25,0,0,1-1.41,1.41h-16.5a2.49,2.49,0,0,1-2.82-2.82v-25.4a1.24,1.24,0,0,1,1.41-1.4h4a1.24,1.24,0,0,1,1.41,1.4v21.74a.64.64,0,0,0,.72.72h11.74a1.25,1.25,0,0,1,1.41,1.41Z"/><path class="cls-3" d="M309.94,167a9.59,9.59,0,0,1-5.57,5.45,12.45,12.45,0,0,1-4.95.94q-6.9,0-10.06-5.39a10.13,10.13,0,0,1-1.47-5.32v-9.49a9.94,9.94,0,0,1,5.55-9.24,12,12,0,0,1,6-1.47,11.28,11.28,0,0,1,8.45,3.29,9.08,9.08,0,0,1,2.07,3.13,2.35,2.35,0,0,1,.19.84,1.24,1.24,0,0,1-.57,1.1l-3,2a1.59,1.59,0,0,1-.91.25,1.26,1.26,0,0,1-1-.56q-2.3-3.91-5.2-3.92a4.52,4.52,0,0,0-3.32,1.34,4.39,4.39,0,0,0-1.35,3.27v1.16q0,.72.69.72h6.29a1.25,1.25,0,0,1,1.41,1.41v2.94a1.25,1.25,0,0,1-1.41,1.41h-6.29q-.69,0-.69.72v1.13a4.44,4.44,0,0,0,1.35,3.3,4.51,4.51,0,0,0,3.32,1.33q2.91,0,5.2-3.91a1.22,1.22,0,0,1,1-.57,1.6,1.6,0,0,1,.91.26l3,2a1.22,1.22,0,0,1,.57,1.09A2.4,2.4,0,0,1,309.94,167Z"/><path class="cls-3" d="M178.42,201.77a9.09,9.09,0,0,1-3.19,7.18,12.26,12.26,0,0,1-8.33,2.87h-8.69a2.5,2.5,0,0,1-2.84-2.81V185.09a2.5,2.5,0,0,1,2.84-2.81h8.69a12,12,0,0,1,8.35,2.86,9.24,9.24,0,0,1,3.17,7.16Zm-6.84,0V192.3a3.91,3.91,0,0,0-1.33-3.12,5,5,0,0,0-3.37-1.15h-4a.62.62,0,0,0-.69.71v16.62c0,.48.23.71.69.71h4a4.92,4.92,0,0,0,3.35-1.17A3.93,3.93,0,0,0,171.58,201.77Z"/><path class="cls-3" d="M204.23,206.07a9.56,9.56,0,0,1-5.56,5.44,12.49,12.49,0,0,1-4.93.94q-6.87,0-10-5.38a10.14,10.14,0,0,1-1.46-5.3V192.3a9.91,9.91,0,0,1,5.52-9.21,12,12,0,0,1,6-1.47,11.32,11.32,0,0,1,8.43,3.28,9,9,0,0,1,2.06,3.13,2.59,2.59,0,0,1,.19.84,1.23,1.23,0,0,1-.56,1.09l-3,2a1.57,1.57,0,0,1-.91.25,1.3,1.3,0,0,1-1-.56c-1.52-2.6-3.25-3.91-5.18-3.91a4.54,4.54,0,0,0-3.31,1.33,4.39,4.39,0,0,0-1.34,3.26v1.16c0,.48.22.72.68.72h6.28a1.24,1.24,0,0,1,1.4,1.4v2.94a1.24,1.24,0,0,1-1.4,1.4h-6.28c-.46,0-.68.24-.68.72v1.13a4.41,4.41,0,0,0,1.34,3.29,4.5,4.5,0,0,0,3.31,1.33q2.89,0,5.18-3.91a1.23,1.23,0,0,1,1-.56,1.65,1.65,0,0,1,.91.25l3,2a1.23,1.23,0,0,1,.56,1.09A2.59,2.59,0,0,1,204.23,206.07Z"/><path class="cls-3" d="M231.1,203a8.4,8.4,0,0,1-3.49,7.25,13.48,13.48,0,0,1-8,2.22q-6.9,0-10.05-5.38a10.06,10.06,0,0,1-1.47-5.3V183.69a1.26,1.26,0,0,1,1.43-1.41H212a1.31,1.31,0,0,1,1.16.56c.12.17.42.25.9.25a11.8,11.8,0,0,1,5.56-1.47,13.37,13.37,0,0,1,8,2.22,8.36,8.36,0,0,1,3.49,7.25,7.18,7.18,0,0,1-2.56,5.46.63.63,0,0,0-.25.44,2,2,0,0,0,.25.44A7.45,7.45,0,0,1,231.1,203Zm-6.84,0q0-3.06-5.37-3.06a1.24,1.24,0,0,1-1.4-1.4v-2.94a1.24,1.24,0,0,1,1.4-1.4q5.37,0,5.37-3.09c0-2.25-1.56-3.38-4.7-3.38a4.58,4.58,0,0,0-3.32,1.33,4.43,4.43,0,0,0-1.34,3.26v9.47a4.45,4.45,0,0,0,1.34,3.29,4.54,4.54,0,0,0,3.32,1.33C222.7,206.39,224.26,205.25,224.26,203Z"/><path class="cls-3" d="M257.45,210.42a1.24,1.24,0,0,1-1.41,1.4h-4a1.24,1.24,0,0,1-1.4-1.4v-9.78a.64.64,0,0,0-.72-.72h-8q-.69,0-.69.72v9.78a1.24,1.24,0,0,1-1.4,1.4h-4a1.25,1.25,0,0,1-1.43-1.4V192.24a9.87,9.87,0,0,1,5.56-9.18,12.2,12.2,0,0,1,6-1.44q6.9,0,10.09,5.34a10.33,10.33,0,0,1,1.44,5.28Zm-6.84-17V192.3a4.36,4.36,0,0,0-1.35-3.29,4.67,4.67,0,0,0-3.35-1.3,4.55,4.55,0,0,0-3.32,1.33,4.4,4.4,0,0,0-1.35,3.26v1.16q0,.72.69.72h8A.64.64,0,0,0,250.61,193.46Z"/><path class="cls-3" d="M283.79,186.62a1.25,1.25,0,0,1-1.41,1.41h-6a.62.62,0,0,0-.69.71v21.68a1.24,1.24,0,0,1-1.41,1.4h-4a1.24,1.24,0,0,1-1.41-1.4V188.74a.63.63,0,0,0-.71-.71h-6a1.26,1.26,0,0,1-1.44-1.41v-2.93a1.26,1.26,0,0,1,1.44-1.41h20.2a1.25,1.25,0,0,1,1.41,1.41Z"/><path class="cls-3" d="M309.6,206.07a9.56,9.56,0,0,1-5.56,5.44,12.49,12.49,0,0,1-4.93.94q-6.87,0-10-5.38a10.14,10.14,0,0,1-1.46-5.3V192.3a9.91,9.91,0,0,1,5.52-9.21,12,12,0,0,1,6-1.47,11.32,11.32,0,0,1,8.43,3.28A9,9,0,0,1,309.6,188a2.35,2.35,0,0,1,.19.84,1.23,1.23,0,0,1-.56,1.09l-3,2a1.57,1.57,0,0,1-.91.25,1.3,1.3,0,0,1-1-.56c-1.52-2.6-3.25-3.91-5.18-3.91A4.54,4.54,0,0,0,295.8,189a4.39,4.39,0,0,0-1.34,3.26v1.16c0,.48.22.72.68.72h6.28a1.24,1.24,0,0,1,1.4,1.4v2.94a1.24,1.24,0,0,1-1.4,1.4h-6.28c-.46,0-.68.24-.68.72v1.13a4.41,4.41,0,0,0,1.34,3.29,4.5,4.5,0,0,0,3.31,1.33q2.89,0,5.18-3.91a1.24,1.24,0,0,1,1-.56,1.65,1.65,0,0,1,.91.25l3,2a1.23,1.23,0,0,1,.56,1.09A2.35,2.35,0,0,1,309.6,206.07Z"/></g></g></svg>