<svg xmlns="http://www.w3.org/2000/svg" viewBox="0 0 33 33"><defs><style>.cls-1{fill:#44ade2;}</style></defs><g id="Layer_2" data-name="Layer 2"><g id="choose_your_avatar" data-name="choose your avatar"><g id="info_and_icon" data-name="info and icon"><path id="info" class="cls-1" d="M16.52,0A16.5,16.5,0,1,1,0,16.48v0A16.49,16.49,0,0,1,16.52,0ZM15.26,12.54H12.31a2.28,2.28,0,0,0-.63.09.61.61,0,0,0-.48.51.59.59,0,0,0,.33.68,2.86,2.86,0,0,0,1,.27c.92,0,1.29.45,1.15,1.39-.26,1.77-.6,3.52-.9,5.28-.2,1.19-.37,2.38-.56,3.57a3.17,3.17,0,0,0,2.41,3.3,13.64,13.64,0,0,0,2.12.13,5.52,5.52,0,0,0,4-1.73,1.56,1.56,0,0,0,.41-.64.79.79,0,0,0-.14-.61.61.61,0,0,0-.51-.05,8.1,8.1,0,0,0-.78.39,5.44,5.44,0,0,1-1,.33,1,1,0,0,1-1.14-.69.77.77,0,0,1,0-.15,2.91,2.91,0,0,1,0-.93c.11-.77.27-1.53.4-2.29q.57-3.11,1.15-6.21a4.55,4.55,0,0,0,.17-1.72,1,1,0,0,0-1.06-.92h-3ZM17.05,5.2a3,3,0,1,0,2.86,3.13V8.26a3,3,0,0,0-2.87-3Z"/></g></g></g></svg>