<svg xmlns="http://www.w3.org/2000/svg" xmlns:xlink="http://www.w3.org/1999/xlink" viewBox="0 0 235 57"><defs><style>.cls-1{fill:url(#_ÂÁ_Ï_ÌÌ_È_ËÂÌÚ_5);}.cls-2{isolation:isolate;}.cls-3{fill:url(#linear-gradient);}.cls-4{mix-blend-mode:multiply;}.cls-5{clip-path:url(#clip-path);}.cls-6{fill:url(#_ÂÁ_Ï_ÌÌ_È_ËÂÌÚ_15);}.cls-7{fill:url(#_ÂÁ_Ï_ÌÌ_È_ËÂÌÚ_15-2);}.cls-8{fill:url(#_ÂÁ_Ï_ÌÌ_È_ËÂÌÚ_14);}.cls-9{fill:#fffff8;}.cls-10{fill:#f1f1f1;}</style><linearGradient id="_ÂÁ_Ï_ÌÌ_È_ËÂÌÚ_5" y1="25" x2="230" y2="25" gradientUnits="userSpaceOnUse"><stop offset="0" stop-color="#db8810"/><stop offset="1" stop-color="#e22d18"/></linearGradient><linearGradient id="linear-gradient" y1="25" x2="230" y2="25" gradientUnits="userSpaceOnUse"><stop offset="0" stop-color="#44ade2"/><stop offset="1" stop-color="#003970"/></linearGradient><clipPath id="clip-path" transform="translate(2.5)"><path id="Mask" class="cls-1" d="M205,0H25a25,25,0,0,0,0,50H205a25,25,0,0,0,0-50Z"/></clipPath><radialGradient id="_ÂÁ_Ï_ÌÌ_È_ËÂÌÚ_15" cx="29.34" cy="-70.09" r="25" gradientTransform="translate(-4.45 108.4) scale(1.02 1.14)" gradientUnits="userSpaceOnUse"><stop offset="0.75" stop-color="#fff"/><stop offset="0.79" stop-color="#fefdfc"/><stop offset="0.83" stop-color="#fcf7f2"/><stop offset="0.86" stop-color="#f9ede1"/><stop offset="0.89" stop-color="#f3dfc9"/><stop offset="0.92" stop-color="#edcdaa"/><stop offset="0.95" stop-color="#e5b784"/><stop offset="0.98" stop-color="#db9d59"/><stop offset="1" stop-color="#d48936"/></radialGradient><radialGradient id="_ÂÁ_Ï_ÌÌ_È_ËÂÌÚ_15-2" cx="208.61" cy="-70.09" r="25" xlink:href="#_ÂÁ_Ï_ÌÌ_È_ËÂÌÚ_15"/><linearGradient id="_ÂÁ_Ï_ÌÌ_È_ËÂÌÚ_14" x1="117.5" y1="57" x2="117.5" gradientUnits="userSpaceOnUse"><stop offset="0.88" stop-color="#fff"/><stop offset="0.9" stop-color="#fefdfc"/><stop offset="0.92" stop-color="#fcf7f2"/><stop offset="0.93" stop-color="#f9ede1"/><stop offset="0.95" stop-color="#f3dfc9"/><stop offset="0.96" stop-color="#edcdaa"/><stop offset="0.98" stop-color="#e5b784"/><stop offset="0.99" stop-color="#db9d59"/><stop offset="1" stop-color="#d48936"/></linearGradient></defs><g class="cls-2"><g id="Layer_2" data-name="Layer 2"><g id="buttons_for_options" data-name="buttons for options"><g id="basic_button_hover" data-name="basic button hover"><path id="BG" class="cls-3" d="M205,0H25a25,25,0,0,0,0,50H205a25,25,0,0,0,0-50Z" transform="translate(2.5)"/><g id="Shadow" class="cls-4"><path id="Mask-2" data-name="Mask" class="cls-1" d="M205,0H25a25,25,0,0,0,0,50H205a25,25,0,0,0,0-50Z" transform="translate(2.5)"/><g class="cls-5"><g id="Shadow-2" data-name="Shadow"><rect class="cls-6" width="51.25" height="57"/><rect class="cls-7" x="183.75" width="51.25" height="57"/><rect class="cls-8" x="25.63" width="183.75" height="57"/></g></g></g><g id="reveal_the_cards_label" data-name="reveal the cards label"><path class="cls-9" d="M19.81,19.82a26,26,0,0,1,3.93-.26,6.8,6.8,0,0,1,4.1.94,3.13,3.13,0,0,1,1.21,2.65A3.21,3.21,0,0,1,27,26.08v.07a3,3,0,0,1,1.55,2.17c.38,1.24.77,3,1,3.47H26.19A16.55,16.55,0,0,1,25.34,29c-.32-1.46-.77-1.77-1.78-1.77H23v4.56H19.81ZM23,24.91h.84c1.23,0,1.93-.61,1.93-1.51S25.22,22,24.14,22A6.2,6.2,0,0,0,23,22Z" transform="translate(2.5)"/><path class="cls-9" d="M38.54,26.89H34.18v2.24h4.88v2.66H30.92V19.65h7.89V22.3H34.18v2h4.36Z" transform="translate(2.5)"/><path class="cls-9" d="M43.92,31.79,40.06,19.65h3.57l1.28,4.78a40.34,40.34,0,0,1,1,4.25h0c.31-1.5.65-2.9,1-4.2l1.31-4.83h3.46l-4,12.14Z" transform="translate(2.5)"/><path class="cls-9" d="M60.66,26.89H56.3v2.24h4.88v2.66H53V19.65h7.89V22.3H56.3v2h4.36Z" transform="translate(2.5)"/><path class="cls-9" d="M66.16,29l-.68,2.81H62.11l3.53-12.14H70l3.62,12.14H70.07L69.3,29Zm2.69-2.41-.56-2.18c-.18-.68-.42-1.67-.6-2.39h0c-.18.72-.36,1.72-.54,2.41l-.52,2.16Z" transform="translate(2.5)"/><path class="cls-9" d="M75.13,19.65h3.26v9.42h4.66v2.72H75.13Z" transform="translate(2.5)"/><path class="cls-9" d="M89.87,22.37h-3.1V19.65h9.51v2.72H93.13v9.42H89.87Z" transform="translate(2.5)"/><path class="cls-9" d="M101,19.65v4.49H105V19.65h3.24V31.79H105V27H101v4.81H97.77V19.65Z" transform="translate(2.5)"/><path class="cls-9" d="M118.08,26.89h-4.36v2.24h4.88v2.66h-8.14V19.65h7.89V22.3h-4.63v2h4.36Z" transform="translate(2.5)"/><path class="cls-9" d="M133.05,31.48A8.15,8.15,0,0,1,130,32c-4.54,0-6.53-2.83-6.53-6,0-4.28,3.13-6.46,6.75-6.46a7.28,7.28,0,0,1,3,.54l-.63,2.55a6.05,6.05,0,0,0-2.25-.43,3.28,3.28,0,0,0-3.49,3.58,3.28,3.28,0,0,0,3.54,3.59,6.6,6.6,0,0,0,2.18-.36Z" transform="translate(2.5)"/><path class="cls-9" d="M138.2,29l-.69,2.81h-3.36l3.53-12.14H142l3.62,12.14h-3.51L141.33,29Zm2.68-2.41-.56-2.18c-.18-.68-.41-1.67-.59-2.39h0c-.18.72-.36,1.72-.54,2.41l-.52,2.16Z" transform="translate(2.5)"/><path class="cls-9" d="M147.16,19.82a26,26,0,0,1,3.93-.26,6.82,6.82,0,0,1,4.1.94,3.13,3.13,0,0,1,1.21,2.65,3.23,3.23,0,0,1-2.09,2.93v.07a3,3,0,0,1,1.55,2.17c.38,1.24.77,3,1,3.47h-3.33a16.55,16.55,0,0,1-.85-2.79c-.32-1.46-.77-1.77-1.78-1.77h-.53v4.56h-3.22Zm3.22,5.09h.85c1.23,0,1.93-.61,1.93-1.51s-.6-1.42-1.68-1.44a6.39,6.39,0,0,0-1.1.07Z" transform="translate(2.5)"/><path class="cls-9" d="M158.27,19.82a25.42,25.42,0,0,1,3.87-.26,8.3,8.3,0,0,1,5,1.21,5.32,5.32,0,0,1,2.19,4.67,6,6,0,0,1-2.12,5,9.16,9.16,0,0,1-5.69,1.5,20,20,0,0,1-3.24-.2Zm3.26,9.54a3.55,3.55,0,0,0,.68,0c2.11,0,3.66-1.14,3.66-3.88a3.12,3.12,0,0,0-3.35-3.47,5.42,5.42,0,0,0-1,.07Z" transform="translate(2.5)"/><path class="cls-9" d="M171.26,28.55a7.37,7.37,0,0,0,3.15.76c1.12,0,1.66-.38,1.66-1s-.54-.94-1.91-1.41c-2-.72-3.4-1.85-3.4-3.65,0-2.15,1.8-3.8,4.86-3.8a7.88,7.88,0,0,1,3.3.63l-.69,2.59a6.38,6.38,0,0,0-2.65-.58c-1,0-1.53.36-1.53.9s.65.87,2.18,1.44c2.18.8,3.17,2,3.17,3.66,0,2.09-1.64,3.87-5.18,3.87a8.64,8.64,0,0,1-3.57-.74Z" transform="translate(2.5)"/></g><path id="arrow" class="cls-10" d="M218,25.5a15,15,0,1,0-15,14.79A14.9,14.9,0,0,0,218,25.5Zm-16.37,6.89a1.74,1.74,0,0,1,0-2.49l2.61-2.55h-6.92a1.8,1.8,0,0,1-1.82-1.79v-.12a1.8,1.8,0,0,1,1.82-1.79h6.9l-2.59-2.53a1.74,1.74,0,0,1,0-2.49,1.83,1.83,0,0,1,2.55,0L210,24.27a1.74,1.74,0,0,1,0,2.49l-5.77,5.63A1.83,1.83,0,0,1,201.63,32.39Z" transform="translate(2.5)"/></g></g></g></g></svg>