<svg xmlns="http://www.w3.org/2000/svg" xmlns:xlink="http://www.w3.org/1999/xlink" viewBox="0 0 235 57"><defs><style>.cls-1{fill:url(#_ÂÁ_Ï_ÌÌ_È_ËÂÌÚ_5);}.cls-2{isolation:isolate;}.cls-3{mix-blend-mode:multiply;}.cls-4{clip-path:url(#clip-path);}.cls-5{fill:url(#_ÂÁ_Ï_ÌÌ_È_ËÂÌÚ_15);}.cls-6{fill:url(#_ÂÁ_Ï_ÌÌ_È_ËÂÌÚ_15-2);}.cls-7{fill:url(#_ÂÁ_Ï_ÌÌ_È_ËÂÌÚ_14);}.cls-8{fill:#fffff7;}.cls-9{fill:#fffff8;}.cls-10{fill:#f16522;}</style><linearGradient id="_ÂÁ_Ï_ÌÌ_È_ËÂÌÚ_5" y1="25" x2="230" y2="25" gradientUnits="userSpaceOnUse"><stop offset="0" stop-color="#db8810"/><stop offset="1" stop-color="#e22d18"/></linearGradient><clipPath id="clip-path" transform="translate(2.5)"><path id="Mask" class="cls-1" d="M205,0H25a25,25,0,0,0,0,50H205a25,25,0,0,0,0-50Z"/></clipPath><radialGradient id="_ÂÁ_Ï_ÌÌ_È_ËÂÌÚ_15" cx="29.34" cy="-70.09" r="25" gradientTransform="translate(-4.45 108.4) scale(1.02 1.14)" gradientUnits="userSpaceOnUse"><stop offset="0.75" stop-color="#fff"/><stop offset="0.79" stop-color="#fefdfc"/><stop offset="0.83" stop-color="#fcf7f2"/><stop offset="0.86" stop-color="#f9ede1"/><stop offset="0.89" stop-color="#f3dfc9"/><stop offset="0.92" stop-color="#edcdaa"/><stop offset="0.95" stop-color="#e5b784"/><stop offset="0.98" stop-color="#db9d59"/><stop offset="1" stop-color="#d48936"/></radialGradient><radialGradient id="_ÂÁ_Ï_ÌÌ_È_ËÂÌÚ_15-2" cx="208.61" cy="-70.09" r="25" xlink:href="#_ÂÁ_Ï_ÌÌ_È_ËÂÌÚ_15"/><linearGradient id="_ÂÁ_Ï_ÌÌ_È_ËÂÌÚ_14" x1="117.5" y1="57" x2="117.5" gradientUnits="userSpaceOnUse"><stop offset="0.88" stop-color="#fff"/><stop offset="0.9" stop-color="#fefdfc"/><stop offset="0.92" stop-color="#fcf7f2"/><stop offset="0.93" stop-color="#f9ede1"/><stop offset="0.95" stop-color="#f3dfc9"/><stop offset="0.96" stop-color="#edcdaa"/><stop offset="0.98" stop-color="#e5b784"/><stop offset="0.99" stop-color="#db9d59"/><stop offset="1" stop-color="#d48936"/></linearGradient></defs><g class="cls-2"><g id="Layer_2" data-name="Layer 2"><g id="buttons_for_options" data-name="buttons for options"><g id="basic_button" data-name="basic button"><path id="BG" class="cls-1" d="M205,0H25a25,25,0,0,0,0,50H205a25,25,0,0,0,0-50Z" transform="translate(2.5)"/><g id="Shadow" class="cls-3"><path id="Mask-2" data-name="Mask" class="cls-1" d="M205,0H25a25,25,0,0,0,0,50H205a25,25,0,0,0,0-50Z" transform="translate(2.5)"/><g class="cls-4"><g id="Shadow-2" data-name="Shadow"><rect class="cls-5" width="51.25" height="57"/><rect class="cls-6" x="183.75" width="51.25" height="57"/><rect class="cls-7" x="25.63" width="183.75" height="57"/></g></g></g><g id="save_screen_label" data-name="save screen label"><path class="cls-8" d="M62.05,29.22A7.53,7.53,0,0,0,65.2,30c1.12,0,1.66-.38,1.66-1s-.54-.93-1.91-1.4c-2.05-.72-3.4-1.86-3.4-3.66,0-2.14,1.8-3.8,4.86-3.8a7.82,7.82,0,0,1,3.29.63L69,23.35a6.23,6.23,0,0,0-2.65-.58c-1,0-1.53.36-1.53.9s.65.86,2.18,1.44c2.18.79,3.17,2,3.17,3.66,0,2.08-1.64,3.87-5.19,3.87a8.58,8.58,0,0,1-3.56-.74Z" transform="translate(2.5)"/><path class="cls-8" d="M75.12,29.65l-.68,2.81H71.07L74.6,20.32h4.32l3.62,12.14H79l-.78-2.81Zm2.68-2.41-.56-2.18c-.18-.69-.41-1.68-.59-2.4h0c-.18.72-.36,1.73-.54,2.42l-.52,2.16Z" transform="translate(2.5)"/><path class="cls-8" d="M85.92,32.46,82.07,20.32h3.56l1.28,4.77a40.88,40.88,0,0,1,1,4.25h0c.31-1.49.65-2.9,1-4.19l1.32-4.83h3.45l-4,12.14Z" transform="translate(2.5)"/><path class="cls-8" d="M102.66,27.56H98.3v2.23h4.88v2.67H95V20.32h7.89V23H98.3v2h4.36Z" transform="translate(2.5)"/><path class="cls-8" d="M108.76,29.22a7.53,7.53,0,0,0,3.15.75c1.12,0,1.66-.38,1.66-1s-.54-.93-1.91-1.4c-2-.72-3.4-1.86-3.4-3.66,0-2.14,1.8-3.8,4.86-3.8a7.82,7.82,0,0,1,3.29.63l-.68,2.6a6.23,6.23,0,0,0-2.65-.58c-1,0-1.53.36-1.53.9s.65.86,2.18,1.44c2.18.79,3.17,2,3.17,3.66,0,2.08-1.64,3.87-5.19,3.87a8.58,8.58,0,0,1-3.56-.74Z" transform="translate(2.5)"/><path class="cls-8" d="M127.73,32.15a8.15,8.15,0,0,1-3.06.49c-4.53,0-6.53-2.83-6.53-6.05,0-4.29,3.13-6.47,6.75-6.47a7.28,7.28,0,0,1,3,.54l-.63,2.56a5.86,5.86,0,0,0-2.25-.43,3.28,3.28,0,0,0-3.49,3.58A3.28,3.28,0,0,0,125.11,30a6.59,6.59,0,0,0,2.17-.36Z" transform="translate(2.5)"/><path class="cls-8" d="M129.48,20.48a27.46,27.46,0,0,1,3.92-.25,6.76,6.76,0,0,1,4.11.94,3.14,3.14,0,0,1,1.21,2.64,3.23,3.23,0,0,1-2.09,2.94v.07A3,3,0,0,1,138.17,29c.38,1.25.78,3,1,3.48h-3.33a16.91,16.91,0,0,1-.84-2.79c-.33-1.46-.78-1.77-1.79-1.77h-.52v4.56h-3.22Zm3.22,5.1h.85c1.22,0,1.92-.61,1.92-1.51s-.59-1.42-1.67-1.44a5.38,5.38,0,0,0-1.1.07Z" transform="translate(2.5)"/><path class="cls-8" d="M148.2,27.56h-4.36v2.23h4.88v2.67h-8.14V20.32h7.89V23h-4.63v2h4.36Z" transform="translate(2.5)"/><path class="cls-8" d="M158.14,27.56h-4.36v2.23h4.88v2.67h-8.14V20.32h7.89V23h-4.63v2h4.36Z" transform="translate(2.5)"/><path class="cls-8" d="M160.46,32.46V20.32h3.83l1.93,3.73a37,37,0,0,1,1.91,4.25h.05a45.9,45.9,0,0,1-.25-5.11V20.32h3V32.46h-3.42l-2-4A43.49,43.49,0,0,1,163.37,24h-.05c.07,1.64.11,3.48.11,5.44v3Z" transform="translate(2.5)"/></g><g id="eye"><ellipse class="cls-9" cx="205.03" cy="24.9" rx="15" ry="14.79"/><path class="cls-10" d="M203,20.87A4.15,4.15,0,1,0,207.16,25,4.15,4.15,0,0,0,203,20.87Z" transform="translate(2.5)"/><path class="cls-10" d="M203,16.72c-6.92,0-12.45,8.3-12.45,8.3s5.53,8.29,12.45,8.29S215.46,25,215.46,25,209.93,16.72,203,16.72Zm0,13.83c-3.52,0-7-3.23-9-5.53,1.95-2.31,5.45-5.54,9-5.54s7,3.23,9,5.54C210,27.33,206.53,30.55,203,30.55Z" transform="translate(2.5)"/></g></g></g></g></g></svg>