<svg xmlns="http://www.w3.org/2000/svg" viewBox="0 0 694.21 121.66"><defs><style>.cls-1{stroke:#000;stroke-miterlimit:10;}</style></defs><g id="Layer_2" data-name="Layer 2"><g id="positions_assigned" data-name="positions assigned"><path class="cls-1" d="M52.6,54.13c-5.72-2-11.93.29-17.17,2.52-1.26.68-2.62,1.36-4.07,2.13a54,54,0,0,1-10,11.06c-1.07.68-2.43,1.94-3.79,1.17-.77-.59-.39-1.65.1-2.33,2.13-2.72,6.21-6.11,10.86-9a41.8,41.8,0,0,0,4.37-8.93c1.55-5.82-4.56-.19-5.92,1.55C15.25,67.42,9.24,87.11,4.78,105.54c-.29,1.45-.58,3-.87,4.46a1.78,1.78,0,0,1-2,1.36,1.81,1.81,0,0,1-1.36-1.94C2,98.36,3.52,87.3,5.07,76.24s3.3-22.11,5.14-33.17a1.67,1.67,0,1,1,3.3.48c-2.14,13.1-4.08,26.2-5.92,39.39,4.95-14.26,12-28.52,20.76-35.89a6.59,6.59,0,0,1,3.78-1.55,3.42,3.42,0,0,1,3.69,3.29c-.1,2.62-1.36,4.85-2.52,7-.39.68-.78,1.26-1.17,1.84,7.37-4,15.62-6.5,20.86-4.56A.57.57,0,1,1,52.6,54.13ZM27.77,60.92c-3.88,2.52-7.67,5.43-9.8,8.63-.1.2-.19.49,0,.68.78.68,2.23-.68,2.91-1.16A49.69,49.69,0,0,0,27.77,60.92Z"/><path class="cls-1" d="M97.22,54c-4.08,3-8.93,4.75-13.78,6.11A67.2,67.2,0,0,1,74.52,62C71,69.45,64.82,76.15,59.87,76.54,54,76.92,53.28,69.26,54.25,65A15.37,15.37,0,0,1,56,60.14a6.76,6.76,0,0,1-1.65-1.26c-3.1-2.91-2.32-8.05.39-11,4.46-5,13-7.86,19.11-4.07,4.85,3.1,4.08,10.67.87,17.65,8.64-1.26,17.46-4.75,21.64-8.44C97,52.48,97.9,53.55,97.22,54ZM56.58,59.27a10.23,10.23,0,0,1,2.52-2.52,8,8,0,0,1,5.14-1.46,1.71,1.71,0,0,1-.29,3.4,5.37,5.37,0,0,0-4.27,2.23A28.9,28.9,0,0,0,70.83,62c2.53-4.55,4.18-9.6,3.11-13.19a4.71,4.71,0,0,0-1.75-2.42c-3.49-2.62-8.92-1.36-12.61.77C55.22,49.47,52.21,55.49,56.58,59.27Zm14,3.2a41,41,0,0,1-10.28-.68c-.29-.1-.68-.19-1-.29a13.45,13.45,0,0,0-1.55,9.7c.29.87.58,1.75,1.55,1.84a6.75,6.75,0,0,0,4.17-1.84C65.6,69.65,68.41,66.25,70.54,62.47Z"/><path class="cls-1" d="M138,54.32a11.81,11.81,0,0,0-3.69.68c-8.53,2.81-16.39,7.66-23.57,13a54.87,54.87,0,0,0-7.37,6.5c.78,1.36,1.75,2.71,2.62,4.07,1.55,2.62,4,5.24,4.46,8.44a2.22,2.22,0,0,1-1.55,2.33c-2.23.77-4.37-.1-6.5-.78-2.23-.87-4.46-2.62-4.66-5.24,0-2.42,1.36-5.14,3.59-7.85a53.34,53.34,0,0,1-4.46-7.57c-3-6.3-3-13,1.94-18.43a29.34,29.34,0,0,1,16.88-8.92c2.71-.2,4.85,1.55,3.49,4.27-.87,1.55-2.23,2.91-2.62,4.46a1.68,1.68,0,1,1-3.3-.68c.39-1.84,1.56-3.2,2.43-4.75-2.33.09-6,1.74-7.76,2.61C101.58,49.57,96,55.29,97.8,62.86a37.69,37.69,0,0,0,5,10.86c7.56-8,21.34-15.91,27.45-18.53,2.52-1.06,5-2.23,7.66-2.32A.73.73,0,1,1,138,54.32ZM101.78,76.24c-4.08,5.14-5.43,10.58,4.65,12.13,1,0,2.82,0,2.52-1.36A11.19,11.19,0,0,0,107,83.32C105.37,80.9,103.52,78.57,101.78,76.24Z"/><path class="cls-1" d="M164.15,53.84C159.3,60.72,150,72.46,141.84,75c-14.46,3.3-5.34-25.51.09-30.36a1.75,1.75,0,0,1,2.72.29c.58,1,.29,2.14.19,3.11a4.67,4.67,0,0,1-.19,1.06,1.4,1.4,0,0,1-.1,1.36,1.72,1.72,0,0,1-3.1.1c-.58,1-1.07,2-1.55,3-4.66,10.08-7.47,28.42,8.73,15.61A67.84,67.84,0,0,0,157.84,60a73.22,73.22,0,0,0,5.34-6.88C163.66,52.58,164.63,53.25,164.15,53.84ZM143.58,32.69c1.26-2.42,2.52-3.1,3.88-2.42s2.33,2.42,1.17,4.85-1.26,6.11-2.62,5.33C143.49,39,142.22,35,143.58,32.69Z"/><path class="cls-1" d="M214.59,32.69a.53.53,0,0,1-.49.49c-5.43-.49-10.86-.49-16.39-.49-9,.19-18.14.39-27.26.87-.87,2.62-1.55,5.24-2.33,7.86-2.71,10-4.94,20.27-5.53,30.75-.19,4.66-.48,10.86,2.33,14.74a3.4,3.4,0,0,0,4.46,1.17c8.44-4.27,17.66-25.51,20.08-34.73a.85.85,0,0,1,1.65.39,129.47,129.47,0,0,1-6.21,14.65c-2.81,5.53-13.38,28-21,19.4-6.6-8.83-.59-36.38,1.94-46.95.58-2.43,1.26-4.75,1.84-7.08-4.85.29-9.8.68-14.65,1.16-.39.1-.68.1-1.07.2a1.66,1.66,0,0,1-1.94,1c-.29-.1-.67-.2-.87-.3a1.88,1.88,0,0,1,.39-3.58,43.83,43.83,0,0,1,7.27-.78c3.88-.19,7.76-.29,11.64-.39,1.27-4.36,2.72-8.73,4.27-13,1-2.52,1.94-4.94,3-7.37A1.78,1.78,0,0,1,178,9.8a1.66,1.66,0,0,1,.77,2.33,144,144,0,0,0-7.56,18.81c8.82-.09,17.75,0,26.58.2,5.43.19,10.86.39,16.39,1.07A.44.44,0,0,1,214.59,32.69Z"/><path class="cls-1" d="M216.62,53.84c-4.85,6.88-14.16,18.62-22.31,21.14-14.45,3.3-5.33-25.51.1-30.36a1.75,1.75,0,0,1,2.72.29c.58,1,.29,2.14.19,3.11a5.3,5.3,0,0,1-.19,1.06,1.4,1.4,0,0,1-.1,1.36,1.72,1.72,0,0,1-3.11.1c-.58,1-1.06,2-1.55,3C187.72,63.63,184.9,82,201.1,69.16A67.92,67.92,0,0,0,210.32,60a73.12,73.12,0,0,0,5.33-6.88C216.14,52.58,217.11,53.25,216.62,53.84ZM196.06,32.69c1.26-2.42,2.52-3.1,3.88-2.42s2.33,2.42,1.16,4.85-1.26,6.11-2.62,5.33C196,39,194.7,35,196.06,32.69Z"/><path class="cls-1" d="M307.8,53.84a84.93,84.93,0,0,1-7.56,11.54c-3.11,3.69-7.76,9.12-13.2,8.54-5-.49-5.72-6.5-6.2-10.48-.3-2.52-.3-8.54-3.59-8.83-4.66-.19-12.81,14.16-16.11,17.85-1.16,1.26-2,2.62-3.68,3.4a2.24,2.24,0,0,1-2.91-1.07,5.63,5.63,0,0,1-.1-4c1.17-3.88,3.2-7.47,4.85-11.15,1.26-2.53,4.95-10.29,4.08-14-2.14-8.15-20.28-3.2-33.47,2a5.14,5.14,0,0,1-.58.77c-.1.2-.2.29-.29.49,2.71-.49,5.43-.39,7.76,1.16,5.43,3.78,2.91,11.54.29,16.2-2.52,4.27-5.82,8.24-10.28,10.48-3.69,1.84-7.86.87-9.8-3-1.46-3.3-.49-7,.68-10.19a35.44,35.44,0,0,1,1.84-4.46c1.17-2.52,2.52-4.85,3.88-7.18l-2.71.88c-.78.29-2.62.87-3.4,1.16-.48.1-.87.39-1.45.2a.78.78,0,0,1-.49-.59,1.27,1.27,0,0,1,.78-1.06,33.84,33.84,0,0,1,3.78-1.94c1.94-.88,3.88-1.75,5.82-2.53a15.86,15.86,0,0,0,.87-1.35,35.14,35.14,0,0,0,1.75-3.21,1.75,1.75,0,0,1,3.2-1c.58,1,.1,1.94-.29,2.82a3.3,3.3,0,0,1-.49.77c.78-.29,1.56-.48,2.33-.77,6.5-2.14,27.84-9.41,30.75.19,1.07,3.59-2,11.45-3.2,14.65a80.9,80.9,0,0,0-3.49,11.15,5,5,0,0,0-.1,1.17c.58-.58,1.16-1.26,1.75-1.94,1.16-1.46,2.91-3.88,4.07-5.43,3.1-4,7.57-10.58,12.22-12.61a5.67,5.67,0,0,1,4.37.29c3.3,2.13,3.1,7,3.59,10.38.29,2.71.29,6.88,2.91,8.34a5.87,5.87,0,0,0,5.62-.68c6.6-4.08,11-11.25,14.94-17.75A.72.72,0,0,1,307.8,53.84Zm-79.93-3a107.47,107.47,0,0,0-5.72,9.7c-.68,1.36-1.26,2.72-1.84,4.07-1.26,3.4-2.62,8.93,1.74,10.48,3.88.87,8.15-3.3,10.58-6,2.71-3.5,5.23-7.57,5.53-12,.29-4-2.53-6.6-6.31-6.7A18.68,18.68,0,0,0,227.87,50.83Zm-3.2-.87a1.47,1.47,0,0,1-.58.19c.19,0,.29-.1.49-.1C224.58,50,224.58,50,224.67,50Z"/><path class="cls-1" d="M348.06,54.32a11.71,11.71,0,0,0-3.69.68c-8.54,2.81-16.39,7.66-23.57,13a54.27,54.27,0,0,0-7.37,6.5c.77,1.36,1.74,2.71,2.62,4.07,1.55,2.62,4,5.24,4.46,8.44A2.23,2.23,0,0,1,319,89.34c-2.24.77-4.37-.1-6.5-.78-2.23-.87-4.47-2.62-4.66-5.24,0-2.42,1.36-5.14,3.59-7.85a53.34,53.34,0,0,1-4.46-7.57c-3-6.3-3-13,1.94-18.43a29.31,29.31,0,0,1,16.88-8.92c2.71-.2,4.85,1.55,3.49,4.27-.88,1.55-2.23,2.91-2.62,4.46a1.68,1.68,0,1,1-3.3-.68c.39-1.84,1.55-3.2,2.43-4.75-2.33.09-6,1.74-7.76,2.61-6.31,3.11-11.94,8.83-10.09,16.4a37.93,37.93,0,0,0,4.94,10.86c7.57-8,21.34-15.91,27.46-18.53,2.52-1.06,4.94-2.23,7.66-2.32A.73.73,0,1,1,348.06,54.32ZM311.87,76.24c-4.07,5.14-5.43,10.58,4.66,12.13,1,0,2.81,0,2.52-1.36a11.19,11.19,0,0,0-1.94-3.69C315.46,80.9,313.62,78.57,311.87,76.24Z"/><path class="cls-1" d="M418.38,53.84a89.29,89.29,0,0,1-5.72,8.53c-3.2,4-12.23,15.91-17.85,12-3.11-2.62-3.11-8.54-2.23-14A91.57,91.57,0,0,1,380.16,74c-1.94,1.46-4.46,3.4-7.08,2.43a5.33,5.33,0,0,1-2.91-4.17,16.55,16.55,0,0,1,1.16-7.86c2.72-7.37,8-16,15-19.79a7.37,7.37,0,0,1,10.38,3.3,1.72,1.72,0,0,1-3,1.65c-5.53-10.67-23.08,16.1-19.88,22.89a1.56,1.56,0,0,0,1.84.87c3.69-1.26,10.86-11,13.48-14.06l2.91-3.78L395,51.7a1.72,1.72,0,0,1,2.43-.29,1.66,1.66,0,0,1,.48,2.14,27.46,27.46,0,0,0-2.52,5.91,28.4,28.4,0,0,0-1.16,6.4c-.2,2.43-.29,5.44,1.55,7.18,5.33,3.69,17.26-12.7,19.69-16.88a28.23,28.23,0,0,0,1.55-3A.76.76,0,0,1,418.38,53.84Z"/><path class="cls-1" d="M458.44,54.32a11.81,11.81,0,0,0-3.69.68c-8.53,2.81-16.39,7.66-23.57,13a54.87,54.87,0,0,0-7.37,6.5c.78,1.36,1.75,2.71,2.62,4.07,1.55,2.62,4,5.24,4.46,8.44a2.22,2.22,0,0,1-1.55,2.33c-2.23.77-4.36-.1-6.5-.78-2.23-.87-4.46-2.62-4.65-5.24,0-2.42,1.35-5.14,3.58-7.85a54.31,54.31,0,0,1-4.46-7.57c-3-6.3-3-13,1.94-18.43a29.34,29.34,0,0,1,16.88-8.92c2.72-.2,4.85,1.55,3.49,4.27-.87,1.55-2.23,2.91-2.62,4.46a1.68,1.68,0,1,1-3.29-.68c.38-1.84,1.55-3.2,2.42-4.75-2.33.09-6,1.74-7.76,2.61-6.3,3.11-11.93,8.83-10.09,16.4a38,38,0,0,0,5,10.86c7.57-8,21.34-15.91,27.45-18.53,2.52-1.06,4.95-2.23,7.66-2.32A.73.73,0,1,1,458.44,54.32ZM422.26,76.24c-4.07,5.14-5.43,10.58,4.66,12.13,1,0,2.81,0,2.52-1.36a11.38,11.38,0,0,0-1.94-3.69C425.85,80.9,424,78.57,422.26,76.24Z"/><path class="cls-1" d="M499.28,54.32a11.81,11.81,0,0,0-3.69.68c-8.53,2.81-16.39,7.66-23.57,13a54.87,54.87,0,0,0-7.37,6.5c.77,1.36,1.74,2.71,2.62,4.07,1.55,2.62,4,5.24,4.46,8.44a2.22,2.22,0,0,1-1.55,2.33c-2.23.77-4.37-.1-6.5-.78-2.23-.87-4.46-2.62-4.66-5.24,0-2.42,1.36-5.14,3.59-7.85a53.34,53.34,0,0,1-4.46-7.57c-3-6.3-3-13,1.94-18.43A29.34,29.34,0,0,1,477,40.55c2.71-.2,4.85,1.55,3.49,4.27-.87,1.55-2.23,2.91-2.62,4.46a1.68,1.68,0,1,1-3.3-.68c.39-1.84,1.55-3.2,2.43-4.75-2.33.09-6,1.74-7.76,2.61-6.31,3.11-11.93,8.83-10.09,16.4a37.69,37.69,0,0,0,4.95,10.86c7.56-8,21.34-15.91,27.45-18.53,2.52-1.06,4.94-2.23,7.66-2.32A.73.73,0,1,1,499.28,54.32ZM463.1,76.24c-4.08,5.14-5.44,10.58,4.65,12.13,1,0,2.81,0,2.52-1.36a11.19,11.19,0,0,0-1.94-3.69C466.68,80.9,464.84,78.57,463.1,76.24Z"/><path class="cls-1" d="M525.47,53.84C520.62,60.72,511.3,72.46,503.16,75c-14.46,3.3-5.34-25.51.09-30.36a1.75,1.75,0,0,1,2.72.29c.58,1,.29,2.14.19,3.11a4.67,4.67,0,0,1-.19,1.06,1.4,1.4,0,0,1-.1,1.36,1.72,1.72,0,0,1-3.1.1c-.58,1-1.07,2-1.55,3C496.56,63.63,493.75,82,510,69.16A67.84,67.84,0,0,0,519.16,60a73.22,73.22,0,0,0,5.34-6.88C525,52.58,526,53.25,525.47,53.84ZM504.9,32.69c1.26-2.42,2.52-3.1,3.88-2.42s2.33,2.42,1.17,4.85-1.27,6.11-2.62,5.33C504.81,39,503.54,35,504.9,32.69Z"/><path class="cls-1" d="M577.17,54.61a61.32,61.32,0,0,0-18.34.39,155,155,0,0,1-3,17c-3.79,14.74-8.73,31.13-18.73,43-3.88,4.56-10.28,8.34-16,4.85-7.66-5-6.5-17.66-4.46-25.32A56.6,56.6,0,0,1,543.8,59.66a54.67,54.67,0,0,1,13.38-5.24A75.06,75.06,0,0,0,557.67,44c-.2-3.78-1.55-10.38-6.5-6.4a24.18,24.18,0,0,0-4.46,5.43,24.82,24.82,0,0,1,4.85,4.36A1.69,1.69,0,1,1,549,49.67,20.94,20.94,0,0,0,545,46c-5.62,9.6-11.35,23-17.46,23.67a4.37,4.37,0,0,1-4.75-3.59c-1.26-5.72.77-11.64,3.49-16.69,5-8.63,12.22-10.76,19.11-7.08a23.58,23.58,0,0,1,3.1-4.17c1.75-1.94,4.66-4.36,7.47-2.71,3.69,2.32,3.88,10.38,3,18.62a69,69,0,0,1,18.43-1.55A1.07,1.07,0,1,1,577.17,54.61Zm-20.08.78a61.06,61.06,0,0,0-7.18,2.13,48.34,48.34,0,0,0-14,8.25A50.66,50.66,0,0,0,523.14,82c-4.46,8.82-7.67,21-4.27,30.75,1.45,4.07,4.85,6.59,9.21,5.33,6.79-2.42,11.16-10.28,14.46-16.3C549.23,88.47,555.15,71.3,557.09,55.39ZM543.51,45.11c-3.3-1.75-7-2-10.48.87-4.46,3.78-7,9.6-7.86,15.23-.09,1.65-.38,5.82,1.85,5.92C531.48,66.93,538.17,53.93,543.51,45.11Z"/><path class="cls-1" d="M626.93,53.93c-3.4,5.92-7.18,11.84-12.32,16.49a15.91,15.91,0,0,1-4.56,2.91c-2.33,1.07-5.53.88-7.37-1.16-3.79-4.36-1.75-11.54-4.37-16.3-2.33-3.29-5.92.88-7.76,2.82-3,3.39-5.53,7.17-8.15,10.76-1.65,2.14-3.59,5.63-6.21,6.5a2.35,2.35,0,0,1-2.71-1.36c-2.43-4.55.87-13.77,2.33-18.43.77-2.23,1.55-4.36,2.52-6.49a1.69,1.69,0,1,1,3.1,1.35c-1.94,4.37-7.08,17.08-5.53,21.83,5.63-4.66,17.08-28,24.45-18.24,2,3.69,1.45,8,2.23,12,.39,2.72,1.55,5.63,4.65,5.43,7.09-.48,15-13.09,18.43-18.91a.77.77,0,0,1,1-.2A.76.76,0,0,1,626.93,53.93Z"/><path class="cls-1" d="M657.38,53.93a85.44,85.44,0,0,1-11.93,14.55c-3.88,3.59-8.44,7.18-14,7.76-10.28.3-11.15-10.38-8.24-17.94,2.23-6,6.31-12.61,12.8-14.45,4.37-1,8.25,1.06,5.73,5.82a19.68,19.68,0,0,1-8.54,8,11.53,11.53,0,0,1-7,1.35,1.28,1.28,0,0,1-.58-.19c-2,5.14-2.43,10.57.67,13.68,9.51,7.37,25.13-12.32,30-19.4a.63.63,0,0,1,.87-.2A.75.75,0,0,1,657.38,53.93Zm-30.26,1.85c3.39.29,6.89-1.94,9.41-4.27a12.11,12.11,0,0,0,2.91-4.08.63.63,0,0,0-.49-.77,7.54,7.54,0,0,0-4.75,1C631.78,49,629.06,52.09,627.12,55.78Z"/><path class="cls-1" d="M693.56,2.81c-5.33,15.62-10.08,31.53-14.25,47.53-3.11,12-6.12,24.16-7.09,36.48-.19,3-.58,6.11.49,8.82,2.62-.68,3.2,2.53,1.65,3-5.63,1.84-5.05-5.53-4.66-8.92,1.85-14.36,5.24-26.19,8.34-39a2,2,0,0,1-2.42-.48c-3.11,6.5-8,17.94-14.55,21.34-3.3,1.65-7.28-.49-8.34-3.88-1.75-5.43.68-11.25,3.78-15.72,3.78-5.62,10.86-10,17.65-6.69,6.11-14.26,11.16-28.91,16.2-43.55A1.85,1.85,0,0,1,692.69.58,1.67,1.67,0,0,1,693.56,2.81ZM672.81,48.4c-8.73-3.88-16.69,7.47-17.27,15.14-.1,2,.39,4.46,2.43,5.14,3.88.58,8.53-8.05,10.28-11.06S671.35,51.51,672.81,48.4Zm9-12.7c-1.56,3.78-3.11,7.56-4.76,11.35.49.48,1.17.77,1.46,1.35C679.6,44.14,680.66,39.87,681.83,35.7Z"/></g></g></svg>