<svg xmlns="http://www.w3.org/2000/svg" viewBox="0 0 47.88 47.88"><defs><style>.cls-1{fill:#003970;}.cls-2{fill:#fffff8;}</style></defs><g id="Layer_2" data-name="Layer 2"><g id="base_credits_logo" data-name="base, credits &amp; logo"><g id="animation_on_hover" data-name="animation on hover"><circle class="cls-1" cx="23.94" cy="23.94" r="23.94"/><circle class="cls-2" cx="23.94" cy="23.94" r="21.02"/><path class="cls-1" d="M33.25,13.77A3.21,3.21,0,1,0,30,17,3.21,3.21,0,0,0,33.25,13.77Z"/><path class="cls-1" d="M38,12.59a1.81,1.81,0,0,0-2.33.88l-2.1,4.65L20.43,17a2.69,2.69,0,0,0-2.68,1.58l-2.34,5.17a1.76,1.76,0,0,0,.88,2.33,1.78,1.78,0,0,0,2.32-.88l2.1-4.64,3.1.25L16.29,37.49a2.43,2.43,0,0,0,1.21,3.22,2.49,2.49,0,0,0,1,.21,2.43,2.43,0,0,0,2.22-1.43l4.1-9.07,2.8,1.26-1.68,3.71a2.4,2.4,0,0,0-.06,1.86,2.44,2.44,0,0,0,1.28,1.36,2.42,2.42,0,0,0,3.22-1.21l2.26-5a3.45,3.45,0,0,0-1.72-4.56L27.4,26.24l2.22-4.92,4.26.36a2.7,2.7,0,0,0,2.68-1.58l2.34-5.17A1.77,1.77,0,0,0,38,12.59Z"/><path class="cls-1" d="M24,12.23a.35.35,0,0,0,.34-.35.34.34,0,0,0-.34-.34H21.35a.34.34,0,0,0-.34.34.35.35,0,0,0,.34.35Z"/><path class="cls-1" d="M17.94,14.42a.34.34,0,0,0,.35.34h5.42a.35.35,0,0,0,.35-.34.35.35,0,0,0-.35-.35H18.29A.35.35,0,0,0,17.94,14.42Z"/></g></g></g></svg>