<svg xmlns="http://www.w3.org/2000/svg" viewBox="0 0 234 54"><defs><style>.cls-1{fill:none;stroke:#f16522;stroke-miterlimit:10;stroke-width:4px;}.cls-2{fill:#f16522;}</style></defs><g id="Layer_2" data-name="Layer 2"><g id="choice"><g id="pre-baked"><path id="BG" class="cls-1" d="M207,2H27a25,25,0,0,0,0,50H207a25,25,0,0,0,0-50Z"/><path class="cls-2" d="M219.89,26.84a15,15,0,1,0-15,14.8A14.9,14.9,0,0,0,219.89,26.84Zm-16.37,6.9a1.75,1.75,0,0,1,0-2.5l2.61-2.55h-6.92a1.8,1.8,0,0,1-1.82-1.79v-.12A1.8,1.8,0,0,1,199.21,25h6.9l-2.59-2.53a1.74,1.74,0,0,1,0-2.49,1.83,1.83,0,0,1,2.55,0l5.77,5.64a1.74,1.74,0,0,1,0,2.49l-5.77,5.64A1.83,1.83,0,0,1,203.52,33.74Z"/></g></g></g></svg>