<svg xmlns="http://www.w3.org/2000/svg" viewBox="0 0 51.48 47"><defs><style>.cls-1{fill:#003970;}</style></defs><g id="Layer_2" data-name="Layer 2"><g id="base_credits_logo" data-name="base, credits &amp; logo"><g id="menu_icon" data-name="menu icon"><rect class="cls-1" x="16.79" y="8.95" width="28.35" height="5.37"/><rect class="cls-1" x="6.71" y="8.95" width="6.34" height="5.37"/><rect class="cls-1" x="16.79" y="19.02" width="28.35" height="5.37"/><rect class="cls-1" x="6.71" y="19.02" width="6.34" height="5.37"/><rect class="cls-1" x="16.79" y="30.77" width="28.35" height="5.37"/><rect class="cls-1" x="6.71" y="30.77" width="6.34" height="5.37"/><path class="cls-1" d="M3.36,0H48.12c1.12,0,1.68,0,2.24.56A4.25,4.25,0,0,1,51.48,2.8V44.2a4.25,4.25,0,0,1-1.12,2.24c-.56.56-1.12.56-2.24.56H3.36c-1.12,0-1.68,0-2.24-.56A4.25,4.25,0,0,1,0,44.2V2.8A4.25,4.25,0,0,1,1.12.56C1.68,0,2.24,0,3.36,0ZM48.12,1.68H2.24A1.73,1.73,0,0,0,1.68,2.8V44.2a1.73,1.73,0,0,0,.56,1.12h47a1.73,1.73,0,0,0,.56-1.12V2.8a1.73,1.73,0,0,0-.56-1.12Z"/></g></g></g></svg>