<svg xmlns="http://www.w3.org/2000/svg" viewBox="0 0 53.02 48.41"><defs><style>.cls-1,.cls-2{fill:#003970;}.cls-1{fill-rule:evenodd;}</style></defs><g id="Layer_2" data-name="Layer 2"><g id="base_credits_logo" data-name="base, credits &amp; logo"><g id="menu_icon" data-name="menu icon"><path class="cls-1" d="M18.41,9.82c-1.7-.32,28.35-.32,26.65,0,1.7-.32,1.7,5.37,0,5,1.7.32-28.35.32-26.65,0C16.71,15.19,16.71,9.5,18.41,9.82Z"/><path class="cls-1" d="M7.68,9.82c-.38-.32,6.33-.32,6,0,.38-.32.38,5.37,0,5,.38.32-6.33.32-6,0C7.3,15.19,7.3,9.5,7.68,9.82Z"/><path class="cls-1" d="M18.41,19.89c-1.7-.32,28.35-.32,26.65,0,1.7-.32,1.7,5.37,0,5.05,1.7.32-28.35.32-26.65,0C16.71,25.26,16.71,19.57,18.41,19.89Z"/><path class="cls-1" d="M7.68,19.89c-.38-.32,6.33-.32,6,0,.38-.32.38,5.37,0,5.05.38.32-6.33.32-6,0C7.3,25.26,7.3,19.57,7.68,19.89Z"/><path class="cls-1" d="M18.41,31.64c-1.7-.32,28.35-.32,26.65,0,1.7-.32,1.7,5.37,0,5,1.7.32-28.35.32-26.65,0C16.71,37,16.71,31.32,18.41,31.64Z"/><ellipse class="cls-2" cx="10.66" cy="34.16" rx="6.6" ry="2.83"/><path class="cls-2" d="M5.47,2.11C2.79-.71,50.23-.71,47.55,2.11c3.87-2.82,4.46-2.82,2.1.53,3.55-2.16,4.14-1,1.05,2.1,3.09-2.48,3.09,41.41,0,38.93,3.09,3.07,2.5,4.26-1.05,2.1,2.36,3.34,1.77,3.34-2.1.52,2.68,2.82-44.76,2.82-42.08,0C1.6,49.11,1,49.11,3.37,45.77c-3.55,2.16-4.14,1-1.05-2.1C-.77,46.15-.77,2.26,2.32,4.74-.77,1.67-.18.48,3.37,2.64,1-.71,1.6-.71,5.47,2.11ZM47.55,3.69c2.68-2.62-44.76-2.62-42.08,0-3.28-2.62-3.87-2.62-1,0C1,1.67,1,2.26,3.89,4.74,1,2.26,1,46.15,3.89,43.67c-2.88,2.48-2.88,3.07.53,1-2.82,2.62-2.23,2.62,1,0-2.68,2.62,44.76,2.62,42.08,0,3.28,2.62,3.87,2.62,1.05,0,3.41,2,3.41,1.43.53-1C52,46.15,52,2.26,49.13,4.74,52,2.26,52,1.67,48.6,3.69,51.42,1.07,50.83,1.07,47.55,3.69Z"/></g></g></g></svg>