<svg xmlns="http://www.w3.org/2000/svg" viewBox="0 0 323.16 79.94"><defs><style>.cls-1{fill:none;stroke:#003970;stroke-miterlimit:10;stroke-width:4px;}.cls-2{fill:#003970;}</style></defs><g id="Layer_2" data-name="Layer 2"><g id="choice"><g id="pre-baked_hover" data-name="pre-baked hover"><path id="BG" class="cls-1" d="M296.31,27.37h-180a25,25,0,0,0,0,50h180a25,25,0,0,0,0-50Z" transform="translate(-0.14)"/><path class="cls-2" d="M309.2,52.21A15,15,0,1,0,294.2,67,14.9,14.9,0,0,0,309.2,52.21ZM292.82,59.1a1.74,1.74,0,0,1,0-2.49l2.62-2.55h-6.93a1.8,1.8,0,0,1-1.81-1.79v-.12a1.8,1.8,0,0,1,1.81-1.79h6.91l-2.6-2.53a1.74,1.74,0,0,1,0-2.49,1.84,1.84,0,0,1,2.56,0L301.15,51a1.75,1.75,0,0,1,0,2.5l-5.77,5.63A1.84,1.84,0,0,1,292.82,59.1Z" transform="translate(-0.14)"/><g id="pre-baked_label_in_outlines" data-name="pre-baked label in outlines"><path class="cls-2" d="M121.33,47.26A22.83,22.83,0,0,1,125,47a5.8,5.8,0,0,1,3.71,1,3.52,3.52,0,0,1,1.3,2.8,3.91,3.91,0,0,1-1.12,2.89A5.62,5.62,0,0,1,125,55a8.33,8.33,0,0,1-.94-.05v4.34h-2.71ZM124,52.77a3.87,3.87,0,0,0,.92.08c1.46,0,2.36-.74,2.36-2s-.77-1.79-2.14-1.79a4.92,4.92,0,0,0-1.14.11Z" transform="translate(-0.14)"/><path class="cls-2" d="M131.78,47.26a24.84,24.84,0,0,1,3.66-.25,6.13,6.13,0,0,1,3.92,1,3.07,3.07,0,0,1,1.12,2.54,3.21,3.21,0,0,1-2.14,3v.06A3.08,3.08,0,0,1,140,55.82a35.2,35.2,0,0,0,1,3.42h-2.81a14.78,14.78,0,0,1-.85-2.83c-.32-1.51-.84-1.93-2-1.94h-.83v4.77h-2.72Zm2.72,5.23h1.08c1.37,0,2.18-.69,2.18-1.75s-.75-1.67-2-1.69a6.52,6.52,0,0,0-1.24.09Z" transform="translate(-0.14)"/><path class="cls-2" d="M149.68,54.11h-4.47V57h5v2.25h-7.74V47.1H150v2.25h-4.74v2.52h4.47Z" transform="translate(-0.14)"/><path class="cls-2" d="M156.14,52.25v1.82h-4.72V52.25Z" transform="translate(-0.14)"/><path class="cls-2" d="M157.87,47.26a22.26,22.26,0,0,1,3.54-.25,6.75,6.75,0,0,1,3.59.69,2.64,2.64,0,0,1,1.45,2.37,2.76,2.76,0,0,1-2,2.6v0a3,3,0,0,1,2.41,3,3.27,3.27,0,0,1-1.26,2.58c-.88.7-2.36,1.09-4.77,1.09a21.2,21.2,0,0,1-3-.18Zm2.71,4.65h.9c1.45,0,2.22-.59,2.22-1.49S163,49,161.75,49a8.57,8.57,0,0,0-1.17.07Zm0,5.38a7.91,7.91,0,0,0,1.07,0c1.24,0,2.34-.47,2.34-1.75s-1.1-1.71-2.47-1.71h-.94Z" transform="translate(-0.14)"/><path class="cls-2" d="M171.49,56.12l-.86,3.12h-2.85l3.71-12.14h3.6l3.77,12.14h-3L175,56.12Zm3.08-2-.76-2.57c-.21-.72-.43-1.62-.61-2.34h0c-.18.72-.36,1.63-.56,2.34l-.72,2.57Z" transform="translate(-0.14)"/><path class="cls-2" d="M180.47,47.1h2.72v5.37h.06c.27-.47.55-.9.82-1.33l2.76-4h3.37l-4,5.17,4.23,7h-3.2l-3-5.24-1.05,1.28v4h-2.72Z" transform="translate(-0.14)"/><path class="cls-2" d="M198.74,54.11h-4.46V57h5v2.25h-7.75V47.1H199v2.25h-4.74v2.52h4.46Z" transform="translate(-0.14)"/><path class="cls-2" d="M201.14,47.26a24.69,24.69,0,0,1,3.71-.25,7.85,7.85,0,0,1,5,1.3,5.37,5.37,0,0,1,2.05,4.57,6.16,6.16,0,0,1-2,4.92,8.72,8.72,0,0,1-5.6,1.56,23.66,23.66,0,0,1-3.11-.18Zm2.75,9.91a5.51,5.51,0,0,0,1,0c2.48,0,4.1-1.35,4.1-4.25a3.48,3.48,0,0,0-3.82-3.85,5.34,5.34,0,0,0-1.24.11Z" transform="translate(-0.14)"/><path class="cls-2" d="M227.44,58.68a13.57,13.57,0,0,1-4.05.68,6.78,6.78,0,0,1-4.94-1.63,5.94,5.94,0,0,1-1.71-4.42c0-4,3-6.33,6.94-6.33a8.31,8.31,0,0,1,3.36.59l-.57,2.2a6.74,6.74,0,0,0-2.83-.52,3.67,3.67,0,0,0-4,3.92,3.65,3.65,0,0,0,3.82,4,3.61,3.61,0,0,0,1.35-.18V54.43h-1.87V52.29h4.52Z" transform="translate(-0.14)"/><path class="cls-2" d="M232.4,56.12l-.86,3.12h-2.85L232.4,47.1H236l3.77,12.14h-3l-.93-3.12Zm3.08-2-.75-2.57c-.22-.72-.44-1.62-.62-2.34h0c-.18.72-.36,1.63-.56,2.34l-.72,2.57Z" transform="translate(-0.14)"/><path class="cls-2" d="M251.65,54.59c-.06-1.45-.11-3.22-.11-5h-.06c-.37,1.54-.88,3.27-1.34,4.69L248.66,59h-2.14l-1.3-4.7c-.4-1.42-.81-3.15-1.1-4.73h0c-.07,1.63-.12,3.51-.21,5l-.22,4.61h-2.54l.78-12.14h3.65l1.19,4c.38,1.41.76,2.92,1,4.34h.05c.34-1.4.76-3,1.15-4.35l1.3-4h3.58l.67,12.14h-2.68Z" transform="translate(-0.14)"/><path class="cls-2" d="M263.83,54.11h-4.46V57h5v2.25h-7.74V47.1h7.49v2.25h-4.73v2.52h4.46Z" transform="translate(-0.14)"/></g></g><g id="pre-baked_icon" data-name="pre-baked icon"><path class="cls-2" d="M14.49,59.42c-.64-.58,10,13.65,9.65,12.87,1,1.56,2.08,1.72,2.25.32,1.4.22,1.56-.89.32-2.25.65.57-10-13.65-9.65-12.87-1-1.56-2.07-1.72-2.25-.32C13.42,56.94,13.26,58.06,14.49,59.42Z" transform="translate(-0.14)"/><path class="cls-2" d="M30.91,72.29c1,1.56,2.08,1.72,2.25.32,1.4.22,1.56-.89.33-2.25.64.57-10-13.65-9.65-12.87-1-1.56-2.08-1.72-2.26-.32-1.39-.23-1.55.89-.32,2.25C20.62,58.84,31.28,73.07,30.91,72.29Z" transform="translate(-0.14)"/><path class="cls-2" d="M37.94,72.29c.55,1.7,2,1.74,2.55,0,.27.61,10.66-13.24,9.67-12.89,1.74-1.36,1.58-2.48-.32-2.25.33-1.4-.78-1.24-2.25.32.88-.78-8.36,11.55-8.36,11.15,0,.4-9.25-11.93-8.37-11.15-1.47-1.56-2.58-1.72-2.25-.32-1.9-.23-2.06.89-.32,2.25C27.16,58.87,37.82,73.09,37.94,72.29Z" transform="translate(-0.14)"/><path class="cls-2" d="M52.06,72.61c.17,1.4,1.29,1.24,2.25-.32-.37.78,10.29-13.45,9.65-12.87,1.23-1.36,1.07-2.48-.32-2.25-.18-1.4-1.29-1.24-2.25.32.37-.78-10.3,13.44-9.65,12.87C50.5,71.72,50.66,72.83,52.06,72.61Z" transform="translate(-0.14)"/><path class="cls-2" d="M45.29,72.61c.17,1.4,1.28,1.24,2.25-.32-.37.78,10.29-13.45,9.65-12.87,1.23-1.36,1.07-2.48-.32-2.25-.18-1.4-1.29-1.24-2.25.32C55,56.71,44.32,70.93,45,70.36,43.73,71.72,43.89,72.83,45.29,72.61Z" transform="translate(-0.14)"/><circle class="cls-2" cx="21.87" cy="15.46" r="1.61"/><circle class="cls-2" cx="64.19" cy="7" r="1.61"/><circle class="cls-2" cx="3.24" cy="23.93" r="1.61"/><circle class="cls-2" cx="52.34" cy="13.77" r="1.61"/><path class="cls-2" d="M74.56,45.5c3.82-3.83,1.9-6.49-4.2-6.2,1.63-4.43-2.68-7.69-10.63-8C55.12,26,47,24.28,39.08,27c-7.64-2.68-15.67-1-20.46,4.27-7.5.19-11.74,3.26-10.52,7.61-7-1.15-10,2-6.19,6.66-3.82,2.9-1.2,5.92,5.49,6.58-3.25,0,2.72,19,5.39,17.27-.9,7.45,4.28,11.26,11.68,8.58-1.45,2.68,31.06,2.68,29.42,0,7.59,2.68,12.77-1.13,11.67-8.58,2.87,1.78,9.11-18.16,5.64-18C76.89,49.91,78.38,47.51,74.56,45.5ZM39.12,29.27c7.37-.53,15,1.06,19.33,4.05,6.08,1.69,8.83,3.61,7.65,4.84,1.88.68,1,1.15-2.43,1.26-.11-1.69-4-1.69-8.47,0-1-1.69-4.92-1.69-8.46,0-1.89-1.69-5.82-1.69-8.47,0-2.78-1.69-6.71-1.69-8.47,0-3.67-1.69-7.59-1.69-8.47,0-4.56-1.69-8.48-1.69-8.46,0-3.15.2-3.59-.09-1.19-.78C12.93,34.75,24.48,28.74,39.12,29.27ZM62.54,69c1.14,4.7-2.68,7.51-8.61,6.32,1.55,1.19-31,1.19-29.41,0-5.93,1.19-9.75-1.62-8.61-6.32-2.45.52-8-17.38-5.06-16.2-3-1.18,59.73-1.18,56.75,0C70.58,51.59,65,69.49,62.54,69Zm5.33-20.36c.22.37-59.57.37-59.27,0-5.23.37-7-1.35-3.47-3.47C1.64,43,3.37,41.3,8.6,41.67c-1.84-.37-.64.27,2.89,1.55-2.11.85-.55.86,2.68,0-1-2.49,2.35-2.49,5.79,0-1.22.86.34.86,2.68,0-.12-2.49,3.23-2.49,5.79,0-.33.86,1.23.86,2.68,0,.77-2.49,4.12-2.49,5.79,0a1.71,1.71,0,0,0,2.68,0c1.66-2.49,5-2.49,5.78,0,1.46.86,3,.86,2.68,0,2.56-2.49,5.91-2.49,5.79,0,2.34.86,3.9.86,2.68,0,3.44-2.49,6.8-2.49,5.79,0,3.23.86,4.79.86,2.68,0,3.53-1.28,4.72-1.92,2.89-1.55,5.24-.37,7,1.35,3.47,3.47C74.83,47.26,73.11,49,67.87,48.61Z" transform="translate(-0.14)"/><path class="cls-2" d="M63.22,19.69a4.78,4.78,0,0,0,5.63,5.63,4.77,4.77,0,0,0,5.63-5.63,4.78,4.78,0,0,0-5.63-5.63A4.78,4.78,0,0,0,63.22,19.69Zm5.63-2.41a2.05,2.05,0,0,1,2.42,2.41,2.06,2.06,0,0,1-2.42,2.42,2.05,2.05,0,0,1-2.41-2.42A2,2,0,0,1,68.85,17.28Z" transform="translate(-0.14)"/><path class="cls-2" d="M10.72,15.17a4.78,4.78,0,0,0,5.63-5.63,4.78,4.78,0,0,0-5.63-5.63A4.78,4.78,0,0,0,5.09,9.54,4.78,4.78,0,0,0,10.72,15.17Zm0-8a2.05,2.05,0,0,1,2.41,2.42A2,2,0,0,1,10.72,12,2,2,0,0,1,8.31,9.54,2.05,2.05,0,0,1,10.72,7.12Z" transform="translate(-0.14)"/><path class="cls-2" d="M29.42,16.28c.46,1.48,1.59,1.46,2.28,0,.32.45,3.24-2.67,2.84-5.91A2.64,2.64,0,0,0,33.22,7.5a6.65,6.65,0,0,1-.93-1.71c0-1.45.86-2.63,1-2.43.83-1.27.8-2.39-.06-2.27C32.71-.39,31.58-.36,31,1.15c-.3-.56-2.29,1.61-1.9,4.75a4.41,4.41,0,0,0,2,4,2.34,2.34,0,0,0,.26.55A5.54,5.54,0,0,1,29.38,14C28.45,15.27,28.47,16.4,29.42,16.28Z" transform="translate(-0.14)"/><path class="cls-2" d="M37.89,19.67c.46,1.48,1.58,1.46,2.27,0,.33.45,3.25-2.67,2.85-5.92a2.66,2.66,0,0,0-1.32-2.83,6.18,6.18,0,0,1-.93-1.7c0-1.46.86-2.64,1-2.44.84-1.27.81-2.39-.06-2.26C41.17,3,40.05,3,39.45,4.53c-.31-.55-2.29,1.61-1.91,4.75a4.42,4.42,0,0,0,2,4,5.22,5.22,0,0,0,.26.55,5.53,5.53,0,0,1-1.94,3.57C36.92,18.66,36.94,19.78,37.89,19.67Z" transform="translate(-0.14)"/><path class="cls-2" d="M33.35,35.18c0,.2,1.81-1.57,1.61-1.61a1.3,1.3,0,0,0,0-2.27,1.3,1.3,0,0,0-2.28,0c0-.21-1.81,1.57-1.61,1.61a1.29,1.29,0,0,0,0,2.27A1.3,1.3,0,0,0,33.35,35.18Z" transform="translate(-0.14)"/><path class="cls-2" d="M40.12,35.18c0,.2,1.81-1.57,1.61-1.61a1.29,1.29,0,0,0,0-2.27,1.3,1.3,0,0,0-2.28,0c0-.21-1.81,1.57-1.6,1.61a1.29,1.29,0,0,0,0,2.27A1.29,1.29,0,0,0,40.12,35.18Z" transform="translate(-0.14)"/><path class="cls-2" d="M46.89,35.18c0,.2,1.82-1.57,1.61-1.61a1.29,1.29,0,0,0,0-2.27,1.29,1.29,0,0,0-2.27,0c0-.21-1.82,1.57-1.61,1.61a1.29,1.29,0,0,0,0,2.27A1.29,1.29,0,0,0,46.89,35.18Z" transform="translate(-0.14)"/></g></g></g></svg>