<svg xmlns="http://www.w3.org/2000/svg" viewBox="0 0 524.93 246.96"><defs><style>.cls-1{fill:#fff;}.cls-2{fill:#fdfbfb;}.cls-3{fill:#d7002b;}.cls-4{fill:#030303;}</style></defs><g id="Layer_2" data-name="Layer 2"><g id="base_credits_logo" data-name="base, credits &amp; logo"><g id="Sensorium_York" data-name="Sensorium, York"><g id="Sensorium"><path d="M0,198.36V0H524.52V198.36ZM476.37,77.06a11.3,11.3,0,0,1-1-1.48c-1.15-2.67-2.29-5.36-3.4-8.08-2.6-6.26-5.21-12.52-7.75-18.81A2.1,2.1,0,0,0,462,47.15c-3.54.05-7.08.08-10.61,0-1.62,0-2.08.62-2.08,2.11v69.18c-.08,1.4.45,2.06,2,2,3.05-.09,6.11,0,9.17,0,2.47,0,2.47,0,2.47-2.54V82a22.55,22.55,0,0,1,.22-2.31,3.29,3.29,0,0,1,1.15,1.55c2.14,5.49,4.3,11,6.37,16.5.55,1.47,1.27,2.23,3,2.06a32.34,32.34,0,0,1,5.39,0,2.5,2.5,0,0,0,2.8-1.91c1.28-3.27,2.59-6.54,3.89-9.81l3.15-8,.53.08a20.27,20.27,0,0,1,.24,2.2v35.73c0,1.7.42,2.5,2.33,2.4,2.81-.16,5.63,0,8.45,0s2.94,0,2.94-3V49.12c0-1.44-.49-2-2-2-3.71.08-7.42.08-11.15,0A2.08,2.08,0,0,0,488,48.58q-3.56,8.58-7,17.19Zm-331,5.3.61-.1c.53,1,1.12,2.07,1.58,3.14q7.19,16.75,14.32,33.53A2,2,0,0,0,164,120.4c3.24-.05,6.47,0,9.71,0,2.67,0,2.67,0,2.67-2.66v-69c0-1.13-.43-1.6-1.61-1.58-3.05,0-6.11,0-9.17,0-2.4,0-2.41,0-2.41,2.36V84.21c0,.68-.09,1.36-.16,2.39-.54-.49-.89-.66-1-.93q-7.93-18.48-15.83-37a2.14,2.14,0,0,0-2.27-1.55c-3.3.05-6.6.12-9.89,0-1.87-.09-2.33.57-2.32,2.34.06,12.4,0,24.8,0,37.19v31.44c0,1.82.54,2.41,2.36,2.32,3-.14,6,0,9,0,2.22,0,2.3-.08,2.3-2.36V82.36Zm206.9,37.87a14.35,14.35,0,0,0-.52-1.43Q345.38,105.44,339,92.09c-.51-1.08-.67-1.9.66-2.66a18.52,18.52,0,0,0,7.75-9.3,28.1,28.1,0,0,0,1.72-14.26A21.65,21.65,0,0,0,344.21,54c-3.89-4.61-9.07-6.55-14.87-6.73-7.24-.22-14.5,0-21.75,0-2.92,0-2.92,0-2.92,3v68.6c0,1.2.52,1.68,1.76,1.65,3.05-.06,6.11,0,9.17,0,2.33,0,2.38,0,2.38-2.43V96.53c0-4.56,0-4.61,4.64-4.19a2.73,2.73,0,0,1,1.86,1.27c4,8.42,8,16.89,11.92,25.35a2.42,2.42,0,0,0,2.49,1.59c3.84-.06,7.68,0,11.51,0a7.75,7.75,0,0,1,1.83-.32ZM290.06,84h.18c0-4.85.11-9.7,0-14.55a37.93,37.93,0,0,0-1-7.94A18.44,18.44,0,0,0,280.69,50c-6.3-3.86-13.07-4.15-20.05-2.3A19.86,19.86,0,0,0,246,66.7c-.29,11.31-.36,22.64,0,34,.26,7.51,3.55,13.83,10.35,17.73,5.71,3.27,11.81,3.58,18.2,2.17A19.63,19.63,0,0,0,290,103C290.49,96.69,290.06,90.31,290.06,84ZM76.93,83.73v34.49c0,1.4.24,2.2,2,2.2q19.42-.09,38.85,0c1.46,0,1.92-.62,1.91-1.93v-8.8c0-2.56-.11-2.67-2.6-2.67H92.63c-1.57,0-2.1-.47-2.07-2,.08-4.67,0-9.35,0-14,0-2.39,0-2.4,2.39-2.4h22.31c1.66,0,2.24-.57,2.19-2.19-.07-2.81,0-5.63,0-8.44s-.07-2.78-2.87-2.78H92.64c-1.52,0-2.14-.41-2.09-2,.1-3.47.11-7,0-10.42,0-1.7.58-2.1,2.18-2.08,8.16.07,16.31,0,24.46,0,2.34,0,2.49-.14,2.5-2.4V49.5c0-2.19-.15-2.32-2.37-2.32h-38c-2.36,0-2.37,0-2.37,2.42Q76.93,66.66,76.93,83.73Zm344.44-8.67v25c0,4-1.47,6.1-5.26,7.37s-9.4.32-11-3.6a15.4,15.4,0,0,1-1-5.37q-.11-24.52,0-49c0-1.71-.46-2.33-2.23-2.25-2.93.13-5.87,0-8.81,0-2.55,0-2.63.07-2.63,2.62V97.39a35.79,35.79,0,0,0,.77,7.65c1.47,6.59,5.05,11.72,11.42,14.38a27.16,27.16,0,0,0,16.87,1.12c8.64-1.94,14.12-8.9,15.07-17.2A95.45,95.45,0,0,0,435,92.78c0-14.43,0-28.86,0-43.3,0-2.22-.12-2.32-2.35-2.32h-9c-2.43,0-2.44,0-2.44,2.38Zm-226,23h-5.21c-1,0-1.48.38-1.34,1.37a40.1,40.1,0,0,0,1,6.53c3,9.65,11,15.41,21.25,15.33a31.58,31.58,0,0,0,6.71-.82c8.36-1.92,14-6.85,16.22-15.28a21.6,21.6,0,0,0-10.57-24.36q-8-4.18-16-8.29c-3.53-1.82-5-5.36-3.55-8.47,1.75-3.73,7-4.8,10-3.89,3.82,1.14,5.54,3.91,6.19,7.55.2,1.14.61,1.73,1.81,1.73h10.25c1.33,0,1.86-.64,1.66-1.92-.26-1.64-.41-3.31-.82-4.92a20.66,20.66,0,0,0-9-12.62,22.72,22.72,0,0,0-14.05-3.4c-8.73.48-16.79,5.2-19.21,14.2a20.28,20.28,0,0,0,2.44,16.66c2.61,4.18,6.65,6.35,10.82,8.46,4.41,2.23,8.88,4.37,13.11,6.91,5,3,5.09,8.14,3.07,11.11-2.78,4.09-7.62,4.73-11.91,3.52-3.46-1-5.39-3.67-5.77-7.25-.17-1.7-.91-2.28-2.54-2.17s-3,0-4.5,0Zm-169.9,0c-1.55,0-3.12.06-4.67,0s-2.05.58-2,2c.28,6.24,2.45,11.73,7.21,15.81,6.29,5.38,13.66,6.59,21.64,4.63,8.23-2,14.06-6.68,16.14-15.11C66.11,96,63,86.66,54.58,81.61,49,78.28,43.12,75.53,37.37,72.53c-2.37-1.24-4.08-3.1-4.14-5.82A6.11,6.11,0,0,1,36.7,61c5.73-3,12.41,0,13.3,6.33.16,1.19.42,2.11,1.87,2.11H62.08c1.23,0,1.66-.64,1.62-1.83A21.48,21.48,0,0,0,60,56c-6.52-9.56-18-11.43-27.47-7.91-7.94,2.93-12.43,9-12.71,17.75-.19,6.16,1.81,11.56,6.56,15.4,3.24,2.62,7.2,4.35,10.88,6.41,3.48,1.95,7.11,3.63,10.47,5.76A7.69,7.69,0,0,1,50,104c-2.52,3.81-8,4.74-12.11,3.42-3.49-1.1-5.13-4-5.64-7.4C32,98.49,31.46,98,30,98s-3,0-4.47,0ZM376.4,83.71V49.42c0-1.83-.53-2.38-2.35-2.29-3,.14-6,0-9,0-2.26,0-2.36.09-2.36,2.3V118c0,2.29.06,2.34,2.29,2.34h9c2.36,0,2.37,0,2.37-2.38ZM51.91,142.76l.47-.15a9.54,9.54,0,0,1,.86,1.31c.9,2,1.75,4,2.63,6,.61,1.37,1.83,1.14,3,1s1.2-1.09,1.2-2v-14.7c0-1.16-.29-1.73-1.58-1.8-1.63-.09-2.28.45-2.18,2.13.11,2,0,4.08,0,6.13h-.5a3.77,3.77,0,0,1-.34-.54q-1.44-3.34-2.85-6.69c-.66-1.56-2-1.07-3.11-.92-.37.05-.84,1.15-.85,1.78-.07,4.84,0,9.68,0,14.52,0,1.15,0,2.16,1.63,2.16S52,150.1,52,148.88C51.88,146.89,51.91,144.83,51.91,142.76Zm285.11-2-.45.17a9,9,0,0,1-.9-1.32c-.93-2.06-1.79-4.15-2.72-6.2-.69-1.52-2.09-.87-3.16-.78-.34,0-.86,1.12-.87,1.73-.07,4.91,0,9.81-.06,14.72,0,1.3.32,2,1.8,2s1.82-.86,1.81-2.09v-4.3a14.93,14.93,0,0,1,.26-1.76h.46c1,2.37,2.08,4.74,3.09,7.12.62,1.46,1.87,1,2.94,1s1.11-1,1.11-1.87V134.47c0-1.23-.1-2-1.71-2s-1.66.93-1.65,2.09c0,2,0,4.1,0,6.17Zm88,1.86.46-.12c.32.51.61,1.05.88,1.59.85,1.91,1.67,3.83,2.49,5.75.57,1.35,1.77,1.41,2.88,1.15a2,2,0,0,0,1.27-1.37q.13-7.89,0-15.8c0-.44-.78-1.16-1.29-1.25-1.78-.33-2.17.1-2.19,2v6.18l-.58.07c-.28-.57-.58-1.12-.84-1.7-.8-1.8-1.66-3.57-2.33-5.42-.6-1.65-1.94-1.27-3-1.08-.46.08-1.06,1.15-1.07,1.79-.09,4.9,0,9.81-.05,14.72,0,1.17.29,2,1.7,2s1.71-.7,1.68-1.92c-.09-2.21,0-4.44,0-6.62Zm-159-.83v7.54c0,1.35.59,1.81,1.85,1.76s1.93-.49,1.88-1.83a27.55,27.55,0,0,1,0-3.4,8.37,8.37,0,0,1,.52-1.77c.5.44,1,.84,1.49,1.32.19.19.21.55.34.82.64,1.33,1.23,2.71,2,4s2.31,1.12,3.37.65c1.34-.59.06-1.54-.2-2.24-.49-1.33-1.29-2.55-1.77-3.88a2.15,2.15,0,0,1,.17-1.88c2.06-1.73,1.95-4,1.74-6.26a4.42,4.42,0,0,0-4.28-4c-1.85-.09-3.71,0-5.56-.07-1.2-.05-1.57.46-1.55,1.59,0,2.48,0,5.05,0,7.62Zm-189.38-.1v7.71c0,1.39.79,1.7,2,1.68s1.73-.52,1.67-1.75a40.44,40.44,0,0,1,0-4.12c0-.38.45-.74.69-1.11a6.26,6.26,0,0,1,.91.72,4.7,4.7,0,0,1,.5.94c.74,1.49,1.41,3,2.23,4.46.47.84,2.9,1.34,3.35.65.32-.48.08-1.48-.18-2.15-.53-1.38-1.31-2.67-1.82-4.06a2,2,0,0,1,.19-1.72c2-1.79,2-4.09,1.71-6.43a4.41,4.41,0,0,0-4.35-4c-1.67-.07-3.35,0-5,0-1.38-.07-2,.41-1.9,1.84,0,2.4,0,4.85,0,7.31Zm67.18,2.3h.63c.34.54.72,1.06,1,1.62.73,1.44,1.39,2.91,2.14,4.33.54,1,2.68,1.7,3.37.91.37-.42.13-1.57-.13-2.29-.46-1.28-1.26-2.45-1.66-3.75a2.61,2.61,0,0,1,.35-2.17c1.74-1.88,1.91-4,1.43-6.34a4.48,4.48,0,0,0-4.54-3.79c-1.74-.06-3.47,0-5.21,0-.95,0-1.47.33-1.47,1.34v15.79c0,1.35,1,1.45,2,1.46s1.56-.41,1.53-1.49c0-1.31,0-2.63,0-3.94a7,7,0,0,1,.55-1.67Zm38.45-2.52c.13,1.92.22,3.53.34,5.13.17,2.19,1.28,3.9,3.41,4.29,2.42.44,5.21.92,6.71-1.86a10.41,10.41,0,0,0,1.2-4.54c.07-5.1.79-4.51-4.57-4.53-.9,0-1.89-.1-1.89,1.28,0,1.16-.15,2.29,1.56,2.48A1.9,1.9,0,0,1,190.3,145a2,2,0,0,1-1.24,2.45,2.26,2.26,0,0,1-.57.09c-1.55.17-2.46-.61-2.51-2.29-.06-2.15,0-4.3,0-6.45,0-1.31.25-2.63,1.62-2.8.81-.09,1.71.87,2.62,1.23a14.34,14.34,0,0,0,2.87.78c.18,0,.68-.65.67-1,0-2.32-2.36-4.4-5.07-4.63-3-.25-5.51,1.26-5.9,3.73-.34,1.85-.39,3.76-.53,5.37Zm-21.82.19v7.54c0,1.3.45,1.9,1.75,1.89,1.68,0,3.36,0,5,0a4.46,4.46,0,0,0,4.45-4.47h0c.09-3.23.09-6.47,0-9.7a4.27,4.27,0,0,0-4.17-4.36h-.32c-1.68-.06-3.36,0-5,0-1.36-.07-1.77.51-1.73,1.8.06,2.35,0,4.81,0,7.27Zm303.7-.09a50.78,50.78,0,0,0,.3,5.23,5.79,5.79,0,0,0,9,3.56,4.45,4.45,0,0,0,1.74-2.18,24.78,24.78,0,0,0,.16-12.19c-.58-2.45-2.83-3.82-5.6-3.67-3,.15-4.86,1.55-5.25,4.13a41.33,41.33,0,0,0-.36,5.09Zm18.4.21h0v-3.41c0-1.14.18-2.19,1.5-2.5a2.11,2.11,0,0,1,2.56,1.33,2,2,0,0,0,2.7.85,2.49,2.49,0,0,0,.3-.19c.4-.24.45-1.63.2-2.32-.94-2.55-3.17-3.5-6.31-3.11-2.88.36-4.2,2.06-4.45,4.75a46.66,46.66,0,0,0,0,9c.26,2.73,1.44,4.56,3.75,4.82,3.79.42,5.34.41,6.82-2.41a9.18,9.18,0,0,0,.72-4.17c0-5.19.58-4.36-4.69-4.43-.93,0-1.5.32-1.44,1.35s-.35,2.23,1.21,2.32c1.23.07,1.56.71,1.44,1.76-.14,1.21-.53,2.22-2.06,2.16-1.13,0-2.09-.31-2.15-1.63s-.11-2.82-.11-4.2Zm-127.07-.12h0a46.33,46.33,0,0,0,0-5,4.42,4.42,0,0,0-4.6-4.12h-5c-1.18,0-1.6.52-1.6,1.62v15.26c0,1.21.6,1.73,1.78,1.72h4.5a4.68,4.68,0,0,0,4.95-4.39v0a43.39,43.39,0,0,0,0-5.1Zm50.62.05v7.72c0,1.28.55,1.68,1.73,1.66s1.87-.31,1.86-1.6v-4.85c0-1.62,1.07-1.57,2.21-1.56s2.4-.1,2.41,1.61v4.49c0,1.18.19,1.94,1.65,1.93s1.76-.71,1.75-1.92V133.94c0-1.39-.85-1.44-1.91-1.45s-1.52.36-1.48,1.45c.06,1.32,0,2.63,0,4,0,1.6-1.07,1.64-2.2,1.61s-2.43.29-2.42-1.52c0-1.32-.05-2.64,0-3.95.07-1.53-.91-1.51-2-1.54s-1.64.29-1.61,1.51c0,2.49,0,5.06,0,7.63Zm-314.65-.09v7.53c0,1.4.57,2,1.91,1.94h7.19c1.18,0,2-.35,2-1.73s-.52-2-1.93-1.94c-1.2.06-2.4-.08-3.59,0-1.75.17-1.93-.8-1.93-2.18s.16-2.5,2-2.31a32.32,32.32,0,0,0,3.41,0c1.3.06,1.41-.73,1.42-1.73s-.11-1.79-1.41-1.75-2.51,0-3.77,0-1.65-.55-1.67-1.75.39-1.78,1.63-1.77c1.43,0,2.87,0,4.3-.07,1.24,0,1.55-.84,1.53-2S102,132.4,101,132.4h-7.9c-1.3,0-1.63.6-1.61,1.77,0,2.51,0,5,0,7.42Zm-57,0v7.71c0,1.22.47,1.78,1.67,1.78H44c1.24,0,1.63-.68,1.6-1.85s-.39-1.83-1.66-1.8H39.47c-1.66,0-1.41-1.14-1.37-2.11S37.66,143,39.45,143h2.87c1.24,0,2.72.45,2.69-1.78s-1.61-1.58-2.78-1.68a21,21,0,0,0-2.51,0c-1.26.07-1.65-.53-1.65-1.73s.26-1.82,1.57-1.8c1.55,0,3.11,0,4.66-.07,1.34-.08,1.31-1.09,1.32-2.1s-.58-1.31-1.47-1.3H36.07c-1.29,0-1.64.57-1.61,1.75,0,2.37,0,4.82,0,7.27Zm102,.27h-.22c0-1.5.06-3,0-4.48-.15-3-2.27-4.88-5.42-5s-5.58,1.36-5.79,4.29a68.27,68.27,0,0,0,.13,10.7,4.09,4.09,0,0,0,4.09,3.77c4,.24,5.74-.49,6.48-3.25a40.2,40.2,0,0,0,.74-6.09Zm241.36-.14v7.36c0,1.35.5,2,1.87,2H387c1.23,0,1.87-.46,1.85-1.82s-.65-1.91-2-1.85c-1.19.06-2.4-.09-3.59,0-1.66.17-2-.56-2-2.07s.15-2.71,2.19-2.43a22.17,22.17,0,0,0,3.05,0c1.25,0,1.65-.56,1.67-1.75s-.51-1.75-1.71-1.73-2.51,0-3.77,0-1.41-.74-1.4-1.74,0-1.82,1.34-1.79h4.67c1.24,0,1.54-.79,1.55-1.93s-.6-1.52-1.67-1.51H379.5c-1.22,0-1.73.44-1.7,1.69.06,2.49,0,5,0,7.51Zm58.81-.26h0c0,1.55-.09,3.11,0,4.66.24,3.31,2.13,5,5.53,5s5.65-1.73,5.81-4.91q.23-4.5,0-9c-.15-3-2.47-4.88-5.59-4.89-3.44,0-5.48,1.65-5.74,4.83-.09,1.37,0,2.82,0,4.25Zm-175.26,9.65c1.61-.07,2.41-.2,1.9-1.93-1.4-4.73-2.61-9.51-3.84-14.29a3.3,3.3,0,0,0-3.93-2.5,3.75,3.75,0,0,0-.77.28,1.43,1.43,0,0,0-.63.8c-1.45,5.4-2.9,10.79-4.26,16.21a1.67,1.67,0,0,0,.91,1.32c1.7.49,2.79-.16,3.08-2.4.31-2.42,1.9-1.76,3.28-1.88a1.93,1.93,0,0,1,2.37,1.95c.17,1.12.44,2.56,1.9,2.38Zm58-18.53-.21-.47c-.73.5-1.93.87-2.12,1.53-1.54,5.25-2.88,10.54-4.29,15.82-.29,1.09.19,1.48,1.25,1.64,2.32.35,2.27-1.53,2.89-2.85.25-.53.6-1.27,1.06-1.42,2.39-.8,3.82,0,4.54,2.5.07.23.15.46.24.68.53,1.37,1.73,1.23,2.71.92.37-.12.54-1.21.58-1.87a5.76,5.76,0,0,0-.37-1.74c-1.1-4.13-2.3-8.23-3.28-12.39-.36-1.77-1-2.88-3-2.41ZM227.81,151c1.21.18,1.82-.32,1.44-1.74-1.29-4.82-2.56-9.66-3.87-14.48a4.34,4.34,0,0,0-.91-2.08c-1.45-1.25-4.44,0-4.91,2-.41,1.68-.82,3.36-1.25,5-.8,3.11-1.65,6.2-2.4,9.32-.4,1.65.22,2.34,1.87,1.92a2.79,2.79,0,0,0,1.63-1.71c.71-2.47.75-2.43,3.47-2.6,2.06-.13,2.45,1.1,2.63,2.59S226.37,151.12,227.81,151Zm76.59-13.43a4.34,4.34,0,0,0-2.49-4.59,6.33,6.33,0,0,0-6.17,0,4.56,4.56,0,0,0-2.46,4.45,5.52,5.52,0,0,0,3.19,4.65,40.73,40.73,0,0,1,3.87,2.17c1.36,1,1.17,2.33-.32,3.06s-2.52.19-3.27-1.17-2.08-1.18-3.12-.73c-.34.14-.38,1.63-.14,2.37.77,2.41,2.73,3.34,6.26,3.23a4.7,4.7,0,0,0,4.71-3.39c.81-2.49.3-4.72-1.65-6.09-1.45-1-3.13-1.71-4.61-2.7a2.63,2.63,0,0,1-1.14-1.8c0-.49.85-1.29,1.39-1.36a2.39,2.39,0,0,1,1.93.86c1.08,1.7,2.48,1.32,4,1.08Zm87,4.23a48.75,48.75,0,0,0,.46,5.4c.57,3,2.41,4,6.45,3.82a4.92,4.92,0,0,0,4.62-4.41c0-.44-.44-1.29-.75-1.32-1.1-.13-2.29-.52-3.09,1a2.86,2.86,0,0,1-2.46,1,2.7,2.7,0,0,1-1.49-2,64.19,64.19,0,0,1,0-7.34,2.77,2.77,0,0,1,.74-1.73c1.09-1.09,2.3-.81,3.34.83.79,1.24,1.9,1.09,3,.84a1.4,1.4,0,0,0,.72-1.14,5.47,5.47,0,0,0-5.43-4.51c-3.06-.11-5.19,1.32-5.67,4.06a51.85,51.85,0,0,0-.42,5.54Zm-371.27-.1h0c0,1.49-.05,3,0,4.49A4.79,4.79,0,0,0,24.28,151c4,.43,6.08-.63,6.82-3.58.16-.64-.26-1.44-.41-2.16-1,.24-2.36.17-2.82.78-.77,1.05-1.57,1.94-2.7,1.33a3.83,3.83,0,0,1-1.66-2.56,25.3,25.3,0,0,1,0-6.27,4.37,4.37,0,0,1,1.8-2.71c.34-.23,1.55,1,2.44,1.36a10,10,0,0,0,2.9.67,2,2,0,0,0,.6-1.39c-.34-2.53-3-4.37-5.82-4.2-3.16.18-5.16,1.93-5.29,4.73C20.07,138.58,20.13,140.14,20.13,141.7Zm91.32-.08v7.73c0,1.21.52,1.72,1.74,1.72s1.78-.43,1.74-1.69v-4.49c0-1.25.47-1.9,1.81-1.84s2.4,0,3.6,0,1.48-.73,1.48-1.75-.15-1.83-1.41-1.83h-3.78c-1.26,0-1.7-.53-1.72-1.73s.37-1.83,1.63-1.81h4.31c1.43,0,1.37-1,1.39-2s-.38-1.49-1.48-1.46c-2.51.06-5,.08-7.55,0-1.37,0-1.79.54-1.76,1.81C111.48,136.71,111.44,139.17,111.45,141.62Zm394.09-8.75c-2.94-.83-3.5-.59-4.47,1.74-.41,1-.79,2-1.24,3-.13.27-.47.64-.7.63a1.18,1.18,0,0,1-.74-.64c-.44-1-.76-2-1.2-3-1.06-2.35-1.42-2.5-4.41-1.77.71,1.84,1.38,3.65,2.11,5.44,1.39,3.45,3.2,6.79,2.61,10.74-.18,1.21.13,2.1,1.68,2.06s1.79-.95,1.68-2.15a16.18,16.18,0,0,1,1.84-8.79c1.12-2.33,1.9-4.82,2.84-7.26ZM367.77,143.54h0v5.56c0,1.18.27,2,1.68,2s1.87-.74,1.86-2V139c0-2.68,0-2.71,2.71-3,1.22-.16,1.56-.78,1.56-1.93s-.57-1.55-1.65-1.54h-8.81a1.66,1.66,0,0,0-1.84,1.46,1.64,1.64,0,0,0,.31,1.17,3.17,3.17,0,0,0,2.2.78c1.48,0,2,.63,2,2.07C367.72,139.82,367.77,141.68,367.77,143.54Zm-301.21-.17v5.74c0,1.2.28,1.93,1.68,2s1.89-.66,1.87-2V138.88c0-2.62,0-2.66,2.65-2.92,1.33-.13,1.45-.88,1.48-2s-.48-1.55-1.6-1.53c-2.88,0-5.75.06-8.63,0-1.35,0-1.75.52-1.73,1.81,0,1.61,1.07,1.71,2.19,1.66,1.62-.07,2.25.59,2.13,2.24S66.56,141.64,66.56,143.37Zm384.9-1.7v7.54c0,1.25.55,1.87,1.85,1.85h7.19c1.37,0,1.94-.51,1.9-1.92s-.55-1.84-1.85-1.76c-1,.06-2,0-3.06,0-2.42,0-2.42,0-2.43-2.35V134.26c0-1.23-.25-1.87-1.68-1.85s-2,.49-1.94,1.88C451.49,136.76,451.45,139.21,451.46,141.67Zm-167.71,1.72v5.55c0,1.2.13,2.1,1.69,2.14s1.78-.92,1.77-2.2c0-3.52.06-7,0-10.57,0-1.66.41-2.53,2.19-2.37a4.21,4.21,0,0,0,.71,0c1.35-.08,1.36-1,1.39-2s-.53-1.42-1.53-1.41c-2.94,0-5.87.05-8.8,0-1.27,0-1.63.48-1.64,1.7,0,1.39.66,1.72,1.85,1.79,2.41.15,2.41.18,2.41,2.6Zm-74.39-10.91c-1.44,0-2.88.07-4.31,0s-1.83.69-1.75,2,1,1.53,2,1.46c1.86-.13,2.33.7,2.27,2.45-.13,3.47,0,6.94,0,10.41,0,1.23,0,2.31,1.69,2.28s1.7-1.17,1.71-2.36v-8.8a8,8,0,0,1,.44-3.46c.26-.51,1.72-.4,2.64-.54,1.24-.19,1.22-1.08,1.23-2a1.21,1.21,0,0,0-1.41-1.38C212.35,132.5,210.85,132.48,209.36,132.48Zm22.55,9.15v7.54c0,1.11.38,1.87,1.64,1.87h7.9c1.33,0,1.52-.82,1.52-1.91s-.38-1.81-1.67-1.75-2.64,0-4,0-2-.51-2-2c.07-3.71,0-7.42,0-11.13,0-1.26-.3-1.86-1.7-1.85s-1.81.56-1.79,1.82c.12,2.5.1,4.95.1,7.41Zm-56.51.06v7.54c0,1.3.5,1.86,1.8,1.83s1.89-.47,1.88-1.81V134.18c0-1.39-.6-1.72-1.85-1.73s-1.89.3-1.84,1.71c.06,2.5,0,5,0,7.53Zm25.45.08v-7.72c0-1.13-.32-1.63-1.53-1.59s-2,.09-2,1.56v15.26c0,1.31.69,1.77,1.93,1.78s1.67-.56,1.65-1.76c0-2.51,0-5,0-7.53Z"/><path class="cls-1" d="M0,198.36H524.52V0c.12.06.34.11.34.18V198.72H1.62A7.58,7.58,0,0,1,0,198.36Z"/><path class="cls-1" d="M476.37,77.06,481,65.77l7-17.19a2.08,2.08,0,0,1,2.19-1.44q5.58.12,11.15,0c1.51,0,2,.54,2,2v68.25c0,3,0,3-2.94,3s-5.64-.11-8.45,0c-1.91.1-2.35-.7-2.33-2.4.07-4.91,0-9.82,0-14.73v-21a20.27,20.27,0,0,0-.24-2.2l-.53-.08-3.15,8c-1.3,3.27-2.61,6.54-3.89,9.81a2.5,2.5,0,0,1-2.8,1.91,32.34,32.34,0,0,0-5.39,0c-1.7.17-2.42-.59-3-2.06-2.07-5.52-4.23-11-6.37-16.5a3.29,3.29,0,0,0-1.15-1.55,22.55,22.55,0,0,0-.22,2.31v35.92c0,2.54,0,2.54-2.47,2.54-3.06,0-6.12-.06-9.17,0-1.53,0-2.06-.61-2-2V49.23c0-1.49.46-2.16,2.08-2.11,3.53.09,7.07.06,10.61,0a2.1,2.1,0,0,1,2.27,1.54c2.55,6.34,5.16,12.58,7.8,18.84q1.68,4.05,3.4,8.08A12.16,12.16,0,0,0,476.37,77.06Z"/><path class="cls-1" d="M145.33,82.36V118c0,2.28-.08,2.36-2.3,2.36-3,0-6-.1-9,0-1.82.09-2.37-.5-2.36-2.32.07-10.47,0-21,0-31.44V49.43c0-1.77.45-2.43,2.32-2.34,3.29.14,6.59.07,9.89,0a2.14,2.14,0,0,1,2.27,1.55Q154,67.21,162,85.67c.12.27.47.44,1,.93.07-1,.16-1.71.16-2.39V49.53c0-2.36,0-2.36,2.41-2.36h9.17c1.18,0,1.66.45,1.61,1.58v69c0,2.66,0,2.66-2.67,2.66H164a2,2,0,0,1-2.14-1.47q-7.12-16.79-14.32-33.53c-.46-1.07-1-2.09-1.58-3.14Z"/><path class="cls-1" d="M352.23,120.23c-.77.06-1.29.15-1.81.15H338.91a2.42,2.42,0,0,1-2.49-1.59c-3.94-8.46-7.89-16.93-11.92-25.35a2.73,2.73,0,0,0-1.86-1.27C318,91.75,318,91.8,318,96.36v21.56c0,2.4-.05,2.43-2.38,2.43h-9.17c-1.24,0-1.78-.45-1.76-1.65V50.15c0-3,0-3,2.92-3,7.25,0,14.51-.17,21.75,0,5.8.18,11,2.12,14.87,6.73a21.63,21.63,0,0,1,4.85,11.92,28.1,28.1,0,0,1-1.72,14.26,18.52,18.52,0,0,1-7.75,9.3c-1.33.76-1.17,1.58-.66,2.66q6.41,13.35,12.78,26.71A13.19,13.19,0,0,1,352.23,120.23ZM318,69.83h0V77.2c0,1,.31,1.61,1.45,1.59,3.35-.05,6.71,0,10.06-.15a5.55,5.55,0,0,0,4.83-3.23c1.39-2.79,1.19-5.72.88-8.74a7,7,0,0,0-7-6h-8.45c-1.34,0-1.84.52-1.83,1.79C318,64.92,318,67.38,318,69.83Z"/><path class="cls-1" d="M290.06,84c0,6.35.43,12.73-.11,19a19.63,19.63,0,0,1-15.43,17.58c-6.39,1.41-12.49,1.1-18.2-2.17-6.8-3.9-10.09-10.22-10.35-17.73-.38-11.31-.31-22.64,0-33.95a19.86,19.86,0,0,1,14.69-19c7-1.85,13.75-1.56,20,2.3a18.46,18.46,0,0,1,8.51,11.47,37.93,37.93,0,0,1,1,7.94c.15,4.85,0,9.7,0,14.55Zm-13.38-.09V67.76a9.8,9.8,0,0,0-.54-3.13c-1-2.73-3.26-3.84-5.87-4.4-4.59-1-11,1.19-10.9,7.93.23,10.53.06,21.06.06,31.59,0,4.23,1.83,6.85,5.91,7.83,5.52,1.33,11.75-1,11.41-8.41-.26-5.12-.07-10.17-.07-15.3Z"/><path class="cls-1" d="M76.93,83.73V49.59c0-2.41,0-2.42,2.37-2.42h38c2.22,0,2.36.13,2.37,2.32V58.3c0,2.26-.16,2.4-2.5,2.4H92.71c-1.6,0-2.23.38-2.18,2.08.12,3.47.11,7,0,10.42,0,1.63.57,2,2.09,2h21.94c2.8,0,2.86.06,2.87,2.78s-.05,5.63,0,8.44c0,1.62-.53,2.21-2.19,2.19-7.44-.07-14.87,0-22.31,0-2.38,0-2.39,0-2.39,2.4v14c0,1.57.5,2,2.07,2,8.15-.07,16.31,0,24.46,0,2.49,0,2.6.11,2.6,2.67v8.8c0,1.31-.45,1.93-1.91,1.93q-19.42-.06-38.85,0c-1.71,0-2-.8-2-2.2C77,106.73,76.93,95.23,76.93,83.73Z"/><path class="cls-1" d="M421.37,75.06V49.55c0-2.37,0-2.38,2.44-2.38h9c2.23,0,2.35.1,2.35,2.32v43.3a95.45,95.45,0,0,1-.47,10.56c-1,8.3-6.43,15.26-15.07,17.2a27.16,27.16,0,0,1-16.87-1.12c-6.37-2.66-10-7.79-11.42-14.38a35.79,35.79,0,0,1-.77-7.65c-.07-15.87,0-31.74,0-47.61,0-2.55.08-2.62,2.63-2.62,2.94,0,5.88.09,8.81,0,1.77-.08,2.24.54,2.23,2.25q-.08,24.52,0,49.05a15.4,15.4,0,0,0,1,5.37c1.55,3.92,7.29,4.82,11,3.6s5.26-3.4,5.26-7.37Q421.39,87.55,421.37,75.06Z"/><path class="cls-1" d="M195.39,98.06c1.5,0,3,.08,4.5,0a2.09,2.09,0,0,1,2.54,2.17c.38,3.58,2.31,6.27,5.77,7.25,4.29,1.21,9.13.57,11.91-3.52,2-3,2-8.08-3.07-11.11-4.23-2.54-8.7-4.68-13.11-6.91-4.17-2.11-8.21-4.28-10.82-8.46a20.28,20.28,0,0,1-2.44-16.66c2.42-9,10.48-13.72,19.21-14.2A22.7,22.7,0,0,1,223.93,50,20.64,20.64,0,0,1,233,62.6c.41,1.61.56,3.28.82,4.92.2,1.28-.33,1.93-1.66,1.92H221.91c-1.2,0-1.61-.59-1.81-1.73-.65-3.64-2.37-6.41-6.19-7.55-3-.91-8.29.16-10,3.89-1.46,3.11,0,6.65,3.55,8.47q8,4.13,16,8.29A21.6,21.6,0,0,1,234,105.18c-2.25,8.43-7.86,13.36-16.22,15.28a31.58,31.58,0,0,1-6.71.82c-10.2.08-18.28-5.68-21.25-15.33a40.1,40.1,0,0,1-1-6.53c-.14-1,.33-1.4,1.34-1.37C191.92,98.1,193.66,98.07,195.39,98.06Z"/><path class="cls-1" d="M25.49,98.06c1.5,0,3,.08,4.5,0s2.07.44,2.29,2c.51,3.44,2.15,6.3,5.64,7.4,4.16,1.32,9.59.39,12.11-3.42a7.69,7.69,0,0,0-2.26-10.58c-3.36-2.13-7-3.81-10.47-5.76-3.68-2.06-7.64-3.79-10.88-6.41-4.75-3.84-6.75-9.24-6.56-15.4.28-8.76,4.77-14.82,12.71-17.75,9.51-3.52,21-1.65,27.47,7.91A21.54,21.54,0,0,1,63.7,67.6c0,1.19-.39,1.83-1.62,1.83H51.83c-1.45,0-1.71-.92-1.87-2.11C49.11,61,42.43,58,36.7,61a6.12,6.12,0,0,0-3.43,5.69c.06,2.72,1.77,4.58,4.14,5.82,5.75,3,11.66,5.75,17.21,9.08,8.43,5,11.53,14.34,9.21,23.78-2.08,8.43-7.91,13.08-16.14,15.11-8,2-15.35.75-21.64-4.63-4.76-4.08-6.93-9.57-7.21-15.81-.07-1.45.48-2.1,2-2S23.94,98.06,25.49,98.06Z"/><path class="cls-1" d="M376.4,83.71V118c0,2.38,0,2.38-2.37,2.38h-9c-2.23,0-2.29,0-2.29-2.34V49.47c0-2.21.1-2.3,2.36-2.3,3,0,6,.1,9,0,1.82-.09,2.36.46,2.35,2.29C376.36,60.85,376.4,72.28,376.4,83.71Z"/><path class="cls-1" d="M51.91,142.76V149c0,1.22-.14,2.11-1.69,2.11s-1.63-1-1.63-2.16V134.38c0-.63.48-1.73.85-1.78,1.08-.15,2.45-.64,3.11.92q1.41,3.34,2.85,6.69a3.77,3.77,0,0,0,.34.54h.5c0-2.05.09-4.1,0-6.13-.1-1.68.55-2.22,2.18-2.13,1.29.07,1.59.64,1.58,1.8V149c0,.94,0,1.9-1.2,2s-2.34.35-3-1c-.88-2-1.73-4-2.63-6a9.54,9.54,0,0,0-.86-1.31Z"/><path class="cls-1" d="M337,140.73v-6.21c0-1.16,0-2.07,1.65-2.09s1.72.76,1.71,2v14.71c0,.85.11,1.83-1.11,1.87s-2.32.47-2.94-1c-1-2.38-2.06-4.75-3.09-7.12h-.46a14.93,14.93,0,0,0-.26,1.76V149c0,1.23-.32,2.08-1.81,2.09s-1.81-.72-1.8-2c0-4.91,0-9.81.06-14.72,0-.61.53-1.71.87-1.73,1.07-.09,2.47-.74,3.16.78.93,2,1.79,4.14,2.72,6.2a9,9,0,0,0,.9,1.32Z"/><path class="cls-1" d="M425,142.59v6.56c0,1.22-.27,1.93-1.68,1.92s-1.71-.8-1.7-2c0-4.91,0-9.82.05-14.72,0-.64.61-1.71,1.07-1.79,1.06-.19,2.4-.57,3,1.08.67,1.85,1.53,3.62,2.33,5.42.26.58.56,1.13.84,1.7l.58-.07v-6.18c0-1.9.41-2.33,2.19-2,.51.09,1.28.81,1.29,1.25q.13,7.91,0,15.8a2,2,0,0,1-1.27,1.37c-1.11.26-2.31.2-2.88-1.15-.82-1.92-1.64-3.84-2.49-5.75-.27-.54-.56-1.08-.88-1.59Z"/><path class="cls-1" d="M266,141.76v-7.71c0-1.13.35-1.64,1.55-1.59,1.85.07,3.71,0,5.56.07a4.42,4.42,0,0,1,4.28,4c.21,2.28.32,4.53-1.74,6.26a2.15,2.15,0,0,0-.17,1.88c.48,1.33,1.28,2.55,1.77,3.88.26.7,1.54,1.65.2,2.24-1.06.47-2.55.74-3.37-.65s-1.34-2.65-2-4c-.13-.27-.15-.63-.34-.82-.46-.48-1-.88-1.49-1.32a8.37,8.37,0,0,0-.52,1.77,27.55,27.55,0,0,0,0,3.4c0,1.34-.67,1.78-1.88,1.83s-1.88-.41-1.85-1.76C266.05,146.79,266,144.28,266,141.76Zm3.7-3.84c0,2.18.19,2.42,1.7,2.41s2.66-.89,2.56-2.33-1.1-2-2.58-2.05c-1.72,0-1.79,1-1.67,2Z"/><path class="cls-1" d="M76.63,141.66c0-2.46.06-4.91,0-7.36,0-1.43.52-1.91,1.9-1.84,1.67.08,3.35,0,5,0a4.41,4.41,0,0,1,4.35,4c.29,2.34.34,4.64-1.71,6.43a2,2,0,0,0-.19,1.72c.51,1.39,1.29,2.68,1.82,4.06.26.67.5,1.67.18,2.15-.45.69-2.88.19-3.35-.65-.82-1.44-1.49-3-2.23-4.46a4.7,4.7,0,0,0-.5-.94,6.26,6.26,0,0,0-.91-.72c-.24.37-.66.73-.69,1.11a40.44,40.44,0,0,0,0,4.12c.06,1.23-.48,1.74-1.67,1.75s-2-.29-2-1.68C76.65,146.8,76.63,144.23,76.63,141.66Zm3.66-3.57c-.16,1.3,0,2.3,1.66,2.24s2.59-.85,2.52-2.3-.91-2-2.32-2.08C80.52,135.88,80,136.65,80.29,138.09Z"/><path class="cls-1" d="M143.81,144a6.87,6.87,0,0,0-.51,1.67c-.08,1.31-.05,2.63,0,3.94,0,1.08-.5,1.5-1.53,1.49s-2-.11-2-1.46V133.85c0-1,.52-1.36,1.47-1.34h5.21A4.48,4.48,0,0,1,151,136.3c.48,2.3.31,4.46-1.43,6.34a2.61,2.61,0,0,0-.35,2.17c.4,1.3,1.2,2.47,1.66,3.75.26.72.5,1.87.13,2.29-.69.79-2.83.12-3.37-.91-.75-1.42-1.41-2.89-2.14-4.33-.29-.56-.67-1.08-1-1.62Zm-.54-6.11c0,2.16.24,2.48,1.8,2.47,1.74,0,2.52-.74,2.51-2.28s-1.06-2-2.48-2.09-2.1.59-1.83,1.86Z"/><path class="cls-1" d="M182.26,141.44c.14-1.61.19-3.52.49-5.4.39-2.47,2.91-4,5.9-3.73,2.71.23,5,2.31,5.07,4.63,0,.35-.49,1-.67,1a14.34,14.34,0,0,1-2.87-.78c-.91-.36-1.81-1.32-2.62-1.23-1.37.17-1.64,1.49-1.62,2.8.05,2.15,0,4.3,0,6.45a2.08,2.08,0,0,0,2.51,2.29,1.93,1.93,0,0,0,1.9-2,1.79,1.79,0,0,0-.09-.57,1.9,1.9,0,0,0-1.27-1.24c-1.71-.19-1.57-1.32-1.56-2.48,0-1.38,1-1.29,1.89-1.28,5.36,0,4.64-.57,4.57,4.53a10.41,10.41,0,0,1-1.2,4.54c-1.5,2.78-4.29,2.3-6.71,1.86-2.13-.39-3.24-2.1-3.41-4.29C182.48,145,182.39,143.36,182.26,141.44Z"/><path class="cls-1" d="M160.44,141.63c0-2.46.05-4.92,0-7.37,0-1.29.37-1.87,1.73-1.8,1.67.08,3.35,0,5,0a4.28,4.28,0,0,1,4.49,4v.32c.08,3.23.08,6.47,0,9.7a4.46,4.46,0,0,1-4.45,4.47h0c-1.68.08-3.36,0-5,0-1.3,0-1.79-.59-1.75-1.89C160.48,146.66,160.44,144.14,160.44,141.63Zm3.61-.16c0,1.31-.08,2.63,0,3.93.06.67.46,1.86.71,1.86a5.45,5.45,0,0,0,3.09-.65c1.07-.79,1-9.11,0-9.93a6,6,0,0,0-3.06-.87c-.19,0-.63,1.34-.71,2.08A35.63,35.63,0,0,0,164.05,141.47Z"/><path class="cls-1" d="M464.14,141.54c.09-1.68.06-3.42.32-5.12.39-2.58,2.28-4,5.25-4.13,2.77-.15,5,1.22,5.6,3.67a24.78,24.78,0,0,1-.16,12.19,4.45,4.45,0,0,1-1.74,2.18,5.77,5.77,0,0,1-9-3.56A50.74,50.74,0,0,1,464.14,141.54Zm7.83.2v-4a2.06,2.06,0,0,0-4.1-.31,74.09,74.09,0,0,0,0,8.43c.06,1.22,1.06,1.81,2.33,1.66a1.84,1.84,0,0,0,1.79-1.89,1,1,0,0,0,0-.17c0-1.2,0-2.46,0-3.72Z"/><path class="cls-1" d="M482.54,141.75c0,1.38-.05,2.75,0,4.13s1,1.58,2.15,1.63c1.53.06,1.92-.95,2.06-2.16.12-1-.21-1.69-1.44-1.76-1.56-.09-1.16-1.36-1.21-2.32s.51-1.36,1.44-1.35c5.27.07,4.71-.76,4.69,4.43a9.18,9.18,0,0,1-.72,4.17c-1.48,2.82-3,2.83-6.82,2.41-2.31-.26-3.49-2.09-3.75-4.82a46.66,46.66,0,0,1,0-9c.25-2.69,1.57-4.39,4.45-4.75,3.14-.39,5.37.56,6.31,3.11.25.69.2,2.08-.2,2.32a2,2,0,0,1-2.81-.36,2.2,2.2,0,0,1-.19-.3,2.11,2.11,0,0,0-2.56-1.33c-1.32.31-1.53,1.33-1.5,2.5s0,2.27,0,3.41Z"/><path class="cls-1" d="M355.47,141.63a46.33,46.33,0,0,1,0,5,4.67,4.67,0,0,1-4.93,4.41H346c-1.18,0-1.78-.51-1.78-1.72V134.06c0-1.1.42-1.65,1.6-1.62,1.67.06,3.35,0,5,0a4.42,4.42,0,0,1,4.6,4.12,46.33,46.33,0,0,1,0,5Zm-7.78-.16v4.11c0,.92-.05,1.84,1.32,1.82s2.92.16,3-1.63a80.3,80.3,0,0,0,0-8.21c-.05-1.17-1.67-2.05-3-1.92-1.49.15-1.36,1.23-1.36,2.25C347.7,139.09,347.69,140.28,347.69,141.47Z"/><path class="cls-1" d="M406.09,141.68V134c0-1.22.48-1.55,1.61-1.51s2.07,0,2,1.54c-.05,1.31,0,2.63,0,3.95,0,1.81,1.31,1.5,2.42,1.52s2.23,0,2.2-1.61v-4c0-1.09.41-1.47,1.48-1.45s1.93.06,1.91,1.45v15.25c0,1.21-.38,1.9-1.75,1.92s-1.69-.75-1.65-1.93c.05-1.5,0-3,0-4.49,0-1.71-1.24-1.59-2.41-1.61s-2.23-.06-2.21,1.56,0,3.23,0,4.85c0,1.29-.75,1.59-1.86,1.6s-1.76-.38-1.73-1.66C406.13,146.83,406.09,144.25,406.09,141.68Z"/><path class="cls-1" d="M91.44,141.59v-7.36c0-1.17.31-1.79,1.61-1.77H101c1,0,1.54.36,1.56,1.46s-.29,1.91-1.53,2c-1.43.07-2.87.08-4.3.07-1.24,0-1.65.57-1.63,1.77s.43,1.79,1.67,1.75,2.52,0,3.77,0,1.42.74,1.41,1.75-.12,1.79-1.42,1.73c-1.14-.05-2.29.09-3.41,0-1.86-.19-2,.86-2,2.31s.18,2.35,1.93,2.18c1.19-.11,2.39,0,3.59,0,1.41-.07,1.92.61,1.93,1.94s-.78,1.73-2,1.73H93.33c-1.34,0-2-.54-1.91-1.94C91.48,146.61,91.44,144.1,91.44,141.59Z"/><path class="cls-1" d="M34.48,141.56v-7.35c0-1.18.32-1.77,1.61-1.75,2.69.06,5.38,0,8.08,0,.89,0,1.49.21,1.47,1.3s0,2-1.32,2.1c-1.55.09-3.11.1-4.66.07-1.31,0-1.58.64-1.57,1.8s.39,1.8,1.65,1.73a17.52,17.52,0,0,1,2.51,0c1.17.1,2.75-.6,2.78,1.68s-1.45,1.74-2.69,1.78H39.47c-1.79,0-1.31,1.36-1.34,2.33s-.29,2.16,1.37,2.11H44c1.27,0,1.63.65,1.66,1.8s-.36,1.84-1.6,1.85h-7.9c-1.2,0-1.7-.56-1.67-1.78C34.51,146.7,34.48,144.13,34.48,141.56Z"/><path class="cls-1" d="M136.46,141.83a40.33,40.33,0,0,1-.75,6c-.74,2.76-2.47,3.49-6.48,3.25a4.09,4.09,0,0,1-4.09-3.77,68.27,68.27,0,0,1-.13-10.7c.21-2.93,2.61-4.45,5.79-4.29s5.27,2.09,5.42,5c.08,1.49,0,3,0,4.48Zm-3.8-.09V138a2.21,2.21,0,0,0-4.41-.33,79.06,79.06,0,0,0,0,8,2.22,2.22,0,0,0,4.42-.38C132.63,144.13,132.67,142.93,132.66,141.74Z"/><path class="cls-1" d="M377.82,141.69v-7.53c0-1.25.48-1.72,1.7-1.69h7.72c1.07,0,1.67.28,1.67,1.51s-.31,1.89-1.55,1.93c-1.56,0-3.11.07-4.67,0-1.35,0-1.33.84-1.34,1.79s.08,1.8,1.4,1.74,2.52,0,3.77,0,1.72.48,1.71,1.73-.42,1.8-1.67,1.75a28.21,28.21,0,0,1-3.05,0c-2-.28-2.19.83-2.19,2.43s.34,2.24,2,2.07a33.07,33.07,0,0,1,3.59,0c1.34-.06,2,.44,2,1.85s-.62,1.82-1.85,1.82H379.7c-1.37,0-1.9-.65-1.87-2C377.86,146.59,377.82,144.14,377.82,141.69Z"/><path class="cls-1" d="M436.63,141.43c0-1.44-.09-2.88,0-4.31.26-3.18,2.3-4.85,5.74-4.83,3.12,0,5.44,1.93,5.59,4.89s.15,6,0,9c-.16,3.18-2.36,4.92-5.81,4.91s-5.29-1.66-5.53-5c-.11-1.55,0-3.11,0-4.66Zm7.67.38c0-1.31-.05-2.62,0-3.93a1.89,1.89,0,0,0-1.6-2.14l-.28,0a2,2,0,0,0-2.29,1.65,1.43,1.43,0,0,0,0,.29c-.09,2.68-.08,5.37,0,8a1.89,1.89,0,0,0,1.91,1.89l.28,0a1.81,1.81,0,0,0,2-1.6,2.67,2.67,0,0,0,0-.4c0-1.22,0-2.47,0-3.72Z"/><path class="cls-1" d="M261.37,151.08c-1.46.18-1.73-1.26-1.89-2.44-.2-1.54-.9-2.08-2.37-1.95s-3-.54-3.28,1.88c-.29,2.24-1.38,2.89-3.08,2.4a1.67,1.67,0,0,1-.91-1.32c1.36-5.42,2.81-10.81,4.26-16.21a1.43,1.43,0,0,1,.63-.8,3.29,3.29,0,0,1,4.42,1.45,3,3,0,0,1,.28.77c1.23,4.78,2.44,9.56,3.84,14.29C263.78,150.88,263,151,261.37,151.08Zm-4.46-11.94h-.52a12.81,12.81,0,0,0-.85,2.83,1.77,1.77,0,0,0,1.06,1.31c.88.23,1.34-.36,1.11-1.27S257.18,140.09,256.91,139.14Z"/><path class="cls-1" d="M319.35,132.55c2-.47,2.6.64,3,2.35,1,4.16,2.18,8.26,3.28,12.39A5.88,5.88,0,0,1,326,149c0,.66-.21,1.75-.58,1.87-1,.31-2.18.45-2.71-.92-.09-.22-.17-.45-.24-.68-.72-2.45-2.15-3.3-4.54-2.5-.46.15-.81.89-1.06,1.42-.62,1.32-.57,3.2-2.89,2.85-1.06-.16-1.54-.55-1.25-1.64,1.41-5.28,2.75-10.57,4.29-15.82.19-.66,1.39-1,2.12-1.53Zm.41,6.35h-.46a31,31,0,0,0-.91,3.15,1.33,1.33,0,0,0,.47,1.13,1.55,1.55,0,0,0,1.33,0,1.4,1.4,0,0,0,.38-1.17c-.19-1.09-.57-2.1-.81-3.11Z"/><path class="cls-1" d="M227.81,151c-1.44.08-2.14-.45-2.3-1.8s-.57-2.72-2.63-2.59c-2.72.17-2.76.13-3.47,2.6a2.79,2.79,0,0,1-1.63,1.71c-1.65.42-2.27-.27-1.87-1.92.75-3.12,1.6-6.21,2.4-9.32.43-1.67.84-3.35,1.25-5,.47-2,3.46-3.2,4.91-2a4.34,4.34,0,0,1,.91,2.08c1.31,4.82,2.58,9.66,3.87,14.48C229.63,150.72,229,151.22,227.81,151ZM223,139.29h-.77a26.42,26.42,0,0,0-.92,3.15,1.5,1.5,0,0,0,1,.84c.32,0,1.3-.54,1.28-.81A20.23,20.23,0,0,0,223,139.29Z"/><path class="cls-1" d="M304.4,137.61c-1.54.24-2.94.62-4-1a2.39,2.39,0,0,0-1.93-.86c-.54.07-1.39.87-1.39,1.36a2.63,2.63,0,0,0,1.14,1.8c1.48,1,3.16,1.68,4.61,2.7,1.95,1.37,2.46,3.6,1.65,6.09a4.7,4.7,0,0,1-4.71,3.39c-3.53.11-5.49-.82-6.26-3.23-.24-.74-.2-2.23.14-2.37,1-.45,2.37-.65,3.12.73s1.8,1.89,3.27,1.17,1.68-2.09.32-3.06a40.73,40.73,0,0,0-3.87-2.17,5.52,5.52,0,0,1-3.19-4.65,4.56,4.56,0,0,1,2.46-4.45,6.33,6.33,0,0,1,6.17,0A4.33,4.33,0,0,1,304.4,137.61Z"/><path class="cls-1" d="M391.42,141.84c.13-1.92.1-3.74.4-5.49.48-2.74,2.61-4.17,5.67-4.06a5.47,5.47,0,0,1,5.43,4.51,1.4,1.4,0,0,1-.72,1.14c-1.09.25-2.2.4-3-.84-1-1.64-2.25-1.92-3.34-.83a2.77,2.77,0,0,0-.74,1.73,64.19,64.19,0,0,0,0,7.34,2.7,2.7,0,0,0,1.49,2,2.86,2.86,0,0,0,2.46-1c.8-1.52,2-1.13,3.09-1,.31,0,.79.88.75,1.32a4.92,4.92,0,0,1-4.62,4.41c-4,.18-5.88-.82-6.45-3.82A48.88,48.88,0,0,1,391.42,141.84Z"/><path class="cls-1" d="M20.13,141.7c0-1.56-.06-3.12,0-4.67.13-2.8,2.13-4.55,5.29-4.73,2.86-.17,5.48,1.67,5.82,4.2.06.45-.43,1.4-.6,1.39a10,10,0,0,1-2.9-.67c-.89-.36-2.1-1.59-2.44-1.36a4.37,4.37,0,0,0-1.8,2.71,25.3,25.3,0,0,0,0,6.27,3.83,3.83,0,0,0,1.66,2.56c1.13.61,1.93-.28,2.7-1.33.46-.61,1.85-.54,2.82-.78.15.72.57,1.52.41,2.16-.74,3-2.85,4-6.82,3.58a4.79,4.79,0,0,1-4.15-4.84c-.06-1.5,0-3,0-4.49Z"/><path class="cls-1" d="M111.44,141.62v-7.36c0-1.27.39-1.85,1.76-1.81,2.52.09,5,.07,7.55,0,1.1,0,1.51.4,1.48,1.46s0,2-1.39,2h-4.31c-1.26,0-1.65.62-1.63,1.81s.49,1.76,1.72,1.73,2.52,0,3.78,0,1.41.85,1.41,1.83-.22,1.79-1.48,1.75-2.4,0-3.6,0a1.6,1.6,0,0,0-1.81,1.84v4.49c0,1.26-.55,1.69-1.74,1.69s-1.75-.51-1.74-1.72C111.46,146.77,111.45,144.2,111.44,141.62Z"/><path class="cls-1" d="M505.54,132.87c-.94,2.44-1.72,4.93-2.84,7.25a16.18,16.18,0,0,0-1.84,8.79c.11,1.2-.13,2.12-1.68,2.15s-1.86-.85-1.68-2.06c.59-3.95-1.22-7.29-2.61-10.74-.73-1.79-1.4-3.6-2.11-5.44,3-.73,3.35-.58,4.41,1.77.44,1,.76,2,1.2,3a1.18,1.18,0,0,0,.74.64c.23,0,.57-.36.7-.63.45-1,.83-2,1.24-3C502,132.28,502.6,132,505.54,132.87Z"/><path class="cls-1" d="M367.77,143.54V138c0-1.44-.51-2-2-2.07a3.17,3.17,0,0,1-2.2-.78,1.66,1.66,0,0,1,.36-2.32,1.63,1.63,0,0,1,1.17-.31h8.81c1.08,0,1.65.31,1.65,1.54s-.34,1.77-1.56,1.93c-2.71.34-2.71.37-2.71,3v10.06c0,1.28-.4,2-1.86,2s-1.7-.79-1.68-2v-5.56Z"/><path class="cls-1" d="M66.56,143.37c0-1.73-.1-3.48,0-5.2s-.51-2.31-2.13-2.24c-1.12,0-2.16-.05-2.19-1.66,0-1.29.38-1.84,1.73-1.81,2.88.06,5.75,0,8.63,0,1.12,0,1.63.32,1.6,1.53s-.15,1.83-1.48,2c-2.65.26-2.65.3-2.65,2.92v10.23c0,1.31-.41,2-1.87,2s-1.7-.76-1.68-2C66.59,147.2,66.56,145.29,66.56,143.37Z"/><path class="cls-1" d="M451.45,141.67v-7.36c0-1.39.55-1.86,1.94-1.88s1.7.62,1.68,1.85v10.77c0,2.34,0,2.34,2.43,2.35h3.06c1.3-.08,1.81.43,1.85,1.76s-.53,1.94-1.9,1.92c-2.39,0-4.78,0-7.19,0-1.3,0-1.85-.6-1.85-1.85C451.46,146.7,451.46,144.18,451.45,141.67Z"/><path class="cls-1" d="M283.75,143.39v-4.84c0-2.42,0-2.45-2.41-2.6-1.19-.07-1.87-.4-1.85-1.79,0-1.22.37-1.73,1.64-1.7,2.93.06,5.86,0,8.8,0,1,0,1.56.26,1.53,1.41s0,2-1.39,2a4.21,4.21,0,0,1-.71,0c-1.78-.16-2.24.71-2.19,2.37.1,3.52,0,7,0,10.57,0,1.28-.09,2.23-1.77,2.2s-1.71-.94-1.69-2.14C283.78,147.09,283.75,145.24,283.75,143.39Z"/><path class="cls-1" d="M209.36,132.48h4.49c1,0,1.41.4,1.41,1.38s0,1.84-1.23,2c-.92.14-2.38,0-2.64.54a8,8,0,0,0-.44,3.46v8.8c0,1.19,0,2.33-1.71,2.36s-1.7-1.05-1.69-2.28c0-3.47-.08-6.94,0-10.41.06-1.75-.41-2.58-2.27-2.45-1,.07-1.93-.11-2-1.46s.22-2.08,1.75-2S207.92,132.48,209.36,132.48Z"/><path class="cls-1" d="M231.91,141.63v-7.37c0-1.26.45-1.81,1.79-1.82s1.72.59,1.7,1.85v11.13c0,1.48.53,2.07,2,2,1.31-.06,2.64,0,4,0s1.66.58,1.67,1.75-.19,1.91-1.52,1.91h-7.9c-1.26,0-1.65-.76-1.64-1.87Z"/><path class="cls-1" d="M175.4,141.69v-7.53c0-1.41.6-1.72,1.84-1.71s1.87.34,1.85,1.73v15.07c0,1.34-.66,1.78-1.88,1.81s-1.83-.53-1.8-1.83C175.43,146.71,175.4,144.2,175.4,141.69Z"/><path class="cls-1" d="M200.85,141.77v7.53c0,1.2-.4,1.78-1.65,1.76s-1.93-.47-1.93-1.78V134c0-1.47.93-1.53,2-1.56s1.55.46,1.53,1.59C200.81,136.62,200.85,139.19,200.85,141.77Z"/><path d="M318,69.83V62.47c0-1.27.49-1.82,1.83-1.79,2.82.07,5.63,0,8.45,0a7,7,0,0,1,7,6c.31,3,.51,6-.88,8.74a5.55,5.55,0,0,1-4.83,3.23c-3.35.19-6.71.1-10.06.15-1.14,0-1.45-.62-1.45-1.59V69.84Z"/><path d="M276.68,83.87c0,5.09-.19,10.18.05,15.26.34,7.37-5.89,9.74-11.41,8.41-4.08-1-5.91-3.6-5.91-7.83,0-10.53.17-21.06-.06-31.59-.15-6.74,6.31-8.93,10.9-7.93,2.61.56,4.9,1.67,5.87,4.4a9.8,9.8,0,0,1,.54,3.13C276.71,73.1,276.68,78.49,276.68,83.87Z"/><path d="M269.71,137.92c-.12-1,0-2,1.68-2,1.48,0,2.47.49,2.58,2.05s-.92,2.32-2.56,2.33S269.71,140.1,269.71,137.92Z"/><path d="M80.29,138.09c-.26-1.44.23-2.21,1.86-2.14,1.41.06,2.26.62,2.32,2.08s-.88,2.24-2.52,2.3S80.13,139.39,80.29,138.09Z"/><path d="M143.27,137.85c-.24-1.27.33-1.95,1.83-1.9s2.48.4,2.48,2.09-.77,2.27-2.51,2.28C143.51,140.33,143.26,140,143.27,137.85Z"/><path d="M164.05,141.47a35.62,35.62,0,0,1,0-3.58c.08-.74.52-2.09.71-2.08a6,6,0,0,1,3.06.87c1.06.82,1.1,9.14,0,9.93a5.45,5.45,0,0,1-3.09.65c-.25,0-.65-1.19-.71-1.86C164,144.1,164.05,142.78,164.05,141.47Z"/><path d="M472,141.74v3.77a1.84,1.84,0,0,1-1.61,2.05h-.17c-1.27.15-2.27-.44-2.33-1.66a79,79,0,0,1,0-8.43,2.06,2.06,0,0,1,4.1.31C472,139.11,472,140.43,472,141.74Z"/><path d="M347.69,141.47v-3.58c0-1-.13-2.1,1.36-2.25,1.34-.13,3,.75,3,1.92a80.3,80.3,0,0,1,0,8.21c-.12,1.79-1.71,1.62-3,1.63s-1.31-.9-1.32-1.82Z"/><path d="M132.67,141.74v3.58a2.22,2.22,0,0,1-4.42.38c-.12-2.68-.13-5.37,0-8a2.21,2.21,0,1,1,4.41.33C132.62,139.23,132.66,140.49,132.67,141.74Z"/><path d="M444.29,141.81v3.76a1.81,1.81,0,0,1-1.6,2,2.67,2.67,0,0,1-.4,0,1.9,1.9,0,0,1-2.17-1.59,2.64,2.64,0,0,1,0-.28c-.08-2.67-.09-5.36,0-8a2,2,0,0,1,2-2,2.58,2.58,0,0,1,.29,0,1.89,1.89,0,0,1,1.9,1.88,2.64,2.64,0,0,1,0,.28C444.25,139.19,444.3,140.5,444.29,141.81Z"/><path d="M256.91,139.14c.27,1,.56,1.9.8,2.87s-.23,1.5-1.11,1.27a1.77,1.77,0,0,1-1.06-1.31,12.81,12.81,0,0,1,.85-2.83Z"/><path d="M319.76,138.9c.28,1,.62,2,.81,3a1.4,1.4,0,0,1-.38,1.17,1.55,1.55,0,0,1-1.33,0,1.33,1.33,0,0,1-.47-1.13c.22-1.07.59-2.1.91-3.15Z"/><path d="M223,139.29a19.05,19.05,0,0,1,.6,3.17c0,.27-.81.77-1.28.81s-1-.61-1-.84a26.42,26.42,0,0,1,.92-3.15Z"/></g><g id="York"><path class="cls-2" d="M290.33,246.93H.46c-.34,0-.39-.08-.39-.4V198.75c0-.34.08-.39.4-.39h524c.35,0,.42.07.42.42v30.61c-.14.47-.27,1-.41,1.42a13.49,13.49,0,0,1-8.37,9.21,17.14,17.14,0,0,1-10,.57,13.54,13.54,0,0,1-10.44-9.49,19.49,19.49,0,0,1-.91-6.16V198.89c0-.36-.08-.47-.46-.47H476.82c-.41,0-.51.09-.51.5v48H291.71c0-.17,0-.34,0-.52V199.25c0-.78,0-.76-.76-.79-.41,0-.53.09-.53.52v47.38A.86.86,0,0,1,290.33,246.93Zm105.58-6.72,6,.17c.65,0,.65,0,.65-.61v-.65c0-.21-.05-.31-.29-.3H401a2.19,2.19,0,0,1-2.49-2,14.63,14.63,0,0,1-.27-3.24v-9.7c0-.18.07-.22.24-.22.57,0,1.15.08,1.72.08a4.25,4.25,0,0,1,4.08,2.42c1.18,2.13,2.52,4.18,3.82,6.28,1,1.63,1.95,3.32,3.09,4.87a7.57,7.57,0,0,0,5.89,3.27c1.48.1,3,.06,4.44,0,.86,0,.84,0,.83-.86,0-.23-.11-.26-.29-.27l-1.71-.15a5.31,5.31,0,0,1-3.79-2,18.86,18.86,0,0,1-1.19-1.63c-2.53-4-4.93-8.13-7.43-12.19-.37-.6-.36-.6.3-.85,4.31-1.56,6.62-4.73,6.64-9.14a9.62,9.62,0,0,0-8.3-9.61,37.87,37.87,0,0,0-5.93-.11c-1.66,0-3.32.1-5,.09-2,0-4-.1-6.06-.15-.17,0-.28,0-.27.22v1.1c0,.21.09.24.26.23h1.1a2.62,2.62,0,0,1,2.85,2.45,7.34,7.34,0,0,1,.13,1.48V234.7a12.29,12.29,0,0,1-.09,1.49,2.6,2.6,0,0,1-2.63,2.59,9.81,9.81,0,0,1-1.33,0c-.21,0-.28.06-.27.27a6.61,6.61,0,0,1,0,.89c-.05.36.1.41.42.4Zm43.28-17.4v-3.66c0-3.24,0-6.49,0-9.72a7.32,7.32,0,0,1,.49-2.85,1.84,1.84,0,0,1,1.49-1.15,11.85,11.85,0,0,1,2.06-.06c.32,0,.39-.09.36-.38a6.61,6.61,0,0,1,0-.89c0-.22,0-.3-.28-.29-.78,0-1.56.06-2.34.08-1.47,0-2.94.09-4.41.07-2,0-4-.09-6-.15-.17,0-.28,0-.27.24v1.09c0,.17.06.23.23.23h1.17a2.59,2.59,0,0,1,2.79,2.42,11,11,0,0,1,.15,1.81v25a9,9,0,0,1-.25,2.24,2.38,2.38,0,0,1-2,1.88c-.29.05-.57.07-.89.1s-.91-.18-1.11.09,0,.74-.07,1.14.07.34.34.33q1.47-.06,2.94-.09c1.67-.05,3.34-.1,5,0s3.09.07,4.64.14c.33,0,.41-.1.39-.4a4.12,4.12,0,0,1,0-.86c0-.24-.05-.32-.31-.31h-1.42a2.13,2.13,0,0,1-2.42-1.93,11.61,11.61,0,0,1-.29-2.76v-8.28a.76.76,0,0,1,.22-.57c.71-.73,1.41-1.48,2.11-2.23.34-.36.34-.35.66,0,2.38,2.72,4.77,5.43,7.13,8.16,1.61,1.86,3.29,3.67,4.81,5.6a6.56,6.56,0,0,1,1.55,3.1c.06.4.22.46.57.45,1.31-.07,2.61-.12,3.92-.15,1.72,0,3.43.06,5.15.15.37,0,.57,0,.49-.46a3,3,0,0,1,0-.73c0-.31-.08-.38-.38-.37a6,6,0,0,1-3.32-.67,9.61,9.61,0,0,1-2.67-2.25q-7-8.12-14-16.27c-.24-.26-.06-.38.08-.57,1.91-2,3.81-4,5.72-6s3.68-3.93,5.6-5.81a6,6,0,0,1,4.61-2c.35,0,.82.12,1-.05s0-.69.08-1.05-.09-.46-.47-.45c-1.86.07-3.74.15-5.61.15-1.64,0-3.28-.08-4.93-.12-.4,0-.94-.2-1.14.06s-.05.77-.08,1.17.1.3.33.29a5.45,5.45,0,0,1,1.14.06,1.26,1.26,0,0,1,1,2,8.46,8.46,0,0,1-1.39,2q-4.59,5.1-9.16,10.16Zm-96.51-.39a16.48,16.48,0,0,0,.11,2,6.65,6.65,0,0,0,.14,1.08,17.8,17.8,0,0,0,6.64,11.4A19.46,19.46,0,0,0,365,240.82a18,18,0,0,0,12.73-7.8,18.8,18.8,0,0,0-3.29-25.39,19.32,19.32,0,0,0-21.21-2.41c-6.92,3.63-10.29,9.48-10.55,17.2Zm161.9-10.85v12a14.33,14.33,0,0,0,.25,2.69,7.2,7.2,0,0,0,1.67,3.52A5.38,5.38,0,0,0,515,228.1a10.5,10.5,0,0,0,.86-4.28v-25c0-.33-.09-.41-.42-.41H505c-.32,0-.39.09-.39.4q0,6.36,0,12.71ZM323.51,223.68l-.11-.16-7.47-13.46a10.39,10.39,0,0,1-1.11-2.56,1.66,1.66,0,0,1,.37-1.71,2,2,0,0,1,1.31-.43c.35,0,.82.15,1-.07s0-.68.07-1-.1-.48-.48-.46c-2,.07-4,.15-6,.15s-3.93-.09-5.89-.14c-.66,0-.67,0-.66.64,0,.29-.13.66.07.84s.51,0,.78.06h.28a3.51,3.51,0,0,1,2.76,1.27,15.55,15.55,0,0,1,1.5,2.29q5,8.93,10,17.86a1.37,1.37,0,0,1,.16.66v7.91a9.36,9.36,0,0,1-.12,1.49,2.08,2.08,0,0,1-1.78,1.88,6.85,6.85,0,0,1-1.28.12c-.39,0-.9-.18-1.14.07s0,.72-.08,1.09.11.4.41.38c1.68,0,3.36-.12,5-.14,2.32,0,4.64.06,7,.14.68,0,.68,0,.68-.65a4.51,4.51,0,0,1,0-.52c0-.29,0-.42-.36-.39a7.22,7.22,0,0,1-.93,0c-1.52,0-2.33-.57-2.67-1.8a4.84,4.84,0,0,1-.18-1.2v-9.65a1.09,1.09,0,0,1,.16-.49q4.2-7.81,8.39-15.65a26.33,26.33,0,0,1,2.06-3.56,2.66,2.66,0,0,1,1.88-1.14,15.8,15.8,0,0,1,1.82,0c.21,0,.28-.06.27-.28a8.34,8.34,0,0,1,0-1c0-.22,0-.3-.27-.28a8.47,8.47,0,0,0-1.14.05c-1.37.05-2.75.12-4.12.09s-2.86-.08-4.32-.14c-.29,0-.38.08-.36.36a7.22,7.22,0,0,1,0,.93c0,.2.06.27.28.27a8.7,8.7,0,0,1,1.53.05c1,.17,1.37.67,1.1,1.72a11.6,11.6,0,0,1-1,2.4q-2.81,5.39-5.62,10.74Zm-135,8.25a11.18,11.18,0,0,0,2.41-1.81,3.78,3.78,0,0,0-1.14-6.25,6,6,0,0,0-5,.1,3.86,3.86,0,0,0-2.14,4.77,6.71,6.71,0,0,0,1.45,2.59c.16.2.19.29-.07.44a8.79,8.79,0,0,0-1.58,1.11,4.59,4.59,0,0,0,1.65,7.9,7.3,7.3,0,0,0,7.09-1.21c.29-.23.42-.19.62.07s.62.67.92,1a.6.6,0,0,0,.49.21h3.63c-1.09-1.14-2.1-2.29-3.14-3.37a.46.46,0,0,1-.08-.65h0a7.44,7.44,0,0,0,.57-1.41c.13-.42.12-1,.39-1.2s.86-.07,1.3-.07c.21,0,.28-.07.27-.28v-2c0-.28-.1-.34-.35-.34H192.6c-.28,0-.36.08-.38.36a11.13,11.13,0,0,1-.71,3.27Zm-85.34-1.8-.1,0v-1.76c0-.24-.06-.32-.32-.32h-2.54c-.28,0-.34.08-.34.34v12.2c0,.24.06.33.31.32h2.47c.34,0,.42-.08.42-.42v-7.87a2,2,0,0,1,1.78-2.19,1.94,1.94,0,0,1,2.46,1.22,1.71,1.71,0,0,1,.1.49,5.18,5.18,0,0,1,.08,1v7.43c0,.32.08.41.4.4h2.43c.32,0,.37-.09.37-.39v-7.91a2,2,0,0,1,1.75-2.17,1.94,1.94,0,0,1,2.6,1.68,6.22,6.22,0,0,1,.08,1v7.43c0,.33.08.41.4.4H118c.32,0,.38-.1.38-.39v-7.75a7.07,7.07,0,0,0-.45-2.65,3.33,3.33,0,0,0-2-2.1,4.46,4.46,0,0,0-4.15.57,3.76,3.76,0,0,0-1.28,1.72,3.72,3.72,0,0,0-3.56-2.58A3.46,3.46,0,0,0,103.18,230.13ZM253,235.89a4.59,4.59,0,0,0-1.43.54,2,2,0,0,0-1,2,2,2,0,0,0,1.3,1.75c.12.05.33,0,.31.24s-.23.14-.35.18a2.29,2.29,0,0,0-1.9,1.95,2.45,2.45,0,0,0,1.28,2.65,5.39,5.39,0,0,0,.93.39,14.22,14.22,0,0,0,4.64.42,10.25,10.25,0,0,0,3.43-.57,3.38,3.38,0,0,0,2.29-2.32,4.84,4.84,0,0,0,.08-2,3,3,0,0,0-2.17-2.51,6.18,6.18,0,0,0-1.95-.32h-3.72a2.74,2.74,0,0,1-1.26-.22.85.85,0,0,1-.38-1.11,1.09,1.09,0,0,1,1-.7,9.07,9.07,0,0,0,2.94.09,4.94,4.94,0,0,0,3.27-1.58c1.33-1.57,1.27-4.82-.92-6.11-.14-.09-.24-.18-.19-.35s.2-.09.31-.1h2.14c.21,0,.29-.05.28-.26V226c0-.18-.05-.24-.23-.24H259.7a1.5,1.5,0,0,0-1.38.9,2,2,0,0,0-.16.95c0,.3,0,.42-.39.33a7.8,7.8,0,0,0-3.72,0,4,4,0,0,0-3.43,3.53,4,4,0,0,0,2.2,4.32Zm-40.3-29.27-.08-.05v-1.79c0-.2,0-.32-.28-.31h-2.63c-.21,0-.26.07-.26.28V217c0,.24.07.3.3.3h2.46c.36,0,.42-.11.42-.43v-7.8a2.08,2.08,0,0,1,1.83-2.28h.07a1.92,1.92,0,0,1,2.38,1.32,1.86,1.86,0,0,1,.07.34,5.63,5.63,0,0,1,.09,1v7.43c0,.35.09.43.42.42.79,0,1.57,0,2.35,0,.35,0,.42-.1.41-.43v-7.83a2.11,2.11,0,0,1,1.91-2.28h.19a1.91,1.91,0,0,1,2.25,1.48,2.54,2.54,0,0,1,0,.29,6.74,6.74,0,0,1,.08,1v7.39c0,.3.06.39.37.39h2.39c.34,0,.42-.1.42-.43v-7.75a7.49,7.49,0,0,0-.18-1.77,3.72,3.72,0,0,0-2.18-2.91,4.24,4.24,0,0,0-5.48,2.11s0,.11-.1.09a3.69,3.69,0,0,0-3.6-2.49A3.48,3.48,0,0,0,212.72,206.62Zm39.76-.06a.71.71,0,0,1-.24-.35,3.26,3.26,0,0,0-1.78-1.72,4.53,4.53,0,0,0-5.94,2.42l-.07.18a10.56,10.56,0,0,0-.06,7.43,4.29,4.29,0,0,0,3.69,3,3.73,3.73,0,0,0,4.27-2.29s0-.1.15-.07V217c0,.27.07.35.34.35h2.51c.29,0,.35-.1.35-.37V199.45c0-.29-.06-.39-.38-.39-.8,0-1.61,0-2.42,0-.31,0-.4.07-.4.4v5.93ZM34.14,238.81a4.39,4.39,0,0,0,1.6,1.84,4.54,4.54,0,0,0,6.16-1.81l.18-.38a10.64,10.64,0,0,0,.41-6.8,4.56,4.56,0,0,0-4.32-3.9A3.66,3.66,0,0,0,34.26,230s0,.1-.12.07V228.3c0-.21-.06-.27-.27-.27H31.24c-.24,0-.3.08-.3.3v17.15c0,.24.06.32.32.31h2.51c.31,0,.38-.08.38-.38v-6.6Zm179-8.72a3.81,3.81,0,0,0-1.75-1.92,4.53,4.53,0,0,0-6.06,2.06l-.08.16A10.42,10.42,0,0,0,205,238a4.4,4.4,0,0,0,4.07,3.17,3.76,3.76,0,0,0,3.88-2.24c0-.06,0-.16.17-.12v1.77c0,.23.06.3.3.29H216c.28,0,.3-.11.3-.33V223c0-.29-.1-.35-.36-.34h-2.43c-.35,0-.39.11-.39.41v6.62ZM28.64,206.67V199.5c0-.32-.09-.4-.4-.39H25.89c-.33,0-.43.07-.43.42V217c0,.34.11.43.44.42h2.34c.33,0,.4-.11.4-.42v-7.79a2.85,2.85,0,0,1,.05-.77,2.35,2.35,0,0,1,2.45-1.58,1.85,1.85,0,0,1,2,1.63.28.28,0,0,0,0,.09,7.56,7.56,0,0,1,.1,1.26v7.11c0,.32.06.44.42.43h2.34c.35,0,.42-.11.42-.43V209a7.07,7.07,0,0,0-.31-2,3.59,3.59,0,0,0-2.45-2.58c-1.84-.53-4.06-.14-4.95,2.15A1.09,1.09,0,0,1,28.64,206.67Zm91.84,0v-7.16c0-.3-.07-.39-.38-.38h-2.47c-.24,0-.31.06-.31.31V217c0,.27.08.35.34.34H120c.36,0,.48-.07.48-.46v-7.8a2.06,2.06,0,0,1,1.71-2.19c1.47-.39,2.54.15,2.86,1.44a3.72,3.72,0,0,1,.11.88v7.67c0,.39.11.47.47.46h2.29c.28,0,.39-.05.39-.37v-8.12A6.29,6.29,0,0,0,128,207a3.8,3.8,0,0,0-4.57-2.73,3.38,3.38,0,0,0-2.72,2.09.51.51,0,0,1-.27.32Zm38,8.36c.06.22.09.34.13.45a2.21,2.21,0,0,0,2.14,1.85c.57.05,1.14,0,1.71,0,.2,0,.26-.08.25-.27v-1.37c0-.89,0-.89-.91-.9h-.05c-.27.05-.33-.08-.33-.33v-5.25a10.36,10.36,0,0,0-.06-1.25,3.74,3.74,0,0,0-2.42-3.27,7.62,7.62,0,0,0-5.56,0,4.63,4.63,0,0,0-2.16,1.72c-.14.2-.14.32.06.49.47.39.94.8,1.38,1.23.23.24.32.18.51-.05a3.3,3.3,0,0,1,3.55-1.24,1.81,1.81,0,0,1,1.48,1.65,5.46,5.46,0,0,1,0,.57c0,.84,0,.85-.83.84a17.87,17.87,0,0,0-3.58.24,3.59,3.59,0,0,0-3.26,3.58,3.41,3.41,0,0,0,2.56,3.73,5.34,5.34,0,0,0,2.72.08,3.16,3.16,0,0,0,2.28-1.68c.12-.2.19-.44.35-.79Zm113.58.12c0,.14.07.28.11.43a2.21,2.21,0,0,0,2.07,1.72c.57,0,1.14,0,1.71,0,.2,0,.26-.07.26-.26v-1.57c0-.71,0-.71-.7-.71s-.57,0-.57-.57c0-2,.09-4.07-.05-6.09a3.72,3.72,0,0,0-2.49-3.43,7.67,7.67,0,0,0-5.46,0,4.73,4.73,0,0,0-2.19,1.71c-.14.2-.16.32,0,.5.47.39.94.8,1.38,1.23.23.23.32.19.51,0a3.3,3.3,0,0,1,3.55-1.24,1.77,1.77,0,0,1,1.45,1.41,8.59,8.59,0,0,1,.07,1.24c0,.34-.08.43-.42.42a17.88,17.88,0,0,0-4,.22,3.63,3.63,0,0,0-3.25,3.33A3.54,3.54,0,0,0,267,217.5a5.23,5.23,0,0,0,1.85.09,3.31,3.31,0,0,0,3.1-2.36.12.12,0,0,1,.11-.13h.06ZM52.21,235.25h3.92c.27,0,.39,0,.37-.35s0-.72,0-1.08a7.36,7.36,0,0,0-.78-3.19,5.36,5.36,0,0,0-5.27-2.9,5.4,5.4,0,0,0-5.34,3.83,8.91,8.91,0,0,0,0,5.68,5.26,5.26,0,0,0,4,3.74,7.39,7.39,0,0,0,5.14-.64,5.23,5.23,0,0,0,1.62-1.3c.16-.19.16-.3,0-.47-.43-.47-.86-.93-1.27-1.41-.19-.23-.29-.27-.49,0a3.61,3.61,0,0,1-1.93,1.33c-1.85.48-4.15-.08-4.22-2.86,0-.29,0-.4.37-.39C49.62,235.26,50.93,235.25,52.21,235.25Zm115.74,0h3.93c.28,0,.36-.08.35-.36a15.05,15.05,0,0,0-.07-1.77c-.32-2.86-2-5.15-5.32-5.38-2.9-.17-5.28,1.14-6.12,4.15a9.06,9.06,0,0,0,.05,5.21,5.33,5.33,0,0,0,4.12,3.9,7.61,7.61,0,0,0,4.75-.48,5.53,5.53,0,0,0,2-1.47.31.31,0,0,0,.07-.43.23.23,0,0,0-.07-.07c-.43-.46-.86-.93-1.27-1.41-.19-.22-.28-.22-.47,0a3.68,3.68,0,0,1-2.24,1.41c-2,.34-3.85-.43-3.93-3,0-.28.06-.37.35-.36C165.33,235.26,166.64,235.25,168,235.25Zm60.43,1.64a5.27,5.27,0,0,1-1.39,1.27,3.17,3.17,0,0,1-5-2.44c0-.38,0-.48.44-.47h7.72c.31,0,.4-.08.39-.38a18.75,18.75,0,0,0-.1-2c-.36-2.61-1.95-5-5.36-5.14a5.49,5.49,0,0,0-5.94,3.78,8.9,8.9,0,0,0,.06,5.94,5.24,5.24,0,0,0,3.94,3.53,7.49,7.49,0,0,0,4.67-.42A5.08,5.08,0,0,0,229.9,239c.09-.1.24-.2.08-.37C229.44,238.08,228.92,237.49,228.38,236.89Zm-90.23-25.2h4c.24,0,.34-.05.34-.31a15.74,15.74,0,0,0-.08-1.94,5.54,5.54,0,0,0-5.51-5.27,5.45,5.45,0,0,0-5.77,3.69,8.92,8.92,0,0,0,0,5.86,5.23,5.23,0,0,0,3.88,3.68,7.57,7.57,0,0,0,4.72-.36,5.54,5.54,0,0,0,2.14-1.54c.16-.19.18-.31,0-.5-.44-.46-.86-.93-1.27-1.41-.18-.21-.28-.24-.47,0a3.86,3.86,0,0,1-1.58,1.22c-2.32,1-4.48-.31-4.6-2.71,0-.3,0-.43.39-.41Zm-9.76,26.95c.06.21.1.38.14.57a2.22,2.22,0,0,0,2,1.67c.62,0,1.24,0,1.86,0,.18,0,.23-.06.23-.23v-1.41c0-.88,0-.9-.87-.87-.37,0-.43-.12-.43-.45v-5.86a4,4,0,0,0-3.08-4,8.39,8.39,0,0,0-3.89-.13,4.89,4.89,0,0,0-3.21,2c-.14.18-.16.3,0,.46.45.38.9.77,1.32,1.19.25.24.39.27.63,0a3.25,3.25,0,0,1,3.22-1.25,1.86,1.86,0,0,1,1.77,1.71,8.85,8.85,0,0,1,0,1.15c0,.21-.06.28-.27.27h-2.19a8.24,8.24,0,0,0-3.14.57c-2.83,1.23-2.46,5-.91,6.21a4.33,4.33,0,0,0,2.65.92c1.64.07,3.43-.46,4-2.42C128.29,238.72,128.32,238.7,128.39,238.64Zm111.48-25.31-.28.32a3.79,3.79,0,0,1-2.59,1.41c-1.89.16-3.43-.72-3.53-2.93,0-.33,0-.46.43-.46h7.76c.29,0,.37-.08.36-.36s0-.69,0-1.05a7.39,7.39,0,0,0-.8-3.16c-1.18-2.26-3.15-3-5.58-2.92a5.35,5.35,0,0,0-5,3.61,8.85,8.85,0,0,0,0,6.13,5.18,5.18,0,0,0,3.87,3.49,7.52,7.52,0,0,0,4.68-.37,5.51,5.51,0,0,0,2.16-1.54c.09-.11.25-.22.07-.4ZM52.43,210.87a9.37,9.37,0,0,0,.09,1.41,6.24,6.24,0,0,0,2,4A5.77,5.77,0,0,0,59,217.6a5.32,5.32,0,0,0,4.82-3.43,8.94,8.94,0,0,0,.47-5,5.59,5.59,0,0,0-5.6-5A5.52,5.52,0,0,0,53,207.73a8.2,8.2,0,0,0-.53,3.14Zm35.8,23.59a9.32,9.32,0,0,0-.08-1.4c-.36-2.72-2-5.12-5.47-5.32a5.58,5.58,0,0,0-6.05,4.1A9.85,9.85,0,0,0,76.4,236a5.91,5.91,0,0,0,11.31,1.54,8.24,8.24,0,0,0,.53-3.07ZM44.75,204.18A5.51,5.51,0,0,0,39,208.51a9.21,9.21,0,0,0,.08,5,5.58,5.58,0,0,0,1.62,2.65,5.79,5.79,0,0,0,4.66,1.4,5.35,5.35,0,0,0,4.85-3.83,9.32,9.32,0,0,0,.32-4.57,5.62,5.62,0,0,0-5.81-5Zm46.63,6.58a6.22,6.22,0,0,0-.08-1.29A6.1,6.1,0,0,0,89,205.29a6,6,0,0,0-4.32-1.09,5.28,5.28,0,0,0-4.52,3,8.63,8.63,0,0,0-.7,5.08A6.46,6.46,0,0,0,81,215.76a5.63,5.63,0,0,0,4.92,1.82,5.33,5.33,0,0,0,4.87-3.47A8.16,8.16,0,0,0,91.38,210.76Zm46.53,19.34v-1.74c0-.27-.06-.35-.34-.35h-2.51c-.28,0-.35.08-.35.36v12.16c0,.25,0,.35.33.34h2.43c.36,0,.44-.09.44-.45v-7.95a1.92,1.92,0,0,1,1.11-1.82,3.15,3.15,0,0,1,1.71-.3,1.67,1.67,0,0,1,1.57,1.14,3.87,3.87,0,0,1,.24,1.43v7.51c0,.33.05.47.43.45.78,0,1.56,0,2.35,0,.33,0,.42-.07.42-.41v-7.63a9.63,9.63,0,0,0-.13-1.61,3.81,3.81,0,0,0-3.64-3.48,3.65,3.65,0,0,0-3.87,2.19c0,.06,0,.15-.19.16Zm129.6,0v-1.74c0-.25,0-.35-.32-.35h-2.55c-.26,0-.31.08-.31.32v12.24c0,.27.1.3.33.3h2.47c.33,0,.38-.11.38-.41,0-2.58,0-5.14,0-7.75a2.16,2.16,0,0,1,1.93-2.33,2,2,0,0,1,2.69,1.8,5.8,5.8,0,0,1,.05.93v7.35c0,.3.05.42.39.41q1.21,0,2.43,0c.31,0,.38-.07.38-.38V232.9a9.63,9.63,0,0,0-.16-1.77,3.78,3.78,0,0,0-3.59-3.39,3.65,3.65,0,0,0-3.92,2.23C267.65,230,267.65,230.1,267.51,230.1Zm-79.2-25.92a6,6,0,0,0-3.12.65,3.69,3.69,0,0,0-2,3.5,3.37,3.37,0,0,0,2.28,3.32,6.36,6.36,0,0,0,1.36.37c.73.12,1.47.2,2.2.33a1.33,1.33,0,1,1,.06,2.66,4.26,4.26,0,0,1-4.14-1.36c-.26-.27-.39-.24-.62,0a15.83,15.83,0,0,1-1.31,1.28c-.28.25-.22.38,0,.61a6.83,6.83,0,0,0,6,2,5.51,5.51,0,0,0,2.91-1.1,3.78,3.78,0,0,0,.4-5.65,5.57,5.57,0,0,0-3.08-1.2,10,10,0,0,1-2.17-.4,1.24,1.24,0,0,1,.07-2.36,3.07,3.07,0,0,1,.67-.14,4.09,4.09,0,0,1,3.21,1.14c.21.2.32.19.51,0,.43-.46.88-.9,1.34-1.34.22-.19.24-.3,0-.52A6,6,0,0,0,188.31,204.18Zm-182.57,0a6.14,6.14,0,0,0-3.25.71c-2.47,1.37-2.4,5-.48,6.28a6.29,6.29,0,0,0,2.25.86c.82.16,1.66.18,2.47.39a1.23,1.23,0,0,1,1,.87A1.35,1.35,0,0,1,6.8,215l-.24,0a4.28,4.28,0,0,1-4.2-1.4c-.23-.24-.35-.2-.54,0-.45.46-.9.93-1.39,1.36-.28.24-.21.36,0,.57a6.74,6.74,0,0,0,5.71,2,5.69,5.69,0,0,0,3.15-1.15,3.78,3.78,0,0,0,.48-5.59,5.12,5.12,0,0,0-2.65-1.18c-.84-.09-1.66-.22-2.48-.39a1.27,1.27,0,0,1,.1-2.49,4,4,0,0,1,3.69,1c.2.18.31.21.51,0,.44-.47.9-.93,1.38-1.37.2-.19.2-.3,0-.5A6.07,6.07,0,0,0,5.74,204.18Zm231.53,23.55a5.64,5.64,0,0,0-3.63,1.15c-1.79,1.41-2,5.14.85,6.28a8.34,8.34,0,0,0,1.62.47,22.56,22.56,0,0,1,2.35.37,1.19,1.19,0,0,1,1,1.2,1.29,1.29,0,0,1-1,1.32,3.88,3.88,0,0,1-2.11,0,4.57,4.57,0,0,1-2.35-1.41c-.12-.12-.19-.26-.38-.07-.53.53-1.07,1.06-1.62,1.58-.13.13-.11.21,0,.32a7.92,7.92,0,0,0,1.19,1,7.17,7.17,0,0,0,5.26,1,4.82,4.82,0,0,0,3.26-1.77,3.65,3.65,0,0,0-.57-5.11,4,4,0,0,0-1-.56,8.65,8.65,0,0,0-1.68-.44,14.39,14.39,0,0,1-2.07-.33,1.28,1.28,0,0,1,.21-2.55,4.07,4.07,0,0,1,3.5,1.15c.2.19.29.17.47,0,.45-.47.89-.94,1.38-1.37.25-.23.17-.35,0-.57A6.29,6.29,0,0,0,237.27,227.73ZM97.6,212.15v-4.84c0-.26.07-.34.34-.34h2c.22,0,.31-.05.31-.29v-1.94c0-.24-.09-.29-.31-.29h-2c-.23,0-.3-.06-.3-.3v-2.21c0-.26.08-.32.32-.32h2c.2,0,.28-.05.28-.27v-2c0-.23-.09-.26-.29-.26H97.66a3,3,0,0,0-3.19,3.06c0,.64,0,1.29,0,1.94,0,.28-.09.37-.37.35H92.86c-.23,0-.34,0-.33.31v1.93c0,.21.06.29.27.28H94c.39,0,.51.1.51.51v9.41c0,.36.1.45.45.44h2.38c.28,0,.37-.08.37-.36C97.59,215.36,97.6,213.79,97.6,212.15Zm53.76,22.29V233a2.51,2.51,0,0,1,2-2.63,2.46,2.46,0,0,1,2.95,1.62c.09.26.22.12.33.07.69-.3,1.37-.62,2.07-.91.22-.1.26-.19.16-.42a4.75,4.75,0,0,0-2.17-2.36,6.29,6.29,0,0,0-3.65-.57,5.08,5.08,0,0,0-4.26,2.86,8.94,8.94,0,0,0-.57,6,5.4,5.4,0,0,0,2.51,3.74,6.35,6.35,0,0,0,4.41.7,4.81,4.81,0,0,0,3.75-2.86c.14-.31.15-.48-.22-.63a15,15,0,0,1-1.67-.8c-.31-.16-.45-.12-.57.21a1.7,1.7,0,0,1-.26.45,2.64,2.64,0,0,1-2.85,1.14,2.37,2.37,0,0,1-2-2.09,11,11,0,0,1,0-2ZM15.78,210.93c0-.54,0-1.07,0-1.61a2.54,2.54,0,0,1,2-2.54,2.47,2.47,0,0,1,3,1.6c.08.23.18.16.33.1.68-.31,1.37-.62,2.07-.91.25-.11.25-.23.15-.46a4.69,4.69,0,0,0-1.94-2.21,6.33,6.33,0,0,0-3.55-.72,5.31,5.31,0,0,0-4.9,3.64,9.55,9.55,0,0,0-.32,4.89,5.71,5.71,0,0,0,2.29,3.94,6.08,6.08,0,0,0,4.13.95,4.91,4.91,0,0,0,4.28-2.93c.18-.37.11-.53-.26-.68s-.83-.38-1.24-.57c-.23-.11-.48-.32-.69-.3s-.24.41-.39.61l-.28.39a2.64,2.64,0,0,1-2.81.87,2.32,2.32,0,0,1-1.82-2A11.14,11.14,0,0,1,15.78,210.93ZM69.44,235.7v4.8c0,.31.08.39.38.38h2.35c.37,0,.46-.1.46-.47v-9.49c0-.3.05-.42.39-.4H75c.24,0,.34-.05.33-.31v-1.9c0-.26-.09-.31-.33-.31h-2c-.21,0-.31,0-.31-.28v-2.28c0-.24.07-.3.3-.3H75c.19,0,.31,0,.3-.26v-2c0-.2-.07-.25-.26-.25-.85,0-1.71,0-2.55,0a3,3,0,0,0-2.94,2.69,14.48,14.48,0,0,0-.06,2.28c0,.29,0,.41-.37.39H67.86c-.19,0-.3,0-.29.25v2c0,.21.06.28.27.27H69.1c.3,0,.38.07.38.38,0,1.61,0,3.21,0,4.81Zm109.24-24.77v-3.59c0-.24.06-.33.31-.32h2c.23,0,.31-.06.31-.29v-1.94c0-.25-.07-.33-.32-.32h-2c-.27,0-.33-.09-.33-.34V201.3c0-.25,0-.36-.33-.35h-2.22c-.29,0-.33.1-.33.35v2.14a.92.92,0,0,1-.83,1h-1.08c-.21,0-.28.06-.28.27v2c0,.2.07.26.26.25h1.21c.4,0,.42.1.42.43V214a2.86,2.86,0,0,0,2.5,3.2,20,20,0,0,0,2.9.08c.2,0,.21-.12.21-.27v-2c0-.23-.07-.3-.3-.29H179c-.28,0-.35-.09-.35-.37C178.69,213.25,178.68,212.07,178.68,210.93Zm-66.14,0v-3.55c0-.26.07-.35.34-.35h2c.23,0,.31-.06.3-.29V204.8c0-.27-.1-.31-.33-.3h-2c-.27,0-.35-.07-.35-.34v-2.83c0-.27-.05-.37-.35-.36h-2.1c-.3,0-.39.06-.39.37a19.46,19.46,0,0,1,0,2.16.93.93,0,0,1-.91.94h0a7.8,7.8,0,0,1-1,0c-.21,0-.32,0-.31.28v2c0,.25.1.29.31.28H109c.38,0,.43.11.43.45v6.7a2.8,2.8,0,0,0,2.42,3.08,18.65,18.65,0,0,0,3,.09c.24,0,.2-.17.2-.32v-1.9c0-.24-.06-.33-.32-.32h-1.82c-.28,0-.33-.09-.33-.34,0-1.19,0-2.38,0-3.56Zm-45.78-3.88v7.64a2.51,2.51,0,0,0,2.2,2.53,13.44,13.44,0,0,0,2.46.1c.2,0,.2-.12.2-.27V216c0-.35.17-.9-.06-1.14s-.77-.1-1.14-.08-.48-.1-.48-.48V199.51c0-.36-.1-.45-.45-.44-.77,0-1.54,0-2.29,0-.33,0-.42.08-.42.42Q66.76,203.29,66.76,207.05Zm101.39,0H168V204.8c0-.24,0-.34-.31-.33h-2.55c-.25,0-.3.1-.3.33V217c0,.26.06.35.33.34h2.39c.34,0,.45-.07.45-.44v-7.22a1.86,1.86,0,0,1,.6-1.6,2.81,2.81,0,0,1,1.17-.49,10.58,10.58,0,0,1,2.1-.12c.16,0,.32,0,.32-.23v-2.54c0-.11,0-.19-.16-.23a3.52,3.52,0,0,0-3.43,1.49A5.26,5.26,0,0,0,168.15,207.09Zm-106,23.57H62v-2.32c0-.23,0-.32-.3-.32H59.16c-.25,0-.32.08-.32.32v12.23c0,.26.09.32.33.31h2.46c.3,0,.38-.06.38-.37v-7.22a1.87,1.87,0,0,1,1.72-2.12,9.63,9.63,0,0,1,2.21-.13c.16,0,.29,0,.29-.23v-2.58c0-.13,0-.19-.18-.2a3.44,3.44,0,0,0-3.76,2.16C62.22,230.36,62.17,230.5,62.12,230.66Zm31.69,0v-2.34c0-.22,0-.34-.29-.33H90.93c-.23,0-.3.06-.3.29v12.28c0,.24.08.29.3.29h2.51c.3,0,.38-.07.38-.37v-7.23a1.85,1.85,0,0,1,1.71-2.11,9.63,9.63,0,0,1,2.21-.14c.15,0,.29,0,.29-.21V228.2c0-.15,0-.22-.21-.2H97a3.24,3.24,0,0,0-3,2.28c0,.14,0,.3-.24.41Zm154.12,3.76v-6.06c0-.31-.09-.38-.38-.37H245c-.23,0-.3.06-.29.29v12.28c0,.23.06.29.29.29h2.51c.29,0,.38-.07.38-.37,0-2,0-4,0-6Zm10.86-23.55v6.06c0,.27,0,.37.34.37h2.47c.27,0,.37-.06.37-.35V204.79c0-.29-.11-.34-.37-.34h-2.39c-.33,0-.43.07-.43.41q0,3,0,6Zm-63.9,10h2a.73.73,0,0,0,.57-.23,6.8,6.8,0,0,0,2.25-5.32,1.65,1.65,0,0,0-1.14-1.66,2.33,2.33,0,0,0-2.43.51,2.22,2.22,0,0,0,.47,3.11,1.52,1.52,0,0,0,.41.24c.15.06.19.09.12.25a6.77,6.77,0,0,1-.61,1.2A11.3,11.3,0,0,1,194.89,220.83Zm63.62-20.05c0,1.29.54,1.83,1.83,1.83s1.87-.57,1.87-1.82a1.64,1.64,0,0,0-1.86-1.86C259.1,198.93,258.51,199.5,258.51,200.78Zm-14,23.58c0,1.28.54,1.82,1.85,1.81s1.87-.57,1.87-1.83-.57-1.81-1.88-1.81S244.51,223.07,244.51,224.36Z"/><path class="cls-3" d="M476.33,246.93V199c0-.41.11-.5.51-.5h17.48c.38,0,.46.11.46.46V225a19.49,19.49,0,0,0,.91,6.16,13.53,13.53,0,0,0,10.44,9.49,17.22,17.22,0,0,0,10-.57,13.51,13.51,0,0,0,8.37-9.21c.15-.47.27-1,.41-1.42v17.21c0,.27,0,.33-.33.33Z"/><path class="cls-3" d="M290.33,246.93a.86.86,0,0,0,.05-.57V199c0-.43.12-.53.53-.52.76,0,.76,0,.76.8v47.13c0,.17,0,.35,0,.52Z"/><path class="cls-4" d="M395.91,240.21l-6.19.17c-.32,0-.46,0-.42-.4a4.41,4.41,0,0,0,0-.89c0-.21.06-.27.28-.27a9.88,9.88,0,0,0,1.33,0,2.59,2.59,0,0,0,2.62-2.59,10.55,10.55,0,0,0,.09-1.49V209.26a7.39,7.39,0,0,0-.12-1.48,2.63,2.63,0,0,0-2.86-2.45h-1.09c-.18,0-.28,0-.27-.23V204c0-.22.1-.24.27-.23,2,.05,4,.13,6.06.15,1.66,0,3.31-.05,5-.08a36.69,36.69,0,0,1,5.93.1,9.62,9.62,0,0,1,8.38,9.6c0,4.39-2.33,7.56-6.64,9.15-.67.24-.67.24-.3.84,2.48,4.06,4.88,8.16,7.43,12.19a15.8,15.8,0,0,0,1.19,1.63,5.35,5.35,0,0,0,3.78,2l1.72.15c.18,0,.28,0,.28.27,0,.86,0,.85-.82.86-1.48,0-3,.05-4.44,0a7.59,7.59,0,0,1-5.9-3.26c-1.14-1.56-2.06-3.24-3.08-4.87-1.3-2.08-2.64-4.13-3.82-6.29a4.28,4.28,0,0,0-4.09-2.42c-.57,0-1.14,0-1.71-.07-.17,0-.26,0-.25.22v9.69a15.41,15.41,0,0,0,.28,3.25,2.18,2.18,0,0,0,2.49,2h1.37c.24,0,.3.07.29.3s0,.43,0,.64c0,.63,0,.63-.65.61Zm2.29-26.57v7.23c0,.38.09.57.48.61a14.8,14.8,0,0,0,6.32-.2,6.44,6.44,0,0,0,4.5-3.68,8.26,8.26,0,0,0,.07-6.29,7.89,7.89,0,0,0-6.5-5.45,20,20,0,0,0-4.57,0c-.28,0-.27.19-.27.39,0,2.44-.05,4.89-.05,7.34Z"/><path class="cls-4" d="M439.19,222.81l3-3.39q4.57-5.05,9.1-10.12a8.3,8.3,0,0,0,1.4-2,1.26,1.26,0,0,0-1-2,5.54,5.54,0,0,0-1.15-.05c-.23,0-.35,0-.32-.3s-.13-.93.07-1.17.76-.06,1.14,0c1.65,0,3.29.13,4.94.12,1.86,0,3.74-.09,5.61-.15.37,0,.51.08.46.45s.15.84-.08,1-.67.07-1,.05a6,6,0,0,0-4.6,2c-1.93,1.89-3.75,3.88-5.61,5.82s-3.81,4-5.71,6c-.15.16-.32.27-.09.57l14,16.27a10.12,10.12,0,0,0,2.67,2.25,6.08,6.08,0,0,0,3.32.66c.3,0,.41.07.38.38a3,3,0,0,0,0,.73c.07.41-.12.48-.49.45-1.72-.08-3.43-.18-5.14-.15-1.31,0-2.62.09-3.92.15-.35,0-.51,0-.58-.44a6.54,6.54,0,0,0-1.54-3.1c-1.52-1.94-3.2-3.74-4.82-5.61-2.36-2.72-4.75-5.43-7.12-8.15-.33-.37-.32-.38-.67,0l-2.1,2.23a.73.73,0,0,0-.23.57v8.28a12.21,12.21,0,0,0,.29,2.76,2.16,2.16,0,0,0,2.43,1.93h1.41c.27,0,.32.07.31.31a6,6,0,0,0,0,.85c0,.3-.05.41-.39.4-1.54-.06-3.09-.08-4.64-.13s-3.34,0-5,0c-1,0-2,.06-3,.1-.27,0-.36-.07-.34-.34s-.12-.89.08-1.14.72-.05,1.1-.08a5.51,5.51,0,0,0,.89-.1,2.37,2.37,0,0,0,2-1.89,8.85,8.85,0,0,0,.25-2.24V209.57a9.25,9.25,0,0,0-.15-1.82,2.59,2.59,0,0,0-2.78-2.42h-1.17c-.18,0-.24-.05-.23-.23V204c0-.21.09-.24.27-.23,2,.05,4,.13,6,.15,1.47,0,2.94,0,4.41-.08.78,0,1.56,0,2.34-.07.24,0,.3.07.29.29a6.46,6.46,0,0,0,0,.88c0,.3-.05.39-.36.39a11.94,11.94,0,0,0-2.07.06,1.84,1.84,0,0,0-1.49,1.14,7.52,7.52,0,0,0-.49,2.86c0,3.25,0,6.49,0,9.72C439.19,220.33,439.19,221.52,439.19,222.81Z"/><path class="cls-4" d="M342.68,222.42c.26-7.72,3.63-13.57,10.55-17.2a19.34,19.34,0,0,1,21.23,2.43,18.81,18.81,0,0,1,3.29,25.4A18,18,0,0,1,365,240.82a19.46,19.46,0,0,1-15.43-3.93,17.79,17.79,0,0,1-6.63-11.4c-.06-.36-.12-.72-.15-1.08A18.81,18.81,0,0,1,342.68,222.42Zm33.4.06a20.09,20.09,0,0,0-3.1-10.71,13.73,13.73,0,0,0-6.67-5.71,13.4,13.4,0,0,0-7.52-.52,12.23,12.23,0,0,0-9.14,7,19.27,19.27,0,0,0-1.72,7.08,20.71,20.71,0,0,0,2.72,12.24,14.51,14.51,0,0,0,6.67,6.24,13.12,13.12,0,0,0,7.68.77,11.9,11.9,0,0,0,9.18-6.85A21.68,21.68,0,0,0,376.08,222.48Z"/><path class="cls-3" d="M504.58,211.56V198.84c0-.31.07-.4.39-.4h10.52c.33,0,.42.08.42.42v25a10.63,10.63,0,0,1-.89,4.26,5.39,5.39,0,0,1-8.53,1.63,7.27,7.27,0,0,1-1.66-3.53,13.38,13.38,0,0,1-.26-2.68Q504.59,217.55,504.58,211.56Z"/><path class="cls-4" d="M323.51,223.68l1.82-3.48,5.61-10.74a11.19,11.19,0,0,0,1-2.38c.27-1-.06-1.54-1.1-1.71a7.91,7.91,0,0,0-1.54-.06c-.21,0-.28-.06-.27-.27a7.21,7.21,0,0,0,0-.93c0-.28.07-.37.35-.36,1.45.06,2.86.1,4.33.14s2.74,0,4.12-.09a8.55,8.55,0,0,0,1.14-.05c.22,0,.28.07.27.28a8.34,8.34,0,0,0,0,1c0,.22-.06.28-.27.28-.61,0-1.21,0-1.82,0a2.64,2.64,0,0,0-1.88,1.15,26.22,26.22,0,0,0-2.06,3.55q-4.21,7.83-8.39,15.65a1.09,1.09,0,0,0-.16.5v9.65a4.83,4.83,0,0,0,.18,1.19c.34,1.22,1.14,1.76,2.67,1.81a7.21,7.21,0,0,0,.93,0c.32,0,.4.09.36.38a4.69,4.69,0,0,0,0,.53c0,.66,0,.66-.68.64-2.32-.08-4.64-.18-7-.14-1.68,0-3.36.09-5,.15-.3,0-.44,0-.41-.39s-.12-.87.07-1.09.74-.07,1.15-.07a6.85,6.85,0,0,0,1.28-.12,2.08,2.08,0,0,0,1.78-1.88,8.24,8.24,0,0,0,.11-1.49v-7.91a1.14,1.14,0,0,0-.16-.65q-5-9-10-17.92a15,15,0,0,0-1.5-2.28,3.49,3.49,0,0,0-2.76-1.28h-.28c-.27,0-.64.09-.78-.06s-.06-.57-.07-.84c0-.65,0-.65.66-.64,2,.05,3.93.14,5.89.14s4-.08,6-.15c.38,0,.53.05.48.46s.11.8-.07,1-.65,0-1,.07a2,2,0,0,0-1.31.43,1.66,1.66,0,0,0-.37,1.71,10.57,10.57,0,0,0,1.1,2.59q3.72,6.74,7.46,13.44Z"/><path class="cls-3" d="M188.52,231.93l3,3.2a10.55,10.55,0,0,0,.73-3.28c0-.27.1-.36.38-.35h3.2c.25,0,.36.05.34.33v2.06c0,.21,0,.27-.26.28-.45,0-1-.19-1.3.07s-.27.78-.4,1.19a7.18,7.18,0,0,1-.57,1.41.46.46,0,0,0,.08.65h0c1,1.09,2,2.2,3.14,3.37h-3.63a.52.52,0,0,1-.48-.21c-.3-.35-.64-.67-.92-1s-.34-.3-.63-.07a7.31,7.31,0,0,1-7.08,1.22A4.6,4.6,0,0,1,181,235a4.66,4.66,0,0,1,1.41-2.15,9.24,9.24,0,0,1,1.59-1.11c.25-.15.23-.24.06-.44a6.88,6.88,0,0,1-1.5-2.59,3.86,3.86,0,0,1,2.14-4.77,6,6,0,0,1,5-.1,3.77,3.77,0,0,1,1.14,6.25A11,11,0,0,1,188.52,231.93Zm-1.72,6.59a4.51,4.51,0,0,0,2.74-.79c.22-.15.24-.24.05-.45-1-1.07-2-2.16-3-3.25-.78-.81-.78-.81-1.61-.05a2.7,2.7,0,0,0-.34,3.64,2.85,2.85,0,0,0,2.18.9Zm2.24-11a1.51,1.51,0,0,0-.69-1.41,2.1,2.1,0,0,0-2.35.13,1.85,1.85,0,0,0-.34,2.22,7.2,7.2,0,0,0,1.11,1.53c.12.15.23.13.37,0a6.48,6.48,0,0,0,1.3-1,2.1,2.1,0,0,0,.6-1.48Z"/><path class="cls-3" d="M103.18,230.13a3.46,3.46,0,0,1,3.64-2.4,3.72,3.72,0,0,1,3.54,2.58,3.75,3.75,0,0,1,1.28-1.71,4.44,4.44,0,0,1,4.15-.58,3.35,3.35,0,0,1,2,2.1,7.07,7.07,0,0,1,.45,2.65v7.76c0,.28,0,.39-.37.38h-2.43c-.31,0-.41-.07-.4-.39v-7.43a6.24,6.24,0,0,0-.07-1c-.28-1.54-1.3-1.92-2.61-1.67a2,2,0,0,0-1.74,2.16v7.92c0,.29-.06.39-.38.38h-2.43c-.31,0-.4-.07-.4-.39v-7.43a5.11,5.11,0,0,0-.07-1,2,2,0,0,0-2.08-1.81A2.48,2.48,0,0,0,103,232.6v7.88c0,.33-.08.42-.41.41h-2.47c-.26,0-.32-.08-.32-.32v-12.2c0-.25.07-.34.34-.33h2.55c.25,0,.32.07.31.32v1.76Z"/><path class="cls-3" d="M253,235.89l-.19-.1a4.2,4.2,0,0,1,1.23-7.86,8.06,8.06,0,0,1,3.72,0c.37.09.41,0,.39-.32a2.05,2.05,0,0,1,.16-1,1.51,1.51,0,0,1,1.37-.87c.68,0,1.37,0,2.06,0,.18,0,.23.06.23.23V228c0,.22-.07.28-.28.27h-2.14c-.11,0-.26-.07-.31.09s.05.27.19.36c2.19,1.28,2.25,4.53.92,6.1a4.91,4.91,0,0,1-3.27,1.59,9.66,9.66,0,0,1-2.94-.09,1.09,1.09,0,0,0-1,.7.85.85,0,0,0,.38,1.11,2.74,2.74,0,0,0,1.26.22h3.73a6.06,6.06,0,0,1,1.94.31,3,3,0,0,1,2.18,2.51,5,5,0,0,1-.08,2,3.39,3.39,0,0,1-2.29,2.33,10.5,10.5,0,0,1-3.43.57,14.31,14.31,0,0,1-4.65-.43,3.91,3.91,0,0,1-.92-.39,2.43,2.43,0,0,1-1.28-2.64,2.28,2.28,0,0,1,1.89-2c.12,0,.33,0,.35-.18s-.19-.19-.31-.24a2,2,0,0,1-1.3-1.75,2,2,0,0,1,1-2A4.59,4.59,0,0,1,253,235.89Zm2.86,5.15h-2.42a.66.66,0,0,0-.58.25,1.48,1.48,0,0,0,1,2.49,17.55,17.55,0,0,0,3.55.11,3.85,3.85,0,0,0,1.42-.27,1.3,1.3,0,0,0,.87-1,1.2,1.2,0,0,0-1.14-1.52,20,20,0,0,0-2.68-.11Zm2.33-9a1.73,1.73,0,0,0-1.24-2,3.61,3.61,0,0,0-2.11,0,1.67,1.67,0,0,0-1.23,1.54v.57a1.77,1.77,0,0,0,1.75,2C256.88,234.4,258.37,233.92,258.21,232.08Z"/><path class="cls-3" d="M212.72,206.62a3.5,3.5,0,0,1,3.6-2.45,3.7,3.7,0,0,1,3.59,2.5c.1,0,.09,0,.11-.09a4.25,4.25,0,0,1,5.48-2.12,3.78,3.78,0,0,1,2.18,2.92,7.46,7.46,0,0,1,.18,1.76v7.76c0,.33-.08.43-.42.42h-2.39c-.31,0-.38-.08-.38-.38v-7.39a5.73,5.73,0,0,0-.08-1,1.9,1.9,0,0,0-2-1.8l-.28,0a2.11,2.11,0,0,0-2.11,2.1,1.09,1.09,0,0,0,0,.18v7.84c0,.32-.06.44-.41.43-.78,0-1.57,0-2.35,0-.33,0-.43-.08-.42-.42v-7.43a4.94,4.94,0,0,0-.1-1,1.91,1.91,0,0,0-2.1-1.72,1.86,1.86,0,0,0-.34.06,2.08,2.08,0,0,0-1.91,2.22.2.2,0,0,0,0,.07v7.79c0,.33-.07.44-.42.43h-2.46c-.23,0-.31-.06-.31-.29V204.75c0-.2,0-.28.27-.28h2.63c.26,0,.29.11.28.32v1.79Z"/><path class="cls-3" d="M252.48,206.56v-7.07c0-.33.1-.41.41-.4h2.42c.32,0,.38.1.37.39V217c0,.27-.05.38-.34.37h-2.51c-.27,0-.35-.08-.35-.35v-1.75c-.1,0-.12,0-.14.07a3.79,3.79,0,0,1-4.27,2.29,4.29,4.29,0,0,1-3.68-3.05,10.56,10.56,0,0,1,.06-7.43,4.53,4.53,0,0,1,5.83-2.67l.18.07a3.24,3.24,0,0,1,1.78,1.71A.71.71,0,0,0,252.48,206.56Zm0,4.31v-2a1.73,1.73,0,0,0-.64-1.46,3,3,0,0,0-2.93-.51,2.49,2.49,0,0,0-1.71,2.14,15.29,15.29,0,0,0-.06,3.1,2.71,2.71,0,0,0,3.38,2.76,2.11,2.11,0,0,0,2-2.23v-.06Z"/><path class="cls-3" d="M34.14,238.81v6.61c0,.3-.07.39-.38.38H31.25c-.25,0-.31-.07-.31-.31V228.34c0-.22,0-.3.29-.3h2.63c.21,0,.28.06.27.28v1.77c.1,0,.11,0,.12-.07a3.68,3.68,0,0,1,3.91-2.25,4.58,4.58,0,0,1,4.33,3.9,10.68,10.68,0,0,1-.42,6.81,4.54,4.54,0,0,1-6,2.34l-.36-.17A4.39,4.39,0,0,1,34.14,238.81Zm0-4.4v2.07a1.76,1.76,0,0,0,1,1.65,3,3,0,0,0,3,.06,2.7,2.7,0,0,0,1.38-2.49v-2.42a2.76,2.76,0,0,0-2.53-3,3.35,3.35,0,0,0-.71,0,2.16,2.16,0,0,0-2.12,2.2v.09c0,.61,0,1.19,0,1.76Z"/><path class="cls-3" d="M213.11,230.09v-7c0-.3,0-.43.39-.42h2.43c.26,0,.36.05.36.35v17.52c0,.23,0,.34-.29.33h-2.59c-.24,0-.3-.06-.3-.29V238.8c-.14,0-.14.06-.16.13a3.75,3.75,0,0,1-3.89,2.23A4.36,4.36,0,0,1,205,238a10.39,10.39,0,0,1,.22-7.6,4.51,4.51,0,0,1,6-2.3l.18.08A3.83,3.83,0,0,1,213.11,230.09Zm0,4.35v-2.06a1.73,1.73,0,0,0-.66-1.41,2.81,2.81,0,0,0-4.6,1.55,16,16,0,0,0-.09,3.09,2.77,2.77,0,0,0,3.85,2.76,2,2,0,0,0,1.5-2.07Z"/><path class="cls-3" d="M28.64,206.67a.93.93,0,0,0,.13-.15c.9-2.29,3.12-2.68,5-2.15a3.58,3.58,0,0,1,2.44,2.56,7,7,0,0,1,.3,2v7.92c0,.33-.07.45-.42.44H33.71c-.36,0-.42-.11-.42-.44v-7.1a6.37,6.37,0,0,0-.08-1.31,1.83,1.83,0,0,0-2-1.72h-.09a2.37,2.37,0,0,0-2.46,1.59,3.46,3.46,0,0,0-.06.79v7.79c0,.31-.06.43-.39.42H25.9c-.33,0-.43-.08-.43-.42V199.49c0-.35.1-.43.43-.42.78,0,1.56,0,2.34,0,.32,0,.41.07.41.39v7.21Z"/><path class="cls-3" d="M120.47,206.63a.48.48,0,0,0,.23-.31,3.38,3.38,0,0,1,2.72-2.09c2.13-.29,3.9.49,4.57,2.73a6.29,6.29,0,0,1,.29,1.87V217c0,.32-.11.38-.39.37H125.6c-.36,0-.48-.08-.47-.46v-7.68a3.79,3.79,0,0,0-.11-.88c-.31-1.29-1.39-1.83-2.86-1.43a2,2,0,0,0-1.71,2.19v7.79c0,.39-.12.48-.48.47h-2.35c-.26,0-.34-.08-.34-.34V199.41c0-.25.07-.32.31-.32h2.47c.31,0,.39.08.38.38v6.67Z"/><path class="cls-3" d="M158.52,215c-.15.35-.23.58-.34.81a3.18,3.18,0,0,1-2.29,1.68,5.34,5.34,0,0,1-2.72-.08,3.42,3.42,0,0,1-2.56-3.74c.11-2,1.2-3.14,3.27-3.57a16.51,16.51,0,0,1,3.58-.24c.83,0,.83,0,.82-.84a5.63,5.63,0,0,0,0-.58,1.82,1.82,0,0,0-1.48-1.65,3.32,3.32,0,0,0-3.55,1.25c-.18.23-.28.29-.51.06-.44-.44-.91-.84-1.38-1.24-.2-.17-.2-.28-.05-.49a4.53,4.53,0,0,1,2.15-1.71,7.6,7.6,0,0,1,5.57,0,3.75,3.75,0,0,1,2.41,3.27,10.48,10.48,0,0,1,.07,1.25v5.25c0,.25.05.38.32.34h0c.91,0,.91,0,.91.89v1.38c0,.18-.05.27-.25.27h-1.71a2.21,2.21,0,0,1-2.14-1.86C158.61,215.33,158.58,215.21,158.52,215Zm-1.65-3.21a10.13,10.13,0,0,0-1.46.07,1.66,1.66,0,0,0-1.59,2.1,1.35,1.35,0,0,0,1,1.22,3.35,3.35,0,0,0,2.54-.26,1.53,1.53,0,0,0,.89-1.38V212c0-.23-.1-.26-.29-.25Z"/><path class="cls-3" d="M272.08,215.11a.12.12,0,0,0-.14.1h0a3.28,3.28,0,0,1-3.09,2.36,5.22,5.22,0,0,1-1.85-.09,3.55,3.55,0,0,1-2.86-4.06,3.63,3.63,0,0,1,3.26-3.33,17.85,17.85,0,0,1,4-.23c.34,0,.45-.08.42-.41a8.65,8.65,0,0,0-.08-1.25,1.75,1.75,0,0,0-1.44-1.41,3.33,3.33,0,0,0-3.56,1.24c-.18.24-.27.28-.5.06-.44-.43-.91-.84-1.38-1.24-.21-.18-.2-.3-.05-.5a4.75,4.75,0,0,1,2.19-1.71,7.67,7.67,0,0,1,5.46,0,3.73,3.73,0,0,1,2.49,3.43c.14,2,0,4.06.05,6.1,0,.57,0,.57.57.57s.69,0,.69.7V217c0,.19-.05.27-.25.27-.57,0-1.14,0-1.71,0a2.2,2.2,0,0,1-2.07-1.71C272.17,215.39,272.13,215.25,272.08,215.11Zm-1.63-3.32a10.84,10.84,0,0,0-1.14,0c-1.29.13-2.09.54-2,2a1.4,1.4,0,0,0,1,1.37,3.52,3.52,0,0,0,1.48.08,1.91,1.91,0,0,0,1.93-2.15c0-.43.15-1-.07-1.24s-.81,0-1.25-.07Z"/><path class="cls-3" d="M52.21,235.25H48.33c-.32,0-.38.11-.37.4.07,2.77,2.37,3.32,4.22,2.85a3.5,3.5,0,0,0,1.93-1.33c.2-.25.3-.22.49,0,.41.48.84,1,1.27,1.41.17.18.16.29,0,.47a5.26,5.26,0,0,1-1.62,1.31,7.45,7.45,0,0,1-5.14.64,5.27,5.27,0,0,1-4-3.75,8.87,8.87,0,0,1,0-5.67,5.41,5.41,0,0,1,5.34-3.84,5.43,5.43,0,0,1,5.27,2.91,7.36,7.36,0,0,1,.78,3.19v1.08c0,.36-.1.36-.37.35C54.83,235.25,53.52,235.25,52.21,235.25Zm-1.66-2h2c.7,0,.7,0,.64-.68a2.49,2.49,0,0,0-1.81-2.4A2.73,2.73,0,0,0,48,232.13a2.85,2.85,0,0,0-.09.92c0,.24.11.26.3.26Z"/><path class="cls-3" d="M168,235.25H164c-.28,0-.36.09-.35.37.09,2.52,1.94,3.28,3.94,2.95a3.73,3.73,0,0,0,2.24-1.41c.18-.23.28-.23.47,0,.4.48.83,1,1.26,1.41a.31.31,0,0,1,.08.43.27.27,0,0,1-.08.07,5.39,5.39,0,0,1-2,1.46,7.51,7.51,0,0,1-4.74.48,5.32,5.32,0,0,1-4.13-3.89,9.06,9.06,0,0,1,0-5.21c.83-3,3.21-4.33,6.12-4.15,3.31.2,5,2.54,5.32,5.37.06.57.05,1.19.06,1.77,0,.28-.06.38-.35.37C170.57,235.25,169.26,235.25,168,235.25Zm-1.65-2h2.35c.12,0,.25.05.29-.17a2.88,2.88,0,0,0-1.5-2.81,2.77,2.77,0,0,0-3.58,1.58,2.66,2.66,0,0,0-.18,1.18c0,.23.13.22.29.22Z"/><path class="cls-3" d="M228.38,236.89c.57.6,1.06,1.19,1.6,1.77.16.18,0,.27-.08.38a5.17,5.17,0,0,1-2.09,1.54,7.56,7.56,0,0,1-4.67.41,5.2,5.2,0,0,1-3.94-3.53,8.87,8.87,0,0,1-.06-5.93,5.49,5.49,0,0,1,5.94-3.79c3.43.19,5,2.55,5.36,5.15.09.65.07,1.32.1,2,0,.31-.08.39-.39.38h-7.72c-.39,0-.47.1-.44.48a3.17,3.17,0,0,0,5,2.44A5.43,5.43,0,0,0,228.38,236.89Zm-3.78-3.61h1.9c.77,0,.77,0,.7-.78a2.53,2.53,0,0,0-2.59-2.43,2.47,2.47,0,0,0-1.1.29,2.87,2.87,0,0,0-1.55,2.72c0,.25.18.2.31.2Z"/><path class="cls-3" d="M138.15,211.69h-3.88c-.34,0-.4.11-.39.41.12,2.4,2.29,3.68,4.6,2.71a3.85,3.85,0,0,0,1.59-1.23c.19-.24.3-.21.47,0,.41.49.84,1,1.27,1.41.18.19.17.32,0,.51a5.47,5.47,0,0,1-2.14,1.54,7.56,7.56,0,0,1-4.72.36,5.26,5.26,0,0,1-3.9-3.67,8.92,8.92,0,0,1,0-5.86,5.46,5.46,0,0,1,5.77-3.7,5.53,5.53,0,0,1,5.51,5.28c.07.64.05,1.29.07,1.93,0,.27-.1.31-.33.31Zm-1.66-2h2.34c.24,0,.36-.05.31-.31a1.4,1.4,0,0,1,0-.29,2.49,2.49,0,0,0-2.57-2.57,2.74,2.74,0,0,0-2.67,3c0,.23.14.21.29.21Z"/><path class="cls-3" d="M128.39,238.64c-.07.06-.1.08-.11.1-.57,2-2.37,2.5-4,2.43a4.4,4.4,0,0,1-2.65-.93c-1.55-1.24-1.92-5,.91-6.2a8.08,8.08,0,0,1,3.15-.58h2.18c.22,0,.28-.06.27-.27a8.7,8.7,0,0,0,0-1.14,1.86,1.86,0,0,0-1.76-1.72,3.28,3.28,0,0,0-3.23,1.25c-.24.31-.37.28-.63,0-.42-.42-.86-.81-1.32-1.19-.2-.16-.18-.27,0-.46a4.93,4.93,0,0,1,3.22-2.05,8.35,8.35,0,0,1,3.88.13,4,4,0,0,1,3.07,4v5.85c0,.33.06.47.43.45.87,0,.87,0,.87.87v1.41c0,.18-.05.23-.23.23h-1.86a2.22,2.22,0,0,1-2-1.67C128.49,239,128.45,238.85,128.39,238.64Zm-1.65-3.28h0a8.69,8.69,0,0,0-1.25,0c-1.37.16-1.93.67-1.83,2a1.39,1.39,0,0,0,1.11,1.36,3.51,3.51,0,0,0,2.1-.11,1.73,1.73,0,0,0,1.26-1.81v-1.14c0-.27,0-.39-.35-.37S127.09,235.36,126.74,235.36Z"/><path class="cls-3" d="M239.87,213.33l1.58,1.76c.18.18,0,.29-.07.4a5.39,5.39,0,0,1-2.14,1.55,7.51,7.51,0,0,1-4.68.37,5.18,5.18,0,0,1-3.86-3.49,8.85,8.85,0,0,1,0-6.13,5.34,5.34,0,0,1,5-3.61c2.43-.11,4.4.66,5.58,2.92a7.48,7.48,0,0,1,.77,3.18v1.05c0,.35-.07.37-.36.36H233.9c-.39,0-.44.13-.43.46.09,2.21,1.64,3.08,3.53,2.92a3.78,3.78,0,0,0,2.59-1.4Zm-3.79-3.62h2.28c.14,0,.31.06.32-.18a2.64,2.64,0,1,0-5.24-.07c0,.24.12.26.31.26Z"/><path class="cls-3" d="M52.44,210.87a8.15,8.15,0,0,1,.57-3.16,5.52,5.52,0,0,1,5.68-3.54,5.59,5.59,0,0,1,5.6,5,8.91,8.91,0,0,1-.48,5A5.29,5.29,0,0,1,59,217.58a5.75,5.75,0,0,1-4.45-1.31,6.28,6.28,0,0,1-2-4A8.18,8.18,0,0,1,52.44,210.87Zm3.31,0a14.76,14.76,0,0,0,.09,2.1,2.43,2.43,0,0,0,2.52,2.08,2.36,2.36,0,0,0,2.6-2,12.87,12.87,0,0,0,0-4.29,2.38,2.38,0,0,0-2.57-2.08,2.47,2.47,0,0,0-2.55,2.17,13.53,13.53,0,0,0-.09,2Z"/><path class="cls-3" d="M88.24,234.46a8.26,8.26,0,0,1-.53,3.08,5.51,5.51,0,0,1-5.87,3.61A5.59,5.59,0,0,1,76.4,236a9.74,9.74,0,0,1,.24-4.16,5.55,5.55,0,0,1,6-4.09c3.43.2,5.11,2.6,5.47,5.32A10.66,10.66,0,0,1,88.24,234.46Zm-3.34,0c0-.57,0-1.1,0-1.65a2.5,2.5,0,0,0-2.44-2.51,2.43,2.43,0,0,0-2.77,2.18,14.11,14.11,0,0,0,0,4,2.37,2.37,0,0,0,2.56,2.17,2.44,2.44,0,0,0,2.6-2.19,11.26,11.26,0,0,0,.05-2Z"/><path class="cls-3" d="M44.76,204.17a5.61,5.61,0,0,1,5.82,5,9.32,9.32,0,0,1-.31,4.57,5.36,5.36,0,0,1-4.86,3.83,5.79,5.79,0,0,1-4.66-1.4,5.58,5.58,0,0,1-1.62-2.65,9.21,9.21,0,0,1-.08-5A5.49,5.49,0,0,1,44.76,204.17Zm-2.67,6.68v1.57A2.5,2.5,0,0,0,44.48,215h.16a2.45,2.45,0,0,0,2.7-2.17.49.49,0,0,0,0-.12,21.23,21.23,0,0,0,0-3.74,2.63,2.63,0,0,0-5.18-.17A11.12,11.12,0,0,0,42.09,210.85Z"/><path class="cls-3" d="M91.38,210.76a8.16,8.16,0,0,1-.57,3.35,5.33,5.33,0,0,1-4.87,3.47A5.63,5.63,0,0,1,81,215.76a6.38,6.38,0,0,1-1.49-3.47,8.55,8.55,0,0,1,.68-5.08,5.26,5.26,0,0,1,4.51-3A6,6,0,0,1,89,205.29a6.06,6.06,0,0,1,2.26,4.18A6.22,6.22,0,0,1,91.38,210.76Zm-3.31.11a17.14,17.14,0,0,0-.08-2,2.62,2.62,0,0,0-5.18.13,17.42,17.42,0,0,0,0,3.82,2.43,2.43,0,0,0,2.54,2.26A2.46,2.46,0,0,0,88,212.9a15.25,15.25,0,0,0,.08-2Z"/><path class="cls-3" d="M137.91,230.1c.16,0,.16-.1.19-.17a3.63,3.63,0,0,1,3.86-2.19,3.82,3.82,0,0,1,3.65,3.48,10.79,10.79,0,0,1,.13,1.6v7.64c0,.34-.1.42-.43.41H143c-.39,0-.44-.12-.44-.45V232.9a4.07,4.07,0,0,0-.23-1.42,1.69,1.69,0,0,0-1.57-1.14,3.18,3.18,0,0,0-1.72.3,1.93,1.93,0,0,0-1.11,1.82v7.95c0,.36-.08.46-.44.45-.8,0-1.61,0-2.43,0-.28,0-.33-.09-.33-.34V228.36c0-.28.07-.36.36-.36h2.51c.27,0,.34.08.33.34C137.9,228.93,137.91,229.52,137.91,230.1Z"/><path class="cls-3" d="M267.51,230.1c.14,0,.14-.08.17-.13a3.65,3.65,0,0,1,3.92-2.23,3.78,3.78,0,0,1,3.59,3.39,10.57,10.57,0,0,1,.15,1.77v7.59c0,.31-.07.39-.37.38h-2.43c-.34,0-.39-.11-.39-.41v-7.35a7.26,7.26,0,0,0-.06-.93,2,2,0,0,0-2.68-1.8,2.16,2.16,0,0,0-1.9,2.34c.05,2.58,0,5.14,0,7.75,0,.3-.05.42-.39.41-.82,0-1.65,0-2.47,0-.23,0-.32,0-.32-.31V228.34c0-.24.05-.33.3-.32h2.55c.29,0,.33.1.32.34C267.51,228.94,267.51,229.52,267.51,230.1Z"/><path class="cls-3" d="M188.31,204.18a6.09,6.09,0,0,1,4.57,1.76c.23.22.2.33,0,.52-.47.44-.91.88-1.35,1.35-.18.2-.29.21-.5,0a4.13,4.13,0,0,0-3.22-1.15,2.53,2.53,0,0,0-.66.15,1.27,1.27,0,0,0-.07,2.41,10,10,0,0,0,2.17.4,5.57,5.57,0,0,1,3.08,1.2,3.78,3.78,0,0,1-.4,5.65,5.51,5.51,0,0,1-2.91,1.1,6.83,6.83,0,0,1-6-2c-.22-.23-.28-.36,0-.61a16.45,16.45,0,0,0,1.34-1.3c.23-.24.35-.27.62,0a4.26,4.26,0,0,0,4.14,1.36,1.33,1.33,0,0,0,1.29-1.36,1.31,1.31,0,0,0-1.35-1.29c-.73-.14-1.47-.22-2.2-.34a6.36,6.36,0,0,1-1.36-.37,3.37,3.37,0,0,1-2.28-3.32,3.66,3.66,0,0,1,2-3.49A6,6,0,0,1,188.31,204.18Z"/><path class="cls-3" d="M5.74,204.18A6.07,6.07,0,0,1,10.32,206c.2.2.2.3,0,.5-.48.44-.94.89-1.38,1.37-.2.21-.31.18-.51,0a4,4,0,0,0-3.69-1,1.26,1.26,0,0,0-.1,2.49c.83.18,1.67.32,2.51.42a5.22,5.22,0,0,1,2.63,1.18,3.8,3.8,0,0,1-.48,5.6,5.6,5.6,0,0,1-3.14,1.14,6.7,6.7,0,0,1-5.72-2c-.21-.22-.28-.35,0-.57.49-.42.94-.89,1.4-1.35.18-.2.3-.24.53,0A4.27,4.27,0,0,0,6.57,215a1.33,1.33,0,0,0,1.19-1.46,1.84,1.84,0,0,0,0-.25,1.23,1.23,0,0,0-1-.87c-.81-.22-1.65-.23-2.47-.39A6.29,6.29,0,0,1,2,211.2c-1.92-1.24-2-4.91.48-6.29A6.22,6.22,0,0,1,5.74,204.18Z"/><path class="cls-3" d="M237.27,227.73a6.28,6.28,0,0,1,4.72,1.75c.2.2.28.31,0,.57-.49.43-.93.89-1.38,1.36-.18.19-.27.21-.47,0a4.06,4.06,0,0,0-3.5-1.14,1.29,1.29,0,0,0-1.22,1.71,1.32,1.32,0,0,0,1,.84,17.84,17.84,0,0,0,2.07.33,7.42,7.42,0,0,1,1.68.44,3.63,3.63,0,0,1,2.12,4.68,4,4,0,0,1-.56,1,4.82,4.82,0,0,1-3.26,1.77,7.22,7.22,0,0,1-5.26-1,8.82,8.82,0,0,1-1.21-1.07c-.11-.12-.14-.2,0-.32.57-.52,1.09-1.05,1.62-1.58.19-.19.27-.06.38.06a4.52,4.52,0,0,0,2.35,1.42,3.88,3.88,0,0,0,2.11-.05,1.31,1.31,0,0,0,1-1.33,1.2,1.2,0,0,0-1-1.19,22.79,22.79,0,0,0-2.34-.37,8.44,8.44,0,0,1-1.63-.47c-2.85-1.14-2.64-4.88-.85-6.29A5.67,5.67,0,0,1,237.27,227.73Z"/><path class="cls-3" d="M97.6,212.15V217c0,.28-.09.36-.37.36H94.85c-.35,0-.46-.08-.45-.44v-9.42c0-.4-.1-.57-.51-.5a6.2,6.2,0,0,1-1.14,0c-.22,0-.28-.07-.28-.28v-1.94c0-.26.1-.31.33-.3H94c.28,0,.37-.07.36-.35,0-.65,0-1.3,0-1.94a3,3,0,0,1,3.19-3.06c.76,0,1.54,0,2.28,0,.2,0,.3,0,.29.26v2c0,.21-.07.28-.28.27h-2c-.24,0-.33.06-.33.32v2.21c0,.24.08.31.3.3h2c.21,0,.31.05.3.29v1.94c0,.24-.09.29-.31.29h-2c-.27,0-.34.08-.34.34C97.6,208.93,97.6,210.54,97.6,212.15Z"/><path class="cls-3" d="M151.36,234.46a11.34,11.34,0,0,0,.06,2,2.41,2.41,0,0,0,2,2.09,2.67,2.67,0,0,0,2.86-1.15,1.82,1.82,0,0,0,.26-.45c.1-.32.24-.37.57-.21a15,15,0,0,0,1.67.8c.36.15.36.33.22.64a4.81,4.81,0,0,1-3.75,2.85,6.35,6.35,0,0,1-4.41-.7,5.4,5.4,0,0,1-2.51-3.74,8.88,8.88,0,0,1,.57-6,5.09,5.09,0,0,1,4.26-2.86,6.3,6.3,0,0,1,3.65.57,4.77,4.77,0,0,1,2.16,2.36c.11.23.07.32-.16.42-.69.29-1.37.61-2.07.92-.11.05-.24.18-.33-.08a2.47,2.47,0,0,0-3-1.6,2.54,2.54,0,0,0-2,2.64C151.34,233.47,151.36,234,151.36,234.46Z"/><path class="cls-3" d="M15.78,210.93a10.9,10.9,0,0,0,.07,2.06,2.33,2.33,0,0,0,1.83,2,2.63,2.63,0,0,0,2.81-.87,4.73,4.73,0,0,1,.28-.39c.1-.13.14-.57.39-.61s.45.19.69.3c.41.19.81.41,1.24.57s.43.31.25.68a4.88,4.88,0,0,1-4.28,2.93,6.08,6.08,0,0,1-4.13-.93,5.71,5.71,0,0,1-2.29-3.94,9.55,9.55,0,0,1,.32-4.89,5.31,5.31,0,0,1,4.9-3.64,6.33,6.33,0,0,1,3.55.72,4.69,4.69,0,0,1,1.94,2.21c.1.23.1.35-.15.46-.7.29-1.39.6-2.07.91-.15.06-.25.13-.33-.1a2.47,2.47,0,0,0-3-1.6,2.54,2.54,0,0,0-2,2.53C15.76,209.85,15.78,210.39,15.78,210.93Z"/><path class="cls-3" d="M69.44,235.69v-4.8c0-.31-.08-.39-.38-.37H67.8c-.21,0-.27-.07-.27-.28v-2c0-.22.1-.26.29-.25h1.25c.32,0,.37-.1.37-.39a14.48,14.48,0,0,1,.06-2.28,3,3,0,0,1,2.94-2.69c.85,0,1.72,0,2.55,0,.19,0,.27.06.26.26v2c0,.24-.11.26-.3.26H72.89c-.23,0-.3.06-.3.3v2.28c0,.25.1.28.31.28h2c.24,0,.34.05.33.31v1.9c0,.26-.09.31-.33.31H73c-.34,0-.39.11-.39.4v9.49c0,.38-.09.48-.46.47-.78,0-1.57,0-2.35,0-.3,0-.38-.07-.38-.37C69.46,238.9,69.44,237.29,69.44,235.69Z"/><path class="cls-3" d="M178.68,210.93v3.52c0,.28.06.37.35.36h1.78c.23,0,.31.07.31.3v2c0,.15,0,.27-.21.27a21.76,21.76,0,0,1-2.91-.08,2.89,2.89,0,0,1-2.5-3.21v-6.62c0-.32-.06-.45-.41-.42s-.81,0-1.21,0c-.19,0-.27-.05-.26-.25v-2c0-.21.07-.29.28-.27h.92a.93.93,0,0,0,1-.86v-.14c0-.72,0-1.43,0-2.15,0-.24,0-.36.32-.35h2.23c.29,0,.32.11.32.35v2.86c0,.26.07.35.34.34h2c.25,0,.33.07.32.32v1.94c0,.23-.07.3-.3.29h-2c-.26,0-.32.08-.32.32Z"/><path class="cls-3" d="M112.54,210.89v3.55c0,.25,0,.36.33.35h1.83c.25,0,.32.08.31.32V217c0,.14,0,.32-.19.31a19.88,19.88,0,0,1-3-.08,2.82,2.82,0,0,1-2.42-3.09v-6.69c0-.35-.06-.49-.44-.45a11.41,11.41,0,0,1-1.17,0c-.21,0-.32,0-.31-.28v-2c0-.25.1-.29.31-.28a6.35,6.35,0,0,0,1,0,.92.92,0,0,0,.91-.93,19.64,19.64,0,0,0,0-2.17c0-.32.09-.39.39-.38h2.1c.29,0,.35.09.35.36v2.83c0,.27.08.35.34.34h2c.23,0,.35,0,.34.3v1.94c0,.23-.07.3-.3.3h-2c-.28,0-.34.08-.34.34C112.55,208.52,112.54,209.7,112.54,210.89Z"/><path class="cls-3" d="M66.76,207.05V199.5c0-.34.09-.43.42-.41.77,0,1.54,0,2.29,0,.35,0,.44.07.44.44v14.78c0,.38.09.51.48.48s.92-.18,1.15.08,0,.74.06,1.14,0,.7,0,1.05c0,.15,0,.27-.21.27a13.36,13.36,0,0,1-2.45-.1,2.51,2.51,0,0,1-2.18-2.53c-.05-1.41,0-2.83,0-4.24Z"/><path class="cls-3" d="M168.15,207.09a5.34,5.34,0,0,1,.5-1.15,3.52,3.52,0,0,1,3.43-1.49.2.2,0,0,1,.16.23v2.54c0,.26-.16.23-.32.23a10.58,10.58,0,0,0-2.1.12,2.83,2.83,0,0,0-1.17.5,1.88,1.88,0,0,0-.63,1.59v7.23c0,.37-.1.45-.45.44h-2.38c-.27,0-.34-.08-.34-.35V204.79c0-.23.05-.33.31-.33h2.55c.26,0,.31.09.31.33v2.29Z"/><path class="cls-3" d="M62.12,230.66c.05-.16.1-.32.16-.48A3.44,3.44,0,0,1,66,228c.15,0,.18.07.18.2v2.58c0,.23-.13.22-.29.22a10.23,10.23,0,0,0-2.21.14A1.87,1.87,0,0,0,62,233.28v7.22c0,.31-.09.38-.38.37H59.16c-.24,0-.32-.05-.32-.31V228.33c0-.24.06-.32.31-.32H61.7c.26,0,.31.09.3.32v2.32Z"/><path class="cls-3" d="M93.79,230.69c.19-.11.17-.27.21-.38A3.24,3.24,0,0,1,97,228h.81c.16,0,.21.06.21.21v2.59c0,.23-.14.21-.29.21a9.63,9.63,0,0,0-2.21.14,1.85,1.85,0,0,0-1.72,2.11v7.22c0,.31-.07.39-.38.38H90.9c-.23,0-.3-.06-.3-.3V228.31c0-.23.07-.29.3-.29h2.58c.28,0,.3.11.3.33C93.79,229.11,93.79,229.88,93.79,230.69Z"/><path class="cls-3" d="M247.93,234.44v6.06c0,.31-.09.38-.38.37H245c-.23,0-.3-.06-.29-.29V228.3c0-.23.06-.29.29-.29h2.51c.29,0,.38.07.38.37C247.92,230.4,247.93,232.42,247.93,234.44Z"/><path class="cls-3" d="M258.77,210.89v-6c0-.34.09-.42.42-.41h2.39c.27,0,.37,0,.37.35V217c0,.29-.09.36-.37.35h-2.47c-.29,0-.34-.1-.34-.37Z"/><path class="cls-3" d="M194.89,220.83a11.3,11.3,0,0,0,1.62-1.9,7.31,7.31,0,0,0,.61-1.22c.06-.16,0-.19-.13-.25a2.22,2.22,0,0,1-1.12-2.93,2.86,2.86,0,0,1,.24-.42,2.34,2.34,0,0,1,2.43-.51,1.63,1.63,0,0,1,1.14,1.66,6.76,6.76,0,0,1-2.25,5.32.73.73,0,0,1-.57.23Z"/><path class="cls-3" d="M258.51,200.78c0-1.27.57-1.83,1.84-1.83s1.86.57,1.86,1.84-.58,1.83-1.87,1.82S258.51,202.07,258.51,200.78Z"/><path class="cls-3" d="M244.51,224.36c0-1.29.57-1.83,1.84-1.83s1.88.57,1.88,1.81-.57,1.83-1.87,1.83S244.51,225.64,244.51,224.36Z"/><path class="cls-2" d="M398.18,213.64v-7.35c0-.2,0-.36.27-.38a18.89,18.89,0,0,1,4.57,0,7.87,7.87,0,0,1,6.51,5.45,8.3,8.3,0,0,1-.08,6.29,6.39,6.39,0,0,1-4.49,3.67,15,15,0,0,1-6.33.21c-.39-.07-.48-.23-.48-.62C398.19,218.46,398.18,216.07,398.18,213.64Z"/><path class="cls-2" d="M376.08,222.48a21.46,21.46,0,0,1-1.89,9.51,11.92,11.92,0,0,1-9.18,6.86,13.21,13.21,0,0,1-7.68-.78,14.53,14.53,0,0,1-6.68-6.22,20.75,20.75,0,0,1-2.71-12.23,19.26,19.26,0,0,1,1.71-7.08,12.24,12.24,0,0,1,9.15-7,13.35,13.35,0,0,1,7.51.51,13.75,13.75,0,0,1,6.67,5.72A20,20,0,0,1,376.08,222.48Z"/><path class="cls-2" d="M186.8,238.52a2.86,2.86,0,0,1-2.15-.9A2.7,2.7,0,0,1,185,234c.8-.76.8-.76,1.58.05,1,1.09,2,2.18,3,3.25.18.21.16.3-.06.45A4.5,4.5,0,0,1,186.8,238.52Z"/><path class="cls-2" d="M189,227.57a2.11,2.11,0,0,1-.61,1.48,6.21,6.21,0,0,1-1.3,1c-.14.09-.24.11-.37,0a8,8,0,0,1-1.11-1.53,1.84,1.84,0,0,1,.35-2.22,2.08,2.08,0,0,1,2.34-.13A1.5,1.5,0,0,1,189,227.57Z"/><path class="cls-2" d="M255.85,241a19.66,19.66,0,0,1,2.66.09c.9.16,1.31.7,1.15,1.52a1.29,1.29,0,0,1-.88,1,3.81,3.81,0,0,1-1.42.27,16.76,16.76,0,0,1-3.54-.11,1.48,1.48,0,0,1-.95-2.49.65.65,0,0,1,.57-.25C254.18,241,254.94,241,255.85,241Z"/><path class="cls-2" d="M258.21,232.08c.13,1.84-1.33,2.32-2.86,2.12a1.77,1.77,0,0,1-1.75-2v-.58a1.65,1.65,0,0,1,1.23-1.53,3.61,3.61,0,0,1,2.11,0A1.73,1.73,0,0,1,258.21,232.08Z"/><path class="cls-2" d="M252.48,210.87v1.78a2.1,2.1,0,0,1-1.92,2.28h-.05a2.72,2.72,0,0,1-3.39-2.76,15.3,15.3,0,0,1,.07-3.1,2.49,2.49,0,0,1,1.71-2.14,3,3,0,0,1,2.93.52,1.7,1.7,0,0,1,.64,1.45Z"/><path class="cls-2" d="M34.14,234.41V232.7a2.16,2.16,0,0,1,2-2.28h.09a2.76,2.76,0,0,1,3.2,2.21,2.93,2.93,0,0,1,0,.66v2.42a2.69,2.69,0,0,1-1.37,2.49,3,3,0,0,1-3-.06,1.74,1.74,0,0,1-1-1.65C34.15,235.79,34.15,235.1,34.14,234.41Z"/><path class="cls-2" d="M213.11,234.44v1.86a2,2,0,0,1-1.5,2.06,2.77,2.77,0,0,1-3.85-2.75,16.05,16.05,0,0,1,.09-3.1,2.83,2.83,0,0,1,3.35-2.17,2.75,2.75,0,0,1,1.25.63,1.72,1.72,0,0,1,.66,1.41Z"/><path class="cls-2" d="M156.87,211.78H158c.19,0,.3,0,.29.25v1.5a1.54,1.54,0,0,1-.92,1.4,3.3,3.3,0,0,1-2.54.25,1.33,1.33,0,0,1-1-1.21,1.66,1.66,0,0,1,1.59-2.11A10.13,10.13,0,0,1,156.87,211.78Z"/><path class="cls-2" d="M270.46,211.79c.44,0,1-.2,1.28.07s.07.82.07,1.25a1.93,1.93,0,0,1-1.94,2.15,3.71,3.71,0,0,1-1.48-.09,1.4,1.4,0,0,1-1-1.38c-.1-1.48.7-1.88,2-2C269.71,211.77,270.09,211.77,270.46,211.79Z"/><path class="cls-2" d="M50.55,233.28H48.27c-.19,0-.29,0-.3-.26a2.73,2.73,0,0,1,2.5-2.94,2.91,2.91,0,0,1,.93.09,2.49,2.49,0,0,1,1.81,2.4c0,.68,0,.68-.64.68Z"/><path class="cls-2" d="M166.3,233.28H164c-.16,0-.28,0-.3-.22a2.77,2.77,0,0,1,2.58-2.94,2.92,2.92,0,0,1,1.18.18,2.87,2.87,0,0,1,1.51,2.81c0,.22-.17.17-.29.17Z"/><path class="cls-2" d="M224.6,233.28h-2.29c-.13,0-.31.06-.31-.19a2.86,2.86,0,0,1,1.51-2.73,2.51,2.51,0,0,1,3.67,2.14c.07.78.07.78-.7.78Z"/><path class="cls-2" d="M136.49,209.71H134.2c-.15,0-.3,0-.3-.21a2.76,2.76,0,0,1,2.67-3,2.5,2.5,0,0,1,2.58,2.58,1.41,1.41,0,0,0,0,.29c0,.25-.07.32-.31.31Z"/><path class="cls-2" d="M126.74,235.36h1.05c.35,0,.36.09.34.36v1.14a1.71,1.71,0,0,1-1.26,1.81,3.5,3.5,0,0,1-2.1.11,1.38,1.38,0,0,1-1.1-1.36c-.1-1.34.46-1.85,1.82-2a8.69,8.69,0,0,1,1.25,0Z"/><path class="cls-2" d="M236.08,209.71h-2.29c-.18,0-.31,0-.3-.25a2.64,2.64,0,1,1,5.24.06c0,.25-.18.19-.32.19Z"/><path class="cls-2" d="M55.75,210.88a15,15,0,0,1,.08-2,2.48,2.48,0,0,1,2.56-2.17A2.39,2.39,0,0,1,61,208.78a13.42,13.42,0,0,1,0,4.29,2.37,2.37,0,0,1-2.61,2A2.42,2.42,0,0,1,55.86,213,13.25,13.25,0,0,1,55.75,210.88Z"/><path class="cls-2" d="M84.9,234.45a11.82,11.82,0,0,1-.05,2,2.44,2.44,0,0,1-2.6,2.19,2.37,2.37,0,0,1-2.56-2.17,14.11,14.11,0,0,1,0-4,2.41,2.41,0,0,1,2.77-2.18,2.5,2.5,0,0,1,2.44,2.51C84.93,233.34,84.9,233.9,84.9,234.45Z"/><path class="cls-2" d="M42.09,210.85a10.4,10.4,0,0,1,.07-2,2.63,2.63,0,0,1,5.18.17,21.23,21.23,0,0,1,0,3.74,2.45,2.45,0,0,1-2.59,2.3l-.12,0a2.51,2.51,0,0,1-2.54-2.47v-.15C42.07,211.9,42.09,211.38,42.09,210.85Z"/><path class="cls-2" d="M88.07,210.87a15.25,15.25,0,0,1-.07,2,2.47,2.47,0,0,1-2.65,2.15,2.42,2.42,0,0,1-2.53-2.26,16.27,16.27,0,0,1,0-3.82,2.62,2.62,0,0,1,5.17-.13A15.25,15.25,0,0,1,88.07,210.87Z"/></g></g></g></g></svg>