<svg xmlns="http://www.w3.org/2000/svg" viewBox="0 0 46.4 46.4"><defs><style>.cls-1{fill:#f16522;}</style></defs><g id="Layer_2" data-name="Layer 2"><g id="base_credits_logo" data-name="base, credits &amp; logo"><g id="sound_on" data-name="sound on"><path class="cls-1" d="M23.94,1a20.06,20.06,0,0,0-23,23,20.06,20.06,0,0,0,23,23,20.07,20.07,0,0,0,23-23A20.06,20.06,0,0,0,23.94,1ZM37.25,39.19a12.14,12.14,0,0,1-14.8,4.88A17.06,17.06,0,0,1,3.82,25.43c-2.12-6,0-11.6,4.93-14.75C7.48,9.58,18.9,1.9,24.64,3.78A17.5,17.5,0,0,1,44.12,23.69c1.75,5.59-.26,10.67-4.94,13.51" transform="translate(-0.74 -0.74)"/><path class="cls-1" d="M30.43,19.3c-.29-.76-.87-.76-1.16-.05-.07-.39-1,.55-.82.87-.41,0-.46.47-.05,1a4.9,4.9,0,0,1,1,2.8,5,5,0,0,1-1,2.81c-.41.55-.36,1,.05,1-.14.31.75,1.26.82.87.29.75.87.75,1.16-.05a5.51,5.51,0,0,0,1.65-4.65A5.55,5.55,0,0,0,30.43,19.3Z" transform="translate(-0.74 -0.74)"/><path class="cls-1" d="M32.64,15.33c-.16-.72-1,.22-.78.87-.53-.33-.48.19,0,1.06a8.78,8.78,0,0,1,2.71,6.68,8.82,8.82,0,0,1-2.71,6.68c-.53.87-.53,1.4,0,1.06-.21.65.62,1.59.78.88.16,1.08.74,1.08,1.16,0a10,10,0,0,0,3.53-8.62,9.82,9.82,0,0,0-3.53-8.61C33.38,14.24,32.8,14.24,32.64,15.33Z" transform="translate(-0.74 -0.74)"/><path class="cls-1" d="M23.13,11.7c.42-1-6.29,6.21-6.19,6.68-.1-.47-5.29-.47-4.79,0-1.34-.47-2,.22-1.36,1.35-.61-.35-.61,8.72,0,8.37-.61,1.19.07,1.82,1.36,1.36-.5.46,4.69.46,4.79,0-.1.46,6.61,7.74,6.19,6.72,1.31,2,3,1.39,2.37-.91.61.94.61-23.59,0-22.65C26.11,10.31,24.44,9.68,23.13,11.7Z" transform="translate(-0.74 -0.74)"/></g></g></g></svg>