<svg xmlns="http://www.w3.org/2000/svg" viewBox="0 0 420.67 121.66"><defs><style>.cls-1{stroke:#000;stroke-miterlimit:10;}</style></defs><g id="Layer_2" data-name="Layer 2"><g id="choice"><g id="title_ready_to_go" data-name="title, ready to go"><path class="cls-1" d="M36,55.29c-2.81,2.14-9.6,7.08-13.09,5.92-4.17-1.84-2.23-8.34-1.75-11.74.19-.87.39-1.74.49-2.52a1.39,1.39,0,0,0-2-1.45C14.18,48.7,4.77,65.67,3.9,78.09A1.74,1.74,0,0,1,.5,77.7,127,127,0,0,1,6.22,41.61a1.75,1.75,0,0,1,3.3,1.17,124.59,124.59,0,0,0-5,24.64c1.94-5.34,8.14-18.34,12.61-22.51,4.26-4.07,8.92-3.68,7.18,3-.49,3-4.18,10.48-.78,12.22,3.59,1,11.15-4.17,13.48-6.89.1-.19.39-.19.58-.09C38.33,53.84,36.29,54.9,36,55.29Z"/><path class="cls-1" d="M68.79,53.93A85.44,85.44,0,0,1,56.86,68.48c-3.88,3.59-8.44,7.18-14,7.76-10.28.3-11.16-10.38-8.25-17.94,2.24-6,6.31-12.61,12.81-14.45,4.36-1,8.24,1.06,5.72,5.82a19.63,19.63,0,0,1-8.54,8,11.53,11.53,0,0,1-7,1.35,1.32,1.32,0,0,1-.58-.19c-2,5.14-2.43,10.57.68,13.68,9.5,7.37,25.12-12.32,30-19.4a.64.64,0,0,1,.87-.2A.76.76,0,0,1,68.79,53.93ZM38.52,55.78c3.4.29,6.89-1.94,9.41-4.27a12,12,0,0,0,2.91-4.08.63.63,0,0,0-.48-.77,7.57,7.57,0,0,0-4.76,1C43.18,49,40.46,52.09,38.52,55.78Z"/><path class="cls-1" d="M108.27,53.84a87.53,87.53,0,0,1-5.73,8.53c-3.2,4-12.22,15.91-17.85,12-3.1-2.62-3.1-8.54-2.23-14A91.51,91.51,0,0,1,70.05,74c-1.94,1.46-4.46,3.4-7.08,2.43a5.33,5.33,0,0,1-2.91-4.17,16.55,16.55,0,0,1,1.16-7.86c2.72-7.37,8-16,15-19.79a7.36,7.36,0,0,1,10.37,3.3,1.71,1.71,0,0,1-3,1.65C78.1,38.9,60.54,65.67,63.74,72.46a1.57,1.57,0,0,0,1.85.87c3.68-1.26,10.86-11,13.48-14.06L82,55.49l2.91-3.79a1.71,1.71,0,0,1,2.42-.29,1.66,1.66,0,0,1,.49,2.14,27,27,0,0,0-2.52,5.91,28.41,28.41,0,0,0-1.17,6.4c-.19,2.43-.29,5.44,1.56,7.18,5.33,3.69,17.26-12.7,19.69-16.88a30.22,30.22,0,0,0,1.55-3A.76.76,0,0,1,108.27,53.84Z"/><path class="cls-1" d="M144.45,2.81c-5.34,15.62-10.09,31.53-14.26,47.53-3.11,12-6.11,24.16-7.08,36.48-.2,3-.59,6.11.48,8.82,2.62-.68,3.2,2.53,1.65,3-5.63,1.84-5-5.53-4.66-8.92,1.85-14.36,5.24-26.19,8.35-39a2,2,0,0,1-2.43-.48c-3.1,6.5-8,17.94-14.55,21.34-3.3,1.65-7.27-.49-8.34-3.88-1.75-5.43.68-11.25,3.78-15.72,3.79-5.62,10.87-10,17.66-6.69C131.16,31,136.2,16.39,141.25,1.75A1.84,1.84,0,0,1,143.57.58,1.67,1.67,0,0,1,144.45,2.81ZM123.69,48.4C115,44.52,107,55.87,106.42,63.54c-.09,2,.39,4.46,2.43,5.14,3.88.58,8.53-8.05,10.28-11.06S122.23,51.51,123.69,48.4Zm9-12.7c-1.55,3.78-3.1,7.56-4.75,11.35.48.48,1.16.77,1.45,1.35C130.48,44.14,131.55,39.87,132.71,35.7Z"/><path class="cls-1" d="M193.72,53.55a.87.87,0,0,1-.87.87,57.4,57.4,0,0,0-17.36,2.13,183.6,183.6,0,0,1-12.61,42.88c-3.59,7.56-7.76,16.2-15.33,20.37-9.51,4.36-14.36-3.2-14.07-12,.2-10,4.27-19.5,9.61-27.74a60.26,60.26,0,0,1,29.29-23.57c.29-2,.58-4,.87-6a77.2,77.2,0,0,0,.78-8.15c.78-5.91-2.23-4.56-2.91-4a36.76,36.76,0,0,0-2.42,3.1c-4.85,6.89-8.54,14.26-13.49,21.15a25.62,25.62,0,0,1-6,6.5,6,6,0,0,1-7.86,0c-4.07-3.88-2.62-11-1.16-15.82A25.6,25.6,0,0,1,142,49.18a1.67,1.67,0,1,1,2.91,1.65c-1.94,4-3.2,8.54-2.62,13,.2,1.65,1.36,3.49,3.2,3.3,1.85-.49,3.11-1.94,4.47-3.4,4.36-5.24,7.75-11.35,11.34-17.17,2.82-4.17,5.53-9.5,9.9-12.41a3.78,3.78,0,0,1,4.46.09c2.91,2.43,1.07,13,.78,16.69-.29,1.45-.49,2.91-.78,4.36a53.29,53.29,0,0,1,8.63-1.94,83,83,0,0,1,8.44-.68A1,1,0,0,1,193.72,53.55Zm-21.63,4.17a57.09,57.09,0,0,0-32,30.16c-3.2,7.38-5.62,15.81-4.17,23.87.58,3.49,2.91,7.27,7,6.88,8.54-1,14.26-13.29,17.56-20.27A185.07,185.07,0,0,0,172.09,57.72Z"/><path class="cls-1" d="M215.64,60.43c-5.14-.09-10.38-.09-15.52,0-1.74.1-3.39.1-5.14.29a1.16,1.16,0,1,1,0-2.32,181.36,181.36,0,0,0,20.57-.3A1.17,1.17,0,1,1,215.64,60.43Z"/><path class="cls-1" d="M273.75,32.69a.53.53,0,0,1-.49.49c-5.43-.49-10.86-.49-16.39-.49-9,.19-18.14.39-27.26.87-.87,2.62-1.55,5.24-2.33,7.86-2.71,10-4.94,20.27-5.53,30.75-.19,4.66-.48,10.86,2.33,14.74a3.4,3.4,0,0,0,4.46,1.17c8.44-4.27,17.66-25.51,20.08-34.73a.85.85,0,0,1,1.65.39,129.47,129.47,0,0,1-6.21,14.65c-2.81,5.53-13.38,28-21,19.4-6.6-8.83-.59-36.38,1.94-46.95.58-2.43,1.26-4.75,1.84-7.08-4.85.29-9.8.68-14.65,1.16-.39.1-.68.1-1.07.2a1.66,1.66,0,0,1-1.94,1,8.61,8.61,0,0,1-.87-.3,1.88,1.88,0,0,1,.39-3.58,43.83,43.83,0,0,1,7.27-.78c3.88-.19,7.76-.29,11.64-.39,1.26-4.36,2.72-8.73,4.27-13,1-2.52,1.94-4.94,3-7.37a1.78,1.78,0,0,1,2.33-.87,1.66,1.66,0,0,1,.77,2.33,144,144,0,0,0-7.56,18.81c8.82-.09,17.75,0,26.57.2,5.44.19,10.87.39,16.4,1.07A.44.44,0,0,1,273.75,32.69Z"/><path class="cls-1" d="M293.73,54c-4.08,3-8.93,4.75-13.78,6.11A67.2,67.2,0,0,1,271,62c-3.49,7.47-9.7,14.17-14.65,14.56-5.91.38-6.59-7.28-5.62-11.55a15.37,15.37,0,0,1,1.74-4.85,6.76,6.76,0,0,1-1.65-1.26c-3.1-2.91-2.32-8.05.39-11,4.46-5,13-7.86,19.11-4.07,4.85,3.1,4.07,10.67.87,17.65,8.64-1.26,17.46-4.75,21.63-8.44C293.53,52.48,294.41,53.55,293.73,54Zm-40.65,5.24a10.44,10.44,0,0,1,2.53-2.52,7.94,7.94,0,0,1,5.14-1.46,1.71,1.71,0,0,1-.29,3.4,5.37,5.37,0,0,0-4.27,2.23A28.9,28.9,0,0,0,267.34,62c2.53-4.55,4.17-9.6,3.11-13.19a4.76,4.76,0,0,0-1.75-2.42c-3.49-2.62-8.92-1.36-12.61.77C251.73,49.47,248.72,55.49,253.08,59.27Zm14,3.2a41,41,0,0,1-10.28-.68c-.29-.1-.68-.19-1-.29a13.45,13.45,0,0,0-1.55,9.7c.29.87.58,1.75,1.55,1.84A6.75,6.75,0,0,0,260,71.2C262.11,69.65,264.92,66.25,267.05,62.47Z"/><path class="cls-1" d="M315.84,60.43c-5.14-.09-10.38-.09-15.52,0-1.74.1-3.39.1-5.14.29a1.16,1.16,0,1,1,0-2.32,181.36,181.36,0,0,0,20.57-.3A1.17,1.17,0,1,1,315.84,60.43Z"/><path class="cls-1" d="M375.21,54.61a61.32,61.32,0,0,0-18.34.39,155,155,0,0,1-3,17c-3.79,14.74-8.73,31.13-18.72,43-3.88,4.56-10.29,8.34-16,4.85-7.66-5-6.5-17.66-4.46-25.32a56.6,56.6,0,0,1,27.16-34.82,54.58,54.58,0,0,1,13.39-5.24A76.61,76.61,0,0,0,355.71,44c-.19-3.78-1.55-10.38-6.5-6.4a24.18,24.18,0,0,0-4.46,5.43,24.82,24.82,0,0,1,4.85,4.36,1.69,1.69,0,1,1-2.52,2.24A20.94,20.94,0,0,0,343,46c-5.62,9.6-11.35,23-17.46,23.67-2.32.39-4.26-1.46-4.75-3.59-1.26-5.72.78-11.64,3.49-16.69,5.05-8.63,12.22-10.76,19.11-7.08a23.57,23.57,0,0,1,3.11-4.17c1.74-1.94,4.65-4.36,7.46-2.71,3.69,2.32,3.88,10.38,3,18.62a69,69,0,0,1,18.43-1.55A1.07,1.07,0,1,1,375.21,54.61Zm-20.08.78A61.06,61.06,0,0,0,348,57.52a48.34,48.34,0,0,0-14,8.25A50.66,50.66,0,0,0,321.18,82c-4.46,8.82-7.66,21-4.27,30.75,1.46,4.07,4.85,6.59,9.21,5.33,6.8-2.42,11.16-10.28,14.46-16.3C347.27,88.47,353.19,71.3,355.13,55.39ZM341.55,45.11c-3.3-1.75-7-2-10.48.87-4.46,3.78-7,9.6-7.85,15.23-.1,1.65-.39,5.82,1.84,5.92C329.52,66.93,336.21,53.93,341.55,45.11Z"/><path class="cls-1" d="M419.92,54c-4.07,3-8.92,4.75-13.77,6.11A67.34,67.34,0,0,1,397.22,62c-3.49,7.47-9.7,14.17-14.64,14.56-5.92.38-6.6-7.28-5.63-11.55a15.15,15.15,0,0,1,1.75-4.85,6.58,6.58,0,0,1-1.65-1.26c-3.11-2.91-2.33-8.05.39-11,4.46-5,13-7.86,19.11-4.07,4.85,3.1,4.07,10.67.87,17.65,8.63-1.26,17.46-4.75,21.63-8.44C419.73,52.48,420.6,53.55,419.92,54Zm-40.64,5.24a10.4,10.4,0,0,1,2.52-2.52,8,8,0,0,1,5.14-1.46,1.71,1.71,0,0,1-.29,3.4,5.39,5.39,0,0,0-4.27,2.23A29,29,0,0,0,393.54,62c2.52-4.55,4.17-9.6,3.1-13.19a4.74,4.74,0,0,0-1.74-2.42c-3.5-2.62-8.93-1.36-12.61.77C377.92,49.47,374.91,55.49,379.28,59.27Zm14,3.2A40.89,40.89,0,0,1,383,61.79c-.3-.1-.68-.19-1-.29a13.4,13.4,0,0,0-1.56,9.7c.29.87.59,1.75,1.56,1.84a6.75,6.75,0,0,0,4.17-1.84C388.3,69.65,391.11,66.25,393.25,62.47Z"/></g></g></g></svg>