<svg xmlns="http://www.w3.org/2000/svg" viewBox="0 0 918.43 85"><defs><style>.cls-1{fill:#fefdfd;}.cls-2{fill:#e21938;}.cls-3{fill:#010101;}</style></defs><g id="Layer_2" data-name="Layer 2"><g id="Layer_1-2" data-name="Layer 1"><path class="cls-1" d="M507.94,85Q254.31,85,.68,85c-.6,0-.68-.15-.68-.7Q0,42.5,0,.68C0,.09.14,0,.7,0q458.51,0,917,0c.61,0,.73.13.73.73q0,26.79,0,53.57c-.24.83-.46,1.66-.72,2.48-2.38,7.64-7,13.26-14.64,16.12a30,30,0,0,1-17.54,1c-9.17-2.1-15.31-7.64-18.27-16.61a34.25,34.25,0,0,1-1.59-10.77q0-22.8,0-45.6c0-.62-.14-.81-.8-.81q-15.3,0-30.59,0c-.71,0-.89.16-.89.87q0,41.6,0,83.2c0,.26,0,.51,0,.77H510.35a9.07,9.07,0,0,1-.06-.91q0-41.23,0-82.48c0-1.37,0-1.33-1.33-1.39-.73,0-.93.16-.93.91q0,41.45,0,82.91A1.66,1.66,0,0,1,507.94,85ZM692.7,73.23l10.59.3c1.13,0,1.13,0,1.13-1.07,0-.38,0-.76,0-1.13s-.08-.54-.5-.52c-.8,0-1.6,0-2.4,0-2.62,0-3.78-1-4.36-3.5a25.8,25.8,0,0,1-.48-5.68c0-5.52,0-11,0-16.54,0-.14,0-.29,0-.43,0-.31.13-.39.43-.38,1,.06,2,.14,3,.13a7.48,7.48,0,0,1,7.15,4.23c2.06,3.74,4.41,7.33,6.68,11,1.78,2.85,3.41,5.8,5.4,8.52a13.28,13.28,0,0,0,10.31,5.72c2.6.17,5.19.1,7.78.08,1.49,0,1.47,0,1.44-1.51,0-.4-.18-.45-.5-.47-1-.07-2-.16-3-.26a9.32,9.32,0,0,1-6.62-3.48,30.64,30.64,0,0,1-2.09-2.85c-4.43-7-8.63-14.23-13-21.33-.65-1.05-.64-1.05.53-1.48,7.54-2.74,11.57-8.28,11.61-16A16.84,16.84,0,0,0,711.28,9.76a65.43,65.43,0,0,0-10.38-.18c-2.9.06-5.8.17-8.7.15-3.53,0-7.07-.17-10.6-.27-.3,0-.49,0-.47.4,0,.64,0,1.28,0,1.91,0,.38.15.42.46.41.64,0,1.27,0,1.91,0,3,.13,4.44,1.37,5,4.28a13.36,13.36,0,0,1,.22,2.6q0,22.28,0,44.53a19,19,0,0,1-.16,2.61c-.38,2.88-1.72,4.23-4.59,4.53a18.13,18.13,0,0,1-2.33.06c-.37,0-.5.1-.48.47a9,9,0,0,1,0,1.56c-.08.62.17.72.74.7C685.49,73.42,689.12,73.33,692.7,73.23Zm75.74-30.44c0-2.27,0-4.34,0-6.41,0-5.67,0-11.35.06-17a13,13,0,0,1,.86-5,3.19,3.19,0,0,1,2.61-2,20.75,20.75,0,0,1,3.61-.11c.55,0,.68-.16.63-.67a11.45,11.45,0,0,1,0-1.55c0-.39-.08-.53-.5-.51-1.36.06-2.73.1-4.1.13-2.57.06-5.14.16-7.71.13-3.51,0-7-.16-10.53-.26-.31,0-.49,0-.47.41,0,.64,0,1.27,0,1.91,0,.31.09.41.4.4.69,0,1.37,0,2.05,0,2.93.16,4.32,1.38,4.87,4.24a16.89,16.89,0,0,1,.26,3.17V63.43a15.21,15.21,0,0,1-.43,3.92,4.17,4.17,0,0,1-3.54,3.3c-.51.09-1,.12-1.55.17-.67.06-1.59-.31-1.94.15s-.08,1.31-.13,2c0,.46.12.6.59.58,1.72-.07,3.44-.12,5.16-.16,2.92-.08,5.84-.17,8.77-.06,2.71.09,5.42.12,8.13.23.58,0,.72-.17.67-.7a10.58,10.58,0,0,1,0-1.49c0-.42-.07-.57-.53-.55-.83,0-1.65,0-2.48,0-2.52,0-3.64-.92-4.25-3.37a20.64,20.64,0,0,1-.5-4.83c0-4.83,0-9.66,0-14.49a1.32,1.32,0,0,1,.39-1c1.24-1.29,2.46-2.6,3.69-3.9.6-.63.59-.62,1.16,0,4.16,4.76,8.33,9.5,12.46,14.27,2.83,3.26,5.77,6.42,8.43,9.81a11.47,11.47,0,0,1,2.71,5.42c.1.7.38.81,1,.78,2.29-.11,4.57-.21,6.86-.26,3-.06,6,.11,9,.26.65,0,1-.07.86-.8a4.91,4.91,0,0,1,0-1.27c.06-.55-.14-.68-.66-.66a10.64,10.64,0,0,1-5.81-1.16,17.41,17.41,0,0,1-4.68-3.94q-12.25-14.22-24.46-28.47c-.41-.47-.11-.67.15-1,3.34-3.49,6.66-7,10-10.48s6.44-6.88,9.81-10.18a10.54,10.54,0,0,1,8.06-3.46c.61,0,1.43.22,1.78-.09s.06-1.2.14-1.83-.16-.81-.81-.79c-3.27.12-6.55.26-9.82.27-2.88,0-5.75-.15-8.63-.21-.7,0-1.65-.35-2,.09s-.08,1.35-.13,2.05c0,.48.17.53.57.52a9.27,9.27,0,0,1,2,.09c1.84.39,2.52,1.74,1.7,3.43a15,15,0,0,1-2.44,3.45Q781.75,28,773.76,36.86Zm-168.9-.68a30.83,30.83,0,0,0,.19,3.48c0,.63.15,1.26.26,1.89A31.14,31.14,0,0,0,611.6,67.42c7.95,6.3,17.1,8.28,27,6.89a31.45,31.45,0,0,0,22.28-13.65,32.89,32.89,0,0,0-5.76-44.44A33.84,33.84,0,0,0,618,12C605.89,18.35,600,28.6,599.54,42.11Zm283.32-19q0,10.47,0,20.92a23.91,23.91,0,0,0,.44,4.7,12.63,12.63,0,0,0,2.92,6.17c3.35,3.68,12,3.8,14.92-2.86a18.4,18.4,0,0,0,1.52-7.48c0-14.56,0-29.12,0-43.68,0-.59-.16-.73-.74-.73q-9.21,0-18.41,0c-.56,0-.69.16-.68.7Q882.87,12,882.86,23.1ZM566,44.3a2.8,2.8,0,0,1-.19-.28q-6.54-11.77-13.07-23.55A18.2,18.2,0,0,1,550.79,16a2.92,2.92,0,0,1,.65-3,3.44,3.44,0,0,1,2.3-.75c.6,0,1.43.26,1.75-.13s0-1.18.12-1.78-.18-.83-.85-.81c-3.51.13-7,.27-10.54.27s-6.88-.16-10.32-.24c-1.15,0-1.17,0-1.15,1.11,0,.51-.22,1.16.12,1.48s.89.08,1.36.1l.49,0a6.12,6.12,0,0,1,4.84,2.23,27.58,27.58,0,0,1,2.63,4Q551,34.09,559.71,49.74a2.19,2.19,0,0,1,.28,1.14q0,6.93,0,13.85a15.11,15.11,0,0,1-.2,2.6,3.65,3.65,0,0,1-3.11,3.29,12.16,12.16,0,0,1-2.25.21c-.68,0-1.58-.3-2,.13s-.06,1.26-.13,1.91.19.69.71.67c2.94-.1,5.89-.21,8.83-.26,4.06-.06,8.11.11,12.17.25,1.2,0,1.2,0,1.2-1.13a7,7,0,0,1,0-.92c.06-.5-.07-.73-.64-.67a12.5,12.5,0,0,1-1.62,0c-2.67-.08-4.08-1-4.67-3.16a7.78,7.78,0,0,1-.32-2.09c0-5.63,0-11.26,0-16.89a1.83,1.83,0,0,1,.28-.86q7.34-13.69,14.68-27.39a47.61,47.61,0,0,1,3.6-6.22,4.63,4.63,0,0,1,3.3-2,28.14,28.14,0,0,1,3.18-.08c.37,0,.49-.1.47-.48a17.22,17.22,0,0,1,0-1.76c0-.37-.09-.51-.47-.48-.68,0-1.37,0-2,.08-2.4.09-4.8.22-7.21.16s-5-.14-7.56-.24c-.5,0-.66.13-.62.62a12.67,12.67,0,0,1,0,1.63c0,.36.1.48.48.47a15,15,0,0,1,2.68.1c1.83.29,2.4,1.17,1.93,3A20.07,20.07,0,0,1,579,19.43q-4.9,9.41-9.83,18.79ZM329.77,58.74A19.64,19.64,0,0,0,334,55.58c3.43-3.6,2.45-9.07-2-10.94a10.52,10.52,0,0,0-8.78.18,6.76,6.76,0,0,0-3.76,8.34A12,12,0,0,0,322,57.7c.29.35.33.51-.12.76a16.66,16.66,0,0,0-2.77,1.95A8.06,8.06,0,0,0,322,74.24a12.81,12.81,0,0,0,12.41-2.13c.51-.4.73-.33,1.09.12.5.62,1.09,1.18,1.61,1.79a1,1,0,0,0,.85.37c1.32,0,2.65,0,4,0h2.35c-1.9-2-3.67-4-5.49-5.9a.81.81,0,0,1-.14-1.14,12.75,12.75,0,0,0,1-2.47c.22-.72.21-1.69.69-2.09s1.49-.12,2.27-.12c.37,0,.48-.12.47-.49,0-1.2,0-2.4,0-3.6,0-.49-.17-.58-.61-.58-1.86,0-3.73,0-5.59,0-.49,0-.62.14-.66.62A18.87,18.87,0,0,1,335,64.34ZM180.44,55.59l-.18-.06c0-1,0-2.06,0-3.08,0-.43-.11-.57-.55-.56-1.49,0-3,0-4.46,0-.48,0-.59.14-.59.59q0,10.68,0,21.35c0,.42.1.57.55.56,1.44,0,2.88,0,4.32,0,.59,0,.74-.14.73-.73,0-4.59,0-9.19,0-13.78a3.54,3.54,0,0,1,3.11-3.83,3.41,3.41,0,0,1,4.49,3,8.65,8.65,0,0,1,.13,1.68c0,4.34,0,8.67,0,13,0,.56.15.71.7.69,1.42,0,2.84,0,4.25,0,.56,0,.66-.16.66-.67q0-6.93,0-13.85a3.44,3.44,0,0,1,3.05-3.79c2.29-.44,4.07.23,4.56,2.93a9.55,9.55,0,0,1,.13,1.69c0,4.33,0,8.67,0,13,0,.57.15.71.7.69,1.42,0,2.83,0,4.25,0,.56,0,.65-.17.65-.67,0-4.53,0-9,0-13.57a12.28,12.28,0,0,0-.78-4.64,5.84,5.84,0,0,0-3.57-3.67,7.79,7.79,0,0,0-7.27,1,6.71,6.71,0,0,0-2.24,3,6.49,6.49,0,0,0-6.22-4.51A6.05,6.05,0,0,0,180.44,55.59ZM442.65,65.68a7.69,7.69,0,0,0-2.51.94,3.48,3.48,0,0,0-1.75,3.59,3.57,3.57,0,0,0,2.28,3.06c.21.09.58,0,.55.42s-.41.25-.62.31a4,4,0,0,0-3.32,3.42,4.27,4.27,0,0,0,2.24,4.63,7.94,7.94,0,0,0,1.62.68,25,25,0,0,0,8.13.75,18.46,18.46,0,0,0,6-1,5.92,5.92,0,0,0,4-4.07,8.44,8.44,0,0,0,.14-3.57,5.24,5.24,0,0,0-3.8-4.39,10.72,10.72,0,0,0-3.41-.55H445.7a4.79,4.79,0,0,1-2.21-.39,1.49,1.49,0,0,1-.67-1.94,1.92,1.92,0,0,1,1.83-1.23,16.13,16.13,0,0,0,5.14.16,8.57,8.57,0,0,0,5.71-2.77c2.33-2.75,2.23-8.44-1.6-10.69-.24-.15-.43-.31-.34-.62s.36-.15.55-.16h3.75c.36,0,.5-.09.49-.47q0-1.7,0-3.39c0-.31-.1-.42-.41-.41-1.2,0-2.41,0-3.61,0a2.61,2.61,0,0,0-2.41,1.57,3.51,3.51,0,0,0-.28,1.66c0,.52,0,.73-.68.57a13.78,13.78,0,0,0-6.51,0c-3.5.79-5.53,2.86-6,6.19a6.92,6.92,0,0,0,3.84,7.56ZM372.13,14.46l-.14-.09c0-1,0-2.09,0-3.13,0-.36,0-.56-.49-.55-1.53,0-3.06,0-4.6,0-.38,0-.47.13-.47.49q0,10.74,0,21.48c0,.41.13.52.53.51,1.43,0,2.88,0,4.31,0,.62,0,.73-.18.73-.75,0-4.55,0-9.1,0-13.64a3.62,3.62,0,0,1,3.33-4,3.37,3.37,0,0,1,4.28,2.91,9.37,9.37,0,0,1,.16,1.76c0,4.33,0,8.67,0,13,0,.6.16.75.74.73q2.06-.07,4.11,0c.61,0,.73-.18.72-.75,0-4.57,0-9.14,0-13.71a3.68,3.68,0,0,1,3.67-4,3.33,3.33,0,0,1,4,3.09,10.36,10.36,0,0,1,.14,1.76c0,4.31,0,8.62,0,12.93,0,.52.12.68.66.67,1.4,0,2.79,0,4.18,0,.6,0,.74-.16.74-.74,0-4.53,0-9,0-13.57a13.4,13.4,0,0,0-.32-3.09c-.51-2.26-1.55-4.16-3.81-5.1-3-1.23-7.88-.46-9.6,3.7,0,.07,0,.19-.18.16a6.45,6.45,0,0,0-6.29-4.37A6.09,6.09,0,0,0,372.13,14.46Zm69.58-.11a1.12,1.12,0,0,1-.42-.62,5.7,5.7,0,0,0-3.13-3,7.93,7.93,0,0,0-10.51,4.55,18.56,18.56,0,0,0-.11,13A7.53,7.53,0,0,0,434,33.6c3.53.49,6.41-1.11,7.48-4,0-.08.07-.18.25-.13,0,1,0,2,0,3.07,0,.46.13.61.6.61,1.46,0,2.92,0,4.39,0,.51,0,.62-.18.61-.65,0-2.15,0-4.29,0-6.43q0-12.09,0-24.16c0-.51-.1-.69-.65-.68-1.41.05-2.83,0-4.24,0-.55,0-.71.12-.71.69,0,3.46,0,6.92,0,10.38ZM59.62,70.79A7.59,7.59,0,0,0,62.42,74a7.94,7.94,0,0,0,11.09-3.82,18.64,18.64,0,0,0,.73-11.91c-1-4.23-3.52-6.44-7.57-6.82a6.42,6.42,0,0,0-6.84,3.93c0,.07,0,.18-.21.12,0-1,0-2.06,0-3.1,0-.37-.11-.48-.48-.48-1.53,0-3.07,0-4.6,0-.42,0-.51.14-.51.53q0,15,0,30c0,.42.1.56.55.55,1.46,0,2.93,0,4.39,0,.54,0,.66-.14.66-.67,0-3.63,0-7.26,0-10.88ZM372.81,55.52a6.74,6.74,0,0,0-3.07-3.35A7.92,7.92,0,0,0,359,56.05a18.21,18.21,0,0,0-.36,13.31,7.65,7.65,0,0,0,7.11,5.55,6.57,6.57,0,0,0,6.8-3.91c.05-.11.05-.29.29-.22,0,1,0,2.06,0,3.1,0,.4.11.52.52.51,1.51,0,3,0,4.53,0,.48,0,.52-.19.52-.58q0-15.33,0-30.67c0-.52-.18-.61-.64-.6-1.42,0-2.84,0-4.25,0-.6,0-.68.2-.68.72,0,3.86,0,7.72,0,11.59ZM50,14.55v-.92C50,9.74,50,5.86,50,2c0-.57-.16-.71-.71-.69-1.37,0-2.74,0-4.1,0-.58,0-.75.13-.75.73,0,6.83,0,13.66,0,20.49,0,3.33,0,6.65,0,10,0,.6.18.75.76.73,1.36,0,2.74,0,4.1,0,.58,0,.7-.19.69-.72,0-4.55,0-9.1,0-13.64a5.47,5.47,0,0,1,.09-1.34c.44-1.68,2.11-2.76,4.3-2.77a3.23,3.23,0,0,1,3.59,3A12,12,0,0,1,58.15,20q0,6.21,0,12.44c0,.56.11.78.73.76,1.37,0,2.74,0,4.1,0,.62,0,.74-.2.73-.76,0-4.62,0-9.24,0-13.86A12.14,12.14,0,0,0,63.17,15a6.27,6.27,0,0,0-4.28-4.52c-3.22-.92-7.1-.24-8.67,3.77A3.16,3.16,0,0,1,50,14.55Zm160.71-.08V13.6c0-3.89,0-7.77,0-11.66,0-.53-.12-.68-.66-.67-1.44,0-2.88,0-4.32,0-.43,0-.55.12-.55.55q0,15.37,0,30.75c0,.46.14.6.6.59,1.37,0,2.74,0,4.11,0,.62,0,.83-.13.83-.81,0-4.54,0-9.09,0-13.64a3.6,3.6,0,0,1,3-3.83c2.57-.69,4.45.25,5,2.51a6.13,6.13,0,0,1,.19,1.54c0,4.47,0,9,0,13.43,0,.67.2.82.83.8,1.34,0,2.69,0,4,0,.5,0,.69-.08.69-.64,0-4.74,0-9.47,0-14.21a11,11,0,0,0-.5-3.27c-1.22-3.92-4.31-5.29-8-4.78a5.89,5.89,0,0,0-4.76,3.66A.92.92,0,0,1,210.7,14.47Zm66.57,14.64c.11.38.16.58.22.78a3.87,3.87,0,0,0,3.75,3.24c1,.08,2,0,3,0,.35,0,.44-.15.43-.47,0-.8,0-1.6,0-2.4,0-1.56,0-1.56-1.59-1.57H283c-.48.08-.58-.15-.57-.59,0-3.06,0-6.13,0-9.19a17.59,17.59,0,0,0-.12-2.18,6.53,6.53,0,0,0-4.22-5.72,13.32,13.32,0,0,0-9.74-.05,8.14,8.14,0,0,0-3.77,3c-.26.36-.26.56.09.86.83.69,1.65,1.4,2.42,2.16.41.41.57.31.89-.09a5.79,5.79,0,0,1,6.22-2.18,3.18,3.18,0,0,1,2.59,2.89,8.22,8.22,0,0,1,.06,1c0,1.48,0,1.49-1.44,1.48a29.92,29.92,0,0,0-6.27.41c-3.61.76-5.52,2.77-5.71,6.26a6,6,0,0,0,4.48,6.54,9.37,9.37,0,0,0,4.76.14,5.57,5.57,0,0,0,4-2.94C276.88,30.13,277,29.71,277.27,29.11Zm198.75.2c.07.24.13.5.2.76a3.84,3.84,0,0,0,3.62,3c1,.08,2,0,3,.06.35,0,.45-.13.44-.46,0-.92,0-1.83,0-2.75,0-1.23,0-1.23-1.21-1.23-1,0-1,0-1-1,0-3.56.15-7.12-.09-10.67a6.52,6.52,0,0,0-4.36-6,13.43,13.43,0,0,0-9.55,0,8.24,8.24,0,0,0-3.83,3c-.26.35-.28.56.08.87.83.69,1.65,1.41,2.42,2.16.4.39.56.33.88-.09a5.8,5.8,0,0,1,6.22-2.18,3.1,3.1,0,0,1,2.53,2.47,14.42,14.42,0,0,1,.13,2.18c.06.59-.14.74-.73.73a31.28,31.28,0,0,0-7,.39c-3.45.72-5.42,2.72-5.7,5.83-.34,3.64,1.55,6.33,5,7.11a9.23,9.23,0,0,0,3.23.16c2.61-.3,4.6-1.46,5.42-4.13A.21.21,0,0,1,476,29.31ZM91.24,64.56c2.29,0,4.58,0,6.87,0,.47,0,.68-.08.64-.61s0-1.27,0-1.9a13,13,0,0,0-1.36-5.58c-1.95-3.71-5.19-5.13-9.22-5.08a9.46,9.46,0,0,0-9.36,6.71,15.76,15.76,0,0,0,0,9.93,9.22,9.22,0,0,0,7,6.55,13,13,0,0,0,9-1.11,9.11,9.11,0,0,0,2.84-2.29c.27-.32.28-.52,0-.82-.76-.81-1.51-1.63-2.22-2.47-.33-.4-.51-.46-.86,0a6.27,6.27,0,0,1-3.38,2.33c-3.24.84-7.27-.13-7.39-5,0-.51.09-.7.65-.69C86.71,64.58,89,64.56,91.24,64.56Zm202.54,0c2.29,0,4.58,0,6.87,0,.5,0,.64-.15.62-.64,0-1,0-2.07-.12-3.1-.56-5-3.51-9-9.31-9.41-5.08-.3-9.25,2-10.71,7.27a15.87,15.87,0,0,0,.08,9.11,9.31,9.31,0,0,0,7.22,6.82,13.17,13.17,0,0,0,8.3-.84,9.57,9.57,0,0,0,3.42-2.56.54.54,0,0,0,0-.88c-.76-.8-1.51-1.62-2.22-2.47-.33-.39-.5-.39-.82,0a6.49,6.49,0,0,1-3.92,2.47c-3.5.59-6.74-.75-6.89-5.16,0-.49.12-.65.62-.64C289.2,64.57,291.49,64.56,293.78,64.56Zm105.74,2.86a9.13,9.13,0,0,1-2.42,2.23c-4,2.34-8.41.19-8.76-4.27,0-.66.1-.84.77-.83,4.51,0,9,0,13.52,0,.53,0,.7-.13.67-.66-.05-1.15,0-2.31-.17-3.46-.63-4.58-3.41-8.71-9.37-9-4.93-.27-8.82,1.94-10.4,6.62a15.57,15.57,0,0,0,.1,10.39,9.14,9.14,0,0,0,6.9,6.17,13.17,13.17,0,0,0,8.17-.72,9.08,9.08,0,0,0,3.66-2.7c.15-.18.41-.35.13-.65C401.39,69.51,400.47,68.48,399.52,67.42ZM241.63,23.32c2.32,0,4.63,0,6.94,0,.41,0,.59-.08.58-.54,0-1.13,0-2.26-.13-3.39-.57-5.47-4.3-9-9.64-9.23-4.95-.16-8.59,2.14-10.1,6.47a15.59,15.59,0,0,0-.08,10.25A9.19,9.19,0,0,0,236,33.32a13.2,13.2,0,0,0,8.25-.63A9.71,9.71,0,0,0,248,30c.29-.33.31-.55,0-.88-.76-.8-1.5-1.62-2.22-2.47-.31-.37-.49-.42-.82,0a6.87,6.87,0,0,1-2.77,2.14c-4.06,1.69-7.84-.54-8.05-4.75,0-.52.08-.74.68-.72C237.1,23.34,239.37,23.32,241.63,23.32ZM224.55,70.48c.1.38.17.67.25,1a3.87,3.87,0,0,0,3.43,2.93c1.08.06,2.17,0,3.26,0,.31,0,.4-.1.4-.41,0-.82,0-1.65,0-2.47,0-1.53,0-1.57-1.52-1.52-.66,0-.76-.2-.76-.79,0-3.41,0-6.83,0-10.24a7,7,0,0,0-5.39-7.06,14.62,14.62,0,0,0-6.8-.23,8.63,8.63,0,0,0-5.63,3.59c-.24.32-.27.52.07.8.8.67,1.58,1.35,2.32,2.08.44.43.68.48,1.1-.07a5.69,5.69,0,0,1,5.64-2.18,3.25,3.25,0,0,1,3.09,3,15.48,15.48,0,0,1,.09,2c0,.37-.1.49-.47.48-1.28,0-2.55,0-3.83,0a14.28,14.28,0,0,0-5.51,1c-4.94,2.14-4.3,8.68-1.59,10.86a7.67,7.67,0,0,0,4.64,1.62c2.88.12,6-.82,7-4.25C224.37,70.63,224.43,70.6,224.55,70.48ZM419.63,26.2l-.48.56a6.67,6.67,0,0,1-4.54,2.46c-3.3.28-6-1.25-6.18-5.12,0-.58.08-.81.75-.8,3.47,0,6.94,0,10.4,0,1.07,0,2.13,0,3.19,0,.51,0,.65-.14.62-.63s0-1.22,0-1.84A12.83,12.83,0,0,0,422,15.29c-2.07-3.95-5.51-5.29-9.77-5.1a9.36,9.36,0,0,0-8.7,6.32,15.56,15.56,0,0,0,0,10.72,9.09,9.09,0,0,0,6.77,6.11,13.3,13.3,0,0,0,8.19-.65A9.49,9.49,0,0,0,422.27,30c.17-.2.44-.39.13-.71Zm-328-4.3a15.56,15.56,0,0,0,.16,2.46,10.94,10.94,0,0,0,3.49,7,10.09,10.09,0,0,0,7.78,2.3,9.3,9.3,0,0,0,8.43-6,15.75,15.75,0,0,0,.83-8.67c-.82-5.3-4.55-8.64-9.8-8.8-4.76-.14-8.32,2.08-9.94,6.2A14.51,14.51,0,0,0,91.64,21.9Zm62.65,41.28a18.46,18.46,0,0,0-.15-2.46c-.63-4.75-3.56-8.95-9.57-9.3-5.08-.29-9.1,2.19-10.58,7.16a17,17,0,0,0-.41,7.27c.73,5.29,4.18,8.66,9.51,9,4.59.32,8.51-1.73,10.28-6.31A14.36,14.36,0,0,0,154.29,63.18Zm-76.09-53c-5.1,0-8.72,2.71-10,7.59a16.17,16.17,0,0,0,.14,8.78,9.87,9.87,0,0,0,2.84,4.64,10.12,10.12,0,0,0,8.15,2.44,9.35,9.35,0,0,0,8.5-6.69,16.36,16.36,0,0,0,.55-8A9.82,9.82,0,0,0,78.2,10.17ZM159.79,21.7a11.65,11.65,0,0,0-.15-2.26,10.65,10.65,0,0,0-3.95-7.31,10.47,10.47,0,0,0-7.56-1.91,9.22,9.22,0,0,0-7.9,5.27A15,15,0,0,0,139,24.38a11.24,11.24,0,0,0,2.6,6.07,9.86,9.86,0,0,0,8.61,3.19,9.35,9.35,0,0,0,8.53-6.08A14.35,14.35,0,0,0,159.79,21.7Zm81.42,33.85c0-1,0-2,0-3.06,0-.46-.11-.61-.59-.6-1.46,0-2.92,0-4.39,0-.5,0-.62.14-.62.63q0,10.63,0,21.27c0,.45.09.61.58.6,1.42,0,2.84,0,4.25,0,.63,0,.78-.15.77-.78,0-4.64,0-9.28,0-13.92a3.35,3.35,0,0,1,1.94-3.18,5.48,5.48,0,0,1,3-.53,2.94,2.94,0,0,1,2.75,2,6.78,6.78,0,0,1,.41,2.49c0,4.38,0,8.76,0,13.15,0,.58.09.82.76.79,1.36-.06,2.73-.05,4.1,0,.58,0,.75-.12.75-.72,0-4.45,0-8.91,0-13.36a17.66,17.66,0,0,0-.23-2.81c-.59-3.63-2.84-5.78-6.38-6.09a6.36,6.36,0,0,0-6.76,3.83C241.49,55.36,241.5,55.53,241.21,55.55Zm226.79,0c0-1,0-2,0-3.06,0-.43-.06-.61-.56-.6-1.49,0-3,0-4.46,0-.45,0-.54.14-.54.56q0,10.71,0,21.41c0,.47.17.53.57.53,1.44,0,2.88,0,4.32,0,.59,0,.68-.19.68-.71,0-4.53.05-9,0-13.57a3.77,3.77,0,0,1,3.37-4.07c2.63-.52,4.32.6,4.7,3.15a10.93,10.93,0,0,1,.1,1.62q0,6.42,0,12.86c0,.52.09.74.68.72,1.42-.05,2.84-.05,4.25,0,.54,0,.67-.13.66-.66,0-4.43,0-8.86,0-13.29a17.92,17.92,0,0,0-.27-3.09c-.63-3.54-2.87-5.66-6.28-5.93a6.38,6.38,0,0,0-6.86,3.89C468.25,55.41,468.25,55.55,468,55.55ZM329.4,10.18a10.45,10.45,0,0,0-5.46,1.15,6.44,6.44,0,0,0-3.46,6.12,5.88,5.88,0,0,0,4,5.8,11.59,11.59,0,0,0,2.37.66c1.28.21,2.57.35,3.85.58a2.32,2.32,0,0,1,.11,4.64,7.47,7.47,0,0,1-7.25-2.37c-.46-.48-.68-.43-1.08,0A29.47,29.47,0,0,1,320.19,29c-.5.43-.39.67,0,1.07,2.87,3,6.45,3.89,10.46,3.49a9.56,9.56,0,0,0,5.09-1.92c3.15-2.45,3.52-7.34.7-9.88a9.84,9.84,0,0,0-5.38-2.11,17,17,0,0,1-3.81-.7,2.07,2.07,0,0,1-1.44-2.12,2.1,2.1,0,0,1,1.57-2,4.21,4.21,0,0,1,1.17-.25,7.16,7.16,0,0,1,5.62,2c.37.34.56.33.89,0,.76-.81,1.54-1.59,2.35-2.35.38-.34.42-.53,0-.92A10.65,10.65,0,0,0,329.4,10.18Zm-319.47,0a10.76,10.76,0,0,0-5.69,1.24c-4.33,2.4-4.21,8.82-.84,11a10.94,10.94,0,0,0,3.93,1.5c1.43.28,2.91.31,4.32.69a2.11,2.11,0,0,1,1.7,1.52,2.34,2.34,0,0,1-2,3A7.5,7.5,0,0,1,4,26.69c-.4-.43-.6-.35-.93,0-.8.81-1.58,1.63-2.44,2.37-.49.42-.36.64,0,1,2.74,2.9,6.18,3.83,10,3.55a9.86,9.86,0,0,0,5.51-2c3.11-2.4,3.53-7.24.84-9.79a9.08,9.08,0,0,0-4.65-2.07A43.68,43.68,0,0,1,8,19.08a2.22,2.22,0,0,1,.17-4.36,7,7,0,0,1,6.46,1.84c.35.31.55.37.89,0,.77-.83,1.58-1.63,2.41-2.4.36-.34.35-.52,0-.87A10.6,10.6,0,0,0,9.93,10.18ZM415.08,51.4a9.89,9.89,0,0,0-6.35,2c-3.13,2.48-3.47,9,1.49,11a14.66,14.66,0,0,0,2.84.82c1.37.25,2.77.27,4.11.65a2.09,2.09,0,0,1,1.77,2.09,2.28,2.28,0,0,1-1.72,2.32,6.94,6.94,0,0,1-3.7.09,8,8,0,0,1-4.11-2.48c-.2-.21-.33-.45-.66-.12-.93.94-1.88,1.86-2.84,2.77-.23.22-.19.36,0,.56A14,14,0,0,0,408,72.94a12.58,12.58,0,0,0,9.2,1.79,8.45,8.45,0,0,0,5.7-3.1,6.36,6.36,0,0,0-2.72-9.92,13.7,13.7,0,0,0-2.94-.77,28,28,0,0,1-3.63-.58,2.27,2.27,0,0,1-1.76-1.46c-.46-1.54.39-2.79,2.14-3a7.08,7.08,0,0,1,6.11,2c.35.34.52.3.83,0,.78-.82,1.56-1.64,2.41-2.39.45-.41.31-.61,0-1A11,11,0,0,0,415.08,51.4ZM170.67,24.14c0-2.82,0-5.65,0-8.48,0-.45.12-.6.59-.59,1.16,0,2.31,0,3.47,0,.38,0,.55-.09.54-.51q0-1.7,0-3.39c0-.42-.15-.52-.53-.51-1.18,0-2.36,0-3.54,0-.4,0-.53-.11-.53-.52,0-1.29,0-2.59,0-3.88,0-.45.15-.56.57-.55,1.18,0,2.36,0,3.54,0,.36,0,.49-.1.49-.48,0-1.17,0-2.35,0-3.53,0-.4-.15-.46-.5-.46-1.34,0-2.69,0-4,0-3.35.13-5.31,2-5.58,5.36-.08,1.12-.07,2.26-.05,3.39,0,.5-.15.65-.64.62-.71,0-1.42,0-2.12,0-.41,0-.6.06-.58.53,0,1.13,0,2.26,0,3.39,0,.36.1.5.48.49.66,0,1.32,0,2,0s.89.17.89.88c0,5.49,0,11,0,16.47,0,.64.18.79.79.77,1.39,0,2.78,0,4.17,0,.49,0,.65-.13.64-.63C170.66,29.75,170.67,27,170.67,24.14Zm94.07,39c0-.87,0-1.74,0-2.61.1-2.52,1.39-4.18,3.57-4.61a4.32,4.32,0,0,1,5.17,2.84c.15.46.38.22.58.13,1.21-.53,2.4-1.09,3.62-1.6.39-.17.46-.33.28-.73a8.29,8.29,0,0,0-3.79-4.13,11,11,0,0,0-6.4-1,8.89,8.89,0,0,0-7.45,5,15.69,15.69,0,0,0-1,10.47,9.47,9.47,0,0,0,4.4,6.54,11.11,11.11,0,0,0,7.72,1.23,8.4,8.4,0,0,0,6.55-5c.25-.54.26-.85-.38-1.11a27,27,0,0,1-2.92-1.4c-.54-.28-.79-.2-1,.37a3.28,3.28,0,0,1-.45.79,4.65,4.65,0,0,1-5,2,4.17,4.17,0,0,1-3.43-3.66A20.72,20.72,0,0,1,264.74,63.18ZM27.5,22c0-.94-.05-1.88,0-2.82A4.44,4.44,0,0,1,31,14.73c2.47-.45,4.52.56,5.28,2.8.14.41.32.29.57.18,1.2-.54,2.4-1.09,3.62-1.6.45-.19.45-.4.27-.8a8.27,8.27,0,0,0-3.39-3.86,10.88,10.88,0,0,0-6.21-1.26,9.27,9.27,0,0,0-8.58,6.36A16.64,16.64,0,0,0,22,25.12,10,10,0,0,0,26,32a10.62,10.62,0,0,0,7.23,1.66,8.55,8.55,0,0,0,7.49-5.12c.31-.65.2-.93-.45-1.19s-1.45-.67-2.17-1c-.41-.19-.84-.56-1.21-.52s-.42.71-.68,1.06-.32.47-.49.69a4.63,4.63,0,0,1-4.92,1.52,4.06,4.06,0,0,1-3.19-3.47A18.83,18.83,0,0,1,27.5,22Zm93.9,43.34c0,2.8,0,5.61,0,8.41,0,.54.14.67.66.65,1.37,0,2.74,0,4.11,0,.64,0,.81-.16.81-.81,0-5.53,0-11.07,0-16.61,0-.52.09-.74.68-.71,1.13,0,2.27,0,3.4,0,.41,0,.58-.08.57-.54,0-1.1,0-2.21,0-3.32,0-.45-.15-.55-.57-.54-1.18,0-2.36,0-3.54,0-.37,0-.55-.06-.54-.49,0-1.32,0-2.64,0-4,0-.41.12-.52.52-.52,1.21,0,2.41,0,3.61,0,.33,0,.53,0,.52-.45,0-1.18,0-2.35,0-3.53,0-.35-.13-.44-.45-.44-1.49,0-3,0-4.46.05a5.2,5.2,0,0,0-5.16,4.7,26.09,26.09,0,0,0-.09,4c0,.5-.09.72-.65.67-.73,0-1.46,0-2.19,0-.34,0-.52.05-.51.45,0,1.15,0,2.31,0,3.46,0,.37.11.49.48.48.74,0,1.47,0,2.2,0,.52,0,.67.11.67.65C121.39,59.72,121.4,62.53,121.4,65.33ZM312.55,22c0-2.09,0-4.19,0-6.29,0-.42.11-.57.55-.56,1.18,0,2.36,0,3.54,0,.4,0,.54-.1.53-.51q0-1.69,0-3.39c0-.44-.12-.57-.56-.56-1.15,0-2.31,0-3.47,0-.47,0-.59-.15-.59-.6,0-1.65,0-3.3,0-4.95,0-.43-.06-.63-.57-.61-1.3,0-2.6,0-3.89,0-.51,0-.58.18-.57.61,0,1.25,0,2.5,0,3.75a1.61,1.61,0,0,1-1.72,1.75c-.54,0-1.08,0-1.62,0-.37,0-.49.11-.49.48,0,1.18,0,2.35,0,3.53,0,.35.12.45.45.44.71,0,1.42,0,2.12,0s.73.17.73.74c0,3.86,0,7.73,0,11.59,0,3.19,1.49,5.11,4.37,5.6a34.55,34.55,0,0,0,5.09.14c.34,0,.36-.21.36-.47,0-1.15,0-2.31,0-3.46,0-.4-.13-.53-.53-.52-1,0-2.08,0-3.12,0-.5,0-.62-.15-.62-.64C312.57,26.06,312.55,24,312.55,22Zm-115.73,0c0-2.08,0-4.15,0-6.22,0-.45.11-.61.59-.6,1.18,0,2.36,0,3.54,0,.4,0,.53-.12.52-.52,0-1.13,0-2.26,0-3.39,0-.47-.18-.54-.58-.53-1.16,0-2.31,0-3.47,0-.46,0-.61-.12-.6-.59,0-1.65,0-3.3,0-4.95,0-.48-.1-.65-.61-.63-1.23,0-2.46,0-3.68,0-.52,0-.69.1-.68.65A34.6,34.6,0,0,1,191.81,9a1.62,1.62,0,0,1-1.61,1.64,13.64,13.64,0,0,1-1.69.06c-.37,0-.56.05-.55.49,0,1.15,0,2.31,0,3.46,0,.44.18.5.55.49.68,0,1.37,0,2.05,0s.76.19.76.79c0,3.9,0,7.81,0,11.72,0,3,1.46,4.88,4.24,5.39a32.62,32.62,0,0,0,5.23.15c.41,0,.34-.3.34-.55,0-1.1,0-2.21,0-3.32,0-.42-.1-.58-.55-.56-1.06,0-2.13,0-3.19,0-.49,0-.58-.17-.58-.61C196.83,26.07,196.82,24,196.82,21.93ZM116.7,15.21c0,2,0,4,0,5.94,0,2.48,0,5,0,7.42A4.39,4.39,0,0,0,120.55,33a22.9,22.9,0,0,0,4.3.17c.35,0,.36-.21.36-.46,0-.62,0-1.23,0-1.84s.29-1.57-.11-2-1.35-.17-2-.13-.84-.18-.84-.85c0-8.63,0-17.25,0-25.87,0-.64-.17-.79-.78-.77-1.35.05-2.69.05-4,0-.58,0-.74.13-.74.73C116.72,6.4,116.7,10.81,116.7,15.21Zm177.43.06-.19,0c0-1.33,0-2.66,0-4,0-.42-.08-.59-.54-.58-1.49,0-3,0-4.46,0-.45,0-.54.17-.54.58q0,10.67,0,21.33c0,.46.12.61.59.6,1.39,0,2.78,0,4.17,0,.61,0,.8-.12.79-.77,0-4.21,0-8.42,0-12.64A3.26,3.26,0,0,1,295,17a5,5,0,0,1,2.06-.87,18,18,0,0,1,3.66-.2c.29,0,.57.05.56-.4,0-1.49,0-3,0-4.45,0-.2,0-.34-.28-.4a6.18,6.18,0,0,0-6,2.61A9.45,9.45,0,0,0,294.13,15.27ZM108.58,56.53l-.19,0c0-1.35,0-2.7,0-4.06,0-.41-.07-.57-.53-.56-1.49,0-3,0-4.46,0-.44,0-.55.13-.55.56q0,10.69,0,21.4c0,.45.15.55.57.54,1.43,0,2.87,0,4.31,0,.52,0,.67-.11.67-.65,0-4.21,0-8.43,0-12.64,0-2.19.84-3.22,3-3.7a17.29,17.29,0,0,1,3.87-.24c.28,0,.5,0,.5-.39,0-1.51,0-3,0-4.52,0-.22-.05-.34-.31-.35-2.66-.12-5.29.56-6.58,3.78C108.76,56,108.67,56.24,108.58,56.53Zm55.46,0c0-1.42,0-2.76,0-4.1,0-.39,0-.59-.51-.58-1.51,0-3,0-4.53,0-.4,0-.52.11-.52.51q0,10.74,0,21.48c0,.42.13.51.52.51,1.47,0,2.93,0,4.39,0,.53,0,.66-.12.66-.65,0-4.22,0-8.44,0-12.65,0-2.19.83-3.21,3-3.69a17.33,17.33,0,0,1,3.87-.24c.26,0,.51,0,.51-.37,0-1.51,0-3,0-4.53,0-.27-.09-.38-.37-.36-.47,0-.94,0-1.41,0a5.65,5.65,0,0,0-5.22,4C164.34,56.11,164.37,56.38,164,56.57Zm269.7,6.57c0-3.53,0-7.07,0-10.6,0-.54-.15-.67-.67-.65-1.46,0-2.93,0-4.39,0-.4,0-.52.1-.51.51q0,10.74,0,21.48c0,.41.11.51.51.51,1.46,0,2.93,0,4.39,0,.52,0,.67-.11.67-.65C433.73,70.21,433.74,66.67,433.74,63.14Zm19-41.21c0,3.54,0,7.07,0,10.6,0,.47.08.66.6.65,1.44,0,2.88,0,4.32,0,.48,0,.65-.1.65-.61q0-10.64,0-21.27c0-.52-.19-.61-.65-.6-1.4,0-2.79,0-4.18,0-.58,0-.75.12-.75.72C452.71,14.91,452.7,18.42,452.7,21.93ZM340.93,39.32c1.29,0,2.37,0,3.45,0a1.29,1.29,0,0,0,1-.4,11.85,11.85,0,0,0,3.94-9.31,2.88,2.88,0,0,0-2-2.91,4.08,4.08,0,0,0-4.25.9,3.89,3.89,0,0,0,1.54,5.86c.27.1.33.15.22.43A12.22,12.22,0,0,1,343.75,36,20,20,0,0,1,340.93,39.32ZM452.25,4.24c0,2.26.95,3.2,3.21,3.2s3.26-1,3.26-3.18S457.68,1,455.48,1,452.25,2,452.25,4.24Zm-24.5,41.25c0,2.25.95,3.19,3.24,3.18s3.27-1,3.27-3.2-1-3.18-3.29-3.18S427.75,43.24,427.75,45.49Z"/><path class="cls-2" d="M833.43,85c0-.26,0-.51,0-.77q0-41.59,0-83.2c0-.71.18-.87.89-.87q15.29,0,30.59,0c.66,0,.8.19.8.81q0,22.8,0,45.6a34.25,34.25,0,0,0,1.59,10.77c3,9,9.1,14.51,18.27,16.61a30,30,0,0,0,17.54-1c7.62-2.86,12.26-8.48,14.64-16.12.26-.82.48-1.65.72-2.48q0,15.06,0,30.12c0,.48-.09.58-.58.58Q875.63,85,833.43,85Z"/><path class="cls-2" d="M507.94,85a1.66,1.66,0,0,0,.09-1q0-41.46,0-82.91c0-.75.2-.94.93-.91,1.33.06,1.33,0,1.33,1.39q0,41.24,0,82.48a9.07,9.07,0,0,0,.06.91Z"/><path class="cls-3" d="M692.7,73.23c-3.58.1-7.21.19-10.83.31-.57,0-.82-.08-.74-.7a9,9,0,0,0,0-1.56c0-.37.11-.47.48-.47a18.13,18.13,0,0,0,2.33-.06c2.87-.3,4.21-1.65,4.59-4.53a19,19,0,0,0,.16-2.61q0-22.26,0-44.53a13.36,13.36,0,0,0-.22-2.6c-.54-2.91-2-4.15-5-4.28-.64,0-1.27,0-1.91,0-.31,0-.48,0-.46-.41,0-.63,0-1.27,0-1.91,0-.38.17-.41.47-.4,3.53.1,7.07.24,10.6.27,2.9,0,5.8-.09,8.7-.15a65.43,65.43,0,0,1,10.38.18A16.84,16.84,0,0,1,725.9,26.59c0,7.68-4.07,13.22-11.61,16-1.17.43-1.18.43-.53,1.48,4.34,7.1,8.54,14.28,13,21.33a30.64,30.64,0,0,0,2.09,2.85,9.32,9.32,0,0,0,6.62,3.48c1,.1,2,.19,3,.26.32,0,.49.07.5.47,0,1.51.05,1.5-1.44,1.51-2.59,0-5.18.09-7.78-.08a13.28,13.28,0,0,1-10.31-5.72c-2-2.72-3.62-5.67-5.4-8.52-2.27-3.63-4.62-7.22-6.68-11a7.48,7.48,0,0,0-7.15-4.23c-1,0-2-.07-3-.13-.3,0-.45.07-.43.38,0,.14,0,.29,0,.43,0,5.51,0,11,0,16.54a25.8,25.8,0,0,0,.48,5.68c.58,2.54,1.74,3.48,4.36,3.5.8,0,1.6,0,2.4,0,.42,0,.53.13.5.52s0,.75,0,1.13c0,1.1,0,1.1-1.13,1.07Zm4-46.49c0,4.22,0,8.44,0,12.65,0,.67.16,1,.84,1.07a25.84,25.84,0,0,0,11.07-.36,11.2,11.2,0,0,0,7.86-6.43,14.43,14.43,0,0,0,.13-11c-2-5.32-5.66-8.64-11.38-9.54a33.79,33.79,0,0,0-8,.09c-.49,0-.47.32-.47.67C696.68,18.17,696.67,22.45,696.67,26.74Z"/><path class="cls-3" d="M768.44,42.79l5.32-5.93q8-8.85,15.92-17.71a15,15,0,0,0,2.44-3.45c.82-1.69.14-3-1.7-3.43a9.27,9.27,0,0,0-2-.09c-.4,0-.61,0-.57-.52,0-.7-.22-1.63.13-2.05s1.32-.11,2-.09c2.88.06,5.75.22,8.63.21,3.27,0,6.55-.15,9.82-.27.65,0,.89.14.81.79s.26,1.47-.14,1.83-1.17.12-1.78.09a10.54,10.54,0,0,0-8.06,3.46c-3.37,3.3-6.55,6.78-9.81,10.18s-6.67,7-10,10.48c-.26.28-.56.48-.15,1q12.24,14.22,24.46,28.47a17.41,17.41,0,0,0,4.68,3.94,10.64,10.64,0,0,0,5.81,1.16c.52,0,.72.11.66.66a4.91,4.91,0,0,0,0,1.27c.12.73-.21.84-.86.8-3-.15-6-.32-9-.26-2.29,0-4.57.15-6.86.26-.61,0-.89-.08-1-.78a11.47,11.47,0,0,0-2.71-5.42c-2.66-3.39-5.6-6.55-8.43-9.81-4.13-4.77-8.3-9.51-12.46-14.27-.57-.65-.56-.66-1.16,0-1.23,1.3-2.45,2.61-3.69,3.9a1.32,1.32,0,0,0-.39,1c0,4.83,0,9.66,0,14.49a20.64,20.64,0,0,0,.5,4.83c.61,2.45,1.73,3.34,4.25,3.37.83,0,1.65,0,2.48,0,.46,0,.56.13.53.55a10.58,10.58,0,0,0,0,1.49c0,.53-.09.72-.67.7-2.71-.11-5.42-.14-8.13-.23-2.93-.11-5.85,0-8.77.06-1.72,0-3.44.09-5.16.16-.47,0-.62-.12-.59-.58.05-.68-.21-1.56.13-2s1.27-.09,1.94-.15c.52,0,1-.08,1.55-.17a4.17,4.17,0,0,0,3.54-3.3,15.21,15.21,0,0,0,.43-3.92V19.61a16.89,16.89,0,0,0-.26-3.17c-.55-2.86-1.94-4.08-4.87-4.24-.68,0-1.36,0-2.05,0-.31,0-.41-.09-.4-.4,0-.64,0-1.27,0-1.91,0-.37.16-.42.47-.41,3.51.1,7,.23,10.53.26,2.57,0,5.14-.07,7.71-.13,1.37,0,2.74-.07,4.1-.13.42,0,.52.12.5.51a11.45,11.45,0,0,0,0,1.55c0,.51-.08.68-.63.67a20.75,20.75,0,0,0-3.61.11,3.19,3.19,0,0,0-2.61,2,13,13,0,0,0-.86,5c0,5.68,0,11.36-.06,17C768.43,38.45,768.44,40.52,768.44,42.79Z"/><path class="cls-3" d="M599.54,42.11C600,28.6,605.89,18.35,618,12a33.84,33.84,0,0,1,37.15,4.26,32.89,32.89,0,0,1,5.76,44.44A31.45,31.45,0,0,1,638.6,74.31c-9.9,1.39-19.05-.59-27-6.89A31.14,31.14,0,0,1,600,47.48c-.11-.63-.21-1.26-.26-1.89A30.83,30.83,0,0,1,599.54,42.11ZM658,42.2a35.13,35.13,0,0,0-5.44-18.73,24,24,0,0,0-11.67-10,23.31,23.31,0,0,0-13.15-.9,21.4,21.4,0,0,0-16,12.21,33.59,33.59,0,0,0-3,12.39,36.17,36.17,0,0,0,4.75,21.41A25.32,25.32,0,0,0,625.17,69.5a23,23,0,0,0,13.44,1.36,20.84,20.84,0,0,0,16.06-12C657.13,53.8,657.92,48.38,658,42.2Z"/><path class="cls-2" d="M882.86,23.1q0-11.13,0-22.26c0-.54.12-.7.68-.7q9.21,0,18.41,0c.58,0,.74.14.74.73,0,14.56,0,29.12,0,43.68A18.4,18.4,0,0,1,901.13,52c-3,6.66-11.57,6.54-14.92,2.86a12.63,12.63,0,0,1-2.92-6.17,23.91,23.91,0,0,1-.44-4.7Q882.87,33.57,882.86,23.1Z"/><path class="cls-3" d="M566,44.3l3.18-6.08q4.92-9.39,9.83-18.79a20.07,20.07,0,0,0,1.67-4.17c.47-1.81-.1-2.69-1.93-3a15,15,0,0,0-2.68-.1c-.38,0-.5-.11-.48-.47a12.67,12.67,0,0,0,0-1.63c0-.49.12-.64.62-.62,2.52.1,5,.17,7.56.24s4.81-.07,7.21-.16c.68,0,1.37,0,2-.08.38,0,.49.11.47.48a17.22,17.22,0,0,0,0,1.76c0,.38-.1.48-.47.48a28.14,28.14,0,0,0-3.18.08,4.63,4.63,0,0,0-3.3,2,47.61,47.61,0,0,0-3.6,6.22q-7.36,13.7-14.68,27.39a1.83,1.83,0,0,0-.28.86c0,5.63,0,11.26,0,16.89a7.78,7.78,0,0,0,.32,2.09c.59,2.13,2,3.08,4.67,3.16a12.5,12.5,0,0,0,1.62,0c.57-.06.7.17.64.67a7,7,0,0,0,0,.92c0,1.17,0,1.17-1.2,1.13-4.06-.14-8.11-.31-12.17-.25-2.94,0-5.89.16-8.83.26-.52,0-.77-.08-.71-.67s-.21-1.53.13-1.91,1.28-.12,2-.13a12.16,12.16,0,0,0,2.25-.21,3.65,3.65,0,0,0,3.11-3.29,15.11,15.11,0,0,0,.2-2.6q0-6.92,0-13.85a2.19,2.19,0,0,0-.28-1.14Q551,34.1,542.19,18.43a27.58,27.58,0,0,0-2.63-4,6.12,6.12,0,0,0-4.84-2.23l-.49,0c-.47,0-1.11.15-1.36-.1s-.11-1-.12-1.48c0-1.14,0-1.14,1.15-1.11,3.44.08,6.88.24,10.32.24s7-.14,10.54-.27c.67,0,.94.1.85.81s.18,1.4-.12,1.78-1.15.08-1.75.13a3.44,3.44,0,0,0-2.3.75,2.92,2.92,0,0,0-.65,3,18.2,18.2,0,0,0,1.92,4.52Q559.23,32.25,565.78,44A2.8,2.8,0,0,0,566,44.3Z"/><path class="cls-2" d="M329.77,58.74l5.19,5.6a18.87,18.87,0,0,0,1.28-5.73c0-.48.17-.63.66-.62,1.86,0,3.73,0,5.59,0,.44,0,.63.09.61.58,0,1.2,0,2.4,0,3.6,0,.37-.1.48-.47.49-.78,0-1.75-.32-2.27.12s-.47,1.37-.69,2.09a12.75,12.75,0,0,1-1,2.47.81.81,0,0,0,.14,1.14c1.82,1.91,3.59,3.85,5.49,5.9h-2.35c-1.32,0-2.65,0-4,0a1,1,0,0,1-.85-.37c-.52-.61-1.11-1.17-1.61-1.79-.36-.45-.58-.52-1.09-.12A12.81,12.81,0,0,1,322,74.24a8.06,8.06,0,0,1-2.86-13.83,16.66,16.66,0,0,1,2.77-1.95c.45-.25.41-.41.12-.76a12,12,0,0,1-2.64-4.54,6.76,6.76,0,0,1,3.76-8.34,10.52,10.52,0,0,1,8.78-.18c4.48,1.87,5.46,7.34,2,10.94A19.64,19.64,0,0,1,329.77,58.74Zm-3,11.54a8,8,0,0,0,4.79-1.39c.38-.26.42-.42.09-.78-1.77-1.88-3.52-3.79-5.28-5.69C325,61,325,61,323.54,62.33a4.76,4.76,0,0,0-.59,6.38A5,5,0,0,0,326.76,70.28Zm3.92-19.17a2.66,2.66,0,0,0-1.22-2.47,3.65,3.65,0,0,0-4.1.24,3.22,3.22,0,0,0-.6,3.88,12.75,12.75,0,0,0,1.94,2.67c.22.27.4.23.65.07a10.92,10.92,0,0,0,2.27-1.79A3.63,3.63,0,0,0,330.68,51.11Z"/><path class="cls-2" d="M180.44,55.59a6.05,6.05,0,0,1,6.36-4.19A6.49,6.49,0,0,1,193,55.91a6.71,6.71,0,0,1,2.24-3,7.79,7.79,0,0,1,7.27-1,5.84,5.84,0,0,1,3.57,3.67,12.28,12.28,0,0,1,.78,4.64c0,4.52,0,9,0,13.57,0,.5-.09.69-.65.67-1.42,0-2.83,0-4.25,0-.55,0-.71-.12-.7-.69,0-4.33,0-8.67,0-13a9.55,9.55,0,0,0-.13-1.69c-.49-2.7-2.27-3.37-4.56-2.93a3.44,3.44,0,0,0-3.05,3.79q0,6.92,0,13.85c0,.51-.1.69-.66.67-1.41,0-2.83,0-4.25,0-.55,0-.7-.13-.7-.69,0-4.34,0-8.67,0-13a8.65,8.65,0,0,0-.13-1.68,3.41,3.41,0,0,0-4.49-3,3.54,3.54,0,0,0-3.11,3.83c0,4.59,0,9.19,0,13.78,0,.59-.14.75-.73.73-1.44,0-2.88,0-4.32,0-.45,0-.55-.14-.55-.56q0-10.68,0-21.35c0-.45.11-.6.59-.59,1.48,0,3,0,4.46,0,.44,0,.56.13.55.56,0,1,0,2,0,3.08Z"/><path class="cls-2" d="M442.65,65.68l-.34-.18a6.92,6.92,0,0,1-3.84-7.56c.45-3.33,2.48-5.4,6-6.19a13.78,13.78,0,0,1,6.51,0c.65.16.71-.05.68-.57a3.51,3.51,0,0,1,.28-1.66A2.61,2.61,0,0,1,454.33,48c1.2-.06,2.41,0,3.61,0,.31,0,.41.1.41.41q0,1.69,0,3.39c0,.38-.13.48-.49.47h-3.75c-.19,0-.46-.13-.55.16s.1.47.34.62c3.83,2.25,3.93,7.94,1.6,10.69a8.57,8.57,0,0,1-5.71,2.77,16.13,16.13,0,0,1-5.14-.16,1.92,1.92,0,0,0-1.83,1.23,1.49,1.49,0,0,0,.67,1.94,4.79,4.79,0,0,0,2.21.39h6.51a10.72,10.72,0,0,1,3.41.55,5.24,5.24,0,0,1,3.8,4.39,8.44,8.44,0,0,1-.14,3.57,5.92,5.92,0,0,1-4,4.07,18.46,18.46,0,0,1-6,1,25,25,0,0,1-8.13-.75,7.94,7.94,0,0,1-1.62-.68,4.27,4.27,0,0,1-2.24-4.63A4,4,0,0,1,440.6,74c.21-.06.58.08.62-.31s-.34-.33-.55-.42a3.57,3.57,0,0,1-2.28-3.06,3.48,3.48,0,0,1,1.75-3.59A7.69,7.69,0,0,1,442.65,65.68Zm5,9c-1.6,0-2.92,0-4.24,0a1.15,1.15,0,0,0-1,.44c-1.45,1.65-.62,3.89,1.66,4.36a29.88,29.88,0,0,0,6.2.19,6.64,6.64,0,0,0,2.49-.47,2.28,2.28,0,0,0,1.53-1.7c.27-1.43-.44-2.38-2-2.66A34.33,34.33,0,0,0,447.6,74.66ZM451.73,59c.13-2.29-1-3.17-2.17-3.52a6.27,6.27,0,0,0-3.69,0,2.87,2.87,0,0,0-2.15,2.68c0,.32,0,.65,0,1,0,2.19.89,3.29,3.06,3.58C449.4,63.07,452,62.23,451.73,59Z"/><path class="cls-2" d="M372.13,14.46a6.09,6.09,0,0,1,6.29-4.29,6.45,6.45,0,0,1,6.29,4.37c.17,0,.15-.09.18-.16,1.72-4.16,6.6-4.93,9.6-3.7,2.26.94,3.3,2.84,3.81,5.1a13.4,13.4,0,0,1,.32,3.09c0,4.52,0,9,0,13.57,0,.58-.14.76-.74.74-1.39,0-2.78,0-4.18,0-.54,0-.66-.15-.66-.67,0-4.31,0-8.62,0-12.93a10.36,10.36,0,0,0-.14-1.76,3.33,3.33,0,0,0-4-3.09,3.68,3.68,0,0,0-3.67,4c0,4.57,0,9.14,0,13.71,0,.57-.11.77-.72.75q-2.05-.07-4.11,0c-.58,0-.75-.13-.74-.73,0-4.33,0-8.67,0-13a9.37,9.37,0,0,0-.16-1.76,3.37,3.37,0,0,0-4.28-2.91,3.62,3.62,0,0,0-3.33,4c0,4.54,0,9.09,0,13.64,0,.57-.11.77-.73.75-1.43,0-2.88,0-4.31,0-.4,0-.53-.1-.53-.51q0-10.74,0-21.48c0-.36.09-.5.47-.49,1.54,0,3.07,0,4.6,0,.45,0,.5.19.49.55,0,1,0,2.09,0,3.13Z"/><path class="cls-2" d="M441.71,14.35v-2c0-3.46,0-6.92,0-10.38,0-.57.16-.71.71-.69,1.41,0,2.83,0,4.24,0,.55,0,.66.17.65.68q0,12.08,0,24.16c0,2.14,0,4.28,0,6.43,0,.47-.1.66-.61.65-1.47,0-2.93,0-4.39,0-.47,0-.61-.15-.6-.61,0-1,0-2.06,0-3.07-.18-.05-.21,0-.25.13-1.07,2.85-3.95,4.45-7.48,4a7.53,7.53,0,0,1-6.44-5.34,18.56,18.56,0,0,1,.11-13,7.93,7.93,0,0,1,10.51-4.55,5.7,5.7,0,0,1,3.13,3A1.12,1.12,0,0,0,441.71,14.35Zm0,7.55V18.44a3.06,3.06,0,0,0-1.12-2.55,5.24,5.24,0,0,0-5.13-.9,4.37,4.37,0,0,0-3,3.75,27.28,27.28,0,0,0-.11,5.42c.13,3.45,2.51,5.35,5.92,4.83a3.69,3.69,0,0,0,3.46-4Z"/><path class="cls-2" d="M59.62,70.79v.68c0,3.62,0,7.25,0,10.88,0,.53-.12.68-.66.67-1.46,0-2.93,0-4.39,0-.45,0-.55-.13-.55-.55q0-15,0-30c0-.39.09-.53.51-.53,1.53,0,3.07,0,4.6,0,.37,0,.49.11.48.48,0,1,0,2.07,0,3.1.16.06.18,0,.21-.12a6.42,6.42,0,0,1,6.84-3.93c4,.38,6.58,2.59,7.57,6.82a18.64,18.64,0,0,1-.73,11.91A7.94,7.94,0,0,1,62.42,74,7.59,7.59,0,0,1,59.62,70.79Zm0-7.7c0,1.21,0,2.41,0,3.61a3.1,3.1,0,0,0,1.69,2.9,5.3,5.3,0,0,0,5.28.1A4.7,4.7,0,0,0,69,65.34c0-1.41,0-2.83,0-4.24A4.81,4.81,0,0,0,63.33,56a3.78,3.78,0,0,0-3.71,4C59.62,61.07,59.62,62.08,59.63,63.09Z"/><path class="cls-2" d="M372.81,55.52v-.68c0-3.87,0-7.73,0-11.59,0-.52.08-.74.68-.72,1.41,0,2.83,0,4.25,0,.46,0,.64.08.64.6q0,15.33,0,30.67c0,.39,0,.59-.52.58-1.51,0-3,0-4.53,0-.41,0-.53-.11-.52-.51,0-1,0-2.07,0-3.1-.24-.07-.24.11-.29.22a6.57,6.57,0,0,1-6.8,3.91,7.65,7.65,0,0,1-7.11-5.55A18.21,18.21,0,0,1,359,56.05a7.92,7.92,0,0,1,10.77-3.88A6.74,6.74,0,0,1,372.81,55.52Zm0,7.62v-3.6a3.07,3.07,0,0,0-1.15-2.47,4.94,4.94,0,0,0-8.06,2.7,27.24,27.24,0,0,0-.15,5.42c0,3.85,3.07,6,6.73,4.82a3.44,3.44,0,0,0,2.63-3.62Z"/><path class="cls-2" d="M50,14.55a3.16,3.16,0,0,0,.23-.27c1.57-4,5.45-4.69,8.67-3.77A6.27,6.27,0,0,1,63.17,15a12.14,12.14,0,0,1,.52,3.54c0,4.62,0,9.24,0,13.86,0,.56-.11.78-.73.76-1.36,0-2.73,0-4.1,0-.62,0-.73-.2-.73-.76q0-6.22,0-12.44A12,12,0,0,0,58,17.67a3.23,3.23,0,0,0-3.59-3c-2.19,0-3.86,1.09-4.3,2.77A5.47,5.47,0,0,0,50,18.83c0,4.54,0,9.09,0,13.64,0,.53-.11.74-.69.72-1.36,0-2.74,0-4.1,0-.58,0-.76-.13-.76-.73,0-3.32,0-6.64,0-10,0-6.83,0-13.66,0-20.49,0-.6.17-.74.75-.73,1.36.05,2.73,0,4.1,0,.55,0,.71.12.71.69,0,3.89,0,7.77,0,11.66Z"/><path class="cls-2" d="M210.7,14.47a.92.92,0,0,0,.4-.54,5.89,5.89,0,0,1,4.76-3.66c3.73-.51,6.82.86,8,4.78a11,11,0,0,1,.5,3.27c0,4.74,0,9.47,0,14.21,0,.56-.19.66-.69.64-1.34,0-2.69,0-4,0-.63,0-.84-.13-.83-.8,0-4.48,0-9,0-13.43a6.13,6.13,0,0,0-.19-1.54c-.54-2.26-2.42-3.2-5-2.51a3.6,3.6,0,0,0-3,3.83c0,4.55,0,9.1,0,13.64,0,.68-.21.83-.83.81-1.37,0-2.74,0-4.11,0-.46,0-.6-.13-.6-.59q0-15.37,0-30.75c0-.43.12-.56.55-.55,1.44,0,2.88,0,4.32,0,.54,0,.67.14.66.67,0,3.89,0,7.77,0,11.66Z"/><path class="cls-2" d="M277.27,29.11c-.25.6-.39,1-.59,1.41a5.57,5.57,0,0,1-4,2.94,9.37,9.37,0,0,1-4.76-.14,6,6,0,0,1-4.48-6.54c.19-3.49,2.1-5.5,5.71-6.26a29.92,29.92,0,0,1,6.27-.41c1.45,0,1.46,0,1.44-1.48a8.22,8.22,0,0,0-.06-1,3.18,3.18,0,0,0-2.59-2.89A5.79,5.79,0,0,0,268,16.93c-.32.4-.48.5-.89.09-.77-.76-1.59-1.47-2.42-2.16-.35-.3-.35-.5-.09-.86a8.14,8.14,0,0,1,3.77-3,13.32,13.32,0,0,1,9.74.05,6.53,6.53,0,0,1,4.22,5.72,17.59,17.59,0,0,1,.12,2.18c0,3.06,0,6.13,0,9.19,0,.44.09.67.57.59h.07c1.59,0,1.59,0,1.59,1.57,0,.8,0,1.6,0,2.4,0,.32-.08.48-.43.47-1,0-2,0-3,0a3.87,3.87,0,0,1-3.75-3.24C277.43,29.69,277.38,29.49,277.27,29.11Zm-2.88-5.63a19.16,19.16,0,0,0-2.56.12c-2.19.36-3,1.48-2.77,3.68a2.32,2.32,0,0,0,1.77,2.13,5.92,5.92,0,0,0,4.46-.44,2.71,2.71,0,0,0,1.55-2.43c0-.87,0-1.74,0-2.61,0-.41-.17-.46-.5-.45C275.73,23.5,275.12,23.48,274.39,23.48Z"/><path class="cls-2" d="M476,29.31a.21.21,0,0,0-.24.18c-.82,2.67-2.81,3.83-5.42,4.13a9.23,9.23,0,0,1-3.23-.16c-3.45-.78-5.34-3.47-5-7.11.28-3.11,2.25-5.11,5.7-5.83a31.28,31.28,0,0,1,7-.39c.59,0,.79-.14.73-.73a14.42,14.42,0,0,0-.13-2.18,3.1,3.1,0,0,0-2.53-2.47,5.8,5.8,0,0,0-6.22,2.18c-.32.42-.48.48-.88.09-.77-.75-1.59-1.47-2.42-2.16-.36-.31-.34-.52-.08-.87a8.24,8.24,0,0,1,3.83-3,13.43,13.43,0,0,1,9.55,0,6.52,6.52,0,0,1,4.36,6c.24,3.55.05,7.11.09,10.67,0,1,0,1,1,1,1.21,0,1.21,0,1.21,1.23,0,.92,0,1.83,0,2.75,0,.33-.09.47-.44.46-1,0-2,0-3-.06a3.84,3.84,0,0,1-3.62-3C476.15,29.81,476.09,29.55,476,29.31Zm-2.85-5.8a18.68,18.68,0,0,0-2,0c-2.25.22-3.65.93-3.46,3.51a2.44,2.44,0,0,0,1.82,2.39,6.29,6.29,0,0,0,2.59.15c2.28-.25,3.39-1.48,3.38-3.76,0-.75.26-1.76-.12-2.18S473.94,23.55,473.17,23.51Z"/><path class="cls-2" d="M91.24,64.56c-2.26,0-4.53,0-6.79,0-.56,0-.67.18-.65.69.12,4.85,4.15,5.82,7.39,5a6.27,6.27,0,0,0,3.38-2.33c.35-.45.53-.39.86,0,.71.84,1.46,1.66,2.22,2.47.29.3.28.5,0,.82a9.11,9.11,0,0,1-2.84,2.29,13,13,0,0,1-9,1.11,9.22,9.22,0,0,1-7-6.55,15.76,15.76,0,0,1,0-9.93,9.46,9.46,0,0,1,9.36-6.71c4,0,7.27,1.37,9.22,5.08a13,13,0,0,1,1.36,5.58c0,.63,0,1.27,0,1.9s-.17.62-.64.61C95.82,64.55,93.53,64.56,91.24,64.56Zm-2.9-3.45h3.47c1.21,0,1.21,0,1.12-1.2a4.38,4.38,0,0,0-3.17-4.2,4.78,4.78,0,0,0-6,5c0,.41.19.45.52.45Z"/><path class="cls-2" d="M293.78,64.56c-2.29,0-4.58,0-6.87,0-.5,0-.64.15-.62.64.15,4.41,3.39,5.75,6.89,5.16a6.49,6.49,0,0,0,3.92-2.47c.32-.4.49-.4.82,0,.71.85,1.46,1.67,2.22,2.47a.54.54,0,0,1,0,.88,9.57,9.57,0,0,1-3.42,2.56,13.17,13.17,0,0,1-8.3.84,9.31,9.31,0,0,1-7.22-6.82,15.87,15.87,0,0,1-.08-9.11c1.46-5.22,5.63-7.57,10.71-7.27,5.8.36,8.75,4.45,9.31,9.41.12,1,.09,2.07.12,3.1,0,.49-.12.65-.62.64C298.36,64.55,296.07,64.56,293.78,64.56Zm-2.89-3.45H295c.22,0,.45.09.51-.3a5,5,0,0,0-2.63-4.91,4.84,4.84,0,0,0-6.58,4.83c0,.4.24.38.51.38Z"/><path class="cls-2" d="M399.52,67.42c1,1.06,1.87,2.09,2.8,3.11.28.3,0,.47-.13.65a9.08,9.08,0,0,1-3.66,2.7,13.17,13.17,0,0,1-8.17.72,9.14,9.14,0,0,1-6.9-6.17,15.57,15.57,0,0,1-.1-10.39c1.58-4.68,5.47-6.89,10.4-6.62,6,.32,8.74,4.45,9.37,9,.16,1.15.12,2.31.17,3.46,0,.53-.14.67-.67.66-4.5,0-9,0-13.52,0-.67,0-.82.17-.77.83.35,4.46,4.76,6.61,8.76,4.27A9.13,9.13,0,0,0,399.52,67.42Zm-6.61-6.31h3.33c1.34,0,1.34,0,1.22-1.36A4.4,4.4,0,0,0,391,56a5,5,0,0,0-2.7,4.76c0,.44.31.34.54.34Z"/><path class="cls-2" d="M241.63,23.32c-2.26,0-4.53,0-6.79,0-.6,0-.7.2-.68.72.21,4.21,4,6.44,8.05,4.75A6.87,6.87,0,0,0,245,26.64c.33-.42.51-.37.82,0,.72.85,1.46,1.67,2.22,2.47.32.33.3.55,0,.88a9.71,9.71,0,0,1-3.75,2.7,13.2,13.2,0,0,1-8.25.63,9.19,9.19,0,0,1-6.83-6.43,15.59,15.59,0,0,1,.08-10.25c1.51-4.33,5.15-6.63,10.1-6.47,5.34.18,9.07,3.76,9.64,9.23.12,1.13.1,2.26.13,3.39,0,.46-.17.54-.58.54C246.26,23.31,244,23.32,241.63,23.32Zm-2.91-3.45c1.37,0,2.74,0,4.11,0,.42,0,.62-.1.54-.55a2.75,2.75,0,0,1,0-.5c-.16-2.76-2-4.59-4.51-4.51-3,.11-4.59,2.35-4.67,5.18,0,.41.25.37.52.37Z"/><path class="cls-2" d="M224.55,70.48c-.12.12-.18.15-.19.18-1,3.43-4.14,4.37-7,4.25a7.67,7.67,0,0,1-4.64-1.62c-2.71-2.18-3.35-8.72,1.59-10.86a14.28,14.28,0,0,1,5.51-1c1.28,0,2.55,0,3.83,0,.37,0,.49-.11.47-.48a15.48,15.48,0,0,0-.09-2,3.25,3.25,0,0,0-3.09-3,5.69,5.69,0,0,0-5.64,2.18c-.42.55-.66.5-1.1.07-.74-.73-1.52-1.41-2.32-2.08-.34-.28-.31-.48-.07-.8a8.63,8.63,0,0,1,5.63-3.59,14.62,14.62,0,0,1,6.8.23A7,7,0,0,1,229.61,59c0,3.41,0,6.83,0,10.24,0,.59.1.82.76.79,1.52,0,1.52,0,1.52,1.52,0,.82,0,1.65,0,2.47,0,.31-.09.41-.4.41-1.09,0-2.18,0-3.26,0a3.87,3.87,0,0,1-3.43-2.93C224.72,71.15,224.65,70.86,224.55,70.48Zm-2.89-5.74v0a17.76,17.76,0,0,0-2.19,0c-2.39.29-3.37,1.18-3.19,3.53a2.42,2.42,0,0,0,1.93,2.37,6.09,6.09,0,0,0,3.68-.19,3,3,0,0,0,2.2-3.16c0-.66,0-1.31,0-2,0-.47-.08-.68-.6-.64S222.27,64.74,221.66,64.74Z"/><path class="cls-2" d="M419.63,26.2l2.77,3.07c.31.32,0,.51-.13.71a9.49,9.49,0,0,1-3.73,2.71,13.3,13.3,0,0,1-8.19.65,9.09,9.09,0,0,1-6.77-6.11,15.56,15.56,0,0,1,0-10.72,9.36,9.36,0,0,1,8.7-6.32c4.26-.19,7.7,1.15,9.77,5.1a12.83,12.83,0,0,1,1.34,5.57c0,.62,0,1.23,0,1.84s-.11.65-.62.63c-1.06,0-2.12,0-3.19,0-3.46,0-6.93,0-10.4,0-.67,0-.77.22-.75.8.17,3.87,2.88,5.4,6.18,5.12a6.67,6.67,0,0,0,4.54-2.46ZM413,19.87h4c.24,0,.54.1.56-.33.09-2-.77-4.35-3-5-2.9-.86-6.12.88-6.17,4.89,0,.42.21.45.53.45Z"/><path class="cls-2" d="M91.64,21.9a14.51,14.51,0,0,1,1-5.53c1.62-4.12,5.18-6.34,9.94-6.2,5.25.16,9,3.5,9.8,8.8a15.75,15.75,0,0,1-.83,8.67,9.3,9.3,0,0,1-8.43,6,10.09,10.09,0,0,1-7.78-2.3,10.94,10.94,0,0,1-3.49-7A15.56,15.56,0,0,1,91.64,21.9Zm5.79,0a24.92,24.92,0,0,0,.17,3.66A4.23,4.23,0,0,0,102,29.2c2.4.06,4.16-1.17,4.56-3.45a23.08,23.08,0,0,0,0-7.51,4.16,4.16,0,0,0-4.5-3.64,4.32,4.32,0,0,0-4.47,3.79A25.91,25.91,0,0,0,97.43,21.91Z"/><path class="cls-2" d="M154.29,63.18a14.36,14.36,0,0,1-.92,5.39c-1.77,4.58-5.69,6.63-10.28,6.31-5.33-.37-8.78-3.74-9.51-9a17,17,0,0,1,.41-7.27c1.48-5,5.5-7.45,10.58-7.16,6,.35,8.94,4.55,9.57,9.3A18.46,18.46,0,0,1,154.29,63.18Zm-5.84,0c0-1,.05-1.93,0-2.89a4.36,4.36,0,0,0-4.27-4.39c-2.62-.15-4.49,1.22-4.85,3.8a25.35,25.35,0,0,0,0,7,4.16,4.16,0,0,0,4.48,3.81,4.28,4.28,0,0,0,4.55-3.84A19.87,19.87,0,0,0,148.45,63.15Z"/><path class="cls-2" d="M78.2,10.17a9.82,9.82,0,0,1,10.19,8.75,16.36,16.36,0,0,1-.55,8,9.35,9.35,0,0,1-8.5,6.69,10.12,10.12,0,0,1-8.15-2.44,9.87,9.87,0,0,1-2.84-4.64,16.17,16.17,0,0,1-.14-8.78C69.48,12.88,73.1,10.17,78.2,10.17ZM73.53,21.86c0,.92,0,1.83,0,2.75A4.39,4.39,0,0,0,78,29.2a4.28,4.28,0,0,0,4.74-4,37.7,37.7,0,0,0,0-6.55,4.6,4.6,0,0,0-9.07-.29A19.74,19.74,0,0,0,73.53,21.86Z"/><path class="cls-2" d="M159.79,21.7a14.35,14.35,0,0,1-1,5.86,9.35,9.35,0,0,1-8.53,6.08,9.86,9.86,0,0,1-8.61-3.19,11.24,11.24,0,0,1-2.6-6.07,15,15,0,0,1,1.19-8.89,9.22,9.22,0,0,1,7.9-5.27,10.47,10.47,0,0,1,7.56,1.91,10.65,10.65,0,0,1,3.95,7.31A11.65,11.65,0,0,1,159.79,21.7Zm-5.8.19a28.47,28.47,0,0,0-.14-3.55,4.59,4.59,0,0,0-9.06.22,29.93,29.93,0,0,0,0,6.69,4.25,4.25,0,0,0,4.44,3.95,4.31,4.31,0,0,0,4.63-3.75A28,28,0,0,0,154,21.89Z"/><path class="cls-2" d="M241.21,55.55c.29,0,.28-.19.33-.31a6.36,6.36,0,0,1,6.76-3.83c3.54.31,5.79,2.46,6.38,6.09a17.66,17.66,0,0,1,.23,2.81c0,4.45,0,8.91,0,13.36,0,.6-.17.74-.75.72-1.37,0-2.74,0-4.1,0-.67,0-.76-.21-.76-.79,0-4.39,0-8.77,0-13.15a6.78,6.78,0,0,0-.41-2.49,2.94,2.94,0,0,0-2.75-2,5.48,5.48,0,0,0-3,.53,3.35,3.35,0,0,0-1.94,3.18c0,4.64,0,9.28,0,13.92,0,.63-.14.8-.77.78-1.41-.06-2.83,0-4.25,0-.49,0-.58-.15-.58-.6q0-10.64,0-21.27c0-.49.12-.64.62-.63,1.47,0,2.93,0,4.39,0,.48,0,.6.14.59.6C241.19,53.5,241.21,54.53,241.21,55.55Z"/><path class="cls-2" d="M468,55.55c.25,0,.25-.14.3-.24a6.38,6.38,0,0,1,6.86-3.89c3.41.27,5.65,2.39,6.28,5.93a17.92,17.92,0,0,1,.27,3.09c0,4.43,0,8.86,0,13.29,0,.53-.12.68-.66.66-1.41,0-2.83,0-4.25,0-.59,0-.68-.2-.68-.72q0-6.44,0-12.86a10.93,10.93,0,0,0-.1-1.62c-.38-2.55-2.07-3.67-4.7-3.15A3.77,3.77,0,0,0,468,60.12c.09,4.52,0,9,0,13.57,0,.52-.09.73-.68.71-1.44-.05-2.88,0-4.32,0-.4,0-.57-.06-.57-.53q0-10.71,0-21.41c0-.42.09-.57.54-.56,1.49,0,3,0,4.46,0,.5,0,.57.17.56.6C468,53.51,468,54.53,468,55.55Z"/><path class="cls-2" d="M329.4,10.18a10.65,10.65,0,0,1,8,3.08c.4.39.36.58,0,.92-.81.76-1.59,1.54-2.35,2.35-.33.36-.52.37-.89,0a7.16,7.16,0,0,0-5.62-2,4.21,4.21,0,0,0-1.17.25,2.1,2.1,0,0,0-1.57,2A2.07,2.07,0,0,0,327.25,19a17,17,0,0,0,3.81.7,9.84,9.84,0,0,1,5.38,2.11c2.82,2.54,2.45,7.43-.7,9.88a9.56,9.56,0,0,1-5.09,1.92c-4,.4-7.59-.48-10.46-3.49-.39-.4-.5-.64,0-1.07a29.47,29.47,0,0,0,2.34-2.27c.4-.42.62-.47,1.08,0a7.47,7.47,0,0,0,7.25,2.37,2.32,2.32,0,0,0-.11-4.64c-1.28-.23-2.57-.37-3.85-.58a11.59,11.59,0,0,1-2.37-.66,5.88,5.88,0,0,1-4-5.8,6.44,6.44,0,0,1,3.46-6.12A10.45,10.45,0,0,1,329.4,10.18Z"/><path class="cls-2" d="M9.93,10.18a10.6,10.6,0,0,1,8,3.1c.35.35.36.53,0,.87-.83.77-1.64,1.57-2.41,2.4-.34.38-.54.32-.89,0a7,7,0,0,0-6.46-1.84A2.22,2.22,0,0,0,8,19.08a43.68,43.68,0,0,0,4.39.73A9.08,9.08,0,0,1,17,21.88c2.69,2.55,2.27,7.39-.84,9.79a9.86,9.86,0,0,1-5.51,2c-3.86.28-7.3-.65-10-3.55-.37-.39-.5-.61,0-1,.86-.74,1.64-1.56,2.44-2.37.33-.34.53-.42.93,0a7.5,7.5,0,0,0,7.35,2.43,2.34,2.34,0,0,0,2-3,2.11,2.11,0,0,0-1.7-1.52c-1.41-.38-2.89-.41-4.32-.69a10.94,10.94,0,0,1-3.93-1.5c-3.37-2.17-3.49-8.59.84-11A10.76,10.76,0,0,1,9.93,10.18Z"/><path class="cls-2" d="M415.08,51.4a11,11,0,0,1,8.26,3.05c.35.35.49.55,0,1-.85.75-1.63,1.57-2.41,2.39-.31.32-.48.36-.83,0a7.08,7.08,0,0,0-6.11-2c-1.75.24-2.6,1.49-2.14,3a2.27,2.27,0,0,0,1.76,1.46,28,28,0,0,0,3.63.58,13.7,13.7,0,0,1,2.94.77,6.36,6.36,0,0,1,2.72,9.92,8.45,8.45,0,0,1-5.7,3.1,12.58,12.58,0,0,1-9.2-1.79,14,14,0,0,1-2.12-1.87c-.2-.2-.24-.34,0-.56,1-.91,1.91-1.83,2.84-2.77.33-.33.46-.09.66.12a8,8,0,0,0,4.11,2.48,6.94,6.94,0,0,0,3.7-.09,2.28,2.28,0,0,0,1.72-2.32,2.09,2.09,0,0,0-1.77-2.09c-1.34-.38-2.74-.4-4.11-.65a14.66,14.66,0,0,1-2.84-.82c-5-2-4.62-8.54-1.49-11A9.89,9.89,0,0,1,415.08,51.4Z"/><path class="cls-2" d="M170.67,24.14c0,2.81,0,5.61,0,8.42,0,.5-.15.64-.64.63-1.39,0-2.78,0-4.17,0-.61,0-.8-.13-.79-.77,0-5.49,0-11,0-16.47,0-.71-.17-1-.89-.88s-1.32,0-2,0c-.38,0-.48-.13-.48-.49,0-1.13,0-2.26,0-3.39,0-.47.17-.55.58-.53.7,0,1.41,0,2.12,0,.49,0,.65-.12.64-.62,0-1.13,0-2.27.05-3.39.27-3.35,2.23-5.23,5.58-5.36,1.34-.05,2.69,0,4,0,.35,0,.51.06.5.46,0,1.18,0,2.36,0,3.53,0,.38-.13.49-.49.48-1.18,0-2.36,0-3.54,0-.42,0-.58.1-.57.55,0,1.29,0,2.59,0,3.88,0,.41.13.53.53.52,1.18,0,2.36,0,3.54,0,.38,0,.54.09.53.51q0,1.7,0,3.39c0,.42-.16.51-.54.51-1.16,0-2.31,0-3.47,0-.47,0-.59.14-.59.59C170.68,18.49,170.67,21.32,170.67,24.14Z"/><path class="cls-2" d="M264.74,63.18a20.72,20.72,0,0,0,.12,3.52,4.17,4.17,0,0,0,3.43,3.66,4.65,4.65,0,0,0,5-2,3.28,3.28,0,0,0,.45-.79c.18-.57.43-.65,1-.37a27,27,0,0,0,2.92,1.4c.64.26.63.57.38,1.11a8.4,8.4,0,0,1-6.55,5,11.11,11.11,0,0,1-7.72-1.23,9.47,9.47,0,0,1-4.4-6.54,15.69,15.69,0,0,1,1-10.47,8.89,8.89,0,0,1,7.45-5,11,11,0,0,1,6.4,1A8.29,8.29,0,0,1,278,56.6c.18.4.11.56-.28.73-1.22.51-2.41,1.07-3.62,1.6-.2.09-.43.33-.58-.13A4.32,4.32,0,0,0,268.32,56c-2.18.43-3.47,2.09-3.57,4.61C264.71,61.44,264.74,62.31,264.74,63.18Z"/><path class="cls-2" d="M27.5,22a18.83,18.83,0,0,0,.12,3.6,4.06,4.06,0,0,0,3.19,3.47,4.63,4.63,0,0,0,4.92-1.52c.17-.22.31-.47.49-.69s.25-1,.68-1.06.8.33,1.21.52c.72.34,1.43.72,2.17,1s.76.54.45,1.19a8.55,8.55,0,0,1-7.49,5.12A10.62,10.62,0,0,1,26,32,10,10,0,0,1,22,25.12a16.64,16.64,0,0,1,.56-8.57,9.27,9.27,0,0,1,8.58-6.36,10.88,10.88,0,0,1,6.21,1.26,8.27,8.27,0,0,1,3.39,3.86c.18.4.18.61-.27.8-1.22.51-2.42,1.06-3.62,1.6-.25.11-.43.23-.57-.18-.76-2.24-2.81-3.25-5.28-2.8a4.44,4.44,0,0,0-3.45,4.44C27.45,20.11,27.5,21.05,27.5,22Z"/><path class="cls-2" d="M121.4,65.33c0-2.8,0-5.61,0-8.41,0-.54-.15-.68-.67-.65-.73,0-1.46,0-2.2,0-.37,0-.48-.11-.48-.48,0-1.15,0-2.31,0-3.46,0-.4.17-.46.51-.45.73,0,1.46,0,2.19,0,.56.05.64-.17.65-.67a26.09,26.09,0,0,1,.09-4,5.2,5.2,0,0,1,5.16-4.7c1.48-.08,3,0,4.46-.05.32,0,.46.09.45.44,0,1.18,0,2.35,0,3.53,0,.41-.19.45-.52.45-1.2,0-2.4,0-3.61,0-.4,0-.53.11-.52.52,0,1.32,0,2.64,0,4,0,.43.17.49.54.49,1.18,0,2.36,0,3.54,0,.42,0,.58.09.57.54,0,1.11,0,2.22,0,3.32,0,.46-.16.55-.57.54-1.13,0-2.27,0-3.4,0-.59,0-.68.19-.68.71,0,5.54,0,11.08,0,16.61,0,.65-.17.83-.81.81-1.37-.06-2.74-.05-4.11,0-.52,0-.67-.11-.66-.65C121.42,70.94,121.4,68.13,121.4,65.33Z"/><path class="cls-2" d="M312.55,22c0,2.05,0,4.1,0,6.15,0,.49.12.66.62.64,1,0,2.08,0,3.12,0,.4,0,.53.12.53.52,0,1.15,0,2.31,0,3.46,0,.26,0,.47-.36.47a34.55,34.55,0,0,1-5.09-.14c-2.88-.49-4.36-2.41-4.37-5.6,0-3.86,0-7.73,0-11.59,0-.57-.12-.79-.73-.74s-1.41,0-2.12,0c-.33,0-.46-.09-.45-.44,0-1.18,0-2.35,0-3.53,0-.37.12-.5.49-.48.54,0,1.08,0,1.62,0a1.61,1.61,0,0,0,1.72-1.75c.05-1.25,0-2.5,0-3.75,0-.43.06-.63.57-.61,1.29,0,2.59,0,3.89,0,.51,0,.57.18.57.61,0,1.65,0,3.3,0,5,0,.45.12.62.59.6,1.16,0,2.32,0,3.47,0,.44,0,.57.12.56.56q0,1.69,0,3.39c0,.41-.13.52-.53.51-1.18,0-2.36,0-3.54,0-.44,0-.55.14-.55.56C312.56,17.77,312.55,19.87,312.55,22Z"/><path class="cls-2" d="M196.82,21.93c0,2.07,0,4.14,0,6.21,0,.44.09.63.58.61,1.06,0,2.13,0,3.19,0,.45,0,.56.14.55.56,0,1.11,0,2.22,0,3.32,0,.25.07.56-.34.55a32.62,32.62,0,0,1-5.23-.15c-2.78-.51-4.23-2.4-4.24-5.39,0-3.91,0-7.82,0-11.72,0-.6-.1-.86-.76-.79s-1.37,0-2.05,0c-.37,0-.56-.05-.55-.49,0-1.15,0-2.31,0-3.46,0-.44.18-.5.55-.49a13.64,13.64,0,0,0,1.69-.06A1.62,1.62,0,0,0,191.81,9a34.6,34.6,0,0,0,.05-3.81c0-.55.16-.67.68-.65,1.22,0,2.45,0,3.68,0,.51,0,.62.15.61.63,0,1.65,0,3.3,0,4.95,0,.47.14.61.6.59,1.16,0,2.31,0,3.47,0,.4,0,.6.06.58.53,0,1.13,0,2.26,0,3.39,0,.4-.12.53-.52.52-1.18,0-2.36,0-3.54,0-.48,0-.59.15-.59.6C196.83,17.78,196.82,19.85,196.82,21.93Z"/><path class="cls-2" d="M116.7,15.21c0-4.4,0-8.81,0-13.21,0-.6.16-.75.74-.73,1.35.05,2.69.05,4,0,.61,0,.78.13.78.77,0,8.62,0,17.24,0,25.87,0,.67.15.89.84.85s1.6-.32,2,.13.09,1.3.11,2,0,1.22,0,1.84c0,.25,0,.47-.36.46a22.9,22.9,0,0,1-4.3-.17,4.39,4.39,0,0,1-3.81-4.43c-.08-2.47,0-4.94,0-7.42C116.7,19.17,116.7,17.19,116.7,15.21Z"/><path class="cls-2" d="M294.13,15.27a9.45,9.45,0,0,1,.87-2,6.18,6.18,0,0,1,6-2.61c.26.06.28.2.28.4,0,1.48,0,3,0,4.45,0,.45-.27.4-.56.4a18,18,0,0,0-3.66.2A5,5,0,0,0,295,17a3.26,3.26,0,0,0-1.09,2.78c0,4.22,0,8.43,0,12.64,0,.65-.18.79-.79.77-1.39,0-2.78,0-4.17,0-.47,0-.59-.14-.59-.6q0-10.66,0-21.33c0-.41.09-.58.54-.58,1.49,0,3,0,4.46,0,.46,0,.55.16.54.58,0,1.33,0,2.66,0,4Z"/><path class="cls-2" d="M108.58,56.53c.09-.29.18-.57.29-.85,1.29-3.22,3.92-3.9,6.58-3.78.26,0,.31.13.31.35,0,1.51,0,3,0,4.52,0,.4-.22.39-.5.39a17.29,17.29,0,0,0-3.87.24c-2.16.48-3,1.51-3,3.7,0,4.21,0,8.43,0,12.64,0,.54-.15.67-.67.65-1.44,0-2.88,0-4.31,0-.42,0-.57-.09-.57-.54q0-10.69,0-21.4c0-.43.11-.57.55-.56,1.49,0,3,0,4.46,0,.46,0,.54.15.53.56,0,1.36,0,2.71,0,4.06Z"/><path class="cls-2" d="M164,56.57c.33-.19.3-.46.37-.66a5.65,5.65,0,0,1,5.22-4c.47,0,.94,0,1.41,0,.28,0,.37.09.37.36,0,1.51,0,3,0,4.53,0,.41-.25.37-.51.37a17.33,17.33,0,0,0-3.87.24c-2.16.48-3,1.5-3,3.69,0,4.21,0,8.43,0,12.65,0,.53-.13.67-.66.65-1.46,0-2.92,0-4.39,0-.39,0-.52-.09-.52-.51q0-10.74,0-21.48c0-.4.12-.51.52-.51,1.51,0,3,0,4.53,0,.48,0,.52.19.51.58C164,53.81,164,55.15,164,56.57Z"/><path class="cls-2" d="M433.74,63.14c0,3.53,0,7.07,0,10.6,0,.54-.15.67-.67.65-1.46,0-2.93,0-4.39,0-.4,0-.52-.1-.51-.51q0-10.74,0-21.48c0-.41.11-.51.51-.51,1.46,0,2.93,0,4.39,0,.52,0,.67.11.67.65C433.73,56.07,433.74,59.61,433.74,63.14Z"/><path class="cls-2" d="M452.7,21.93c0-3.51,0-7,0-10.53,0-.6.17-.74.75-.72,1.39,0,2.78,0,4.18,0,.46,0,.65.08.65.6q0,10.63,0,21.27c0,.51-.17.62-.65.61-1.44,0-2.88,0-4.32,0-.52,0-.6-.18-.6-.65C452.71,29,452.7,25.47,452.7,21.93Z"/><path class="cls-2" d="M340.93,39.32A20,20,0,0,0,343.75,36a12.22,12.22,0,0,0,1.07-2.14c.11-.28.05-.33-.22-.43a3.89,3.89,0,0,1-1.54-5.86,4.08,4.08,0,0,1,4.25-.9,2.88,2.88,0,0,1,2,2.91,11.85,11.85,0,0,1-3.94,9.31,1.29,1.29,0,0,1-1,.4C343.3,39.3,342.22,39.32,340.93,39.32Z"/><path class="cls-2" d="M452.25,4.24c0-2.23,1-3.21,3.23-3.21s3.25,1,3.24,3.23-1,3.19-3.26,3.18S452.25,6.5,452.25,4.24Z"/><path class="cls-2" d="M427.75,45.49c0-2.25,1-3.2,3.22-3.2s3.29,1,3.29,3.18-1,3.2-3.27,3.2S427.75,47.74,427.75,45.49Z"/><path class="cls-1" d="M696.67,26.74c0-4.29,0-8.57,0-12.86,0-.35,0-.63.47-.67a33.79,33.79,0,0,1,8-.09c5.72.9,9.41,4.22,11.38,9.54a14.43,14.43,0,0,1-.13,11,11.2,11.2,0,0,1-7.86,6.43,25.84,25.84,0,0,1-11.07.36c-.68-.11-.85-.4-.84-1.07C696.69,35.18,696.67,31,696.67,26.74Z"/><path class="cls-1" d="M658,42.2c-.06,6.18-.85,11.6-3.31,16.65a20.84,20.84,0,0,1-16.06,12,23,23,0,0,1-13.44-1.36,25.32,25.32,0,0,1-11.69-10.88,36.17,36.17,0,0,1-4.75-21.41,33.59,33.59,0,0,1,3-12.39,21.4,21.4,0,0,1,16-12.21,23.31,23.31,0,0,1,13.15.9,24,24,0,0,1,11.67,10A35.13,35.13,0,0,1,658,42.2Z"/><path class="cls-1" d="M326.76,70.28A5,5,0,0,1,323,68.71a4.76,4.76,0,0,1,.59-6.38C325,61,325,61,326.36,62.42c1.76,1.9,3.51,3.81,5.28,5.69.33.36.29.52-.09.78A8,8,0,0,1,326.76,70.28Z"/><path class="cls-1" d="M330.68,51.11a3.63,3.63,0,0,1-1.06,2.6,10.92,10.92,0,0,1-2.27,1.79c-.25.16-.43.2-.65-.07a12.75,12.75,0,0,1-1.94-2.67,3.22,3.22,0,0,1,.6-3.88,3.65,3.65,0,0,1,4.1-.24A2.66,2.66,0,0,1,330.68,51.11Z"/><path class="cls-1" d="M447.6,74.66a34.33,34.33,0,0,1,4.66.15c1.57.28,2.28,1.23,2,2.66a2.28,2.28,0,0,1-1.53,1.7,6.64,6.64,0,0,1-2.49.47,29.88,29.88,0,0,1-6.2-.19c-2.28-.47-3.11-2.71-1.66-4.36a1.15,1.15,0,0,1,1-.44C444.68,74.68,446,74.66,447.6,74.66Z"/><path class="cls-1" d="M451.73,59c.22,3.23-2.33,4.07-5,3.72-2.17-.29-3.06-1.39-3.06-3.58,0-.33,0-.66,0-1a2.87,2.87,0,0,1,2.15-2.68,6.27,6.27,0,0,1,3.69,0C450.74,55.83,451.86,56.71,451.73,59Z"/><path class="cls-1" d="M441.71,21.9V25a3.69,3.69,0,0,1-3.46,4c-3.41.52-5.79-1.38-5.92-4.83a27.28,27.28,0,0,1,.11-5.42,4.37,4.37,0,0,1,3-3.75,5.24,5.24,0,0,1,5.13.9,3.06,3.06,0,0,1,1.12,2.55Z"/><path class="cls-1" d="M59.62,63.09v-3a3.78,3.78,0,0,1,3.71-4A4.81,4.81,0,0,1,69,61.1c0,1.41,0,2.83,0,4.24a4.7,4.7,0,0,1-2.4,4.36,5.3,5.3,0,0,1-5.28-.1,3.1,3.1,0,0,1-1.69-2.9C59.63,65.5,59.63,64.3,59.62,63.09Z"/><path class="cls-1" d="M372.81,63.14v3.25A3.44,3.44,0,0,1,370.18,70c-3.66,1.21-6.74-1-6.73-4.82a27.24,27.24,0,0,1,.15-5.42,4.94,4.94,0,0,1,8.06-2.7,3.07,3.07,0,0,1,1.15,2.47Z"/><path class="cls-1" d="M274.39,23.48c.73,0,1.34,0,2,0,.33,0,.52,0,.5.45,0,.87,0,1.74,0,2.61A2.71,2.71,0,0,1,275.29,29a5.92,5.92,0,0,1-4.46.44,2.32,2.32,0,0,1-1.77-2.13c-.26-2.2.58-3.32,2.77-3.68A19.16,19.16,0,0,1,274.39,23.48Z"/><path class="cls-1" d="M473.17,23.51c.77,0,1.79-.36,2.23.12s.12,1.43.12,2.18c0,2.28-1.1,3.51-3.38,3.76a6.29,6.29,0,0,1-2.59-.15A2.44,2.44,0,0,1,467.73,27c-.19-2.58,1.21-3.29,3.46-3.51A18.68,18.68,0,0,1,473.17,23.51Z"/><path class="cls-1" d="M88.34,61.11h-4c-.33,0-.5,0-.52-.45a4.78,4.78,0,0,1,6-5,4.38,4.38,0,0,1,3.17,4.2c.09,1.2.09,1.2-1.12,1.2Z"/><path class="cls-1" d="M290.89,61.11h-4.1c-.27,0-.48,0-.51-.38a4.84,4.84,0,0,1,6.58-4.83,5,5,0,0,1,2.63,4.91c-.06.39-.29.3-.51.3Z"/><path class="cls-1" d="M392.91,61.11h-4c-.23,0-.55.1-.54-.34A5,5,0,0,1,391,56a4.4,4.4,0,0,1,6.43,3.74c.12,1.36.12,1.36-1.22,1.36Z"/><path class="cls-1" d="M238.72,19.87h-4c-.27,0-.53,0-.52-.37.08-2.83,1.66-5.07,4.67-5.18,2.54-.08,4.35,1.75,4.51,4.51a2.75,2.75,0,0,0,0,.5c.08.45-.12.56-.54.55C241.46,19.86,240.09,19.87,238.72,19.87Z"/><path class="cls-1" d="M221.66,64.74c.61,0,1.23,0,1.84,0s.63.17.6.64c0,.66,0,1.31,0,2a3,3,0,0,1-2.2,3.16,6.09,6.09,0,0,1-3.68.19,2.42,2.42,0,0,1-1.93-2.37c-.18-2.35.8-3.24,3.19-3.53a17.76,17.76,0,0,1,2.19,0Z"/><path class="cls-1" d="M413,19.87h-4c-.32,0-.54,0-.53-.45.05-4,3.27-5.75,6.17-4.89,2.22.65,3.08,3,3,5,0,.43-.32.33-.56.33Z"/><path class="cls-1" d="M97.43,21.91a25.91,25.91,0,0,1,.15-3.52,4.32,4.32,0,0,1,4.47-3.79,4.16,4.16,0,0,1,4.5,3.64,23.08,23.08,0,0,1,0,7.51c-.4,2.28-2.16,3.51-4.56,3.45a4.23,4.23,0,0,1-4.36-3.63A24.92,24.92,0,0,1,97.43,21.91Z"/><path class="cls-1" d="M148.45,63.15a19.87,19.87,0,0,1-.09,3.45,4.28,4.28,0,0,1-4.55,3.84,4.16,4.16,0,0,1-4.48-3.81,25.35,25.35,0,0,1,0-7c.36-2.58,2.23-4,4.85-3.8a4.36,4.36,0,0,1,4.27,4.39C148.5,61.22,148.45,62.19,148.45,63.15Z"/><path class="cls-1" d="M73.53,21.86a19.74,19.74,0,0,1,.12-3.52,4.6,4.6,0,0,1,9.07.29,37.7,37.7,0,0,1,0,6.55,4.28,4.28,0,0,1-4.74,4,4.39,4.39,0,0,1-4.44-4.59C73.5,23.69,73.53,22.78,73.53,21.86Z"/><path class="cls-1" d="M154,21.89a28,28,0,0,1-.13,3.56,4.31,4.31,0,0,1-4.63,3.75,4.25,4.25,0,0,1-4.44-3.95,29.93,29.93,0,0,1,0-6.69,4.59,4.59,0,0,1,9.06-.22A28.47,28.47,0,0,1,154,21.89Z"/></g></g></svg>