<svg xmlns="http://www.w3.org/2000/svg" viewBox="0 0 1078.26 272.73"><g id="Layer_2" data-name="Layer 2"><g id="Layer_1-2" data-name="Layer 1"><path d="M941.69,272.73c-19.8-.23-39.36-2.06-58.37-7.86-19.49-6-36.55-15.81-49.84-31.54-10.8-12.77-17.56-27.57-21.89-43.59a180.81,180.81,0,0,1-5.9-39.57c-.73-16.4-.41-32.78,2.1-49.06a147.93,147.93,0,0,1,10-36.35c12-27.69,32.65-45.87,61-55.62C893,4.26,907.66,1.82,922.57.72a258.71,258.71,0,0,1,39.37.06c14.91,1.15,29.54,3.69,43.69,8.67,31.77,11.2,52.93,32.84,63.7,64.68,4.84,14.31,7.22,29.08,8.29,44.1a252.41,252.41,0,0,1-.76,44.58c-1.54,14.61-4.56,28.88-10.1,42.54-11.72,28.88-32.67,48-62,58a166.76,166.76,0,0,1-43,8.34C955.06,272.19,948.37,272.41,941.69,272.73ZM1033.2,73.6c-32.06-13.83-62.43-11.52-91.47,7-34.13-22.94-72.9-17-91.35-6.19,4,34,21.12,59.07,51.71,75a91.6,91.6,0,0,0,8.75,46.38,90,90,0,0,0,30.94,35.92,91.71,91.71,0,0,0,27-28.7c9.87-16.52,13.83-34.47,12.59-53.56C1012.15,133.32,1029.4,108.28,1033.2,73.6Z"/><path d="M0,153.68a100.66,100.66,0,0,1,3.87-25.43c6.45-21.44,20.24-36.12,41.49-43.18a96.29,96.29,0,0,1,62.13.06c21.1,7.07,34.88,21.64,41.05,43.05a89.75,89.75,0,0,1-.3,51.82c-6.43,21.15-20.39,35.44-41.36,42.36a96.37,96.37,0,0,1-60.32.38C21.79,214.93,7.31,197.6,2.23,172.4,1,166.26.72,159.93,0,153.68Zm76.14-45.32,0,.31c-2.15.11-4.3.12-6.43.36-18.7,2-30.08,13-34.35,28A58.33,58.33,0,0,0,35.57,171c4.37,14,13.91,22.81,28.18,26.33a56.76,56.76,0,0,0,20,.95c16.67-1.82,29.14-12.33,33.59-28.47a58.44,58.44,0,0,0-.06-32.12c-4.17-14.52-13.59-23.91-28.4-27.48C84.7,109.18,80.38,108.94,76.14,108.36Z"/><path d="M751.66,170.47a57.42,57.42,0,0,1-2.13,18.3c-4.78,17-15.5,28.68-32.21,34.39a74.83,74.83,0,0,1-48.35.32c-17.71-5.77-28.79-18-33.3-36a68.77,68.77,0,0,1,.3-35.15c4.95-18.24,16.71-30.2,34.79-35.62a75.28,75.28,0,0,1,44,0c20.79,6.25,32.56,20.58,36.17,41.8a44.43,44.43,0,0,1,.67,5.24C751.75,165.93,751.66,168.2,751.66,170.47Zm-59.1,30.07c.89,0,1.77,0,2.65,0,12.88-.6,21.83-7.94,24.88-20.44a39.89,39.89,0,0,0-.32-20.58c-2.73-9.61-8.87-16.07-18.71-18.4a39.79,39.79,0,0,0-11.26-.91c-12.81.76-21.89,8.33-24.29,20.55a52.45,52.45,0,0,0-.75,14.64C666.18,191,676.91,200.51,692.56,200.54Z"/><path d="M474.19,224.59H445V214.51c-1.15.76-1.87,1.14-2.49,1.66-10.28,8.55-22.28,11.49-35.36,10.49a48.74,48.74,0,0,1-11.46-2.29c-15.3-5.09-23.1-17.39-21.81-33.57,1.41-17.65,12.1-28.64,30.56-31.83,12.35-2.14,24.65-1.32,36.89,1.05,1.23.24,2.46.52,4.2.88.53-6.43-1.16-11.75-5.85-16a21.33,21.33,0,0,0-10.91-4.9c-8.11-1.45-16.12-.51-24,1.27-4.77,1.07-9.44,2.57-14.49,4-2.32-7.17-4.64-14.31-6.9-21.27.33-.47.42-.77.62-.86a93.34,93.34,0,0,1,58.06-6.7c19.77,4,29.21,17.41,31.51,35.43a103.43,103.43,0,0,1,.67,12.45c.07,18.67,0,37.33,0,56Zm-28.84-44.43a51.3,51.3,0,0,0-23.68-3.29,35,35,0,0,0-10.15,2.56c-5.9,2.57-8.38,7.57-7.76,14.13.48,5,4.07,9.17,9.83,10.66a28.77,28.77,0,0,0,22.93-3.14,17.52,17.52,0,0,0,8.81-14.57C445.45,184.51,445.35,182.5,445.35,180.16Z"/><path d="M273.44,224.62H242.5v-4.24c0-19.42.09-38.84-.07-58.26A39.49,39.49,0,0,0,240.8,151c-2.05-6.63-6.88-10.48-13.87-11.07a28.16,28.16,0,0,0-9,.53c-7.48,1.84-11.23,7.32-12.59,14.53a50.39,50.39,0,0,0-.71,9c-.06,18.78,0,37.57,0,56.36v4.25H173.81V116h30.74v14l.74.22c1.15-1.27,2.29-2.54,3.45-3.8,11.63-12.7,25.92-15.5,41.8-10.39,12.93,4.16,19.49,14.15,22.06,27a49.23,49.23,0,0,1,.93,9.38c.08,23.2.05,46.41.05,69.61C273.58,222.81,273.5,223.56,273.44,224.62Z"/><path d="M303.63,141.27H291.32c-.92-3.08-1.07-20.89-.26-25.47h12.53V88.05h29.56v27.71h26.41v25.4H333.44c-.1,1.6-.22,2.7-.22,3.8,0,14.25.13,28.49-.05,42.74-.13,9.22,4,12.28,12.25,11.51A90.67,90.67,0,0,0,356.48,197a29,29,0,0,0,3.09-1.07c.1,1.26.24,2.21.24,3.16,0,5.92-.15,11.86.08,17.77.11,2.86-.85,4.55-3.5,5.37-4.2,1.31-8.32,3.06-12.62,3.8a50.39,50.39,0,0,1-19.57-.46c-9.74-2.15-16.28-7.92-18.78-17.61a55.72,55.72,0,0,1-1.69-13.05c-.19-16.39-.09-32.78-.1-49.17Z"/><path d="M499.08,115.92h29.71v19.86l.69.21,1.5-2.32a100.83,100.83,0,0,1,5.75-8.85c6.39-7.95,15-11.1,25-11.1a4.8,4.8,0,0,1,1.11.2c.11,0,.19.14.52.39v27c-2.48.23-4.85.34-7.19.68-14.16,2.07-22.78,10-25.63,24a82.13,82.13,0,0,0-1.49,15c-.2,13.23-.07,26.47-.07,39.71v3.89H499.26C498.55,221.94,498.33,121.33,499.08,115.92Z"/><path d="M612,224.7H582c-.8-2.66-1.06-103-.27-108.64h30.1C612.53,118.66,612.82,218.32,612,224.7Z"/><path d="M580.76,76.65h32.18v26.79H580.76Z"/><path d="M905.75,129.54c-16.9-10-28-24.15-33.69-43a16.21,16.21,0,0,1,2.46-1q33.3-6.9,60.27,13.81a39.14,39.14,0,0,1,6.43,6.37,19.82,19.82,0,0,1,4.61,14.78c-.07.74-.06,1.5-.08,2.25a6.21,6.21,0,0,0,.29.88c6-2.57,11.67-5.52,14.48-11.81,2.9-6.51.42-12.28-3.24-17.69,10-9.14,41.4-13.59,54.08-7.57-.5,1.61-.93,3.3-1.53,4.92-7.73,20.69-22,34.92-42.58,42.91-5.55,2.16-11.3,2.91-17,1-2.69-.9-5.13-2.56-8.1-4.09-.88,6.43-1.14,12.73,2.8,18.34,4.12,5.86,10.38,6.61,16.88,6.24,2.39,13.82-6.75,39.25-20.28,50.62a71.05,71.05,0,0,1-19.34-62.87c1.66-8.69,5.75-15.54,14.53-18.76.19-.07.31-.33.68-.74-5.2-3.92-10.6-7.42-17.49-6.75C912.66,118.13,908.85,123.32,905.75,129.54Z"/></g></g></svg>