<svg xmlns="http://www.w3.org/2000/svg" viewBox="0 0 323.16 79.94"><defs><style>.cls-1{fill:#003970;}.cls-2{fill:none;stroke:#f16522;stroke-miterlimit:10;stroke-width:4px;}.cls-3{fill:#f16522;}</style></defs><g id="Layer_2" data-name="Layer 2"><g id="choice"><g id="pre-baked_icon" data-name="pre-baked icon"><path class="cls-1" d="M14.49,59.42c-.64-.58,10,13.65,9.65,12.87,1,1.56,2.08,1.72,2.25.32,1.4.22,1.56-.89.32-2.25.65.57-10-13.65-9.65-12.87-1-1.56-2.07-1.72-2.25-.32C13.42,56.94,13.26,58.06,14.49,59.42Z" transform="translate(-0.14)"/><path class="cls-1" d="M30.91,72.29c1,1.56,2.08,1.72,2.25.32,1.4.22,1.56-.89.33-2.25.64.57-10-13.65-9.65-12.87-1-1.56-2.08-1.72-2.26-.32-1.39-.23-1.55.89-.32,2.25C20.62,58.84,31.28,73.07,30.91,72.29Z" transform="translate(-0.14)"/><path class="cls-1" d="M37.94,72.29c.55,1.7,2,1.74,2.55,0,.27.61,10.66-13.24,9.67-12.89,1.74-1.36,1.58-2.48-.32-2.25.33-1.4-.78-1.24-2.25.32.88-.78-8.36,11.55-8.36,11.15,0,.4-9.25-11.93-8.37-11.15-1.47-1.56-2.58-1.72-2.25-.32-1.9-.23-2.06.89-.32,2.25C27.16,58.87,37.82,73.09,37.94,72.29Z" transform="translate(-0.14)"/><path class="cls-1" d="M52.06,72.61c.17,1.4,1.29,1.24,2.25-.32-.37.78,10.29-13.45,9.65-12.87,1.23-1.36,1.07-2.48-.32-2.25-.18-1.4-1.29-1.24-2.25.32.37-.78-10.3,13.44-9.65,12.87C50.5,71.72,50.66,72.83,52.06,72.61Z" transform="translate(-0.14)"/><path class="cls-1" d="M45.29,72.61c.17,1.4,1.28,1.24,2.25-.32-.37.78,10.29-13.45,9.65-12.87,1.23-1.36,1.07-2.48-.32-2.25-.18-1.4-1.29-1.24-2.25.32C55,56.71,44.32,70.93,45,70.36,43.73,71.72,43.89,72.83,45.29,72.61Z" transform="translate(-0.14)"/><circle class="cls-1" cx="21.87" cy="15.46" r="1.61"/><circle class="cls-1" cx="64.19" cy="7" r="1.61"/><circle class="cls-1" cx="3.24" cy="23.93" r="1.61"/><circle class="cls-1" cx="52.34" cy="13.77" r="1.61"/><path class="cls-1" d="M74.56,45.5c3.82-3.83,1.9-6.49-4.2-6.2,1.63-4.43-2.68-7.69-10.63-8C55.12,26,47,24.28,39.08,27c-7.64-2.68-15.67-1-20.46,4.27-7.5.19-11.74,3.26-10.52,7.61-7-1.15-10,2-6.19,6.66-3.82,2.9-1.2,5.92,5.49,6.58-3.25,0,2.72,19,5.39,17.27-.9,7.45,4.28,11.26,11.68,8.58-1.45,2.68,31.06,2.68,29.42,0,7.59,2.68,12.77-1.13,11.67-8.58,2.87,1.78,9.11-18.16,5.64-18C76.89,49.91,78.38,47.51,74.56,45.5ZM39.12,29.27c7.37-.53,15,1.06,19.33,4.05,6.08,1.69,8.83,3.61,7.65,4.84,1.88.68,1,1.15-2.43,1.26-.11-1.69-4-1.69-8.47,0-1-1.69-4.92-1.69-8.46,0-1.89-1.69-5.82-1.69-8.47,0-2.78-1.69-6.71-1.69-8.47,0-3.67-1.69-7.59-1.69-8.47,0-4.56-1.69-8.48-1.69-8.46,0-3.15.2-3.59-.09-1.19-.78C12.93,34.75,24.48,28.74,39.12,29.27ZM62.54,69c1.14,4.7-2.68,7.51-8.61,6.32,1.55,1.19-31,1.19-29.41,0-5.93,1.19-9.75-1.62-8.61-6.32-2.45.52-8-17.38-5.06-16.2-3-1.18,59.73-1.18,56.75,0C70.58,51.59,65,69.49,62.54,69Zm5.33-20.36c.22.37-59.57.37-59.27,0-5.23.37-7-1.35-3.47-3.47C1.64,43,3.37,41.3,8.6,41.67c-1.84-.37-.64.27,2.89,1.55-2.11.85-.55.86,2.68,0-1-2.49,2.35-2.49,5.79,0-1.22.86.34.86,2.68,0-.12-2.49,3.23-2.49,5.79,0-.33.86,1.23.86,2.68,0,.77-2.49,4.12-2.49,5.79,0a1.71,1.71,0,0,0,2.68,0c1.66-2.49,5-2.49,5.78,0,1.46.86,3,.86,2.68,0,2.56-2.49,5.91-2.49,5.79,0,2.34.86,3.9.86,2.68,0,3.44-2.49,6.8-2.49,5.79,0,3.23.86,4.79.86,2.68,0,3.53-1.28,4.72-1.92,2.89-1.55,5.24-.37,7,1.35,3.47,3.47C74.83,47.26,73.11,49,67.87,48.61Z" transform="translate(-0.14)"/><path class="cls-1" d="M63.22,19.69a4.78,4.78,0,0,0,5.63,5.63,4.77,4.77,0,0,0,5.63-5.63,4.78,4.78,0,0,0-5.63-5.63A4.78,4.78,0,0,0,63.22,19.69Zm5.63-2.41a2.05,2.05,0,0,1,2.42,2.41,2.06,2.06,0,0,1-2.42,2.42,2.05,2.05,0,0,1-2.41-2.42A2,2,0,0,1,68.85,17.28Z" transform="translate(-0.14)"/><path class="cls-1" d="M10.72,15.17a4.78,4.78,0,0,0,5.63-5.63,4.78,4.78,0,0,0-5.63-5.63A4.78,4.78,0,0,0,5.09,9.54,4.78,4.78,0,0,0,10.72,15.17Zm0-8a2.05,2.05,0,0,1,2.41,2.42A2,2,0,0,1,10.72,12,2,2,0,0,1,8.31,9.54,2.05,2.05,0,0,1,10.72,7.12Z" transform="translate(-0.14)"/><path class="cls-1" d="M29.42,16.28c.46,1.48,1.59,1.46,2.28,0,.32.45,3.24-2.67,2.84-5.91A2.64,2.64,0,0,0,33.22,7.5a6.65,6.65,0,0,1-.93-1.71c0-1.45.86-2.63,1-2.43.83-1.27.8-2.39-.06-2.27C32.71-.39,31.58-.36,31,1.15c-.3-.56-2.29,1.61-1.9,4.75a4.41,4.41,0,0,0,2,4,2.34,2.34,0,0,0,.26.55A5.54,5.54,0,0,1,29.38,14C28.45,15.27,28.47,16.4,29.42,16.28Z" transform="translate(-0.14)"/><path class="cls-1" d="M37.89,19.67c.46,1.48,1.58,1.46,2.27,0,.33.45,3.25-2.67,2.85-5.92a2.66,2.66,0,0,0-1.32-2.83,6.18,6.18,0,0,1-.93-1.7c0-1.46.86-2.64,1-2.44.84-1.27.81-2.39-.06-2.26C41.17,3,40.05,3,39.45,4.53c-.31-.55-2.29,1.61-1.91,4.75a4.42,4.42,0,0,0,2,4,5.22,5.22,0,0,0,.26.55,5.53,5.53,0,0,1-1.94,3.57C36.92,18.66,36.94,19.78,37.89,19.67Z" transform="translate(-0.14)"/><path class="cls-1" d="M33.35,35.18c0,.2,1.81-1.57,1.61-1.61a1.3,1.3,0,0,0,0-2.27,1.3,1.3,0,0,0-2.28,0c0-.21-1.81,1.57-1.61,1.61a1.29,1.29,0,0,0,0,2.27A1.3,1.3,0,0,0,33.35,35.18Z" transform="translate(-0.14)"/><path class="cls-1" d="M40.12,35.18c0,.2,1.81-1.57,1.61-1.61a1.29,1.29,0,0,0,0-2.27,1.3,1.3,0,0,0-2.28,0c0-.21-1.81,1.57-1.6,1.61a1.29,1.29,0,0,0,0,2.27A1.29,1.29,0,0,0,40.12,35.18Z" transform="translate(-0.14)"/><path class="cls-1" d="M46.89,35.18c0,.2,1.82-1.57,1.61-1.61a1.29,1.29,0,0,0,0-2.27,1.29,1.29,0,0,0-2.27,0c0-.21-1.82,1.57-1.61,1.61a1.29,1.29,0,0,0,0,2.27A1.29,1.29,0,0,0,46.89,35.18Z" transform="translate(-0.14)"/></g><g id="pre-baked"><path id="BG" class="cls-2" d="M296.31,27.37h-180a25,25,0,0,0,0,50h180a25,25,0,0,0,0-50Z" transform="translate(-0.14)"/><path class="cls-3" d="M309.2,52.21A15,15,0,1,0,294.2,67,14.9,14.9,0,0,0,309.2,52.21ZM292.82,59.1a1.74,1.74,0,0,1,0-2.49l2.62-2.55h-6.93a1.8,1.8,0,0,1-1.81-1.79v-.12a1.8,1.8,0,0,1,1.81-1.79h6.91l-2.6-2.53a1.74,1.74,0,0,1,0-2.49,1.84,1.84,0,0,1,2.56,0L301.15,51a1.75,1.75,0,0,1,0,2.5l-5.77,5.63A1.84,1.84,0,0,1,292.82,59.1Z" transform="translate(-0.14)"/><g id="pre-baked_games_label" data-name="pre-baked games label"><path class="cls-3" d="M111.74,47.26a25.07,25.07,0,0,1,4-.25,6.21,6.21,0,0,1,3.84,1A3.64,3.64,0,0,1,121,50.89a3.94,3.94,0,0,1-1.17,3,5.92,5.92,0,0,1-4,1.26c-.31,0-.59,0-.79,0v4.12h-3.23ZM115,52.62a6.1,6.1,0,0,0,.74,0c1.27,0,2.07-.65,2.07-1.69s-.62-1.52-1.84-1.52a4.43,4.43,0,0,0-1,.08Z" transform="translate(-0.14)"/><path class="cls-3" d="M122.58,47.26a26.21,26.21,0,0,1,3.93-.25,6.83,6.83,0,0,1,4.1.93,3.13,3.13,0,0,1,1.21,2.65,3.23,3.23,0,0,1-2.09,2.93v.08a3,3,0,0,1,1.55,2.16c.38,1.24.77,3,1,3.47H129a16.57,16.57,0,0,1-.84-2.79c-.33-1.46-.78-1.76-1.78-1.76h-.53v4.55h-3.22Zm3.22,5.09h.85c1.22,0,1.93-.61,1.93-1.51s-.6-1.42-1.68-1.44a6.39,6.39,0,0,0-1.1.07Z" transform="translate(-0.14)"/><path class="cls-3" d="M141.3,54.33h-4.36v2.24h4.88v2.66h-8.13V47.1h7.88v2.64h-4.63v2h4.36Z" transform="translate(-0.14)"/><path class="cls-3" d="M147.87,52.16v2.1h-4.82v-2.1Z" transform="translate(-0.14)"/><path class="cls-3" d="M149.53,47.26a26.84,26.84,0,0,1,3.83-.25,7.73,7.73,0,0,1,3.71.59,2.67,2.67,0,0,1-.34,5v0a3,3,0,0,1,2.37,3,3.26,3.26,0,0,1-1.35,2.65c-.91.68-2.43,1.08-5,1.08a20.56,20.56,0,0,1-3.2-.2Zm3.22,4.5h.65c1.38,0,2-.49,2-1.26s-.54-1.17-1.64-1.17a5.87,5.87,0,0,0-1.06.07Zm0,5.18a6,6,0,0,0,.94,0c1.08,0,2-.43,2-1.49s-.93-1.43-2.16-1.43h-.77Z" transform="translate(-0.14)"/><path class="cls-3" d="M164,56.42l-.68,2.81h-3.37l3.53-12.13h4.32l3.62,12.13h-3.51l-.78-2.81ZM166.66,54l-.56-2.18-.59-2.39h0c-.19.72-.37,1.73-.54,2.41L164.41,54Z" transform="translate(-0.14)"/><path class="cls-3" d="M172.94,47.1h3.23v5.15h0c.25-.45.53-.9.8-1.34l2.32-3.81h4l-3.85,5.16,4,7H179.7l-2.56-4.91-1,1.24v3.67h-3.23Z" transform="translate(-0.14)"/><path class="cls-3" d="M192.19,54.33h-4.36v2.24h4.88v2.66h-8.14V47.1h7.89v2.64h-4.63v2h4.36Z" transform="translate(-0.14)"/><path class="cls-3" d="M194.51,47.26a26.91,26.91,0,0,1,3.87-.25,8.3,8.3,0,0,1,5,1.2,5.32,5.32,0,0,1,2.19,4.67,6,6,0,0,1-2.12,5,9.16,9.16,0,0,1-5.69,1.5,20,20,0,0,1-3.24-.2Zm3.26,9.54a3.55,3.55,0,0,0,.68,0c2.11,0,3.66-1.14,3.66-3.87a3.13,3.13,0,0,0-3.35-3.48,5.42,5.42,0,0,0-1,.07Z" transform="translate(-0.14)"/><path class="cls-3" d="M221.37,58.66a14.57,14.57,0,0,1-4.18.7,7.06,7.06,0,0,1-5.11-1.64,5.94,5.94,0,0,1-1.73-4.39c0-4.22,3.15-6.36,7.09-6.36a8.85,8.85,0,0,1,3.51.59l-.65,2.6a6.85,6.85,0,0,0-2.88-.51c-2,0-3.65,1.05-3.65,3.51a3.31,3.31,0,0,0,3.46,3.59,4,4,0,0,0,1-.11V54.55h-1.62V52h4.76Z" transform="translate(-0.14)"/><path class="cls-3" d="M226.58,56.42l-.68,2.81h-3.37l3.53-12.13h4.32L234,59.23h-3.51l-.77-2.81ZM229.27,54l-.56-2.18c-.18-.68-.42-1.67-.6-2.39h0c-.18.72-.36,1.73-.54,2.41L227,54Z" transform="translate(-0.14)"/><path class="cls-3" d="M245.81,54.89c0-1.38-.07-3-.05-4.89h-.06c-.38,1.6-.88,3.42-1.28,4.75L243.22,59h-2.54l-1-4.21c-.3-1.32-.68-3.12-1-4.77h0c-.07,1.71-.14,3.51-.2,4.89l-.18,4.34h-3L236,47.1h4.38l.81,3.25c.32,1.36.68,3,.93,4.45h.08c.34-1.47.73-3.18,1.09-4.46l.91-3.24h4.28l.61,12.13H246Z" transform="translate(-0.14)"/><path class="cls-3" d="M258.73,54.33h-4.35v2.24h4.88v2.66h-8.14V47.1H259v2.64h-4.62v2h4.35Z" transform="translate(-0.14)"/><path class="cls-3" d="M261.27,56a7.34,7.34,0,0,0,3.15.76c1.12,0,1.66-.38,1.66-1s-.54-.94-1.91-1.41c-2.06-.72-3.41-1.85-3.41-3.65,0-2.15,1.8-3.8,4.87-3.8a7.86,7.86,0,0,1,3.29.63l-.68,2.59a6.49,6.49,0,0,0-2.65-.57c-1,0-1.53.35-1.53.9s.65.86,2.18,1.44c2.18.79,3.17,2,3.17,3.65,0,2.09-1.64,3.87-5.19,3.87a8.55,8.55,0,0,1-3.56-.74Z" transform="translate(-0.14)"/></g></g></g></g></svg>