<svg xmlns="http://www.w3.org/2000/svg" viewBox="0 0 588.92 121.66"><defs><style>.cls-1{stroke:#000;stroke-miterlimit:10;}</style></defs><g id="Layer_2" data-name="Layer 2"><g id="basic_tutorial" data-name="basic tutorial"><g id="pre-baked_games" data-name="pre-baked games"><path class="cls-1" d="M52.6,54.13c-5.72-2-11.93.29-17.17,2.52-1.26.68-2.62,1.36-4.07,2.13a54,54,0,0,1-10,11.06c-1.07.68-2.43,1.94-3.79,1.17-.77-.59-.39-1.65.1-2.33,2.13-2.72,6.21-6.11,10.86-9a41.8,41.8,0,0,0,4.37-8.93c1.55-5.82-4.56-.19-5.92,1.55C15.25,67.42,9.24,87.11,4.78,105.54c-.29,1.45-.58,3-.87,4.46a1.78,1.78,0,0,1-2,1.36,1.81,1.81,0,0,1-1.36-1.94C2,98.36,3.52,87.3,5.07,76.24s3.3-22.11,5.14-33.17a1.67,1.67,0,1,1,3.3.48c-2.14,13.1-4.08,26.2-5.92,39.39,4.95-14.26,12-28.52,20.76-35.89a6.59,6.59,0,0,1,3.78-1.55,3.42,3.42,0,0,1,3.69,3.29c-.1,2.62-1.36,4.85-2.52,7-.39.68-.78,1.26-1.17,1.84,7.37-4,15.62-6.5,20.86-4.56A.57.57,0,1,1,52.6,54.13ZM27.77,60.92c-3.88,2.52-7.67,5.43-9.8,8.63-.1.2-.19.49,0,.68.78.68,2.23-.68,2.91-1.16A49.69,49.69,0,0,0,27.77,60.92Z"/><path class="cls-1" d="M85.09,55.29c-2.81,2.14-9.6,7.08-13.09,5.92-4.17-1.84-2.23-8.34-1.75-11.74.2-.87.39-1.74.49-2.52a1.39,1.39,0,0,0-2-1.45C63.27,48.7,53.86,65.67,53,78.09a1.74,1.74,0,0,1-3.4-.39,127.38,127.38,0,0,1,5.72-36.09,1.75,1.75,0,0,1,3.3,1.17,124.59,124.59,0,0,0-5,24.64c1.94-5.34,8.15-18.34,12.61-22.51,4.27-4.07,8.92-3.68,7.18,3-.49,3-4.17,10.48-.78,12.22,3.59,1,11.16-4.17,13.48-6.89.1-.19.39-.19.59-.09C87.42,53.84,85.38,54.9,85.09,55.29Z"/><path class="cls-1" d="M117.88,53.93A85.44,85.44,0,0,1,106,68.48c-3.88,3.59-8.44,7.18-14,7.76-10.28.3-11.15-10.38-8.24-17.94,2.23-6,6.3-12.61,12.8-14.45,4.36-1,8.24,1.06,5.72,5.82a19.6,19.6,0,0,1-8.53,8,11.57,11.57,0,0,1-7,1.35,1.32,1.32,0,0,1-.58-.19c-2,5.14-2.42,10.57.68,13.68,9.51,7.37,25.12-12.32,30-19.4a.64.64,0,0,1,.87-.2A.75.75,0,0,1,117.88,53.93ZM87.62,55.78c3.39.29,6.88-1.94,9.4-4.27a12,12,0,0,0,2.91-4.08.63.63,0,0,0-.48-.77,7.53,7.53,0,0,0-4.75,1C92.27,49,89.56,52.09,87.62,55.78Z"/><path class="cls-1" d="M139.32,60.43c-5.15-.09-10.38-.09-15.52,0-1.75.1-3.4.1-5.15.29a1.16,1.16,0,1,1,0-2.32,181.36,181.36,0,0,0,20.57-.3A1.17,1.17,0,0,1,139.32,60.43Z"/><path class="cls-1" d="M190.92,53.55a.74.74,0,0,1-.87.77,29,29,0,0,0-12.81,2.52c-2.42,9.9-8.15,21.34-11.64,25.9-2.52,3.2-6,7.67-10.67,7a3.68,3.68,0,0,1-2.52-1.56c-2.13-4.26,1.94-11,4.27-14.64A48.17,48.17,0,0,1,175,56.84c1.17-5,1.55-9.5.58-11.83a3.89,3.89,0,0,0-2.42-2.23c-3-1.17-6.31.39-8.73,2.33C157,51.22,152,60.53,149.31,69.65a26,26,0,0,0-.78,4.65,1.77,1.77,0,0,1-1.36,1.56,2.49,2.49,0,0,1-2.62-1.36c-1.94-4.08.39-14.55,1.07-19.31,1.55-8.43,11.74-55.67,21.92-53.54,2.72.39,1.85,3.88-.48,2.91C161.82,4.75,154.35,31.62,153,37a212.21,212.21,0,0,0-5.43,27.93c3.2-8.43,8.92-17,15.33-21.82,3.39-2.72,8.53-4.27,12.32-1.84a5.58,5.58,0,0,1,2.52,3.2c1,2.91.68,6.88-.29,11.35a27.72,27.72,0,0,1,2.62-1.07,38.44,38.44,0,0,1,10-1.94A.79.79,0,0,1,190.92,53.55ZM174.72,58a47.71,47.71,0,0,0-17.07,16.1c-1.75,2.62-7.57,13.19-2.43,14.26C162.6,89.05,171.42,71.39,174.72,58Z"/><path class="cls-1" d="M230.4,53.84a87.53,87.53,0,0,1-5.73,8.53c-3.2,4-12.22,15.91-17.84,12-3.11-2.62-3.11-8.54-2.23-14A91.57,91.57,0,0,1,192.18,74c-1.94,1.46-4.46,3.4-7.08,2.43a5.33,5.33,0,0,1-2.91-4.17,16.55,16.55,0,0,1,1.16-7.86c2.72-7.37,8-16,15-19.79a7.37,7.37,0,0,1,10.38,3.3,1.72,1.72,0,0,1-3,1.65c-5.53-10.67-23.09,16.1-19.89,22.89a1.57,1.57,0,0,0,1.85.87c3.68-1.26,10.86-11,13.48-14.06l2.91-3.78L207,51.7a1.72,1.72,0,0,1,2.43-.29,1.67,1.67,0,0,1,.48,2.14,27,27,0,0,0-2.52,5.91,29,29,0,0,0-1.17,6.4c-.19,2.43-.29,5.44,1.56,7.18,5.33,3.69,17.26-12.7,19.69-16.88a30.22,30.22,0,0,0,1.55-3A.76.76,0,0,1,230.4,53.84Z"/><path class="cls-1" d="M263.38,63.34C259,68.58,243,66.16,234.18,63c-3.49,10.19-6.3,20.76-8.05,27.26a1,1,0,0,1-1.36.49c-1.94-1.17-.58-9.32-.48-11.55a433.44,433.44,0,0,1,15-66.34c1.26-3.69,2.43-7.47,4.75-10.77A1.71,1.71,0,0,1,247,3.78c-1,2-2.61,5.05-2.71,7.28a1.69,1.69,0,0,1-1.84,2.62c-4,10.57-6.79,21.63-9.61,32.59-3,12.71-6.11,25.41-7.47,38.41a1.35,1.35,0,0,0-.09.59,28,28,0,0,0-.1,2.9c1.65-6.79,4-16.49,6.89-26.09a18.35,18.35,0,0,1-1.94-.87.71.71,0,0,1-.2-1.07l4-6.4c.77-1.16,1.55-2.33,2.23-3.49,2.81-7,6-12.9,9.6-16.2a1.72,1.72,0,0,1,2.62,2.13c-2.62,4.46-5.62,8.73-8.63,13.1a124.8,124.8,0,0,0-5.14,12.51c7.27,3.1,18.53,4.75,24.64,2.91a6.79,6.79,0,0,0,3.29-2C263,62,264,62.76,263.38,63.34Zm-30.95-2.52c.29-1,.59-1.94.88-2.81-.59.77-1.07,1.55-1.65,2.33A8.48,8.48,0,0,1,232.43,60.82Z"/><path class="cls-1" d="M296.55,53.93a85.44,85.44,0,0,1-11.93,14.55c-3.88,3.59-8.44,7.18-14,7.76-10.28.3-11.15-10.38-8.24-17.94,2.23-6,6.3-12.61,12.8-14.45,4.37-1,8.24,1.06,5.72,5.82a19.6,19.6,0,0,1-8.53,8,11.57,11.57,0,0,1-7,1.35,1.32,1.32,0,0,1-.58-.19c-2,5.14-2.42,10.57.68,13.68,9.51,7.37,25.12-12.32,30-19.4a.65.65,0,0,1,.88-.2A.76.76,0,0,1,296.55,53.93Zm-30.26,1.85c3.39.29,6.88-1.94,9.41-4.27a12.08,12.08,0,0,0,2.9-4.08.63.63,0,0,0-.48-.77,7.53,7.53,0,0,0-4.75,1C270.94,49,268.23,52.09,266.29,55.78Z"/><path class="cls-1" d="M332.73,2.81c-5.34,15.62-10.09,31.53-14.26,47.53-3.1,12-6.11,24.16-7.08,36.48-.19,3-.58,6.11.48,8.82,2.62-.68,3.21,2.53,1.65,3-5.62,1.84-5-5.53-4.65-8.92,1.84-14.36,5.24-26.19,8.34-39a2,2,0,0,1-2.43-.48c-3.1,6.5-8,17.94-14.54,21.34-3.3,1.65-7.28-.49-8.35-3.88-1.74-5.43.68-11.25,3.79-15.72,3.78-5.62,10.86-10,17.65-6.69,6.11-14.26,11.16-28.91,16.2-43.55A1.85,1.85,0,0,1,331.86.58,1.67,1.67,0,0,1,332.73,2.81ZM312,48.4c-8.73-3.88-16.68,7.47-17.26,15.14-.1,2,.38,4.46,2.42,5.14,3.88.58,8.54-8.05,10.28-11.06S310.52,51.51,312,48.4Zm9-12.7c-1.55,3.78-3.1,7.56-4.75,11.35.48.48,1.16.77,1.46,1.35C318.76,44.14,319.83,39.87,321,35.7Z"/><path class="cls-1" d="M411.3,54.61A61.25,61.25,0,0,0,393,55a157,157,0,0,1-3,17c-3.78,14.74-8.73,31.13-18.72,43-3.88,4.56-10.28,8.34-16,4.85-7.66-5-6.5-17.66-4.46-25.32a56.6,56.6,0,0,1,27.16-34.82,54.58,54.58,0,0,1,13.39-5.24A76.61,76.61,0,0,0,391.8,44c-.19-3.78-1.55-10.38-6.5-6.4a24.45,24.45,0,0,0-4.46,5.43,24.82,24.82,0,0,1,4.85,4.36,1.69,1.69,0,1,1-2.52,2.24A21.18,21.18,0,0,0,379.1,46c-5.63,9.6-11.35,23-17.47,23.67-2.32.39-4.26-1.46-4.75-3.59-1.26-5.72.78-11.64,3.49-16.69,5.05-8.63,12.23-10.76,19.11-7.08a23.57,23.57,0,0,1,3.11-4.17c1.74-1.94,4.65-4.36,7.47-2.71,3.68,2.32,3.88,10.38,3,18.62a69,69,0,0,1,18.43-1.55A1.07,1.07,0,1,1,411.3,54.61Zm-20.08.78A61.06,61.06,0,0,0,384,57.52a48.34,48.34,0,0,0-14,8.25A50.66,50.66,0,0,0,357.27,82c-4.46,8.82-7.66,21-4.27,30.75,1.46,4.07,4.85,6.59,9.22,5.33,6.79-2.42,11.15-10.28,14.45-16.3C383.36,88.47,389.28,71.3,391.22,55.39ZM377.64,45.11c-3.3-1.75-7-2-10.48.87-4.46,3.78-7,9.6-7.85,15.23-.1,1.65-.39,5.82,1.84,5.92C365.61,66.93,372.31,53.93,377.64,45.11Z"/><path class="cls-1" d="M452.13,53.84a85.69,85.69,0,0,1-5.72,8.53c-3.2,4-12.22,15.91-17.85,12-3.1-2.62-3.1-8.54-2.23-14A91.51,91.51,0,0,1,413.92,74c-1.94,1.46-4.47,3.4-7.08,2.43a5.33,5.33,0,0,1-2.91-4.17,16.55,16.55,0,0,1,1.16-7.86c2.72-7.37,8-16,15-19.79,4.08-2,8.25-.77,10.38,3.3a1.71,1.71,0,0,1-3,1.65C422,38.9,404.41,65.67,407.61,72.46a1.57,1.57,0,0,0,1.84.87c3.69-1.26,10.87-11,13.49-14.06l2.91-3.78,2.91-3.79a1.71,1.71,0,0,1,2.42-.29,1.66,1.66,0,0,1,.49,2.14,26.5,26.5,0,0,0-2.52,5.91,28.41,28.41,0,0,0-1.17,6.4c-.19,2.43-.29,5.44,1.55,7.18,5.34,3.69,17.27-12.7,19.69-16.88a28.28,28.28,0,0,0,1.56-3A.76.76,0,0,1,452.13,53.84Z"/><path class="cls-1" d="M517.32,53.84A50,50,0,0,1,502,72.65c-8.73,6-13.19-.29-13.19-9a56.17,56.17,0,0,1,1.07-10.76A141.71,141.71,0,0,1,480,63.05c-1.55,1.26-5.14,5.24-7.08,3.4-2.52-2.14,1-12.61-2.33-13.2-1.74.78-3.29,3.69-4.46,5.34-2.71,4.17-5.14,8.63-8.05,12.71-1.45,1.84-3.39,4.94-6.21,4.56-3.78-1-3.68-5.92-3.59-9a88.35,88.35,0,0,1,2.62-15c.68-2.43,1.36-4.85,2.23-7.28a1.69,1.69,0,0,1,3.21,1.07c-2.14,6.6-6.31,20-4.76,26.48.29.68.49,1,1,1,1.46-.58,2.52-2.13,3.49-3.29,3-3.89,5.63-8.15,8.54-12.23,1.55-1.94,3.2-4.85,5.53-5.72,4.85-.39,3,7.76,3.2,10.67,0,1-.19,4,1.45,3,3.79-2.33,10.48-9.41,16-16.59a87.5,87.5,0,0,1,2.91-9.31c1.16-2.72,2.72-7.18,5.63-8.54a2.38,2.38,0,0,1,3.2,2.14,7.55,7.55,0,0,1-.78,3.59,55.7,55.7,0,0,1-6.4,9.6c-.49.58-.87,1.06-1.26,1.55a11.14,11.14,0,0,0-.49,1.75c-1.55,6-2.91,12.31-1.84,18.43.87,4.07,3.2,6,7.18,4,4.95-2.42,8.73-6.59,12.12-10.76a49.45,49.45,0,0,0,5.14-8.06c.1-.29.49-.38.88-.29A.79.79,0,0,1,517.32,53.84Z"/><path class="cls-1" d="M547.68,53.93a85.44,85.44,0,0,1-11.93,14.55c-3.88,3.59-8.44,7.18-14,7.76-10.28.3-11.16-10.38-8.25-17.94,2.24-6,6.31-12.61,12.81-14.45,4.36-1,8.24,1.06,5.72,5.82a19.6,19.6,0,0,1-8.53,8,11.57,11.57,0,0,1-7,1.35,1.32,1.32,0,0,1-.58-.19c-2,5.14-2.43,10.57.68,13.68,9.5,7.37,25.12-12.32,30-19.4a.64.64,0,0,1,.87-.2A.75.75,0,0,1,547.68,53.93Zm-30.27,1.85c3.4.29,6.89-1.94,9.41-4.27a12,12,0,0,0,2.91-4.08.63.63,0,0,0-.48-.77,7.53,7.53,0,0,0-4.75,1C522.07,49,519.36,52.09,517.41,55.78Z"/><path class="cls-1" d="M587.74,54.32a11.81,11.81,0,0,0-3.69.68c-8.53,2.81-16.39,7.66-23.57,13a54.87,54.87,0,0,0-7.37,6.5c.78,1.36,1.75,2.71,2.62,4.07,1.55,2.62,4,5.24,4.46,8.44a2.22,2.22,0,0,1-1.55,2.33c-2.23.77-4.37-.1-6.5-.78-2.23-.87-4.46-2.62-4.66-5.24,0-2.42,1.36-5.14,3.59-7.85a53.34,53.34,0,0,1-4.46-7.57c-3-6.3-3-13,1.94-18.43a29.34,29.34,0,0,1,16.88-8.92c2.71-.2,4.85,1.55,3.49,4.27-.87,1.55-2.23,2.91-2.62,4.46a1.68,1.68,0,1,1-3.3-.68c.39-1.84,1.56-3.2,2.43-4.75-2.33.09-6,1.74-7.76,2.61-6.31,3.11-11.93,8.83-10.09,16.4a37.69,37.69,0,0,0,4.95,10.86c7.56-8,21.34-15.91,27.45-18.53,2.52-1.06,4.95-2.23,7.66-2.32A.73.73,0,1,1,587.74,54.32ZM551.56,76.24c-4.08,5.14-5.43,10.58,4.65,12.13,1,0,2.82,0,2.53-1.36a11.38,11.38,0,0,0-1.94-3.69C555.15,80.9,553.3,78.57,551.56,76.24Z"/></g></g></g></svg>