<svg xmlns="http://www.w3.org/2000/svg" xmlns:xlink="http://www.w3.org/1999/xlink" viewBox="0 0 344 236"><defs><style>.cls-1,.cls-10,.cls-5,.cls-8,.cls-9{fill:none;}.cls-10,.cls-2,.cls-4,.cls-5{stroke:#000;}.cls-10,.cls-2,.cls-6,.cls-8,.cls-9{stroke-miterlimit:10;}.cls-2,.cls-4,.cls-5,.cls-9{stroke-width:2px;}.cls-2{fill:url(#linear-gradient);}.cls-3{opacity:0.1;}.cls-4,.cls-5{stroke-linecap:round;stroke-linejoin:round;}.cls-13,.cls-6{fill:#fff;}.cls-6,.cls-8,.cls-9{stroke:#fff;}.cls-6,.cls-8{stroke-width:3px;}.cls-7{fill:#221f1f;}.cls-11{isolation:isolate;}.cls-12{clip-path:url(#clip-path);}.cls-14{clip-path:url(#clip-path-2);}.cls-15{clip-path:url(#clip-path-3);}</style><linearGradient id="linear-gradient" x1="172" y1="1" x2="172" y2="235" gradientUnits="userSpaceOnUse"><stop offset="0" stop-color="#ed2636"/><stop offset="0.02" stop-color="#f04839"/><stop offset="0.05" stop-color="#f4713d"/><stop offset="0.08" stop-color="#f78f40"/><stop offset="0.11" stop-color="#f8a241"/><stop offset="0.12" stop-color="#f9a842"/><stop offset="0.37" stop-color="#fff"/><stop offset="0.45" stop-color="#fbfafc"/><stop offset="0.55" stop-color="#eeebf4"/><stop offset="0.65" stop-color="#dad3e7"/><stop offset="0.76" stop-color="#bdb0d4"/><stop offset="0.88" stop-color="#9885bd"/><stop offset="0.99" stop-color="#7055a3"/></linearGradient><clipPath id="clip-path"><polygon class="cls-1" points="13.57 195.56 14.73 99.63 38.88 96.74 37.71 192.66 13.57 195.56"/></clipPath><clipPath id="clip-path-2"><polygon class="cls-1" points="106.71 195.57 107.87 99.64 132.18 96.73 131.01 192.65 106.71 195.57"/></clipPath><clipPath id="clip-path-3"><polygon class="cls-1" points="202.38 197.79 203.55 101.42 229.17 98.34 228 194.71 202.38 197.79"/></clipPath></defs><g id="Layer_2" data-name="Layer 2"><g id="blue"><g id="public_washroom" data-name="public washroom"><g id="bathroom"><rect id="frame" class="cls-2" x="1" y="1" width="342" height="234" rx="18"/><g id="signage" class="cls-3"><circle class="cls-4" cx="57.78" cy="37.76" r="3.76"/><path class="cls-4" d="M63.84,45a2,2,0,0,1,2.07,2.66l-4,13.76H53.67l-4-13.76A2,2,0,0,1,51.72,45Z"/><polygon class="cls-5" points="60.52 77.8 55.04 77.8 53.67 61.37 61.88 61.37 60.52 77.8"/><circle class="cls-4" cx="75.45" cy="37.76" r="3.76"/><circle class="cls-4" cx="89.9" cy="37.76" r="3.76"/><path class="cls-4" d="M83.66,61.37,80.22,47.6A3.7,3.7,0,0,0,76.82,45H74.08a3.68,3.68,0,0,0-3.4,2.65L67.23,61.37Z"/><polygon class="cls-5" points="76.82 77.8 74.08 77.8 71.34 61.37 79.56 61.37 76.82 77.8"/><circle class="cls-4" cx="32.61" cy="37.77" r="3.76"/><path class="cls-4" d="M36.2,58.64,44,61a2.8,2.8,0,0,1,1.7,1.71l4.4,15.11H47.33l-5.48-13-8.21-.68a2.74,2.74,0,0,1-2.74-2.74V45H35Z"/><path class="cls-5" d="M33.64,64.11a2.74,2.74,0,0,1-2.74-2.74V58.74a10.27,10.27,0,0,0-1.37-.1,9.59,9.59,0,1,0,8.84,5.87Z"/><path class="cls-4" d="M92.11,61.37h7.31L96.35,47.6a3.37,3.37,0,0,0-3-2.65H92.11Z"/><path class="cls-4" d="M91.21,45H86c-1.3,0-2.1,1.19-1.78,2.65l3.46,13.77h3.53Z"/><polyline class="cls-5" points="90.8 61.37 87.85 61.37 88.83 77.8 93.63 77.8 95.76 61.37 92.56 61.37"/></g><g id="stalls"><g id="tiles" class="cls-3"><g id="tile_group" data-name="tile group"><g id="tiles-2" data-name="tiles"><path d="M60.19,169.29l-10.63,6.12v12.28l10.63,6.13,10.59-6.13V175.41Zm-22.47.18L27.09,175.6v12.25L37.72,194l10.62-6.12V175.6ZM26.41,188.75l-10.63,6.13v12.25l10.63,6.12L37,207.13V194.88Zm22.5,0-10.63,6.13v12.25l10.63,6.12,10.62-6.12V194.88Zm33.37,18.91-10.62,6.13V226l10.62,6.12L92.88,226V213.79ZM37.56,208l-10.62,6.13v12.25l10.62,6.16,10.6-6.16V214.13Z"/></g><g id="tiles-3" data-name="tiles"><path d="M93.54,175.74V188l10.6,6.12L114.76,188V175.74l-10.62-6.12Zm22.44.19v12.25l10.62,6.13,10.63-6.13V175.93l-10.63-6.12Zm11.31,19.28v12.25l10.63,6.13,10.62-6.13V195.21l-10.62-6.12Zm-22.5,0v12.25l10.63,6.13L126,207.46V195.21l-10.62-6.12ZM71.45,214.12v12.25L82,232.49l10.63-6.12V214.12L82,208Zm44.72.34v12.25l10.59,6.16,10.63-6.16V214.46l-10.63-6.12Z"/></g></g><g id="tile_group-2" data-name="tile group"><g id="tiles-4" data-name="tiles"><path d="M194.52,170l-10.62,6.13v12.28l10.62,6.12,10.59-6.12V176.08Zm-22.47.19-10.62,6.13v12.25l10.62,6.12,10.63-6.12V176.27Zm-11.31,19.28-10.63,6.13V207.8l10.63,6.12,10.62-6.12V195.55Zm22.5,0-10.63,6.13V207.8l10.63,6.12,10.62-6.12V195.55Zm33.37,18.91L206,214.45V226.7l10.62,6.13,10.6-6.13V214.45Zm-44.71.34-10.63,6.13v12.25l10.63,6.15,10.59-6.15V214.8Z"/></g><g id="tiles-5" data-name="tiles"><path d="M227.87,176.41v12.28l10.6,6.13,10.62-6.13V176.41l-10.62-6.12Zm22.44.19v12.25L260.94,195l10.62-6.12V176.6l-10.62-6.13Zm11.31,19.28v12.25l10.63,6.12,10.62-6.12V195.88l-10.62-6.13Zm-22.5,0v12.25l10.63,6.12,10.62-6.12V195.88l-10.62-6.13Zm-33.34,18.91V227l10.59,6.12L227,227V214.79l-10.63-6.13Zm44.72.34v12.25l10.59,6.16,10.63-6.16V215.13L261.09,209Z"/></g></g><path d="M328.85,170.62l-10.62,6.12V189l10.62,6.12,10.6-6.12V176.74Zm-22.46.19-10.63,6.12v12.25l10.63,6.13L317,189.18V176.93Zm-11.32,19.28-10.62,6.12v12.25l10.62,6.13,10.63-6.13V196.21Zm22.5,0L307,196.21v12.25l10.62,6.13,10.63-6.13V196.21Zm-11.34,19.25-10.63,6.12v12.25l10.63,6.16,10.59-6.16V215.46Z"/><g id="tile_group-3" data-name="tile group"><g id="tiles-6" data-name="tiles"><path d="M283.1,194.87l10.62-6.13V176.46l-10.62-6.12-10.59,6.12v12.28Zm22.47-.19,10.62-6.12V176.31l-10.62-6.13-10.63,6.13v12.25Zm11.31-19.28,10.63-6.13V157l-10.63-6.12L306.26,157v12.25Zm-22.5,0L305,169.27V157l-10.63-6.12L283.76,157v12.25ZM261,156.49l10.62-6.12V138.12L261,132l-10.6,6.13v12.25Zm44.71-.34L316.35,150V137.77l-10.63-6.15-10.59,6.15V150Z"/></g><g id="tiles-7" data-name="tiles"><path d="M249.75,188.41V176.13L239.15,170l-10.62,6.13v12.28l10.62,6.13Zm-22.44-.19V176l-10.63-6.12L206.06,176v12.25l10.62,6.13ZM216,168.94V156.69l-10.63-6.12-10.62,6.12v12.25l10.62,6.13Zm22.5,0V156.69l-10.63-6.12-10.62,6.12v12.25l10.62,6.13ZM271.84,150V137.79l-10.59-6.13-10.63,6.13V150l10.63,6.12Zm-44.72-.35V137.44l-10.59-6.15-10.63,6.15v12.25l10.63,6.13Z"/></g></g><g id="tile_group-4" data-name="tile group"><g id="tiles-8" data-name="tiles"><path d="M148.77,194.2l10.62-6.12V175.8l-10.62-6.13-10.6,6.13v12.28Zm22.47-.19,10.62-6.12V175.64l-10.62-6.13-10.63,6.13v12.25Zm11.31-19.28,10.62-6.12V156.36l-10.62-6.13-10.63,6.13v12.25Zm-22.5,0,10.62-6.12V156.36l-10.62-6.13-10.63,6.13v12.25Zm-33.38-18.9,10.63-6.13V137.45l-10.63-6.12-10.59,6.12V149.7Zm44.72-.35L182,149.36V137.11L171.39,131l-10.59,6.16v12.25Z"/></g><g id="tiles-9" data-name="tiles"><path d="M115.41,187.74V175.46l-10.59-6.12-10.63,6.12v12.28l10.63,6.13ZM93,187.56V175.31l-10.63-6.13-10.62,6.13v12.25l10.62,6.12ZM81.66,168.27V156L71,149.9,60.41,156v12.25L71,174.4Zm22.5,0V156L93.54,149.9,82.91,156v12.25l10.63,6.13Zm33.35-18.9V137.12L126.91,131l-10.62,6.13v12.25l10.62,6.12ZM92.79,149V136.77l-10.6-6.15-10.62,6.15V149l10.62,6.13Z"/></g></g><path d="M14.43,193.54l10.63-6.13V175.13L14.43,169,3.84,175.13v12.28Zm22.47-.19,10.63-6.13V175L36.9,168.85,26.28,175v12.25Zm11.31-19.28,10.63-6.13V155.69l-10.63-6.12-10.62,6.12v12.25Zm-22.5,0,10.63-6.13V155.69l-10.63-6.12-10.62,6.12v12.25Zm11.35-19.25,10.62-6.13V136.44l-10.62-6.15-10.6,6.15v12.25Z"/></g><g id="toilet_paper" data-name="toilet paper"><path id="toilet_paper-2" data-name="toilet paper" class="cls-6" d="M300.84,150.39c-1.67.19-1.41,1.87-.34,2.6-.22.48-.45,1-.69,1.43a9.93,9.93,0,0,1-.9,1.82,3.77,3.77,0,0,0-.06-1,.31.31,0,0,0,0-.12,2.45,2.45,0,0,0-2.31-2.91,24.56,24.56,0,0,0-7.41-1.4,5.89,5.89,0,0,0-2.8,0c.13-.22.25-.46.38-.69,1,.37,2.3-.27,1.62-1.5-.54-1-2.17-1.54-2.93-.52-.44.58-.13.94-.15,1.52a5.6,5.6,0,0,1-.7,1.59l-.67,1.49c-.21.46-.65,1.05-.17,1.49a1.69,1.69,0,0,0,.64.29c-.2,1.56.05,3.57,1.57,4.14l.25.09c-.1.71-.23,1.5-1,1.8a.35.35,0,0,0-.22.44.37.37,0,0,0,.22.22,41.08,41.08,0,0,0,8.56,2.53c1.08.2,1.5-.1,2.19-1a17.91,17.91,0,0,0,2.05-3.55.35.35,0,0,0,0-.14,5.61,5.61,0,0,0,.29-.54.81.81,0,0,0,.29.12c.77.17,1-.67,1.34-1.19l1-1.69A7.23,7.23,0,0,1,302,154c.55-.41,1.11-.36,1.36-1.17C303.83,151.42,302.15,150.25,300.84,150.39Zm-4.61,2.6.27,0,.19.07a.35.35,0,0,0,.33,0,1.65,1.65,0,0,1,1,.83c-.33-.24-.79.22-.45.49a2.42,2.42,0,0,1,.57,2.17c-.25-.06-.52-.2-.82-.31l-.11,0c0-.47-.12-.86-.65-.72a.51.51,0,0,0-.26-.28.79.79,0,0,0-.93.34,2.29,2.29,0,0,0-.14,2.24c.45.7,1.27.37,1.63-.2.3.2.55.41.73.54l.15.12a2.61,2.61,0,0,1-1.67,1.66,1.54,1.54,0,0,1-1.88-1.35,7.06,7.06,0,0,1,.52-4A2.35,2.35,0,0,1,296.23,153Zm.07,4.18c-.15.23-.38.39-.53,0a.71.71,0,0,1,0-.21A2.25,2.25,0,0,1,296.3,157.17Zm-11.73-3.43-.06.23c-.44-.23-.36-.31-.13-.8l.53-1.15,1-2.3a.28.28,0,0,0,0-.29c-.84-1,.87-1.37,1.5-.91a1.16,1.16,0,0,1,.51.58c-.38.63-.78.79-1.19.48a.27.27,0,0,0-.37.14q-.63,1.09-1.2,2.22c-.18.34-.62.91-.58,1.34a.49.49,0,0,0,.05.16A1.71,1.71,0,0,0,284.57,153.74Zm.67,3.06a5.13,5.13,0,0,1,0-2.88c.26-1,.84-2.35,2-2.51a14.13,14.13,0,0,1,3,.2,22.73,22.73,0,0,1,5.29,1c-1.88,1-2.31,4.38-1.89,6.21a2.29,2.29,0,0,0,.45,1,37.66,37.66,0,0,1-5.76-1.06c-.53-.14-1.07-.29-1.6-.47a1.88,1.88,0,0,1-1.44-1.42Zm10.68,4.91c-.53.8-.92,1.41-2,1.42a8.59,8.59,0,0,1-1.8-.37,42.2,42.2,0,0,1-6.12-1.93,2.94,2.94,0,0,0,.83-1.83,35.06,35.06,0,0,0,7.91,1.49.32.32,0,0,0,.23-.08,2.46,2.46,0,0,0,1.73-.12C296.49,160.77,296.21,161.25,295.92,161.71Zm5.9-8.45a.35.35,0,0,0-.3.17l-1.5,2.62-.76,1.31c-.33.58-.33.7-.93.4a11.25,11.25,0,0,1-1.21-.83s0-.07,0-.1l.83.27c.34.11.7.29,1,.1s.7-1.07.9-1.48c.46-.9.91-1.79,1.33-2.7a.35.35,0,0,0-.12-.46c-.59-.18-.71-.68-.37-1.49a1.45,1.45,0,0,1,.92.09C302.55,151.47,303.41,153.36,301.82,153.26Z"/><path id="toilet_paper-3" data-name="toilet paper" d="M301.9,149.86c-1.67.19-1.41,1.87-.34,2.6-.23.48-.46,1-.7,1.44a9.85,9.85,0,0,1-.9,1.81,4.36,4.36,0,0,0,0-1,.25.25,0,0,0,0-.12,2.44,2.44,0,0,0-2.31-2.9,24.27,24.27,0,0,0-7.41-1.41,5.76,5.76,0,0,0-2.8,0l.38-.7c1,.37,2.3-.26,1.62-1.5-.53-1-2.16-1.54-2.93-.52-.43.58-.12.94-.14,1.52a6.09,6.09,0,0,1-.7,1.6l-.68,1.48c-.21.46-.65,1.05-.17,1.49a1.69,1.69,0,0,0,.64.29c-.2,1.56.06,3.57,1.57,4.14l.25.09c-.09.71-.22,1.5-1,1.81a.35.35,0,0,0-.22.43.4.4,0,0,0,.22.22,40.77,40.77,0,0,0,8.57,2.54c1.08.19,1.49-.11,2.18-1a17.91,17.91,0,0,0,2.05-3.55.57.57,0,0,0,0-.14,5.36,5.36,0,0,0,.28-.53,1,1,0,0,0,.3.11c.76.17,1-.67,1.33-1.19l1-1.68a6.88,6.88,0,0,1,1.06-1.78c.55-.42,1.11-.36,1.37-1.18C304.88,150.89,303.2,149.72,301.9,149.86Zm-4.61,2.61.26-.05.19.08a.33.33,0,0,0,.33,0,1.66,1.66,0,0,1,1,.83c-.34-.24-.79.23-.45.49a2.43,2.43,0,0,1,.56,2.17c-.25-.06-.52-.2-.82-.3l-.11,0c0-.47-.12-.86-.64-.72a.57.57,0,0,0-.27-.28.83.83,0,0,0-.93.34,2.29,2.29,0,0,0-.13,2.24c.45.71,1.26.37,1.62-.19.3.2.56.41.73.54l.15.12a2.58,2.58,0,0,1-1.67,1.66,1.54,1.54,0,0,1-1.87-1.36,7,7,0,0,1,.52-4A2.31,2.31,0,0,1,297.29,152.47Zm.06,4.17c-.15.23-.37.39-.52,0a.8.8,0,0,1-.05-.21A1.9,1.9,0,0,1,297.35,156.64Zm-11.73-3.42-.06.22c-.44-.23-.35-.31-.13-.79l.53-1.16,1.06-2.3a.28.28,0,0,0,0-.28c-.84-1,.87-1.38,1.5-.92a1.15,1.15,0,0,1,.52.59c-.39.62-.79.78-1.19.47a.29.29,0,0,0-.38.14c-.41.73-.82,1.47-1.2,2.22-.18.34-.62.91-.57,1.34a.47.47,0,0,0,0,.16C285.68,153,285.64,153.12,285.62,153.22Zm.68,3.05a5.1,5.1,0,0,1,0-2.87c.27-1,.84-2.35,2-2.51a14.12,14.12,0,0,1,3,.19,23.16,23.16,0,0,1,5.29,1c-1.87,1-2.3,4.39-1.89,6.21a2.42,2.42,0,0,0,.45,1,36.36,36.36,0,0,1-5.75-1.06c-.54-.14-1.08-.29-1.61-.47a1.87,1.87,0,0,1-1.44-1.42ZM297,161.18c-.53.8-.92,1.41-2,1.42a8.68,8.68,0,0,1-1.81-.37,42,42,0,0,1-6.11-1.92,3,3,0,0,0,.82-1.83,35.13,35.13,0,0,0,7.92,1.48.27.27,0,0,0,.22-.08,2.43,2.43,0,0,0,1.74-.12A15.38,15.38,0,0,1,297,161.18Zm5.9-8.44a.34.34,0,0,0-.29.16l-1.51,2.62-.75,1.31c-.33.58-.34.7-.94.4a12.34,12.34,0,0,1-1.21-.83.54.54,0,0,1,0-.1l.83.27c.33.11.69.3,1,.11s.69-1.08.9-1.48c.45-.91.9-1.8,1.32-2.71a.34.34,0,0,0-.12-.46c-.59-.18-.71-.68-.36-1.48a1.34,1.34,0,0,1,.92.09C303.6,150.94,304.46,152.83,302.87,152.74Z"/></g><g id="toilet_paper-4" data-name="toilet paper"><path id="toilet_paper-5" data-name="toilet paper" class="cls-6" d="M207.47,150.39c-1.67.19-1.41,1.87-.34,2.6-.22.48-.45,1-.69,1.43a9.93,9.93,0,0,1-.9,1.82,3.77,3.77,0,0,0-.06-1,.31.31,0,0,0,.05-.12,2.46,2.46,0,0,0-2.31-2.91,24.56,24.56,0,0,0-7.42-1.4,5.85,5.85,0,0,0-2.79,0l.38-.69c1,.37,2.29-.27,1.61-1.5-.53-1-2.16-1.54-2.92-.52-.44.58-.13.94-.15,1.52a5.89,5.89,0,0,1-.7,1.59l-.67,1.49c-.22.46-.65,1.05-.17,1.49a1.69,1.69,0,0,0,.64.29c-.2,1.56.05,3.57,1.57,4.14l.25.09c-.1.71-.23,1.5-1,1.8a.35.35,0,0,0-.22.44.34.34,0,0,0,.22.22,41.08,41.08,0,0,0,8.56,2.53c1.08.2,1.5-.1,2.19-1a17.39,17.39,0,0,0,2-3.55.25.25,0,0,0,0-.14,5.61,5.61,0,0,0,.29-.54.81.81,0,0,0,.29.12c.77.17,1-.67,1.34-1.19l1-1.69a7.26,7.26,0,0,1,1.07-1.78c.55-.41,1.11-.36,1.36-1.17C210.46,151.42,208.78,150.25,207.47,150.39Zm-4.61,2.6.27,0,.18.07a.37.37,0,0,0,.34,0,1.65,1.65,0,0,1,1,.83c-.33-.24-.79.22-.45.49a2.42,2.42,0,0,1,.57,2.17c-.25-.06-.52-.2-.82-.31l-.11,0c0-.47-.12-.86-.65-.72a.51.51,0,0,0-.26-.28.81.81,0,0,0-.94.34,2.32,2.32,0,0,0-.13,2.24c.45.7,1.26.37,1.63-.2.29.2.55.41.72.54l.16.12a2.61,2.61,0,0,1-1.67,1.66,1.54,1.54,0,0,1-1.88-1.35,7.06,7.06,0,0,1,.52-4A2.32,2.32,0,0,1,202.86,153Zm.07,4.18c-.15.23-.38.39-.53,0a.71.71,0,0,1,0-.21A2.25,2.25,0,0,1,202.93,157.17Zm-11.74-3.43c0,.08,0,.16-.05.23-.44-.23-.36-.31-.14-.8l.53-1.15,1.06-2.3a.28.28,0,0,0,0-.29c-.85-1,.87-1.37,1.5-.91a1.16,1.16,0,0,1,.51.58c-.38.63-.78.79-1.19.48a.29.29,0,0,0-.38.14q-.62,1.09-1.2,2.22c-.17.34-.61.91-.57,1.34a.94.94,0,0,0,0,.16Zm.68,3.06a5.13,5.13,0,0,1,0-2.88c.26-1,.83-2.35,2-2.51a14.18,14.18,0,0,1,3,.2,22.55,22.55,0,0,1,5.28,1c-1.87,1-2.3,4.38-1.88,6.21a2.29,2.29,0,0,0,.45,1,37.43,37.43,0,0,1-5.76-1.06c-.54-.14-1.07-.29-1.6-.47a1.88,1.88,0,0,1-1.44-1.42Zm10.68,4.91c-.53.8-.93,1.41-2,1.42a8.59,8.59,0,0,1-1.8-.37,42.2,42.2,0,0,1-6.12-1.93,2.94,2.94,0,0,0,.83-1.83,35,35,0,0,0,7.91,1.49.32.32,0,0,0,.23-.08,2.46,2.46,0,0,0,1.73-.12C203.12,160.77,202.84,161.25,202.55,161.71Zm5.89-8.45a.34.34,0,0,0-.29.17l-1.5,2.62-.76,1.31c-.33.58-.33.7-.93.4a11.25,11.25,0,0,1-1.21-.83.36.36,0,0,1,0-.1l.83.27c.34.11.7.29,1,.1s.7-1.07.9-1.48c.45-.9.9-1.79,1.33-2.7a.34.34,0,0,0-.13-.46c-.58-.18-.7-.68-.36-1.49a1.45,1.45,0,0,1,.92.09C209.18,151.47,210,153.36,208.44,153.26Z"/><path id="toilet_paper-6" data-name="toilet paper" d="M208.52,149.86c-1.67.19-1.4,1.87-.34,2.6q-.33.72-.69,1.44a9.85,9.85,0,0,1-.9,1.81,4.36,4.36,0,0,0-.05-1,.25.25,0,0,0,0-.12,2.44,2.44,0,0,0-2.31-2.9,24.27,24.27,0,0,0-7.41-1.41,5.76,5.76,0,0,0-2.8,0l.38-.7c1,.37,2.3-.26,1.62-1.5-.54-1-2.16-1.54-2.93-.52-.43.58-.12.94-.15,1.52a5.74,5.74,0,0,1-.69,1.6l-.68,1.48c-.21.46-.65,1.05-.17,1.49a1.69,1.69,0,0,0,.64.29c-.2,1.56.06,3.57,1.57,4.14l.25.09c-.1.71-.23,1.5-1,1.81a.34.34,0,0,0-.22.43.4.4,0,0,0,.22.22,40.68,40.68,0,0,0,8.56,2.54c1.09.19,1.5-.11,2.19-1a17.91,17.91,0,0,0,2.05-3.55.32.32,0,0,0,0-.14,5.45,5.45,0,0,0,.29-.53,1,1,0,0,0,.3.11c.76.17,1-.67,1.33-1.19l1-1.68a6.88,6.88,0,0,1,1.06-1.78c.55-.42,1.11-.36,1.36-1.18C211.51,150.89,209.83,149.72,208.52,149.86Zm-4.6,2.61.26-.05.19.08a.33.33,0,0,0,.33,0,1.62,1.62,0,0,1,1,.83c-.33-.24-.79.23-.45.49a2.41,2.41,0,0,1,.57,2.17c-.25-.06-.52-.2-.82-.3l-.11,0c0-.47-.12-.86-.65-.72a.51.51,0,0,0-.26-.28.83.83,0,0,0-.93.34,2.29,2.29,0,0,0-.13,2.24c.45.71,1.26.37,1.62-.19.3.2.56.41.73.54l.15.12a2.58,2.58,0,0,1-1.67,1.66A1.55,1.55,0,0,1,201.9,158a7,7,0,0,1,.53-4A2.31,2.31,0,0,1,203.92,152.47Zm.06,4.17c-.15.23-.37.39-.53,0a1.55,1.55,0,0,1,0-.21A1.9,1.9,0,0,1,204,156.64Zm-11.73-3.42-.06.22c-.44-.23-.35-.31-.13-.79l.53-1.16,1.06-2.3a.28.28,0,0,0,0-.28c-.84-1,.87-1.38,1.5-.92a1.09,1.09,0,0,1,.51.59c-.38.62-.78.78-1.19.47a.28.28,0,0,0-.37.14c-.41.73-.82,1.47-1.2,2.22-.18.34-.62.91-.57,1.34a.47.47,0,0,0,0,.16A1.81,1.81,0,0,0,192.25,153.22Zm.67,3.05a5.19,5.19,0,0,1,0-2.87c.27-1,.84-2.35,2-2.51a14.12,14.12,0,0,1,3,.19,23.16,23.16,0,0,1,5.29,1c-1.87,1-2.3,4.39-1.89,6.21a2.42,2.42,0,0,0,.45,1,36.15,36.15,0,0,1-5.75-1.06c-.54-.14-1.08-.29-1.61-.47a1.87,1.87,0,0,1-1.44-1.42Zm10.68,4.91c-.53.8-.92,1.41-2,1.42a8.73,8.73,0,0,1-1.8-.37,42.55,42.55,0,0,1-6.12-1.92,3,3,0,0,0,.83-1.83,35.15,35.15,0,0,0,7.91,1.48.27.27,0,0,0,.23-.08,2.44,2.44,0,0,0,1.74-.12A15.38,15.38,0,0,1,203.6,161.18Zm5.9-8.44a.35.35,0,0,0-.3.16l-1.5,2.62-.75,1.31c-.33.58-.34.7-.94.4a12.34,12.34,0,0,1-1.21-.83.54.54,0,0,1,0-.1l.83.27c.33.11.69.3,1,.11s.69-1.08.9-1.48c.45-.91.9-1.8,1.32-2.71a.34.34,0,0,0-.12-.46c-.59-.18-.71-.68-.36-1.48a1.34,1.34,0,0,1,.92.09C210.23,150.94,211.09,152.83,209.5,152.74Z"/></g><g id="toilet_paper-7" data-name="toilet paper"><path id="toilet_paper-8" data-name="toilet paper" class="cls-6" d="M114.1,150.39c-1.67.19-1.41,1.87-.34,2.6-.23.48-.45,1-.69,1.43a9.93,9.93,0,0,1-.9,1.82,4.3,4.3,0,0,0-.06-1,.31.31,0,0,0,0-.12,2.46,2.46,0,0,0-2.31-2.91,24.56,24.56,0,0,0-7.42-1.4,5.89,5.89,0,0,0-2.8,0c.13-.22.26-.46.39-.69,1,.37,2.29-.27,1.61-1.5-.53-1-2.16-1.54-2.93-.52-.43.58-.12.94-.14,1.52a5.89,5.89,0,0,1-.7,1.59l-.67,1.49c-.22.46-.66,1.05-.17,1.49a1.62,1.62,0,0,0,.64.29c-.2,1.56,0,3.57,1.56,4.14l.25.09c-.09.71-.22,1.5-1,1.8a.35.35,0,0,0-.22.44.34.34,0,0,0,.22.22,41.08,41.08,0,0,0,8.56,2.53c1.08.2,1.5-.1,2.19-1a17.87,17.87,0,0,0,2-3.55.37.37,0,0,0,0-.14,5.52,5.52,0,0,0,.28-.54.94.94,0,0,0,.3.12c.76.17,1-.67,1.33-1.19l1-1.69a7.26,7.26,0,0,1,1.07-1.78c.55-.41,1.1-.36,1.36-1.17C117.08,151.42,115.41,150.25,114.1,150.39Zm-4.61,2.6.27,0,.18.07a.37.37,0,0,0,.34,0,1.65,1.65,0,0,1,1,.83c-.33-.24-.79.22-.45.49a2.42,2.42,0,0,1,.57,2.17c-.25-.06-.52-.2-.83-.31l-.11,0c0-.47-.11-.86-.64-.72a.51.51,0,0,0-.26-.28.81.81,0,0,0-.94.34,2.32,2.32,0,0,0-.13,2.24c.45.7,1.26.37,1.63-.2.29.2.55.41.72.54l.16.12a2.61,2.61,0,0,1-1.67,1.66,1.54,1.54,0,0,1-1.88-1.35,7.06,7.06,0,0,1,.52-4A2.32,2.32,0,0,1,109.49,153Zm.06,4.18c-.15.23-.37.39-.52,0a.49.49,0,0,1,0-.21A2.18,2.18,0,0,1,109.55,157.17Zm-11.73-3.43c0,.08,0,.16,0,.23-.44-.23-.36-.31-.14-.8l.53-1.15,1.06-2.3a.3.3,0,0,0,0-.29c-.84-1,.87-1.37,1.51-.91a1.16,1.16,0,0,1,.51.58c-.39.63-.78.79-1.19.48a.29.29,0,0,0-.38.14q-.61,1.09-1.2,2.22c-.17.34-.61.91-.57,1.34a.94.94,0,0,0,0,.16Zm.68,3.06a5.13,5.13,0,0,1,0-2.88c.26-1,.83-2.35,2-2.51a14.23,14.23,0,0,1,3,.2,22.55,22.55,0,0,1,5.28,1c-1.87,1-2.3,4.38-1.88,6.21a2.18,2.18,0,0,0,.45,1,37.43,37.43,0,0,1-5.76-1.06c-.54-.14-1.08-.29-1.61-.47a1.88,1.88,0,0,1-1.43-1.42Zm10.67,4.91c-.53.8-.92,1.41-2,1.42a8.59,8.59,0,0,1-1.8-.37,42.2,42.2,0,0,1-6.12-1.93,2.88,2.88,0,0,0,.82-1.83,35.15,35.15,0,0,0,7.92,1.49.3.3,0,0,0,.22-.08,2.48,2.48,0,0,0,1.74-.12C109.74,160.77,109.47,161.25,109.17,161.71Zm5.9-8.45a.34.34,0,0,0-.29.17l-1.51,2.62-.75,1.31c-.33.58-.33.7-.94.4a11.12,11.12,0,0,1-1.2-.83.36.36,0,0,1,0-.1l.83.27c.33.11.69.29,1,.1s.69-1.07.9-1.48c.45-.9.9-1.79,1.32-2.7a.33.33,0,0,0-.12-.46c-.58-.18-.71-.68-.36-1.49a1.45,1.45,0,0,1,.92.09C115.81,151.47,116.67,153.36,115.07,153.26Z"/><path id="toilet_paper-9" data-name="toilet paper" d="M115.15,149.86c-1.67.19-1.41,1.87-.34,2.6q-.33.72-.69,1.44a9.85,9.85,0,0,1-.9,1.81,4.36,4.36,0,0,0,0-1,.42.42,0,0,0,0-.12,2.44,2.44,0,0,0-2.31-2.9,24.27,24.27,0,0,0-7.41-1.41c-.84-.06-2-.36-2.8,0l.38-.7c1,.37,2.3-.26,1.62-1.5-.54-1-2.16-1.54-2.93-.52-.44.58-.12.94-.15,1.52a5.5,5.5,0,0,1-.7,1.6l-.67,1.48c-.21.46-.65,1.05-.17,1.49a1.69,1.69,0,0,0,.64.29c-.2,1.56.05,3.57,1.57,4.14l.25.09c-.1.71-.23,1.5-1,1.81a.34.34,0,0,0-.22.43.4.4,0,0,0,.22.22,40.51,40.51,0,0,0,8.56,2.54c1.08.19,1.5-.11,2.19-1a17.91,17.91,0,0,0,2-3.55.32.32,0,0,0,0-.14,5.45,5.45,0,0,0,.29-.53,1,1,0,0,0,.3.11c.76.17,1-.67,1.33-1.19l1-1.68a6.88,6.88,0,0,1,1.06-1.78c.55-.42,1.11-.36,1.36-1.18C118.14,150.89,116.46,149.72,115.15,149.86Zm-4.6,2.61.26-.05.19.08a.33.33,0,0,0,.33,0,1.62,1.62,0,0,1,1,.83c-.33-.24-.79.23-.45.49a2.41,2.41,0,0,1,.57,2.17c-.25-.06-.52-.2-.82-.3l-.11,0c0-.47-.12-.86-.65-.72a.55.55,0,0,0-.26-.28.83.83,0,0,0-.93.34,2.29,2.29,0,0,0-.14,2.24c.45.71,1.27.37,1.63-.19.3.2.56.41.73.54l.15.12a2.63,2.63,0,0,1-1.67,1.66,1.54,1.54,0,0,1-1.88-1.36,7.07,7.07,0,0,1,.52-4A2.32,2.32,0,0,1,110.55,152.47Zm.06,4.17c-.15.23-.38.39-.53,0a.78.78,0,0,1,0-.21A1.9,1.9,0,0,1,110.61,156.64Zm-11.73-3.42-.06.22c-.44-.23-.36-.31-.13-.79l.53-1.16,1.06-2.3a.28.28,0,0,0,0-.28c-.84-1,.87-1.38,1.5-.92a1.18,1.18,0,0,1,.51.59c-.38.62-.78.78-1.19.47a.28.28,0,0,0-.37.14q-.63,1.09-1.2,2.22c-.18.34-.62.91-.58,1.34a.49.49,0,0,0,0,.16A1.81,1.81,0,0,0,98.88,153.22Zm.67,3.05a5.19,5.19,0,0,1,0-2.87c.26-1,.84-2.35,2-2.51a14.12,14.12,0,0,1,3,.19,23.26,23.26,0,0,1,5.29,1c-1.88,1-2.31,4.39-1.89,6.21a2.29,2.29,0,0,0,.45,1,36.48,36.48,0,0,1-5.76-1.06c-.53-.14-1.07-.29-1.6-.47a1.87,1.87,0,0,1-1.44-1.42Zm10.68,4.91c-.53.8-.92,1.41-2,1.42a8.73,8.73,0,0,1-1.8-.37,42.55,42.55,0,0,1-6.12-1.92,3,3,0,0,0,.83-1.83,35,35,0,0,0,7.91,1.48.27.27,0,0,0,.23-.08,2.44,2.44,0,0,0,1.74-.12A15.38,15.38,0,0,1,110.23,161.18Zm5.9-8.44a.35.35,0,0,0-.3.16l-1.5,2.62-.75,1.31c-.34.58-.34.7-.94.4a11.25,11.25,0,0,1-1.21-.83.54.54,0,0,1,0-.1l.82.27c.34.11.7.3,1,.11s.7-1.08.91-1.48c.45-.91.9-1.8,1.32-2.71a.34.34,0,0,0-.12-.46c-.59-.18-.71-.68-.37-1.48a1.36,1.36,0,0,1,.93.09C116.86,150.94,117.72,152.83,116.13,152.74Z"/></g><g id="smallest_toilet" data-name="smallest toilet"><g id="toilet"><path d="M78.42,139.65s4.83,0,4.8-.05a.81.81,0,0,0,.84-.88,1,1,0,0,0-1.11-.79c.25,0-4.3-.07-4.25,0a.86.86,0,0,0-.87.87C77.86,139.17,77.92,139.62,78.42,139.65Z"/><path d="M62.25,167.57a2.89,2.89,0,0,0,.36.75.94.94,0,0,0,.74.5c.13,0,.21-.2.3-.09.48-.31.62-.78.34-1.14a1.55,1.55,0,0,0-.21-.64.86.86,0,0,0-1.2-.43A.74.74,0,0,0,62.25,167.57Z"/><path d="M65.49,171.72c-.19,0,.17.11.39.17A10.35,10.35,0,0,0,72,174.08a.77.77,0,0,0,.82-1,.56.56,0,0,0-.55-.84,8.82,8.82,0,0,1-5.59-1.77s-.31-.09,0-.16c-.15.24-.25.09-.13.15-.46-.32-1-.29-1,.13C64.83,171,65.31,171.6,65.49,171.72Z"/><path d="M88.76,132.18c1.32-4.22-34.24-1.15-35.08-1.56-.34.84,1,.22.6-1-.14-.74.13,5.24-.64,5.23-.16.21,1.11-1.54,1.17-1,.56,3.62,2.19.55,1.14,1,.06-1.75,1.24,19.19-.61,19,1.37-2,.4-1.25,1.36-2.67.2,3.18,8.65,3.92,8.89,2-.41,1.8-.25,6,.19,5,.52-.75-9.09-.3-9.28.3-2.11,1.09-1.39-.9-1.37,2.67.78-3.33-1,.52.48,1.61.06-.66-1.27.06,1.18-.2-.18,1.79,1.42,2.59,1.26.68-.84,7.25,1.76,8.92,5.84,13.86-.92-3.27.51-2.52.54.38.17-1.17,1.88,6.05,2.3,8,.37.72-.83.49,1.08,1.34-1.15-3,10.52-3.78,9.17-.75.91-2.07,1.52-3.18,1.73-3.74.4,4.19,1.67-7.85,3-7.28-.61-.09-1.09.54-.7-1.38,2.3.28,6.73-2.81,6.79-9.9-1.31.52,0-.21,1.1,2.39.75-3,1.51-2.44-.35-1.85,1.16-.65,1.4-3.1.69-3.6,0-2-.74-3.39.33.15-.32-2.35-12.25-3.31-11.68,0-.29-1,.39-7.36.46-9.11-1.58.69,8,1,9.45.82-1.07.27,1.11-1.64,0-2.06.28,2.83,0-13.81,1.32-14.09-2.12-.11,1.77.59-.29.39,2.32-2.91,1.23-2.73,2.7-1.66.08-.39-1.65-4.13-1.83-6C90.91,131,90.55,129.47,88.76,132.18ZM76.36,183.6c.46-.51-8.77-.14-9.06-.19,0,.1-1.23-6.69-1.36-6.89a16.26,16.26,0,0,0,6.21,1.65,16.84,16.84,0,0,0,6.55-1.67C78.89,176.93,76.83,183.27,76.36,183.6Zm-5-6.67c-6.09-1-12-5.76-13.07-12.78.09.19,27.78,0,27.52-.41C85.31,170.5,79.38,176.32,71.4,176.93Zm15.43-14.52c1.12-.15-.54,0-1.25-.06.11,0-26.7,0-27-.06-.11,0-1.35.06-2,.06-.14,0,.61-2,.27-2,.47.12,10.75,0,9.86,0,.05-.06,10.93.08,9.36.07,1.16-.08,10.89-.07,11.3-.12.18.11-.31,2.06-.11,2C86.92,162.4,88,162.31,86.83,162.41Zm-11-3.47c.3-.42-7.94-.12-8.13-.16,0,.09.4-5.55.32-5.72s8.22.17,8,.17S76.08,158.67,75.78,158.94Zm9.76-6.81c1-1.23-8.66-.33-9.3-.45.09.24-8.49-.05-8.77-.53-.11-.22-8.93.47-9.52.47-.12-.07.56-16.73.25-16.57.43,1.06,28.71.16,27.9.3C86.15,134.84,86.56,151.34,85.54,152.13ZM88,133.71c1.21-.14-32.65,0-33.41-.05.11,0,1.64-1.93,1.31-2-.13,0,33.76.06,33.06.06C88.82,131.72,89.22,133.62,88,133.71Z"/><path class="cls-7" d="M78.42,139.65s4.83,0,4.8-.05a.81.81,0,0,0,.84-.88,1,1,0,0,0-1.11-.79c.25,0-4.3-.07-4.25,0a.86.86,0,0,0-.87.87C77.86,139.17,77.92,139.62,78.42,139.65Z"/><path class="cls-7" d="M78.42,139.65s4.83,0,4.8-.05a.81.81,0,0,0,.84-.88,1,1,0,0,0-1.11-.79c.25,0-4.3-.07-4.25,0a.86.86,0,0,0-.87.87C77.86,139.17,77.92,139.62,78.42,139.65Z"/><path class="cls-7" d="M62.25,167.57a2.89,2.89,0,0,0,.36.75.94.94,0,0,0,.74.5c.13,0,.21-.2.3-.09.48-.31.62-.78.34-1.14a1.55,1.55,0,0,0-.21-.64.86.86,0,0,0-1.2-.43A.74.74,0,0,0,62.25,167.57Z"/><path class="cls-7" d="M62.25,167.57a2.89,2.89,0,0,0,.36.75.94.94,0,0,0,.74.5c.13,0,.21-.2.3-.09.48-.31.62-.78.34-1.14a1.55,1.55,0,0,0-.21-.64.86.86,0,0,0-1.2-.43A.74.74,0,0,0,62.25,167.57Z"/><path class="cls-7" d="M65.49,171.72c-.19,0,.17.11.39.17A10.35,10.35,0,0,0,72,174.08a.77.77,0,0,0,.82-1,.56.56,0,0,0-.55-.84,8.82,8.82,0,0,1-5.59-1.77s-.31-.09,0-.16c-.15.24-.25.09-.13.15-.46-.32-1-.29-1,.13C64.83,171,65.31,171.6,65.49,171.72Z"/><path class="cls-7" d="M65.49,171.72c-.19,0,.17.11.39.17A10.35,10.35,0,0,0,72,174.08a.77.77,0,0,0,.82-1,.56.56,0,0,0-.55-.84,8.82,8.82,0,0,1-5.59-1.77s-.31-.09,0-.16c-.15.24-.25.09-.13.15-.46-.32-1-.29-1,.13C64.83,171,65.31,171.6,65.49,171.72Z"/><path class="cls-7" d="M88.76,132.18c1.32-4.22-34.24-1.15-35.08-1.56-.34.84,1,.22.6-1-.14-.74.13,5.24-.64,5.23-.16.21,1.11-1.54,1.17-1,.56,3.62,2.19.55,1.14,1,.06-1.75,1.24,19.19-.61,19,1.37-2,.4-1.25,1.36-2.67.2,3.18,8.65,3.92,8.89,2-.41,1.8-.25,6,.19,5,.52-.75-9.09-.3-9.28.3-2.11,1.09-1.39-.9-1.37,2.67.78-3.33-1,.52.48,1.61.06-.66-1.27.06,1.18-.2-.18,1.79,1.42,2.59,1.26.68-.84,7.25,1.76,8.92,5.84,13.86-.92-3.27.51-2.52.54.38.17-1.17,1.88,6.05,2.3,8,.37.72-.83.49,1.08,1.34-1.15-3,10.52-3.78,9.17-.75.91-2.07,1.52-3.18,1.73-3.74.4,4.19,1.67-7.85,3-7.28-.61-.09-1.09.54-.7-1.38,2.3.28,6.73-2.81,6.79-9.9-1.31.52,0-.21,1.1,2.39.75-3,1.51-2.44-.35-1.85,1.16-.65,1.4-3.1.69-3.6,0-2-.74-3.39.33.15-.32-2.35-12.25-3.31-11.68,0-.29-1,.39-7.36.46-9.11-1.58.69,8,1,9.45.82-1.07.27,1.11-1.64,0-2.06.28,2.83,0-13.81,1.32-14.09-2.12-.11,1.77.59-.29.39,2.32-2.91,1.23-2.73,2.7-1.66.08-.39-1.65-4.13-1.83-6C90.91,131,90.55,129.47,88.76,132.18ZM76.36,183.6c.46-.51-8.77-.14-9.06-.19,0,.1-1.23-6.69-1.36-6.89a16.26,16.26,0,0,0,6.21,1.65,16.84,16.84,0,0,0,6.55-1.67C78.89,176.93,76.83,183.27,76.36,183.6Zm-5-6.67c-6.09-1-12-5.76-13.07-12.78.09.19,27.78,0,27.52-.41C85.31,170.5,79.38,176.32,71.4,176.93Zm15.43-14.52c1.12-.15-.54,0-1.25-.06.11,0-26.7,0-27-.06-.11,0-1.35.06-2,.06-.14,0,.61-2,.27-2,.47.12,10.75,0,9.86,0,.05-.06,10.93.08,9.36.07,1.16-.08,10.89-.07,11.3-.12.18.11-.31,2.06-.11,2C86.92,162.4,88,162.31,86.83,162.41Zm-11-3.47c.3-.42-7.94-.12-8.13-.16,0,.09.4-5.55.32-5.72s8.22.17,8,.17S76.08,158.67,75.78,158.94Zm9.76-6.81c1-1.23-8.66-.33-9.3-.45.09.24-8.49-.05-8.77-.53-.11-.22-8.93.47-9.52.47-.12-.07.56-16.73.25-16.57.43,1.06,28.71.16,27.9.3C86.15,134.84,86.56,151.34,85.54,152.13ZM88,133.71c1.21-.14-32.65,0-33.41-.05.11,0,1.64-1.93,1.31-2-.13,0,33.76.06,33.06.06C88.82,131.72,89.22,133.62,88,133.71Z"/><path class="cls-7" d="M88.76,132.18c1.32-4.22-34.24-1.15-35.08-1.56-.34.84,1,.22.6-1-.14-.74.13,5.24-.64,5.23-.16.21,1.11-1.54,1.17-1,.56,3.62,2.19.55,1.14,1,.06-1.75,1.24,19.19-.61,19,1.37-2,.4-1.25,1.36-2.67.2,3.18,8.65,3.92,8.89,2-.41,1.8-.25,6,.19,5,.52-.75-9.09-.3-9.28.3-2.11,1.09-1.39-.9-1.37,2.67.78-3.33-1,.52.48,1.61.06-.66-1.27.06,1.18-.2-.18,1.79,1.42,2.59,1.26.68-.84,7.25,1.76,8.92,5.84,13.86-.92-3.27.51-2.52.54.38.17-1.17,1.88,6.05,2.3,8,.37.72-.83.49,1.08,1.34-1.15-3,10.52-3.78,9.17-.75.91-2.07,1.52-3.18,1.73-3.74.4,4.19,1.67-7.85,3-7.28-.61-.09-1.09.54-.7-1.38,2.3.28,6.73-2.81,6.79-9.9-1.31.52,0-.21,1.1,2.39.75-3,1.51-2.44-.35-1.85,1.16-.65,1.4-3.1.69-3.6,0-2-.74-3.39.33.15-.32-2.35-12.25-3.31-11.68,0-.29-1,.39-7.36.46-9.11-1.58.69,8,1,9.45.82-1.07.27,1.11-1.64,0-2.06.28,2.83,0-13.81,1.32-14.09-2.12-.11,1.77.59-.29.39,2.32-2.91,1.23-2.73,2.7-1.66.08-.39-1.65-4.13-1.83-6C90.91,131,90.55,129.47,88.76,132.18ZM76.36,183.6c.46-.51-8.77-.14-9.06-.19,0,.1-1.23-6.69-1.36-6.89a16.26,16.26,0,0,0,6.21,1.65,16.84,16.84,0,0,0,6.55-1.67C78.89,176.93,76.83,183.27,76.36,183.6Zm-5-6.67c-6.09-1-12-5.76-13.07-12.78.09.19,27.78,0,27.52-.41C85.31,170.5,79.38,176.32,71.4,176.93Zm15.43-14.52c1.12-.15-.54,0-1.25-.06.11,0-26.7,0-27-.06-.11,0-1.35.06-2,.06-.14,0,.61-2,.27-2,.47.12,10.75,0,9.86,0,.05-.06,10.93.08,9.36.07,1.16-.08,10.89-.07,11.3-.12.18.11-.31,2.06-.11,2C86.92,162.4,88,162.31,86.83,162.41Zm-11-3.47c.3-.42-7.94-.12-8.13-.16,0,.09.4-5.55.32-5.72s8.22.17,8,.17S76.08,158.67,75.78,158.94Zm9.76-6.81c1-1.23-8.66-.33-9.3-.45.09.24-8.49-.05-8.77-.53-.11-.22-8.93.47-9.52.47-.12-.07.56-16.73.25-16.57.43,1.06,28.71.16,27.9.3C86.15,134.84,86.56,151.34,85.54,152.13ZM88,133.71c1.21-.14-32.65,0-33.41-.05.11,0,1.64-1.93,1.31-2-.13,0,33.76.06,33.06.06C88.82,131.72,89.22,133.62,88,133.71Z"/><path class="cls-8" d="M78.42,139.65s4.83,0,4.8-.05a.81.81,0,0,0,.84-.88,1,1,0,0,0-1.11-.79c.25,0-4.3-.07-4.25,0a.86.86,0,0,0-.87.87C77.86,139.17,77.92,139.62,78.42,139.65Z"/><path class="cls-8" d="M78.42,139.65s4.83,0,4.8-.05a.81.81,0,0,0,.84-.88,1,1,0,0,0-1.11-.79c.25,0-4.3-.07-4.25,0a.86.86,0,0,0-.87.87C77.86,139.17,77.92,139.62,78.42,139.65Z"/><path class="cls-8" d="M62.25,167.57a2.89,2.89,0,0,0,.36.75.94.94,0,0,0,.74.5c.13,0,.21-.2.3-.09.48-.31.62-.78.34-1.14a1.55,1.55,0,0,0-.21-.64.86.86,0,0,0-1.2-.43A.74.74,0,0,0,62.25,167.57Z"/><path class="cls-8" d="M62.25,167.57a2.89,2.89,0,0,0,.36.75.94.94,0,0,0,.74.5c.13,0,.21-.2.3-.09.48-.31.62-.78.34-1.14a1.55,1.55,0,0,0-.21-.64.86.86,0,0,0-1.2-.43A.74.74,0,0,0,62.25,167.57Z"/><path class="cls-8" d="M65.49,171.72c-.19,0,.17.11.39.17A10.35,10.35,0,0,0,72,174.08a.77.77,0,0,0,.82-1,.56.56,0,0,0-.55-.84,8.82,8.82,0,0,1-5.59-1.77s-.31-.09,0-.16c-.15.24-.25.09-.13.15-.46-.32-1-.29-1,.13C64.83,171,65.31,171.6,65.49,171.72Z"/><path class="cls-8" d="M65.49,171.72c-.19,0,.17.11.39.17A10.35,10.35,0,0,0,72,174.08a.77.77,0,0,0,.82-1,.56.56,0,0,0-.55-.84,8.82,8.82,0,0,1-5.59-1.77s-.31-.09,0-.16c-.15.24-.25.09-.13.15-.46-.32-1-.29-1,.13C64.83,171,65.31,171.6,65.49,171.72Z"/><path class="cls-8" d="M88.76,132.18c1.32-4.22-34.24-1.15-35.08-1.56-.34.84,1,.22.6-1-.14-.74.13,5.24-.64,5.23-.16.21,1.11-1.54,1.17-1,.56,3.62,2.19.55,1.14,1,.06-1.75,1.24,19.19-.61,19,1.37-2,.4-1.25,1.36-2.67.2,3.18,8.65,3.92,8.89,2-.41,1.8-.25,6,.19,5,.52-.75-9.09-.3-9.28.3-2.11,1.09-1.39-.9-1.37,2.67.78-3.33-1,.52.48,1.61.06-.66-1.27.06,1.18-.2-.18,1.79,1.42,2.59,1.26.68-.84,7.25,1.76,8.92,5.84,13.86-.92-3.27.51-2.52.54.38.17-1.17,1.88,6.05,2.3,8,.37.72-.83.49,1.08,1.34-1.15-3,10.52-3.78,9.17-.75.91-2.07,1.52-3.18,1.73-3.74.4,4.19,1.67-7.85,3-7.28-.61-.09-1.09.54-.7-1.38,2.3.28,6.73-2.81,6.79-9.9-1.31.52,0-.21,1.1,2.39.75-3,1.51-2.44-.35-1.85,1.16-.65,1.4-3.1.69-3.6,0-2-.74-3.39.33.15-.32-2.35-12.25-3.31-11.68,0-.29-1,.39-7.36.46-9.11-1.58.69,8,1,9.45.82-1.07.27,1.11-1.64,0-2.06.28,2.83,0-13.81,1.32-14.09-2.12-.11,1.77.59-.29.39,2.32-2.91,1.23-2.73,2.7-1.66.08-.39-1.65-4.13-1.83-6C90.91,131,90.55,129.47,88.76,132.18ZM76.36,183.6c.46-.51-8.77-.14-9.06-.19,0,.1-1.23-6.69-1.36-6.89a16.26,16.26,0,0,0,6.21,1.65,16.84,16.84,0,0,0,6.55-1.67C78.89,176.93,76.83,183.27,76.36,183.6Zm-5-6.67c-6.09-1-12-5.76-13.07-12.78.09.19,27.78,0,27.52-.41C85.31,170.5,79.38,176.32,71.4,176.93Zm15.43-14.52c1.12-.15-.54,0-1.25-.06.11,0-26.7,0-27-.06-.11,0-1.35.06-2,.06-.14,0,.61-2,.27-2,.47.12,10.75,0,9.86,0,.05-.06,10.93.08,9.36.07,1.16-.08,10.89-.07,11.3-.12.18.11-.31,2.06-.11,2C86.92,162.4,88,162.31,86.83,162.41Zm-11-3.47c.3-.42-7.94-.12-8.13-.16,0,.09.4-5.55.32-5.72s8.22.17,8,.17S76.08,158.67,75.78,158.94Zm9.76-6.81c1-1.23-8.66-.33-9.3-.45.09.24-8.49-.05-8.77-.53-.11-.22-8.93.47-9.52.47-.12-.07.56-16.73.25-16.57.43,1.06,28.71.16,27.9.3C86.15,134.84,86.56,151.34,85.54,152.13ZM88,133.71c1.21-.14-32.65,0-33.41-.05.11,0,1.64-1.93,1.31-2-.13,0,33.76.06,33.06.06C88.82,131.72,89.22,133.62,88,133.71Z"/><path class="cls-8" d="M88.76,132.18c1.32-4.22-34.24-1.15-35.08-1.56-.34.84,1,.22.6-1-.14-.74.13,5.24-.64,5.23-.16.21,1.11-1.54,1.17-1,.56,3.62,2.19.55,1.14,1,.06-1.75,1.24,19.19-.61,19,1.37-2,.4-1.25,1.36-2.67.2,3.18,8.65,3.92,8.89,2-.41,1.8-.25,6,.19,5,.52-.75-9.09-.3-9.28.3-2.11,1.09-1.39-.9-1.37,2.67.78-3.33-1,.52.48,1.61.06-.66-1.27.06,1.18-.2-.18,1.79,1.42,2.59,1.26.68-.84,7.25,1.76,8.92,5.84,13.86-.92-3.27.51-2.52.54.38.17-1.17,1.88,6.05,2.3,8,.37.72-.83.49,1.08,1.34-1.15-3,10.52-3.78,9.17-.75.91-2.07,1.52-3.18,1.73-3.74.4,4.19,1.67-7.85,3-7.28-.61-.09-1.09.54-.7-1.38,2.3.28,6.73-2.81,6.79-9.9-1.31.52,0-.21,1.1,2.39.75-3,1.51-2.44-.35-1.85,1.16-.65,1.4-3.1.69-3.6,0-2-.74-3.39.33.15-.32-2.35-12.25-3.31-11.68,0-.29-1,.39-7.36.46-9.11-1.58.69,8,1,9.45.82-1.07.27,1.11-1.64,0-2.06.28,2.83,0-13.81,1.32-14.09-2.12-.11,1.77.59-.29.39,2.32-2.91,1.23-2.73,2.7-1.66.08-.39-1.65-4.13-1.83-6C90.91,131,90.55,129.47,88.76,132.18ZM76.36,183.6c.46-.51-8.77-.14-9.06-.19,0,.1-1.23-6.69-1.36-6.89a16.26,16.26,0,0,0,6.21,1.65,16.84,16.84,0,0,0,6.55-1.67C78.89,176.93,76.83,183.27,76.36,183.6Zm-5-6.67c-6.09-1-12-5.76-13.07-12.78.09.19,27.78,0,27.52-.41C85.31,170.5,79.38,176.32,71.4,176.93Zm15.43-14.52c1.12-.15-.54,0-1.25-.06.11,0-26.7,0-27-.06-.11,0-1.35.06-2,.06-.14,0,.61-2,.27-2,.47.12,10.75,0,9.86,0,.05-.06,10.93.08,9.36.07,1.16-.08,10.89-.07,11.3-.12.18.11-.31,2.06-.11,2C86.92,162.4,88,162.31,86.83,162.41Zm-11-3.47c.3-.42-7.94-.12-8.13-.16,0,.09.4-5.55.32-5.72s8.22.17,8,.17S76.08,158.67,75.78,158.94Zm9.76-6.81c1-1.23-8.66-.33-9.3-.45.09.24-8.49-.05-8.77-.53-.11-.22-8.93.47-9.52.47-.12-.07.56-16.73.25-16.57.43,1.06,28.71.16,27.9.3C86.15,134.84,86.56,151.34,85.54,152.13ZM88,133.71c1.21-.14-32.65,0-33.41-.05.11,0,1.64-1.93,1.31-2-.13,0,33.76.06,33.06.06C88.82,131.72,89.22,133.62,88,133.71Z"/></g><g id="toilet-2" data-name="toilet"><path d="M80.17,138.5s4.68,0,4.6-.1c.32.12,1-.3.88-.75a.81.81,0,0,0-.77-.88c-.24,0-4.72,0-4.77,0a1.06,1.06,0,0,0-.89.9C79.54,138.1,80,138.49,80.17,138.5Z"/><path d="M63.94,166.37a5.06,5.06,0,0,0,.24.79c.24.23.49.53.75.43a.4.4,0,0,0,.43-.07.82.82,0,0,0,.35-1.15,1.54,1.54,0,0,0-.25-.55.73.73,0,0,0-1.14-.38A.66.66,0,0,0,63.94,166.37Z"/><path d="M67.34,170.52c0,.2-.18.37,0,.4,1.72,1.39,4.35,1.93,6.73,2.14a.65.65,0,0,0,.49-1c-.08-.52-.19-.74-.88-.77a9,9,0,0,1-5.08-1.68.52.52,0,0,0-.44-.39c-.17.13-.12.17-.2,0-.4-.34-.72,0-1,.13C66.77,169.69,66.79,170.43,67.34,170.52Z"/><path d="M91.06,126.87c1.32,4.23-33.95,1.61-34.45,2.58-.55-2.6-1.38-1.95-.91-.1-.68-1,.44,2.28-.41,5.69.58-2.93-.21-2.49.13-.23-.3,1.54,2.8-2.68,2.81-1.17-1.08,1.15-1,19-.25,18.58.61-1.76.84-2.12,1.82.28a82.35,82.35,0,0,1,8.79,0c-.44-1.85.11,7.31,0,3.13-1,1.58-11.39-.16-10.4,1.11-2.12,2.44-1.13.39-.64,3.49-1.34-3.73-1.14,3.06-1.83,1.3.35,1.07.32,3.25,1,3.35.42-2.43,2.42-3.18,1.46-1.43,1.83,4,2.67,9.29,8.19,10.14-.72,2.48.06-.8-.73-.54.5,1.11,3,8.79,1.47,8.82,1.94.42,2.08,2.46.66.93,1.76.43,11.09,2.93,12.35,2.34-.36.49-1-3.07-.34-2.51.92,2.63,3.55-7.34,3.36-9-.12,2,.15,2.27-.54,0,4.37.09,5.7-7.08,5.59-9.66.27.1,2.29-2,3.1-2.93,0-.09.81,3.73.3-.73.66,1.32,0-2.34-.68-2.86.62-1.14-1.14,1.32-.61.36.75-.33-11.43.19-9.91,2-.59,0-.31-8.51-1.74-8.1,0,1.6,10.61,1,11.31.54-.71,1.07-.34-.83.38.73.46.48.15-18.88-1.06-20.07.71,3.55,2.2,2.52,1.92.23,1.5-.25.3.06,1.81.66,0-.93-1.52-4.26-1.48-4.4C92.07,127.51,92.38,127.38,91.06,126.87ZM78.26,182c.46.51-8.67.19-8.85.31,0-.31-2-6.95-1.88-6.78a32.16,32.16,0,0,0,6.3,1.71A34.61,34.61,0,0,0,80,175.62C79.91,175.81,78.56,182,78.26,182Zm-4.74-7.11c-6.08.95-11.82-5.14-12.62-11.85,0-.58,26.11-.52,26.44-.21C86.42,169.49,81.17,175,73.52,174.86ZM89,161.14c1.11.15-.3.05-.73.09-.07-.09-28.67-.08-28.27,0a7,7,0,0,0-1.8.07c.48-.12-.5-2-.6-2-.26.06,11.26-.09,11.26,0-.91,0,9.07.07,9.67.06s11.25-.11,11.68,0c-.84,0-1,1.91-.2,1.92A4.75,4.75,0,0,0,89,161.14ZM77.61,157.4c.29.42-7.89.16-8,.25,0-.26-.12-5.77,0-5.63-.15-.1,8.29-.13,8.1.21A29.18,29.18,0,0,1,77.61,157.4Zm10.09-7.61c1,1.23-8.44.47-8.83.75-.06-.76-10.28-.68-9.92-.27-.52-.31-8.69-.39-9.34.6.44-1-.45-17-.55-16.35-.23.45,29.18-.78,29.19-.34C87.42,134.52,88.35,149.94,87.7,149.79Zm2.56-17.35c1.2.15-32.39.06-32.85.09-.07-.09-.48-2-.06-1.95-.62,0,34-.05,33.27.07C91.15,130.53,91,132.46,90.26,132.44Z"/></g></g><g id="middle_toilet" data-name="middle toilet"><g id="toilet-3" data-name="toilet"><path d="M171.59,138.52c0,.06,4.67,0,4.88,0a1,1,0,0,0,.86-.77,1,1,0,0,0-.94-1c-.08,0-4.64.12-4.69,0-.28,0-.92.45-.7.85C170.8,138.14,171.42,138.57,171.59,138.52Z"/><path d="M155.22,166.86c.05.21.27.59.32.76.22.24.44.48.76.46a4.08,4.08,0,0,0,.44-.07.85.85,0,0,0,.28-1.21c-.11-.28-.21-.39-.2-.62a1,1,0,0,0-1.2-.52A1.15,1.15,0,0,0,155.22,166.86Z"/><path d="M158.62,171.13s.21,0,0,.09a12.32,12.32,0,0,0,6.78,2.35c.51-.06.73-.55.88-.94a1,1,0,0,0-1-.9c-2.23.13-3.72-.73-5.54-1.71-.09,0,0-.29-.14-.27s.09.12-.2,0c-.1-.35-.91-.14-1.12.2A1.16,1.16,0,0,0,158.62,171.13Z"/><path d="M183.09,130.87c-.12-4-35.34-2.8-36.34-3,.88,3.18-.86,3.19-.31,3.77.7-1.43,1.14,2.53-.19,1.14.38-.8,1.22,1.54.95,1.1-.6-.55,1.72-1.73,1.21-1.49,1.53,1.27,1.92,18.1.56,17.33.23,3.21.37,3.38.85,1.7,1,1.65,9.41,2.18,10.36-.06-1,2.43-.2,6.88-1.38,6.92.29-1.87-9.68-.37-9.63,1.13-1.35-2.56-.94-.35-.48-.76-.74,2.29-.87,3.81-.08,4.54-1-.56.73,1.3-.55,1.28,1.71.67,1.93.67,1.44.67,1.31,1.78,4.37,5.78,6.95,9.54-.31-1.26,1-.22.12,1.26.6-1.08,2.93,6.26,3.1,7.31,0,3.05-.29,3.44-.45,3.33.71-3.58,11.51-.1,12.18-4.09,0,4,.85,3.57.4,3.19.69-.07,2.4-10.68,1.75-11.73-.48-1,.13-.69-.24,2.16,4.62-5.81,7-8,6.23-13.83.62,2.76,3.16,2.05,2.76,1.31.28-.63.75-2.66-.4-2.09-.23-.16,1.14-1.59,1.15-.74.23-1.29-1-3.28-.68-2.06-.11.76-11.31-1.39-11.51-.76-1.08,1.83.87-7.13-.1-4.12-.46,0,10.42-2,9.84-1.73-.65-.89,1.49,1.85.14-.34,1.3-.87-.14-16.41.26-16.77.57,0,2.42-.66,2.4.63-.06-1.76,1.19.21-.31-2.26-.07-1.68-.14-3.19,1.73-3.57C184.85,128.92,184.48,128.58,183.09,130.87Zm-13.2,52.18c0-.49-9.12-.34-9.47-.37.47.39-1.88-6.4-1.69-6.39a16.7,16.7,0,0,0,6.44,1.17c2.46-.15,4.83-.44,6.55-1.44C171.5,176,170.21,182.77,169.89,183.05Zm-4.64-6.77A15.8,15.8,0,0,1,151.41,163c1,.71,26.77.63,27.17.66C178.64,170.38,173,175.76,165.25,176.28ZM181,161.64a7.29,7.29,0,0,0-2-.11c1.14.11-28.54.1-28.07.1s-.52,0-1.64-.08c.32-.05.7-1.93.08-1.94s10.46-.06,10-.05c1.28,0,11.59,0,10.45,0,.19.1,11,.09,11,0,.81.06.23,2,1,1.94C181.05,161.62,181.76,161.56,181,161.64Zm-11.8-3.52c0-.4-8.2-.28-8.42-.3.3.32,0-5.32.12-5.31s8.53-.11,8.24-.25A40.32,40.32,0,0,1,169.18,158.12Zm10.42-6.93c-.09-1.16-9.31-.81-10.08-.87,1,.92-10,.82-9.56.85.53-.42-8.26-.33-9.28-.73.29-.37.64-16,.08-16.14s28.65-.51,28.26-.44C180.19,134.23,180.31,150.53,179.6,151.19Zm2.64-18.57c-.11-.13-33.67-.09-34.58-.1,1.23.11,0-1.85.5-1.85s35.05,0,33.84-.08C182.34,130.54,183.08,132.54,182.24,132.62Z"/><path class="cls-7" d="M171.59,138.52c0,.06,4.67,0,4.88,0a1,1,0,0,0,.86-.77,1,1,0,0,0-.94-1c-.08,0-4.64.12-4.69,0-.28,0-.92.45-.7.85C170.8,138.14,171.42,138.57,171.59,138.52Z"/><path class="cls-7" d="M171.59,138.52c0,.06,4.67,0,4.88,0a1,1,0,0,0,.86-.77,1,1,0,0,0-.94-1c-.08,0-4.64.12-4.69,0-.28,0-.92.45-.7.85C170.8,138.14,171.42,138.57,171.59,138.52Z"/><path class="cls-7" d="M155.22,166.86c.05.21.27.59.32.76.22.24.44.48.76.46a4.08,4.08,0,0,0,.44-.07.85.85,0,0,0,.28-1.21c-.11-.28-.21-.39-.2-.62a1,1,0,0,0-1.2-.52A1.15,1.15,0,0,0,155.22,166.86Z"/><path class="cls-7" d="M155.22,166.86c.05.21.27.59.32.76.22.24.44.48.76.46a4.08,4.08,0,0,0,.44-.07.85.85,0,0,0,.28-1.21c-.11-.28-.21-.39-.2-.62a1,1,0,0,0-1.2-.52A1.15,1.15,0,0,0,155.22,166.86Z"/><path class="cls-7" d="M158.62,171.13s.21,0,0,.09a12.32,12.32,0,0,0,6.78,2.35c.51-.06.73-.55.88-.94a1,1,0,0,0-1-.9c-2.23.13-3.72-.73-5.54-1.71-.09,0,0-.29-.14-.27s.09.12-.2,0c-.1-.35-.91-.14-1.12.2A1.16,1.16,0,0,0,158.62,171.13Z"/><path class="cls-7" d="M158.62,171.13s.21,0,0,.09a12.32,12.32,0,0,0,6.78,2.35c.51-.06.73-.55.88-.94a1,1,0,0,0-1-.9c-2.23.13-3.72-.73-5.54-1.71-.09,0,0-.29-.14-.27s.09.12-.2,0c-.1-.35-.91-.14-1.12.2A1.16,1.16,0,0,0,158.62,171.13Z"/><path class="cls-7" d="M183.09,130.87c-.12-4-35.34-2.8-36.34-3,.88,3.18-.86,3.19-.31,3.77.7-1.43,1.14,2.53-.19,1.14.38-.8,1.22,1.54.95,1.1-.6-.55,1.72-1.73,1.21-1.49,1.53,1.27,1.92,18.1.56,17.33.23,3.21.37,3.38.85,1.7,1,1.65,9.41,2.18,10.36-.06-1,2.43-.2,6.88-1.38,6.92.29-1.87-9.68-.37-9.63,1.13-1.35-2.56-.94-.35-.48-.76-.74,2.29-.87,3.81-.08,4.54-1-.56.73,1.3-.55,1.28,1.71.67,1.93.67,1.44.67,1.31,1.78,4.37,5.78,6.95,9.54-.31-1.26,1-.22.12,1.26.6-1.08,2.93,6.26,3.1,7.31,0,3.05-.29,3.44-.45,3.33.71-3.58,11.51-.1,12.18-4.09,0,4,.85,3.57.4,3.19.69-.07,2.4-10.68,1.75-11.73-.48-1,.13-.69-.24,2.16,4.62-5.81,7-8,6.23-13.83.62,2.76,3.16,2.05,2.76,1.31.28-.63.75-2.66-.4-2.09-.23-.16,1.14-1.59,1.15-.74.23-1.29-1-3.28-.68-2.06-.11.76-11.31-1.39-11.51-.76-1.08,1.83.87-7.13-.1-4.12-.46,0,10.42-2,9.84-1.73-.65-.89,1.49,1.85.14-.34,1.3-.87-.14-16.41.26-16.77.57,0,2.42-.66,2.4.63-.06-1.76,1.19.21-.31-2.26-.07-1.68-.14-3.19,1.73-3.57C184.85,128.92,184.48,128.58,183.09,130.87Zm-13.2,52.18c0-.49-9.12-.34-9.47-.37.47.39-1.88-6.4-1.69-6.39a16.7,16.7,0,0,0,6.44,1.17c2.46-.15,4.83-.44,6.55-1.44C171.5,176,170.21,182.77,169.89,183.05Zm-4.64-6.77A15.8,15.8,0,0,1,151.41,163c1,.71,26.77.63,27.17.66C178.64,170.38,173,175.76,165.25,176.28ZM181,161.64a7.29,7.29,0,0,0-2-.11c1.14.11-28.54.1-28.07.1s-.52,0-1.64-.08c.32-.05.7-1.93.08-1.94s10.46-.06,10-.05c1.28,0,11.59,0,10.45,0,.19.1,11,.09,11,0,.81.06.23,2,1,1.94C181.05,161.62,181.76,161.56,181,161.64Zm-11.8-3.52c0-.4-8.2-.28-8.42-.3.3.32,0-5.32.12-5.31s8.53-.11,8.24-.25A40.32,40.32,0,0,1,169.18,158.12Zm10.42-6.93c-.09-1.16-9.31-.81-10.08-.87,1,.92-10,.82-9.56.85.53-.42-8.26-.33-9.28-.73.29-.37.64-16,.08-16.14s28.65-.51,28.26-.44C180.19,134.23,180.31,150.53,179.6,151.19Zm2.64-18.57c-.11-.13-33.67-.09-34.58-.1,1.23.11,0-1.85.5-1.85s35.05,0,33.84-.08C182.34,130.54,183.08,132.54,182.24,132.62Z"/><path class="cls-7" d="M183.09,130.87c-.12-4-35.34-2.8-36.34-3,.88,3.18-.86,3.19-.31,3.77.7-1.43,1.14,2.53-.19,1.14.38-.8,1.22,1.54.95,1.1-.6-.55,1.72-1.73,1.21-1.49,1.53,1.27,1.92,18.1.56,17.33.23,3.21.37,3.38.85,1.7,1,1.65,9.41,2.18,10.36-.06-1,2.43-.2,6.88-1.38,6.92.29-1.87-9.68-.37-9.63,1.13-1.35-2.56-.94-.35-.48-.76-.74,2.29-.87,3.81-.08,4.54-1-.56.73,1.3-.55,1.28,1.71.67,1.93.67,1.44.67,1.31,1.78,4.37,5.78,6.95,9.54-.31-1.26,1-.22.12,1.26.6-1.08,2.93,6.26,3.1,7.31,0,3.05-.29,3.44-.45,3.33.71-3.58,11.51-.1,12.18-4.09,0,4,.85,3.57.4,3.19.69-.07,2.4-10.68,1.75-11.73-.48-1,.13-.69-.24,2.16,4.62-5.81,7-8,6.23-13.83.62,2.76,3.16,2.05,2.76,1.31.28-.63.75-2.66-.4-2.09-.23-.16,1.14-1.59,1.15-.74.23-1.29-1-3.28-.68-2.06-.11.76-11.31-1.39-11.51-.76-1.08,1.83.87-7.13-.1-4.12-.46,0,10.42-2,9.84-1.73-.65-.89,1.49,1.85.14-.34,1.3-.87-.14-16.41.26-16.77.57,0,2.42-.66,2.4.63-.06-1.76,1.19.21-.31-2.26-.07-1.68-.14-3.19,1.73-3.57C184.85,128.92,184.48,128.58,183.09,130.87Zm-13.2,52.18c0-.49-9.12-.34-9.47-.37.47.39-1.88-6.4-1.69-6.39a16.7,16.7,0,0,0,6.44,1.17c2.46-.15,4.83-.44,6.55-1.44C171.5,176,170.21,182.77,169.89,183.05Zm-4.64-6.77A15.8,15.8,0,0,1,151.41,163c1,.71,26.77.63,27.17.66C178.64,170.38,173,175.76,165.25,176.28ZM181,161.64a7.29,7.29,0,0,0-2-.11c1.14.11-28.54.1-28.07.1s-.52,0-1.64-.08c.32-.05.7-1.93.08-1.94s10.46-.06,10-.05c1.28,0,11.59,0,10.45,0,.19.1,11,.09,11,0,.81.06.23,2,1,1.94C181.05,161.62,181.76,161.56,181,161.64Zm-11.8-3.52c0-.4-8.2-.28-8.42-.3.3.32,0-5.32.12-5.31s8.53-.11,8.24-.25A40.32,40.32,0,0,1,169.18,158.12Zm10.42-6.93c-.09-1.16-9.31-.81-10.08-.87,1,.92-10,.82-9.56.85.53-.42-8.26-.33-9.28-.73.29-.37.64-16,.08-16.14s28.65-.51,28.26-.44C180.19,134.23,180.31,150.53,179.6,151.19Zm2.64-18.57c-.11-.13-33.67-.09-34.58-.1,1.23.11,0-1.85.5-1.85s35.05,0,33.84-.08C182.34,130.54,183.08,132.54,182.24,132.62Z"/><path class="cls-9" d="M171.59,138.52c0,.06,4.67,0,4.88,0a1,1,0,0,0,.86-.77,1,1,0,0,0-.94-1c-.08,0-4.64.12-4.69,0-.28,0-.92.45-.7.85C170.8,138.14,171.42,138.57,171.59,138.52Z"/><path class="cls-9" d="M171.59,138.52c0,.06,4.67,0,4.88,0a1,1,0,0,0,.86-.77,1,1,0,0,0-.94-1c-.08,0-4.64.12-4.69,0-.28,0-.92.45-.7.85C170.8,138.14,171.42,138.57,171.59,138.52Z"/><path class="cls-9" d="M155.22,166.86c.05.21.27.59.32.76.22.24.44.48.76.46a4.08,4.08,0,0,0,.44-.07.85.85,0,0,0,.28-1.21c-.11-.28-.21-.39-.2-.62a1,1,0,0,0-1.2-.52A1.15,1.15,0,0,0,155.22,166.86Z"/><path class="cls-9" d="M155.22,166.86c.05.21.27.59.32.76.22.24.44.48.76.46a4.08,4.08,0,0,0,.44-.07.85.85,0,0,0,.28-1.21c-.11-.28-.21-.39-.2-.62a1,1,0,0,0-1.2-.52A1.15,1.15,0,0,0,155.22,166.86Z"/><path class="cls-9" d="M158.62,171.13s.21,0,0,.09a12.32,12.32,0,0,0,6.78,2.35c.51-.06.73-.55.88-.94a1,1,0,0,0-1-.9c-2.23.13-3.72-.73-5.54-1.71-.09,0,0-.29-.14-.27s.09.12-.2,0c-.1-.35-.91-.14-1.12.2A1.16,1.16,0,0,0,158.62,171.13Z"/><path class="cls-9" d="M158.62,171.13s.21,0,0,.09a12.32,12.32,0,0,0,6.78,2.35c.51-.06.73-.55.88-.94a1,1,0,0,0-1-.9c-2.23.13-3.72-.73-5.54-1.71-.09,0,0-.29-.14-.27s.09.12-.2,0c-.1-.35-.91-.14-1.12.2A1.16,1.16,0,0,0,158.62,171.13Z"/><path class="cls-9" d="M183.09,130.87c-.12-4-35.34-2.8-36.34-3,.88,3.18-.86,3.19-.31,3.77.7-1.43,1.14,2.53-.19,1.14.38-.8,1.22,1.54.95,1.1-.6-.55,1.72-1.73,1.21-1.49,1.53,1.27,1.92,18.1.56,17.33.23,3.21.37,3.38.85,1.7,1,1.65,9.41,2.18,10.36-.06-1,2.43-.2,6.88-1.38,6.92.29-1.87-9.68-.37-9.63,1.13-1.35-2.56-.94-.35-.48-.76-.74,2.29-.87,3.81-.08,4.54-1-.56.73,1.3-.55,1.28,1.71.67,1.93.67,1.44.67,1.31,1.78,4.37,5.78,6.95,9.54-.31-1.26,1-.22.12,1.26.6-1.08,2.93,6.26,3.1,7.31,0,3.05-.29,3.44-.45,3.33.71-3.58,11.51-.1,12.18-4.09,0,4,.85,3.57.4,3.19.69-.07,2.4-10.68,1.75-11.73-.48-1,.13-.69-.24,2.16,4.62-5.81,7-8,6.23-13.83.62,2.76,3.16,2.05,2.76,1.31.28-.63.75-2.66-.4-2.09-.23-.16,1.14-1.59,1.15-.74.23-1.29-1-3.28-.68-2.06-.11.76-11.31-1.39-11.51-.76-1.08,1.83.87-7.13-.1-4.12-.46,0,10.42-2,9.84-1.73-.65-.89,1.49,1.85.14-.34,1.3-.87-.14-16.41.26-16.77.57,0,2.42-.66,2.4.63-.06-1.76,1.19.21-.31-2.26-.07-1.68-.14-3.19,1.73-3.57C184.85,128.92,184.48,128.58,183.09,130.87Zm-13.2,52.18c0-.49-9.12-.34-9.47-.37.47.39-1.88-6.4-1.69-6.39a16.7,16.7,0,0,0,6.44,1.17c2.46-.15,4.83-.44,6.55-1.44C171.5,176,170.21,182.77,169.89,183.05Zm-4.64-6.77A15.8,15.8,0,0,1,151.41,163c1,.71,26.77.63,27.17.66C178.64,170.38,173,175.76,165.25,176.28ZM181,161.64a7.29,7.29,0,0,0-2-.11c1.14.11-28.54.1-28.07.1s-.52,0-1.64-.08c.32-.05.7-1.93.08-1.94s10.46-.06,10-.05c1.28,0,11.59,0,10.45,0,.19.1,11,.09,11,0,.81.06.23,2,1,1.94C181.05,161.62,181.76,161.56,181,161.64Zm-11.8-3.52c0-.4-8.2-.28-8.42-.3.3.32,0-5.32.12-5.31s8.53-.11,8.24-.25A40.32,40.32,0,0,1,169.18,158.12Zm10.42-6.93c-.09-1.16-9.31-.81-10.08-.87,1,.92-10,.82-9.56.85.53-.42-8.26-.33-9.28-.73.29-.37.64-16,.08-16.14s28.65-.51,28.26-.44C180.19,134.23,180.31,150.53,179.6,151.19Zm2.64-18.57c-.11-.13-33.67-.09-34.58-.1,1.23.11,0-1.85.5-1.85s35.05,0,33.84-.08C182.34,130.54,183.08,132.54,182.24,132.62Z"/><path class="cls-9" d="M183.09,130.87c-.12-4-35.34-2.8-36.34-3,.88,3.18-.86,3.19-.31,3.77.7-1.43,1.14,2.53-.19,1.14.38-.8,1.22,1.54.95,1.1-.6-.55,1.72-1.73,1.21-1.49,1.53,1.27,1.92,18.1.56,17.33.23,3.21.37,3.38.85,1.7,1,1.65,9.41,2.18,10.36-.06-1,2.43-.2,6.88-1.38,6.92.29-1.87-9.68-.37-9.63,1.13-1.35-2.56-.94-.35-.48-.76-.74,2.29-.87,3.81-.08,4.54-1-.56.73,1.3-.55,1.28,1.71.67,1.93.67,1.44.67,1.31,1.78,4.37,5.78,6.95,9.54-.31-1.26,1-.22.12,1.26.6-1.08,2.93,6.26,3.1,7.31,0,3.05-.29,3.44-.45,3.33.71-3.58,11.51-.1,12.18-4.09,0,4,.85,3.57.4,3.19.69-.07,2.4-10.68,1.75-11.73-.48-1,.13-.69-.24,2.16,4.62-5.81,7-8,6.23-13.83.62,2.76,3.16,2.05,2.76,1.31.28-.63.75-2.66-.4-2.09-.23-.16,1.14-1.59,1.15-.74.23-1.29-1-3.28-.68-2.06-.11.76-11.31-1.39-11.51-.76-1.08,1.83.87-7.13-.1-4.12-.46,0,10.42-2,9.84-1.73-.65-.89,1.49,1.85.14-.34,1.3-.87-.14-16.41.26-16.77.57,0,2.42-.66,2.4.63-.06-1.76,1.19.21-.31-2.26-.07-1.68-.14-3.19,1.73-3.57C184.85,128.92,184.48,128.58,183.09,130.87Zm-13.2,52.18c0-.49-9.12-.34-9.47-.37.47.39-1.88-6.4-1.69-6.39a16.7,16.7,0,0,0,6.44,1.17c2.46-.15,4.83-.44,6.55-1.44C171.5,176,170.21,182.77,169.89,183.05Zm-4.64-6.77A15.8,15.8,0,0,1,151.41,163c1,.71,26.77.63,27.17.66C178.64,170.38,173,175.76,165.25,176.28ZM181,161.64a7.29,7.29,0,0,0-2-.11c1.14.11-28.54.1-28.07.1s-.52,0-1.64-.08c.32-.05.7-1.93.08-1.94s10.46-.06,10-.05c1.28,0,11.59,0,10.45,0,.19.1,11,.09,11,0,.81.06.23,2,1,1.94C181.05,161.62,181.76,161.56,181,161.64Zm-11.8-3.52c0-.4-8.2-.28-8.42-.3.3.32,0-5.32.12-5.31s8.53-.11,8.24-.25A40.32,40.32,0,0,1,169.18,158.12Zm10.42-6.93c-.09-1.16-9.31-.81-10.08-.87,1,.92-10,.82-9.56.85.53-.42-8.26-.33-9.28-.73.29-.37.64-16,.08-16.14s28.65-.51,28.26-.44C180.19,134.23,180.31,150.53,179.6,151.19Zm2.64-18.57c-.11-.13-33.67-.09-34.58-.1,1.23.11,0-1.85.5-1.85s35.05,0,33.84-.08C182.34,130.54,183.08,132.54,182.24,132.62Z"/></g><g id="toilet-4" data-name="toilet"><path d="M172.73,139.08c0,.07,4.66,0,4.88,0a1,1,0,0,0,.86-.78,1,1,0,0,0-.94-1c-.08,0-4.64.12-4.69,0-.28,0-.93.45-.71.84C171.93,138.71,172.56,139.14,172.73,139.08Z"/><path d="M156.36,167.43a7.68,7.68,0,0,0,.32.75c.22.25.44.49.76.47a4.08,4.08,0,0,0,.44-.07.87.87,0,0,0,.28-1.22c-.11-.27-.22-.38-.21-.61a1,1,0,0,0-1.19-.52A1.13,1.13,0,0,0,156.36,167.43Z"/><path d="M159.75,171.7s.21,0,0,.09a12.26,12.26,0,0,0,6.77,2.35c.52-.06.73-.55.89-.94a1,1,0,0,0-1-.9c-2.24.13-3.73-.74-5.54-1.71-.1,0,0-.29-.14-.27s.08.12-.21,0c-.09-.35-.91-.15-1.11.2A1.18,1.18,0,0,0,159.75,171.7Z"/><path d="M184.22,131.44c-.11-4-35.34-2.8-36.34-3,.88,3.18-.86,3.19-.3,3.76.7-1.42,1.13,2.54-.19,1.15.37-.8,1.21,1.54,1,1.1-.61-.55,1.72-1.73,1.21-1.49,1.53,1.27,1.91,18.09.56,17.33.22,3.21.37,3.38.85,1.7,1,1.65,9.4,2.17,10.36-.06-.95,2.43-.21,6.88-1.38,6.92.28-1.88-9.69-.37-9.64,1.13-1.35-2.57-.93-.35-.48-.77-.74,2.29-.86,3.82-.08,4.55-1-.56.74,1.29-.54,1.28,1.71.66,1.93.67,1.43.67,1.31,1.78,4.38,5.78,7,9.53-.31-1.25,1-.22.13,1.27.6-1.08,2.92,6.26,3.09,7.31,0,3.05-.28,3.44-.45,3.33.72-3.58,11.52-.11,12.18-4.09,0,4,.86,3.57.41,3.19.69-.07,2.4-10.69,1.74-11.73-.48-1,.13-.69-.24,2.16,4.62-5.81,7-8,6.23-13.84.63,2.76,3.16,2.06,2.76,1.32.29-.64.75-2.67-.4-2.09-.22-.16,1.15-1.6,1.16-.74.23-1.29-.95-3.28-.68-2.06-.11.76-11.32-1.39-11.51-.76-1.09,1.83.86-7.14-.11-4.13-.45.05,10.42-2,9.85-1.72-.65-.89,1.49,1.85.13-.34,1.31-.87-.13-16.41.26-16.77.57,0,2.43-.66,2.41.63-.07-1.76,1.19.21-.31-2.26-.08-1.68-.15-3.19,1.72-3.58C186,129.49,185.62,129.15,184.22,131.44ZM171,183.61c0-.48-9.12-.34-9.47-.36.47.38-1.88-6.4-1.69-6.39a16.64,16.64,0,0,0,6.44,1.17,15.39,15.39,0,0,0,6.54-1.44C172.64,176.52,171.35,183.34,171,183.61Zm-4.65-6.76a15.81,15.81,0,0,1-13.84-13.25c1,.72,26.78.64,27.18.66C179.78,170.94,174.15,176.33,166.38,176.85Zm15.74-14.64a7.29,7.29,0,0,0-2-.11c1.13.11-28.54.1-28.08.1s-.52,0-1.63-.09c.31,0,.7-1.92.08-1.93s10.45-.06,10-.06c1.29,0,11.59,0,10.45,0,.19.09,11,.09,11,0,.82.06.23,2,1,1.94C182.19,162.19,182.9,162.13,182.12,162.21Zm-11.8-3.52c0-.41-8.2-.29-8.42-.31.3.32,0-5.31.12-5.3.15-.14,8.53-.11,8.24-.25A40.31,40.31,0,0,1,170.32,158.69Zm10.41-6.93c-.09-1.16-9.31-.82-10.07-.88,1,.93-10,.83-9.57.86.54-.42-8.26-.33-9.27-.74.28-.36.64-16,.07-16.14s28.66-.5,28.27-.43C181.33,134.8,181.44,151.09,180.73,151.76Zm2.65-18.57c-.11-.14-33.68-.1-34.58-.1,1.22.11,0-1.85.49-1.85s35.05,0,33.85-.09C183.48,131.11,184.22,133.11,183.38,133.19Z"/></g></g><g id="largest_toilet" data-name="largest toilet"><g id="toilet-5" data-name="toilet"><path d="M265.55,139.65c.2,0,4.62,0,4.55.06a1.19,1.19,0,0,0,1-.93c-.27-.5-.48-.92-1-.85,0-.1-4.42-.07-4.49-.09-.41,0-.77.42-.89.93A.94.94,0,0,0,265.55,139.65Z"/><path d="M249.27,169.28a2.77,2.77,0,0,1,.38.83.94.94,0,0,0,.78.54c.16-.15.26-.09.38-.08a1,1,0,0,0,.33-1.33,1.59,1.59,0,0,0-.29-.51.79.79,0,0,0-1.07-.6A1,1,0,0,0,249.27,169.28Z"/><path d="M252.61,173.7c-.08,0,.22.29.44.21a10.11,10.11,0,0,0,6.45,2.48.75.75,0,0,0,.47-1,.67.67,0,0,0-.73-.88,8.9,8.9,0,0,1-5.57-2c.21,0,0-.13.07-.27-.26.25-.15.1-.15,0-.6-.22-.88-.09-.93.27C252.32,172.78,252.24,173.5,252.61,173.7Z"/><path d="M276.52,127.27c-.3,3-34.88,2.23-34.8,2.3.5.13-.92.33-1.32,1.43.8-2.64.4,3.23,1,2.79-1,1.74-.19,1.33-.75,1.39,0-2.39,2.8-.06,2.8-2.23-.21,4.18,0,20.24,1.07,19.1-1.64,3.33-.69,2,.44,4.27-.44,0,8.34-2.24,7.78-2.67-.51,1.62.56,6.31,1.4,4.55-1,1.86-11.22,1.76-11.17.34-1.29.87-.89,1.82-1.33,4.38.13-3.42.44,1.76.42,1.23-.92-1,.4,1.43,1.1,3.38-.59-.86,1.24-1.95,1.41-3.16.88,7.79,2.58,10.65,5.63,11.32,0-.23.63,2.13-.27,2.79.93.53,3.36,8.74,4,9.17.49-.18-.2.22.74-1,.09-.23,9.85,1.17,10.66,2.11.5-.66-.11-1.21.14.54-.68-2.24,2.3-11.48,1.24-11.58,1.68-1.12,1.08,0,.11-1.15,5.23-2.27,7.12-6,6.83-9,.74-.9,2-2,3.07-.07-1-.23-.19-2.37.51-4.33-.9.61-.7-2.37-1.35-1.68.12-2.6.27-1.58-.28-.65-.61-2.22-10.75-.93-11.23,1.25-.59-1.56.48-8.06,1.48-6.93-2.06.22,8.47-1.13,7.46-2.54,2.37,2.6,1.85,1,.88,2.32,1.84-1.39,1-19.87,1.66-19.71-.49.58,1.09-.16,1.89.75a7.37,7.37,0,0,1,.94-2.83c-.28.25-.9-2.8-1-2.86C277.58,129.79,277.36,129.5,276.52,127.27Zm-12.81,58.54c-.11.37-9,.27-9,.28.33,0-1.88-7.08-2-7,2.22.67,4.26,1.47,6.76,1.42a10.45,10.45,0,0,0,5.87-1.49C265.35,178.72,263.84,186.08,263.71,185.81ZM259,178.26c-7.24.69-12.51-5.33-12.89-12.67.69,0,26.38,0,26.09.12A12.59,12.59,0,0,1,259,178.26Zm15.49-14.55a4.25,4.25,0,0,1-1.07.08c.8,0-28.23,0-28.57,0,.68-.09-1.12,0-.64,0-.82,0-.48-2-1.34-2,0-.09,11.24,0,11.24-.08-.17.15,9.86.08,10.76,0-1.38.09,9.94,0,10.51.11-.38,0-.57,2-1,2S274.81,163.79,274.49,163.71Zm-11.45-4C263,160,255,160,255,160a37.72,37.72,0,0,0-.11-5.83c.18-.26,8.27-.06,8.39-.1C263,154.16,263.13,160,263,159.73Zm10.11-8.08c-.23.88-9.18.65-9.12.67.73,0-9.92,0-10.22.15.61-.77-8.71-.17-8.27-.3-.75.36-.44-16.9-1.23-16.88,0-.69,29.13,0,29.13-.65C273.28,135.86,273.44,152.3,273.15,151.65Zm2.56-18.39c-.27.1-33.23.07-33.15.08.87,0-.08-2.05-.44-2,.73-.09,33.94,0,34.45,0C275.69,131.32,276.06,133.33,275.71,133.26Z"/><path class="cls-7" d="M265.55,139.65c.2,0,4.62,0,4.55.06a1.19,1.19,0,0,0,1-.93c-.27-.5-.48-.92-1-.85,0-.1-4.42-.07-4.49-.09-.41,0-.77.42-.89.93A.94.94,0,0,0,265.55,139.65Z"/><path class="cls-7" d="M265.55,139.65c.2,0,4.62,0,4.55.06a1.19,1.19,0,0,0,1-.93c-.27-.5-.48-.92-1-.85,0-.1-4.42-.07-4.49-.09-.41,0-.77.42-.89.93A.94.94,0,0,0,265.55,139.65Z"/><path class="cls-7" d="M249.27,169.28a2.77,2.77,0,0,1,.38.83.94.94,0,0,0,.78.54c.16-.15.26-.09.38-.08a1,1,0,0,0,.33-1.33,1.59,1.59,0,0,0-.29-.51.79.79,0,0,0-1.07-.6A1,1,0,0,0,249.27,169.28Z"/><path class="cls-7" d="M249.27,169.28a2.77,2.77,0,0,1,.38.83.94.94,0,0,0,.78.54c.16-.15.26-.09.38-.08a1,1,0,0,0,.33-1.33,1.59,1.59,0,0,0-.29-.51.79.79,0,0,0-1.07-.6A1,1,0,0,0,249.27,169.28Z"/><path class="cls-7" d="M252.61,173.7c-.08,0,.22.29.44.21a10.11,10.11,0,0,0,6.45,2.48.75.75,0,0,0,.47-1,.67.67,0,0,0-.73-.88,8.9,8.9,0,0,1-5.57-2c.21,0,0-.13.07-.27-.26.25-.15.1-.15,0-.6-.22-.88-.09-.93.27C252.32,172.78,252.24,173.5,252.61,173.7Z"/><path class="cls-7" d="M252.61,173.7c-.08,0,.22.29.44.21a10.11,10.11,0,0,0,6.45,2.48.75.75,0,0,0,.47-1,.67.67,0,0,0-.73-.88,8.9,8.9,0,0,1-5.57-2c.21,0,0-.13.07-.27-.26.25-.15.1-.15,0-.6-.22-.88-.09-.93.27C252.32,172.78,252.24,173.5,252.61,173.7Z"/><path class="cls-7" d="M276.52,127.27c-.3,3-34.88,2.23-34.8,2.3.5.13-.92.33-1.32,1.43.8-2.64.4,3.23,1,2.79-1,1.74-.19,1.33-.75,1.39,0-2.39,2.8-.06,2.8-2.23-.21,4.18,0,20.24,1.07,19.1-1.64,3.33-.69,2,.44,4.27-.44,0,8.34-2.24,7.78-2.67-.51,1.62.56,6.31,1.4,4.55-1,1.86-11.22,1.76-11.17.34-1.29.87-.89,1.82-1.33,4.38.13-3.42.44,1.76.42,1.23-.92-1,.4,1.43,1.1,3.38-.59-.86,1.24-1.95,1.41-3.16.88,7.79,2.58,10.65,5.63,11.32,0-.23.63,2.13-.27,2.79.93.53,3.36,8.74,4,9.17.49-.18-.2.22.74-1,.09-.23,9.85,1.17,10.66,2.11.5-.66-.11-1.21.14.54-.68-2.24,2.3-11.48,1.24-11.58,1.68-1.12,1.08,0,.11-1.15,5.23-2.27,7.12-6,6.83-9,.74-.9,2-2,3.07-.07-1-.23-.19-2.37.51-4.33-.9.61-.7-2.37-1.35-1.68.12-2.6.27-1.58-.28-.65-.61-2.22-10.75-.93-11.23,1.25-.59-1.56.48-8.06,1.48-6.93-2.06.22,8.47-1.13,7.46-2.54,2.37,2.6,1.85,1,.88,2.32,1.84-1.39,1-19.87,1.66-19.71-.49.58,1.09-.16,1.89.75a7.37,7.37,0,0,1,.94-2.83c-.28.25-.9-2.8-1-2.86C277.58,129.79,277.36,129.5,276.52,127.27Zm-12.81,58.54c-.11.37-9,.27-9,.28.33,0-1.88-7.08-2-7,2.22.67,4.26,1.47,6.76,1.42a10.45,10.45,0,0,0,5.87-1.49C265.35,178.72,263.84,186.08,263.71,185.81ZM259,178.26c-7.24.69-12.51-5.33-12.89-12.67.69,0,26.38,0,26.09.12A12.59,12.59,0,0,1,259,178.26Zm15.49-14.55a4.25,4.25,0,0,1-1.07.08c.8,0-28.23,0-28.57,0,.68-.09-1.12,0-.64,0-.82,0-.48-2-1.34-2,0-.09,11.24,0,11.24-.08-.17.15,9.86.08,10.76,0-1.38.09,9.94,0,10.51.11-.38,0-.57,2-1,2S274.81,163.79,274.49,163.71Zm-11.45-4C263,160,255,160,255,160a37.72,37.72,0,0,0-.11-5.83c.18-.26,8.27-.06,8.39-.1C263,154.16,263.13,160,263,159.73Zm10.11-8.08c-.23.88-9.18.65-9.12.67.73,0-9.92,0-10.22.15.61-.77-8.71-.17-8.27-.3-.75.36-.44-16.9-1.23-16.88,0-.69,29.13,0,29.13-.65C273.28,135.86,273.44,152.3,273.15,151.65Zm2.56-18.39c-.27.1-33.23.07-33.15.08.87,0-.08-2.05-.44-2,.73-.09,33.94,0,34.45,0C275.69,131.32,276.06,133.33,275.71,133.26Z"/><path class="cls-7" d="M276.52,127.27c-.3,3-34.88,2.23-34.8,2.3.5.13-.92.33-1.32,1.43.8-2.64.4,3.23,1,2.79-1,1.74-.19,1.33-.75,1.39,0-2.39,2.8-.06,2.8-2.23-.21,4.18,0,20.24,1.07,19.1-1.64,3.33-.69,2,.44,4.27-.44,0,8.34-2.24,7.78-2.67-.51,1.62.56,6.31,1.4,4.55-1,1.86-11.22,1.76-11.17.34-1.29.87-.89,1.82-1.33,4.38.13-3.42.44,1.76.42,1.23-.92-1,.4,1.43,1.1,3.38-.59-.86,1.24-1.95,1.41-3.16.88,7.79,2.58,10.65,5.63,11.32,0-.23.63,2.13-.27,2.79.93.53,3.36,8.74,4,9.17.49-.18-.2.22.74-1,.09-.23,9.85,1.17,10.66,2.11.5-.66-.11-1.21.14.54-.68-2.24,2.3-11.48,1.24-11.58,1.68-1.12,1.08,0,.11-1.15,5.23-2.27,7.12-6,6.83-9,.74-.9,2-2,3.07-.07-1-.23-.19-2.37.51-4.33-.9.61-.7-2.37-1.35-1.68.12-2.6.27-1.58-.28-.65-.61-2.22-10.75-.93-11.23,1.25-.59-1.56.48-8.06,1.48-6.93-2.06.22,8.47-1.13,7.46-2.54,2.37,2.6,1.85,1,.88,2.32,1.84-1.39,1-19.87,1.66-19.71-.49.58,1.09-.16,1.89.75a7.37,7.37,0,0,1,.94-2.83c-.28.25-.9-2.8-1-2.86C277.58,129.79,277.36,129.5,276.52,127.27Zm-12.81,58.54c-.11.37-9,.27-9,.28.33,0-1.88-7.08-2-7,2.22.67,4.26,1.47,6.76,1.42a10.45,10.45,0,0,0,5.87-1.49C265.35,178.72,263.84,186.08,263.71,185.81ZM259,178.26c-7.24.69-12.51-5.33-12.89-12.67.69,0,26.38,0,26.09.12A12.59,12.59,0,0,1,259,178.26Zm15.49-14.55a4.25,4.25,0,0,1-1.07.08c.8,0-28.23,0-28.57,0,.68-.09-1.12,0-.64,0-.82,0-.48-2-1.34-2,0-.09,11.24,0,11.24-.08-.17.15,9.86.08,10.76,0-1.38.09,9.94,0,10.51.11-.38,0-.57,2-1,2S274.81,163.79,274.49,163.71Zm-11.45-4C263,160,255,160,255,160a37.72,37.72,0,0,0-.11-5.83c.18-.26,8.27-.06,8.39-.1C263,154.16,263.13,160,263,159.73Zm10.11-8.08c-.23.88-9.18.65-9.12.67.73,0-9.92,0-10.22.15.61-.77-8.71-.17-8.27-.3-.75.36-.44-16.9-1.23-16.88,0-.69,29.13,0,29.13-.65C273.28,135.86,273.44,152.3,273.15,151.65Zm2.56-18.39c-.27.1-33.23.07-33.15.08.87,0-.08-2.05-.44-2,.73-.09,33.94,0,34.45,0C275.69,131.32,276.06,133.33,275.71,133.26Z"/><path class="cls-8" d="M265.55,139.65c.2,0,4.62,0,4.55.06a1.19,1.19,0,0,0,1-.93c-.27-.5-.48-.92-1-.85,0-.1-4.42-.07-4.49-.09-.41,0-.77.42-.89.93A.94.94,0,0,0,265.55,139.65Z"/><path class="cls-8" d="M265.55,139.65c.2,0,4.62,0,4.55.06a1.19,1.19,0,0,0,1-.93c-.27-.5-.48-.92-1-.85,0-.1-4.42-.07-4.49-.09-.41,0-.77.42-.89.93A.94.94,0,0,0,265.55,139.65Z"/><path class="cls-8" d="M249.27,169.28a2.77,2.77,0,0,1,.38.83.94.94,0,0,0,.78.54c.16-.15.26-.09.38-.08a1,1,0,0,0,.33-1.33,1.59,1.59,0,0,0-.29-.51.79.79,0,0,0-1.07-.6A1,1,0,0,0,249.27,169.28Z"/><path class="cls-8" d="M249.27,169.28a2.77,2.77,0,0,1,.38.83.94.94,0,0,0,.78.54c.16-.15.26-.09.38-.08a1,1,0,0,0,.33-1.33,1.59,1.59,0,0,0-.29-.51.79.79,0,0,0-1.07-.6A1,1,0,0,0,249.27,169.28Z"/><path class="cls-8" d="M252.61,173.7c-.08,0,.22.29.44.21a10.11,10.11,0,0,0,6.45,2.48.75.75,0,0,0,.47-1,.67.67,0,0,0-.73-.88,8.9,8.9,0,0,1-5.57-2c.21,0,0-.13.07-.27-.26.25-.15.1-.15,0-.6-.22-.88-.09-.93.27C252.32,172.78,252.24,173.5,252.61,173.7Z"/><path class="cls-8" d="M252.61,173.7c-.08,0,.22.29.44.21a10.11,10.11,0,0,0,6.45,2.48.75.75,0,0,0,.47-1,.67.67,0,0,0-.73-.88,8.9,8.9,0,0,1-5.57-2c.21,0,0-.13.07-.27-.26.25-.15.1-.15,0-.6-.22-.88-.09-.93.27C252.32,172.78,252.24,173.5,252.61,173.7Z"/><path class="cls-8" d="M276.52,127.27c-.3,3-34.88,2.23-34.8,2.3.5.13-.92.33-1.32,1.43.8-2.64.4,3.23,1,2.79-1,1.74-.19,1.33-.75,1.39,0-2.39,2.8-.06,2.8-2.23-.21,4.18,0,20.24,1.07,19.1-1.64,3.33-.69,2,.44,4.27-.44,0,8.34-2.24,7.78-2.67-.51,1.62.56,6.31,1.4,4.55-1,1.86-11.22,1.76-11.17.34-1.29.87-.89,1.82-1.33,4.38.13-3.42.44,1.76.42,1.23-.92-1,.4,1.43,1.1,3.38-.59-.86,1.24-1.95,1.41-3.16.88,7.79,2.58,10.65,5.63,11.32,0-.23.63,2.13-.27,2.79.93.53,3.36,8.74,4,9.17.49-.18-.2.22.74-1,.09-.23,9.85,1.17,10.66,2.11.5-.66-.11-1.21.14.54-.68-2.24,2.3-11.48,1.24-11.58,1.68-1.12,1.08,0,.11-1.15,5.23-2.27,7.12-6,6.83-9,.74-.9,2-2,3.07-.07-1-.23-.19-2.37.51-4.33-.9.61-.7-2.37-1.35-1.68.12-2.6.27-1.58-.28-.65-.61-2.22-10.75-.93-11.23,1.25-.59-1.56.48-8.06,1.48-6.93-2.06.22,8.47-1.13,7.46-2.54,2.37,2.6,1.85,1,.88,2.32,1.84-1.39,1-19.87,1.66-19.71-.49.58,1.09-.16,1.89.75a7.37,7.37,0,0,1,.94-2.83c-.28.25-.9-2.8-1-2.86C277.58,129.79,277.36,129.5,276.52,127.27Zm-12.81,58.54c-.11.37-9,.27-9,.28.33,0-1.88-7.08-2-7,2.22.67,4.26,1.47,6.76,1.42a10.45,10.45,0,0,0,5.87-1.49C265.35,178.72,263.84,186.08,263.71,185.81ZM259,178.26c-7.24.69-12.51-5.33-12.89-12.67.69,0,26.38,0,26.09.12A12.59,12.59,0,0,1,259,178.26Zm15.49-14.55a4.25,4.25,0,0,1-1.07.08c.8,0-28.23,0-28.57,0,.68-.09-1.12,0-.64,0-.82,0-.48-2-1.34-2,0-.09,11.24,0,11.24-.08-.17.15,9.86.08,10.76,0-1.38.09,9.94,0,10.51.11-.38,0-.57,2-1,2S274.81,163.79,274.49,163.71Zm-11.45-4C263,160,255,160,255,160a37.72,37.72,0,0,0-.11-5.83c.18-.26,8.27-.06,8.39-.1C263,154.16,263.13,160,263,159.73Zm10.11-8.08c-.23.88-9.18.65-9.12.67.73,0-9.92,0-10.22.15.61-.77-8.71-.17-8.27-.3-.75.36-.44-16.9-1.23-16.88,0-.69,29.13,0,29.13-.65C273.28,135.86,273.44,152.3,273.15,151.65Zm2.56-18.39c-.27.1-33.23.07-33.15.08.87,0-.08-2.05-.44-2,.73-.09,33.94,0,34.45,0C275.69,131.32,276.06,133.33,275.71,133.26Z"/><path class="cls-8" d="M276.52,127.27c-.3,3-34.88,2.23-34.8,2.3.5.13-.92.33-1.32,1.43.8-2.64.4,3.23,1,2.79-1,1.74-.19,1.33-.75,1.39,0-2.39,2.8-.06,2.8-2.23-.21,4.18,0,20.24,1.07,19.1-1.64,3.33-.69,2,.44,4.27-.44,0,8.34-2.24,7.78-2.67-.51,1.62.56,6.31,1.4,4.55-1,1.86-11.22,1.76-11.17.34-1.29.87-.89,1.82-1.33,4.38.13-3.42.44,1.76.42,1.23-.92-1,.4,1.43,1.1,3.38-.59-.86,1.24-1.95,1.41-3.16.88,7.79,2.58,10.65,5.63,11.32,0-.23.63,2.13-.27,2.79.93.53,3.36,8.74,4,9.17.49-.18-.2.22.74-1,.09-.23,9.85,1.17,10.66,2.11.5-.66-.11-1.21.14.54-.68-2.24,2.3-11.48,1.24-11.58,1.68-1.12,1.08,0,.11-1.15,5.23-2.27,7.12-6,6.83-9,.74-.9,2-2,3.07-.07-1-.23-.19-2.37.51-4.33-.9.61-.7-2.37-1.35-1.68.12-2.6.27-1.58-.28-.65-.61-2.22-10.75-.93-11.23,1.25-.59-1.56.48-8.06,1.48-6.93-2.06.22,8.47-1.13,7.46-2.54,2.37,2.6,1.85,1,.88,2.32,1.84-1.39,1-19.87,1.66-19.71-.49.58,1.09-.16,1.89.75a7.37,7.37,0,0,1,.94-2.83c-.28.25-.9-2.8-1-2.86C277.58,129.79,277.36,129.5,276.52,127.27Zm-12.81,58.54c-.11.37-9,.27-9,.28.33,0-1.88-7.08-2-7,2.22.67,4.26,1.47,6.76,1.42a10.45,10.45,0,0,0,5.87-1.49C265.35,178.72,263.84,186.08,263.71,185.81ZM259,178.26c-7.24.69-12.51-5.33-12.89-12.67.69,0,26.38,0,26.09.12A12.59,12.59,0,0,1,259,178.26Zm15.49-14.55a4.25,4.25,0,0,1-1.07.08c.8,0-28.23,0-28.57,0,.68-.09-1.12,0-.64,0-.82,0-.48-2-1.34-2,0-.09,11.24,0,11.24-.08-.17.15,9.86.08,10.76,0-1.38.09,9.94,0,10.51.11-.38,0-.57,2-1,2S274.81,163.79,274.49,163.71Zm-11.45-4C263,160,255,160,255,160a37.72,37.72,0,0,0-.11-5.83c.18-.26,8.27-.06,8.39-.1C263,154.16,263.13,160,263,159.73Zm10.11-8.08c-.23.88-9.18.65-9.12.67.73,0-9.92,0-10.22.15.61-.77-8.71-.17-8.27-.3-.75.36-.44-16.9-1.23-16.88,0-.69,29.13,0,29.13-.65C273.28,135.86,273.44,152.3,273.15,151.65Zm2.56-18.39c-.27.1-33.23.07-33.15.08.87,0-.08-2.05-.44-2,.73-.09,33.94,0,34.45,0C275.69,131.32,276.06,133.33,275.71,133.26Z"/></g><g id="toilet-6" data-name="toilet"><path d="M264.69,139.06c-.32-.06,4.36,0,4.22,0a.9.9,0,0,0,1-.92c.15-.42-.39-.88-1-.89.28,0-4.37,0-4.41,0a1.56,1.56,0,0,0-1,1A1.11,1.11,0,0,0,264.69,139.06Z"/><path d="M248.24,168.73a4.89,4.89,0,0,0,.27.79.89.89,0,0,0,.84.4c.09.13.22,0,.41,0a.92.92,0,0,0,.22-1.22,3.1,3.1,0,0,1-.18-.61.76.76,0,0,0-1.12-.51A.77.77,0,0,0,248.24,168.73Z"/><path d="M251.55,173.37c-.25-.19.16,0,.29,0a8.93,8.93,0,0,0,6.52,2.32c.32,0,.63-.4.59-.81.15-.46-.34-1-.84-1a8.11,8.11,0,0,1-5.51-2c.25.08-.08-.06,0,.1-.13-.25-.09-.2-.12-.12-.2-.48-.85-.29-1,.13C250.83,172.28,251.12,172.9,251.55,173.37Z"/><path d="M274.72,131.19c1.33-2.88-34.2-2.28-33.93-4.48-1.54,2.83-1.11,2.6-1.08,4.15-.71.45,0,2.77.6,1.47.37,2.26-.25,2.19.7.11-.5,2.51,1.29,2.08,2.05,2.52-.93-.28-.76,17.63-.44,16.12.4-.1.06,2.41,1.39,4.73-1.2-2.75,8.14-2.32,8.87-3.26-1-1.34-.73,6.81-1.66,8.46,1.85.22-9.45-1.65-9-2.57-1.32-1.16-1.28,1.32-2.19,1.24.7,1.87.91,4.41.36,4.47-.24,2.51.93.83.43,2.81.6-2.48,2.44-2,1.63-1.41,1.23,3.17,3.55,8.87,8,11.41.19-.6-.75.27-1.62,1.3,1.11.78,3.34,8.36,3.54,6.83.9.15.23,2.19,1.31,1.83-1.49-1.16,9.7.36,10.47-1.2.66.09-.06,1.29-.89-.29,1.8,1.63,3.38-8.16,4.2-8.89.18,2-.8.64-1.07,2.51,4.19-2.81,6.42-9,6.52-14.79-.52-1,1.65.72,2.4,2.8.45-3,.09-2.48,1-2.13-.32.34-.92-4.67-.74-5.52.68,1.91-.56,0-.15,1.91-1.53-.91-11.72-2-12-3.2-.11,2.4.27-4.63,1.23-6.7-.81,1,8.52,2.07,9.05-.09.35.21.31,1.76,1.23,3.56.15-2.84-.92-20.37-1.18-21.51.71.55,2,1.14,2.39-.72.08,2,.49,1.46-.54,2.12,1.75-1.37,1-5,2-2.71C276,129.64,276.24,128.91,274.72,131.19Zm-12.37,54.58c.46-.35-8.77-.28-8.67-.55-.38.35-2-6.81-1.94-6.68a11.6,11.6,0,0,0,6.63,1.26,10,10,0,0,0,6.37-1.64C264.57,178.46,262.72,185.49,262.35,185.77Zm-5-7.08c-6.07-.65-12-6.36-12.27-14.21-.77.64,26.25.5,26.26.74C270.44,172.67,265.17,178.17,257.39,178.69Zm15.41-15.42c1.12-.1-.57-.08-.35-.15-.9.1-28.38.07-28.36.11-.6,0-1.48,0-1-.08.31.06-.53-2-.12-2.07-.42.08,10,.07,10.61.08-.78,0,9.22,0,9.48-.06s10.58.05,11.31.13c-1-.1-.73,2-.12,1.93A6,6,0,0,0,272.8,163.27Zm-11-3.68c.29-.29-7.94-.23-7.88-.45-.24.29-.06-5.65,0-5.55-.16,0,8.16-.1,8.3-.23A42.5,42.5,0,0,1,261.77,159.59Zm9.74-7.22c1-.84-8.67-.67-8.46-1.31-.83.82-10.06.64-10,.95-.54.13-9-.31-8.55-.69.28.51-.48-16.64-.11-17.25-.38.73,28,.61,28.55.74C272.19,134.72,272.32,151.7,271.51,152.37ZM274,132.82c1.21-.1-32.61-.08-32.37-.16-1,.1-.24-2-.21-1.93-.65,0,33.55,0,34.12-.08C275.84,130.71,274.94,132.74,274,132.82Z"/></g></g></g><g id="stall_walls" data-name="stall walls"><path class="cls-10" d="M14.85,208.67c8-1.89,27,5.48,25.58-12.51s-.7-102.08-.7-102.08A9,9,0,0,1,48.66,85l64.67-.45a9,9,0,0,1,9.06,8.94s-1.85,72.85-2.63,100.43c-.41,14.67,1.73,11.33,8.4,11.78"/><path class="cls-10" d="M222.92,206.15c-8-1.78-6.52-3.21-6.66-10.7-.33-18-.7-102.08-.7-102.08a9,9,0,0,0-9.07-8.94l-64.66.44a9,9,0,0,0-8.94,9.07s-1,71.76.19,99.33c.62,14.66,2.25,12.4-4.41,12.95"/><path class="cls-10" d="M224.17,206.89c5.58-1.39,5.37-6,5.3-11.34-.22-17.8-.71-102.49-.71-102.49A9.2,9.2,0,0,1,238,84l67.09-.46a9.19,9.19,0,0,1,9.4,9s-1.93,73.15-2.75,100.84c-.43,14.73,1.14,13.22,19.64,12.34"/></g><g id="total_door" data-name="total door"><g id="door_and_handle" data-name="door and handle"><g class="cls-11"><g class="cls-12"><path class="cls-13" d="M19.63,151.19a.41.41,0,0,0-.33.4.32.32,0,0,0,.13.27l.07,0v.66c0,.07.05.14.12.13a.18.18,0,0,0,.13-.16v-.66l.08-.07a.44.44,0,0,0,.13-.31.29.29,0,0,0-.33-.31m0-4.09a.74.74,0,0,0-.6.74.54.54,0,0,0,.59.58.64.64,0,0,0,.44-.26l.06-.07,3.59-.46a.47.47,0,0,0,.37-.44.32.32,0,0,0-.35-.35h0l-3.6.46,0-.05a.5.5,0,0,0-.44-.15m0-.76h0a1.61,1.61,0,0,0-1.31,1.58,1.16,1.16,0,0,0,1.27,1.26h0a1.47,1.47,0,0,0,1.09-.79l-.45.07a1.06,1.06,0,0,1-.64.34.84.84,0,0,1-.93-.91,1.18,1.18,0,0,1,1-1.16.85.85,0,0,1,.63.19l.46-.06a1.08,1.08,0,0,0-1.07-.51m-.08,6.73a.41.41,0,0,1-.45-.46v-.48a.67.67,0,0,1-.2-.5.85.85,0,0,1,.68-.82.6.6,0,0,1,.66.65.87.87,0,0,1-.2.55v.48a.58.58,0,0,1-.47.58h0m.09-8.4h0A2.4,2.4,0,0,0,17.73,147l0,5.58a1.73,1.73,0,0,0,1.91,1.86h0a2.38,2.38,0,0,0,1.95-2.36l0-3.84-.46.07a1.93,1.93,0,0,1-1.48,1.21h0A1.46,1.46,0,0,1,18,148a2,2,0,0,1,1.66-2h0a1.39,1.39,0,0,1,1.44.84l.46-.06v-.2a1.73,1.73,0,0,0-1.9-1.87m-3.28-43.93a4.28,4.28,0,0,0-1.75,3.57L14,191.92c0,2,1.13,3.4,2.58,3.23h0l.68-.09a2.34,2.34,0,0,1-1.6-.92,4.29,4.29,0,0,1-.86-2.76l.66-87.61a5.38,5.38,0,0,1,.93-3m3.17,54.11a2,2,0,0,1-2.24-2.2l0-5.57a2.84,2.84,0,0,1,2.3-2.79h0a2,2,0,0,1,2.24,2.2v.21l1.81-.23a.63.63,0,0,1,.7.67.88.88,0,0,1-.71.86l-1.81.23,0,3.84a2.83,2.83,0,0,1-2.29,2.78h0M34.75,98.22,18.5,100.31c-1.25.16-2.27,1.67-2.29,3.36l-.65,87.62a3.25,3.25,0,0,0,.64,2.08,1.74,1.74,0,0,0,1.59.69l17-2.17a2.13,2.13,0,0,0,.72-.25,4.74,4.74,0,0,0,.75-2.57l.66-87.62c0-1.75-.91-3.09-2.13-3.23"/><path d="M34.75,98.22l.71-.09h0c1.24-.15,2.24,1.1,2.22,2.78L37,188.53a4.11,4.11,0,0,1-.68,2.25,2.78,2.78,0,0,1-.89.86,2.13,2.13,0,0,1-.72.25l-17,2.17a1.74,1.74,0,0,1-1.59-.69,3.25,3.25,0,0,1-.64-2.08l.65-87.62c0-1.69,1-3.2,2.29-3.36l16.25-2.09m.73-1.08h0l-17,2.17a3.15,3.15,0,0,0-2.08,1.42,5.38,5.38,0,0,0-.93,3l-.66,87.61a4.29,4.29,0,0,0,.86,2.76,2.34,2.34,0,0,0,1.6.92,2.57,2.57,0,0,0,.48,0h0l17-2.17a3.16,3.16,0,0,0,2.12-1.47,5.4,5.4,0,0,0,.9-3l.65-87.61c0-2.23-1.3-3.87-2.94-3.68"/><path d="M19.62,152.7c-.07,0-.12-.06-.12-.13v-.66l-.07,0a.32.32,0,0,1-.13-.27.41.41,0,0,1,.33-.4.29.29,0,0,1,.33.31.44.44,0,0,1-.13.31l-.08.07v.66a.18.18,0,0,1-.13.16m0-1.89a.85.85,0,0,0-.68.82.67.67,0,0,0,.2.5v.48a.41.41,0,0,0,.45.46h0a.58.58,0,0,0,.47-.58V152a.87.87,0,0,0,.2-.55.6.6,0,0,0-.66-.65"/><path d="M19.65,148.42a.54.54,0,0,1-.59-.58.74.74,0,0,1,.6-.74.5.5,0,0,1,.44.15l0,.05,3.6-.46h0a.32.32,0,0,1,.35.35.47.47,0,0,1-.37.44l-3.59.46-.06.07a.64.64,0,0,1-.44.26m0,.76a1.16,1.16,0,0,1-1.27-1.26,1.61,1.61,0,0,1,1.31-1.58h0a1.08,1.08,0,0,1,1.07.51l-.46.06a.85.85,0,0,0-.63-.19,1.18,1.18,0,0,0-1,1.16.84.84,0,0,0,.93.91,1.06,1.06,0,0,0,.64-.34l.45-.07a1.47,1.47,0,0,1-1.09.79h0m0,5.29a1.73,1.73,0,0,1-1.91-1.86l0-5.58a2.4,2.4,0,0,1,1.95-2.36h0a1.73,1.73,0,0,1,1.9,1.87v.2l-.46.06A1.39,1.39,0,0,0,19.7,146h0A2,2,0,0,0,18,148a1.46,1.46,0,0,0,1.61,1.58h0a1.93,1.93,0,0,0,1.48-1.21l.46-.07,0,3.84a2.38,2.38,0,0,1-1.95,2.36h0m.1-10.18h0a2.84,2.84,0,0,0-2.3,2.79l0,5.57a2,2,0,0,0,2.24,2.2h0a2.83,2.83,0,0,0,2.29-2.78l0-3.84,1.81-.23a.88.88,0,0,0,.71-.86.63.63,0,0,0-.7-.67l-1.81.23v-.21a2,2,0,0,0-2.24-2.2"/></g></g></g><g id="hinge"><path d="M39.45,116.73l-1.55.48v-4l1.45-.45a.11.11,0,0,1,.15.11.23.23,0,0,1-.15.2l-1.14.35v3.42l.93-.28v-1.14a.22.22,0,0,1,.16-.2.11.11,0,0,1,.15.1Z"/><path d="M39.45,121.19l-1.35.41a.11.11,0,0,1-.15-.1.24.24,0,0,1,.15-.21l1-.31v-3.32l-.93.28v1a.24.24,0,0,1-.16.2.11.11,0,0,1-.15-.1v-1.35l1.55-.48Z"/><path d="M39.24,117.52l-1,.32v-1l1-.31Zm-.83,0,.63-.19v-.62l-.63.19Z"/><path d="M37.74,121.71l-2.64.81a.48.48,0,0,1-.68-.47v-6.68a1,1,0,0,1,.68-.88l2-.6a.47.47,0,0,1,.67.46ZM35.1,114.8a.55.55,0,0,0-.37.47V122a.26.26,0,0,0,.37.25l2.33-.71v-7a.26.26,0,0,0-.36-.25Z"/><path d="M36.15,118.62a.34.34,0,0,1-.48-.33.72.72,0,0,1,.48-.64.35.35,0,0,1,.49.34A.72.72,0,0,1,36.15,118.62Zm0-.86a.58.58,0,0,0-.38.5.27.27,0,0,0,.38.27.56.56,0,0,0,.39-.5A.28.28,0,0,0,36.15,117.76Z"/><path d="M36.15,116.14a.35.35,0,0,1-.48-.34.72.72,0,0,1,.48-.64.35.35,0,0,1,.49.34A.73.73,0,0,1,36.15,116.14Zm0-.86a.56.56,0,0,0-.38.5.27.27,0,0,0,.38.26.56.56,0,0,0,.39-.5A.27.27,0,0,0,36.15,115.28Z"/><path d="M36.15,121.11a.35.35,0,0,1-.48-.34.71.71,0,0,1,.48-.63.35.35,0,0,1,.49.33A.73.73,0,0,1,36.15,121.11Zm0-.86a.56.56,0,0,0-.38.5.28.28,0,0,0,.38.27.58.58,0,0,0,.39-.5A.28.28,0,0,0,36.15,120.25Z"/><path d="M40,116.28l-.85-.82a.17.17,0,0,1,0-.23c.08-.07.17-.09.22,0l.29.28v-2.56l-.36.11a.11.11,0,0,1-.16-.1.24.24,0,0,1,.16-.21l.67-.2Z"/><path d="M38.1,121.6l-.67.21V118l.76.93c.05.06,0,.16,0,.23s-.17.08-.22,0l-.18-.23v2.48l.36-.11a.11.11,0,0,1,.16.11A.23.23,0,0,1,38.1,121.6Z"/></g><g id="hinge-2" data-name="hinge"><path d="M39.58,168.61l-1.56.47v-4l1.45-.44a.11.11,0,0,1,.16.11.23.23,0,0,1-.16.2l-1.14.35v3.42l.94-.29v-1.14a.24.24,0,0,1,.15-.2.12.12,0,0,1,.16.11Z"/><path d="M39.58,173.07l-1.35.41a.12.12,0,0,1-.16-.11.24.24,0,0,1,.16-.2l1-.32v-3.32l-.94.29v1a.24.24,0,0,1-.15.2A.12.12,0,0,1,38,171V169.6l1.56-.47Z"/><path d="M39.37,169.4l-1,.32v-1l1-.32Zm-.83,0,.62-.19v-.62l-.62.19Z"/><path d="M37.87,173.59l-2.65.81a.48.48,0,0,1-.67-.47v-6.69a1,1,0,0,1,.67-.88l2-.6a.49.49,0,0,1,.68.47Zm-2.65-6.91a.54.54,0,0,0-.36.47v6.68a.26.26,0,0,0,.36.26l2.33-.72v-7.05a.26.26,0,0,0-.36-.25Z"/><path d="M36.28,170.5a.35.35,0,0,1-.49-.34.73.73,0,0,1,.49-.64.35.35,0,0,1,.49.34A.73.73,0,0,1,36.28,170.5Zm0-.86a.55.55,0,0,0-.38.5.27.27,0,0,0,.38.26.55.55,0,0,0,.38-.5A.27.27,0,0,0,36.28,169.64Z"/><path d="M36.28,168a.35.35,0,0,1-.49-.34.71.71,0,0,1,.49-.63.34.34,0,0,1,.49.33A.73.73,0,0,1,36.28,168Zm0-.86a.55.55,0,0,0-.38.5.27.27,0,0,0,.38.27.57.57,0,0,0,.38-.5A.27.27,0,0,0,36.28,167.15Z"/><path d="M36.28,173a.35.35,0,0,1-.49-.34.72.72,0,0,1,.49-.64.35.35,0,0,1,.49.34A.73.73,0,0,1,36.28,173Zm0-.86a.55.55,0,0,0-.38.5.27.27,0,0,0,.38.26.55.55,0,0,0,.38-.5A.27.27,0,0,0,36.28,172.13Z"/><path d="M40.15,168.16l-.85-.82a.16.16,0,0,1,0-.23.16.16,0,0,1,.22,0l.29.29V164.8l-.37.11a.11.11,0,0,1-.15-.11.23.23,0,0,1,.15-.2l.68-.21Z"/><path d="M38.23,173.48l-.68.2v-3.84l.76.93c0,.06,0,.16,0,.23a.16.16,0,0,1-.22,0l-.17-.22v2.48l.36-.12a.11.11,0,0,1,.15.11A.25.25,0,0,1,38.23,173.48Z"/></g></g><g id="total_door-2" data-name="total door"><g id="door_and_handle-2" data-name="door and handle"><g class="cls-11"><g class="cls-14"><path class="cls-13" d="M112.94,151.18a.4.4,0,0,0-.33.4.32.32,0,0,0,.13.27l.07.05v.66a.13.13,0,0,0,.13.13.18.18,0,0,0,.13-.16v-.67l.07-.06a.45.45,0,0,0,.14-.31.29.29,0,0,0-.33-.31m0-4.09a.73.73,0,0,0-.6.74.53.53,0,0,0,.59.58.66.66,0,0,0,.44-.26l0-.07,3.59-.46a.45.45,0,0,0,.37-.44.32.32,0,0,0-.34-.35h0l-3.59.46,0,0a.51.51,0,0,0-.44-.15m0-.76h0a1.62,1.62,0,0,0-1.32,1.58,1.18,1.18,0,0,0,1.28,1.26h0a1.47,1.47,0,0,0,1.09-.79l-.46.07a1.07,1.07,0,0,1-.63.34.85.85,0,0,1-.94-.91,1.18,1.18,0,0,1,1-1.16.82.82,0,0,1,.63.19l.46-.06a1.05,1.05,0,0,0-1.06-.51m-.09,6.73a.42.42,0,0,1-.45-.46v-.48a.66.66,0,0,1-.19-.5.84.84,0,0,1,.67-.82.61.61,0,0,1,.67.65.88.88,0,0,1-.21.55v.48a.59.59,0,0,1-.48.58h0m.1-8.4h0a2.4,2.4,0,0,0-2,2.36l0,5.58a1.75,1.75,0,0,0,1.91,1.87h0a2.39,2.39,0,0,0,2-2.36l0-3.84-.46.07a2,2,0,0,1-1.49,1.21h0a1.47,1.47,0,0,1-1.62-1.58,2,2,0,0,1,1.66-2h0a1.39,1.39,0,0,1,1.45.83l.46-.06v-.2a1.73,1.73,0,0,0-1.9-1.87m-3.26-44a4.16,4.16,0,0,0-1.93,3.68L107.16,192c0,2,1.14,3.4,2.58,3.23h0l1.12-.14a2.32,2.32,0,0,1-1.88-.93,4.35,4.35,0,0,1-.85-2.76l.65-87.61a5.43,5.43,0,0,1,1-3.07m3.15,54.15a2,2,0,0,1-2.25-2.2l0-5.57a2.84,2.84,0,0,1,2.3-2.79h0a2,2,0,0,1,2.24,2.2v.21l1.81-.23a.64.64,0,0,1,.7.67.88.88,0,0,1-.71.86l-1.81.23,0,3.84a2.83,2.83,0,0,1-2.3,2.78h0m14.73-56.57-15.83,2c-1.25.16-2.27,1.67-2.28,3.36l-.66,87.62a3.31,3.31,0,0,0,.65,2.08,1.76,1.76,0,0,0,1.59.69l17-2.17a2,2,0,0,0,.53-.16,4.72,4.72,0,0,0,.77-2.6l.66-87.61c0-1.87-1-3.27-2.39-3.24"/><path d="M127.63,98.27l1.14-.15h0C130,98,131,99.22,131,100.9l-.66,87.62a4,4,0,0,1-.68,2.25,2.59,2.59,0,0,1-1.07.95,2,2,0,0,1-.53.16l-17,2.17a1.76,1.76,0,0,1-1.59-.69,3.31,3.31,0,0,1-.65-2.08l.66-87.62c0-1.69,1-3.2,2.28-3.36l15.83-2m1.16-1.14h0l-17,2.17a3.14,3.14,0,0,0-2.06,1.38,5.43,5.43,0,0,0-1,3.07l-.65,87.61a4.35,4.35,0,0,0,.85,2.76,2.32,2.32,0,0,0,1.88.93h.22l17-2.17a3.14,3.14,0,0,0,2.11-1.47,5.32,5.32,0,0,0,.9-3l.66-87.61c0-2.23-1.3-3.87-2.94-3.68"/><path d="M112.93,152.69a.13.13,0,0,1-.13-.13v-.66l-.07-.05a.32.32,0,0,1-.13-.27.4.4,0,0,1,.33-.4.29.29,0,0,1,.33.31.45.45,0,0,1-.14.31l-.07.06v.67a.18.18,0,0,1-.13.16m0-1.89a.84.84,0,0,0-.67.82.66.66,0,0,0,.19.5v.48a.42.42,0,0,0,.45.46h0a.59.59,0,0,0,.48-.58V152a.88.88,0,0,0,.21-.55.61.61,0,0,0-.67-.65"/><path d="M113,148.41a.53.53,0,0,1-.59-.58.73.73,0,0,1,.6-.74.51.51,0,0,1,.44.15l0,0,3.59-.46h0a.32.32,0,0,1,.34.35.45.45,0,0,1-.37.44l-3.59.46,0,.07a.66.66,0,0,1-.44.26m0,.76a1.18,1.18,0,0,1-1.28-1.26,1.62,1.62,0,0,1,1.32-1.58h0a1.05,1.05,0,0,1,1.06.51l-.46.06a.82.82,0,0,0-.63-.19,1.18,1.18,0,0,0-1,1.16.85.85,0,0,0,.94.91,1.07,1.07,0,0,0,.63-.34l.46-.07a1.47,1.47,0,0,1-1.09.79h0m0,5.3A1.75,1.75,0,0,1,111,152.6l0-5.58a2.4,2.4,0,0,1,2-2.36h0a1.73,1.73,0,0,1,1.9,1.87v.2l-.46.06A1.39,1.39,0,0,0,113,146h0a2,2,0,0,0-1.66,2,1.47,1.47,0,0,0,1.62,1.58h0a2,2,0,0,0,1.49-1.21l.46-.07,0,3.84a2.39,2.39,0,0,1-2,2.36h0m.11-10.19h0a2.84,2.84,0,0,0-2.3,2.79l0,5.57a2,2,0,0,0,2.25,2.2h0a2.83,2.83,0,0,0,2.3-2.78l0-3.84,1.81-.23a.88.88,0,0,0,.71-.86.64.64,0,0,0-.7-.67l-1.81.23v-.21a2,2,0,0,0-2.24-2.2"/></g></g></g><g id="hinge-3" data-name="hinge"><path d="M132.47,117.11l-1.55.47v-4l1.45-.44a.11.11,0,0,1,.15.1.24.24,0,0,1-.15.21l-1.14.35v3.42l.93-.29v-1.14a.22.22,0,0,1,.16-.2.11.11,0,0,1,.15.11Z"/><path d="M132.47,121.57l-1.35.41a.11.11,0,0,1-.15-.11.23.23,0,0,1,.15-.2l1-.32V118l-.93.29v1a.24.24,0,0,1-.16.21.11.11,0,0,1-.15-.11V118.1l1.55-.47Z"/><path d="M132.26,117.9l-1,.31v-1l1-.32Zm-.83,0,.63-.19v-.62l-.63.19Z"/><path d="M130.76,122.09l-2.64.81a.49.49,0,0,1-.68-.47v-6.69a1,1,0,0,1,.68-.88l2-.6a.48.48,0,0,1,.67.47Zm-2.64-6.92a.54.54,0,0,0-.36.48v6.68a.26.26,0,0,0,.36.26l2.33-.72v-7.05a.26.26,0,0,0-.36-.25Z"/><path d="M129.18,119a.35.35,0,0,1-.49-.34.72.72,0,0,1,.49-.64.35.35,0,0,1,.48.34A.74.74,0,0,1,129.18,119Zm0-.86a.56.56,0,0,0-.39.5.28.28,0,0,0,.39.26.56.56,0,0,0,.38-.5A.27.27,0,0,0,129.18,118.14Z"/><path d="M129.18,116.51a.35.35,0,0,1-.49-.34.73.73,0,0,1,.49-.64.35.35,0,0,1,.48.34A.74.74,0,0,1,129.18,116.51Zm0-.86a.56.56,0,0,0-.39.5.28.28,0,0,0,.39.27.59.59,0,0,0,.38-.51A.27.27,0,0,0,129.18,115.65Z"/><path d="M129.18,121.48a.34.34,0,0,1-.49-.33.72.72,0,0,1,.49-.64.35.35,0,0,1,.48.34A.71.71,0,0,1,129.18,121.48Zm0-.86a.58.58,0,0,0-.39.51.28.28,0,0,0,.39.26.56.56,0,0,0,.38-.5A.28.28,0,0,0,129.18,120.62Z"/><path d="M133,116.65l-.85-.81a.17.17,0,0,1,0-.23c.08-.08.17-.09.22,0l.29.29V113.3l-.36.11a.12.12,0,0,1-.16-.11.22.22,0,0,1,.16-.2l.67-.21Z"/><path d="M131.12,122l-.67.2v-3.84l.76.93s0,.16,0,.23a.16.16,0,0,1-.22,0l-.18-.22v2.47l.36-.11a.12.12,0,0,1,.16.11A.26.26,0,0,1,131.12,122Z"/></g><g id="hinge-4" data-name="hinge"><path d="M132.41,168.64l-1.55.48v-4l1.45-.45a.11.11,0,0,1,.15.11.23.23,0,0,1-.15.2l-1.14.35v3.42l.93-.28v-1.14a.25.25,0,0,1,.16-.21.11.11,0,0,1,.15.11Z"/><path d="M132.41,173.1l-1.35.41a.11.11,0,0,1-.15-.1.24.24,0,0,1,.15-.21l1-.31v-3.32l-.93.28v1a.24.24,0,0,1-.16.2.11.11,0,0,1-.15-.1v-1.35l1.55-.48Z"/><path d="M132.2,169.43l-1,.32v-1l1-.31Zm-.83,0,.63-.19v-.62l-.63.19Z"/><path d="M130.7,173.62l-2.64.81a.48.48,0,0,1-.68-.47v-6.68a1,1,0,0,1,.68-.88l2-.6a.47.47,0,0,1,.67.46Zm-2.64-6.91a.55.55,0,0,0-.37.47v6.69a.26.26,0,0,0,.37.25l2.33-.71v-7a.26.26,0,0,0-.36-.25Z"/><path d="M129.11,170.53a.34.34,0,0,1-.48-.34.71.71,0,0,1,.48-.63.35.35,0,0,1,.49.34A.72.72,0,0,1,129.11,170.53Zm0-.86a.58.58,0,0,0-.38.5.27.27,0,0,0,.38.27.56.56,0,0,0,.39-.5A.28.28,0,0,0,129.11,169.67Z"/><path d="M129.11,168.05a.34.34,0,0,1-.48-.34.71.71,0,0,1,.48-.64.35.35,0,0,1,.49.34A.73.73,0,0,1,129.11,168.05Zm0-.87a.59.59,0,0,0-.38.51.27.27,0,0,0,.38.26.56.56,0,0,0,.39-.5A.28.28,0,0,0,129.11,167.18Z"/><path d="M129.11,173a.34.34,0,0,1-.48-.34.7.7,0,0,1,.48-.63.35.35,0,0,1,.49.33A.73.73,0,0,1,129.11,173Zm0-.86a.56.56,0,0,0-.38.5.28.28,0,0,0,.38.27.58.58,0,0,0,.39-.5A.28.28,0,0,0,129.11,172.16Z"/><path d="M133,168.19l-.85-.82a.17.17,0,0,1,0-.23c.07-.07.17-.09.22,0l.29.28v-2.56l-.36.11a.11.11,0,0,1-.16-.1.24.24,0,0,1,.16-.21l.67-.2Z"/><path d="M131.06,173.51l-.67.21v-3.85l.76.93c0,.06,0,.16-.05.23a.14.14,0,0,1-.21,0l-.18-.23v2.48l.36-.11a.11.11,0,0,1,.16.11A.23.23,0,0,1,131.06,173.51Z"/></g></g><g id="total_door-3" data-name="total door"><g id="door_and_handle-3" data-name="door and handle"><g class="cls-11"><g class="cls-15"><path class="cls-13" d="M209.57,153.26h0a.42.42,0,0,0-.33.41.33.33,0,0,0,.14.27l.07,0v.67a.11.11,0,0,0,.12.12.15.15,0,0,0,.13-.16v-.67l.07-.06a.44.44,0,0,0,.13-.31.28.28,0,0,0-.31-.31m0-4.08h0a.76.76,0,0,0-.6.75.54.54,0,0,0,.59.57h0a.69.69,0,0,0,.43-.27l.06-.07,3.59-.53a.44.44,0,0,0,.36-.44.33.33,0,0,0-.36-.35l-3.6.53-.05-.05a.48.48,0,0,0-.41-.14m0-.76h-.05a1.61,1.61,0,0,0-1.29,1.6,1.15,1.15,0,0,0,1.27,1.23h0a1.5,1.5,0,0,0,1.09-.8l-.47.06a1,1,0,0,1-.62.36h0a.84.84,0,0,1-.93-.89,1.19,1.19,0,0,1,.94-1.17.77.77,0,0,1,.63.17l.46-.07a1.07,1.07,0,0,0-1-.49m-.05,6.72a.42.42,0,0,1-.46-.44v-.49a.66.66,0,0,1-.2-.49.84.84,0,0,1,.67-.83h0a.59.59,0,0,1,.65.63.89.89,0,0,1-.2.56v.48a.59.59,0,0,1-.46.58h0m.05-8.39h-.05a2.42,2.42,0,0,0-1.93,2.4v5.57a1.72,1.72,0,0,0,1.89,1.83h.05a2.42,2.42,0,0,0,1.93-2.4v-3.83l-.46.07a2,2,0,0,1-1.48,1.24h-.05a1.46,1.46,0,0,1-1.6-1.55,2.06,2.06,0,0,1,1.64-2h.05a1.38,1.38,0,0,1,1.44.8l.45-.06v-.21a1.71,1.71,0,0,0-1.89-1.83m-.07,10.18a2,2,0,0,1-2.24-2.16V149.2a2.85,2.85,0,0,1,2.27-2.82h.06a2,2,0,0,1,2.22,2.16v.21l1.81-.26h0a.61.61,0,0,1,.69.66.88.88,0,0,1-.7.87l-1.8.26v3.83a2.87,2.87,0,0,1-2.27,2.82h0M224.94,100h0l-17,2.47a2.37,2.37,0,0,0-1.59,1.14,4.07,4.07,0,0,0-.66,2.26l.17,87.5a3.31,3.31,0,0,0,.66,2.07,2,2,0,0,0,.75.57l16-2.33c1.44-.22,2.61-2,2.61-3.94l-.17-87.5a3.89,3.89,0,0,0-.65-2.25h-.12m-1.79-1h-.06l-17,2.47c-1.44.21-2.61,2-2.61,3.95l.17,87.5c0,1.81,1,3.16,2.29,3.19a4.43,4.43,0,0,1-.84-2.7L205,106a5.48,5.48,0,0,1,.87-3,3.14,3.14,0,0,1,2.11-1.49l16-2.35a1.89,1.89,0,0,0-.82-.09"/><path d="M207.26,196a2,2,0,0,1-.75-.57,3.31,3.31,0,0,1-.66-2.07l-.17-87.5a4.07,4.07,0,0,1,.66-2.26,2.37,2.37,0,0,1,1.59-1.14l17-2.47h.16a1.69,1.69,0,0,1,1.43.67,3.23,3.23,0,0,1,.67,2.07l.17,87.5c0,1.69-1,3.22-2.25,3.39l-17,2.48-.09,0a1.52,1.52,0,0,1-.76-.11M225,99h0l-.93.14-16,2.35a3.14,3.14,0,0,0-2.11,1.49,5.48,5.48,0,0,0-.87,3l.17,87.5a4.43,4.43,0,0,0,.84,2.7l0,0a2.27,2.27,0,0,0,2.05.89h.06l17-2.48c1.64-.23,3-2.25,3-4.49l-.17-87.5A4.31,4.31,0,0,0,227,99.9,2.28,2.28,0,0,0,225,99"/><path d="M209.55,154.77a.11.11,0,0,1-.12-.12V154l-.07,0a.33.33,0,0,1-.14-.27.42.42,0,0,1,.33-.41h0a.28.28,0,0,1,.31.31.44.44,0,0,1-.13.31l-.07.06v.67a.15.15,0,0,1-.13.16m0-1.88h0a.84.84,0,0,0-.67.83.66.66,0,0,0,.2.49v.49a.42.42,0,0,0,.46.44h0a.59.59,0,0,0,.46-.58v-.48a.89.89,0,0,0,.2-.56.59.59,0,0,0-.65-.63"/><path d="M209.53,150.5a.54.54,0,0,1-.59-.57.76.76,0,0,1,.6-.75h0a.48.48,0,0,1,.41.14l.05.05,3.6-.53a.33.33,0,0,1,.36.35.44.44,0,0,1-.36.44l-3.59.53-.06.07a.69.69,0,0,1-.43.27h0m0,.76a1.15,1.15,0,0,1-1.27-1.23,1.61,1.61,0,0,1,1.29-1.6h.05a1.07,1.07,0,0,1,1,.49l-.46.07a.77.77,0,0,0-.63-.17,1.19,1.19,0,0,0-.94,1.17.84.84,0,0,0,.93.89h0a1,1,0,0,0,.62-.36l.47-.06a1.5,1.5,0,0,1-1.09.8h0m0,5.29a1.72,1.72,0,0,1-1.89-1.83v-5.57a2.42,2.42,0,0,1,1.93-2.4h.05a1.71,1.71,0,0,1,1.89,1.83v.21l-.45.06a1.38,1.38,0,0,0-1.44-.8h-.05a2.06,2.06,0,0,0-1.64,2,1.46,1.46,0,0,0,1.6,1.55h.05a2,2,0,0,0,1.48-1.24l.46-.07v3.83a2.42,2.42,0,0,1-1.93,2.4h-.05m.09-10.18h-.06a2.85,2.85,0,0,0-2.27,2.82v5.57a2,2,0,0,0,2.24,2.16h0a2.87,2.87,0,0,0,2.27-2.82v-3.83l1.8-.26a.88.88,0,0,0,.7-.87.61.61,0,0,0-.69-.66h0l-1.81.26v-.21a2,2,0,0,0-2.22-2.16"/></g></g></g><g id="hinge-5" data-name="hinge"><path d="M228.61,118.4l-1.55.5-.05-4.05,1.44-.46a.12.12,0,0,1,.16.11.23.23,0,0,1-.15.2l-1.14.37.05,3.42.93-.3,0-1.14a.25.25,0,0,1,.15-.21.12.12,0,0,1,.16.11Z"/><path d="M228.67,122.86l-1.35.43a.11.11,0,0,1-.15-.11.23.23,0,0,1,.15-.2l1-.33,0-3.32-.93.3v1a.23.23,0,0,1-.15.21.12.12,0,0,1-.16-.11v-1.34l1.55-.5Z"/><path d="M228.41,119.19l-1,.33v-1l1-.33Zm-.83.06.62-.2v-.62l-.61.2Z"/><path d="M227,123.4l-2.63.85a.48.48,0,0,1-.68-.46l-.09-6.69a1,1,0,0,1,.67-.89l2-.62a.48.48,0,0,1,.68.45Zm-2.73-6.88a.55.55,0,0,0-.36.48l.09,6.69a.26.26,0,0,0,.37.24l2.32-.74-.09-7a.26.26,0,0,0-.37-.24Z"/><path d="M225.34,120.33a.34.34,0,0,1-.49-.33.7.7,0,0,1,.47-.64.35.35,0,0,1,.5.33A.72.72,0,0,1,225.34,120.33Zm0-.86a.57.57,0,0,0-.38.51.27.27,0,0,0,.39.26.56.56,0,0,0,.37-.51A.28.28,0,0,0,225.33,119.47Z"/><path d="M225.31,117.84a.35.35,0,0,1-.5-.33.72.72,0,0,1,.48-.64.34.34,0,0,1,.49.33A.71.71,0,0,1,225.31,117.84Zm0-.86a.56.56,0,0,0-.37.51.26.26,0,0,0,.38.26.56.56,0,0,0,.38-.5A.28.28,0,0,0,225.29,117Z"/><path d="M225.37,122.82a.34.34,0,0,1-.49-.33.69.69,0,0,1,.48-.64.35.35,0,0,1,.49.33A.72.72,0,0,1,225.37,122.82Zm0-.86a.57.57,0,0,0-.38.51.28.28,0,0,0,.39.26.56.56,0,0,0,.37-.51A.27.27,0,0,0,225.36,122Z"/><path d="M229.17,117.94l-.86-.81a.16.16,0,0,1,0-.22c.07-.08.17-.1.22,0l.29.28,0-2.56-.36.11a.11.11,0,0,1-.16-.1.24.24,0,0,1,.15-.21l.68-.21Z"/><path d="M227.32,123.29l-.67.21-.05-3.84.77.92s0,.16,0,.23a.16.16,0,0,1-.21,0l-.18-.23,0,2.48.36-.12a.12.12,0,0,1,.16.11A.26.26,0,0,1,227.32,123.29Z"/></g><g id="hinge-6" data-name="hinge"><path d="M229.33,170.2l-1.55.49-.05-4,1.45-.46a.11.11,0,0,1,.15.1.24.24,0,0,1-.15.21l-1.13.36,0,3.42.93-.3,0-1.14a.23.23,0,0,1,.16-.2.11.11,0,0,1,.15.11Z"/><path d="M229.39,174.65l-1.34.43a.11.11,0,0,1-.16-.1.24.24,0,0,1,.15-.21l1-.33-.05-3.32-.93.3,0,1a.22.22,0,0,1-.16.2.11.11,0,0,1-.15-.1l0-1.35,1.55-.5Z"/><path d="M229.13,171l-1,.33v-1l1-.33Zm-.82,0,.62-.19v-.63l-.62.2Z"/><path d="M227.69,175.2l-2.64.84a.48.48,0,0,1-.68-.46l-.08-6.68A1,1,0,0,1,225,168l2-.63a.48.48,0,0,1,.68.46ZM225,168.32a.53.53,0,0,0-.35.48l.08,6.68a.27.27,0,0,0,.37.25l2.32-.74-.09-7.05a.26.26,0,0,0-.36-.25Z"/><path d="M226.06,172.13a.35.35,0,0,1-.49-.33.73.73,0,0,1,.48-.65.35.35,0,0,1,.49.33A.75.75,0,0,1,226.06,172.13Zm0-.86a.55.55,0,0,0-.38.5.27.27,0,0,0,.39.26.55.55,0,0,0,.38-.5A.28.28,0,0,0,226.05,171.27Z"/><path d="M226,169.64a.34.34,0,0,1-.49-.33.69.69,0,0,1,.48-.64.35.35,0,0,1,.49.33A.72.72,0,0,1,226,169.64Zm0-.86a.57.57,0,0,0-.38.5.27.27,0,0,0,.39.27.56.56,0,0,0,.37-.51A.27.27,0,0,0,226,168.78Z"/><path d="M226.09,174.61a.34.34,0,0,1-.49-.33.72.72,0,0,1,.48-.64.34.34,0,0,1,.49.33A.72.72,0,0,1,226.09,174.61Zm0-.86a.57.57,0,0,0-.38.51.27.27,0,0,0,.39.26.56.56,0,0,0,.38-.5A.29.29,0,0,0,226.08,173.75Z"/><path d="M229.9,169.73l-.86-.8a.16.16,0,0,1,0-.23c.08-.07.17-.09.22,0l.29.28,0-2.56-.36.12a.13.13,0,0,1-.16-.11.22.22,0,0,1,.16-.2l.67-.22Z"/><path d="M228.05,175.08l-.67.22,0-3.85.76.92c.06.06,0,.16,0,.23s-.17.08-.22,0l-.18-.22,0,2.47.36-.11a.11.11,0,0,1,.16.1A.24.24,0,0,1,228.05,175.08Z"/></g></g></g></g></g></g></svg>