<svg xmlns="http://www.w3.org/2000/svg" xmlns:xlink="http://www.w3.org/1999/xlink" viewBox="0 0 344 236"><defs><style>.cls-1,.cls-3,.cls-6{stroke:#000;}.cls-1,.cls-3,.cls-8{stroke-miterlimit:10;}.cls-1{stroke-width:2px;fill:url(#radial-gradient);}.cls-2{opacity:0.19;}.cls-3,.cls-6,.cls-8{fill:none;}.cls-4{fill:#fff;}.cls-5{fill:red;}.cls-6{stroke-width:2.57px;}.cls-7{fill:#d1d667;}.cls-8{stroke:#fff;}</style><radialGradient id="radial-gradient" cx="172" cy="118" r="146.51" gradientUnits="userSpaceOnUse"><stop offset="0" stop-color="#4500e9"/><stop offset="0" stop-color="#6a22c7"/><stop offset="0" stop-color="#9f5297"/><stop offset="0" stop-color="#c87871"/><stop offset="0" stop-color="#e69356"/><stop offset="0" stop-color="#f8a445"/><stop offset="0" stop-color="#ffaa3f"/><stop offset="0.27" stop-color="#ffac42"/><stop offset="0.45" stop-color="#ffb34b"/><stop offset="0.6" stop-color="#ffbe5a"/><stop offset="0.74" stop-color="#ffce6f"/><stop offset="0.87" stop-color="#fee38a"/><stop offset="0.99" stop-color="#fefcac"/><stop offset="1" stop-color="#feffb0"/></radialGradient></defs><g id="Layer_2" data-name="Layer 2"><g id="blue"><g id="reality_tv_show" data-name="reality tv show"><g id="reality"><rect id="frame" class="cls-1" x="1" y="1" width="342" height="234" rx="18"/><g id="room" class="cls-2"><polyline id="ceiling" class="cls-3" points="30.5 20.5 100.49 46.78 257.05 44.75 301.52 13.5"/><polyline id="ceiling-2" data-name="ceiling" class="cls-3" points="40.81 207.45 102.53 179.5 264.94 179.5 311.84 214.45"/><line class="cls-3" x1="100.49" y1="48.75" x2="100.49" y2="177.26"/><line class="cls-3" x1="258.62" y1="47.8" x2="264.55" y2="177.26"/></g><g id="spotlight"><g id="spotlight-2" data-name="spotlight"><path d="M253.81,66.91c-.53.61,10.9-.77,11.13-.52.27,0-5.24-5.35-5.78-6-.67.37-8.67-1.57-8.62-2.07-.55-.31-15.74,1-15.61,1.12,0,.15,8.95,1.85,8.19,1.81C243.48,61.15,253.05,67.07,253.81,66.91Z"/><path d="M254.72,70.36c-.31-1.86-10.15.67-10.69.51-.27,1.93-9.06,3.78-8.37,4.31-.29,1.34,15.71,18.65,15.18,20.09.15,1.33,8-6.65,7.41-4.57.43,2.06,6.91-5.5,6.3-6.2C265.27,86.13,254.05,71.31,254.72,70.36Z"/><path d="M278.43,87.08c.46,1.41-11-2.18-11.55-.6.35.72-3.27,8.57-3.11,9.83.2-.25-2.93,7.33-3.19,8.28.51,0,17.24,5.17,17.07,3.53.31-.17,2.76-10.77,2.68-9.66C280.54,97,278.46,85.87,278.43,87.08Z"/><path d="M273,66.22c-.48,1.47-3.78,4.29-3.54,2.67.66,2.35,10.29,14.66,10.35,15.61.33-1.54,8.28,5.67,7.76,4.22-.52,2.37,5.09,2,4.66,4.14,0,1.89-15.84-24.27-16.13-24.4C275.58,70.83,273.32,65,273,66.22Z"/><path d="M257.14,67.66c-.16,3.25,0,2.7,1.48,6.71-.62-1.07,3.25,3.93,3.14,4.52.85.62.66.29,1.06,1.13,4.79,5,11.34,7.64,14.72,4.51-.28,1.31.49,0,.72-.72.59-.21-1.07-1.82-1.12-1.7-.51.39-.39,1.46-.69,1.32-.58,1.06-1.91,1.67-2.42.82.63,1.15-.48-.54,0,0-2.46-.87-6.46-1.58-10.12-5.33-4.39-4.58-6-8.65-5.16-11.33C259.11,68.37,257.64,68.18,257.14,67.66Z"/><path d="M294.17,49.1c-2.18-2.61-2.23-.9-5-3.83.64.59.86-8.61,0-9.42.35,2.84-.25-.29-1.56-2.23-.74-3.17-2.87-3-2.9-.33,1-1.33.43-1.54-1.08.1.49-4-3.49,3.2-3.81.66-.48.36.47-3.36,0-4.66.59-3.48-1.21,3.32-1.07-.2.25,3.89-.95,3-1.07.2,1.06,4.19-.57,9.36,0,5-.56-2.7-7.13-2.42-7.08,1.23a3.33,3.33,0,0,0-1.82,3.24c-.73-2.79.58,19.34.05,16.08.37-2.58-6.87,3.75-7,6.9.38-3.52,3-.09,3.77,3.89.9-2.44,1.43-3,1.26,1.3.75,2,.3-.46,2,1.2.67,2.08-1-2.23.1-.1-.41.6,2.59.65,3.54-2.67.1-3.76-.78-.45.55-.18.13,2.07,1.33,1.12.53.17,0,2.3,2.06,2.17,3.11,2.24-.9-3.12-.91-1.1.22.23,0,.38,7.77,7.57,6.91,10.47.59-.66,15.88-15,14.9-14.59C301.61,63.82,298.57,53.87,294.17,49.1Zm-5,1.67c0-.06.77-.59.72-.7a.76.76,0,0,1,1,0c.28.51.28.81,0,1,0-.17-1.67,1.47-1.67,1.62C289.25,52.58,289.15,50.74,289.2,50.77Zm0,4.08c-.07-.11,3.12-2.71,3-2.91a.84.84,0,0,1,1,0c.3.69.31.89,0,1-.08-.32-3.95,3.54-3.95,3.82a5.15,5.15,0,0,0,0-1.89C289.25,54.45,289.1,54.79,289.2,54.85Zm0,4.28c-.1-.14,5.15-4.53,5-4.81a1,1,0,0,1,1,0c.31.85.33,1,0,1-.12-.45-5.92,5.34-5.92,5.72C289.36,60.83,289.05,59.05,289.2,59.13Zm0,4.32c-.12-.17,6.64-5.89,6.43-6.22.4-.16.87-.12,1,0,.33,1,.36,1,0,1-.15-.53-7.38,6.68-7.38,7.14C289.4,65.12,289,63.36,289.2,63.45ZM274,36.56c-.2-.34,4.06.07,3.7-.59.21.2.29.84,0,.57.12,1.5.65.83,1.07.2.34-1.07,1.08-1,1.07-.2.34-.45.37-1.44,0-.92.16-1.33,5.5,0,5.39-.87-.17.12.37.72.18,1.37.2-1.14-.24,8.74,0,7.55-2.2.65-4.61.57-6,.93.35,1.41-7.09,8.21-6.9,6.75-.19-.91,0-13.8,0-12.57C272.86,37.45,272.76,36.54,274,36.56Zm-5.26,22.75c-.39-.28,0,.48-.49-.21,0-.11.06-.48,0-1,.13,1.13,12.8-11.68,12.61-12.19,0-1.14.71-1,1,0,.63-.09.66.28,0,1,.18-1.09-12.49,12.89-12.61,12.19C268.91,59.35,268.59,59.16,268.75,59.31Zm4,.54c-.35-.16.08.73-.48.19.06.16,0,.15-.48-.21-.14.86-.07-.19,0-1-.26-.87,12.62-12.94,12.61-12.19.64-.63,1.1-.68,1,0,.19-1.08.14.72,0,0-.17.1.17,1.23,0,.87.2-.91-.29,1,0,0C285.69,48.72,272.45,59.7,272.78,59.85Zm2.93,1.32c-.3-.11,0,.65-.47.19,0,.13-.11.12-.49-.21-.16.69-.11-.26,0-1-.21-.74,10.67-10.94,10.66-10.31.29-.31.32,1.53,0,1.89C285.57,50.85,275.45,61,275.71,61.17Zm2.08,2.26c-.31-.19-.13.29-.49-.21a1.54,1.54,0,0,1,0-1c.08.75,8.24-7.51,8.12-7.85-.16-.58,0,1.39,0,1.89.22-.25-6.94,6.65-7.18,6.94C278.23,62.64,277.76,63.33,277.79,63.43Zm2.27,1.88c-.27-.15-.18.2-.48-.21a1.1,1.1,0,0,1,0-1c.06.57,5.93-5.39,5.84-5.65-.11-.44,0,1.51,0,1.89.17-.19-4.72,4.52-4.89,4.73C280.48,64.69,280.09,65.23,280.06,65.31Zm2,2.37c-.25-.1-.24.13-.49-.21a.92.92,0,0,1,0-1c0,.41,3.93-3.56,3.88-3.74a14.08,14.08,0,0,0,0,1.89c.11-.14-2.81,2.67-2.93,2.83C282.43,67.22,282.11,67.63,282,67.68Zm1.46,2.91c-.27-.09-.2.11-.49-.21a1,1,0,0,1,0-1c.06.38,3.54-3.17,3.46-3.34s1.93-.22,1.93,0c.14-.12-4.28,4.15-4.44,4.29C283.91,70.16,283.53,70.54,283.5,70.59Zm14.25-9c-.22-.28-12.23,12.74-12.61,12.19.1.29,0,.41-.48.19-.05,1.14-.16.45-.49-.2-.53-1.15-.24-1.45,0-1,.37-.36,13-12.61,12.61-12.19.45-1.35.82.45,1,0C297.85,61,297.68,61.14,297.75,61.55Z"/><path class="cls-4" d="M253.81,66.91c-.53.61,10.9-.77,11.13-.52.27,0-5.24-5.35-5.78-6-.67.37-8.67-1.57-8.62-2.07-.55-.31-15.74,1-15.61,1.12,0,.15,8.95,1.85,8.19,1.81C243.48,61.15,253.05,67.07,253.81,66.91Z"/><path class="cls-4" d="M253.81,66.91c-.53.61,10.9-.77,11.13-.52.27,0-5.24-5.35-5.78-6-.67.37-8.67-1.57-8.62-2.07-.55-.31-15.74,1-15.61,1.12,0,.15,8.95,1.85,8.19,1.81C243.48,61.15,253.05,67.07,253.81,66.91Z"/><path class="cls-4" d="M254.72,70.36c-.31-1.86-10.15.67-10.69.51-.27,1.93-9.06,3.78-8.37,4.31-.29,1.34,15.71,18.65,15.18,20.09.15,1.33,8-6.65,7.41-4.57.43,2.06,6.91-5.5,6.3-6.2C265.27,86.13,254.05,71.31,254.72,70.36Z"/><path class="cls-4" d="M254.72,70.36c-.31-1.86-10.15.67-10.69.51-.27,1.93-9.06,3.78-8.37,4.31-.29,1.34,15.71,18.65,15.18,20.09.15,1.33,8-6.65,7.41-4.57.43,2.06,6.91-5.5,6.3-6.2C265.27,86.13,254.05,71.31,254.72,70.36Z"/><path class="cls-4" d="M278.43,87.08c.46,1.41-11-2.18-11.55-.6.35.72-3.27,8.57-3.11,9.83.2-.25-2.93,7.33-3.19,8.28.51,0,17.24,5.17,17.07,3.53.31-.17,2.76-10.77,2.68-9.66C280.54,97,278.46,85.87,278.43,87.08Z"/><path class="cls-4" d="M278.43,87.08c.46,1.41-11-2.18-11.55-.6.35.72-3.27,8.57-3.11,9.83.2-.25-2.93,7.33-3.19,8.28.51,0,17.24,5.17,17.07,3.53.31-.17,2.76-10.77,2.68-9.66C280.54,97,278.46,85.87,278.43,87.08Z"/><path class="cls-4" d="M273,66.22c-.48,1.47-3.78,4.29-3.54,2.67.66,2.35,10.29,14.66,10.35,15.61.33-1.54,8.28,5.67,7.76,4.22-.52,2.37,5.09,2,4.66,4.14,0,1.89-15.84-24.27-16.13-24.4C275.58,70.83,273.32,65,273,66.22Z"/><path class="cls-4" d="M273,66.22c-.48,1.47-3.78,4.29-3.54,2.67.66,2.35,10.29,14.66,10.35,15.61.33-1.54,8.28,5.67,7.76,4.22-.52,2.37,5.09,2,4.66,4.14,0,1.89-15.84-24.27-16.13-24.4C275.58,70.83,273.32,65,273,66.22Z"/><path class="cls-4" d="M257.14,67.66c-.16,3.25,0,2.7,1.48,6.71-.62-1.07,3.25,3.93,3.14,4.52.85.62.66.29,1.06,1.13,4.79,5,11.34,7.64,14.72,4.51-.28,1.31.49,0,.72-.72.59-.21-1.07-1.82-1.12-1.7-.51.39-.39,1.46-.69,1.32-.58,1.06-1.91,1.67-2.42.82.63,1.15-.48-.54,0,0-2.46-.87-6.46-1.58-10.12-5.33-4.39-4.58-6-8.65-5.16-11.33C259.11,68.37,257.64,68.18,257.14,67.66Z"/><path class="cls-4" d="M257.14,67.66c-.16,3.25,0,2.7,1.48,6.71-.62-1.07,3.25,3.93,3.14,4.52.85.62.66.29,1.06,1.13,4.79,5,11.34,7.64,14.72,4.51-.28,1.31.49,0,.72-.72.59-.21-1.07-1.82-1.12-1.7-.51.39-.39,1.46-.69,1.32-.58,1.06-1.91,1.67-2.42.82.63,1.15-.48-.54,0,0-2.46-.87-6.46-1.58-10.12-5.33-4.39-4.58-6-8.65-5.16-11.33C259.11,68.37,257.64,68.18,257.14,67.66Z"/><path class="cls-4" d="M294.17,49.1c-2.18-2.61-2.23-.9-5-3.83.64.59.86-8.61,0-9.42.35,2.84-.25-.29-1.56-2.23-.74-3.17-2.87-3-2.9-.33,1-1.33.43-1.54-1.08.1.49-4-3.49,3.2-3.81.66-.48.36.47-3.36,0-4.66.59-3.48-1.21,3.32-1.07-.2.25,3.89-.95,3-1.07.2,1.06,4.19-.57,9.36,0,5-.56-2.7-7.13-2.42-7.08,1.23a3.33,3.33,0,0,0-1.82,3.24c-.73-2.79.58,19.34.05,16.08.37-2.58-6.87,3.75-7,6.9.38-3.52,3-.09,3.77,3.89.9-2.44,1.43-3,1.26,1.3.75,2,.3-.46,2,1.2.67,2.08-1-2.23.1-.1-.41.6,2.59.65,3.54-2.67.1-3.76-.78-.45.55-.18.13,2.07,1.33,1.12.53.17,0,2.3,2.06,2.17,3.11,2.24-.9-3.12-.91-1.1.22.23,0,.38,7.77,7.57,6.91,10.47.59-.66,15.88-15,14.9-14.59C301.61,63.82,298.57,53.87,294.17,49.1Zm-5,1.67c0-.06.77-.59.72-.7a.76.76,0,0,1,1,0c.28.51.28.81,0,1,0-.17-1.67,1.47-1.67,1.62C289.25,52.58,289.15,50.74,289.2,50.77Zm0,4.08c-.07-.11,3.12-2.71,3-2.91a.84.84,0,0,1,1,0c.3.69.31.89,0,1-.08-.32-3.95,3.54-3.95,3.82a5.15,5.15,0,0,0,0-1.89C289.25,54.45,289.1,54.79,289.2,54.85Zm0,4.28c-.1-.14,5.15-4.53,5-4.81a1,1,0,0,1,1,0c.31.85.33,1,0,1-.12-.45-5.92,5.34-5.92,5.72C289.36,60.83,289.05,59.05,289.2,59.13Zm0,4.32c-.12-.17,6.64-5.89,6.43-6.22.4-.16.87-.12,1,0,.33,1,.36,1,0,1-.15-.53-7.38,6.68-7.38,7.14C289.4,65.12,289,63.36,289.2,63.45ZM274,36.56c-.2-.34,4.06.07,3.7-.59.21.2.29.84,0,.57.12,1.5.65.83,1.07.2.34-1.07,1.08-1,1.07-.2.34-.45.37-1.44,0-.92.16-1.33,5.5,0,5.39-.87-.17.12.37.72.18,1.37.2-1.14-.24,8.74,0,7.55-2.2.65-4.61.57-6,.93.35,1.41-7.09,8.21-6.9,6.75-.19-.91,0-13.8,0-12.57C272.86,37.45,272.76,36.54,274,36.56Zm-5.26,22.75c-.39-.28,0,.48-.49-.21,0-.11.06-.48,0-1,.13,1.13,12.8-11.68,12.61-12.19,0-1.14.71-1,1,0,.63-.09.66.28,0,1,.18-1.09-12.49,12.89-12.61,12.19C268.91,59.35,268.59,59.16,268.75,59.31Zm4,.54c-.35-.16.08.73-.48.19.06.16,0,.15-.48-.21-.14.86-.07-.19,0-1-.26-.87,12.62-12.94,12.61-12.19.64-.63,1.1-.68,1,0,.19-1.08.14.72,0,0-.17.1.17,1.23,0,.87.2-.91-.29,1,0,0C285.69,48.72,272.45,59.7,272.78,59.85Zm2.93,1.32c-.3-.11,0,.65-.47.19,0,.13-.11.12-.49-.21-.16.69-.11-.26,0-1-.21-.74,10.67-10.94,10.66-10.31.29-.31.32,1.53,0,1.89C285.57,50.85,275.45,61,275.71,61.17Zm2.08,2.26c-.31-.19-.13.29-.49-.21a1.54,1.54,0,0,1,0-1c.08.75,8.24-7.51,8.12-7.85-.16-.58,0,1.39,0,1.89.22-.25-6.94,6.65-7.18,6.94C278.23,62.64,277.76,63.33,277.79,63.43Zm2.27,1.88c-.27-.15-.18.2-.48-.21a1.1,1.1,0,0,1,0-1c.06.57,5.93-5.39,5.84-5.65-.11-.44,0,1.51,0,1.89.17-.19-4.72,4.52-4.89,4.73C280.48,64.69,280.09,65.23,280.06,65.31Zm2,2.37c-.25-.1-.24.13-.49-.21a.92.92,0,0,1,0-1c0,.41,3.93-3.56,3.88-3.74a14.08,14.08,0,0,0,0,1.89c.11-.14-2.81,2.67-2.93,2.83C282.43,67.22,282.11,67.63,282,67.68Zm1.46,2.91c-.27-.09-.2.11-.49-.21a1,1,0,0,1,0-1c.06.38,3.54-3.17,3.46-3.34s1.93-.22,1.93,0c.14-.12-4.28,4.15-4.44,4.29C283.91,70.16,283.53,70.54,283.5,70.59Zm14.25-9c-.22-.28-12.23,12.74-12.61,12.19.1.29,0,.41-.48.19-.05,1.14-.16.45-.49-.2-.53-1.15-.24-1.45,0-1,.37-.36,13-12.61,12.61-12.19.45-1.35.82.45,1,0C297.85,61,297.68,61.14,297.75,61.55Z"/><path class="cls-4" d="M294.17,49.1c-2.18-2.61-2.23-.9-5-3.83.64.59.86-8.61,0-9.42.35,2.84-.25-.29-1.56-2.23-.74-3.17-2.87-3-2.9-.33,1-1.33.43-1.54-1.08.1.49-4-3.49,3.2-3.81.66-.48.36.47-3.36,0-4.66.59-3.48-1.21,3.32-1.07-.2.25,3.89-.95,3-1.07.2,1.06,4.19-.57,9.36,0,5-.56-2.7-7.13-2.42-7.08,1.23a3.33,3.33,0,0,0-1.82,3.24c-.73-2.79.58,19.34.05,16.08.37-2.58-6.87,3.75-7,6.9.38-3.52,3-.09,3.77,3.89.9-2.44,1.43-3,1.26,1.3.75,2,.3-.46,2,1.2.67,2.08-1-2.23.1-.1-.41.6,2.59.65,3.54-2.67.1-3.76-.78-.45.55-.18.13,2.07,1.33,1.12.53.17,0,2.3,2.06,2.17,3.11,2.24-.9-3.12-.91-1.1.22.23,0,.38,7.77,7.57,6.91,10.47.59-.66,15.88-15,14.9-14.59C301.61,63.82,298.57,53.87,294.17,49.1Zm-5,1.67c0-.06.77-.59.72-.7a.76.76,0,0,1,1,0c.28.51.28.81,0,1,0-.17-1.67,1.47-1.67,1.62C289.25,52.58,289.15,50.74,289.2,50.77Zm0,4.08c-.07-.11,3.12-2.71,3-2.91a.84.84,0,0,1,1,0c.3.69.31.89,0,1-.08-.32-3.95,3.54-3.95,3.82a5.15,5.15,0,0,0,0-1.89C289.25,54.45,289.1,54.79,289.2,54.85Zm0,4.28c-.1-.14,5.15-4.53,5-4.81a1,1,0,0,1,1,0c.31.85.33,1,0,1-.12-.45-5.92,5.34-5.92,5.72C289.36,60.83,289.05,59.05,289.2,59.13Zm0,4.32c-.12-.17,6.64-5.89,6.43-6.22.4-.16.87-.12,1,0,.33,1,.36,1,0,1-.15-.53-7.38,6.68-7.38,7.14C289.4,65.12,289,63.36,289.2,63.45ZM274,36.56c-.2-.34,4.06.07,3.7-.59.21.2.29.84,0,.57.12,1.5.65.83,1.07.2.34-1.07,1.08-1,1.07-.2.34-.45.37-1.44,0-.92.16-1.33,5.5,0,5.39-.87-.17.12.37.72.18,1.37.2-1.14-.24,8.74,0,7.55-2.2.65-4.61.57-6,.93.35,1.41-7.09,8.21-6.9,6.75-.19-.91,0-13.8,0-12.57C272.86,37.45,272.76,36.54,274,36.56Zm-5.26,22.75c-.39-.28,0,.48-.49-.21,0-.11.06-.48,0-1,.13,1.13,12.8-11.68,12.61-12.19,0-1.14.71-1,1,0,.63-.09.66.28,0,1,.18-1.09-12.49,12.89-12.61,12.19C268.91,59.35,268.59,59.16,268.75,59.31Zm4,.54c-.35-.16.08.73-.48.19.06.16,0,.15-.48-.21-.14.86-.07-.19,0-1-.26-.87,12.62-12.94,12.61-12.19.64-.63,1.1-.68,1,0,.19-1.08.14.72,0,0-.17.1.17,1.23,0,.87.2-.91-.29,1,0,0C285.69,48.72,272.45,59.7,272.78,59.85Zm2.93,1.32c-.3-.11,0,.65-.47.19,0,.13-.11.12-.49-.21-.16.69-.11-.26,0-1-.21-.74,10.67-10.94,10.66-10.31.29-.31.32,1.53,0,1.89C285.57,50.85,275.45,61,275.71,61.17Zm2.08,2.26c-.31-.19-.13.29-.49-.21a1.54,1.54,0,0,1,0-1c.08.75,8.24-7.51,8.12-7.85-.16-.58,0,1.39,0,1.89.22-.25-6.94,6.65-7.18,6.94C278.23,62.64,277.76,63.33,277.79,63.43Zm2.27,1.88c-.27-.15-.18.2-.48-.21a1.1,1.1,0,0,1,0-1c.06.57,5.93-5.39,5.84-5.65-.11-.44,0,1.51,0,1.89.17-.19-4.72,4.52-4.89,4.73C280.48,64.69,280.09,65.23,280.06,65.31Zm2,2.37c-.25-.1-.24.13-.49-.21a.92.92,0,0,1,0-1c0,.41,3.93-3.56,3.88-3.74a14.08,14.08,0,0,0,0,1.89c.11-.14-2.81,2.67-2.93,2.83C282.43,67.22,282.11,67.63,282,67.68Zm1.46,2.91c-.27-.09-.2.11-.49-.21a1,1,0,0,1,0-1c.06.38,3.54-3.17,3.46-3.34s1.93-.22,1.93,0c.14-.12-4.28,4.15-4.44,4.29C283.91,70.16,283.53,70.54,283.5,70.59Zm14.25-9c-.22-.28-12.23,12.74-12.61,12.19.1.29,0,.41-.48.19-.05,1.14-.16.45-.49-.2-.53-1.15-.24-1.45,0-1,.37-.36,13-12.61,12.61-12.19.45-1.35.82.45,1,0C297.85,61,297.68,61.14,297.75,61.55Z"/></g><g id="spotlight-3" data-name="spotlight"><path d="M255.39,67.7c-.53.61,10.89-.77,11.13-.52.27,0-5.24-5.35-5.78-6-.67.37-8.67-1.57-8.62-2.07-.56-.31-15.74,1-15.61,1.12,0,.15,9,1.85,8.19,1.81C245.06,61.94,254.63,67.86,255.39,67.7Z"/><path d="M256.3,71.14c-.32-1.85-10.16.68-10.7.52-.26,1.93-9,3.78-8.36,4.31C237,77.31,253,94.62,252.42,96.06c.15,1.33,8-6.65,7.41-4.57.43,2.06,6.91-5.5,6.29-6.2C266.85,86.92,255.63,72.1,256.3,71.14Z"/><path d="M280,87.87c.46,1.41-11-2.18-11.56-.6.35.72-3.26,8.57-3.1,9.83.19-.25-2.94,7.33-3.19,8.27.51.06,17.23,5.18,17.07,3.54.31-.17,2.76-10.77,2.68-9.66C282.12,97.79,280,86.66,280,87.87Z"/><path d="M274.57,67c-.47,1.48-3.77,4.29-3.53,2.68.66,2.35,10.29,14.66,10.35,15.61.33-1.54,8.28,5.67,7.76,4.22-.52,2.36,5.09,2,4.65,4.14,0,1.89-15.84-24.27-16.12-24.4C277.16,71.62,274.9,65.82,274.57,67Z"/><path d="M258.72,68.45c-.17,3.24,0,2.7,1.48,6.71-.62-1.07,3.25,3.93,3.14,4.52.85.62.66.29,1.06,1.13,4.79,5,11.34,7.64,14.72,4.5-.28,1.32.49,0,.72-.71.59-.21-1.07-1.82-1.12-1.7-.51.39-.39,1.46-.7,1.32-.57,1.06-1.9,1.67-2.42.82.64,1.15-.47-.54,0,0-2.45-.88-6.45-1.58-10.11-5.33-4.39-4.58-6-8.66-5.16-11.33C260.69,69.16,259.22,69,258.72,68.45Z"/><path d="M295.75,49.89c-1.77-3.66-4.35.27-5-3.83.69,3-.74-12.66,0-9.42-.55-2.12-1.71-5.85-1.56-2.23,1,3.65-2.36,4.09-2.9-.33,1,2.66-1.35-3.35-1.08.1,1.13-1.86-4.43-2.56-3.81.66-1-.16.74-3.77,0-4.66-.4,1.77-1.59-3.56-1.07-.2-.83-2.33-1.52.52-1.07.2-.56,2.32,1,9.17,0,5-.4,3-6.63,3.59-7.09,1.23-.25,1.65-.94,1.45-1.81,3.24.5-1.19.8,14.63.05,16.08-.14-2.76-7.49,5.16-7.05,6.9-.69,2,4.46,1.64,3.78,3.89-.72,1.75,1.65,2.59,1.26,1.3,1.35-2.11,2-2.4,2,1.2.69-1.91.82-4,.1-.1,1.14-2.12,3.39-5.13,3.54-2.67-.41-3.72-.74,3.45.55-.19-.91-2.42-.34-2.5.53.18-.39,1.62,2.22,2.41,3.1,2.24.54-.4.23.29.23.23,0,.91,6.43,9.35,6.91,10.47.07-1.85,14.2-14.81,14.89-14.59C302.45,57.63,301.43,51.66,295.75,49.89Zm-5,1.67c0-.12.67-.53.72-.7.3-.09.66-.44,1,0,.24.22.21.49,0,1,.05.21-1.65,1.87-1.67,1.62C290.82,53.6,290.79,51.36,290.78,51.56Zm0,4.08c0-.21,2.89-2.59,3-2.91.35.05.62-.58,1,0,.2.18.15.33,0,1,.12.37-3.88,4.26-3.94,3.82.1.27-.08-2.23,0-1.89C290.9,55.45,290.82,55.28,290.78,55.64Zm0,4.28c0-.29,4.8-4.37,5-4.81.38.16.58-.71,1,0,.18.15.11.19,0,1,.16.52-5.84,6.35-5.92,5.73C290.93,62.18,290.84,59.42,290.78,59.92Zm0,4.32c0-.35,6.22-5.69,6.43-6.22.41.25.55-.81,1,0,.15.13.07.08,0,1,.21.62-7.27,7.88-7.37,7.14C291,66.58,290.85,63.64,290.78,64.24ZM275.59,37.35c-.06-.7,3.34.47,3.7-.59.23,1-.26-.52,0,.57-.19-.18.15-1,1.07.2s1.25,1.4,1.07-.2c.32.9-.23-2,0-.92.38-.63,5.18-1.95,5.39-.87-.35,0,.46.58.18,1.36s-.37,6.43,0,7.56a4.84,4.84,0,0,0-6,.93c-.18.78-6.53,8.14-6.89,6.75-.13,1,.13-11.78,0-12.58C274.36,38.83,274.78,36.32,275.59,37.35ZM270.33,60.1c-.25-.57-.74.8-.49-.21,0,.57-.53-1.59,0-1-.2-.23,12.26-13.21,12.61-12.19.64.74.9,1,1,0,.61,1,0-.22,0,1,.42-.51-12.83,11.31-12.61,12.2C270.29,60,270.64,59.12,270.33,60.1Zm4,.53c-.2-.44-.69,1.06-.48.2.08.84-.62-1-.49-.21-.45-.51-.59-1.72,0-1,.37,1,12.81-11,12.61-12.19.62.47.46-1.18,1,0,.42-.5-.2-.86,0,0-.37,0,.27,1.13,0,.88-.16.54-.43-.89,0,0C286.88,47.8,274.49,59.66,274.36,60.63ZM277.29,62c-.18-.36-.6.92-.47.19,0,.71-.57-.83-.49-.21-.42-.47-.53-1.56,0-1,.3.85,10.83-9.28,10.67-10.31.28.62-.19,1.11,0,1.89C287.33,52.13,277.4,61.13,277.29,62Zm2.07,2.26c-.22-.38-.58.51-.48-.21-.12.29-.42-1.29,0-1-.12-.16,7.91-8.53,8.12-7.85s.12,2.7,0,1.89c.22.48-7.32,6.32-7.17,6.94C280,63.81,279.61,63.57,279.36,64.22Zm2.28,1.87c-.21-.28-.52.37-.49-.2-.15.15-.37-1.15,0-1-.09-.12,5.69-6.17,5.84-5.65s.09,2.5,0,1.89c.16.36-5,4.27-4.89,4.73C282.16,65.77,281.87,65.6,281.64,66.09Zm2,2.38c-.19-.21-.46.24-.48-.21-.19,0-.34-1,0-1-.06-.08,3.77-4.11,3.87-3.74a6.91,6.91,0,0,1,0,1.89c.1.26-3,2.49-2.93,2.83C284.08,68.22,283.83,68.11,283.61,68.47Zm1.46,2.91c-.2-.19-.5.22-.48-.21-.16,0-.37-1,0-1-.08-.08,3.32-3.68,3.46-3.34s2,.43,1.92,0c.15.24-4.53,4-4.43,4.29C285.58,71.15,285.3,71.05,285.07,71.38Zm14.25-9c-.06-.57-13,13.06-12.61,12.19.12,1-.57-.7-.47.19-.38-.23-.7-1.08-.49-.2a6.32,6.32,0,1,0,0-1c.35.73,12.36-13.11,12.61-12.19.68-.77.47-1.14,1,0C299.23,61.6,299.73,61.1,299.32,62.34Z"/></g></g><g id="spotlight-4" data-name="spotlight"><g id="spotlight-5" data-name="spotlight"><path d="M111.34,56.48c-.69.8,10.29-2.66,10.59-2.34.35,0-19.48-.68-20.18-1.45-.86.48-11.21,3.32-11.15,2.68-.71-.41-7.64,7.49-7.47,7.69,0,.19,15.37.71,14.38.67C98,63.53,110.35,56.7,111.34,56.48Z"/><path d="M83.64,86.46c-.41-2.39,8.83,8.24,8.13,8-.33,2.49,9,5.32,9.59,5.91-.71,1.61,20-27.73,19.62-26,.53,1.62-10-8.27-10.81-5.57.55,2.65-13,.25-13.83-.67C97.28,70.3,82.77,87.7,83.64,86.46Z"/><path d="M63.24,104.52C63.84,106,67.41,115,66.69,117c.46.93,21.86-6.2,22.07-4.57.26-.33-3.79-11.93-4.12-10.71.66.07-3.8-10.59-4-12.7.4-.22-14.83-.32-14.94.78C66,87.58,63.28,103.29,63.24,104.52Z"/><path d="M68.7,65.73c-.62,1.91-21.16,33.64-20.84,31.55.84,3,5.94-6.57,6-5.35.44-2,10.71-3.59,10-5.47-.67,3.06,13.93-22.89,13.37-20.17,0,2.44-4.2-3.29-4.57-3.46C72,65.89,69.12,64.19,68.7,65.73Z"/><path d="M91.13,64.61c1.11,5-1.45,7.22-6.67,14.65-5,2.8-9.17,6.13-13.08,6.89.67.31,0-.61,0,0-2-.37-3.14,0-3.13-1.06-.78,1.26-1-.15-.89-1.7.75-.28-1.39,2-1.46,2.19-.48-.19.91,1.53.94.92,3.61,4.31,11.47,2.14,19-5.83,1.3,1,.32-1.66,1.37-1.45.59-1.14,4.61-5.19,4.06-5.84,1.4-3.67,2.2-6,1.91-8.68C93.67,65.71,91.77,65.27,91.13,64.61Z"/><path d="M39.53,59.75c.77,4.83,20.62,22.43,19.25,18.86-1.11-5.56,7.94-10.29,8.94-13.53,1.23-3.42-1.06-4.41.29-.3.66,2.12,4.27-.33,4-2.9.64.38-.48-4.24.69-.23-.88-4.67.71,1.42.71.24-.73-.11,3.72,8.64,4.57,3.46,0-.61-.87.59.14.12.87,3.35,2.26-1.32,2.52-1.55,1.37,5.38,2.14.35,1.64-1.68-.18-3,5.14-7.62,4.88-5,0-4.79-10.38-13.74-9.11-8.92-.65,4.4.1-22.55.06-20.78-1.27-1.36-2.6-2.15-2.34-4.2,1.15-1.51-9.58-5.08-9.16-1.58-1-.47-.61-9.78,0-6.51,0,1.89-1.33,4.66-1.38-.26.19,1.69-2.74,2-1.38.26,1-2.64,1.34,6.24,0,6,1.28-.4-5.66-2.87-4.93-.85,0-2.41-1.35-3.78-1.4-.12,1.26-5.61-2.35-1.1-3.74.43-.48,5.52-2.12,5.55-2,2.88,1-4-1.13,10.91,0,12.17-1.53-4.31-5.15,8-6.43,5C39.37,48.15,35.22,51.45,39.53,59.75ZM51.77,45.3c0,.28-2.09-1.88-2.16-2.08-.4-.65-.41-.71,0-1.24s.83-.6,1.24,0c0,.12,1,1,.94.9C51.79,42.89,51.74,45,51.77,45.3Zm0,2.83c.08.49.15,2.81,0,2.45-.12-.56-5.21-4.61-5.11-4.94-.22-.67-.49-1.31,0-1.24a2.61,2.61,0,0,1,1.24,0,46.3,46.3,0,0,1,3.89,3.75C51.65,47.66,51.7,47.66,51.77,48.13Zm0,8c.12.68-7.44-6.9-7.66-7.4-.52-1.11-.51-.43,0-1.24s.7-.94,1.24,0c.11.3,6.48,6.58,6.44,6.22C51.84,53.75,51.66,55.46,51.77,56.11Zm0,5.59c.15.81-9.27-8.62-9.54-9.23-.57-1.27-.56-.34,0-1.24s.65-1.06,1.24,0c.13.36,8.37,8.48,8.32,8C51.85,59.35,51.64,60.92,51.77,61.7ZM73.32,27.36c.26,1.63.43,17.46,0,16.25C72.91,41.74,64,36,64.38,34.88c-1.33-2.83-4.95-3.46-7.74-1.19.23.71.09-8.9,0-9.77.11-1.22-.08-3.12.24-1.77-.38-1.57,7,1.58,7,1.13-.25,0-.29,2.94,0,1.19a1.61,1.61,0,0,0,1.38.26c.78,1.33,1.58-.19,1.38-.26.46,1.81.17-.06,0-.74-.06-1,4.87-.11,4.78.77C72.62,23.1,73,24.21,73.32,27.36Zm4.27,26.3c.28,1.33-15.8-14.78-16.3-15.77-.76-1.86-.72,0,0-1.24s.44-1.51,1.24,0c.24.58,16.4,16.47,16.3,15.76.51.49,0-.21,0,1.24-.58-1.1-.32.64-.63.27C77.71,53.87,77.52,52.54,77.59,53.66ZM56.69,38.83c.26,1.32.46,1,0-.06-.4-1.53-.36-.24,0-1.13s-.42-1.19,0,0c.58.24,1,.35,1.25,0,.15.15,16,14.66,16.3,15.76-.06-.95.43,1.26,0,1.25-.44.14-.71,1.69-.63.26-.24-.18-.79.06-.61-.24C73,55.68,56.46,37.56,56.69,38.83Zm0,5.33c.22,1.12.39-1.62,0-2.45C56.32,40.41,70.14,55.8,70.43,55c.67-.43,0-.08,0,1.24,0,.68-.33.87-.64.27-.09.13-.7-1-.61-.25C68.88,55.21,56.45,43.07,56.64,44.16ZM65.91,59c.17.89-9-8.31-9.28-9a4.42,4.42,0,0,1,0-2.44C56.89,47,66.86,57,67.13,57.72c.5.72.42,1.36,0,1.24-.07.28-.6-.47-.63.27C66.06,58.37,65.94,58.29,65.91,59ZM63,61.41c.12.67-6.12-5.63-6.34-6.13a6.2,6.2,0,0,1,0-2.44c.19-.46,7.36,6.72,7.56,7.3.45.64.4,1.25,0,1.25-.11.25-.55-.29-.63.27C63.18,61,63,60.93,63,61.41Zm-2.55,3.07c.08.48-3.64-3.31-3.79-3.66a9.09,9.09,0,0,1,0-2.45c.13-.33,4.88,4.43,5,4.85.42.54.38,1.14,0,1.24-.13.23-.5-.14-.63.26C60.69,64.26,60.51,64.18,60.42,64.48Zm-1.89,3.76c.11.44-5.54-5.22-5.74-5.55-.16-.51,2.34.26,2.49,0s4.29,3.94,4.47,4.32c.45.54.4,1.13,0,1.25-.11.23-.54-.1-.63.27C58.76,68.06,58.6,68,58.53,68.24ZM40.7,55.56c.62,1,1.39.62,1.24,0C41.53,54,57.88,72.19,58.24,71.3c.77-.58-.09-.26,0,1.24.07.76-.3,1-.63.27-.06.15-.78-1.19-.61-.25-.41-1.29-16.23-15.39-16.3-15.76C40.1,56.43,40.12,54.63,40.7,55.56Z"/><path class="cls-4" d="M111.34,56.48c-.69.8,10.29-2.66,10.59-2.34.35,0-19.48-.68-20.18-1.45-.86.48-11.21,3.32-11.15,2.68-.71-.41-7.64,7.49-7.47,7.69,0,.19,15.37.71,14.38.67C98,63.53,110.35,56.7,111.34,56.48Z"/><path class="cls-4" d="M111.34,56.48c-.69.8,10.29-2.66,10.59-2.34.35,0-19.48-.68-20.18-1.45-.86.48-11.21,3.32-11.15,2.68-.71-.41-7.64,7.49-7.47,7.69,0,.19,15.37.71,14.38.67C98,63.53,110.35,56.7,111.34,56.48Z"/><path class="cls-4" d="M83.64,86.46c-.41-2.39,8.83,8.24,8.13,8-.33,2.49,9,5.32,9.59,5.91-.71,1.61,20-27.73,19.62-26,.53,1.62-10-8.27-10.81-5.57.55,2.65-13,.25-13.83-.67C97.28,70.3,82.77,87.7,83.64,86.46Z"/><path class="cls-4" d="M83.64,86.46c-.41-2.39,8.83,8.24,8.13,8-.33,2.49,9,5.32,9.59,5.91-.71,1.61,20-27.73,19.62-26,.53,1.62-10-8.27-10.81-5.57.55,2.65-13,.25-13.83-.67C97.28,70.3,82.77,87.7,83.64,86.46Z"/><path class="cls-4" d="M63.24,104.52C63.84,106,67.41,115,66.69,117c.46.93,21.86-6.2,22.07-4.57.26-.33-3.79-11.93-4.12-10.71.66.07-3.8-10.59-4-12.7.4-.22-14.83-.32-14.94.78C66,87.58,63.28,103.29,63.24,104.52Z"/><path class="cls-4" d="M63.24,104.52C63.84,106,67.41,115,66.69,117c.46.93,21.86-6.2,22.07-4.57.26-.33-3.79-11.93-4.12-10.71.66.07-3.8-10.59-4-12.7.4-.22-14.83-.32-14.94.78C66,87.58,63.28,103.29,63.24,104.52Z"/><path class="cls-4" d="M68.7,65.73c-.62,1.91-21.16,33.64-20.84,31.55.84,3,5.94-6.57,6-5.35.44-2,10.71-3.59,10-5.47-.67,3.06,13.93-22.89,13.37-20.17,0,2.44-4.2-3.29-4.57-3.46C72,65.89,69.12,64.19,68.7,65.73Z"/><path class="cls-4" d="M68.7,65.73c-.62,1.91-21.16,33.64-20.84,31.55.84,3,5.94-6.57,6-5.35.44-2,10.71-3.59,10-5.47-.67,3.06,13.93-22.89,13.37-20.17,0,2.44-4.2-3.29-4.57-3.46C72,65.89,69.12,64.19,68.7,65.73Z"/><path class="cls-4" d="M91.13,64.61c1.11,5-1.45,7.22-6.67,14.65-5,2.8-9.17,6.13-13.08,6.89.67.31,0-.61,0,0-2-.37-3.14,0-3.13-1.06-.78,1.26-1-.15-.89-1.7.75-.28-1.39,2-1.46,2.19-.48-.19.91,1.53.94.92,3.61,4.31,11.47,2.14,19-5.83,1.3,1,.32-1.66,1.37-1.45.59-1.14,4.61-5.19,4.06-5.84,1.4-3.67,2.2-6,1.91-8.68C93.67,65.71,91.77,65.27,91.13,64.61Z"/><path class="cls-4" d="M91.13,64.61c1.11,5-1.45,7.22-6.67,14.65-5,2.8-9.17,6.13-13.08,6.89.67.31,0-.61,0,0-2-.37-3.14,0-3.13-1.06-.78,1.26-1-.15-.89-1.7.75-.28-1.39,2-1.46,2.19-.48-.19.91,1.53.94.92,3.61,4.31,11.47,2.14,19-5.83,1.3,1,.32-1.66,1.37-1.45.59-1.14,4.61-5.19,4.06-5.84,1.4-3.67,2.2-6,1.91-8.68C93.67,65.71,91.77,65.27,91.13,64.61Z"/><path class="cls-4" d="M39.53,59.75c.77,4.83,20.62,22.43,19.25,18.86-1.11-5.56,7.94-10.29,8.94-13.53,1.23-3.42-1.06-4.41.29-.3.66,2.12,4.27-.33,4-2.9.64.38-.48-4.24.69-.23-.88-4.67.71,1.42.71.24-.73-.11,3.72,8.64,4.57,3.46,0-.61-.87.59.14.12.87,3.35,2.26-1.32,2.52-1.55,1.37,5.38,2.14.35,1.64-1.68-.18-3,5.14-7.62,4.88-5,0-4.79-10.38-13.74-9.11-8.92-.65,4.4.1-22.55.06-20.78-1.27-1.36-2.6-2.15-2.34-4.2,1.15-1.51-9.58-5.08-9.16-1.58-1-.47-.61-9.78,0-6.51,0,1.89-1.33,4.66-1.38-.26.19,1.69-2.74,2-1.38.26,1-2.64,1.34,6.24,0,6,1.28-.4-5.66-2.87-4.93-.85,0-2.41-1.35-3.78-1.4-.12,1.26-5.61-2.35-1.1-3.74.43-.48,5.52-2.12,5.55-2,2.88,1-4-1.13,10.91,0,12.17-1.53-4.31-5.15,8-6.43,5C39.37,48.15,35.22,51.45,39.53,59.75ZM51.77,45.3c0,.28-2.09-1.88-2.16-2.08-.4-.65-.41-.71,0-1.24s.83-.6,1.24,0c0,.12,1,1,.94.9C51.79,42.89,51.74,45,51.77,45.3Zm0,2.83c.08.49.15,2.81,0,2.45-.12-.56-5.21-4.61-5.11-4.94-.22-.67-.49-1.31,0-1.24a2.61,2.61,0,0,1,1.24,0,46.3,46.3,0,0,1,3.89,3.75C51.65,47.66,51.7,47.66,51.77,48.13Zm0,8c.12.68-7.44-6.9-7.66-7.4-.52-1.11-.51-.43,0-1.24s.7-.94,1.24,0c.11.3,6.48,6.58,6.44,6.22C51.84,53.75,51.66,55.46,51.77,56.11Zm0,5.59c.15.81-9.27-8.62-9.54-9.23-.57-1.27-.56-.34,0-1.24s.65-1.06,1.24,0c.13.36,8.37,8.48,8.32,8C51.85,59.35,51.64,60.92,51.77,61.7ZM73.32,27.36c.26,1.63.43,17.46,0,16.25C72.91,41.74,64,36,64.38,34.88c-1.33-2.83-4.95-3.46-7.74-1.19.23.71.09-8.9,0-9.77.11-1.22-.08-3.12.24-1.77-.38-1.57,7,1.58,7,1.13-.25,0-.29,2.94,0,1.19a1.61,1.61,0,0,0,1.38.26c.78,1.33,1.58-.19,1.38-.26.46,1.81.17-.06,0-.74-.06-1,4.87-.11,4.78.77C72.62,23.1,73,24.21,73.32,27.36Zm4.27,26.3c.28,1.33-15.8-14.78-16.3-15.77-.76-1.86-.72,0,0-1.24s.44-1.51,1.24,0c.24.58,16.4,16.47,16.3,15.76.51.49,0-.21,0,1.24-.58-1.1-.32.64-.63.27C77.71,53.87,77.52,52.54,77.59,53.66ZM56.69,38.83c.26,1.32.46,1,0-.06-.4-1.53-.36-.24,0-1.13s-.42-1.19,0,0c.58.24,1,.35,1.25,0,.15.15,16,14.66,16.3,15.76-.06-.95.43,1.26,0,1.25-.44.14-.71,1.69-.63.26-.24-.18-.79.06-.61-.24C73,55.68,56.46,37.56,56.69,38.83Zm0,5.33c.22,1.12.39-1.62,0-2.45C56.32,40.41,70.14,55.8,70.43,55c.67-.43,0-.08,0,1.24,0,.68-.33.87-.64.27-.09.13-.7-1-.61-.25C68.88,55.21,56.45,43.07,56.64,44.16ZM65.91,59c.17.89-9-8.31-9.28-9a4.42,4.42,0,0,1,0-2.44C56.89,47,66.86,57,67.13,57.72c.5.72.42,1.36,0,1.24-.07.28-.6-.47-.63.27C66.06,58.37,65.94,58.29,65.91,59ZM63,61.41c.12.67-6.12-5.63-6.34-6.13a6.2,6.2,0,0,1,0-2.44c.19-.46,7.36,6.72,7.56,7.3.45.64.4,1.25,0,1.25-.11.25-.55-.29-.63.27C63.18,61,63,60.93,63,61.41Zm-2.55,3.07c.08.48-3.64-3.31-3.79-3.66a9.09,9.09,0,0,1,0-2.45c.13-.33,4.88,4.43,5,4.85.42.54.38,1.14,0,1.24-.13.23-.5-.14-.63.26C60.69,64.26,60.51,64.18,60.42,64.48Zm-1.89,3.76c.11.44-5.54-5.22-5.74-5.55-.16-.51,2.34.26,2.49,0s4.29,3.94,4.47,4.32c.45.54.4,1.13,0,1.25-.11.23-.54-.1-.63.27C58.76,68.06,58.6,68,58.53,68.24ZM40.7,55.56c.62,1,1.39.62,1.24,0C41.53,54,57.88,72.19,58.24,71.3c.77-.58-.09-.26,0,1.24.07.76-.3,1-.63.27-.06.15-.78-1.19-.61-.25-.41-1.29-16.23-15.39-16.3-15.76C40.1,56.43,40.12,54.63,40.7,55.56Z"/><path class="cls-4" d="M39.53,59.75c.77,4.83,20.62,22.43,19.25,18.86-1.11-5.56,7.94-10.29,8.94-13.53,1.23-3.42-1.06-4.41.29-.3.66,2.12,4.27-.33,4-2.9.64.38-.48-4.24.69-.23-.88-4.67.71,1.42.71.24-.73-.11,3.72,8.64,4.57,3.46,0-.61-.87.59.14.12.87,3.35,2.26-1.32,2.52-1.55,1.37,5.38,2.14.35,1.64-1.68-.18-3,5.14-7.62,4.88-5,0-4.79-10.38-13.74-9.11-8.92-.65,4.4.1-22.55.06-20.78-1.27-1.36-2.6-2.15-2.34-4.2,1.15-1.51-9.58-5.08-9.16-1.58-1-.47-.61-9.78,0-6.51,0,1.89-1.33,4.66-1.38-.26.19,1.69-2.74,2-1.38.26,1-2.64,1.34,6.24,0,6,1.28-.4-5.66-2.87-4.93-.85,0-2.41-1.35-3.78-1.4-.12,1.26-5.61-2.35-1.1-3.74.43-.48,5.52-2.12,5.55-2,2.88,1-4-1.13,10.91,0,12.17-1.53-4.31-5.15,8-6.43,5C39.37,48.15,35.22,51.45,39.53,59.75ZM51.77,45.3c0,.28-2.09-1.88-2.16-2.08-.4-.65-.41-.71,0-1.24s.83-.6,1.24,0c0,.12,1,1,.94.9C51.79,42.89,51.74,45,51.77,45.3Zm0,2.83c.08.49.15,2.81,0,2.45-.12-.56-5.21-4.61-5.11-4.94-.22-.67-.49-1.31,0-1.24a2.61,2.61,0,0,1,1.24,0,46.3,46.3,0,0,1,3.89,3.75C51.65,47.66,51.7,47.66,51.77,48.13Zm0,8c.12.68-7.44-6.9-7.66-7.4-.52-1.11-.51-.43,0-1.24s.7-.94,1.24,0c.11.3,6.48,6.58,6.44,6.22C51.84,53.75,51.66,55.46,51.77,56.11Zm0,5.59c.15.81-9.27-8.62-9.54-9.23-.57-1.27-.56-.34,0-1.24s.65-1.06,1.24,0c.13.36,8.37,8.48,8.32,8C51.85,59.35,51.64,60.92,51.77,61.7ZM73.32,27.36c.26,1.63.43,17.46,0,16.25C72.91,41.74,64,36,64.38,34.88c-1.33-2.83-4.95-3.46-7.74-1.19.23.71.09-8.9,0-9.77.11-1.22-.08-3.12.24-1.77-.38-1.57,7,1.58,7,1.13-.25,0-.29,2.94,0,1.19a1.61,1.61,0,0,0,1.38.26c.78,1.33,1.58-.19,1.38-.26.46,1.81.17-.06,0-.74-.06-1,4.87-.11,4.78.77C72.62,23.1,73,24.21,73.32,27.36Zm4.27,26.3c.28,1.33-15.8-14.78-16.3-15.77-.76-1.86-.72,0,0-1.24s.44-1.51,1.24,0c.24.58,16.4,16.47,16.3,15.76.51.49,0-.21,0,1.24-.58-1.1-.32.64-.63.27C77.71,53.87,77.52,52.54,77.59,53.66ZM56.69,38.83c.26,1.32.46,1,0-.06-.4-1.53-.36-.24,0-1.13s-.42-1.19,0,0c.58.24,1,.35,1.25,0,.15.15,16,14.66,16.3,15.76-.06-.95.43,1.26,0,1.25-.44.14-.71,1.69-.63.26-.24-.18-.79.06-.61-.24C73,55.68,56.46,37.56,56.69,38.83Zm0,5.33c.22,1.12.39-1.62,0-2.45C56.32,40.41,70.14,55.8,70.43,55c.67-.43,0-.08,0,1.24,0,.68-.33.87-.64.27-.09.13-.7-1-.61-.25C68.88,55.21,56.45,43.07,56.64,44.16ZM65.91,59c.17.89-9-8.31-9.28-9a4.42,4.42,0,0,1,0-2.44C56.89,47,66.86,57,67.13,57.72c.5.72.42,1.36,0,1.24-.07.28-.6-.47-.63.27C66.06,58.37,65.94,58.29,65.91,59ZM63,61.41c.12.67-6.12-5.63-6.34-6.13a6.2,6.2,0,0,1,0-2.44c.19-.46,7.36,6.72,7.56,7.3.45.64.4,1.25,0,1.25-.11.25-.55-.29-.63.27C63.18,61,63,60.93,63,61.41Zm-2.55,3.07c.08.48-3.64-3.31-3.79-3.66a9.09,9.09,0,0,1,0-2.45c.13-.33,4.88,4.43,5,4.85.42.54.38,1.14,0,1.24-.13.23-.5-.14-.63.26C60.69,64.26,60.51,64.18,60.42,64.48Zm-1.89,3.76c.11.44-5.54-5.22-5.74-5.55-.16-.51,2.34.26,2.49,0s4.29,3.94,4.47,4.32c.45.54.4,1.13,0,1.25-.11.23-.54-.1-.63.27C58.76,68.06,58.6,68,58.53,68.24ZM40.7,55.56c.62,1,1.39.62,1.24,0C41.53,54,57.88,72.19,58.24,71.3c.77-.58-.09-.26,0,1.24.07.76-.3,1-.63.27-.06.15-.78-1.19-.61-.25-.41-1.29-16.23-15.39-16.3-15.76C40.1,56.43,40.12,54.63,40.7,55.56Z"/></g><g id="spotlight-6" data-name="spotlight"><path d="M109.3,57.5c-.69.8,10.29-2.66,10.58-2.34.36,0-19.47-.68-20.17-1.45-.86.48-11.21,3.32-11.15,2.68-.71-.41-7.64,7.49-7.47,7.69,0,.19,15.37.71,14.38.67C95.93,64.55,108.31,57.72,109.3,57.5Z"/><path d="M81.6,87.48c-.41-2.39,8.83,8.24,8.13,8-.33,2.49,9,5.32,9.59,5.91-.71,1.61,20-27.73,19.62-26,.53,1.62-10-8.27-10.81-5.57.55,2.65-13,.25-13.83-.67C95.24,71.32,80.73,88.72,81.6,87.48Z"/><path d="M61.2,105.54C61.8,107,65.37,116,64.65,118c.46.93,21.86-6.2,22.07-4.57.26-.33-3.79-11.93-4.12-10.71.66.07-3.8-10.59-4-12.7.4-.22-14.83-.32-14.94.78C63.92,88.6,61.24,104.31,61.2,105.54Z"/><path d="M66.66,66.75C66,68.66,45.5,100.39,45.81,98.3c.85,3,5.95-6.57,6-5.35.44-2,10.71-3.59,10-5.47-.68,3.06,13.93-22.89,13.37-20.17,0,2.44-4.2-3.29-4.57-3.46C70,66.92,67.08,65.21,66.66,66.75Z"/><path d="M89.09,65.63c1.11,5-1.45,7.22-6.67,14.65-5,2.8-9.17,6.13-13.08,6.89.67.31,0-.61,0,0-2-.37-3.14,0-3.13-1.06-.78,1.26-1-.15-.89-1.7.75-.28-1.39,2-1.46,2.19-.48-.19.91,1.53.94.92,3.61,4.31,11.47,2.14,19-5.83,1.3,1,.32-1.66,1.37-1.45.59-1.14,4.61-5.19,4.06-5.84,1.4-3.67,2.19-6.05,1.91-8.68C91.63,66.73,89.73,66.29,89.09,65.63Z"/><path d="M37.49,60.77c-.34.57,20.18,21.2,19.25,18.86-.59-3.31,8.77-8.63,8.94-13.53-.28-3.77.76,3.29.29-.3-1.42-.74,3.65.76,4-2.9,0,3.38,1.79,2.39.69-.23-.17-2.5.24,5.34.71.24.17-1.07,3.83,1.32,4.57,3.46-.81-1.39.69,3.45.14.12,0,2.78,2.72,2.58,2.52-1.55,1,1.82,2.12-.33,1.64-1.68-1.18,1.2,5.09-10.06,4.88-5,1.14,4.84-8.62-6-9.11-8.92-1.1-1.25-1-19.14.06-20.78.27-3.57-2.62.51-2.34-4.2-1.14,3.87-7.8-3.18-9.16-1.58.27,4.46.26-6.75,0-6.51.27-4.55-1.69,1.89-1.38-.26.52,5.62-2.25-1.49-1.38.26-1.28-1.69-1.32,5,0,6,.19,3.57-5.74-1.92-4.93-.86,0-3.19-2.4-1.28-1.4-.12-1.12,3.39-2.67-1.12-3.74.43-2,2.53-2.81.59-2,2.88-1-4.92-1,15.44,0,12.17-2.62,5.62-3,.66-6.43,5C36.93,52.7,33.67,58.38,37.49,60.77ZM49.73,46.33s-2.11-2-2.16-2.09c-.38-.53-.37-.62,0-1.24s.92-.16,1.24,0c-.07,0,.92,1.11.94.9C49.72,44.08,49.72,46.4,49.73,46.33Zm0,2.83c0,.05.1,2.68,0,2.44s-5.12-4.44-5.11-4.94c-.38-.7-.29-.53,0-1.24.18-.42.86,0,1.24,0,0,.36,4,4,3.89,3.76S49.71,49.28,49.73,49.16Zm0,8c-.06.09-7.51-7.07-7.66-7.4-.44-.8-.38-.2,0-1.24.28-.86,1,.14,1.24,0-.22-.1,6.38,6.73,6.44,6.22C49.69,55.19,49.7,57.31,49.73,57.13Zm0,5.59c-.07.1-9.36-8.83-9.54-9.23-.47-.89-.39-.06,0-1.24.26-1,1,.24,1.24,0-.28-.12,8.25,8.66,8.32,8.05A20.74,20.74,0,0,0,49.73,62.72ZM71.28,28.38c-.12.19.28,17,0,16.25-.2-1.11-9-7.08-8.91-8.73C60.49,33,58,35,54.6,34.71c-.48-.25-.12-8.54,0-9.77-.11-.21.69-.88.24-1.76-.14-.85,6.88,2.89,7,1.12.06-.36-.25.47,0,1.19-.29-.34.82,1.4,1.38.26.5,1.13,1.73,1.12,1.38-.26.35.61.17-.29,0-.74-.39.4,4.85-.93,4.78.77C71,27.36,71.13,27.22,71.28,28.38Zm4.27,26.3c-.12.15-16-15.12-16.3-15.77-.57-1.24-.42.46,0-1.24.2-1.35,1.11.61,1.24,0-.52-.2,16.17,16.77,16.3,15.76.27,1.31.85,1.62,0,1.24-.32-.5-.49,1.72-.63.27C76,54.63,75.66,55.19,75.55,54.68ZM54.65,39.86c-.14.13.3.6,0-.07-.21-.91-.06.21,0-1.13-.12-1,.23.93,0,0-.17-.55.76.65,1.25,0-.08,1,16.78,16.48,16.3,15.76.2-.35.26,2.34,0,1.25-.11-.12-.67-.33-.63.26-.53-.39-.23.85-.61-.24C70.67,56.54,54.59,40.2,54.65,39.86Zm0,5.32c-.1.13.26-1.9,0-2.45C54.43,42,68.34,57.2,68.39,56.06c.24-.51.52,1.71,0,1.24-.58,0-.51,1.13-.64.27-.28.83-.06.53-.61-.25C67,56.74,54.55,45.47,54.6,45.18ZM63.87,60c-.07.11-9.07-8.54-9.28-9a12.34,12.34,0,0,1,0-2.44c-.07-.67,10.63,10.79,10.5,10.15,0,.2.28,1.56,0,1.24-.22.83-.1.75-.63.27C64.17,59.79,64,60.4,63.87,60Zm-2.94,2.43c-.06.08-6.19-5.8-6.34-6.13a18,18,0,0,1,0-2.44c-.05-.51,7.65,7.79,7.56,7.3.12.24.3,1.41,0,1.25-.21.67-.19.63-.63.27S61.07,62.77,60.93,62.43ZM58.38,65.5c0,.06-3.69-3.43-3.79-3.66s0-2,0-2.45,5.07,5.2,5,4.85c.19.26.32,1.25,0,1.24-.2.53-.26.53-.63.26S58.53,65.79,58.38,65.5Zm-1.89,3.76c-.05,0-5.6-5.33-5.74-5.55s2.47.41,2.49,0S57.8,68.32,57.71,68c.14.27.3,1.23,0,1.25-.2.5-.2.51-.63.27S56.63,69.54,56.49,69.26ZM38.66,56.58c.21-.19,1.23.28,1.24,0-.22-.91,16.24,17.12,16.3,15.77.22-.67.58,1.86,0,1.24-.69,0-.53,1.28-.63.27-.3,1,0,.64-.61-.25-.15-.69-16.4-14.31-16.3-15.76C38.39,57.19,38.26,57.27,38.66,56.58Z"/></g></g><g id="chair"><path class="cls-4" d="M240.08,178c1.29-.06,7.48.11,5.52-2.09,2.77,1.91-.47-1.1-.63-3.15,3.12.52,2.44-41.62-.16-43.09,2,1.57-11.2,0-9.32,1.1-2.15-1.21-1.6,40.41-.31,40.74-1.45.9-80-.19-78.71-.46.13,1.07,1.95-39.15.88-40.45-.11.52-12-.55-12.65-.63.28-.43-.65,45.11-1.51,43,1.81.71,0,4.47,0,4.48,3.32-.77,6.17-.53,7-1.24-.26.06-.41,22.19.55,21.52,1.33-.08,7.18-1.08,4,0,3.7-.39.86-21.14,3.62-20.77-1.05-.44,78.31-1.21,76.66-.75,1.85.49-.21,22,.69,22.26.63-2.2,5.93-2.55,3.49-1.56C239.63,198.3,242.59,176.44,240.08,178Z"/><path class="cls-5" d="M165.5,153.13c1.3,0,58.32.26,58.16.29,5.72-.31,7.29,2.36,7.29,5.81,0-.46,1,3.12-1.26,2.94.19,3-2.83,5.64-6,5.61,1.4.27-56.66-.07-57.91,0-3.39,0-4-2.62-6.09-5.58.14,0,.07-3.48.3-3.27A5.71,5.71,0,0,1,165.5,153.13Z"/><path class="cls-6" d="M165.5,153.13c1.3,0,58.32.26,58.16.29,5.72-.31,7.29,2.36,7.29,5.81,0-.46,1,3.12-1.26,2.94.19,3-2.83,5.64-6,5.61,1.4.27-56.66-.07-57.91,0-3.39,0-4-2.62-6.09-5.58.14,0,.07-3.48.3-3.27A5.71,5.71,0,0,1,165.5,153.13Z"/><path class="cls-5" d="M166.22,102.51c-.23-.63,58.34-.68,58.52.7,3.92-.23,5.62,2.4,4.62,4.89,1.14.69.94,34.37,2.61,35.2a8.18,8.18,0,0,1-6.91,5.21c-1-.06-59.26.71-57.95.72-2.79,0-5.91-2.93-5.4-6.06-2.08-.1.11-34.17-.77-35.76C161.21,105.49,164.22,102.79,166.22,102.51Z"/><path class="cls-6" d="M166.22,102.51c-.23-.63,58.34-.68,58.52.7,3.92-.23,5.62,2.4,4.62,4.89,1.14.69.94,34.37,2.61,35.2a8.18,8.18,0,0,1-6.91,5.21c-1-.06-59.26.71-57.95.72-2.79,0-5.91-2.93-5.4-6.06-2.08-.1.11-34.17-.77-35.76C161.21,105.49,164.22,102.79,166.22,102.51Z"/></g><g id="chair-2" data-name="chair"><path d="M238.83,175.29c3,1.84,9.17-.39,8.55,1-1.81-.12-1.93-4.36-.81-4.26-1.74,1.42-.17-42.79-1.89-42.46,2-.18-9.82,1.13-8.23-.47-.09-.06.09,40.84-2.15,42-.07.09-78.32-.23-77.7-1.93,1.88-.12,1.23-38.19-1.88-40.41,1.07-.09-9.34,1.8-11.16-.36,3.18,1.18.24,45.19,1.43,43.91.6,1.94.59,3.05,0,2.49-.32.75,6,2.46,4,.73,0,.17,3.16,20.93,2.85,20.19.85-.68,4.87.59,4,.83.38-1.31-.47-19.26-.31-20.25,0,1,79.72,0,78.7-.66-1.05,1.14-.3,19.25,2.64,20.12-2.24,1.55,2.23,1.41,4.18,1.71C240.46,196.41,241.47,175.79,238.83,175.29Z"/><path class="cls-6" d="M166.06,152.29c.48,0,60-.12,59.34,0a6,6,0,0,1,6.62,5.51c-.54,0-.81,3.06-.34,3.36-2.35,3.31-2.66,5.9-5.55,6-1-.44-59.29,0-60.4-.19s-3.92-2.52-4.29-5.64c-.52.06-1.49-3.25-1.78-3.38C160.66,154.79,163.38,152.47,166.06,152.29Z"/><path class="cls-6" d="M166.77,101.61c.68-.72,57.53-.4,59,.41,2.88-.33,5.15,1.41,5.83,4.69-1.66.72-1.44,35.12-1.86,35.28,1.51,3.72-2.21,6.51-3.54,4.89-1.65.48-59.88,1.39-60.76.67-1.73.6-4.15-2.64-5.06-6-1,.34-.25-33.52-.65-34A10.17,10.17,0,0,1,166.77,101.61Z"/></g><g id="camera"><g id="camera-2" data-name="camera"><path class="cls-4" d="M125.39,128.7a16.58,16.58,0,0,0,10-.47c2.24.52,2.32-2,3.33-3.48-.78-.59-1.18-5.47-.21-5.13.49-.08,8.18,5.94,8.33,6.4,1.5-.2,2.56-.45,3-1.13a6,6,0,0,0,.18-1.64c.87-.43,1.79-13.25,1-13.09-.12-1-1.76-2.35-2.26-3.13-.53.18-2,0-2.94,1.42.06-.16-8.27,4.8-6.18,4.66-.37,1.31-1.84-4.54-1.5-4.4.67-1-.87-3.66-1.83-3.9-1.84-5.73-6.27-11.37-12-9.91-3.71-.83-8.41,1.25-9.52,4.42C112,95,105.74,92.47,99,95.75c-3.44,3.43-6.23,10.23-1.62,14.61.77,3.54,3.11,5.57,6.84,5.29-.47,1.2-.19,8.28-.4,9.14.77,1.89,3.48,3.48,3.8,4.3,4.2-.74,8.73.79,12.21.74m14.06-14.23a2.29,2.29,0,0,1,2,1.7c0,1-1.41,1.7-2,1.79-.27-.06-16.83-.09-16.48-.06A1.55,1.55,0,0,1,116,117.4c.07-1.05.55-1.8,1.29-1.74C117.22,115.59,133.61,115.66,133.89,115.6Zm-9.47-18a8.26,8.26,0,0,1,7.83,6.84,142.73,142.73,0,0,0-15.32-.08,7.2,7.2,0,0,1,7.47-6.68C124.53,97.63,124.21,97.68,124.42,97.57Zm5.8,10.14a4,4,0,0,1,1.89,1.85c-.13,1.28-1.66,1.71-2.18,2.06a68.46,68.46,0,0,0-17-.31c-.49,0-1,.73-.92,1.65.08-.56-.25,9.26-.48,9.56a2.45,2.45,0,0,1-1.86,1.74c-.57-.2-1-1-1.26-1.85,0,.32-.18-9.56.29-9.94,0-2.35,1.55-4.58,3.81-4.3A127.63,127.63,0,0,1,130.22,107.71Zm-24.5-10.27c3.87.42,7.2,3.3,7.78,6.72-1.6.4-3.63.26-5,.79a3.85,3.85,0,0,0-4.21,4.27c.13,0,.14,3.59.19,3.78-4.09-1.23-7.07-5.17-6.49-9a7.08,7.08,0,0,1,7.37-6.24C105.63,97.55,105.5,97.7,105.72,97.44Z"/></g><g id="tripod"><path class="cls-4" d="M117.3,129.82c.59.18.46,1.61-1-.25.26.53-2.18,2.87-3.34,1-1.16-.69,1.49,7,.17,4.65,1.69.36,6.12,2.72,4.48,1.21,2.83-1.09-25.06,45.21-23,44.43,0,1.79.24,1.92,2.23,2.42-1-.37-19.29,32.47-21.92,33.46.74-1.24.18,1.63,2.19,1.31-1.45-1.12.88-2.38-.21-2.14,0,1.55.9.49,2.44,1-1-1.53,17.15-34.19,17.45-34.75-1,.25-.18,1,1.21.94,1.12.39,20.89-38.58,20.3-38.46,1.3-.68-.35,39.17,2.35,37.76-2,3.27-1.36,2.6,1.85,2-1.81-1.8-2.39,34-1.44,35.06.8-1.44-.63-2.27-.15-1,2.53.64,3-1,1.31-1.3,2.38.89,0-32.31,2.69-32.23-3.28-1.87-2,.79-1.77.77,1.48-.59,1.4-38.3.37-40.1-.12-.23,23.5,37.56,20.49,38.67,1.7-.33,3.08-.53,1.53-2.45,2.79,3.29,20.92,35.79,21,33.6-1.74,1,.58.66.52,2.18-.24-1.68-1.59-.37-1.14-.3.88-.81,3.47-3,2.18-.79-1.46.37-20.72-34.57-19.74-34.93.17,1.76,1-.66,2,1,.23-1.25-27-45.42-27.42-46,.93,1.57,17.74.65,19.81-1.54-1.39,3.29-.79-4.05-1.44-3.83,1.55-.76-13.56-2-13.84-2,0,1.46-.16.39-.42-1.34-.35-.07-7.48,2.77-10.88,2.38C119.09,130.26,118.93,129.66,117.3,129.82Z"/></g></g><g id="camera-3" data-name="camera"><g id="camera-4" data-name="camera"><path d="M124.58,130.16a29,29,0,0,0,9.29-.48c3.68-.46,5.88-2.35,4.34-4.4-.43.52,1.09-4,.42-4,1-1.07,8,5.7,8,4.57,2,1.82,2.85,1.27,3.28.12.93-.36,2.22-1,1-2.2-.7.47-.8-11.82-.44-13-.45-.9-1.45-2.91-2.33-2.21-.08-.25-.47-.31-1.49,0-.5.8-9.06,6-7.33,5.56-.65.15-.88-3.16-.25-4a6.39,6.39,0,0,0-4.25-4.88c1.5-5.34-5.47-10.62-11.25-10.29-2.35-.17-5.71,2.36-8.62,5.83-2.6-5.21-8.87-7.35-15-4.3-4.4,3.78-5.79,10.48-4.51,15.07,1.55,3,5.2,5.79,7.91,6.16,1.56,0,2,7.37.76,6.89-.44,2.37,2.14,5.47,4.65,4.4,4.07,1.52,6.44,1,10.19,1.07m14.71-13.41c1.13,0,2.2.78,1.71,1.69.47.91-.15,1.67-1.62,1.71-.15,0-16,0-16.27,0a2,2,0,0,1-1.57-1.81c.24-.85.64-1.63,1.38-1.62C117.44,116.68,133.86,116.65,133.61,116.65Zm-9.4-18c4.06.09,7.58,3,7.62,6.83a119.18,119.18,0,0,0-15.05-.26c.42-3.65,4-6.44,7.64-6.46C124.69,98.56,124.4,98.66,124.21,98.66Zm5.68,10.27c1.16.32,2.22,1,1.57,1.85.46.81-.19,1.54-1.76,1.61a133.54,133.54,0,0,0-16.72.22c-.27-.44-1.06.62-1.07.77.29.4-.13,10.08-.35,10.15.23,1-.08,1.77-1.52,1.48-1.22.22-2-.32-1.87-1.83-.18.35,0-9.83.26-9.5a5.42,5.42,0,0,1,4.41-5A156.16,156.16,0,0,1,129.89,108.93ZM105.5,98.64c4,.22,7.48,3,7.57,6.71a31.46,31.46,0,0,0-4.68.4,4.9,4.9,0,0,0-4,4.74c.28-.46.1,3.48.09,3-4-.36-7-4.43-6.4-8.49a8.73,8.73,0,0,1,7.59-6.49C105.43,98.71,105.69,98.65,105.5,98.64Z"/></g><g id="tripod-2" data-name="tripod"><path d="M119.4,131.34c-.08-.11-1.8,1.6-.07,0-2.06,1.21-7.08.42-4.8,2-.66-1.12-.08,3-.49,2.63,1.2,2.42,3.49,2.64,3.64.84.86.11-22.84,46.37-24.74,47-.55-1.19.45.74,2.6-.73C94.1,182,74.79,214.83,76.62,216c.74-.12.53,1.08-.47,3.72,1.74-1,2.86-.63.77-3.09,1.61,2.46,1.3.08,3.28.58-.92-.17,17.64-31,15.65-31.14.23-2.23,3.38-1.87,2.17-.14-.27-.5,21-40.91,19.93-39.25,2.34.38,2.35,38.7,1.08,40.23.91-1.73,1.22-1.78,1-.53-.11-1.17,1.83,32.64,2.2,34-.41-.57-2.16-2,.69.24.82.73,2-2.58,1.78-2.56-1.13,2.11-.19-32.7-1.81-33.6,1.26,2.28,2.26,1.39.71.61,1.19-1.4,2.14-38,1.3-40.08-.56,1.84,22.16,40.91,21.45,38.78,1,2,1.6,1,.62-.28.4,2,17.18,33.81,18.31,35.49.8-.34-1,.94,0-2.29.09,1.82,1.93,3.19-.14,1.58,3.9.64,1.51-1.71,1.18-1.24,1.21-.86-17.9-32.35-19.17-33,1.05.3,4.28-.36,4.24-2-1.74,1-27-42.66-28.44-44.12.9.52,19.44-1.34,17-.48,2.88,1-.13-6.4,2.27-5.78-1.32,1-17-.71-15.63.61-2.39.88-.64-2,.57-.32-.88-2-8.88-3.53-10.4-.37C118.73,130.15,117.05,129.82,119.4,131.34Z"/></g></g><g id="mic"><path class="cls-4" d="M236,118.42c-.1,0,6.51-6.53,6.59-6.48"/><path class="cls-4" d="M235.85,118.34c-.23-.25,6.43-6.64,6.32-6.76a5.51,5.51,0,0,0-6.83-.24A5.25,5.25,0,0,0,235.85,118.34Z"/><path class="cls-4" d="M262.17,139.56c.16,0-3.75-3.25-3.69-3.19s2-2,1.87-2a36.33,36.33,0,0,1,3.21,3.93A11.58,11.58,0,0,1,262.17,139.56Z"/><path class="cls-4" d="M238.66,120.12c.13,0,0-.09.08,0,0-.09,5.26-5.52,5.25-5.38a4.66,4.66,0,0,0-1.26-2.42c.17.06-6.35,6.66-6.28,6.55A5.93,5.93,0,0,0,238.66,120.12Z"/><path class="cls-4" d="M239.43,122.41c-.44-2.68,9,5,9.63,5.43-.79.58-.56,64.57-.15,64.23-.67-1.47,1.57-.16,1.65-1.11-.12,1.6-.06-59.85.47-59.44-.22-.61,7.31,4.77,7.19,5,0-.91.62-2.31.94-1.86-.43-.1.27-.57-.23.91,0-.1,1.37-2.42,1.26-1.12.11-1.53-15-20.49-15-19.8.17-.08-5.92,4.88-5.77,5.27-.35,2.11-.29-.11-.42-.06C239.25,121.28,239.59,121.8,239.43,122.41Z"/><polygon class="cls-4" points="244.87 115.25 244.91 115.28 244.87 115.24 244.87 115.25"/></g><g id="mic-2" data-name="mic"><path d="M236.85,118.34c-.23-.25,6.43-6.64,6.32-6.76a5.51,5.51,0,0,0-6.83-.24A5.25,5.25,0,0,0,236.85,118.34Z"/><path d="M263.17,139.56c.16,0-3.75-3.25-3.69-3.19s2-2,1.87-2a36.33,36.33,0,0,1,3.21,3.93A11.58,11.58,0,0,1,263.17,139.56Z"/><path d="M239.66,120.12c.13,0,0-.09.08,0,0-.09,5.26-5.52,5.25-5.38a4.66,4.66,0,0,0-1.26-2.42c.17.06-6.35,6.66-6.28,6.55A5.93,5.93,0,0,0,239.66,120.12Z"/><path d="M240.43,122.41c-.44-2.68,9,5,9.63,5.43-.79.58-.56,64.57-.15,64.23-.67-1.47,1.57-.16,1.65-1.11-.12,1.6-.06-59.85.47-59.44-.22-.61,7.31,4.77,7.19,5,0-.91.62-2.31.94-1.86-.43-.1.27-.57-.23.91,0-.1,1.37-2.42,1.26-1.12.11-1.53-15-20.49-15-19.8.17-.08-5.92,4.88-5.77,5.27-.35,2.11-.29-.11-.42-.06C240.25,121.28,240.59,121.8,240.43,122.41Z"/><polygon points="245.87 115.25 245.91 115.28 245.87 115.24 245.87 115.25"/></g><g id="man"><g id="face"><path class="cls-7" d="M183.32,119.43c-.55,4-1.4,8.46.92,12.16a7,7,0,0,0,5.85,3.63,6.2,6.2,0,0,0,3.22-.94s3.21-1.95.95-.76l-4.58.6.18,0-3.56-2.74.13.23-.81-3c.42,4,.73,7.3,4.59,9.51a8.52,8.52,0,0,0,6.17.89,9,9,0,0,0,2.43-1,8.33,8.33,0,0,0,1.43-1.14c.47-.44.27-.31-.61.41,1.68.18,4.33-1.74,5.39-2.87a10.36,10.36,0,0,0,2.56-5.47c.65-4,.81-9.29-3.62-11.17l2.13,2.13-.24-.35.81,3c-.39-5.62-4.35-9.54-9.87-10.45-3.17-.53-6.41.83-7.32,4.16-.78,2.84,1,6.79,4.16,7.32l1.42.24c.73.49.83.5.31,0a1.49,1.49,0,0,1-.6-1.29c-.44.08,1,3.31,1.05,3.35.32.51,2.95,2.61,1.81,1.72L196.09,125c-.4-1.62.14,1.68-.1,1.53.17.1,2.25-1.38-.22-.53-.81.27-3.5,1.27-3.74,2.24,2-1.35,3.7-1.16,5.08.55.36,1.4.51,1.51.46.33.41-2.91-2.09-5.82-4.73-6.48a6.2,6.2,0,0,0-4.81.72c.22-.13-3.37,2.19-.94.76l3-.81-.16,0,4.21,1.75c.78.93.37,1.38.45,0,0-.82.1-1.63.21-2.45.44-3.18-.77-6.39-4.15-7.32-2.78-.76-6.89,1-7.33,4.16Z"/><path d="M185,119.2a12.47,12.47,0,0,0,2.25,15A12.09,12.09,0,0,0,197,137.6a11.76,11.76,0,0,0,9.8-6.54A12,12,0,0,0,206,118a.72.72,0,0,0-.95-.34c-.08,0-.17.07-.24.05a2.84,2.84,0,0,1-.43-.21c.11-.1.2-.27.32-.29a13.11,13.11,0,0,1,2.15-.31,14.52,14.52,0,0,1,2.18.23c.11,0,.21.19.31.29-.12.07-.25.22-.37.21-.73,0-1.46-.13-2.18-.2a3.64,3.64,0,0,0-.45,0c.4.69.81,1.33,1.16,2a13,13,0,1,1-22.6-1.07,5.06,5.06,0,0,0,.42-1.35c.41-1.5.81-3,1.23-4.51,0-.12.25-.19.38-.28,0,.15.14.32.1.46-.36,1.39-.78,2.77-1.13,4.17a17.53,17.53,0,0,0-.25,1.77C185.56,119.2,185.57,119.2,185,119.2Z"/><path d="M199.45,130.18c-1.09.77-2.16,1.5-3.21,2.27a.51.51,0,0,1-.73,0c-1-.76-2.11-1.49-3.19-2.25l-2.55,2.09a1.09,1.09,0,0,1-.27.22,2.12,2.12,0,0,1-.44,0c0-.15,0-.37.12-.45.68-.59,1.38-1.15,2.07-1.72,1-.86,1-.86,2.14-.09.69.49,1.4.95,2.07,1.47a.62.62,0,0,0,.87,0c.92-.68,1.88-1.32,2.8-2a.46.46,0,0,1,.69,0c.88.76,1.79,1.48,2.68,2.24.12.11.15.34.22.51-.18,0-.41,0-.53-.1C201.27,131.69,200.38,130.94,199.45,130.18Z"/><path d="M204.84,105.84a4.31,4.31,0,0,1-.4.32c-1.11.66-2.22,1.32-3.34,2a21.54,21.54,0,0,0-7.3,7.4,4,4,0,0,1-.4.58.25.25,0,0,1-.41-.27,1.39,1.39,0,0,1,.22-.39,23.76,23.76,0,0,1,9.49-8.92c.54-.28,1.06-.62,1.61-.9.12-.06.32,0,.49,0Z"/><path d="M195.76,106.64a1.34,1.34,0,0,1-.2.29c-3.21,2.62-5.25,6.12-7.3,9.63,0,.08-.09.2-.16.24s-.27.11-.34.06-.08-.21-.09-.33,0-.09.06-.13a48.27,48.27,0,0,1,4.56-6.94c.9-1,1.94-2,2.92-2.92a.48.48,0,0,1,.35-.11C195.62,106.43,195.68,106.55,195.76,106.64Z"/><path d="M198.39,116.1c0-.16-.11-.36,0-.47a4.29,4.29,0,0,1,.5-.55,17.15,17.15,0,0,1,8.79-5.25c.39-.11.76-.25,1.15-.33a1.14,1.14,0,0,1,.45.13c-.09.12-.17.32-.29.36-.83.29-1.68.54-2.52.79a15.61,15.61,0,0,0-7.27,4.77,5.82,5.82,0,0,0-.45.72Z"/><path d="M209.53,114.05c.11,0,.55.17.55.26,0,.44-.44.26-.7.31-1.52.26-3,.42-4.54.8a12.18,12.18,0,0,0-2.34,1.17,1.63,1.63,0,0,1-.38.22,1.87,1.87,0,0,1-.47,0c.06-.14.07-.33.17-.4a11,11,0,0,1,4.67-2C207.44,114.29,208.39,114.18,209.53,114.05Z"/><path d="M197.81,108.84c-.09.13-.16.24-.24.34-1.58,1.94-3.15,3.89-4.74,5.82-.1.13-.35.27-.45.22-.29-.14-.11-.36,0-.52,1.6-2,3.19-4,4.8-5.91a.69.69,0,0,1,.41-.16S197.73,108.76,197.81,108.84Z"/><path d="M186.46,117.46a23,23,0,0,1,2.17-6.6c.05-.11.24-.15.37-.22,0,.15.14.35.08.46a24.89,24.89,0,0,0-2.08,6.24c0,.14-.21.24-.32.36Z"/><path d="M207.22,113.27a5.94,5.94,0,0,1-.57.25c-1.17.32-2.36.55-3.49,1a21.39,21.39,0,0,0-2.4,1.29c-.14.07-.34,0-.51,0,.08-.15.13-.36.25-.44a13.78,13.78,0,0,1,5.88-2.31,1.06,1.06,0,0,1,.39,0A1.83,1.83,0,0,1,207.22,113.27Z"/><path d="M200.78,110.6a3.9,3.9,0,0,0-.35.19,25.07,25.07,0,0,0-4.88,4.07c-.06.06-.12.15-.19.17a2.51,2.51,0,0,1-.39,0c0-.14,0-.32,0-.39a25.58,25.58,0,0,1,5.18-4.33c.12-.07.32,0,.49,0Z"/><path d="M202.93,110.48a.92.92,0,0,1-.25.22,13.4,13.4,0,0,0-4.64,4c-.09.11-.3.12-.45.18,0-.17,0-.39,0-.5a13.49,13.49,0,0,1,4.74-4.17C202.7,110.1,202.94,110.16,202.93,110.48Z"/><path d="M190,116c-.09-.22-.16-.35-.2-.48s0-.08.07-.12a20.43,20.43,0,0,1,3.66-4.37c.13-.1.36-.08.54-.12-.06.17-.08.41-.2.51a20.46,20.46,0,0,0-3.44,4.1A6.42,6.42,0,0,1,190,116Z"/><path d="M199,117.9l.34.18,4.62,3c.13.09.31.25.29.35,0,.28-.24.32-.47.17L199,118.49a.56.56,0,0,1-.2-.35C198.75,118.07,198.88,118,199,117.9Z"/><path d="M192.92,117.91c.07.07.2.13.22.21a.33.33,0,0,1-.08.29c-.27.2-.55.38-.83.56-1.31.85-2.62,1.7-3.94,2.53-.14.09-.37,0-.56.08.08-.17.12-.4.26-.49,1.53-1,3.08-2,4.63-3Z"/><path d="M208,115.91c-.24.13-.35.24-.47.25a8.58,8.58,0,0,0-3.52,1.13c-.08.06-.25,0-.38-.06,0-.13,0-.32.11-.37a8.25,8.25,0,0,1,3.79-1.23C207.59,115.62,207.72,115.76,208,115.91Z"/></g><g id="body"><path class="cls-4" d="M176.9,175.05c-.66-.58,5.55,24.13,5.14,25.22.21,1.34,2,3.34,4.88,4-.13.36.44-.93,1-.1,3.38-1.73,3.78-3.06,3.89-5.88-.44.29-4-22.69-4.49-22,.35,0,3.14-2.5,2.8-1.24-.06.38,11.79-.08,11.27,0,.16-.64-.14-.89,0,0-.64-1-.22-2-.2-3.09-.65.14-.52-.31-1.28-1.35-.19.92-.9.33-.57-1.47-.43.25.28.92,0-.4.65,0,.05-.69.07-1.48.2-2.35.58-2,2-2.74,0,1,.64-1.23.36-.22.61-.54,2.61-.84,3-1.87.17.17.11.81,0,0,.08.8.69.32,1.38-.84-.62.53-1.76-10.74-2-9.86,0,.57,1.23-1.14.56,0-.74-.35.79-.84.55,0-.29,1,2.22,9.79,2.11,10.46,0-.51.2-.63-.5.3.61.61.73,1,0,0,.12-.4-2.89,2.6-2.48,1.51.16-.43.73-.51,0,.48a4.73,4.73,0,0,0-3.92,4.71c.22,1.69,1.82,2.91,4,2.37.41.82.24,1,.91-.38-.71-.45,4.08-2.36,3.9-2.39.68-.94,1.74-1.26,1-.62.67-1.28,1.94-2,2.51-1.54,1.07-1.19,2-1.77,1.52-3.49-.43-.67-.41,0-.13-.65.74-.71-2.46-9.83-2.23-11.09-.14-.22-2.2-9.58-1.87-9.28-.45.7.12,0,0,0-.42,1,.19-4.41-6.11-6.71.19-1.08-.54,1.27,0,0-.47.89.18,1,0,0-1.27,2.31-5.56,4.22-8.24,4s-6.7-1.68-8.25-4a8.89,8.89,0,0,0-6.11,6.69c-.11-.85-2.1,9.52-1.9,9.43.51-.28-1.47,10.58-2.2,10.95-.32,1.21-.38-.39-.14.66a6.65,6.65,0,0,0,1.52,3.49c.23.46,1.89.62,2.51,1.54-.63-.71,1.57-.51,1,.62.74,1.24,4.3,1.74,3.89,2.39.11,1.67,1.29.61,1.74.49.59.56,1.57-.63,2.83-1.59.55-.23.92.13.37-.89.07-1.42.4-.42.06-.4,0,.58.67-2.09,0-1.22-.66-1.7-.45-1.94-1.49-2-.12.59-.87-1.16-1-.63.32.6-4.35-2.66-3.93-2.41.63-.91-.64-.16,0,0,.39.27,0,1-.47-.29.05-.22,2.66-9.62,2.06-10.22-.68.47.29-.7.56,0,.72.64.93-.44.55,0,.05-1.21-2.35,10.46-1.93,9.61.29-.16,1.79-.15,1.36.83-.63.83.32-.13,0,0,.07-1,2.4,1.8,3,1.87,0,.12.78,1.48.36.22.46,1.81,1.78.34,2,2.74.58.24.75.08.06,1.48-.35,1.18-.37-1,0,.4-.55,1.75-1-.06-.56,1.47a14.09,14.09,0,0,1-3.78,2.12c.75-.63.52-.79,0,0a3.28,3.28,0,0,1-2.32-.66c-.36-.71-5.36-2.68-5.43-3.33.53-.24-.22-.45-.31,0"/><path class="cls-8" d="M176.9,175.05c-.66-.58,5.55,24.13,5.14,25.22.21,1.34,2,3.34,4.88,4-.13.36.44-.93,1-.1,3.38-1.73,3.78-3.06,3.89-5.88-.44.29-4-22.69-4.49-22,.35,0,3.14-2.5,2.8-1.24-.06.38,11.79-.08,11.27,0,.16-.64-.14-.89,0,0-.64-1-.22-2-.2-3.09-.65.14-.52-.31-1.28-1.35-.19.92-.9.33-.57-1.47-.43.25.28.92,0-.4.65,0,.05-.69.07-1.48.2-2.35.58-2,2-2.74,0,1,.64-1.23.36-.22.61-.54,2.61-.84,3-1.87.17.17.11.81,0,0,.08.8.69.32,1.38-.84-.62.53-1.76-10.74-2-9.86,0,.57,1.23-1.14.56,0-.74-.35.79-.84.55,0-.29,1,2.22,9.79,2.11,10.46,0-.51.2-.63-.5.3.61.61.73,1,0,0,.12-.4-2.89,2.6-2.48,1.51.16-.43.73-.51,0,.48a4.73,4.73,0,0,0-3.92,4.71c.22,1.69,1.82,2.91,4,2.37.41.82.24,1,.91-.38-.71-.45,4.08-2.36,3.9-2.39.68-.94,1.74-1.26,1-.62.67-1.28,1.94-2,2.51-1.54,1.07-1.19,2-1.77,1.52-3.49-.43-.67-.41,0-.13-.65.74-.71-2.46-9.83-2.23-11.09-.14-.22-2.2-9.58-1.87-9.28-.45.7.12,0,0,0-.42,1,.19-4.41-6.11-6.71.19-1.08-.54,1.27,0,0-.47.89.18,1,0,0-1.27,2.31-5.56,4.22-8.24,4s-6.7-1.68-8.25-4a8.89,8.89,0,0,0-6.11,6.69c-.11-.85-2.1,9.52-1.9,9.43.51-.28-1.47,10.58-2.2,10.95-.32,1.21-.38-.39-.14.66a6.65,6.65,0,0,0,1.52,3.49c.23.46,1.89.62,2.51,1.54-.63-.71,1.57-.51,1,.62.74,1.24,4.3,1.74,3.89,2.39.11,1.67,1.29.61,1.74.49.59.56,1.57-.63,2.83-1.59.55-.23.92.13.37-.89.07-1.42.4-.42.06-.4,0,.58.67-2.09,0-1.22-.66-1.7-.45-1.94-1.49-2-.12.59-.87-1.16-1-.63.32.6-4.35-2.66-3.93-2.41.63-.91-.64-.16,0,0,.39.27,0,1-.47-.29.05-.22,2.66-9.62,2.06-10.22-.68.47.29-.7.56,0,.72.64.93-.44.55,0,.05-1.21-2.35,10.46-1.93,9.61.29-.16,1.79-.15,1.36.83-.63.83.32-.13,0,0,.07-1,2.4,1.8,3,1.87,0,.12.78,1.48.36.22.46,1.81,1.78.34,2,2.74.58.24.75.08.06,1.48-.35,1.18-.37-1,0,.4-.55,1.75-1-.06-.56,1.47a14.09,14.09,0,0,1-3.78,2.12c.75-.63.52-.79,0,0a3.28,3.28,0,0,1-2.32-.66c-.36-.71-5.36-2.68-5.43-3.33.53-.24-.22-.45-.31,0"/><path class="cls-4" d="M214.63,175.05c.26.46-2.92-6.65-2.89-6.32-.23.27-.24.27-.31,0s-5.46,2.84-5.43,3.33c-.37,0-.89.88-1.43.56a12.11,12.11,0,0,0,.17,2.43,56.09,56.09,0,0,0-1.91,10.09c0,.12-.09-.74-.25-.88.16.14-3,13.81-2.86,14-.66,3.09,1.22,5.83,3.89,5.88a6.33,6.33,0,0,1,1,.1c2.11-.47,4.29-2.08,4.88-4-.13.06.66-1.76.41-2a9.28,9.28,0,0,0,.09-3.76c.37-.33.15-.09.65.15C210.35,194.16,214.92,175.08,214.63,175.05Z"/><path class="cls-8" d="M214.63,175.05c.26.46-2.92-6.65-2.89-6.32-.23.27-.24.27-.31,0s-5.46,2.84-5.43,3.33c-.37,0-.89.88-1.43.56a12.11,12.11,0,0,0,.17,2.43,56.09,56.09,0,0,0-1.91,10.09c0,.12-.09-.74-.25-.88.16.14-3,13.81-2.86,14-.66,3.09,1.22,5.83,3.89,5.88a6.33,6.33,0,0,1,1,.1c2.11-.47,4.29-2.08,4.88-4-.13.06.66-1.76.41-2a9.28,9.28,0,0,0,.09-3.76c.37-.33.15-.09.65.15C210.35,194.16,214.92,175.08,214.63,175.05Z"/></g><g id="body-2" data-name="body"><path d="M175.9,174.05c-.66-.58,5.55,24.13,5.14,25.22.21,1.34,2,3.34,4.88,4-.13.36.44-.93,1-.1,3.38-1.73,3.78-3.06,3.89-5.88-.44.29-4-22.69-4.49-22,.35,0,3.14-2.5,2.8-1.24-.06.38,11.79-.08,11.27,0,.16-.64-.14-.89,0,0-.64-1-.22-2-.2-3.09-.65.14-.52-.31-1.28-1.35-.19.92-.9.33-.57-1.47-.43.25.28.92,0-.4.65,0,.05-.69.07-1.48.2-2.35.58-2,2-2.74,0,1,.64-1.23.36-.22.61-.54,2.61-.84,3-1.87.17.17.11.81,0,0,.08.8.69.32,1.38-.84-.62.53-1.76-10.74-2-9.86,0,.57,1.23-1.14.56,0-.74-.35.79-.84.55,0-.29,1,2.22,9.79,2.11,10.46,0-.51.2-.63-.5.3.61.61.73,1,0,0,.12-.4-2.89,2.6-2.48,1.51.16-.43.73-.51,0,.48a4.73,4.73,0,0,0-3.92,4.71c.22,1.69,1.82,2.91,4,2.37.41.82.24,1,.91-.38-.71-.45,4.08-2.36,3.9-2.39.68-.94,1.74-1.26,1-.62.67-1.28,1.94-2,2.51-1.54,1.07-1.19,2-1.77,1.52-3.49-.43-.67-.41,0-.13-.65.74-.71-2.46-9.83-2.23-11.09-.14-.22-2.2-9.58-1.87-9.28-.45.7.12,0,0,0-.42,1,.19-4.41-6.11-6.71.19-1.08-.54,1.27,0,0-.47.89.18,1,0,0-1.27,2.31-5.56,4.22-8.24,4s-6.7-1.68-8.25-4a8.89,8.89,0,0,0-6.11,6.69c-.11-.85-2.1,9.52-1.9,9.43.51-.28-1.47,10.58-2.2,10.95-.32,1.21-.38-.39-.14.66a6.65,6.65,0,0,0,1.52,3.49c.23.46,1.89.62,2.51,1.54-.63-.71,1.57-.51,1,.62.74,1.24,4.3,1.74,3.89,2.39.11,1.67,1.29.61,1.74.49.59.56,1.57-.63,2.83-1.59.55-.23.92.13.37-.89.07-1.42.4-.42.06-.4,0,.58.67-2.09,0-1.22-.66-1.7-.45-1.94-1.49-2-.12.59-.87-1.16-1-.63.32.6-4.35-2.66-3.93-2.41.63-.91-.64-.16,0,0,.39.27,0,1-.47-.29.05-.22,2.66-9.62,2.06-10.22-.68.47.29-.7.56,0,.72.64.93-.44.55,0,.05-1.21-2.35,10.46-1.93,9.61.29-.16,1.79-.15,1.36.83-.63.83.32-.13,0,0,.07-1,2.4,1.8,3,1.87,0,.12.78,1.48.36.22.46,1.81,1.78.34,2,2.74.58.24.75.08.06,1.48-.35,1.18-.37-1,0,.4-.55,1.75-1-.06-.56,1.47a14.09,14.09,0,0,1-3.78,2.12c.75-.63.52-.79,0,0a3.28,3.28,0,0,1-2.32-.66c-.36-.71-5.36-2.68-5.43-3.33.53-.24-.22-.45-.31,0"/><path d="M213.63,174.05c.26.46-2.92-6.65-2.89-6.32-.23.27-.24.27-.31,0s-5.46,2.84-5.43,3.33c-.37,0-.89.88-1.43.56a12.11,12.11,0,0,0,.17,2.43,56.09,56.09,0,0,0-1.91,10.09c0,.12-.09-.74-.25-.88.16.14-3,13.81-2.86,14-.66,3.09,1.22,5.83,3.89,5.88a6.33,6.33,0,0,1,1,.1c2.11-.47,4.29-2.08,4.88-4-.13.06.66-1.76.41-2a9.28,9.28,0,0,0,.09-3.76c.37-.33.15-.09.65.15C209.35,193.16,213.92,174.08,213.63,174.05Z"/></g><g id="eyes"><path d="M196,125.19c.06.71.06.71.73.47a5.49,5.49,0,0,1,4.87.25c.29.18.44.1.47-.24s.07-.47.1-.7a3.2,3.2,0,0,0-2.87-3.25A3.15,3.15,0,0,0,196,125.19Zm5.63.21a10,10,0,0,1-1-.42.64.64,0,0,1-.26-.36,1.48,1.48,0,0,0-.94-1.09c-.31-.11-.45,0-.49.28,0,.13-.07.26-.12.45a2.3,2.3,0,0,1-.42-.17c-.33-.21-.57-.07-.6.25-.06.54-.41.69-.85.77-.15,0-.29.09-.43.13a2.58,2.58,0,0,1,3.92-2.66A2.75,2.75,0,0,1,201.67,125.4Z"/><path d="M187.11,124.91a3,3,0,0,0,0,.42c0,.12,0,.24.07.37,0,.33.19.37.45.22a5.55,5.55,0,0,1,5.06-.19c.41.16.49.11.53-.32,0-.1,0-.19,0-.29a3.25,3.25,0,0,0-2.05-3.23A3.09,3.09,0,0,0,187.11,124.91Zm4.26-2.44a2.7,2.7,0,0,1,1.39,2.77c-.35-.09-.7-.18-1-.3-.08,0-.14-.18-.17-.28a1.5,1.5,0,0,0-.88-1.1c-.31-.13-.54-.14-.57.29a1.93,1.93,0,0,1-.12.41,1.79,1.79,0,0,1-.37-.15c-.33-.22-.59-.13-.64.23-.07.54-.43.72-.86.85a3.82,3.82,0,0,0-.46.21,2.57,2.57,0,0,1,.88-2.62A2.48,2.48,0,0,1,191.37,122.47Z"/><path class="cls-4" d="M197.57,122.69a2.53,2.53,0,0,0-1,2.55c.14,0,.28-.1.43-.13.44-.08.79-.23.85-.77,0-.32.27-.46.6-.25a2.3,2.3,0,0,0,.42.17c.05-.19.1-.32.12-.45,0-.32.18-.39.49-.28a1.48,1.48,0,0,1,.94,1.09.64.64,0,0,0,.26.36,10,10,0,0,0,1,.42,2.75,2.75,0,0,0-1.17-2.82A2.52,2.52,0,0,0,197.57,122.69Z"/><path class="cls-4" d="M187.65,125.4a3.82,3.82,0,0,1,.46-.21c.43-.13.79-.31.86-.85.05-.36.31-.45.64-.23a1.79,1.79,0,0,0,.37.15,1.93,1.93,0,0,0,.12-.41c0-.43.26-.42.57-.29a1.5,1.5,0,0,1,.88,1.1c0,.1.09.25.17.28.34.12.69.21,1,.3a2.7,2.7,0,0,0-1.39-2.77,2.48,2.48,0,0,0-2.84.31A2.57,2.57,0,0,0,187.65,125.4Z"/></g></g></g></g></g></g></svg>