<svg xmlns="http://www.w3.org/2000/svg" xmlns:xlink="http://www.w3.org/1999/xlink" viewBox="0 0 344 236"><defs><style>.cls-1{stroke:#000;stroke-miterlimit:10;stroke-width:2px;fill:url(#radial-gradient);}.cls-2{opacity:0.4;}.cls-3{fill:#fff;}.cls-4{opacity:0.64;}.cls-5{opacity:0.56;}.cls-6{fill:#43cee6;}.cls-7{opacity:0.63;}</style><radialGradient id="radial-gradient" cx="172" cy="118" r="146.51" gradientTransform="translate(0 5.9) scale(1 0.95)" gradientUnits="userSpaceOnUse"><stop offset="0" stop-color="#fff"/><stop offset="0.06" stop-color="#f3fffb"/><stop offset="0.16" stop-color="#d4fff2"/><stop offset="0.3" stop-color="#a1ffe3"/><stop offset="0.47" stop-color="#5bffce"/><stop offset="0.51" stop-color="#47ffc8"/><stop offset="0.6" stop-color="#4bfcca"/><stop offset="0.7" stop-color="#57f4d0"/><stop offset="0.79" stop-color="#6be6da"/><stop offset="0.88" stop-color="#87d3e9"/><stop offset="0.98" stop-color="#abbafb"/><stop offset="1" stop-color="#b3b5ff"/></radialGradient></defs><g id="Layer_2" data-name="Layer 2"><g id="blue"><g id="laboratory"><g id="lab"><rect id="frame" class="cls-1" x="1" y="1" width="342" height="234" rx="18"/><g id="desk" class="cls-2"><path d="M107.91,54.39c1,1-44.75-1.25-45.81,0,.7,1.43-1.76.1-1.07.93-.17-.33.91,18.77,0,18.51,1,.92-.59,2.16,1.07.93-1.32-1.31,46.61.36,45.81,0-.84,1.37,2.43.71,1.06-.93-1.07.09-.19-17.11,0-18.51C110.05,55.37,107.15,54.75,107.91,54.39Zm-1.07,18.52c.9.79-42.71-1-43.68,0,1.18,1.17-.63-16.92,0-16.67-.15-.27,44.51.21,43.68,0C107.79,56.57,105.62,73.2,106.84,72.91Z"/><path d="M66.36,72c.14-1,9.54,0,9.59,0,.37-.17,1.4-.43,1.06-.92.14-.8-.34-12.73,0-13,.29-.92-.53-.83-1.06-.92.27-1.24-9.4,1.23-9.59,0-.63-.86-1.07,1.17-1.07.92-.33-.33.09,13.88,0,13C65.19,70.43,66,71.85,66.36,72Zm1.06-13c.1-.73,7.43,0,7.46,0-.14-.13.21,11.09,0,11.11.09-.59-7.68.18-7.46,0S67.57,58.92,67.42,59Z"/><path d="M82.34,63.65c0-.48,7.42.56,7.46,0,.62.49,1.22-.76,1.06-.93-.12.55-.27-4.7,0-4.63.21-.47-.3-.92-1.06-.92,0-.38-7.52.55-7.46,0-.41.4-1,.45-1.07.92-.23-.37-.07,4.51,0,4.63C81.13,63.53,81.76,63.18,82.34,63.65ZM83.4,59c0-.2,5.31.24,5.33,0a23.43,23.43,0,0,1,0,2.78c-.07.23-5.48,0-5.33,0A19.79,19.79,0,0,0,83.4,59Z"/><path d="M95.12,63.65c.18.1,7.57-.37,7.46,0,.3-.41,1.29-.57,1.06-.93-.22.34.24-5.14,0-4.63a6.33,6.33,0,0,0-1.06-.92c.28,0-7.65.13-7.46,0-.37-.1-1,1-1.06.92s.21,4.45,0,4.63C94.12,63.47,94.67,64.15,95.12,63.65ZM96.19,59c.1,0,5.38-.16,5.32,0-.15-.18.13,2.71,0,2.78s-5.19-.22-5.32,0S96.26,59.23,96.19,59Z"/><path d="M82.34,72c-.06.13,7.49-.55,7.46,0,.74-.08,1.18-.33,1.06-.92.24.3-.14-4.43,0-4.63.08,0-.55-1.49-1.06-.93.14.56-7.65-.4-7.46,0-.48.51-1,.78-1.07.93.07.47.27,4.93,0,4.63C81.46,71.55,81.6,71.53,82.34,72Zm1.06-4.63c0,.06,5.35-.23,5.33,0a16.13,16.13,0,0,1,0,2.78,43.08,43.08,0,0,1-5.33,0C83.45,70.34,83.32,67.16,83.4,67.35Z"/><path d="M95.12,72c.08-.38,7.19.26,7.46,0,.58.16,1.15-.75,1.06-.92a34,34,0,0,1,0-4.63c.26-.74-.73-.46-1.06-.93.12.13-7.69-.39-7.46,0-.44-.57-1.2.47-1.06.93a30.07,30.07,0,0,0,0,4.63C94.12,71.19,94.75,72.09,95.12,72Zm1.07-4.63c0-.16,5.17.11,5.32,0,0,.07,0,2.63,0,2.78-.05-.24-5.39.14-5.32,0A10,10,0,0,0,96.19,67.35Z"/><path d="M72.75,60.87c.08.08-3.09-.12-3.2,0a1,1,0,0,0-1.06.93,1,1,0,0,0,1.06.92c.1.09,3.31,0,3.2,0a1,1,0,0,0,1.07-.92A1.14,1.14,0,0,0,72.75,60.87Z"/><path d="M72.75,63.65s-3.22-.1-3.2,0c-.43.11-1.21.43-1.06.93,0,.36.6,1,1.06.92a17.1,17.1,0,0,1,3.2,0c.69-.06,1.13-.33,1.07-.92A1.11,1.11,0,0,0,72.75,63.65Z"/><path d="M73.82,105.31c-.14.77-19.5,1.63-19.18,0-1.71-.18-3.7,3.56-4.26,3.7,0,3.41,1.95,4.8,4.26,3.71.78-1.24,9.33-.13,8.52,0-.25-1.45.14,9.61,0,10.51-.62-.57-9.25,1.5-9,3.46-.8,1.33-.11-1.16-.54,1.22.33-.4.07-.68,1.41.47.43-.77,9.22-4.73,9.16-3.54-.13-.67,9.27,3.37,9.15,3.53.8,2,.61,1,1.41-.47.68-.9,0-.28-.55-1.22.81-.61-.1,0,0,0,.61.22-9.22-4.92-8.95-3.45-.72-1.43.4-9.14,0-10.51.67,1.57,7.89-1.35,8.53,0,2.4-1.75,3.82-.24,4.26-3.71C77.36,106.29,76.59,107.08,73.82,105.31Zm0,5.56c-.12.12-19.45.26-19.18,0A2.58,2.58,0,0,1,52.51,109c0-.8,1-1.67,2.13-1.85.66-.19,19.86,0,19.18,0A1.84,1.84,0,0,1,76,109C75.42,110,75.35,111.15,73.82,110.87Z"/><path d="M60.46,83.82c.32-.5.28-1.2,0-1.33a1,1,0,0,0-1.53,0c0-.25-3.57,3.53-3.64,3.16-.32.35-.33,1.24,0,1.31s1.12.53,1.51,0C56.61,86.87,60.52,83.88,60.46,83.82Z"/><path d="M62.94,82.63c-.25.28-6.35,5.34-6.25,5.44-.39-.29-.44.76-.12,1.31a1.73,1.73,0,0,0,1.5.1c.08-.48.28-.23.12-.1-.22.58,6.35-5.6,6.26-5.44.48-.24.2-.69-.11-1.3-.49-.32-.87.06-1.39,0C63,82.24,63.15,82.67,62.94,82.63Z"/><path d="M94.06,105.31c.07,0,4.24-.12,4.26,0a1.15,1.15,0,0,0,1.06-.92c.07-.39-.37-.77-1.06-.93-.13-.14-4.28,0-4.26,0-.72-.16-1,.26-1.07.93C93.18,104.93,93.58,105.35,94.06,105.31Z"/><path d="M98.32,112.72s-4.45.06-4.26,0a1,1,0,0,0-1.07.92c0,.58.38.82,1.07.93.15-.1,4.28.13,4.26,0,.67-.13,1.19-.31,1.06-.93A.93.93,0,0,0,98.32,112.72Z"/><path d="M98.32,122a25.25,25.25,0,0,1-4.26,0,.93.93,0,0,0-1.07.92c-.14.61.35.84,1.07.93-.07,0,4.07.09,4.26,0,.71,0,1.17-.36,1.06-.93C99.43,122.55,99,122.1,98.32,122Z"/><path d="M109,78.46c1.49,1.77,0-.6-1.06-.92.83,3.85-21.91-1-22.38,0,.22-1.42-.68,6.9-1.06.92-1-1.65-2.24,15.57,0,16.67-1.7,5.55-6.33,2.52-6.47,0-1.07,1.29-.15,1,.08-.47,2.41-1.71-1.87.78-2.13-2.31-1.48,1.08-1.2.38,0,0,.9-1,.12-9.15,0-12-.84,5.74-2.65.32-1.07-.92-2.58-3-20,3.39-21.31,0,.48-1.33-1.35,6.48-1.06.92-2.29-2.65-1.68,9.63,0,12,1.29,3.2-1.6,2,0,0-3.28,1.44-2.4.25-2.16,2.63-1.36,3.75-2.1,2.7,0,.15,2-4.09-16,5-15.36,0-.17,2-.23-2.86-4.32-3.18C32,88.39,23.76,82.54,26,79.43c.5-2.52,17.23-19.94,15.79-16.71,2.06-1.89,1.13,2.8.33.59-.18-4.84-2.13,0,.11.14-1.7-2.39-2.77,7.06-.91,6.84-1.15-3.28,2.2,7.92,2.13,3.78-.28,4.59,1.51,5.47,1.43.42,1.8-5.36,12.57-2.38,11.46-4.92,2.82,2.82-1.62-4.19.52-1.22,1.89,3.11-2-1.44,0-.07.5-.43-3.41-.4-2.13-3.79-1.19-3.57-4.89-9.41-6.82-3.57.42,2.21,1.38-.17,0-.13-.52,5-1.17,1.82-1.88-3.33-2.71-4.39-1.7,3.55-1.43-.41,1.94-2.43-2.15.44-1,.41,0-2.52,1.32,4.45,0,0,1.29,4.88.25-3.53-.47-.84,1.74-6.55.85,4.19-1.46-.33-1.2,3.47-2.13-4.85-.45,1.15.78,1.81-1.84-5,.47.83-2.58-4.79.85,2.94,0,0-.26-3.4-2.31-4-1,.41,1-1-1.2-5.23-.52,1.23-1.61-.09,2.24-1,0,0,1.66-1.1.93,2.81.61,1-.82-.31,1.82.82-.47.27,1.4,5.07-19.18,12.49-17.39,18.46,1.71,2-1.61,5.9.15,1.3,1.91,6.15,2.39,5.2.67.21-1.54,5,.75,1.11.57-.18-2.35,4.46,2.05,7.1,4.17,11-1.38,5.19-1.37-3.33-3.76,3.08,2,1.32-2.37,5.45-1,.92-.13-3.22.16,33.56,0,31.48,2-5.16,1.17-2.32,1.06.93-.16-3.53,3.34,2.9,1.07-.93,2.49,4.9.9-23.92,0-26.85.14-5.09,55.94-5.25,57.52,0-.26,1.77-.88,29,0,26.85-2-5.47.07-.63,1.07.93.21-4,21.28-2.76,23.44,0,.4,4.69.29-2.81,1.06-.93-1.68-5.87-1.4-23.38,0-26.85,1.9-5.78-1,3-.16-.46,2.1,5.19.3-1.79.16-.46,1.21,5.45.43,2,0-3.71-1.85-2.42-1.29,4.64-.16-.46-2,1.78-1.86,4.91.16-.46C106.7,95,106.56,72.94,109,78.46ZM49.72,63c1.52.69,2.47,1.26,3,2.3.12.52,1.75,2.81,1.69,3,.11-.19-9.54,5-9.59,4.09-.14-.22-2-3.11-1.68-3-1.46-1.57-.1-4.72,2.51-6.18a9.51,9.51,0,0,1,4-.23C50,62.92,49.39,62.29,49.72,63Zm-4-1.76a3.78,3.78,0,0,1-.93.32c-.3.31-.64.28-1,.51,0-.06-1.22-1.89-1.23-2.15a9.73,9.73,0,0,1,1.91-.82A15.45,15.45,0,0,0,45.69,61.27Zm39.84,48.67c.37.23,21.42,0,21.31,0a55.48,55.48,0,0,1,0,7.41c.2-.15-21.21.66-21.31,0C85.29,117.18,84.94,109.38,85.53,109.94Zm21.31-14.81c.09.49-5.3.07-5.33,0,.06.84,0-16,0-15.74,0-.31,5.35,1.41,5.33,0C106.78,79,106.69,93.93,106.84,95.13ZM94.06,79.39c.09.5,5.35.07,5.32,0,.05.84,0,15.51,0,15.74.05-.31-5.3,1.41-5.32,0C94,94.77,93.91,78.19,94.06,79.39Zm-7.46,0c.09.5,5.35.07,5.33,0,0,.84,0,15.51,0,15.74,0-.31-5.31,1.41-5.33,0C86.54,94.77,86.45,78.19,86.6,79.39Zm-32,1.85c.33.35,19.27.05,19.18,0,.18.59.1,11,0,11.11.17-.22-19.09,1-19.18,0C54.42,92.1,54.1,80.39,54.64,81.24ZM52.85,95.13c.12,0-.37-.29-.44-.55.28-.2.47-.44.63-.38s22.48.09,22.37,0,0,.09.65.36c-.4.33-.08.54-.41.57s-.06,0,0,0c.65,0-.34,0-.07,0-.4,0-23,0-22.68,0S52.19,95.06,52.85,95.13Zm-23-1.39a3.36,3.36,0,0,1,2.81,1.39c.06.07-5.6,0-5.63,0A3,3,0,0,1,29.87,93.74Zm-4,5.09c1.39.06.41-1.84,0-1.85.78.1,81.4,0,81,0,.76,0,.36,2,0,1.85C105.92,98.79,23.61,98.69,25.88,98.83Zm81,1.85c.37.24.11,7.44,0,7.41.21.39-21.19-.11-21.31,0a60.9,60.9,0,0,0,0-7.41C85.29,100.51,106.25,100.12,106.84,100.68ZM85.53,126.61c.37.23.11-7.38,0-7.41.21.39,21.43-.11,21.31,0a60.9,60.9,0,0,1,0,7.41C106.6,126.44,84.94,126,85.53,126.61Z"/><path d="M89.8,91.42c0-.12-1,0-1.07,0a.93.93,0,0,0-1.06.93c-.06.65.38.79,1.06.93,0,0,1.12-.11,1.07,0,.55-.08,1.08-.27,1.06-.93A.88.88,0,0,0,89.8,91.42Z"/><path d="M97.25,91.42c.08.15-1.06-.14-1.06,0a1,1,0,0,0-1.07.93,1,1,0,0,0,1.07.93c0,.16,1.06.13,1.06,0,.51-.13,1.1-.35,1.07-.93C98.31,92,97.83,91.57,97.25,91.42Z"/><path d="M103.64,93.28c0-.13,1.1.13,1.07,0a1,1,0,0,0,1.07-.93c0-.35-.49-.76-1.07-.93-.09,0-1.08.16-1.07,0a.86.86,0,0,0-1.06.93C102.52,92.71,103.06,93.26,103.64,93.28Z"/><path d="M45.46,111.79c.25-1.15-14.76-.32-14.51,0-.14-1.22-1.4,1.16-1.09.91-.47-.38.5.76,0,.18-.33,1,2.86,14.6,3.2,14.82a3.49,3.49,0,0,0,1.06.76c.47-1.29,8.55,0,8.12,0,0,.94,1-1.28,1.07-.76-.14-1.09,3.2-14.29,3.19-14.82.53.29-.19-1.12-.85-1.07C45.63,110.7,45.28,111.72,45.46,111.79Zm-4.09,14.82c.17-.9-6.57-.25-6.4,0,.32-1-2.93-12.37-2.7-13-.34-.34,12.25.5,11.9,0C43.93,114.43,41.19,126.55,41.37,126.61Z"/></g><g id="counter"><g id="counter-2" data-name="counter"><path d="M307.38,130.88c-.9-2.63-251.43-2.63-244.06-5.31-13,2.68-17.49,5.62-17,9.54-.54-.3-.54,6.28-4.38,3.39,3.84,6.5,8.37,9.45,13.28,12.09C56,148,72.91,148,71.84,148.27c1.07-.31,1.07-.31-6.71,1.07,7.78-1.37,10.66,73,8,70.43C75.93,226,80.6,229,92.94,227.1,86.23,229,89.55,229,88,229.47c7.12-.51,11.81-3.46,12.14-9.11-.19,2,2.18-59.27-4.63-56.6,6.81-2.67,167.66-2.67,174.93-3-7.27.29-4.9,61.57-8.71,59.14,4,6.08,8.62,9,8.48,6,5.77,3,9.09,3,2.78,0,11.93,3,16.61.07,23.8-2.72-7.05-.85-4.18-75.25,3.53-77.56-7.71,2.3-7.71,2.3-2.53,3-5.18-.75,8.65-.75,15.09-3.18-.85,2.43,3.68-.5,3.8-2.3-.12-1.83-.12-8.41-.87-7.67C316.6,131.2,312.07,128.25,307.38,130.88ZM89.87,224.16a23.32,23.32,0,0,1-.05-3.75c-.27,2-3.59,2-3.57,2.2-.15-.22-.31-.32-.46-2.54.15,2.14-2.72-72.12-2.75-70.16,0-2-.24-2-.28-1.72.16-.24.3-.33,0,.63A5.56,5.56,0,0,0,83,146c.1,1.93,9.74,1.93,10,.56-.25,1.37-.25,1.22-.3,1.6a5.08,5.08,0,0,0,.32-1.72,23.46,23.46,0,0,1-.53,3.47C92.71,148,89.84,222.21,89.87,224.16Zm13.27-69.47c-.53-.17-.28-6.72,4.09-6.9-4.37.17-4.37.17-4,.18-.32,0,159.52,0,157.25-.21,2.27.2,2.27.2,1.87.38.4-.17.65,6.38,0,6.4C263,154.52,102.61,154.52,103.14,154.69Zm176.52,69.47a23.32,23.32,0,0,1-.05-3.75c-.27,2-3.59,2-3.57,2.2-.15-.22-.31-.32-.46-2.54.15,2.14-2.72-72.12-2.75-70.16,0-2-.24-2-.28-1.72.16-.24.3-.33,0,.63a5.56,5.56,0,0,0,.2-2.8c.1,1.93,9.74,1.93,10,.56-.25,1.37-.25,1.22-.3,1.6a5.08,5.08,0,0,0,.32-1.72,23.46,23.46,0,0,1-.53,3.47C282.5,148,279.63,222.21,279.66,224.16ZM56.81,141.56c-.83-.17-.84-6.74,6-6.92-6.82.18,243.68.18,244.18.19-.5,0-.49,6.55-4,6.37C306.48,141.38,56,141.38,56.81,141.56Z"/><path class="cls-3" d="M307.38,130.88c-.9-2.63-251.43-2.63-244.06-5.31-13,2.68-17.49,5.62-17,9.54-.54-.3-.54,6.28-4.38,3.39,3.84,6.5,8.37,9.45,13.28,12.09C56,148,72.91,148,71.84,148.27c1.07-.31,1.07-.31-6.71,1.07,7.78-1.37,10.66,73,8,70.43C75.93,226,80.6,229,92.94,227.1,86.23,229,89.55,229,88,229.47c7.12-.51,11.81-3.46,12.14-9.11-.19,2,2.18-59.27-4.63-56.6,6.81-2.67,167.66-2.67,174.93-3-7.27.29-4.9,61.57-8.71,59.14,4,6.08,8.62,9,8.48,6,5.77,3,9.09,3,2.78,0,11.93,3,16.61.07,23.8-2.72-7.05-.85-4.18-75.25,3.53-77.56-7.71,2.3-7.71,2.3-2.53,3-5.18-.75,8.65-.75,15.09-3.18-.85,2.43,3.68-.5,3.8-2.3-.12-1.83-.12-8.41-.87-7.67C316.6,131.2,312.07,128.25,307.38,130.88ZM89.87,224.16a23.32,23.32,0,0,1-.05-3.75c-.27,2-3.59,2-3.57,2.2-.15-.22-.31-.32-.46-2.54.15,2.14-2.72-72.12-2.75-70.16,0-2-.24-2-.28-1.72.16-.24.3-.33,0,.63A5.56,5.56,0,0,0,83,146c.1,1.93,9.74,1.93,10,.56-.25,1.37-.25,1.22-.3,1.6a5.08,5.08,0,0,0,.32-1.72,23.46,23.46,0,0,1-.53,3.47C92.71,148,89.84,222.21,89.87,224.16Zm13.27-69.47c-.53-.17-.28-6.72,4.09-6.9-4.37.17-4.37.17-4,.18-.32,0,159.52,0,157.25-.21,2.27.2,2.27.2,1.87.38.4-.17.65,6.38,0,6.4C263,154.52,102.61,154.52,103.14,154.69Zm176.52,69.47a23.32,23.32,0,0,1-.05-3.75c-.27,2-3.59,2-3.57,2.2-.15-.22-.31-.32-.46-2.54.15,2.14-2.72-72.12-2.75-70.16,0-2-.24-2-.28-1.72.16-.24.3-.33,0,.63a5.56,5.56,0,0,0,.2-2.8c.1,1.93,9.74,1.93,10,.56-.25,1.37-.25,1.22-.3,1.6a5.08,5.08,0,0,0,.32-1.72,23.46,23.46,0,0,1-.53,3.47C282.5,148,279.63,222.21,279.66,224.16ZM56.81,141.56c-.83-.17-.84-6.74,6-6.92-6.82.18,243.68.18,244.18.19-.5,0-.49,6.55-4,6.37C306.48,141.38,56,141.38,56.81,141.56Z"/><path class="cls-3" d="M307.38,130.88c-.9-2.63-251.43-2.63-244.06-5.31-13,2.68-17.49,5.62-17,9.54-.54-.3-.54,6.28-4.38,3.39,3.84,6.5,8.37,9.45,13.28,12.09C56,148,72.91,148,71.84,148.27c1.07-.31,1.07-.31-6.71,1.07,7.78-1.37,10.66,73,8,70.43C75.93,226,80.6,229,92.94,227.1,86.23,229,89.55,229,88,229.47c7.12-.51,11.81-3.46,12.14-9.11-.19,2,2.18-59.27-4.63-56.6,6.81-2.67,167.66-2.67,174.93-3-7.27.29-4.9,61.57-8.71,59.14,4,6.08,8.62,9,8.48,6,5.77,3,9.09,3,2.78,0,11.93,3,16.61.07,23.8-2.72-7.05-.85-4.18-75.25,3.53-77.56-7.71,2.3-7.71,2.3-2.53,3-5.18-.75,8.65-.75,15.09-3.18-.85,2.43,3.68-.5,3.8-2.3-.12-1.83-.12-8.41-.87-7.67C316.6,131.2,312.07,128.25,307.38,130.88ZM89.87,224.16a23.32,23.32,0,0,1-.05-3.75c-.27,2-3.59,2-3.57,2.2-.15-.22-.31-.32-.46-2.54.15,2.14-2.72-72.12-2.75-70.16,0-2-.24-2-.28-1.72.16-.24.3-.33,0,.63A5.56,5.56,0,0,0,83,146c.1,1.93,9.74,1.93,10,.56-.25,1.37-.25,1.22-.3,1.6a5.08,5.08,0,0,0,.32-1.72,23.46,23.46,0,0,1-.53,3.47C92.71,148,89.84,222.21,89.87,224.16Zm13.27-69.47c-.53-.17-.28-6.72,4.09-6.9-4.37.17-4.37.17-4,.18-.32,0,159.52,0,157.25-.21,2.27.2,2.27.2,1.87.38.4-.17.65,6.38,0,6.4C263,154.52,102.61,154.52,103.14,154.69Zm176.52,69.47a23.32,23.32,0,0,1-.05-3.75c-.27,2-3.59,2-3.57,2.2-.15-.22-.31-.32-.46-2.54.15,2.14-2.72-72.12-2.75-70.16,0-2-.24-2-.28-1.72.16-.24.3-.33,0,.63a5.56,5.56,0,0,0,.2-2.8c.1,1.93,9.74,1.93,10,.56-.25,1.37-.25,1.22-.3,1.6a5.08,5.08,0,0,0,.32-1.72,23.46,23.46,0,0,1-.53,3.47C282.5,148,279.63,222.21,279.66,224.16ZM56.81,141.56c-.83-.17-.84-6.74,6-6.92-6.82.18,243.68.18,244.18.19-.5,0-.49,6.55-4,6.37C306.48,141.38,56,141.38,56.81,141.56Z"/></g><g id="counter-3" data-name="counter" class="cls-4"><path d="M309.07,129.29c-.9-2.64-251.43-2.64-244.06-5.31-13,2.67-17.49,5.61-17,9.54-.54-.3-.54,6.28-4.38,3.38,3.84,6.51,8.37,9.46,13.28,12.09.68-2.63,17.64-2.63,16.58-2.31,1.06-.32,1.06-.31-6.72,1.06,7.78-1.37,10.66,73,8,70.44,2.76,6.24,7.43,9.18,19.77,7.33-6.71,1.85-3.39,1.85-4.9,2.37,7.13-.52,11.81-3.46,12.14-9.11-.19,2,2.18-59.28-4.63-56.6,6.81-2.68,167.66-2.68,174.93-3-7.27.28-4.9,61.57-8.71,59.13,4,6.08,8.62,9,8.49,6,5.76,3,9.08,3,2.77,0,11.93,3,16.61.08,23.8-2.71-7-.85-4.17-75.26,3.54-77.56-7.71,2.3-7.71,2.29-2.54,3-5.17-.75,8.65-.75,15.09-3.19-.85,2.44,3.68-.5,3.8-2.29-.12-1.83-.12-8.41-.87-7.68C318.29,129.6,313.76,126.65,309.07,129.29ZM91.56,222.57a22.36,22.36,0,0,1,0-3.76c-.28,2-3.6,2-3.58,2.21-.15-.23-.31-.33-.46-2.55.15,2.15-2.72-72.11-2.75-70.16,0-1.95-.24-1.95-.28-1.71.16-.24.3-.34,0,.62a5.5,5.5,0,0,0,.2-2.79c.1,1.93,9.74,1.93,10,.55-.25,1.38-.25,1.23-.3,1.61a5.17,5.17,0,0,0,.32-1.72c0,1.49-.27,1.49-.53,3.47C94.4,146.36,91.53,220.62,91.56,222.57Zm13.27-69.47c-.53-.17-.28-6.73,4.09-6.9-4.37.17-4.37.16-4,.18-.33,0,159.51,0,157.24-.21,2.27.19,2.27.2,1.87.37.4-.17.66,6.39,0,6.41C264.65,152.93,104.3,152.93,104.83,153.1Zm176.52,69.47a23.47,23.47,0,0,1,0-3.76c-.28,2-3.6,2-3.58,2.21-.15-.23-.31-.33-.46-2.55.15,2.15-2.72-72.11-2.75-70.16,0-1.95-.24-1.95-.28-1.71.16-.24.31-.34,0,.62a5.5,5.5,0,0,0,.2-2.79c.1,1.93,9.74,1.93,10,.55-.25,1.38-.25,1.23-.3,1.61a5.17,5.17,0,0,0,.32-1.72c0,1.49-.27,1.49-.53,3.47C284.19,146.36,281.32,220.62,281.35,222.57ZM58.51,140c-.84-.17-.85-6.75,5.95-6.92-6.82.17,243.68.17,244.18.19-.5,0-.49,6.55-4,6.36C308.17,139.79,57.67,139.79,58.51,140Z"/></g></g><g id="bunsen_burner" data-name="bunsen burner"><path d="M238.51,128.27c-.21-.85-5,.81-4.95,0,1.21.18.57-45.4,0-44.53,1.35-.39.77,1.8-1-1-.69-2-2.07,2.06-1,1a11.93,11.93,0,0,1,0,5c-.14-3-13.5-1.78-13.85,0,.18,2.55-.67-2.45,0-2-1.21-1,.67-3.21,1,0,0,.84,1.31,2,1-1,.45-1.6.31-.18-1-1-.52-1.26-10.44,2.36-9.9,0-.4,3-.06-.29-1,1,1.28.85-.56-1.87,1,1-.5-2.73.36.33,1,0,1.19,1.57.4-1.62,0,2-.46,2.15-.24-2.27-1,0-1.87-1.13-2.34-2.46-1,1,.55.78.49-.94,1,1-.46-1.76,1.32,2.75,1,0,.15,1.7-.25.42,0,2.59-4.88,1.85-8.87,7.63-8.93,12.25,1,6.86,5.46,8.62,12.87,12.86,6.35,2.7,13.61-3.19,12.86-12.86-.49-1.67-4.46-12.92-8.88-12.24.1-3.3.71.24,0-2.6-1.26-1.8,14.63-3.4,13.85,0-.51-3.17-1,35.58,0,37.6-.86,1.11-12.29-2.78-11.87,0,1.3-3.65-1.24-.62,0-1-.82.35.51-3.16-1-1,.65,0-4.3-3.9-4.95,0-.11,1.19-4-.25-5,0-.23-2-1.25-2.28-1,1-1.06.07-.13,1.26,0,1-.28,1.52-14,1.51-14.84,0-.36,4.27-1.81,4.44-1,1-.77,1.75,1,4.68,1,1,1.35,1.63,45.72.91,45.52,0,.41-3.74.24-.19,1-1C239.46,131.87,238.18,126.52,238.51,128.27ZM211.79,86.71s4,0,4,0a8.74,8.74,0,0,1,0,2c.11,0-3.86.11-4,0A16.28,16.28,0,0,1,211.79,86.71Zm8.34,10c.82.34,1.68,1.76,2.38,2.36a6.71,6.71,0,0,1,2.11,6,4.34,4.34,0,0,1-5.12,3.37c-.4-.67-1.21.72-1.14.11-1.55.62-3.85-.93-5.69-2.57-2-3.36-4.4-3.67-6.37-3-.31,1-1.06-.15-1.06.1-1.37-.19-1.71-.78-2.24.76,0-1.4,1.09-2.43,2-4.74.87-1.31,1.82-1.4,2.39-2.37.69-1.13,1.7-.29,3-1.53.06,1.14,1.79-.71,1.37-.44.58.12-.46-2.51,0-1.44-.23-1-.29-2.47,0-2.59.54.59,4.14-1.35,4,0-.21.8.34,1.75,0,2.6-.6-.42-.62.35,0,1.44.25.09,1.39-.28,1.37.45C218,94.85,218.81,95.37,220.13,96.69Z"/><path d="M216.74,123.32c0-2.88-3-4.81-3-4.95.15,0-2.9,2.07-3,4.95.17,1.67,1.48,3.44,3,3A3.61,3.61,0,0,0,216.74,123.32Z"/><path class="cls-3" d="M238.51,128.27c-.21-.85-5,.81-4.95,0,1.21.18.57-45.4,0-44.53,1.35-.39.77,1.8-1-1-.69-2-2.07,2.06-1,1a11.93,11.93,0,0,1,0,5c-.14-3-13.5-1.78-13.85,0,.18,2.55-.67-2.45,0-2-1.21-1,.67-3.21,1,0,0,.84,1.31,2,1-1,.45-1.6.31-.18-1-1-.52-1.26-10.44,2.36-9.9,0-.4,3-.06-.29-1,1,1.28.85-.56-1.87,1,1-.5-2.73.36.33,1,0,1.19,1.57.4-1.62,0,2-.46,2.15-.24-2.27-1,0-1.87-1.13-2.34-2.46-1,1,.55.78.49-.94,1,1-.46-1.76,1.32,2.75,1,0,.15,1.7-.25.42,0,2.59-4.88,1.85-8.87,7.63-8.93,12.25,1,6.86,5.46,8.62,12.87,12.86,6.35,2.7,13.61-3.19,12.86-12.86-.49-1.67-4.46-12.92-8.88-12.24.1-3.3.71.24,0-2.6-1.26-1.8,14.63-3.4,13.85,0-.51-3.17-1,35.58,0,37.6-.86,1.11-12.29-2.78-11.87,0,1.3-3.65-1.24-.62,0-1-.82.35.51-3.16-1-1,.65,0-4.3-3.9-4.95,0-.11,1.19-4-.25-5,0-.23-2-1.25-2.28-1,1-1.06.07-.13,1.26,0,1-.28,1.52-14,1.51-14.84,0-.36,4.27-1.81,4.44-1,1-.77,1.75,1,4.68,1,1,1.35,1.63,45.72.91,45.52,0,.41-3.74.24-.19,1-1C239.46,131.87,238.18,126.52,238.51,128.27ZM211.79,86.71s4,0,4,0a8.74,8.74,0,0,1,0,2c.11,0-3.86.11-4,0A16.28,16.28,0,0,1,211.79,86.71Zm8.34,10c.82.34,1.68,1.76,2.38,2.36a6.71,6.71,0,0,1,2.11,6,4.34,4.34,0,0,1-5.12,3.37c-.4-.67-1.21.72-1.14.11-1.55.62-3.85-.93-5.69-2.57-2-3.36-4.4-3.67-6.37-3-.31,1-1.06-.15-1.06.1-1.37-.19-1.71-.78-2.24.76,0-1.4,1.09-2.43,2-4.74.87-1.31,1.82-1.4,2.39-2.37.69-1.13,1.7-.29,3-1.53.06,1.14,1.79-.71,1.37-.44.58.12-.46-2.51,0-1.44-.23-1-.29-2.47,0-2.59.54.59,4.14-1.35,4,0-.21.8.34,1.75,0,2.6-.6-.42-.62.35,0,1.44.25.09,1.39-.28,1.37.45C218,94.85,218.81,95.37,220.13,96.69Z"/><path class="cls-3" d="M238.51,128.27c-.21-.85-5,.81-4.95,0,1.21.18.57-45.4,0-44.53,1.35-.39.77,1.8-1-1-.69-2-2.07,2.06-1,1a11.93,11.93,0,0,1,0,5c-.14-3-13.5-1.78-13.85,0,.18,2.55-.67-2.45,0-2-1.21-1,.67-3.21,1,0,0,.84,1.31,2,1-1,.45-1.6.31-.18-1-1-.52-1.26-10.44,2.36-9.9,0-.4,3-.06-.29-1,1,1.28.85-.56-1.87,1,1-.5-2.73.36.33,1,0,1.19,1.57.4-1.62,0,2-.46,2.15-.24-2.27-1,0-1.87-1.13-2.34-2.46-1,1,.55.78.49-.94,1,1-.46-1.76,1.32,2.75,1,0,.15,1.7-.25.42,0,2.59-4.88,1.85-8.87,7.63-8.93,12.25,1,6.86,5.46,8.62,12.87,12.86,6.35,2.7,13.61-3.19,12.86-12.86-.49-1.67-4.46-12.92-8.88-12.24.1-3.3.71.24,0-2.6-1.26-1.8,14.63-3.4,13.85,0-.51-3.17-1,35.58,0,37.6-.86,1.11-12.29-2.78-11.87,0,1.3-3.65-1.24-.62,0-1-.82.35.51-3.16-1-1,.65,0-4.3-3.9-4.95,0-.11,1.19-4-.25-5,0-.23-2-1.25-2.28-1,1-1.06.07-.13,1.26,0,1-.28,1.52-14,1.51-14.84,0-.36,4.27-1.81,4.44-1,1-.77,1.75,1,4.68,1,1,1.35,1.63,45.72.91,45.52,0,.41-3.74.24-.19,1-1C239.46,131.87,238.18,126.52,238.51,128.27ZM211.79,86.71s4,0,4,0a8.74,8.74,0,0,1,0,2c.11,0-3.86.11-4,0A16.28,16.28,0,0,1,211.79,86.71Zm8.34,10c.82.34,1.68,1.76,2.38,2.36a6.71,6.71,0,0,1,2.11,6,4.34,4.34,0,0,1-5.12,3.37c-.4-.67-1.21.72-1.14.11-1.55.62-3.85-.93-5.69-2.57-2-3.36-4.4-3.67-6.37-3-.31,1-1.06-.15-1.06.1-1.37-.19-1.71-.78-2.24.76,0-1.4,1.09-2.43,2-4.74.87-1.31,1.82-1.4,2.39-2.37.69-1.13,1.7-.29,3-1.53.06,1.14,1.79-.71,1.37-.44.58.12-.46-2.51,0-1.44-.23-1-.29-2.47,0-2.59.54.59,4.14-1.35,4,0-.21.8.34,1.75,0,2.6-.6-.42-.62.35,0,1.44.25.09,1.39-.28,1.37.45C218,94.85,218.81,95.37,220.13,96.69Z"/><path class="cls-3" d="M216.74,123.32c0-2.88-3-4.81-3-4.95.15,0-2.9,2.07-3,4.95.17,1.67,1.48,3.44,3,3A3.61,3.61,0,0,0,216.74,123.32Z"/><path class="cls-3" d="M216.74,123.32c0-2.88-3-4.81-3-4.95.15,0-2.9,2.07-3,4.95.17,1.67,1.48,3.44,3,3A3.61,3.61,0,0,0,216.74,123.32Z"/></g><g id="bunsen_burner-2" data-name="bunsen burner"><path d="M237.51,126.27c-1.27-4.24-4.95,1.38-4.95,0,1.05,3-.32-40.71,0-44.53-.65.14.18,1.77-1-1,0,1.59.06,2.67-1,1,.63-3.12.8,8.73,0,5,1.1,2.67-14.28-.31-13.85,0,1.11,1.33.37,1.6,0-2-.36-4-.4-2.8,1,0,.79-1.53,2.15.18,1-1-.06-1.78-1.59-1.74-1-1-1.24.83-10.52,3.42-9.9,0-1.07,1.73.32-.12-1,1,.12.23-.4.6,1,1,0,1.22.93,1.34,1,0-1.22,2.21,1.43,5,0,2-1.06-1.41,0-2.29-1,0,.4,1.32-1.41-.54-1,1-.25,1,1.25,3,1,1,.68-2.12,0,2.62,1,0-.5,2.88,1.37,6.79,0,2.59-5.29,0-8.23,3.78-8.93,12.25,1.1,9.69,4.68,17.08,12.87,12.86,8-3.74,12.92-2.38,12.86-12.86.59-5.48-4.82-6.34-8.88-12.24.08-2.09,1.11-.08,0-2.6,1.33-3.47,14.7,1.58,13.85,0-.39-2.76.47,37.05,0,37.6.62-2.08-10.64.11-11.87,0,.39,3.59.74-1.37,0-1,.2-3,.07-4.2-1-1-1.1,1.82-5.46-3.53-4.95,0,.89.31-5.38,3.68-5,0-1.25-.86-1.89,2.83-1,1,.88-2.76.25,3.53,0,1,1-4-14.13,3.91-14.84,0,.46,1.35.2,3.56-1,1-1.21,1.47-.4,4.41,1,1-.37-1.4,45.95-.12,45.52,0,1.41,3.32-.07,1.6,1-1C238.43,129.49,237,123,237.51,126.27ZM210.79,84.71c-.1-.18,4,.06,4,0,.09.12,0,2.14,0,2-.05,0-3.91.11-4,0C210.83,86.75,210.7,84.57,210.79,84.71Zm8.34,10c.33-.93,1.71,2,2.38,2.36a16.88,16.88,0,0,1,2.11,6c-1.08,1.79-2.41,3.9-5.12,3.37-.1.67-.24.94-1.14.11-1.41-1.17-3.64.78-5.69-2.57-1.48-1.25-4.75-3.12-6.37-3,.11.5-.58,1.38-1.06.1-1-1.35-2.2-.62-2.24.76.38-2.29,1.48-3.1,2-4.74.64-1.37.95-2,2.39-2.37.36-.35,1.66.1,3-1.53-.24.65,2-.65,1.37-.44.05-.12-.38-1.59,0-1.44,0,.46,0-2.09,0-2.59-.55.83,4.61,1.12,4,0-.49-.53.46,1.75,0,2.6.43.5-.19,1.07,0,1.44-.12.16,1.73,1.21,1.37.45C217.5,92.71,217.73,92.81,219.13,94.69Z"/><path d="M215.74,121.32c-.16-3.45-3-4.72-3-4.95.13.51-3,2.85-3,4.95-.08,1.76,1.41,3.43,3,3C214.47,124.56,215.61,122.42,215.74,121.32Z"/></g><g id="helix" class="cls-5"><path d="M29.63,66.15l.05,0s0,0-.11.12a1.14,1.14,0,0,1-1,.25,2.32,2.32,0,0,1-.92-.58l-.06,0a6.85,6.85,0,0,1-1.13-1.79,15.53,15.53,0,0,1-.78-2c-.23-.69-.42-1.39-.59-2.11,0,0,0,.07,0-.07-.15-.6-.3-1.45-.44-2.34l-.06-.39c0-.1,0-.13,0-.14-.05-.41-.09-.77-.13-1.11-.14-1.11-.23-2.24-.28-3.4s-.06-2.34,0-3.55a37.18,37.18,0,0,1,.32-3.71c.09-.63.19-1.27.33-1.92s.31-1.3.52-1.95a12.58,12.58,0,0,1,.65-1.63,7.09,7.09,0,0,1,.45-.75,4.35,4.35,0,0,1,.56-.64,2.55,2.55,0,0,1,.52-.33A1.38,1.38,0,0,1,28,38a1.39,1.39,0,0,1,.54.09,2.23,2.23,0,0,1,.48.26,4,4,0,0,1,.76.78,7.17,7.17,0,0,1,.56.88c0-.05.06.08.19.32s.28.57.42.9c.27.66.48,1.31.38,1,.15.43.31,1,.43,1.45s.2.83.21.86.09.34.19.85.25,1.32.4,2.61c.06.5.12,1.14.16,1.71s.07,1,.08,1.23,0,0,0-.38,0-.67,0-.38A39.4,39.4,0,0,0,32,44.62,26.35,26.35,0,0,0,31.36,42a14.06,14.06,0,0,0-1-2.38,6.32,6.32,0,0,0-.72-1,2.69,2.69,0,0,0-1-.74,1.44,1.44,0,0,0-.66-.11l-.18,0-.18,0a1.84,1.84,0,0,0-.36.15,2.66,2.66,0,0,0-.65.51,4.79,4.79,0,0,0-.53.66,9.59,9.59,0,0,0-.75,1.46c-.2.5-.38,1-.53,1.51a27.64,27.64,0,0,0-.68,3c-.05.35-.14.94-.23,1.72s-.16,1.74-.21,2.82A46.73,46.73,0,0,0,24,57.13,35.37,35.37,0,0,0,24.62,61a19.91,19.91,0,0,0,1.06,3.37,7.12,7.12,0,0,0,1.55,2.43,2.39,2.39,0,0,0,1.06.59,1.94,1.94,0,0,0,.59,0,2,2,0,0,0,.55-.17,2.18,2.18,0,0,0,.46-.28,4.22,4.22,0,0,0,.85-.89,7,7,0,0,0,.61-1,13.26,13.26,0,0,0,.82-2.16,24.68,24.68,0,0,0,.77-3.9c.12-1,.18-2,.21-3,0,.47-.1.91-.15,1.3.09-1,.14-2.06.13-2.45s0-.86,0-1,0-.19,0-.11-.07.67-.13,1.09c0,.61-.08-.18-.14.76,0-.67,0-1,0-1.68,0,0,0,.48,0,.95s0,.89,0,.66c0-.65,0-1.37,0-2,0,.12,0,.7,0,1.24a7.37,7.37,0,0,1-.06,1c0-.18,0-.66,0-1.1a4.69,4.69,0,0,0,0-.92s0,.65,0,1c0-1,0-1.81-.07-2.1s-.05-.11-.06.83c0-.32,0-.71,0-1.11s0-.79,0-1.12h0c0,.34,0,.93,0,1.24,0-.38,0-.77,0-1.15,0,.06,0,.13,0,.21,0,.29,0,.57,0,.88,0-.26,0-.51,0-.77,0,.2,0,.43,0,.67,0,.92-.05,1.82-.06,2.31,0,1-.06,2-.15,3s-.21,2.05-.39,3.08c-.09.51-.2,1-.32,1.54s-.27,1-.44,1.51A10.08,10.08,0,0,1,30.48,65a5.73,5.73,0,0,1-.39.64A3.85,3.85,0,0,1,29.63,66.15Z"/><path d="M41.47,47.39s0,0,0,0,0,0,.07.1a1.27,1.27,0,0,1,0,1.09,4.93,4.93,0,0,1-.78,1.21l0,.08a13.33,13.33,0,0,1-2,1.76A22.78,22.78,0,0,1,36.69,53c-.7.44-1.4.85-2.11,1.23,0,0,.05,0-.09.06-.59.33-1.42.73-2.29,1.12l-.38.17-.14.08-1.06.45c-1.07.45-2.15.85-3.24,1.21s-2.2.69-3.31,1a29.76,29.76,0,0,1-3.37.61c-.56.07-1.13.11-1.7.13a11.68,11.68,0,0,1-1.68-.08A5.26,5.26,0,0,1,16,58.6a2.3,2.3,0,0,1-.58-.31,1.72,1.72,0,0,1-.45-.48,1.29,1.29,0,0,1-.17-.5,1.65,1.65,0,0,1,0-.62,2.74,2.74,0,0,1,.23-.64,3.9,3.9,0,0,1,.37-.62,8,8,0,0,1,.92-1.08c.32-.32.65-.61,1-.87a3.16,3.16,0,0,1,.36-.3c.25-.21.6-.48,1-.72.69-.49,1.34-.9,1-.71.45-.28,1-.61,1.47-.87l.86-.47c.11-.06.33-.19.84-.44s1.3-.64,2.53-1.15c.49-.2,1.1-.44,1.64-.64s1-.35,1.16-.41l-.36.12-.36.13a44.94,44.94,0,0,0-5.33,2.28c-.87.45-1.74.93-2.59,1.47A21.86,21.86,0,0,0,17,53.56a11.73,11.73,0,0,0-1.15,1.09A6.69,6.69,0,0,0,14.89,56a3.21,3.21,0,0,0-.27.79,1.2,1.2,0,0,0,0,.2.66.66,0,0,0,0,.2,2.21,2.21,0,0,0,0,.37,1.58,1.58,0,0,0,.31.62,2.08,2.08,0,0,0,.47.42,3.8,3.8,0,0,0,1.16.48,7.65,7.65,0,0,0,1.27.21,15.79,15.79,0,0,0,2.66,0c.3,0,.83-.08,1.53-.19s1.58-.27,2.58-.5a44.73,44.73,0,0,0,7-2.27c1.25-.53,2.51-1.12,3.73-1.76a30.74,30.74,0,0,0,3.41-2.11A13.82,13.82,0,0,0,41.4,50a5.29,5.29,0,0,0,.82-1.37,3,3,0,0,0,.18-.68,2.28,2.28,0,0,0,0-.59,2.24,2.24,0,0,0-.14-.46,2,2,0,0,0-.61-.73,3.32,3.32,0,0,0-.81-.43,7.29,7.29,0,0,0-1.8-.37,15.8,15.8,0,0,0-3.43.14,28,28,0,0,0-2.78.57c.43-.08.83-.13,1.17-.17a22.52,22.52,0,0,0-2.24.49c-.5.14-.81.24-1,.3s-.19.09-.12.08.6-.09,1-.14c.56-.1-.19.14.67,0l-1.56.4s.45-.11.88-.22.82-.21.61-.12c-.6.13-1.27.33-1.89.51.11,0,.64-.16,1.14-.29a5.15,5.15,0,0,1,.91-.19l-1,.23a4.44,4.44,0,0,0-.85.25s.59-.15.9-.23c-1,.26-1.69.52-2,.63s-.11.09.76-.14l-1,.31c-.37.11-.74.23-1.06.35h0l1.17-.38-1.09.37.19,0,.82-.26L28.5,48l.62-.14c.86-.25,1.68-.43,2.14-.55q1.39-.37,2.79-.63a24.27,24.27,0,0,1,2.76-.36q.67,0,1.35,0a10.87,10.87,0,0,1,1.29.1,5.38,5.38,0,0,1,1.18.32,2.52,2.52,0,0,1,.48.28A1.64,1.64,0,0,1,41.47,47.39Z"/><path d="M18.24,46.33s0,0,0,.05,0,0,0-.15a1.64,1.64,0,0,1,.73-.95,3.74,3.74,0,0,1,1.2-.45l.07,0a7.66,7.66,0,0,1,2.19,0,14.73,14.73,0,0,1,2,.39c.65.18,1.28.38,1.91.62,0,0,0,0,.08,0,.52.2,1.22.51,1.93.86l.31.16a.29.29,0,0,0,.13,0c.31.17.59.32.84.47.86.47,1.68,1,2.49,1.54a28.74,28.74,0,0,1,2.35,1.84,21.22,21.22,0,0,1,2.15,2.19,15.72,15.72,0,0,1,1,1.27,11.2,11.2,0,0,1,.82,1.44A6.27,6.27,0,0,1,38.89,57a3.85,3.85,0,0,1,.09.76,2.59,2.59,0,0,1-.08.78,2.29,2.29,0,0,1-.24.59,2.33,2.33,0,0,1-.42.53,3.36,3.36,0,0,1-.54.39,5.09,5.09,0,0,1-.6.25,5.73,5.73,0,0,1-1.19.21,7.78,7.78,0,0,1-1.08,0l-.38,0c-.27,0-.63-.07-1-.13-.68-.12-1.29-.29-1-.2-.42-.11-.93-.27-1.34-.41l-.76-.28c-.09,0-.29-.1-.73-.29a21.25,21.25,0,0,1-2.07-1c-.38-.22-.86-.5-1.27-.76s-.75-.49-.88-.58l.27.18.27.18a25.88,25.88,0,0,0,4.28,2.29,18.49,18.49,0,0,0,2.31.79A12.5,12.5,0,0,0,35,60.7a7.36,7.36,0,0,0,1.32-.05,4,4,0,0,0,1.37-.41,3,3,0,0,0,.66-.48l.15-.16.13-.17a2.06,2.06,0,0,0,.23-.37,2.74,2.74,0,0,0,.25-.8,3.93,3.93,0,0,0,0-.76,5.92,5.92,0,0,0-.29-1.38,8.69,8.69,0,0,0-.53-1.21A14.82,14.82,0,0,0,37,52.77c-.18-.22-.49-.61-.93-1.08s-1-1-1.67-1.64a28.45,28.45,0,0,0-5.13-3.64A24.89,24.89,0,0,0,26.14,45,16.05,16.05,0,0,0,23,44.07a8.18,8.18,0,0,0-3,0,4,4,0,0,0-1.32.56,2.68,2.68,0,0,0-.54.46,3,3,0,0,0-.39.53,3.54,3.54,0,0,0-.23.53,3.39,3.39,0,0,0-.16,1.15,4.84,4.84,0,0,0,.14,1,7.49,7.49,0,0,0,.69,1.79A13.8,13.8,0,0,0,20,52.79a20.08,20.08,0,0,0,1.82,1.75c-.27-.29-.52-.56-.72-.8a15.13,15.13,0,0,0,1.5,1.37,6.93,6.93,0,0,0,.7.53c.12.07.15.07.11,0s-.37-.41-.61-.67.2,0-.36-.52c.42.37.64.55,1.07.91a6.72,6.72,0,0,0-.6-.52c-.3-.25-.56-.49-.4-.38.4.37.88.74,1.33,1.08-.06-.08-.44-.39-.79-.68a3.85,3.85,0,0,1-.6-.56c.12.09.41.36.68.61a3.21,3.21,0,0,0,.61.47s-.42-.35-.63-.53a14.68,14.68,0,0,0,1.45,1.05c.23.12.11,0-.49-.49l.74.56c.27.2.54.39.79.54h0l-.85-.61c.27.2.54.38.81.56l-.13-.12-.6-.44.54.38L25,55.93c-.61-.48-1.15-1-1.47-1.25A25.22,25.22,0,0,1,21.63,53,20.51,20.51,0,0,1,20,51.05c-.25-.34-.5-.69-.72-1.06a10.34,10.34,0,0,1-.6-1.14,6,6,0,0,1-.41-1.24,5,5,0,0,1-.07-.65A2.59,2.59,0,0,1,18.24,46.33Z"/><ellipse cx="28.37" cy="52.17" rx="2.99" ry="2.26" transform="matrix(0.56, -0.83, 0.83, 0.56, -30.76, 46.73)"/><ellipse cx="20.18" cy="44.45" rx="1.66" ry="1.25" transform="translate(-27.99 36.5) rotate(-56.21)"/><ellipse cx="40.27" cy="50.6" rx="1.66" ry="1.25" transform="translate(-24.18 55.92) rotate(-56.21)"/><ellipse cx="25.21" cy="61.08" rx="1.66" ry="1.25" transform="matrix(0.56, -0.83, 0.83, 0.56, -39.57, 48.06)"/><path class="cls-6" d="M29.63,66.15l.05,0s0,0-.11.12a1.14,1.14,0,0,1-1,.25,2.32,2.32,0,0,1-.92-.58l-.06,0a6.85,6.85,0,0,1-1.13-1.79,15.53,15.53,0,0,1-.78-2c-.23-.69-.42-1.39-.59-2.11,0,0,0,.07,0-.07-.15-.6-.3-1.45-.44-2.34l-.06-.39c0-.1,0-.13,0-.14-.05-.41-.09-.77-.13-1.11-.14-1.11-.23-2.24-.28-3.4s-.06-2.34,0-3.55a37.18,37.18,0,0,1,.32-3.71c.09-.63.19-1.27.33-1.92s.31-1.3.52-1.95a12.58,12.58,0,0,1,.65-1.63,7.09,7.09,0,0,1,.45-.75,4.35,4.35,0,0,1,.56-.64,2.55,2.55,0,0,1,.52-.33A1.38,1.38,0,0,1,28,38a1.39,1.39,0,0,1,.54.09,2.23,2.23,0,0,1,.48.26,4,4,0,0,1,.76.78,7.17,7.17,0,0,1,.56.88c0-.05.06.08.19.32s.28.57.42.9c.27.66.48,1.31.38,1,.15.43.31,1,.43,1.45s.2.83.21.86.09.34.19.85.25,1.32.4,2.61c.06.5.12,1.14.16,1.71s.07,1,.08,1.23,0,0,0-.38,0-.67,0-.38A39.4,39.4,0,0,0,32,44.62,26.35,26.35,0,0,0,31.36,42a14.06,14.06,0,0,0-1-2.38,6.32,6.32,0,0,0-.72-1,2.69,2.69,0,0,0-1-.74,1.44,1.44,0,0,0-.66-.11l-.18,0-.18,0a1.84,1.84,0,0,0-.36.15,2.66,2.66,0,0,0-.65.51,4.79,4.79,0,0,0-.53.66,9.59,9.59,0,0,0-.75,1.46c-.2.5-.38,1-.53,1.51a27.64,27.64,0,0,0-.68,3c-.05.35-.14.94-.23,1.72s-.16,1.74-.21,2.82A46.73,46.73,0,0,0,24,57.13,35.37,35.37,0,0,0,24.62,61a19.91,19.91,0,0,0,1.06,3.37,7.12,7.12,0,0,0,1.55,2.43,2.39,2.39,0,0,0,1.06.59,1.94,1.94,0,0,0,.59,0,2,2,0,0,0,.55-.17,2.18,2.18,0,0,0,.46-.28,4.22,4.22,0,0,0,.85-.89,7,7,0,0,0,.61-1,13.26,13.26,0,0,0,.82-2.16,24.68,24.68,0,0,0,.77-3.9c.12-1,.18-2,.21-3,0,.47-.1.91-.15,1.3.09-1,.14-2.06.13-2.45s0-.86,0-1,0-.19,0-.11-.07.67-.13,1.09c0,.61-.08-.18-.14.76,0-.67,0-1,0-1.68,0,0,0,.48,0,.95s0,.89,0,.66c0-.65,0-1.37,0-2,0,.12,0,.7,0,1.24a7.37,7.37,0,0,1-.06,1c0-.18,0-.66,0-1.1a4.69,4.69,0,0,0,0-.92s0,.65,0,1c0-1,0-1.81-.07-2.1s-.05-.11-.06.83c0-.32,0-.71,0-1.11s0-.79,0-1.12h0c0,.34,0,.93,0,1.24,0-.38,0-.77,0-1.15,0,.06,0,.13,0,.21,0,.29,0,.57,0,.88,0-.26,0-.51,0-.77,0,.2,0,.43,0,.67,0,.92-.05,1.82-.06,2.31,0,1-.06,2-.15,3s-.21,2.05-.39,3.08c-.09.51-.2,1-.32,1.54s-.27,1-.44,1.51A10.08,10.08,0,0,1,30.48,65a5.73,5.73,0,0,1-.39.64A3.85,3.85,0,0,1,29.63,66.15Z"/><path class="cls-6" d="M41.47,47.39s0,0,0,0,0,0,.07.1a1.27,1.27,0,0,1,0,1.09,4.93,4.93,0,0,1-.78,1.21l0,.08a13.33,13.33,0,0,1-2,1.76A22.78,22.78,0,0,1,36.69,53c-.7.44-1.4.85-2.11,1.23,0,0,.05,0-.09.06-.59.33-1.42.73-2.29,1.12l-.38.17-.14.08-1.06.45c-1.07.45-2.15.85-3.24,1.21s-2.2.69-3.31,1a29.76,29.76,0,0,1-3.37.61c-.56.07-1.13.11-1.7.13a11.68,11.68,0,0,1-1.68-.08A5.26,5.26,0,0,1,16,58.6a2.3,2.3,0,0,1-.58-.31,1.72,1.72,0,0,1-.45-.48,1.29,1.29,0,0,1-.17-.5,1.65,1.65,0,0,1,0-.62,2.74,2.74,0,0,1,.23-.64,3.9,3.9,0,0,1,.37-.62,8,8,0,0,1,.92-1.08c.32-.32.65-.61,1-.87a3.16,3.16,0,0,1,.36-.3c.25-.21.6-.48,1-.72.69-.49,1.34-.9,1-.71.45-.28,1-.61,1.47-.87l.86-.47c.11-.06.33-.19.84-.44s1.3-.64,2.53-1.15c.49-.2,1.1-.44,1.64-.64s1-.35,1.16-.41l-.36.12-.36.13a44.94,44.94,0,0,0-5.33,2.28c-.87.45-1.74.93-2.59,1.47A21.86,21.86,0,0,0,17,53.56a11.73,11.73,0,0,0-1.15,1.09A6.69,6.69,0,0,0,14.89,56a3.21,3.21,0,0,0-.27.79,1.2,1.2,0,0,0,0,.2.66.66,0,0,0,0,.2,2.21,2.21,0,0,0,0,.37,1.58,1.58,0,0,0,.31.62,2.08,2.08,0,0,0,.47.42,3.8,3.8,0,0,0,1.16.48,7.65,7.65,0,0,0,1.27.21,15.79,15.79,0,0,0,2.66,0c.3,0,.83-.08,1.53-.19s1.58-.27,2.58-.5a44.73,44.73,0,0,0,7-2.27c1.25-.53,2.51-1.12,3.73-1.76a30.74,30.74,0,0,0,3.41-2.11A13.82,13.82,0,0,0,41.4,50a5.29,5.29,0,0,0,.82-1.37,3,3,0,0,0,.18-.68,2.28,2.28,0,0,0,0-.59,2.24,2.24,0,0,0-.14-.46,2,2,0,0,0-.61-.73,3.32,3.32,0,0,0-.81-.43,7.29,7.29,0,0,0-1.8-.37,15.8,15.8,0,0,0-3.43.14,28,28,0,0,0-2.78.57c.43-.08.83-.13,1.17-.17a22.52,22.52,0,0,0-2.24.49c-.5.14-.81.24-1,.3s-.19.09-.12.08.6-.09,1-.14c.56-.1-.19.14.67,0l-1.56.4s.45-.11.88-.22.82-.21.61-.12c-.6.13-1.27.33-1.89.51.11,0,.64-.16,1.14-.29a5.15,5.15,0,0,1,.91-.19l-1,.23a4.44,4.44,0,0,0-.85.25s.59-.15.9-.23c-1,.26-1.69.52-2,.63s-.11.09.76-.14l-1,.31c-.37.11-.74.23-1.06.35h0l1.17-.38-1.09.37.19,0,.82-.26L28.5,48l.62-.14c.86-.25,1.68-.43,2.14-.55q1.39-.37,2.79-.63a24.27,24.27,0,0,1,2.76-.36q.67,0,1.35,0a10.87,10.87,0,0,1,1.29.1,5.38,5.38,0,0,1,1.18.32,2.52,2.52,0,0,1,.48.28A1.64,1.64,0,0,1,41.47,47.39Z"/><path class="cls-6" d="M18.24,46.33s0,0,0,.05,0,0,0-.15a1.64,1.64,0,0,1,.73-.95,3.74,3.74,0,0,1,1.2-.45l.07,0a7.66,7.66,0,0,1,2.19,0,14.73,14.73,0,0,1,2,.39c.65.18,1.28.38,1.91.62,0,0,0,0,.08,0,.52.2,1.22.51,1.93.86l.31.16a.29.29,0,0,0,.13,0c.31.17.59.32.84.47.86.47,1.68,1,2.49,1.54a28.74,28.74,0,0,1,2.35,1.84,21.22,21.22,0,0,1,2.15,2.19,15.72,15.72,0,0,1,1,1.27,11.2,11.2,0,0,1,.82,1.44A6.27,6.27,0,0,1,38.89,57a3.85,3.85,0,0,1,.09.76,2.59,2.59,0,0,1-.08.78,2.29,2.29,0,0,1-.24.59,2.33,2.33,0,0,1-.42.53,3.36,3.36,0,0,1-.54.39,5.09,5.09,0,0,1-.6.25,5.73,5.73,0,0,1-1.19.21,7.78,7.78,0,0,1-1.08,0l-.38,0c-.27,0-.63-.07-1-.13-.68-.12-1.29-.29-1-.2-.42-.11-.93-.27-1.34-.41l-.76-.28c-.09,0-.29-.1-.73-.29a21.25,21.25,0,0,1-2.07-1c-.38-.22-.86-.5-1.27-.76s-.75-.49-.88-.58l.27.18.27.18a25.88,25.88,0,0,0,4.28,2.29,18.49,18.49,0,0,0,2.31.79A12.5,12.5,0,0,0,35,60.7a7.36,7.36,0,0,0,1.32-.05,4,4,0,0,0,1.37-.41,3,3,0,0,0,.66-.48l.15-.16.13-.17a2.06,2.06,0,0,0,.23-.37,2.74,2.74,0,0,0,.25-.8,3.93,3.93,0,0,0,0-.76,5.92,5.92,0,0,0-.29-1.38,8.69,8.69,0,0,0-.53-1.21A14.82,14.82,0,0,0,37,52.77c-.18-.22-.49-.61-.93-1.08s-1-1-1.67-1.64a28.45,28.45,0,0,0-5.13-3.64A24.89,24.89,0,0,0,26.14,45,16.05,16.05,0,0,0,23,44.07a8.18,8.18,0,0,0-3,0,4,4,0,0,0-1.32.56,2.68,2.68,0,0,0-.54.46,3,3,0,0,0-.39.53,3.54,3.54,0,0,0-.23.53,3.39,3.39,0,0,0-.16,1.15,4.84,4.84,0,0,0,.14,1,7.49,7.49,0,0,0,.69,1.79A13.8,13.8,0,0,0,20,52.79a20.08,20.08,0,0,0,1.82,1.75c-.27-.29-.52-.56-.72-.8a15.13,15.13,0,0,0,1.5,1.37,6.93,6.93,0,0,0,.7.53c.12.07.15.07.11,0s-.37-.41-.61-.67.2,0-.36-.52c.42.37.64.55,1.07.91a6.72,6.72,0,0,0-.6-.52c-.3-.25-.56-.49-.4-.38.4.37.88.74,1.33,1.08-.06-.08-.44-.39-.79-.68a3.85,3.85,0,0,1-.6-.56c.12.09.41.36.68.61a3.21,3.21,0,0,0,.61.47s-.42-.35-.63-.53a14.68,14.68,0,0,0,1.45,1.05c.23.12.11,0-.49-.49l.74.56c.27.2.54.39.79.54h0l-.85-.61c.27.2.54.38.81.56l-.13-.12-.6-.44.54.38L25,55.93c-.61-.48-1.15-1-1.47-1.25A25.22,25.22,0,0,1,21.63,53,20.51,20.51,0,0,1,20,51.05c-.25-.34-.5-.69-.72-1.06a10.34,10.34,0,0,1-.6-1.14,6,6,0,0,1-.41-1.24,5,5,0,0,1-.07-.65A2.59,2.59,0,0,1,18.24,46.33Z"/><ellipse class="cls-6" cx="28.37" cy="52.17" rx="2.99" ry="2.26" transform="matrix(0.56, -0.83, 0.83, 0.56, -30.76, 46.73)"/><ellipse class="cls-6" cx="20.18" cy="44.45" rx="1.66" ry="1.25" transform="translate(-27.99 36.5) rotate(-56.21)"/><ellipse class="cls-6" cx="40.27" cy="50.6" rx="1.66" ry="1.25" transform="translate(-24.18 55.92) rotate(-56.21)"/><ellipse class="cls-6" cx="25.21" cy="61.08" rx="1.66" ry="1.25" transform="matrix(0.56, -0.83, 0.83, 0.56, -39.57, 48.06)"/></g><g id="helix-2" data-name="helix" class="cls-7"><path class="cls-6" d="M320.72,94.68s.09-.14.11-.18.06.09,0,.62a4.52,4.52,0,0,1-2.43,3.45,10.59,10.59,0,0,1-4.57,1c-.08,0-.17.08-.25.12a31.18,31.18,0,0,1-8.78-1.76,67.32,67.32,0,0,1-8.26-3.2q-4.06-1.86-8-4.1c.12.12.17.18-.35-.11C286,89.27,283,87.42,280,85.36l-1.35-.89a2.52,2.52,0,0,0-.51-.28c-1.36-1-2.57-1.82-3.68-2.63q-5.51-4-10.84-8.47c-3.56-3-7.05-6.18-10.45-9.59a143.58,143.58,0,0,1-9.89-10.94c-1.57-2-3.12-4-4.59-6.13a72.52,72.52,0,0,1-4.11-6.72,38.92,38.92,0,0,1-2.71-6.21,19.86,19.86,0,0,1-.8-3.28,12.41,12.41,0,0,1-.11-3.27,7.5,7.5,0,0,1,.64-2.31,5.84,5.84,0,0,1,1.39-1.9,7.05,7.05,0,0,1,2-1.22,9,9,0,0,1,2.26-.6,17.73,17.73,0,0,1,4.66,0,34.41,34.41,0,0,1,4.34.84,6.62,6.62,0,0,1,1.55.36c1.07.3,2.54.77,3.95,1.29,2.81,1,5.35,2.24,4.1,1.61,1.73.79,3.88,1.86,5.61,2.79s3.06,1.7,3.19,1.75c.4.21,1.25.67,3.08,1.78s4.67,2.88,8.92,6c1.67,1.2,3.74,2.77,5.52,4.19s3.29,2.66,3.85,3.13c.89.73-.15-.13-1.18-1s-2.08-1.68-1.18-1a158.64,158.64,0,0,0-18.47-13,103.13,103.13,0,0,0-9.73-5.15,59.6,59.6,0,0,0-10.15-3.67A28.5,28.5,0,0,0,240,20a13.3,13.3,0,0,0-5.29.71,7.09,7.09,0,0,0-2.38,1.52,6.7,6.7,0,0,0-.51.54,3.86,3.86,0,0,0-.44.62,7.33,7.33,0,0,0-.7,1.4,9.79,9.79,0,0,0-.54,3.18,17.49,17.49,0,0,0,.3,3.23,28.94,28.94,0,0,0,1.91,6,54.23,54.23,0,0,0,2.78,5.55,90.42,90.42,0,0,0,6.8,10.13c.86,1.09,2.32,3,4.32,5.29s4.58,5.18,7.62,8.25a182.62,182.62,0,0,0,22.63,19.36,150.7,150.7,0,0,0,13.27,8.56A88.74,88.74,0,0,0,303,100.6a32.84,32.84,0,0,0,12,2.32,11,11,0,0,0,5-1.32,7.86,7.86,0,0,0,1.91-1.56,7.72,7.72,0,0,0,1.25-2,9.62,9.62,0,0,0,.62-2,14.09,14.09,0,0,0,0-4.76,25.57,25.57,0,0,0-1.14-4.5,47.91,47.91,0,0,0-3.78-8.12,90.24,90.24,0,0,0-9-12.73c-2.62-3.08-5.42-6-8.28-8.81,1.25,1.42,2.38,2.75,3.34,3.94-2.74-3.07-5.61-6-6.78-7-1.57-1.47-2.56-2.32-3.11-2.76s-.65-.43-.47-.19c.33.49,1.73,2,2.82,3.32,1.62,1.8-.81-.29,1.75,2.46-1.9-1.9-2.86-2.83-4.81-4.67-.15,0,1.36,1.33,2.71,2.64s2.53,2.49,1.8,1.94c-1.8-1.88-3.94-3.79-5.91-5.59.3.39,2,2,3.53,3.47a24.6,24.6,0,0,1,2.72,2.85c-.52-.5-1.82-1.88-3.07-3.13A17.9,17.9,0,0,0,293.38,52c-.09,0,1.87,1.78,2.82,2.71-3-2.82-5.43-4.82-6.39-5.54s-.47-.13,2.24,2.46c-1-.87-2.11-1.93-3.3-3s-2.4-2.07-3.46-2.91h0c1.05.86,2.81,2.41,3.77,3.24-1.17-1-2.34-2-3.54-3l.57.61,2.66,2.31c-.77-.67-1.56-1.33-2.34-2,.54.56,1.18,1.2,1.88,1.88,2.7,2.5,5.17,5.06,6.61,6.43,2.9,2.76,5.73,5.65,8.46,8.66a122.1,122.1,0,0,1,7.78,9.43c1.23,1.64,2.39,3.32,3.51,5.05s2.13,3.49,3,5.31A36,36,0,0,1,320,89.25a17.84,17.84,0,0,1,.65,2.79A10.71,10.71,0,0,1,320.72,94.68Z"/><path class="cls-6" d="M302.8,11.24s-.12-.11-.15-.14.06-.06.53.06a4.91,4.91,0,0,1,3.1,3.05,17.43,17.43,0,0,1,1.11,5.42c0,.09.07.2.12.3a47.55,47.55,0,0,1-1,10.19,92,92,0,0,1-2.24,9.48q-1.35,4.66-3,9.15c.1-.14.15-.19-.07.4-.91,2.51-2.32,5.89-3.91,9.33-.23.52-.45,1-.68,1.52a2.69,2.69,0,0,0-.2.6c-.74,1.53-1.41,2.89-2,4.14Q291.29,71,287.75,77c-2.35,4-4.86,7.89-7.58,11.67a123,123,0,0,1-8.76,10.94c-1.59,1.72-3.24,3.41-5,5a50.57,50.57,0,0,1-5.5,4.41,25.2,25.2,0,0,1-5.16,2.81,12.25,12.25,0,0,1-2.76.74,7.7,7.7,0,0,1-2.79-.07,5.75,5.75,0,0,1-2-.88,6.67,6.67,0,0,1-1.72-1.75,10,10,0,0,1-1.16-2.39,14.55,14.55,0,0,1-.65-2.68,28.84,28.84,0,0,1-.28-5.47c.07-1.78.25-3.46.46-5a10,10,0,0,1,.22-1.8c.19-1.24.5-2.94.86-4.56.72-3.23,1.6-6.13,1.13-4.71.57-2,1.36-4.44,2.05-6.41s1.27-3.49,1.31-3.63c.15-.46.5-1.43,1.34-3.51s2.19-5.3,4.56-10.1c.93-1.88,2.16-4.21,3.26-6.22S261.67,49.64,262,49c.58-1-.09.18-.77,1.33s-1.31,2.34-.76,1.33a172.51,172.51,0,0,0-10,20.87c-1.43,3.62-2.72,7.31-3.82,11.1a80.27,80.27,0,0,0-2.53,11.68,42.71,42.71,0,0,0-.39,6.12,21.65,21.65,0,0,0,.93,6.24,10.51,10.51,0,0,0,1.44,2.88c.14.22.32.41.49.63a4.93,4.93,0,0,0,.56.56,6.45,6.45,0,0,0,1.24.89,6.94,6.94,0,0,0,2.76.84,10,10,0,0,0,2.74-.17,17.6,17.6,0,0,0,5-1.88,35.09,35.09,0,0,0,4.58-2.92,68.25,68.25,0,0,0,8.27-7.37c.88-.93,2.38-2.53,4.27-4.74s4.16-5.06,6.6-8.43a177.71,177.71,0,0,0,15.21-25.38c2.4-4.87,4.63-9.95,6.54-15a111.3,111.3,0,0,0,4.52-15.12,49.52,49.52,0,0,0,1.27-14,18.23,18.23,0,0,0-1.44-6,10.71,10.71,0,0,0-1.45-2.33,7.65,7.65,0,0,0-3.53-2.44,9.06,9.06,0,0,0-4.08-.31,15.79,15.79,0,0,0-3.79,1.06,31.62,31.62,0,0,0-6.72,3.95,69,69,0,0,0-10.36,9.82,115.33,115.33,0,0,0-7,9.18c1.14-1.38,2.21-2.63,3.17-3.68a91.49,91.49,0,0,0-5.58,7.52c-1.16,1.75-1.83,2.86-2.17,3.48s-.33.74-.13.55c.4-.37,1.62-1.92,2.67-3.11,1.44-1.79-.2.93,2-1.91-1.51,2.11-2.25,3.19-3.71,5.37,0,.17,1.06-1.52,2.1-3s2-2.82,1.54-2c-1.49,2-3,4.39-4.42,6.59.32-.32,1.56-2.21,2.75-3.92a21.55,21.55,0,0,1,2.29-3c-.4.59-1.51,2-2.5,3.42a17.13,17.13,0,0,0-1.93,3c0,.11,1.42-2.07,2.16-3.13a78.94,78.94,0,0,0-4.36,7.16c-.54,1.1-.09.54,2-2.49-.68,1.08-1.52,2.36-2.34,3.7s-1.63,2.68-2.28,3.88v0c.67-1.17,1.89-3.15,2.54-4.22-.78,1.31-1.57,2.63-2.34,4,.15-.18.32-.41.48-.63.61-1,1.19-2,1.83-3-.53.87-1.05,1.75-1.57,2.63.45-.61,1-1.32,1.51-2.1,2-3,4-5.76,5.1-7.36,2.19-3.23,4.49-6.38,6.91-9.4a102.27,102.27,0,0,1,7.6-8.55q2-2,4.12-3.81a44.52,44.52,0,0,1,4.36-3.26,23.29,23.29,0,0,1,4.62-2.38,10.84,10.84,0,0,1,2.36-.58A6.7,6.7,0,0,1,302.8,11.24Z"/><path class="cls-6" d="M226.84,72.27s0,.18,0,.22-.09,0-.36-.47a5.82,5.82,0,0,1-.47-4.6,14.4,14.4,0,0,1,2.46-4.51c0-.1.05-.2.08-.3a33.36,33.36,0,0,1,6.91-6,63.68,63.68,0,0,1,7.41-4.44q3.84-2,7.82-3.58c-.15,0-.23,0,.3-.21,2.2-.89,5.31-2,8.57-3L261,45a3.17,3.17,0,0,0,.51-.22c1.48-.43,2.8-.76,4-1.07q6.07-1.59,12.32-2.64a126.61,126.61,0,0,1,12.74-1.48,98.56,98.56,0,0,1,13.2,0c2.25.16,4.49.41,6.76.79a47.67,47.67,0,0,1,6.8,1.64A27.84,27.84,0,0,1,323,44.46a15.52,15.52,0,0,1,2.51,1.79,10.78,10.78,0,0,1,2,2.36,9,9,0,0,1,1,2.25,8.25,8.25,0,0,1,.22,2.58,10,10,0,0,1-.57,2.56A12.41,12.41,0,0,1,327,58.31a20.5,20.5,0,0,1-3.1,3.85,37.12,37.12,0,0,1-3.39,3c.19-.11-.35.34-1.25,1s-2.16,1.54-3.41,2.31c-2.5,1.55-4.91,2.76-3.69,2.18-1.62.86-3.71,1.82-5.42,2.57s-3.07,1.26-3.18,1.32c-.39.18-1.23.55-3.13,1.24s-4.86,1.71-9.53,2.92c-1.82.47-4.16,1-6.2,1.45s-3.8.72-4.45.84l1.37-.25c1.21-.22,2.4-.45,1.37-.25a125.85,125.85,0,0,0,20.14-5.58,87.46,87.46,0,0,0,9.58-4.2,55.57,55.57,0,0,0,9-5.67,31.32,31.32,0,0,0,4-3.75,16.44,16.44,0,0,0,3.08-4.91,10.2,10.2,0,0,0,.67-3.11c0-.28,0-.55,0-.83s0-.57-.07-.84A8.43,8.43,0,0,0,329,50a9.53,9.53,0,0,0-1.56-2.84A14.17,14.17,0,0,0,325.26,45,22.09,22.09,0,0,0,320.33,42a37.44,37.44,0,0,0-5.2-1.84,64.42,64.42,0,0,0-10.66-2c-1.22-.11-3.32-.3-6.07-.38s-6.18-.08-10.06.14a137.51,137.51,0,0,0-26.76,4.25,115.87,115.87,0,0,0-14,4.59A76.15,76.15,0,0,0,235,53.12a34.78,34.78,0,0,0-9.4,8.23,15,15,0,0,0-2.53,5.15,10.94,10.94,0,0,0-.32,2.76,9.72,9.72,0,0,0,.35,2.49,10,10,0,0,0,.82,2,12.83,12.83,0,0,0,2.87,3.59,21.05,21.05,0,0,0,3.48,2.44,34.43,34.43,0,0,0,7.43,3,63.06,63.06,0,0,0,13.7,2,95.92,95.92,0,0,0,10.85-.26c-1.69,0-3.25-.1-4.61-.19a71.74,71.74,0,0,0,8.74-.39c1.94-.2,3.11-.38,3.74-.51s.7-.21.43-.25c-.52-.09-2.38-.07-3.89-.15-2.16,0,.71-.45-2.65-.4,2.4-.15,3.62-.25,6-.5.13-.08-1.72.14-3.4.27s-3.2.22-2.37,0c2.33-.08,4.92-.42,7.32-.71-.43-.06-2.51.17-4.45.33a17.25,17.25,0,0,1-3.54.11c.65-.06,2.35-.11,3.93-.2a14.58,14.58,0,0,0,3.28-.4c.08-.06-2.31.21-3.51.29a62.91,62.91,0,0,0,7.6-1.15c1.07-.29.39-.29-3,0l4-.51c1.42-.2,2.85-.43,4.07-.69h0c-1.22.22-3.32.53-4.45.69,1.39-.21,2.78-.45,4.17-.7-.23,0-.48,0-.76,0-1,.16-2.07.32-3.16.47.92-.13,1.84-.29,2.76-.46l-2.39.15c-3.31.36-6.49.5-8.29.66-3.61.34-7.23.53-10.86.53a90,90,0,0,1-10.88-.62c-1.81-.22-3.6-.51-5.38-.89A47.36,47.36,0,0,1,235.48,78a25.07,25.07,0,0,1-4.9-2.26,15,15,0,0,1-2.13-1.57A9.33,9.33,0,0,1,226.84,72.27Z"/><ellipse class="cls-6" cx="275.73" cy="60.23" rx="9.72" ry="11.5" transform="translate(-6.34 50.77) rotate(-10.4)"/><ellipse class="cls-6" cx="227.42" cy="61.83" rx="5.4" ry="6.39" transform="translate(-7.43 42.08) rotate(-10.4)"/><ellipse class="cls-6" cx="308.45" cy="23.22" rx="5.4" ry="6.39" transform="matrix(0.98, -0.18, 0.18, 0.98, 0.88, 56.07)"/><ellipse class="cls-6" cx="292.01" cy="93.1" rx="5.4" ry="6.39" transform="translate(-12.01 54.25) rotate(-10.4)"/></g><g id="helix-3" data-name="helix" class="cls-2"><path class="cls-6" d="M150.11,201.68s0-.07,0-.09,0,0,.05.27a2,2,0,0,1-.73,1.71,4.71,4.71,0,0,1-1.89.84l-.09.08a14.12,14.12,0,0,1-4,0,30.13,30.13,0,0,1-3.86-.63q-1.93-.43-3.84-1.05c.06,0,.09.07-.16,0-1.06-.33-2.52-.86-4-1.48l-.66-.26a.91.91,0,0,0-.25-.07l-1.83-.81q-2.74-1.2-5.46-2.67T118,194.36c-1.78-1.17-3.55-2.43-5.28-3.83-.86-.71-1.71-1.45-2.54-2.24a28.75,28.75,0,0,1-2.39-2.53,16.93,16.93,0,0,1-1.75-2.44,8.65,8.65,0,0,1-.64-1.34,5.09,5.09,0,0,1-.34-1.41,3.09,3.09,0,0,1,.06-1,2.49,2.49,0,0,1,.43-1,2.94,2.94,0,0,1,.74-.71,4,4,0,0,1,.92-.47,7.82,7.82,0,0,1,2-.42,14.1,14.1,0,0,1,1.94,0,2.48,2.48,0,0,1,.71,0c.49,0,1.17.1,1.83.2a18.38,18.38,0,0,0,1.91.32c.83.18,1.85.45,2.69.69l1.53.47c.2.05.61.17,1.5.49s2.28.82,4.4,1.76c.83.37,1.87.86,2.77,1.31s1.66.85,1.95,1l-.6-.31c-.53-.28-1.05-.54-.6-.32a70.86,70.86,0,0,0-9.17-3.93,44.27,44.27,0,0,0-4.68-1.34,25.54,25.54,0,0,0-4.72-.66,12.27,12.27,0,0,0-2.35.12,5.75,5.75,0,0,0-2.22.79,3.11,3.11,0,0,0-.89.88,1.31,1.31,0,0,0-.17.28,1.73,1.73,0,0,0-.14.31,3,3,0,0,0-.17.67,4.24,4.24,0,0,0,0,1.42,8.07,8.07,0,0,0,.43,1.37,12.84,12.84,0,0,0,1.38,2.43,25.49,25.49,0,0,0,1.7,2.15,42.86,42.86,0,0,0,3.87,3.76c.47.39,1.27,1.06,2.35,1.89s2.46,1.83,4.05,2.87a79,79,0,0,0,11.55,6.31,66,66,0,0,0,6.52,2.5,40,40,0,0,0,6.29,1.48,14.72,14.72,0,0,0,5.41-.09,5,5,0,0,0,2-1,3.29,3.29,0,0,0,1-1.81,3.75,3.75,0,0,0,.09-.94,6.07,6.07,0,0,0-.43-2.07,10.82,10.82,0,0,0-.9-1.84,21.16,21.16,0,0,0-2.38-3.17,39.58,39.58,0,0,0-5.06-4.68c-1.42-1.09-2.9-2.1-4.39-3.06.67.5,1.28,1,1.81,1.41-1.47-1.08-3-2.08-3.57-2.41-.82-.49-1.32-.77-1.6-.91s-.32-.13-.22,0,.93.72,1.52,1.18c.87.63-.37-.05,1,.9-1-.64-1.49-1-2.5-1.58-.07,0,.71.45,1.41.9s1.32.85,1,.67c-1-.65-2-1.28-3.06-1.88.16.15,1,.67,1.84,1.18a11.16,11.16,0,0,1,1.44,1c-.27-.17-1-.65-1.61-1.08a9.34,9.34,0,0,0-1.4-.81s1,.61,1.46.92a34.72,34.72,0,0,0-3.27-1.81c-.48-.21-.21,0,1.2.85l-1.7-1c-.61-.34-1.23-.67-1.76-.94h0c.52.27,1.43.78,1.92,1l-1.8-1,.3.21,1.36.76-1.19-.65c.28.2.62.42,1,.65,1.4.83,2.7,1.72,3.45,2.18,1.5.93,3,1.92,4.44,3a52.49,52.49,0,0,1,4.23,3.37c.68.6,1.34,1.22,2,1.87s1.24,1.31,1.81,2a16.46,16.46,0,0,1,1.5,2.2,8,8,0,0,1,.54,1.15A5,5,0,0,1,150.11,201.68Z"/><path class="cls-6" d="M134.74,167.22s-.07,0-.08-.05,0,0,.23,0a2.16,2.16,0,0,1,1.62,1,7.67,7.67,0,0,1,1,2.25.83.83,0,0,0,.08.12,20.93,20.93,0,0,1,.5,4.49,38.65,38.65,0,0,1-.1,4.31c-.1,1.43-.26,2.84-.47,4.24,0-.07,0-.1,0,.17-.16,1.17-.46,2.77-.83,4.4-.06.24-.11.48-.16.72a.89.89,0,0,0,0,.27c-.18.73-.35,1.38-.51,2-.5,2-1.07,3.94-1.73,5.88s-1.38,3.86-2.21,5.74a54.17,54.17,0,0,1-2.79,5.54c-.53.89-1.09,1.77-1.7,2.62a21.58,21.58,0,0,1-2,2.41,12.07,12.07,0,0,1-2,1.69,5.41,5.41,0,0,1-1.13.56,3.37,3.37,0,0,1-1.21.23,2.49,2.49,0,0,1-1-.2,2.73,2.73,0,0,1-.9-.6,4.42,4.42,0,0,1-.73-.92,6.25,6.25,0,0,1-.52-1.11,13.16,13.16,0,0,1-.62-2.33,21.09,21.09,0,0,1-.26-2.22,4.6,4.6,0,0,1-.07-.8c0-.55-.06-1.32,0-2.05,0-1.46.13-2.8.06-2.14.07-.91.18-2,.3-3s.23-1.62.24-1.69.08-.66.25-1.64.47-2.49,1-4.78c.23-.9.55-2,.84-3s.57-1.79.67-2.1a6,6,0,1,0-.22.65l-.2.64a75.85,75.85,0,0,0-2.43,9.94c-.28,1.7-.5,3.41-.63,5.15a34.44,34.44,0,0,0,0,5.28,19.38,19.38,0,0,0,.39,2.69,9.69,9.69,0,0,0,1,2.61,4.58,4.58,0,0,0,.89,1.12c.08.08.18.15.27.23l.29.19a3,3,0,0,0,1.89.38,4.6,4.6,0,0,0,1.17-.32,7.71,7.71,0,0,0,2-1.28,15.06,15.06,0,0,0,1.71-1.68,29.43,29.43,0,0,0,2.9-3.94c.3-.48.8-1.31,1.41-2.44s1.34-2.57,2.09-4.25a78.68,78.68,0,0,0,4.25-12.36,68.89,68.89,0,0,0,1.45-7.11,49.72,49.72,0,0,0,.58-7,21.94,21.94,0,0,0-.73-6.15,8.18,8.18,0,0,0-1.17-2.45,4.71,4.71,0,0,0-.84-.88,3.36,3.36,0,0,0-.9-.52,3.3,3.3,0,0,0-.85-.21,4,4,0,0,0-1.79.24,7.26,7.26,0,0,0-1.54.8A14.39,14.39,0,0,0,129,169a30.35,30.35,0,0,0-3.58,5.19c-.81,1.48-1.54,3-2.21,4.62.36-.7.72-1.34,1-1.88a40.3,40.3,0,0,0-1.73,3.76c-.34.87-.53,1.41-.62,1.7s-.08.35,0,.25.53-1,.87-1.58c.46-.91,0,.41.69-1-.46,1-.68,1.58-1.11,2.66,0,.07.32-.76.63-1.5s.6-1.4.49-1c-.47,1-.9,2.18-1.31,3.26.11-.17.47-1.1.83-2a9.29,9.29,0,0,1,.71-1.52c-.12.29-.47,1-.77,1.71a7,7,0,0,0-.55,1.49c0,.05.42-1,.64-1.56-.66,1.65-1.09,3-1.23,3.5s0,.24.62-1.26c-.19.53-.44,1.16-.67,1.82s-.46,1.31-.63,1.88h0c.18-.57.53-1.54.71-2.06-.22.64-.44,1.28-.65,1.93.05-.09.1-.21.16-.32.17-.47.33-1,.51-1.45-.15.42-.29.85-.43,1.28.13-.31.29-.66.45-1,.58-1.48,1.22-2.86,1.54-3.65.65-1.6,1.36-3.17,2.12-4.69a46,46,0,0,1,2.51-4.4c.45-.7.93-1.37,1.43-2A19.78,19.78,0,0,1,131,169.3a10,10,0,0,1,1.78-1.45,5.67,5.67,0,0,1,1-.47A2.93,2.93,0,0,1,134.74,167.22Z"/><path class="cls-6" d="M107.48,200.55s0,.07,0,.09,0,0-.2-.17a2.58,2.58,0,0,1-.62-1.95,6.15,6.15,0,0,1,.65-2.17.66.66,0,0,1,0-.14,14.73,14.73,0,0,1,2.44-3.21,27.46,27.46,0,0,1,2.8-2.6c1-.8,2-1.55,3-2.26-.06,0-.1,0,.11-.11.87-.59,2.12-1.34,3.43-2.07l.59-.32.2-.14c.6-.32,1.14-.59,1.64-.83,1.65-.83,3.35-1.58,5.09-2.27a55.44,55.44,0,0,1,5.37-1.8,44.12,44.12,0,0,1,5.71-1.2,29.39,29.39,0,0,1,3-.27,21.38,21.38,0,0,1,3.09.08,12.81,12.81,0,0,1,2.63.54,6.56,6.56,0,0,1,1.25.54,4.72,4.72,0,0,1,1.1.84,3.79,3.79,0,0,1,.63.88,3.42,3.42,0,0,1,.33,1.1,4.42,4.42,0,0,1,0,1.15,5.64,5.64,0,0,1-.28,1.11,9.15,9.15,0,0,1-1,1.95,16.45,16.45,0,0,1-1.19,1.59c.07-.06-.12.18-.45.55a16.71,16.71,0,0,1-1.27,1.31c-.93.9-1.86,1.65-1.39,1.28-.62.52-1.44,1.13-2.11,1.61s-1.21.82-1.25.86-.48.35-1.24.82-2,1.18-3.85,2.13c-.75.38-1.71.82-2.55,1.2l-1.85.77a5.79,5.79,0,1,1,.57-.24l.57-.23a54.87,54.87,0,0,0,8.2-4.25,37.74,37.74,0,0,0,3.75-2.69,24.7,24.7,0,0,0,3.36-3.27,14.13,14.13,0,0,0,1.39-2,7.48,7.48,0,0,0,.88-2.4,4.45,4.45,0,0,0,0-1.41c0-.12-.05-.24-.07-.36s-.07-.24-.11-.35a3.51,3.51,0,0,0-.32-.68,4.24,4.24,0,0,0-.93-1.08,6.09,6.09,0,0,0-1.13-.74,9.88,9.88,0,0,0-2.4-.82,15.59,15.59,0,0,0-2.42-.32,28.18,28.18,0,0,0-4.78.12c-.54.06-1.47.18-2.66.39s-2.68.53-4.34,1a60.72,60.72,0,0,0-11.18,4.28,53.32,53.32,0,0,0-5.64,3.26,33.84,33.84,0,0,0-4.84,3.88,15.23,15.23,0,0,0-3.31,4.42,6.49,6.49,0,0,0-.63,2.45,5.52,5.52,0,0,0,.11,1.23,4.89,4.89,0,0,0,.38,1,4.61,4.61,0,0,0,.55.81,5.6,5.6,0,0,0,1.57,1.29,8.58,8.58,0,0,0,1.72.74,15.49,15.49,0,0,0,3.48.6,27.71,27.71,0,0,0,6.12-.36,46.37,46.37,0,0,0,4.66-1.1c-.73.14-1.41.25-2,.33a31.32,31.32,0,0,0,3.75-1c.82-.27,1.3-.45,1.56-.56s.29-.16.17-.15-1,.18-1.7.29c-.93.19.27-.26-1.18.07,1-.29,1.54-.44,2.56-.77.05,0-.73.22-1.45.43s-1.36.39-1,.24c1-.25,2.09-.63,3.1-1-.19,0-1.07.3-1.89.55a8.07,8.07,0,0,1-1.52.37l1.68-.44a6.3,6.3,0,0,0,1.38-.48s-1,.3-1.49.45a29.75,29.75,0,0,0,3.18-1.19c.43-.22.14-.16-1.29.28.49-.17,1.09-.37,1.68-.59s1.19-.44,1.69-.66h0c-.51.21-1.39.53-1.86.71.58-.22,1.16-.45,1.73-.69l-.32.08-1.33.49c.39-.14.77-.3,1.16-.45l-1,.28c-1.39.46-2.76.81-3.52,1-1.53.48-3.08.89-4.64,1.22a40.22,40.22,0,0,1-4.76.73c-.81.06-1.61.1-2.41.1a19.09,19.09,0,0,1-2.4-.14,11.42,11.42,0,0,1-2.33-.53,6.39,6.39,0,0,1-1.06-.49A4.11,4.11,0,0,1,107.48,200.55Z"/><ellipse class="cls-6" cx="127.51" cy="190.88" rx="4.29" ry="5.08" transform="translate(-62.95 62.75) rotate(-22.33)"/><ellipse class="cls-6" cx="106.78" cy="195.98" rx="2.39" ry="2.83" transform="translate(-66.44 55.25) rotate(-22.33)"/><ellipse class="cls-6" cx="138.27" cy="171.88" rx="2.39" ry="2.83" transform="translate(-54.93 65.41) rotate(-22.33)"/><ellipse class="cls-6" cx="137.55" cy="203.61" rx="2.39" ry="2.83" transform="translate(-67.04 67.52) rotate(-22.33)"/></g><g id="books"><path class="cls-3" d="M275.2,128.53c-.09,2.83-6.05-1.85-6.22,0-.51-.07-.72-1.85-.8-.79.05,2.34-.05-30.68,0-29.89-.17.15.47,1.84.8-.8.1-2,6.36,1,6.22,0,.53-2.33.9.88.8.8.21,2.37,0,30.13,0,29.89-.18,1.22-.18,0-.8.79C275,126.87,275.34,129.59,275.2,128.53Zm-5.72-29.89c-.06.06.11.64,0,.68s5.27,0,5.23,0,0-.7,0-.68c-.12,0-5.16,0-5.23,0S269.57,98.66,269.48,98.64Zm0,2.1c-.06.06.11.64,0,.68s5.27,0,5.23,0,0-.7,0-.68c-.12,0-5.16.05-5.23,0S269.57,100.76,269.48,100.74Zm0,2.09c-.06.06.11.65,0,.69s5.27,0,5.23,0,0-.7,0-.69c-.12,0-5.16.06-5.23,0S269.57,102.86,269.48,102.83Zm4.57,24.65c.37.37.91-.61.79-.8,0,0,.06-2.77,0-2.58,0-.13-.39-.9-.79-.8-.12.08-3.84.35-3.91,0-.37-.26-.7.49-.8.8a17,17,0,0,1,0,2.58c.15.75.33.83.8.8-.13.1,4-.11,3.91,0C273.92,127.26,274.14,127.62,274.05,127.48Zm10.73,1c-.09,2.83-6.06-1.85-6.22,0-.52-.07-.73-1.85-.8-.79.05,2.34-.05-30.68,0-29.89-.17.15.46,1.84.8-.8.1-2,6.36,1,6.22,0,.52-2.33.89.88.79.8.22,2.37,0,30.13,0,29.89-.17,1.22-.18,0-.79.79C284.59,126.87,284.91,129.59,284.78,128.53Zm-5.73-29.89c-.06.06.11.64,0,.68s5.28,0,5.23,0,0-.7,0-.68-5.16,0-5.23,0S279.14,98.66,279.05,98.64Zm0,2.1c-.06.06.11.64,0,.68s5.28,0,5.23,0,0-.7,0-.68-5.16.05-5.23,0S279.14,100.76,279.05,100.74Zm0,2.09c-.06.06.11.65,0,.69s5.28,0,5.23,0,0-.7,0-.69-5.16.06-5.23,0S279.14,102.86,279.05,102.83Zm4.57,24.65c.38.37.92-.61.8-.8-.05,0,.05-2.77,0-2.58,0-.13-.39-.9-.8-.8-.12.08-3.84.35-3.91,0-.37-.26-.7.49-.8.8a17,17,0,0,1,0,2.58c.15.75.34.83.8.8-.13.1,4-.11,3.91,0C283.49,127.26,283.72,127.62,283.62,127.48Zm15.9,0c-.14,2.89-5.85-.81-6.13,1.08-.55,0-.72-1.73-.92-.65.08,2.4-5.27-30.24-5.19-29.43-.36.17.39,1.85.65-.92.16-2,6.35-.1,6.12-1.08.58-2.46,1,.74.93.65.35,2.41,5.13,29.67,5.19,29.43-.22,1.23.07,0-.65.92C299.21,125.74,299.74,128.52,299.52,127.44ZM288.69,99c-.06.15.23.59.12.68s5.2-1,5.15-.91-.15-.72-.12-.68-5.08,1-5.15.91S288.78,99.05,288.69,99Zm.37,2.07c-.06.14.23.58.11.68s5.2-1,5.15-.91-.15-.72-.11-.68c-.12,0-5.08,1-5.15.91S289.15,101.11,289.06,101.06Zm.36,2.07c-.06.14.23.58.12.67s5.2-1,5.15-.91-.15-.71-.12-.67-5.08,1-5.15.91S289.51,103.18,289.42,103.13Zm8.78,23.47c.37.36.85-.77.65-.92s-.39-2.77-.45-2.54c0-.07-.53-.85-.92-.65-.13.09-3.78,1.09-3.86.68-.35-.22-.61.64-.64.93a11.8,11.8,0,0,1,.44,2.53c.24.8.47.76.93.65A19,19,0,0,0,298.2,126.6Z"/></g><g id="books-2" data-name="books"><path d="M276.07,128.53c-.09,2.83-6.05-1.85-6.22,0-.51-.07-.72-1.85-.8-.79.05,2.34-.05-30.68,0-29.89-.17.15.47,1.84.8-.8.1-2,6.36,1,6.22,0,.53-2.33.9.88.8.8.21,2.37,0,30.13,0,29.89-.18,1.22-.18,0-.8.79C275.89,126.87,276.21,129.59,276.07,128.53Zm-5.72-29.89c-.06.06.11.64,0,.68s5.28,0,5.23,0,0-.7,0-.68c-.12,0-5.16,0-5.23,0S270.44,98.66,270.35,98.64Zm0,2.1c-.06.06.11.64,0,.68s5.28,0,5.23,0,0-.7,0-.68c-.12,0-5.16.05-5.23,0S270.44,100.76,270.35,100.74Zm0,2.09c-.06.06.11.65,0,.69s5.28,0,5.23,0,0-.7,0-.69c-.12,0-5.16.06-5.23,0S270.44,102.86,270.35,102.83Zm4.57,24.65c.37.37.91-.61.8-.8-.06,0,0-2.77,0-2.58,0-.13-.4-.9-.8-.8-.12.08-3.84.35-3.91,0-.37-.26-.7.49-.8.8a17,17,0,0,1,0,2.58c.15.75.33.83.8.8-.13.1,4-.11,3.91,0C274.79,127.26,275,127.62,274.92,127.48Zm10.73,1c-.09,2.83-6.06-1.85-6.22,0-.52-.07-.73-1.85-.8-.79.05,2.34-.05-30.68,0-29.89-.17.15.46,1.84.8-.8.1-2,6.36,1,6.22,0,.52-2.33.89.88.8.8.21,2.37,0,30.13,0,29.89-.18,1.22-.19,0-.8.79C285.46,126.87,285.78,129.59,285.65,128.53Zm-5.73-29.89c-.06.06.11.64,0,.68s5.28,0,5.23,0,0-.7,0-.68-5.16,0-5.23,0S280,98.66,279.92,98.64Zm0,2.1c-.06.06.11.64,0,.68s5.28,0,5.23,0,0-.7,0-.68-5.16.05-5.23,0S280,100.76,279.92,100.74Zm0,2.09c-.06.06.11.65,0,.69s5.28,0,5.23,0,0-.7,0-.69-5.16.06-5.23,0S280,102.86,279.92,102.83Zm4.57,24.65c.38.37.92-.61.8-.8-.05,0,0-2.77,0-2.58,0-.13-.39-.9-.8-.8-.12.08-3.84.35-3.91,0-.37-.26-.7.49-.8.8a17,17,0,0,1,0,2.58c.15.75.34.83.8.8-.13.1,4-.11,3.91,0C284.36,127.26,284.59,127.62,284.49,127.48Zm15.9,0c-.14,2.89-5.85-.81-6.12,1.08-.56,0-.73-1.73-.93-.65.08,2.4-5.27-30.24-5.19-29.43-.36.17.39,1.85.65-.92.17-2,6.36-.1,6.12-1.08.58-2.46,1,.74.93.65.35,2.41,5.14,29.67,5.19,29.43-.22,1.23.07,0-.65.92C300.09,125.74,300.62,128.52,300.39,127.44ZM289.56,99c-.06.15.23.59.12.68s5.2-1,5.15-.91-.15-.72-.12-.68-5.08,1-5.15.91S289.65,99.05,289.56,99Zm.37,2.07c-.06.14.23.58.12.68s5.2-1,5.15-.91a6.65,6.65,0,0,1-.12-.68c-.12,0-5.08,1-5.15.91S290,101.11,289.93,101.06Zm.36,2.07c-.06.14.23.58.12.67s5.2-1,5.15-.91-.15-.71-.12-.67-5.08,1-5.15.91S290.38,103.18,290.29,103.13Zm8.78,23.47c.37.36.85-.77.65-.92s-.39-2.77-.45-2.54c0-.07-.53-.85-.92-.65-.13.09-3.78,1.09-3.86.68-.35-.22-.61.64-.64.93a11.8,11.8,0,0,1,.44,2.53c.24.8.47.76.93.65A19,19,0,0,0,299.07,126.6Z"/></g><g id="test_tube" data-name="test tube"><path d="M232.92,112.69c.19,0,7,.16,7.21.17.47-.13,1.42-.64,1.27-1.22a23.74,23.74,0,0,1-.14-3.88,1.17,1.17,0,0,0-1.06-1.16c-.27.26-7.21.23-7.19.15-.69.08-1.49.58-1.51,1.32.34-.27.51,3.28.25,3.49C231.48,112.1,232.23,112.75,232.92,112.69Zm1.21-2.39c.09,0-.07-1.16,0-1.16-.1,0,4.88,0,4.8,0a4.33,4.33,0,0,0-.07,1.13C238.9,110.33,234.11,110.31,234.13,110.3Z"/><path d="M239.69,111.08c.42-.52,0-.39-.93-1,.19.49-4.53.28-4.7-.06-.56.47-1.2.24-.82,1.47-.52.41-.44,7.82-.07,7.61-.73-.09-.84,1.88-1.76,2.69a4.45,4.45,0,0,0-1,2.77c-.77.72-.59.62-.89,1.54.53-.39-.11.25-.26.24a4.31,4.31,0,0,0,3.16,4.23c-.23.17,8.53-.28,8.73,0a2.88,2.88,0,0,0,2-4.29c.2.11.34.5.4-.17-.66,0-.33-.26-.88-.93a4.12,4.12,0,0,0-.92-2.76c-.31-.15.07-.63-.12.21-.34-2.26-1.11-3.14-1.72-3.43C240.15,119.05,240.26,111.53,239.69,111.08Zm-2.25,1.29c.28.1.34,6.85.18,6.36.12.53.18.52.13.4a40.58,40.58,0,0,0,1.85,3.93c-.32.37-.27.52,0,.41a8.5,8.5,0,0,0,1.09,2.09c-.12.49.12.54.54.89-.24.42-.11.34-.18.83.64,0-.08,1-.47.92.44-.27-8.24-.46-8.24,0-.45.13-.65-.72-.33-1-.24-.27-.22.06-.28-.24.32-.22.41.08.77-.75a23.79,23.79,0,0,0,.88-2.77c.43,0,.15-.58.22-.08.65-2,1.5-3.68,1.61-3.46.31-.69.19-.62,0-.51.2-.07-.1-6.24.19-6.36C235.09,112.86,237.82,112.71,237.44,112.37Z"/><path d="M241.15,123.35c-.21.05-9.15,0-9.6.06-.29,0-1,.54-.82,1.11.08.72.3,1.21,1.11,1.23-.35,0,9.34.06,9.38,0,.89,0,1-.47,1.27-1.12C242.25,124,242.24,123.34,241.15,123.35Z"/><path d="M237.51,107.9c.1-.12.3-1.73,0-1.8.3-.37.24-.62.92-.53-.39.07,8.52-.06,8.28.09.63-.11.34,0,.18.29a19,19,0,0,0,.66,2c-.49.69-.22,1.08,1.06,1,0,0,1-.51,1.13-1.08-.3-.09-.12-1.79-.06-1.75a3.08,3.08,0,0,0-2.92-3c.2,0-8.79.11-8.65-.18-1.29.28-3,1.38-3,3.25.18-.3-.23,1.61.36,1.81,0,.39,0,1,.83.94C236.92,109.16,237.35,108.54,237.51,107.9Z"/><path d="M229.63,130.54c-.89,0,25.42,0,25.9.05s2-.58,1.19-1.22c.38-.69.24-1.16-.34-1.21-.9,0-26.81,0-27.66,0,.2,0-.32.47-.62,1.11A1.83,1.83,0,0,0,229.63,130.54Z"/><path d="M253.23,113.83c0-.36-.06,15.08-.09,15.75.1.47.55.86,1.22,1.42.63-.16,1.22-.67,1.26-2,0-.16,0-15,0-14.65,0-.75-.61-1.25-1.29-1.56S253.2,112.91,253.23,113.83Z"/><path d="M244.77,112.64a55,55,0,0,0,7.37,0c.42.21,1-.51,1.32-.92-.13-.29-.49-3.58-.05-3.64a1.1,1.1,0,0,0-1.4-1.16c-.23,0-6.93,0-7.14-.23a1.1,1.1,0,0,0-1,1.34c-.07-.08.08,3.52,0,3.42C243.74,112.3,244.15,112.7,244.77,112.64ZM246,109.1c.13,0,4.71,0,4.88,0a2,2,0,0,0,.07,1.25c-.07-.06-5,0-4.79,0C246.14,110.27,246,109.11,246,109.1Z"/><path d="M250.8,116.27c-.17,0-4.91,0-4.54,0-.72-.08-1.47.47-1.26,1.17-.18.64.49,1.13,1.17,1.2-.27,0,4.84,0,4.56,0,.72-.07,1.43-.53,1.38-1.28C251.84,116.86,251.46,116.28,250.8,116.27Z"/><path d="M247.22,112.66c0,.29,2.33-.19,2.38-.28,0,.19,0,9.69.08,9.82-.12.52-.53,1.37-1.13,1.25a1.07,1.07,0,0,1-1.25-1.16C247.19,122.3,247.29,112.78,247.22,112.66ZM246,110.27c-.54.42-1.33.26-1.18.78.09.27,0,11.15.23,11.35a3.1,3.1,0,0,0,3.71,3.44,4.08,4.08,0,0,0,3.46-3.74c-.33,0-.21-10.46-.21-10.48-.17-.55-.68-1.47-1-1C251,110.05,246.21,110.45,246,110.27Z"/><path d="M250.86,116.21s3.69,0,3.52,0a1.3,1.3,0,0,0,1.37-1.12c-.28-.65-.53-1.29-1.33-1.26,0,0-3.57.06-3.64,0-.48.07-1.25.65-1.14,1.29C249.45,115.7,250.08,116.31,250.86,116.21Z"/><path class="cls-3" d="M232.92,112.69c.19,0,7,.16,7.21.17.47-.13,1.42-.64,1.27-1.22a23.74,23.74,0,0,1-.14-3.88,1.17,1.17,0,0,0-1.06-1.16c-.27.26-7.21.23-7.19.15-.69.08-1.49.58-1.51,1.32.34-.27.51,3.28.25,3.49C231.48,112.1,232.23,112.75,232.92,112.69Zm1.21-2.39c.09,0-.07-1.16,0-1.16-.1,0,4.88,0,4.8,0a4.33,4.33,0,0,0-.07,1.13C238.9,110.33,234.11,110.31,234.13,110.3Z"/><path class="cls-3" d="M232.92,112.69c.19,0,7,.16,7.21.17.47-.13,1.42-.64,1.27-1.22a23.74,23.74,0,0,1-.14-3.88,1.17,1.17,0,0,0-1.06-1.16c-.27.26-7.21.23-7.19.15-.69.08-1.49.58-1.51,1.32.34-.27.51,3.28.25,3.49C231.48,112.1,232.23,112.75,232.92,112.69Zm1.21-2.39c.09,0-.07-1.16,0-1.16-.1,0,4.88,0,4.8,0a4.33,4.33,0,0,0-.07,1.13C238.9,110.33,234.11,110.31,234.13,110.3Z"/><path class="cls-3" d="M239.69,111.08c.42-.52,0-.39-.93-1,.19.49-4.53.28-4.7-.06-.56.47-1.2.24-.82,1.47-.52.41-.44,7.82-.07,7.61-.73-.09-.84,1.88-1.76,2.69a4.45,4.45,0,0,0-1,2.77c-.77.72-.59.62-.89,1.54.53-.39-.11.25-.26.24a4.31,4.31,0,0,0,3.16,4.23c-.23.17,8.53-.28,8.73,0a2.88,2.88,0,0,0,2-4.29c.2.11.34.5.4-.17-.66,0-.33-.26-.88-.93a4.12,4.12,0,0,0-.92-2.76c-.31-.15.07-.63-.12.21-.34-2.26-1.11-3.14-1.72-3.43C240.15,119.05,240.26,111.53,239.69,111.08Zm-2.25,1.29c.28.1.34,6.85.18,6.36.12.53.18.52.13.4a40.58,40.58,0,0,0,1.85,3.93c-.32.37-.27.52,0,.41a8.5,8.5,0,0,0,1.09,2.09c-.12.49.12.54.54.89-.24.42-.11.34-.18.83.64,0-.08,1-.47.92.44-.27-8.24-.46-8.24,0-.45.13-.65-.72-.33-1-.24-.27-.22.06-.28-.24.32-.22.41.08.77-.75a23.79,23.79,0,0,0,.88-2.77c.43,0,.15-.58.22-.08.65-2,1.5-3.68,1.61-3.46.31-.69.19-.62,0-.51.2-.07-.1-6.24.19-6.36C235.09,112.86,237.82,112.71,237.44,112.37Z"/><path class="cls-3" d="M239.69,111.08c.42-.52,0-.39-.93-1,.19.49-4.53.28-4.7-.06-.56.47-1.2.24-.82,1.47-.52.41-.44,7.82-.07,7.61-.73-.09-.84,1.88-1.76,2.69a4.45,4.45,0,0,0-1,2.77c-.77.72-.59.62-.89,1.54.53-.39-.11.25-.26.24a4.31,4.31,0,0,0,3.16,4.23c-.23.17,8.53-.28,8.73,0a2.88,2.88,0,0,0,2-4.29c.2.11.34.5.4-.17-.66,0-.33-.26-.88-.93a4.12,4.12,0,0,0-.92-2.76c-.31-.15.07-.63-.12.21-.34-2.26-1.11-3.14-1.72-3.43C240.15,119.05,240.26,111.53,239.69,111.08Zm-2.25,1.29c.28.1.34,6.85.18,6.36.12.53.18.52.13.4a40.58,40.58,0,0,0,1.85,3.93c-.32.37-.27.52,0,.41a8.5,8.5,0,0,0,1.09,2.09c-.12.49.12.54.54.89-.24.42-.11.34-.18.83.64,0-.08,1-.47.92.44-.27-8.24-.46-8.24,0-.45.13-.65-.72-.33-1-.24-.27-.22.06-.28-.24.32-.22.41.08.77-.75a23.79,23.79,0,0,0,.88-2.77c.43,0,.15-.58.22-.08.65-2,1.5-3.68,1.61-3.46.31-.69.19-.62,0-.51.2-.07-.1-6.24.19-6.36C235.09,112.86,237.82,112.71,237.44,112.37Z"/><path class="cls-3" d="M241.15,123.35c-.21.05-9.15,0-9.6.06-.29,0-1,.54-.82,1.11.08.72.3,1.21,1.11,1.23-.35,0,9.34.06,9.38,0,.89,0,1-.47,1.27-1.12C242.25,124,242.24,123.34,241.15,123.35Z"/><path class="cls-3" d="M241.15,123.35c-.21.05-9.15,0-9.6.06-.29,0-1,.54-.82,1.11.08.72.3,1.21,1.11,1.23-.35,0,9.34.06,9.38,0,.89,0,1-.47,1.27-1.12C242.25,124,242.24,123.34,241.15,123.35Z"/><path class="cls-3" d="M237.51,107.9c.1-.12.3-1.73,0-1.8.3-.37.24-.62.92-.53-.39.07,8.52-.06,8.28.09.63-.11.34,0,.18.29a19,19,0,0,0,.66,2c-.49.69-.22,1.08,1.06,1,0,0,1-.51,1.13-1.08-.3-.09-.12-1.79-.06-1.75a3.08,3.08,0,0,0-2.92-3c.2,0-8.79.11-8.65-.18-1.29.28-3,1.38-3,3.25.18-.3-.23,1.61.36,1.81,0,.39,0,1,.83.94C236.92,109.16,237.35,108.54,237.51,107.9Z"/><path class="cls-3" d="M237.51,107.9c.1-.12.3-1.73,0-1.8.3-.37.24-.62.92-.53-.39.07,8.52-.06,8.28.09.63-.11.34,0,.18.29a19,19,0,0,0,.66,2c-.49.69-.22,1.08,1.06,1,0,0,1-.51,1.13-1.08-.3-.09-.12-1.79-.06-1.75a3.08,3.08,0,0,0-2.92-3c.2,0-8.79.11-8.65-.18-1.29.28-3,1.38-3,3.25.18-.3-.23,1.61.36,1.81,0,.39,0,1,.83.94C236.92,109.16,237.35,108.54,237.51,107.9Z"/><path class="cls-3" d="M229.63,130.54c-.89,0,25.42,0,25.9.05s2-.58,1.19-1.22c.38-.69.24-1.16-.34-1.21-.9,0-26.81,0-27.66,0,.2,0-.32.47-.62,1.11A1.83,1.83,0,0,0,229.63,130.54Z"/><path class="cls-3" d="M229.63,130.54c-.89,0,25.42,0,25.9.05s2-.58,1.19-1.22c.38-.69.24-1.16-.34-1.21-.9,0-26.81,0-27.66,0,.2,0-.32.47-.62,1.11A1.83,1.83,0,0,0,229.63,130.54Z"/><path class="cls-3" d="M253.23,113.83c0-.36-.06,15.08-.09,15.75.1.47.55.86,1.22,1.42.63-.16,1.22-.67,1.26-2,0-.16,0-15,0-14.65,0-.75-.61-1.25-1.29-1.56S253.2,112.91,253.23,113.83Z"/><path class="cls-3" d="M253.23,113.83c0-.36-.06,15.08-.09,15.75.1.47.55.86,1.22,1.42.63-.16,1.22-.67,1.26-2,0-.16,0-15,0-14.65,0-.75-.61-1.25-1.29-1.56S253.2,112.91,253.23,113.83Z"/><path class="cls-3" d="M244.77,112.64a55,55,0,0,0,7.37,0c.42.21,1-.51,1.32-.92-.13-.29-.49-3.58-.05-3.64a1.1,1.1,0,0,0-1.4-1.16c-.23,0-6.93,0-7.14-.23a1.1,1.1,0,0,0-1,1.34c-.07-.08.08,3.52,0,3.42C243.74,112.3,244.15,112.7,244.77,112.64ZM246,109.1c.13,0,4.71,0,4.88,0a2,2,0,0,0,.07,1.25c-.07-.06-5,0-4.79,0C246.14,110.27,246,109.11,246,109.1Z"/><path class="cls-3" d="M244.77,112.64a55,55,0,0,0,7.37,0c.42.21,1-.51,1.32-.92-.13-.29-.49-3.58-.05-3.64a1.1,1.1,0,0,0-1.4-1.16c-.23,0-6.93,0-7.14-.23a1.1,1.1,0,0,0-1,1.34c-.07-.08.08,3.52,0,3.42C243.74,112.3,244.15,112.7,244.77,112.64ZM246,109.1c.13,0,4.71,0,4.88,0a2,2,0,0,0,.07,1.25c-.07-.06-5,0-4.79,0C246.14,110.27,246,109.11,246,109.1Z"/><path class="cls-3" d="M250.8,116.27c-.17,0-4.91,0-4.54,0-.72-.08-1.47.47-1.26,1.17-.18.64.49,1.13,1.17,1.2-.27,0,4.84,0,4.56,0,.72-.07,1.43-.53,1.38-1.28C251.84,116.86,251.46,116.28,250.8,116.27Z"/><path class="cls-3" d="M250.8,116.27c-.17,0-4.91,0-4.54,0-.72-.08-1.47.47-1.26,1.17-.18.64.49,1.13,1.17,1.2-.27,0,4.84,0,4.56,0,.72-.07,1.43-.53,1.38-1.28C251.84,116.86,251.46,116.28,250.8,116.27Z"/><path class="cls-3" d="M247.22,112.66c0,.29,2.33-.19,2.38-.28,0,.19,0,9.69.08,9.82-.12.52-.53,1.37-1.13,1.25a1.07,1.07,0,0,1-1.25-1.16C247.19,122.3,247.29,112.78,247.22,112.66ZM246,110.27c-.54.42-1.33.26-1.18.78.09.27,0,11.15.23,11.35a3.1,3.1,0,0,0,3.71,3.44,4.08,4.08,0,0,0,3.46-3.74c-.33,0-.21-10.46-.21-10.48-.17-.55-.68-1.47-1-1C251,110.05,246.21,110.45,246,110.27Z"/><path class="cls-3" d="M247.22,112.66c0,.29,2.33-.19,2.38-.28,0,.19,0,9.69.08,9.82-.12.52-.53,1.37-1.13,1.25a1.07,1.07,0,0,1-1.25-1.16C247.19,122.3,247.29,112.78,247.22,112.66ZM246,110.27c-.54.42-1.33.26-1.18.78.09.27,0,11.15.23,11.35a3.1,3.1,0,0,0,3.71,3.44,4.08,4.08,0,0,0,3.46-3.74c-.33,0-.21-10.46-.21-10.48-.17-.55-.68-1.47-1-1C251,110.05,246.21,110.45,246,110.27Z"/><path class="cls-3" d="M250.86,116.21s3.69,0,3.52,0a1.3,1.3,0,0,0,1.37-1.12c-.28-.65-.53-1.29-1.33-1.26,0,0-3.57.06-3.64,0-.48.07-1.25.65-1.14,1.29C249.45,115.7,250.08,116.31,250.86,116.21Z"/><path class="cls-3" d="M250.86,116.21s3.69,0,3.52,0a1.3,1.3,0,0,0,1.37-1.12c-.28-.65-.53-1.29-1.33-1.26,0,0-3.57.06-3.64,0-.48.07-1.25.65-1.14,1.29C249.45,115.7,250.08,116.31,250.86,116.21Z"/></g><g id="test_tube-2" data-name="test tube"><path d="M233.9,111.75c.38.33,6.86,1,7.27,1.06.27-.81,1.65-1.23,1.34-1.34a24.71,24.71,0,0,1-.28-5.54c0,1.17,0-.64-.93-1-.53,1.67-7.27,1.49-7.22,1-.73.52-1.8.83-1.85,2,.69-1.68,1,1.71.51,3.09C232.2,110.86,233.18,112.08,233.9,111.75Zm1.21-2.44c.19.07-.14-1,.07-1a30,30,0,0,1,4.84,0c-.08-.14-.27,1-.15.8C239.89,109.47,235.08,109.38,235.11,109.31Z"/><path d="M240.28,107.88c.84.22.48,3.9-.66-.16.37,3.12-4.31,1.75-4.63-.37-.48,3-1.23-1.33-.45,2.92-1,2.65-.89,11.07-.14,9.74-1.18-3.82-.85,2.09-2-1.76-1.22,2.28-1.18,2-.82,2.71-1.31,1.76-1,1.08-1.38,5,1.18-4-.1.09-.38-.32.56-.25,1.68.44,3.74,3.93-.46,1.09,8.42-1.74,8.83-.2,1.36-2.23,2.73-1.88,1.35-4,.42,1.21.7,3.68,1,.93-1.16,1.87-.4,1.39-1.36-1.17.86-.54-.45-6.3-.63-3-.59-.65.17-3.68-.2,1.91,0-5.9-1-5.14-2-3.41C241.21,119.93,241.42,110.71,240.28,107.88Zm-2.11,1.8c.56.67.67,10.14.36,7,.24,2.54.33,1.65.17.17.37,2.88.79.5,2.1,5-.67,2.07-.57,3-.05,2-.2-2.52.79,2,1-1.31-.4,1.36,0,.62.68.83-.6,1.22-.36.7-.51,3.44,1.07-2.8-.08.86-.55.5.89-1.75-7.86-2.94-7.86-.28-.6.84-.72-1.83-.26-1.16-.5-1.71-.44.36-.69-.06.47.62.66,2.51,1.14.09-.25.78.72-.37.57-3,.85.29.27-3.45.41-.25.46-2.37,1.57-6,1.56-2.17.56-3.47.26-2.14-.2-.49.41-.47-.19-6,.39-6.77C235.85,112.81,238.93,111.85,238.17,109.68Z"/><path d="M242,122.1c-.41.34-8.81.07-9.69.39.08-.09-.84.57-.46.69.17,1,.08,1.31,1,1.39-.69.22,9.19.37,9.27.24,1.13.13.84-.14,1.35-.77C243.06,123.06,243.56,122,242,122.1Z"/><path d="M238.31,106.79c.21-.72.59-1.09.09-1.5.58-.8.24-1.09,1.29-.54-.78.41,8.58-.41,8.1.59,1-.72.14-1.29-.16-1,.23.84.85,1.66,1.32,3-1,.82-1,.48.93.18-.61-.17.76-.44,1.07-.53-.61-.53-.24-1.46-.13-1.19-.35-2.91-1.47-3.34-2.93-3.58.41-.12-9.1.66-8.84-1.18-1,1.8-3.16,1.8-3,5.1.35-1.94-.47.31.72,1.54,0-1-.51-.1.45-.4C237.66,108.4,238,107.32,238.31,106.79Z"/><path d="M230.89,129.53c-1.79.23,24.63-.17,25.59.31.5-.39,2.73-.81,1.2-1.4.76-.84,1-1,.52-1.26-1.81-.23-27.43.16-29.13.15,1.06-.25.54.18,0,.71C229.4,129.28,230.76,129.89,230.89,129.53Z"/><path d="M254.27,112.57c0-2.25-.13,13-.19,17.23.2-.55.57-.94,1.26,2.66.61-1,1.26-1.43,1.32-6.3,0-1,0-12.21,0-10.18.05-1.29-.69-1.59-1.38-3.56S254.21,110.28,254.27,112.57Z"/><path d="M245.68,111.42c.5.8,6.92,1,7.59-.3.19,1.32.87-.42,1.47.48-.27-1.83-1-3.57-.11-4-.08-2.33-.74-1.81-1.61-1-.46.23-6.72-.22-7.13-1.45-.16-.36-1.38.36-.89,2.17-.15-.57.16,3.18-.09,2.6C244.82,112.1,245.1,111.8,245.68,111.42Zm1.28-3.36a20.37,20.37,0,0,0,5-.06,1.58,1.58,0,0,0,.13,1.52c-.13-.36-5.25,0-4.81-.08A11.06,11.06,0,0,0,247,108.06Z"/><path d="M251.79,115.38c-.35.11-5.06-.28-4.32.19a.85.85,0,0,0-1.33,1c-.36.56.45.82,1.15,1.26a32,32,0,0,0,4.37.09c.77-.48,1.67-.56,1.55-1.78C252.67,116.23,252.45,115.4,251.79,115.38Z"/><path d="M248.19,111.53c.08,1.86,2.29-1.18,2.39-1.77.06,1.19,0,10.81.15,11.69-.23,0-.61,2.49-1.24,1.33-.68.53-1.24-1-1.12-1.72C248.15,121.15,248.35,112.32,248.19,111.53Zm-1.27-2.44c-.42,2.68-1.48-1.18-1.17-1.37.18,1.72.09,12.77.45,14-.69,1.16,1.39,5.63,3.36,3.56,2,.38,3.47-2.6,3.83-4.55-.64.12-.41-9.36-.41-9.44-.35,0-.83-3-.74,0C252.11,107.73,247.38,110.22,246.92,109.09Z"/><path d="M251.48,115.13a28.69,28.69,0,0,0,3.91-.08c.73.5,1.12-.56,1.22-.81,0-.81-.33-1.39-1.21-1.25-.1-.57-3.4.15-3.78.17-.59.14-1-.1-1.19.65C250.8,115,250.81,115,251.48,115.13Z"/></g><g id="microscope"><path d="M137.38,123.21c.26.26-35.38-.11-35.74,0-.14.09-1.79.48-1.37,1.37-.44.25.12,2.76,0,2.43.75.67,1.65,1.39,1.37,1.36-.82-.31,35.34-.3,35.74,0,.25,0,2.33-.44,1.37-1.36.32-.39-.38-2.2,0-2.43C139.36,123.58,137.72,123.3,137.38,123.21Z"/><path d="M135.31,110.7s-18,0-18.53,0c.24,0,.82.25.25.24.72.36.3.24.49.53-.46.1,1.77,2.27,1.63,2.17.15,0,16.1-.18,16.16,0,1-.11,1.55-.5,1.47-1.48-.28-.4-.66-.8-.43-1A1,1,0,0,0,135.31,110.7Z"/><path d="M99.72,100.87c.33,5.62,3.24,9.77,8.22,14.35.22-2.1-.39,1.25.1.06-.23-2.31,2.79-3,2.4-3.19-.19,2.4-.45-.64-.14-.08-4.49-.67-6.24-8.31-6.63-11.14.11-5.34,6.14-15.29,12.69-12.69,1.71,2.55,3.9,1.28,4.28.57.52,2-.38.64.16,0-.37,2.24-.16-5.13,0-4.22.19-.08.26,2.16-.12,0-1.32,1.24-3,1.49-4.32-.32C106.8,83.08,99.89,94,99.72,100.87Z"/><path d="M128.89,106.48c.12.14-5.17-.2-5.32,0,.1.08,0-2.82,0-2.67.05,0,5.39-.11,5.32,0A15.86,15.86,0,0,1,128.89,106.48Z"/><path d="M128,80.9c0-.1-3.43.1-3.51,0-.08.16.06-1.88,0-1.74a31.61,31.61,0,0,0,3.51,0A11.21,11.21,0,0,0,128,80.9Z"/><path d="M129.72,81.92c-.16-.17-7,.54-7,0-.59.6-1.29,1.46-1.06,1.06.28,1.32-.2,18.27,0,18.89.2-.43.66,1.65,1.06,1.06-.08-.43,6.93.19,7,0,.74.9,1.19-1.41,1.06-1.06-.19,1.16-.09-17.61,0-18.89C131,84.25,130.33,81.78,129.72,81.92Z"/><path d="M124.59,122.33c-.61-.69-7.67-10.7-7.78-10.33a2.44,2.44,0,0,0-2.6-1.3c-1.54-.18-2.53.68-2.6,1.3-.27.84-8,10.75-7.77,10.33C104.41,122.19,124.43,121.34,124.59,122.33Zm-8.82-8.25a1.86,1.86,0,0,1-1.56,1.55,1.62,1.62,0,0,1-1.55-1.55,1.45,1.45,0,0,1,1.55-1.55C115,112.75,115.74,113,115.77,114.08Z"/><path class="cls-3" d="M137.38,123.21c.26.26-35.38-.11-35.74,0-.14.09-1.79.48-1.37,1.37-.44.25.12,2.76,0,2.43.75.67,1.65,1.39,1.37,1.36-.82-.31,35.34-.3,35.74,0,.25,0,2.33-.44,1.37-1.36.32-.39-.38-2.2,0-2.43C139.36,123.58,137.72,123.3,137.38,123.21Z"/><path class="cls-3" d="M137.38,123.21c.26.26-35.38-.11-35.74,0-.14.09-1.79.48-1.37,1.37-.44.25.12,2.76,0,2.43.75.67,1.65,1.39,1.37,1.36-.82-.31,35.34-.3,35.74,0,.25,0,2.33-.44,1.37-1.36.32-.39-.38-2.2,0-2.43C139.36,123.58,137.72,123.3,137.38,123.21Z"/><path class="cls-3" d="M135.31,110.7s-18,0-18.53,0c.24,0,.82.25.25.24.72.36.3.24.49.53-.46.1,1.77,2.27,1.63,2.17.15,0,16.1-.18,16.16,0,1-.11,1.55-.5,1.47-1.48-.28-.4-.66-.8-.43-1A1,1,0,0,0,135.31,110.7Z"/><path class="cls-3" d="M135.31,110.7s-18,0-18.53,0c.24,0,.82.25.25.24.72.36.3.24.49.53-.46.1,1.77,2.27,1.63,2.17.15,0,16.1-.18,16.16,0,1-.11,1.55-.5,1.47-1.48-.28-.4-.66-.8-.43-1A1,1,0,0,0,135.31,110.7Z"/><path class="cls-3" d="M99.72,100.87c.33,5.62,3.24,9.77,8.22,14.35.22-2.1-.39,1.25.1.06-.23-2.31,2.79-3,2.4-3.19-.19,2.4-.45-.64-.14-.08-4.49-.67-6.24-8.31-6.63-11.14.11-5.34,6.14-15.29,12.69-12.69,1.71,2.55,3.9,1.28,4.28.57.52,2-.38.64.16,0-.37,2.24-.16-5.13,0-4.22.19-.08.26,2.16-.12,0-1.32,1.24-3,1.49-4.32-.32C106.8,83.08,99.89,94,99.72,100.87Z"/><path class="cls-3" d="M99.72,100.87c.33,5.62,3.24,9.77,8.22,14.35.22-2.1-.39,1.25.1.06-.23-2.31,2.79-3,2.4-3.19-.19,2.4-.45-.64-.14-.08-4.49-.67-6.24-8.31-6.63-11.14.11-5.34,6.14-15.29,12.69-12.69,1.71,2.55,3.9,1.28,4.28.57.52,2-.38.64.16,0-.37,2.24-.16-5.13,0-4.22.19-.08.26,2.16-.12,0-1.32,1.24-3,1.49-4.32-.32C106.8,83.08,99.89,94,99.72,100.87Z"/><path class="cls-3" d="M128.89,106.48c.12.14-5.17-.2-5.32,0,.1.08,0-2.82,0-2.67.05,0,5.39-.11,5.32,0A15.86,15.86,0,0,1,128.89,106.48Z"/><path class="cls-3" d="M128.89,106.48c.12.14-5.17-.2-5.32,0,.1.08,0-2.82,0-2.67.05,0,5.39-.11,5.32,0A15.86,15.86,0,0,1,128.89,106.48Z"/><path class="cls-3" d="M128,80.9c0-.1-3.43.1-3.51,0-.08.16.06-1.88,0-1.74a31.61,31.61,0,0,0,3.51,0A11.21,11.21,0,0,0,128,80.9Z"/><path class="cls-3" d="M128,80.9c0-.1-3.43.1-3.51,0-.08.16.06-1.88,0-1.74a31.61,31.61,0,0,0,3.51,0A11.21,11.21,0,0,0,128,80.9Z"/><path class="cls-3" d="M129.72,81.92c-.16-.17-7,.54-7,0-.59.6-1.29,1.46-1.06,1.06.28,1.32-.2,18.27,0,18.89.2-.43.66,1.65,1.06,1.06-.08-.43,6.93.19,7,0,.74.9,1.19-1.41,1.06-1.06-.19,1.16-.09-17.61,0-18.89C131,84.25,130.33,81.78,129.72,81.92Z"/><path class="cls-3" d="M129.72,81.92c-.16-.17-7,.54-7,0-.59.6-1.29,1.46-1.06,1.06.28,1.32-.2,18.27,0,18.89.2-.43.66,1.65,1.06,1.06-.08-.43,6.93.19,7,0,.74.9,1.19-1.41,1.06-1.06-.19,1.16-.09-17.61,0-18.89C131,84.25,130.33,81.78,129.72,81.92Z"/><path class="cls-3" d="M124.59,122.33c-.61-.69-7.67-10.7-7.78-10.33a2.44,2.44,0,0,0-2.6-1.3c-1.54-.18-2.53.68-2.6,1.3-.27.84-8,10.75-7.77,10.33C104.41,122.19,124.43,121.34,124.59,122.33Zm-8.82-8.25a1.86,1.86,0,0,1-1.56,1.55,1.62,1.62,0,0,1-1.55-1.55,1.45,1.45,0,0,1,1.55-1.55C115,112.75,115.74,113,115.77,114.08Z"/><path class="cls-3" d="M124.59,122.33c-.61-.69-7.67-10.7-7.78-10.33a2.44,2.44,0,0,0-2.6-1.3c-1.54-.18-2.53.68-2.6,1.3-.27.84-8,10.75-7.77,10.33C104.41,122.19,124.43,121.34,124.59,122.33Zm-8.82-8.25a1.86,1.86,0,0,1-1.56,1.55,1.62,1.62,0,0,1-1.55-1.55,1.45,1.45,0,0,1,1.55-1.55C115,112.75,115.74,113,115.77,114.08Z"/></g><g id="microscope-2" data-name="microscope"><path d="M140.18,122.19c-1.41.31-36.94.46-35.94.3-1.95-.54-1.39.64-1.89.73-1.1.16-.49,2.44.55,2.42-1.46.9-.36,1.43,0,1.85,1.75-.52,35.78,0,35.44-.08,2.53-.28,2.9-1.08,2.9-1.41-.62.14-.27-2.64.27-2.45C140.54,122.53,139.89,121.75,140.18,122.19Z"/><path d="M137.49,109.64c-.4,0-18.65.25-18.94.21.62-.19.06-.09,1,.11-.54,0,.33.44-.32.53.44-.25,2.22,2,1.71,2.28-.36-.2,16.58-.11,15.78-.31,1.4.06,2.18-.31,1.85-1.4.25-.17.16-.63-.34-1.06A1.65,1.65,0,0,0,137.49,109.64Z"/><path d="M102.11,100.07c-.71,5.1,3.14,9.36,7.42,15.71.52.1.83,1.06,1-4.1,0,3.48,1.41,0,2.47,1.44-.9.2-.47-2.19-.82-3-3.55.85-6.51-3.78-6.94-8.9.08-9.47,6.13-13.49,13.07-14.58,2,.67,4.15,1.06,4.62.56.29,2.39-.57,1.66-.15-.68.21,2.37,0-4.88.21-3.44,0-.66-.57.18-.19,2.16-1.47-2.39-3.29-1.44-4.54-4.09C109.32,84.8,101.53,93.1,102.11,100.07Z"/><path d="M131,105.28c-.19,0-5.4.08-5.42.17a16.5,16.5,0,0,0,0-2.44c0-.33,5.15-.09,5.33-.38A12.36,12.36,0,0,0,131,105.28Z"/><path d="M130,80c0-.17-3.39,0-3.42-.21-.13.26,0-1.52,0-1.78,0,.15,3.46.06,3.37.3C130.07,78.25,130.09,80.06,130,80Z"/><path d="M131.65,79.14c.11,1.11-6.92,1.24-6.68,2.06-1-.61-1.41,1.71-1.52,1.15.13.4.26,18.38.48,18.27-.41.66.22,1.9.8,1.85-.22.44,6.78-1.16,7.26.78.51-2.33.71-2.23,1-1.79-.23-.4-.05-20.42,0-18.58C132.59,82.56,132,79.68,131.65,79.14Z"/><path d="M126.13,120.54c.45,1.13-7.46-8.6-6.86-8.8-1.36-1.4-1.81-1.65-2.79-1.36-.85-.13-1.91.72-2.6-.14.2,1.42-7.55,11.42-8.23,11C106,122.21,126,120.29,126.13,120.54Zm-8.43-7.67c.07,1.16-.65,2-1.42,2a1.66,1.66,0,0,1-1.58-1.57,2.41,2.41,0,0,1,1.55-1.94C117.14,111.7,117.68,112,117.7,112.87Z"/></g><g id="hotdog"><path class="cls-3" d="M200.05,120.08a3.76,3.76,0,0,0,.41-5,10.72,10.72,0,0,0-3.35-4c-1-.74-2.89-2.4-4.18-3.53-1.3-.64-1.49-1.38-2.47-1.62-.25.1,1.72-3,1.56-3.33a17.74,17.74,0,0,1-2.26,2.89c-1-.62-1.81-.57-2.44-1.29-.81,0-1.11-.77-2.41-1,1.3-1.91.33-3.94.82-3.57-.25-.35-1.87,3.37-1.57,3.32-.64-.25-1.79-1.11-2.85-.87-3.15-.46-5.16-1.29-7.37-1.05-2.49-.2-3.69-.32-3.21.08a4.24,4.24,0,0,0-3.64,3.52c-.23-.23-.52,0-.68-.34.07.21-.08.59,0,.87.15,0,.08,1,.05.87.48,0,.4-.9.55-.36-.37.37.36.37,0,.06,0,2.81,2,3.62,4.65,3.65.22-.44,2,.22,3.73.07a7.09,7.09,0,0,1,4,.77c.07-.32-.17-.24,1.14.35-.42.14-1.84,3.11-1.63,3.46.63-.46-.41,3.72.2,3.67-.4.12-.53,1.83-1,2.11.31,0,.15-.15-.17.35-.06.15-2,5.33-2.52,5.37.15-.25,3,1.13,3.15,1.48-.52,0,2.46-5.33,2.52-5.37-.14.2.56-.16.16-.35.09.55.59-1.6,1-2.11-.37.16,3.23-1.71,3-2.19.65.21,1.72-3.34,1.62-3.46.7-.06.44.55,1.11.74,1.82,1.75,3.55,2.36,4.17,3.77,1,.29.41,1.34,1,1.2.26.2.38.61.31.34.1.34-.5.55.14.09-.58.21.2-.35,0,0,0,.23.61-.43,0,0-.68-.14.23-.37,0,0s0-.32-.1,0c0-.21.61-.39,0,0,.57.24.64.39,0,0,.11-.16-.4.43,0,0,1.39,1.77,4.5,2.11,5.76,1.26.07-.43,0-.44.11-.07s.64.86.08.72c.09.36.35,0,.7-.52-.65-.18.88-.52.71-.53C201.43,120,199.52,120.29,200.05,120.08ZM185,115s-1.73,1.52-3.08.92-1.23-3-1.26-3,.35-.86,1-2.11a15.07,15.07,0,0,1,2.22.92l2.15,1.14C185.43,114.11,184.92,115,185,115Zm-13.3-5.63Zm21.74,10.22Zm-21.77-10.22h0Z"/></g><g id="hotdog-2" data-name="hotdog"><path d="M199.05,121.08a3.76,3.76,0,0,0,.41-5,10.72,10.72,0,0,0-3.35-4c-1-.74-2.89-2.4-4.18-3.53-1.3-.64-1.49-1.38-2.47-1.62-.25.1,1.72-3,1.56-3.33a17.74,17.74,0,0,1-2.26,2.89c-1-.62-1.81-.57-2.44-1.29-.81,0-1.11-.77-2.41-1,1.3-1.91.33-3.94.82-3.57-.25-.35-1.87,3.37-1.57,3.32-.64-.25-1.79-1.11-2.85-.87-3.15-.46-5.16-1.29-7.37-1.05-2.49-.2-3.69-.32-3.21.08a4.24,4.24,0,0,0-3.64,3.52c-.23-.23-.52,0-.68-.34.07.21-.08.59,0,.87.15,0,.08,1,.05.87.48,0,.4-.9.55-.36-.37.37.36.37,0,.06,0,2.81,2,3.62,4.65,3.65.22-.44,2,.22,3.73.07a7.09,7.09,0,0,1,4,.77c.07-.32-.17-.24,1.14.35-.42.14-1.84,3.11-1.63,3.46.63-.46-.41,3.72.2,3.67-.4.12-.53,1.83-1,2.11.31,0,.15-.15-.17.35-.06.15-2,5.33-2.52,5.37.15-.25,3,1.13,3.15,1.48-.52,0,2.46-5.33,2.52-5.37-.14.2.56-.16.16-.35.09.55.59-1.6,1-2.11-.37.16,3.23-1.71,3-2.19.65.21,1.72-3.34,1.62-3.46.7-.06.44.55,1.11.74,1.82,1.75,3.55,2.36,4.17,3.77,1,.29.41,1.34,1,1.2.26.2.38.61.31.34.1.34-.5.55.14.09-.58.21.2-.35,0,0,0,.23.61-.43,0,0-.68-.14.23-.37,0,0s0-.32-.1,0c0-.21.61-.39,0,0,.57.24.64.39,0,0,.11-.16-.4.43,0,0,1.39,1.77,4.5,2.11,5.76,1.26.07-.43,0-.44.11-.07s.64.86.08.72c.09.36.35,0,.7-.52-.65-.18.88-.52.71-.53C200.43,121,198.52,121.29,199.05,121.08ZM184,116s-1.73,1.52-3.08.92-1.23-3-1.26-3,.35-.86,1-2.11a15.07,15.07,0,0,1,2.22.92l2.15,1.14C184.43,115.11,183.92,116,184,116Zm-13.3-5.63Zm21.74,10.22Zm-21.77-10.22h0Z"/></g></g></g></g></g></svg>