<svg xmlns="http://www.w3.org/2000/svg" xmlns:xlink="http://www.w3.org/1999/xlink" viewBox="0 0 344 236"><defs><style>.cls-1,.cls-42{stroke:#000;stroke-miterlimit:10;stroke-width:2px;}.cls-1{fill:url(#linear-gradient);}.cls-2{fill:#460094;}.cls-2,.cls-3{opacity:0.22;}.cls-3{fill:#fc95e6;}.cls-4{fill:#f96bce;opacity:0.27;}.cls-5{fill:#fff;}.cls-6{fill:#231f20;}.cls-11,.cls-14,.cls-17,.cls-20,.cls-23,.cls-26,.cls-29,.cls-32,.cls-35,.cls-38,.cls-41,.cls-42,.cls-7{fill:none;}.cls-12,.cls-15,.cls-18,.cls-21,.cls-24,.cls-27,.cls-30,.cls-33,.cls-36,.cls-39,.cls-8{fill:#fbecc5;}.cls-10,.cls-11,.cls-12,.cls-13,.cls-14,.cls-15,.cls-16,.cls-17,.cls-18,.cls-19,.cls-20,.cls-21,.cls-22,.cls-23,.cls-24,.cls-25,.cls-26,.cls-27,.cls-28,.cls-29,.cls-30,.cls-31,.cls-32,.cls-33,.cls-34,.cls-35,.cls-36,.cls-37,.cls-38,.cls-39,.cls-40,.cls-41,.cls-8{stroke:#231f20;}.cls-10,.cls-11,.cls-8{stroke-width:0.11px;}.cls-11,.cls-12,.cls-14,.cls-15,.cls-17,.cls-18,.cls-20,.cls-21,.cls-23,.cls-24,.cls-26,.cls-27,.cls-29,.cls-30,.cls-32,.cls-33,.cls-35,.cls-36,.cls-38,.cls-39,.cls-41,.cls-8,.cls-9{opacity:0.8;}.cls-10,.cls-13,.cls-16,.cls-19,.cls-22,.cls-25,.cls-28,.cls-31,.cls-34,.cls-37,.cls-40{fill:#78cbf2;}.cls-12,.cls-13,.cls-14{stroke-width:0.2px;}.cls-15,.cls-16,.cls-17{stroke-width:0.23px;}.cls-18,.cls-19,.cls-20{stroke-width:0.29px;}.cls-21,.cls-22,.cls-23{stroke-width:0.1px;}.cls-24,.cls-25,.cls-26{stroke-width:0.15px;}.cls-27,.cls-28,.cls-29{stroke-width:0.38px;}.cls-30,.cls-31,.cls-32{stroke-width:0.27px;}.cls-33,.cls-34,.cls-35{stroke-width:0.39px;}.cls-36,.cls-37,.cls-38{stroke-width:0.08px;}.cls-39,.cls-40,.cls-41{stroke-width:0.21px;}</style><linearGradient id="linear-gradient" x1="8.09" y1="3.23" x2="335.91" y2="232.77" gradientUnits="userSpaceOnUse"><stop offset="0" stop-color="#c9175c"/><stop offset="0.39" stop-color="#6a59ff"/><stop offset="0.49" stop-color="#6361f9"/><stop offset="0.63" stop-color="#4e75ea"/><stop offset="0.81" stop-color="#2d98d1"/><stop offset="1" stop-color="#00c5b0"/></linearGradient></defs><g id="Layer_2" data-name="Layer 2"><g id="blue"><g id="spacecraft"><g id="space"><rect id="frame" class="cls-1" x="1" y="1" width="342" height="234" rx="18"/><path id="planet" class="cls-2" d="M272.29,52.22V33.65a1.06,1.06,0,1,1,2.12,0V45.32l.57-.65c.61-.71,1.18-1.37,1.73-2.07a1.07,1.07,0,0,1,1.68,1.32c-.59.73-1.2,1.45-1.79,2.14l-.71.81a19.49,19.49,0,0,0-1.64,2.22Zm-1.75-18.57a1.07,1.07,0,1,0-2.13,0v2.17a17.62,17.62,0,0,1-.18-5.66,1.07,1.07,0,1,0-2.12-.26,20.08,20.08,0,0,0,1.11,9.54,15.86,15.86,0,0,0,1.34,2.72l2,3.28V33.65Zm14.62-10.16a5.79,5.79,0,0,0-.6.12,1.07,1.07,0,0,1,.62.05A.52.52,0,0,0,285.16,23.49Zm-1.1,19a4.94,4.94,0,0,0,.52.13h0A5.66,5.66,0,0,1,284.06,42.53Zm10.67-14.82a9.65,9.65,0,0,0-6.21-4.14,7.28,7.28,0,0,0-1.22-.16,6.48,6.48,0,0,0-6.43-5.76,6.31,6.31,0,0,0-2.43.48,10,10,0,0,0-3.29-3.57,9.85,9.85,0,0,0-7.49-1.44,10.08,10.08,0,0,0-6.34,4.18,9.71,9.71,0,0,0-1.61,6.45,13.83,13.83,0,0,0,6.85,26.74,1.07,1.07,0,0,0-.39-2.1A11.72,11.72,0,0,1,252.52,39a11.7,11.7,0,0,1,8.59-13.48h0l.19-.05.57-.12a12,12,0,0,1,3.28-.15,1.06,1.06,0,0,0,.2-2.12,13.63,13.63,0,0,0-3.55.12,7.54,7.54,0,0,1,1.29-4.75,7.93,7.93,0,0,1,5-3.29A7.81,7.81,0,0,1,274,16.32a8,8,0,0,1,2.93,3.53A.88.88,0,0,0,277,20a7.33,7.33,0,0,1,.38,1.29,7.85,7.85,0,0,1-.21,4,1.05,1.05,0,0,0,.69,1.34,1.25,1.25,0,0,0,.32,0,1.07,1.07,0,0,0,1-.74,10,10,0,0,0,.27-5,6.52,6.52,0,0,0-.2-.79,4.56,4.56,0,0,1,1.64-.32,4.35,4.35,0,0,1,4.29,3.72,1.1,1.1,0,0,1,0,.18.93.93,0,0,0-.62-.06,10.17,10.17,0,0,0-1.26.36l-.22.09c-.19.07-.37.16-.56.24a6,6,0,0,0-.62.32,7.77,7.77,0,0,0-1.18.78,5.47,5.47,0,0,0-.54.44,8.32,8.32,0,0,0-1,1,5.83,5.83,0,0,0-.43.53h0c-.14.19-.27.38-.4.58a4.86,4.86,0,0,0-.36.61c-.12.24-.25.48-.35.73s-.15.37-.22.55v0c-.08.22-.15.45-.22.68v0c-.06.23-.12.45-.16.69a1.05,1.05,0,0,0,.84,1.25.71.71,0,0,0,.2,0,1.07,1.07,0,0,0,1.05-.86l.09-.36a2.24,2.24,0,0,1,.1-.37,3.89,3.89,0,0,1,.23-.62,3,3,0,0,1,.18-.41l.1-.24.12-.22c.07-.13.16-.27.24-.4a1.05,1.05,0,0,1,.18-.25,1.87,1.87,0,0,1,.2-.29,2.6,2.6,0,0,1,.3-.36,2.25,2.25,0,0,1,.21-.24,1.52,1.52,0,0,1,.22-.22s0,0,0,0a3.38,3.38,0,0,1,.46-.4,4.33,4.33,0,0,1,.51-.39,7.07,7.07,0,0,1,.84-.49l.29-.14.29-.13.3-.11a1.32,1.32,0,0,1,.3-.1,1.81,1.81,0,0,1,.31-.09h0a7.61,7.61,0,0,1,9.41,8.84,7.49,7.49,0,0,1-3.24,4.84,7.57,7.57,0,0,1-4.15,1.3,8.24,8.24,0,0,1-1.56-.15l-.15,0-.39-.1a5,5,0,0,1-.51-.16,7.19,7.19,0,0,1-.86-.37l-.13-.05a1.12,1.12,0,0,0-.64-.11.77.77,0,0,0-.27.07A1,1,0,0,0,282,40a1,1,0,0,0-.29.35,1.21,1.21,0,0,0-.1.36,1.14,1.14,0,0,0,0,.41,1.23,1.23,0,0,0,.12.26,1.3,1.3,0,0,0,.18.23.79.79,0,0,0,.25.17,1.92,1.92,0,0,0,.25.12,2.16,2.16,0,0,0,.34.17l.27.11a2.74,2.74,0,0,0,.4.15l.67.21a4.88,4.88,0,0,0,.55.12.61.61,0,0,0,.13,0l.8.13a10,10,0,0,0,1.11.06,9.24,9.24,0,0,0,1.05-.06,9.74,9.74,0,0,0,7-15.12ZM299.82,98h0l0,0S299.82,98,299.82,98Zm-.95-3.93a1.08,1.08,0,0,0,.29-1.48c-.5-.74-1-1.49-1.45-2.28l-.45-.74,11.13,3.53a1.07,1.07,0,1,0,.64-2l-17.7-5.6,2.39,2.82a19.19,19.19,0,0,1,1.62,2.24c.18.3.37.6.56.9.47.78,1,1.59,1.5,2.36a1.08,1.08,0,0,0,.88.47A1,1,0,0,0,298.87,94.06Zm12-5.37a1.07,1.07,0,0,0-.7-1.33l-2.07-.65a17.65,17.65,0,0,1,5.45,1.52,1.06,1.06,0,0,0,.89-1.93A19.89,19.89,0,0,0,305,84.49a14.91,14.91,0,0,0-3,.46l-3.72.89,11.23,3.55a1,1,0,0,0,.33,0A1.09,1.09,0,0,0,310.9,88.69ZM299.82,98h0l0,0S299.82,98,299.82,98Zm9.05.21-.13-.07.13.07a8.24,8.24,0,0,1,1.27.89A8,8,0,0,0,308.87,98.2Zm3.69,4.72a6.69,6.69,0,0,1,.2,1A7,7,0,0,0,312.56,102.92Zm2.1,3.44.17,0c0-.14,0-.27.05-.41A1,1,0,0,1,314.66,106.36Zm-.73-5.8a12.45,12.45,0,0,1,.5,1.19A7.31,7.31,0,0,0,313.93,100.56Zm1,5.37c0-.05,0-.11,0-.16a2.45,2.45,0,0,0,0-.27C314.92,105.64,314.91,105.79,314.89,105.93Zm-78.8-10.8c.52-.77,1-1.58,1.5-2.35l.56-.91a19.19,19.19,0,0,1,1.62-2.24l2.38-2.82-17.7,5.6a1.07,1.07,0,0,0,.65,2l11.13-3.53-.45.74c-.49.79-.95,1.54-1.45,2.28a1.06,1.06,0,1,0,1.76,1.19Zm-12.17-4.38,11.24-3.55-3.72-.9a16.48,16.48,0,0,0-3-.46A19.89,19.89,0,0,0,219,87.66a1.06,1.06,0,1,0,.89,1.93,17.66,17.66,0,0,1,5.45-1.53l-2.07.66a1.06,1.06,0,0,0,.32,2.07A.85.85,0,0,0,223.92,90.75Zm-5.34,16.45a3.6,3.6,0,0,0,.07.55l.16,0A1.17,1.17,0,0,1,218.58,107.2ZM330,92.83a9.9,9.9,0,0,1-3.65,6.71,9.75,9.75,0,0,1-4.39,2,6.22,6.22,0,0,1-.27,2.46,6.43,6.43,0,0,1-3.19,3.8,6.36,6.36,0,0,1-3,.72,7.69,7.69,0,0,1-1.27-.11,9.23,9.23,0,0,1-.52,1.11,9.75,9.75,0,0,1-5.81,4.68,10,10,0,0,1-2.75.39A9.74,9.74,0,0,1,295.65,103a6.87,6.87,0,0,1-2-10.88,19.64,19.64,0,0,0-2.28-3.22,12.58,12.58,0,0,0-6.61-3.1,1.06,1.06,0,0,1-.92.54.87.87,0,0,1-.41-.09,1.06,1.06,0,0,1-.57-1.4,17.9,17.9,0,0,0,1.41-7A17,17,0,0,0,283.8,74c-2.39,2.56-4.95,5.21-7.63,7.89-4.9,4.9-9.78,9.49-14.2,13.34a17.65,17.65,0,0,0,4.33.54,18,18,0,0,0,13.1-5.68A1.06,1.06,0,1,1,281,91.56a20.08,20.08,0,0,1-14.65,6.36,19.78,19.78,0,0,1-6.2-1c-9,7.75-12.46,9.32-14,9.32a1.46,1.46,0,0,1-1.14-.51c-.72-.73-2.08-2.08,7.39-13.41a19.68,19.68,0,0,1-3.87-5.13,12.32,12.32,0,0,0-6.38,3.06,20.13,20.13,0,0,0-2.29,3.22,6.82,6.82,0,0,1,1.53,2.61,6.89,6.89,0,0,1-3.55,8.27A9.74,9.74,0,0,1,228.29,116a10,10,0,0,1-2.75-.39,9.7,9.7,0,0,1-5.82-4.68,9.46,9.46,0,0,1-.52-1.12,6.75,6.75,0,0,1-1.27.12,6.44,6.44,0,0,1-6.44-7,10.06,10.06,0,0,1-6-16.06,9.65,9.65,0,0,1,5.67-3.48,13.83,13.83,0,0,1,27.56-1.54,1.07,1.07,0,1,1-2.12.25,11.7,11.7,0,0,0-23.3,2.06v0s0,.07,0,.12h0c0,.22,0,.43.06.64a11.84,11.84,0,0,0,.84,3.18,1.08,1.08,0,0,1-.56,1.4,1.25,1.25,0,0,1-.42.08,1.09,1.09,0,0,1-1-.64,13.56,13.56,0,0,1-1-3.43,7.61,7.61,0,0,0-4.14,2.66A7.89,7.89,0,0,0,205.57,94a7.86,7.86,0,0,0,7.12,7h.15a8.44,8.44,0,0,0,1.33,0,7.69,7.69,0,0,0,3.72-1.4,1.07,1.07,0,0,1,1.49.25,1.06,1.06,0,0,1-.25,1.48,10.07,10.07,0,0,1-4.73,1.79l-.81,0a4,4,0,0,0,.2,1.64,4.35,4.35,0,0,0,4.84,3l.16,0a1,1,0,0,1-.23-.51v-.06c0-.3-.05-.6-.05-.9s0-.43,0-.63,0-.43.06-.64l.06-.32a1.3,1.3,0,0,1,0-.22c0-.24.11-.48.17-.72a2.29,2.29,0,0,1,.08-.28c0-.17.12-.34.17-.51a7.89,7.89,0,0,1,.69-1.47c0-.09.09-.17.14-.26a9.39,9.39,0,0,1,2.4-2.67l.52-.38c.23-.16.47-.3.72-.44a1.07,1.07,0,0,1,1,1.87,7.28,7.28,0,0,0-.88.56,7.07,7.07,0,0,0-.78.67c-.12.12-.24.23-.35.36a7.73,7.73,0,0,0-1.27,1.94c0,.1-.09.17-.12.27a5.49,5.49,0,0,0-.2.57,1.4,1.4,0,0,0-.1.35c0,.09-.05.18-.07.27a2.61,2.61,0,0,0-.06.27s0,.1,0,.15a1.45,1.45,0,0,0,0,.28,7.33,7.33,0,0,0,0,1.69s0,.07,0,.1a7.48,7.48,0,0,0,.89,2.87,7.63,7.63,0,0,0,14-5.88,9.06,9.06,0,0,0-.62-1.44.57.57,0,0,0-.08-.13l-.2-.34-.31-.44c-.09-.13-.18-.24-.28-.36s-.21-.24-.32-.35a19.92,19.92,0,0,1-6.73,3.49,1.13,1.13,0,0,1-.3,0,1,1,0,0,1-1-.77,1.06,1.06,0,0,1,.71-1.32A17.88,17.88,0,0,0,233,98.88a19.34,19.34,0,0,0,3.39-3.81c.42-.61.82-1.26,1.19-1.88l0-.07,0-.07.07-.1a24.5,24.5,0,0,1,2.86-4.11,14.19,14.19,0,0,1,7-3.6c-.22-.58-.43-1.17-.6-1.77l-9.24,2.93A9.62,9.62,0,0,1,235,87l-.27,0a8.44,8.44,0,0,1-2.19-.5c-.3-.09-.6-.2-.89-.28a16.85,16.85,0,0,0-2.63-.42,1.07,1.07,0,1,1,.19-2.13,18.39,18.39,0,0,1,3,.49c.34.1.67.2,1,.32a8.06,8.06,0,0,0,1.67.4,7.1,7.1,0,0,0,2.28-.49l.33-.1,9.25-2.92h0a1,1,0,0,1,.77-.65,1,1,0,0,1,1.25.82,18,18,0,0,0,10.88,13c4.63-4,9.83-8.85,15.07-14.08q4.68-4.69,8.45-8.76a17.93,17.93,0,0,0-34.75,6.22,1.07,1.07,0,0,1-2.13,0A20.08,20.08,0,0,1,266.3,57.84a21,21,0,0,1,2.11.11V48.17a6.73,6.73,0,0,0-.22-2.31,6.18,6.18,0,0,0-.9-1.48c-.2-.29-.41-.58-.6-.88a18.71,18.71,0,0,1-1.35-2.69,1,1,0,0,1,.57-1.39,1.06,1.06,0,0,1,1.38.58,16.81,16.81,0,0,0,1.21,2.37c.17.26.35.52.53.77a8.26,8.26,0,0,1,1.14,2,8.25,8.25,0,0,1,.37,3.09V58.27a17.21,17.21,0,0,1,2,.54,14.46,14.46,0,0,1,1.19-8.7,24.67,24.67,0,0,1,3-4c.54-.62,1.11-1.27,1.63-1.91a18.88,18.88,0,0,0,2.6-4.4,17.7,17.7,0,0,0,1.42-7.32,1.06,1.06,0,1,1,2.12,0A19.52,19.52,0,0,1,283.25,40l-.13-.05a1.12,1.12,0,0,0-.64-.11.77.77,0,0,0-.27.07A1,1,0,0,0,282,40a1,1,0,0,0-.29.35,1.21,1.21,0,0,0-.1.36,1.14,1.14,0,0,0,0,.41,1.23,1.23,0,0,0,.12.26,1.3,1.3,0,0,0,.18.23.79.79,0,0,0,.25.17,1.92,1.92,0,0,0,.25.12,20.85,20.85,0,0,1-2.33,3.67c-.21.26-.41.52-.64.76a4.55,4.55,0,0,0,1.48.25,4.78,4.78,0,0,0,4.65-3.76,10,10,0,0,0,1.11.07,7.41,7.41,0,0,0,1.05-.07A6.88,6.88,0,0,1,278,48a21.77,21.77,0,0,0-2.39,3.15,12.63,12.63,0,0,0-.88,7.59,1,1,0,0,1-.16.82,19.91,19.91,0,0,1,5.88,4c1.13-1,2.25-2,3.3-2.92a1.07,1.07,0,1,1,1.4,1.61q-1.59,1.36-3.28,2.89a19.48,19.48,0,0,1,2.89,4.72c7.85-8.63,12.25-14.67,13-16.79A21.55,21.55,0,0,0,292.9,56a1.07,1.07,0,0,1-1.26-1.73c5.17-3.74,6.85-3.88,7.78-2.94S300.73,54,293.9,62.5c-2.33,2.91-5.17,6.2-8.37,9.67a19.64,19.64,0,0,1,.84,5.72c0,.64,0,1.28-.1,1.92L296.36,83a7.15,7.15,0,0,0,2.28.49,7.52,7.52,0,0,0,1.67-.41c.34-.11.68-.22,1-.31a17.23,17.23,0,0,1,3-.49,1.06,1.06,0,1,1,.19,2.12,15.24,15.24,0,0,0-2.62.43c-.3.08-.6.18-.9.27a8.53,8.53,0,0,1-2.2.51h-.26A9.5,9.5,0,0,1,295.7,85l-.31-.11L286,82c-.12.62-.29,1.23-.47,1.84a14.28,14.28,0,0,1,7.42,3.68,23.71,23.71,0,0,1,2.86,4.11c0,.08.09.15.13.22.39.64.79,1.29,1.2,1.9a19.41,19.41,0,0,0,3.4,3.82,17.91,17.91,0,0,0,6.56,3.55,1.07,1.07,0,0,1-.3,2.09,1,1,0,0,1-.29,0,19.81,19.81,0,0,1-6.74-3.5l-.25.27a2.78,2.78,0,0,0-.27.33,7.5,7.5,0,0,0-.61.9.57.57,0,0,1-.08.13,8.07,8.07,0,0,0-.57,1.33.53.53,0,0,1,0,.12s0,0,0,0a7.62,7.62,0,0,0,3.65,8.85,7.63,7.63,0,0,0,10.35-3,7.38,7.38,0,0,0,.89-2.87s0-.07,0-.1a7.21,7.21,0,0,0,0-1.68,6.4,6.4,0,0,0-.19-1c0-.17-.09-.32-.14-.48s-.12-.32-.18-.48-.12-.26-.17-.37a7.45,7.45,0,0,0-.85-1.37c-.1-.13-.2-.26-.32-.39a9,9,0,0,0-.76-.75,8,8,0,0,0-1.27-.88l-.13-.08a.77.77,0,0,1-.18-.18l-.11-.15,0-.06a1.08,1.08,0,0,1-.08-.19v-.06a.91.91,0,0,1,0-.23,1.07,1.07,0,0,1,.13-.5,1.08,1.08,0,0,1,1.45-.43,9.64,9.64,0,0,1,.86.55l.4.29a9.32,9.32,0,0,1,.76.65l.33.33.13.14c.07.06.12.14.2.22a4.23,4.23,0,0,1,.33.41c.14.17.26.35.39.53s.23.35.33.55a3.91,3.91,0,0,1,.31.57,12.45,12.45,0,0,1,.5,1.19c.08.25.15.51.23.77s.12.51.16.78l.06.4c0,.1,0,.2,0,.3s0,0,0,.07h0s0,0,0,0a.68.68,0,0,1,0,.19,1.33,1.33,0,0,1,0,.2c0,.34,0,.68,0,1,0,.14,0,.28,0,.42s0,0,0,.06a1,1,0,0,1-.21.37l.16,0a4.36,4.36,0,0,0,4.86-3,4.16,4.16,0,0,0,.19-1.64l-.81,0a9.94,9.94,0,0,1-4.73-1.78,1.06,1.06,0,0,1-.25-1.48,1.08,1.08,0,0,1,1.49-.26,7.76,7.76,0,0,0,3.71,1.4,10,10,0,0,0,1.34,0h.14a7.87,7.87,0,0,0,4.28-1.73,7.77,7.77,0,0,0,2.85-5.27,7.86,7.86,0,0,0-1.64-5.76,7.52,7.52,0,0,0-4.14-2.66,14.14,14.14,0,0,1-.95,3.42,1.07,1.07,0,0,1-2-.84,11.43,11.43,0,0,0,.85-3.17c0-.21.05-.42.05-.65,0,0,0-.08,0-.12h0a11.7,11.7,0,0,0-23.3-2.07,1.08,1.08,0,0,1-1.19.93,1.05,1.05,0,0,1-.92-1.19,13.83,13.83,0,0,1,27.55,1.54,9.58,9.58,0,0,1,5.65,3.49A10,10,0,0,1,330,92.83ZM299.81,98l0,0s0,0,0,0Zm-60.44-1.25a4.89,4.89,0,0,0-.67-1.33c-.18.28-.36.57-.54.84a23.36,23.36,0,0,1-2.79,3.32,3,3,0,0,1,.34.37,6.17,6.17,0,0,1,.44.57,3.7,3.7,0,0,1,.31.46,4.21,4.21,0,0,1,.28.45.17.17,0,0,0,0,0,.33.33,0,0,1,.06.1c.12.24.25.47.36.72A4.73,4.73,0,0,0,239.37,96.74Zm18.49-.67A20.1,20.1,0,0,1,254,93.71c-5.41,6.49-6.85,9.22-7.22,10.25C248.14,103.48,251.48,101.44,257.86,96.07Zm38.88,4a8.72,8.72,0,0,1,1-1.48c.11-.12.22-.26.35-.38a20.79,20.79,0,0,1-2.79-3.32c-.19-.28-.37-.55-.55-.84a4.77,4.77,0,0,0,1.52,6.89,6.82,6.82,0,0,1,.35-.72A.38.38,0,0,1,296.74,100.06ZM263.22,74.58a5.2,5.2,0,1,0-5.19,5.2A5.2,5.2,0,0,0,263.22,74.58Zm-2.12,0A3.07,3.07,0,1,1,258,71.51,3.08,3.08,0,0,1,261.1,74.58Zm6.26-7.83a3.21,3.21,0,1,0-3.2,3.2A3.21,3.21,0,0,0,267.36,66.75Zm-2.13,0a1.08,1.08,0,1,1-1.07-1.07A1.07,1.07,0,0,1,265.23,66.75Z"/><path id="planet-2" data-name="planet" class="cls-2" d="M97.44,167.7l-4.19-10a.62.62,0,1,1,1.14-.48L97,163.5c0-.16.1-.32.16-.48.16-.52.32-1,.46-1.51a.63.63,0,0,1,.77-.43.62.62,0,0,1,.43.77c-.15.52-.32,1.05-.48,1.55-.07.2-.13.4-.19.6a11.61,11.61,0,0,0-.39,1.57Zm-5.14-9.61a.62.62,0,1,0-1.14.48l.49,1.16a10.23,10.23,0,0,1-1.38-3,.62.62,0,0,0-.77-.43.61.61,0,0,0-.43.76A11.72,11.72,0,0,0,91.82,162a9.28,9.28,0,0,0,1.34,1.17l1.8,1.32-2.66-6.35Zm5.59-8.78a1.57,1.57,0,0,0-.3.2.51.51,0,0,1,.35-.11A.73.73,0,0,0,97.89,149.31Zm3.71,10.51.3,0h0Zm2.4-10.4a5.67,5.67,0,0,0-4.28-.83,5.13,5.13,0,0,0-.7.19,3.79,3.79,0,0,0-4.77-1.65,3.64,3.64,0,0,0-1.2.81,5.89,5.89,0,0,0-9.41,3.42,5.69,5.69,0,0,0,.59,3.84,7.94,7.94,0,0,0-2.62,4.47,8.08,8.08,0,0,0,11,9.09,7.88,7.88,0,0,0,1.31-.7.63.63,0,0,0,.18-.86.62.62,0,0,0-.86-.18,6.85,6.85,0,0,1-9.47-2,6.86,6.86,0,0,1,1.58-9.21h0l.09-.07.28-.19a6.69,6.69,0,0,1,1.73-.82.62.62,0,0,0-.37-1.19,7.86,7.86,0,0,0-1.89.86,4.41,4.41,0,0,1-.38-2.84,4.72,4.72,0,0,1,2-2.91,4.59,4.59,0,0,1,5.81.52l.06.07a3.61,3.61,0,0,1,.5.61,4.42,4.42,0,0,1,.78,2.18.63.63,0,0,0,.68.57.48.48,0,0,0,.18,0,.62.62,0,0,0,.39-.62,6,6,0,0,0-1-2.79c-.09-.13-.18-.25-.28-.37a2.57,2.57,0,0,1,.8-.54,2.54,2.54,0,0,1,3.16,1,.41.41,0,0,1,0,.09.58.58,0,0,0-.35.11A5.6,5.6,0,0,0,97,150a.94.94,0,0,0-.1.1,3,3,0,0,0-.25.25l-.26.31a4.36,4.36,0,0,0-.46.69l-.2.36a7,7,0,0,0-.29.76c0,.12-.08.25-.11.38h0c0,.13-.06.26-.08.4a2,2,0,0,0-.06.41,3.7,3.7,0,0,0,0,.47c0,.12,0,.24,0,.35h0c0,.14,0,.28,0,.42h0c0,.14,0,.27.07.41a.63.63,0,0,0,.74.48l.11,0a.63.63,0,0,0,.37-.7,1.66,1.66,0,0,1,0-.22.83.83,0,0,1,0-.22,1.62,1.62,0,0,1,0-.38,2.43,2.43,0,0,1,0-.27.76.76,0,0,1,0-.15c0-.05,0-.09,0-.14a2.51,2.51,0,0,1,0-.27,1.16,1.16,0,0,1,0-.18.78.78,0,0,1,0-.21c0-.08,0-.17.08-.26a.7.7,0,0,1,.06-.17,1.22,1.22,0,0,1,.07-.17,0,0,0,0,1,0,0,3.18,3.18,0,0,1,.16-.32,1.93,1.93,0,0,1,.19-.32,3,3,0,0,1,.34-.46l.12-.14.13-.14a1.49,1.49,0,0,1,.14-.12.86.86,0,0,1,.14-.13l.14-.11h0a4.44,4.44,0,0,1,7.06,2.63,4.48,4.48,0,0,1-2.59,5,4.28,4.28,0,0,1-.88.27l-.08,0-.24,0a1.55,1.55,0,0,1-.31,0h-.63a.67.67,0,0,0-.37.08l-.13.11a.43.43,0,0,0-.09.13.67.67,0,0,0-.08.25.78.78,0,0,0,0,.22.65.65,0,0,0,.11.22.43.43,0,0,0,.12.11l.14.08.18,0h.8l.41,0a1.65,1.65,0,0,0,.32-.06H102l.46-.11a5,5,0,0,0,.61-.22,5.6,5.6,0,0,0,2.54-2.11,5.63,5.63,0,0,0,.82-4.28A5.71,5.71,0,0,0,104,149.42Zm18.62,36.72h0s0,0,0,0A0,0,0,0,0,122.62,186.14Zm-1.4-1.91a.62.62,0,0,0-.18-.86c-.43-.28-.85-.58-1.29-.9l-.42-.29,6.8-.62a.62.62,0,1,0-.11-1.24l-10.81,1,1.93,1a11.73,11.73,0,0,1,1.37.84l.51.36c.43.31.89.63,1.34.93a.6.6,0,0,0,.58.05A.57.57,0,0,0,121.22,184.23Zm5.27-5.6a.63.63,0,0,0-.68-.57l-1.26.12a10.33,10.33,0,0,1,3.28-.41.62.62,0,1,0,0-1.24,11.65,11.65,0,0,0-5.49,1.15,9.36,9.36,0,0,0-1.51.93l-1.8,1.32,6.85-.62a.59.59,0,0,0,.19-.05A.64.64,0,0,0,126.49,178.63Zm-3.87,7.51h0s0,0,0,0A0,0,0,0,0,122.62,186.14Zm4.92-1.93h0a4.26,4.26,0,0,1,.89.19A4.26,4.26,0,0,0,127.54,184.21Zm3.06,1.7a5.25,5.25,0,0,1,.33.49A5.25,5.25,0,0,0,130.6,185.91Zm1.91,1.38.09,0a2,2,0,0,0-.06-.23A.52.52,0,0,1,132.51,187.29Zm-1.7-3c.19.17.36.35.53.53A5.3,5.3,0,0,0,130.81,184.33Zm1.72,2.68a.29.29,0,0,0,0-.09l0-.15A2.17,2.17,0,0,1,132.53,187Zm-44.9,12c.11-.53.2-1.08.28-1.61,0-.2.06-.41.1-.62a10,10,0,0,1,.37-1.57l.64-2-8.27,7a.63.63,0,0,0-.07.88.61.61,0,0,0,.88.07l5.2-4.41c0,.17-.05.33-.08.5-.08.54-.16,1.05-.26,1.55a.61.61,0,0,0,.84.7A.59.59,0,0,0,87.63,199Zm-7.54.39,5.25-4.45-2.21.35a10.8,10.8,0,0,0-1.72.43,11.71,11.71,0,0,0-4.67,3.11.62.62,0,0,0,.92.84,10.28,10.28,0,0,1,2.59-2l-1,.82a.63.63,0,0,0-.07.88.62.62,0,0,0,.71.17A1,1,0,0,0,80.09,199.39Zm.84,10.07a1.12,1.12,0,0,0,.16.28l.08-.05A.59.59,0,0,1,80.93,209.46Zm56.79-32.93a5.82,5.82,0,0,1-2.35,6.54,3.55,3.55,0,0,1,.41,1.39,3.76,3.76,0,0,1-2.3,3.83,4.18,4.18,0,0,1-.71.22,5.83,5.83,0,0,1,0,.72,5.73,5.73,0,0,1-3.48,4.67,5.56,5.56,0,0,1-2.78.4,5.69,5.69,0,0,1-5-4.53,4,4,0,0,1-3.78-3.64,3.82,3.82,0,0,1,.23-1.75,11,11,0,0,0-2-1.23,7.35,7.35,0,0,0-4.26-.17.62.62,0,0,1-.38.49.47.47,0,0,1-.24.05.62.62,0,0,1-.62-.62,10.4,10.4,0,0,0-.82-4.08,9.55,9.55,0,0,0-1.1-2c-.71,1.92-1.49,3.93-2.33,6-1.53,3.74-3.12,7.32-4.64,10.39a9.91,9.91,0,0,0,2.46-.68,10.55,10.55,0,0,0,5.78-6,.62.62,0,0,1,1.16.44,11.66,11.66,0,0,1-10,7.6c-3.12,6.21-4.61,7.83-5.42,8.17a.87.87,0,0,1-.72,0c-.56-.24-1.59-.66,1-8.9a11.66,11.66,0,0,1-3.25-1.89A7.23,7.23,0,0,0,89.79,195a12.68,12.68,0,0,0-.5,2.25,3.81,3.81,0,0,1,1.41,1.07,4,4,0,0,1,0,5.25A5.7,5.7,0,0,1,88.15,212a6.06,6.06,0,0,1-1.57.41,5.65,5.65,0,0,1-4.19-1.21,5,5,0,0,1-.54-.48,4.17,4.17,0,0,1-.66.35,3.78,3.78,0,0,1-4.34-1,3.61,3.61,0,0,1-.7-1.27,5.88,5.88,0,0,1-6.84-7.31,5.62,5.62,0,0,1,2.27-3.15,8.08,8.08,0,0,1,14.5-7.06.62.62,0,1,1-1.08.61,6.85,6.85,0,0,0-9.33-2.54,6.85,6.85,0,0,0-2.76,8.92h0l0,.06h0a3.59,3.59,0,0,0,.17.34,7.24,7.24,0,0,0,1.17,1.52.61.61,0,0,1,0,.88.56.56,0,0,1-.2.14.66.66,0,0,1-.68-.12,8.45,8.45,0,0,1-1.28-1.63,4.42,4.42,0,0,0-1.63,2.36,4.63,4.63,0,0,0,.42,3.47,4.59,4.59,0,0,0,5.42,2.17l.08,0a4.93,4.93,0,0,0,.71-.31,4.48,4.48,0,0,0,1.69-1.6.62.62,0,0,1,1.06.66,5.82,5.82,0,0,1-2.15,2l-.42.21a2.44,2.44,0,0,0,.48.84,2.54,2.54,0,0,0,3.28.51l.08-.06a.56.56,0,0,1-.24-.22l0,0c-.08-.16-.16-.32-.23-.48s-.09-.23-.13-.34-.07-.24-.11-.36,0-.13,0-.19a.27.27,0,0,1,0-.12c0-.14,0-.28-.08-.43a.91.91,0,0,1,0-.17l0-.31a4.32,4.32,0,0,1,0-.95,1.11,1.11,0,0,1,0-.17,5.44,5.44,0,0,1,.69-2l.19-.32c.09-.14.19-.27.29-.4a.62.62,0,0,1,1,.77,5.62,5.62,0,0,0-.35.5,5.44,5.44,0,0,0-.27.54,1.33,1.33,0,0,0-.1.28,4.29,4.29,0,0,0-.25,1.33,1,1,0,0,0,0,.17,2.06,2.06,0,0,0,0,.35,1.49,1.49,0,0,0,0,.21s0,.11,0,.16l0,.16a.29.29,0,0,1,0,.09c0,.05,0,.11,0,.16a4,4,0,0,0,.36.92s0,0,0,0a4.69,4.69,0,0,0,1.14,1.35,4.48,4.48,0,0,0,3.27.94,4.46,4.46,0,0,0,2.93-7.27,4,4,0,0,0-.66-.64.13.13,0,0,0-.07,0l-.18-.14-.27-.17L88,202.8l-.25-.12a11.68,11.68,0,0,1-2.84,3.41l-.15.09A.63.63,0,0,1,84,206a.61.61,0,0,1,.09-.87,10.26,10.26,0,0,0,2.73-3.4,11.19,11.19,0,0,0,1-2.82c.09-.42.16-.86.22-1.28v0s0,0,0-.05,0-.05,0-.07a14.8,14.8,0,0,1,.62-2.86,8.24,8.24,0,0,1,3-3.53c-.25-.26-.49-.53-.72-.82l-4.32,3.66a5.5,5.5,0,0,1-1.37,1l-.15,0a4.54,4.54,0,0,1-1.29.22l-.54.06a9.41,9.41,0,0,0-1.52.36.62.62,0,1,1-.37-1.18A9.77,9.77,0,0,1,83,194a5.92,5.92,0,0,1,.62-.06,4.88,4.88,0,0,0,1-.16,4.38,4.38,0,0,0,1.12-.78l.15-.13,4.32-3.67h0a.62.62,0,0,1,1.13-.36,10.55,10.55,0,0,0,8.8,4.55c1.6-3.2,3.3-7,4.94-11q1.47-3.6,2.57-6.64a10.48,10.48,0,0,0-17.31,11.21.62.62,0,0,1-.34.81.61.61,0,0,1-.81-.33,11.73,11.73,0,0,1,6.28-15.34c.38-.16.77-.3,1.16-.42l-2.21-5.27a4.24,4.24,0,0,0-.64-1.2,4.43,4.43,0,0,0-.82-.59c-.18-.11-.36-.22-.52-.34a10.18,10.18,0,0,1-1.34-1.14.62.62,0,0,1,0-.88.63.63,0,0,1,.88,0,10.13,10.13,0,0,0,1.18,1l.47.29a5.07,5.07,0,0,1,1,.79,4.86,4.86,0,0,1,.9,1.59l2.28,5.43a9.44,9.44,0,0,1,1.19-.15,8.48,8.48,0,0,1-1.32-5,14.07,14.07,0,0,1,.75-2.82c.15-.46.31-.94.44-1.4a11.07,11.07,0,0,0,.41-3,10.24,10.24,0,0,0-.89-4.26.62.62,0,0,1,.31-.82.63.63,0,0,1,.83.31,11.78,11.78,0,0,1,1,4.32h-.09a.67.67,0,0,0-.37.08l-.13.11a.43.43,0,0,0-.09.13.67.67,0,0,0-.08.25.78.78,0,0,0,0,.22.65.65,0,0,0,.11.22.43.43,0,0,0,.12.11l.14.08.18,0h.16a12.56,12.56,0,0,1-.42,2.5c-.06.19-.11.37-.18.56a2.86,2.86,0,0,0,.85-.21,2.78,2.78,0,0,0,1.66-3.07,4.44,4.44,0,0,0,.61-.22,5.77,5.77,0,0,0,.56-.27,4,4,0,0,1-4.09,5A12.85,12.85,0,0,0,99,166.4a7.39,7.39,0,0,0,1.24,4.29.63.63,0,0,1,.1.48,11.57,11.57,0,0,1,4.08.84c.38-.8.76-1.58,1.12-2.32a.62.62,0,0,1,1.12.55c-.37.74-.74,1.5-1.11,2.3a11.79,11.79,0,0,1,2.62,1.89c2.28-6.42,3.28-10.67,3.19-12a12.43,12.43,0,0,0-1.92,2.64.63.63,0,0,1-.86.2.61.61,0,0,1-.2-.85c1.93-3.19,2.8-3.64,3.52-3.34s1.29,1.09-.46,7.24c-.6,2.09-1.38,4.51-2.32,7.11a11.46,11.46,0,0,1,1.74,2.89,10.14,10.14,0,0,1,.38,1.05l6.16-.56a4.32,4.32,0,0,0,1.34-.25,3.89,3.89,0,0,0,.8-.6l.49-.4a9.33,9.33,0,0,1,1.49-.93.62.62,0,0,1,.84.26.63.63,0,0,1-.26.84,9.17,9.17,0,0,0-1.32.82l-.42.35a4.72,4.72,0,0,1-1.07.77l-.14.07a5.72,5.72,0,0,1-1.65.31l-.19,0-5.76.53a10,10,0,0,1,.16,1.1,8.32,8.32,0,0,1,4.84.3A15.48,15.48,0,0,1,119,183.6l.12.09c.35.26.71.51,1.07.75a11.08,11.08,0,0,0,2.69,1.29,10.48,10.48,0,0,0,4.34.43.62.62,0,0,1,.69.55.64.64,0,0,1-.38.65.43.43,0,0,1-.17,0,11.58,11.58,0,0,1-4.42-.36c0,.07-.05.14-.07.2a2.17,2.17,0,0,0-.07.24,3.39,3.39,0,0,0-.12.62.29.29,0,0,1,0,.09,4,4,0,0,0,0,.85.17.17,0,0,0,0,.07s0,0,0,0a4.45,4.45,0,0,0,8.85,0,4.27,4.27,0,0,0-.16-1.75s0,0,0-.05a4.56,4.56,0,0,0-.4-.9,3.14,3.14,0,0,0-.33-.48,1.81,1.81,0,0,0-.18-.23l-.2-.21a1.29,1.29,0,0,0-.18-.16,4.08,4.08,0,0,0-.76-.55l-.27-.14a4,4,0,0,0-.57-.23,5.42,5.42,0,0,0-.89-.19h-.09a.38.38,0,0,1-.13-.06l-.1-.05,0,0a.24.24,0,0,1-.08-.09l0,0a.67.67,0,0,1-.06-.12.6.6,0,0,1-.05-.3.64.64,0,0,1,.69-.56,3.91,3.91,0,0,1,.58.1l.29.07.55.17.25.11.11,0,.15.08.27.14a3.62,3.62,0,0,1,.33.2l.31.22a3.36,3.36,0,0,1,.29.24,6.75,6.75,0,0,1,.54.53l.29.36a3.39,3.39,0,0,1,.27.39l.12.2.09.15s0,0,0,0h0a.47.47,0,0,1,.05.1.54.54,0,0,1,.05.11c.08.18.16.36.22.54a2.25,2.25,0,0,1,.08.24,0,0,0,0,0,0,0,.74.74,0,0,1,0,.26l.09,0a2.56,2.56,0,0,0,1.95-2.7,2.44,2.44,0,0,0-.27-.93c-.14.06-.29.1-.45.15a5.79,5.79,0,0,1-3,.11.62.62,0,0,1-.47-.74.64.64,0,0,1,.75-.47,4.53,4.53,0,0,0,2.31-.09,5.29,5.29,0,0,0,.73-.29l.07,0a4.63,4.63,0,0,0,1.92-1.9,4.52,4.52,0,0,0,.34-3.49,4.59,4.59,0,0,0-2.18-2.73,4.44,4.44,0,0,0-2.83-.5,8.43,8.43,0,0,1,.26,2.06.62.62,0,0,1-.38.57.7.7,0,0,1-.25.05.62.62,0,0,1-.62-.62,6.52,6.52,0,0,0-.26-1.91,2.47,2.47,0,0,0-.11-.36.64.64,0,0,1,0-.07h0a6.82,6.82,0,0,0-8.3-4.29,6.85,6.85,0,0,0-4.72,8.44.62.62,0,1,1-1.2.33,8.08,8.08,0,0,1,15.2-5.39,5.57,5.57,0,0,1,3.83.6A5.78,5.78,0,0,1,137.72,176.53Zm-15.11,9.61s0,0,0,0a0,0,0,0,0,0,0Zm-32.85,13a2.73,2.73,0,0,0-.66-.56c0,.19-.06.38-.1.57a13.32,13.32,0,0,1-.75,2.42,2.1,2.1,0,0,1,.26.13c.13.06.25.13.37.2s.19.11.28.18.16.11.24.18l0,0,0,0,.36.31A2.77,2.77,0,0,0,89.76,199.12Zm9.81-4.54a10.76,10.76,0,0,1-2.59-.4c-1.46,4.72-1.61,6.52-1.58,7.16C96,200.78,97.36,198.92,99.57,194.58ZM121.43,188a5.25,5.25,0,0,1,.22-1c0-.09.06-.19.1-.28a13.31,13.31,0,0,1-2.25-1.16l-.49-.33a2.82,2.82,0,0,0-.05.87,2.77,2.77,0,0,0,2.43,2.5,3.7,3.7,0,0,1,0-.47A.3.3,0,0,1,121.43,188Zm-23.82-6.16a3,3,0,1,0-1.63,4A3,3,0,0,0,97.61,181.79Zm-1.15.48a1.79,1.79,0,1,1-2.34-1A1.78,1.78,0,0,1,96.46,182.27Zm1.61-5.63a1.87,1.87,0,1,0-1,2.45A1.87,1.87,0,0,0,98.07,176.64Zm-1.14.48a.63.63,0,1,1-.83-.33A.63.63,0,0,1,96.93,177.12Z"/><path id="planet-3" data-name="planet" class="cls-3" d="M60.33,43l-7.25.12a.41.41,0,0,1-.42-.41.41.41,0,0,1,.41-.42l4.55-.08L57.36,42c-.28-.23-.54-.46-.81-.66a.42.42,0,0,1,.5-.67l.85.69.32.27a7.38,7.38,0,0,0,.88.62Zm-7.24.8a.41.41,0,0,0-.41.42.43.43,0,0,0,.43.41H54a7.05,7.05,0,0,1-2.2.11.41.41,0,1,0-.09.82,7.73,7.73,0,0,0,3.71-.49,5.83,5.83,0,0,0,1.05-.54l1.27-.79-4.6.07ZM49,38.18c0,.08,0,.16,0,.24a.42.42,0,0,1,0-.25Zm7.44.31a1.6,1.6,0,0,0,.05-.21h0A1.74,1.74,0,0,1,56.47,38.49Zm-5.85-4.07A3.81,3.81,0,0,0,49,36.87a3.91,3.91,0,0,0,0,.48,2.53,2.53,0,0,0-2.21,2.54,2.56,2.56,0,0,0,.2,1,3.88,3.88,0,0,0-1.88,4.24,4,4,0,0,0,1.67,2.44,3.78,3.78,0,0,0,2.53.59,5.4,5.4,0,0,0,10.5-1.85,5.56,5.56,0,0,0-.11-1,.42.42,0,0,0-.82.16,4.57,4.57,0,0,1-3.56,5.39A4.58,4.58,0,0,1,50,47.55h0s0,0,0-.08,0-.15,0-.22A4.53,4.53,0,0,1,49.84,46a.42.42,0,1,0-.83-.07,5.79,5.79,0,0,0,.07,1.38,2.88,2.88,0,0,1-1.86-.47,3.09,3.09,0,0,1-.91-4.23,3,3,0,0,1,1.36-1.17l.06,0a2.66,2.66,0,0,1,.5-.16,3.13,3.13,0,0,1,1.55.06A.42.42,0,0,0,50.3,41a.57.57,0,0,0,0-.13A.43.43,0,0,0,50,40.5a4,4,0,0,0-2-.07l-.31.08A1.7,1.7,0,0,1,49,38.18h.07a.39.39,0,0,0,0,.24,4,4,0,0,0,.15.49l0,.08.09.22.13.24a3.7,3.7,0,0,0,.31.46l.18.21a4.59,4.59,0,0,0,.39.37l.21.16h0a1.82,1.82,0,0,0,.23.15,1.49,1.49,0,0,0,.24.14l.29.13.21.08h0l.27.08h0l.26.06A.42.42,0,0,0,52.6,41v-.08a.41.41,0,0,0-.34-.4l-.14,0-.14,0-.25-.08-.16-.07-.09,0-.09-.05-.16-.09-.1-.07L51,39.93l-.15-.12-.09-.08-.09-.08v0a.69.69,0,0,1-.16-.18.9.9,0,0,1-.15-.19,2.14,2.14,0,0,1-.2-.32l-.06-.12a.54.54,0,0,1,0-.11.61.61,0,0,1-.05-.12.49.49,0,0,1,0-.11s0-.08,0-.12v0A2.83,2.83,0,0,1,49.87,37a2.93,2.93,0,0,1,1.22-1.91,3,3,0,0,1,2.23-.48,2.91,2.91,0,0,1,1.91,1.23,2.87,2.87,0,0,1,.53,1.61,3.13,3.13,0,0,1,0,.61l0,.06a.8.8,0,0,1,0,.15l-.06.2a2,2,0,0,1-.14.34.08.08,0,0,1,0,0,.44.44,0,0,0,0,.25l0,.11.06.09a.38.38,0,0,0,.14.11.37.37,0,0,0,.14,0h.16l.1-.05.09-.07a.36.36,0,0,0,.07-.1l0-.1A.35.35,0,0,0,56.3,39s0-.07.05-.1a.75.75,0,0,0,0-.16,2.58,2.58,0,0,0,.08-.26,1.43,1.43,0,0,0,0-.22s0,0,0,0,0-.2,0-.31,0-.28,0-.43,0-.28,0-.41a3.8,3.8,0,0,0-5.94-2.64ZM78,32h0Zm-1.52.4a.42.42,0,0,0-.58-.1l-.88.58-.29.18,1.31-4.37a.42.42,0,0,0-.8-.24l-2.07,7,1.08-1a7.17,7.17,0,0,1,.86-.65l.35-.22.91-.6a.44.44,0,0,0,.18-.35A.48.48,0,0,0,76.49,32.38Zm-2.17-4.66a.42.42,0,0,0-.52.28l-.24.81a6.85,6.85,0,0,1,.56-2.13.42.42,0,1,0-.76-.34A7.76,7.76,0,0,0,72.71,30a6.67,6.67,0,0,0,.2,1.17l.37,1.45,1.32-4.41a.51.51,0,0,0,0-.13A.43.43,0,0,0,74.32,27.72ZM78,32h0Zm0-3.53,0,.05,0-.05a2.93,2.93,0,0,1,.34-.5A2.45,2.45,0,0,0,78,28.45ZM79.86,27a2.33,2.33,0,0,1,.38-.08A2.33,2.33,0,0,0,79.86,27Zm1.32-.84a.64.64,0,0,1,0-.07H81A.29.29,0,0,1,81.18,26.14Zm-2.25.32a3.76,3.76,0,0,1,.46-.2A2.67,2.67,0,0,0,78.93,26.46ZM81,26.05h0ZM77.31,56.87l-.93-.57L76,56.09a7.25,7.25,0,0,1-.88-.62L74,54.56l2.3,6.87a.42.42,0,0,0,.79-.26l-1.45-4.33L76,57c.32.18.61.36.9.55a.43.43,0,0,0,.58-.12.41.41,0,0,0,.06-.24A.41.41,0,0,0,77.31,56.87Zm-1.64,4.78-1.45-4.36-.33,1.45a5.83,5.83,0,0,0-.16,1.18,7.73,7.73,0,0,0,.77,3.67.42.42,0,0,0,.55.19.41.41,0,0,0,.19-.55,7.28,7.28,0,0,1-.63-2.12l.27.8a.43.43,0,0,0,.53.27.4.4,0,0,0,.28-.4A.27.27,0,0,0,75.67,61.65Zm6.46,2,.21,0s0,0,0-.06A.72.72,0,0,1,82.13,63.63Zm-6.32-43.4a3.91,3.91,0,0,1,3.47,3.08,2.6,2.6,0,0,1,1,.09,2.54,2.54,0,0,1,1.5,1.22,2.39,2.39,0,0,1,.3,1.16,2.8,2.8,0,0,1,0,.5c.14,0,.29.12.44.19a3.86,3.86,0,0,1,1.86,2.24,4,4,0,0,1,.17,1.07A3.81,3.81,0,0,1,80,33.58,2.68,2.68,0,0,1,76.79,35a2.6,2.6,0,0,1-1-.57,6.6,6.6,0,0,0-1.24.91A4.89,4.89,0,0,0,73.35,38a.41.41,0,0,1,.19.52.42.42,0,0,1-.55.23,7.08,7.08,0,0,0-2.73-.51,6.86,6.86,0,0,0-1.5.2c1,.91,2.07,1.9,3.13,2.92,1.94,1.88,3.76,3.76,5.3,5.46a6.74,6.74,0,0,0,.18-1.69A7,7,0,0,0,75.07,40a.41.41,0,1,1,.56-.61,7.82,7.82,0,0,1,2.57,5.67,7.57,7.57,0,0,1-.35,2.43c3.08,3.47,3.72,4.8,3.72,5.39a.54.54,0,0,1-.18.44c-.29.29-.81.83-5.28-2.8a7.85,7.85,0,0,1-2,1.55,4.79,4.79,0,0,0,1.23,2.47,8.14,8.14,0,0,0,1.27.87,2.56,2.56,0,0,1,1-.61,2.69,2.69,0,0,1,3.25,1.33A3.81,3.81,0,0,1,85,58a3.76,3.76,0,0,1,.5,1.81,4,4,0,0,1-.13,1.08,3.86,3.86,0,0,1-1.79,2.3,4.39,4.39,0,0,1-.44.21,2.73,2.73,0,0,1,.06.49A2.67,2.67,0,0,1,82.93,65a2.54,2.54,0,0,1-1.46,1.27,2.23,2.23,0,0,1-1,.12,3.91,3.91,0,0,1-6.22,2.42,3.7,3.7,0,0,1-1.4-2.18,5.4,5.4,0,0,1-.78-10.75.42.42,0,0,1,.12.83,4.57,4.57,0,0,0-3.9,5.15,4.6,4.6,0,0,0,4.85,3.93h0a2.3,2.3,0,0,0,.26,0,4.78,4.78,0,0,0,1.23-.34.4.4,0,0,1,.55.21.41.41,0,0,1,0,.16.43.43,0,0,1-.24.39,5.5,5.5,0,0,1-1.33.39,3,3,0,0,0,1.06,1.6,3.12,3.12,0,0,0,2.26.6,3,3,0,0,0,2-1.15A3.07,3.07,0,0,0,79.74,66v-.06a3,3,0,0,0,0-.52,3.1,3.1,0,0,0-.57-1.45.42.42,0,1,1,.67-.49,3.89,3.89,0,0,1,.73,1.84c0,.1,0,.21,0,.31a1.41,1.41,0,0,0,.64-.09,1.68,1.68,0,0,0,1.13-1.9.17.17,0,0,0,0-.07.47.47,0,0,1-.2.1h0l-.35,0h-.25l-.25,0-.13,0h-.08l-.28-.06-.11,0a1.17,1.17,0,0,1-.2-.06,3,3,0,0,1-.58-.26l-.1,0a3.6,3.6,0,0,1-1.06-.92l-.15-.2a2.68,2.68,0,0,1-.18-.28.41.41,0,0,1,.16-.56.4.4,0,0,1,.56.15,4,4,0,0,0,.23.34l.26.3.15.13a2.64,2.64,0,0,0,.76.48l.11.05.22.07.14,0,.1,0,.11,0h.17a2.43,2.43,0,0,0,.66,0h0a2.7,2.7,0,0,0,1.11-.37,3,3,0,0,0,1.4-1.8,2.91,2.91,0,0,0-.29-2.25A3,3,0,0,0,80.79,57a4,4,0,0,0-.56.25l0,0-.13.09a.88.88,0,0,0-.17.12l-.14.11-.13.13a7.8,7.8,0,0,1,1.4,2.6.5.5,0,0,1,0,.12.41.41,0,0,1-.81.13,7.19,7.19,0,0,0-1.43-2.54,7.56,7.56,0,0,0-1.51-1.3c-.24-.16-.5-.31-.74-.45h0l0,0,0,0a10.29,10.29,0,0,1-1.62-1.1,5.55,5.55,0,0,1-1.45-2.71c-.22.08-.45.17-.68.24l1.2,3.58a4.23,4.23,0,0,1,.25,1.09s0,.07,0,.11a3.37,3.37,0,0,1-.18.86l-.1.34a7.26,7.26,0,0,0-.15,1,.43.43,0,0,1-.45.39.42.42,0,0,1-.38-.45A7.5,7.5,0,0,1,73,58.48c0-.13.07-.26.12-.4a1.84,1.84,0,0,0-.06-1.54l0-.13-1.2-3.59h0a.4.4,0,0,1-.26-.3.41.41,0,0,1,.31-.49,7,7,0,0,0,5-4.33c-1.59-1.78-3.52-3.78-5.59-5.79q-1.86-1.8-3.48-3.24A7,7,0,0,0,70.5,52.19a.41.41,0,0,1,.42.41.4.4,0,0,1-.4.42,7.84,7.84,0,0,1-8-7.7,7.31,7.31,0,0,1,0-.82l-3.82.06a2.54,2.54,0,0,0-.9.1,2.25,2.25,0,0,0-.57.36,4.15,4.15,0,0,1-.34.24,8.29,8.29,0,0,1-1,.55.43.43,0,0,1-.55-.22.41.41,0,0,1,.22-.54,6.47,6.47,0,0,0,.92-.49l.3-.21a3.27,3.27,0,0,1,.75-.46,3.11,3.11,0,0,1,1.2-.16l3.94-.07a7.44,7.44,0,0,1,.2-.78,5.64,5.64,0,0,1-3.4-.4,9.86,9.86,0,0,1-1.57-1.17c-.24-.21-.5-.43-.75-.62a7.3,7.3,0,0,0-1.73-1,7.05,7.05,0,0,0-2.87-.51.41.41,0,0,1-.43-.4.42.42,0,0,1,.4-.43,7.81,7.81,0,0,1,2.92.46.08.08,0,0,1,0,0,.44.44,0,0,0,0,.25l0,.11.06.09a.38.38,0,0,0,.14.11.37.37,0,0,0,.14,0h.16l.1-.05.09-.07a.36.36,0,0,0,.07-.1l0-.1a8.63,8.63,0,0,1,1.45.88l.3.25a1.85,1.85,0,0,0,.09-.58,1.88,1.88,0,0,0-1.5-1.79c0-.14,0-.28,0-.43a2.73,2.73,0,0,0,0-.41,2.71,2.71,0,0,1,2.34,2.62,2.75,2.75,0,0,1-.25,1.16,8.29,8.29,0,0,0,1.25.91,4.94,4.94,0,0,0,3,.3.39.39,0,0,1,.32.05,7.89,7.89,0,0,1,1.54-2.32c-.41-.43-.8-.86-1.16-1.27a.41.41,0,1,1,.62-.55c.36.41.74.82,1.15,1.26a7.51,7.51,0,0,1,1.82-1.16c-3.42-3-5.8-4.69-6.63-5A7.86,7.86,0,0,0,61.69,35a.42.42,0,1,1-.67.5c-1.49-2-1.56-2.64-1.2-3s1-.53,4.38,2.08c1.15.89,2.45,2,3.83,3.2a7.77,7.77,0,0,1,2.23-.36q.38,0,.75,0l1.18-4a2.83,2.83,0,0,0,.17-.89,2.41,2.41,0,0,0-.17-.65l-.13-.4a7.34,7.34,0,0,1-.2-1.16.4.4,0,0,1,.36-.45.41.41,0,0,1,.46.37,6.7,6.7,0,0,0,.18,1l.12.35a3.21,3.21,0,0,1,.21.85v.1a3.52,3.52,0,0,1-.21,1.1l0,.13-1.1,3.7c.25,0,.48.11.72.17A5.61,5.61,0,0,1,74,34.75a9.49,9.49,0,0,1,1.59-1.14l.08-.06.74-.47a8.22,8.22,0,0,0,1.47-1.35,7.12,7.12,0,0,0,1.34-2.59.42.42,0,0,1,.51-.29.44.44,0,0,1,.31.4.43.43,0,0,1,0,.11A7.5,7.5,0,0,1,78.65,32l.11.1.13.1a1.92,1.92,0,0,0,.35.23l.05,0a3,3,0,0,0,.53.22h.06a3,3,0,0,0,3.43-1.48,3,3,0,0,0-2.37-4.35h0a3.5,3.5,0,0,0-.65,0,2.33,2.33,0,0,0-.38.08l-.19.06-.18.07-.15.07a3.67,3.67,0,0,0-.53.34l-.15.13a2.68,2.68,0,0,0-.28.3,2.93,2.93,0,0,0-.34.5l0,.05a.23.23,0,0,1-.07.07l-.06.05h0l-.08,0h-.11a.33.33,0,0,1-.19,0,.42.42,0,0,1-.18-.56,1.94,1.94,0,0,1,.21-.34.91.91,0,0,1,.11-.16,3.61,3.61,0,0,1,.25-.3l.12-.13.06-.06.08-.07.16-.14.21-.15.21-.14.22-.12a3.76,3.76,0,0,1,.46-.2l.3-.1.3-.06.16,0h.89a.6.6,0,0,1,.15.09.15.15,0,0,1,0-.07A1.7,1.7,0,0,0,80,24.2a1.59,1.59,0,0,0-.65-.07c0,.11,0,.21,0,.32a3.8,3.8,0,0,1-.67,1.85.41.41,0,0,1-.57.11.42.42,0,0,1-.11-.58,3.13,3.13,0,0,0,.52-1.46,4.51,4.51,0,0,0,0-.52V23.8a3,3,0,0,0-.7-1.66,3,3,0,0,0-2.08-1.08,3.09,3.09,0,0,0-2.24.68,3,3,0,0,0-1,1.63,5.19,5.19,0,0,1,1.34.35.4.4,0,0,1,.26.38.45.45,0,0,1,0,.16.41.41,0,0,1-.54.23,4.11,4.11,0,0,0-1.24-.31l-.26,0h0a4.56,4.56,0,0,0-4.72,4.08,4.58,4.58,0,0,0,4.06,5,.42.42,0,0,1-.09.83,5.4,5.4,0,0,1-2.82-9.57,5.34,5.34,0,0,1,3.25-1.19A3.71,3.71,0,0,1,73,21.1,3.89,3.89,0,0,1,75.81,20.23ZM78,32h0Zm-.1,23.59a1.78,1.78,0,0,0-.51.27l.33.21A8.93,8.93,0,0,1,79,57.12l.14-.13.22-.18a1.88,1.88,0,0,1,.18-.12l.17-.11h0l0,0,.28-.15A1.85,1.85,0,0,0,77.91,55.58Zm-.38-7.21a7.59,7.59,0,0,1-.89,1.51,16.87,16.87,0,0,0,4,2.76A19,19,0,0,0,77.53,48.37Zm1.31-15.2a3.68,3.68,0,0,1-.58-.39l-.15-.13a8,8,0,0,1-1.28,1.11l-.32.21a2,2,0,0,0,.52.26,1.85,1.85,0,0,0,2.15-.89l-.28-.13ZM69.11,46.41a2,2,0,1,0,2.06,2A2,2,0,0,0,69.11,46.41Zm0,.83A1.2,1.2,0,1,1,68,48.46,1.2,1.2,0,0,1,69.12,47.24ZM66,44.85a1.25,1.25,0,1,0,1.27,1.23A1.25,1.25,0,0,0,66,44.85Zm0,.83a.41.41,0,0,1,.42.41.42.42,0,0,1-.41.43.43.43,0,0,1-.43-.41A.42.42,0,0,1,66.05,45.68Z"/><g id="_2nd_face_with_right_eyes" data-name="2nd face with right eyes"><ellipse class="cls-4" cx="199.91" cy="137.22" rx="8.06" ry="7.45"/><path d="M209.17,131.11a8.94,8.94,0,0,0-1.46-.16,11.57,11.57,0,0,0-1.55.22c-.07,0-.12.13-.19.2a1,1,0,0,0,.27.14.4.4,0,0,0,.23,0,.5.5,0,0,1,.6.22,8.57,8.57,0,1,1-15.5,4.64,8,8,0,0,1,1-3.58c0-.08.14-.18.22-.18s.26-.11.28-.29a9.74,9.74,0,0,1,.18-1.32c.24-1,.53-1.92.78-2.88,0-.09-.06-.22-.09-.33-.08.07-.22.13-.24.22-.27.9-.53,1.82-.78,2.73a5.29,5.29,0,0,1-.35,1.27,8.73,8.73,0,0,0-.27,9,8.93,8.93,0,0,0,15.84-8.26c-.24-.47-.53-.9-.8-1.38a2.72,2.72,0,0,1,.28,0c.51,0,1,.1,1.53.13.09,0,.18-.09.26-.14S209.25,131.13,209.17,131.11Z"/><path d="M206.3,123.37c-.05-.1-.08-.19-.12-.2a.36.36,0,0,0-.25,0c-.38.2-.76.42-1.14.64a15.84,15.84,0,0,0-4.95,4c-.58.76-1.12,1.56-1.66,2.35-.05.07,0,.21,0,.31a1,1,0,0,0,.3-.13,2,2,0,0,0,.23-.34,14.46,14.46,0,0,1,3.83-4.26c1.11-.78,2.3-1.44,3.46-2.16Z"/><path d="M194.44,130.78a1.82,1.82,0,0,0,.16.28,1.77,1.77,0,0,0,.25-.3c.35-.56.65-1.15,1-1.7.77-1.13,1.54-2.26,2.39-3.34a20.13,20.13,0,0,1,1.6-1.6c.07-.07.06-.22.09-.34-.11,0-.25,0-.32.08a27.32,27.32,0,0,0-1.95,1.93,33.11,33.11,0,0,0-3.18,4.84C194.48,130.68,194.43,130.74,194.44,130.78Z"/><path d="M209.36,126.07v-.13c-.11,0-.22-.1-.32-.08-.28.06-.55.16-.82.24a11.66,11.66,0,0,0-5.7,3.24c-.22.25-.47.47-.68.72,0,.06,0,.2,0,.3s.2,0,.27-.05a3,3,0,0,0,.31-.31,10.5,10.5,0,0,1,4.25-3c.79-.29,1.6-.52,2.4-.79A1.24,1.24,0,0,0,209.36,126.07Z"/><path d="M195.63,142.1a5.75,5.75,0,0,1,2.4-1.47,8.56,8.56,0,0,1,3.36-.54c.6,0,1.2.13,1.88.22,0,0,.13-.07.14-.14s-.09-.17-.16-.2a3.4,3.4,0,0,0-.46-.09,9,9,0,0,0-6,.88,9.53,9.53,0,0,0-1.57,1.21c-.06,0,0,.19-.06.28a1,1,0,0,0,.3,0C195.54,142.21,195.58,142.15,195.63,142.1Z"/><path d="M209.66,129c-.34,0-.68.06-1,.08a8,8,0,0,0-4.2,1.38c-.13.1-.34.34-.31.38.18.28.35,0,.5-.07a7,7,0,0,1,2.46-1.09c.84-.13,1.69-.21,2.54-.32a2,2,0,0,0,.34-.12v-.13C209.86,129.1,209.76,129,209.66,129Z"/><path d="M201.32,125.27a.48.48,0,0,0-.29.12q-1.67,2-3.3,4.07c-.1.11-.22.26,0,.36.06,0,.24-.07.31-.16,1.09-1.33,2.17-2.67,3.26-4a2.68,2.68,0,0,1,.17-.23C201.4,125.36,201.35,125.27,201.32,125.27Z"/><path d="M193.75,131.51c.08-.06.23-.12.25-.2a17.27,17.27,0,0,1,1.45-4.37c0-.07,0-.19-.07-.28s-.22.07-.26.15a16.21,16.21,0,0,0-1.49,4.55Z"/><path d="M203.39,126.46c-.12,0-.26,0-.35,0a13.43,13.43,0,0,0-2.68,2.13c-.27.26-.55.52-.81.79a.41.41,0,0,0-.07.27s.1.07.17.11a3.23,3.23,0,0,0,.27-.23,18.19,18.19,0,0,1,3.33-2.79C203.33,126.71,203.34,126.56,203.39,126.46Z"/><path d="M207.83,128.42l-.2-.15-.3,0a9.48,9.48,0,0,0-4,1.58c-.1.06-.13.21-.19.33.13,0,.29,0,.38,0a9.59,9.59,0,0,1,4.06-1.55C207.67,128.62,207.74,128.5,207.83,128.42Z"/><path d="M202.46,128.5a7.4,7.4,0,0,1,2.24-1.73,2.43,2.43,0,0,0,.29-.22c0-.22-.17-.26-.39-.15a9.32,9.32,0,0,0-3.27,2.87c-.06.08,0,.22-.05.33s.26,0,.33-.11C201.91,129.17,202.18,128.83,202.46,128.5Z"/><path d="M198.54,126.84a13.66,13.66,0,0,0-2.61,3.11c0,.06,0,.2,0,.3h.13c.06-.08.13-.14.19-.22a14,14,0,0,1,2.49-2.94c.06,0,0-.19.05-.29S198.61,126.79,198.54,126.84Z"/><path d="M205.79,131.19a5.19,5.19,0,0,1,1.9-.66,1.85,1.85,0,0,0,.47-.08.31.31,0,0,0,.16-.21.84.84,0,0,0-.08-.29l-.13.15a5.48,5.48,0,0,0-2.49.78c-.09.06-.12.22-.18.33A.8.8,0,0,0,205.79,131.19Z"/><path class="cls-5" d="M205.44,131.21c.06-.11.09-.27.18-.33a5.48,5.48,0,0,1,2.49-.78l.13-.15a.84.84,0,0,1,.08.29.31.31,0,0,1-.16.21,1.85,1.85,0,0,1-.47.08,5.19,5.19,0,0,0-1.9.66A.8.8,0,0,1,205.44,131.21Z"/><path class="cls-5" d="M201.33,129.27a9.32,9.32,0,0,1,3.27-2.87c.22-.11.38-.07.39.15a2.43,2.43,0,0,1-.29.22,7.4,7.4,0,0,0-2.24,1.73c-.28.33-.55.67-.85,1-.07.07-.21.07-.33.11S201.27,129.35,201.33,129.27Z"/><path class="cls-5" d="M199.92,129.54a3.23,3.23,0,0,1-.27.23c-.07,0-.17-.08-.17-.11a.41.41,0,0,1,.07-.27c.26-.27.54-.53.81-.79a13.43,13.43,0,0,1,2.68-2.13c.09,0,.23,0,.35,0,0,.1-.06.25-.14.29A18.19,18.19,0,0,0,199.92,129.54Z"/><path class="cls-5" d="M202.54,125.74a14.46,14.46,0,0,0-3.83,4.26,2,2,0,0,1-.23.34,1,1,0,0,1-.3.13c0-.1-.05-.24,0-.31.54-.79,1.08-1.59,1.66-2.35a15.84,15.84,0,0,1,4.95-4c.38-.22.76-.44,1.14-.64a.36.36,0,0,1,.25,0s.07.1.12.2l-.3.21C204.84,124.3,203.65,125,202.54,125.74Z"/><path class="cls-5" d="M201.29,125.65c-1.09,1.34-2.17,2.68-3.26,4-.07.09-.25.19-.31.16-.21-.1-.09-.25,0-.36q1.64-2,3.3-4.07a.48.48,0,0,1,.29-.12s.08.09.14.15A2.68,2.68,0,0,0,201.29,125.65Z"/><path class="cls-5" d="M198.79,127.1A14,14,0,0,0,196.3,130c-.06.08-.13.14-.19.22H196c0-.1-.09-.24,0-.3a13.66,13.66,0,0,1,2.61-3.11c.07,0,.2,0,.3,0S198.85,127.05,198.79,127.1Z"/><path class="cls-5" d="M195.24,142a9.53,9.53,0,0,1,1.57-1.21,9,9,0,0,1,6-.88,3.4,3.4,0,0,1,.46.09c.07,0,.17.14.16.2s-.13.12-.14.14c-.68-.09-1.28-.17-1.88-.22a8.56,8.56,0,0,0-3.36.54,5.75,5.75,0,0,0-2.4,1.47c0,.05-.09.11-.15.13a1,1,0,0,1-.3,0C195.2,142.16,195.18,142,195.24,142Z"/><path class="cls-5" d="M203.52,130.18c-.09.06-.25,0-.38,0,.06-.12.09-.27.19-.33a9.48,9.48,0,0,1,4-1.58l.3,0,.2.15c-.09.08-.16.2-.25.21A9.59,9.59,0,0,0,203.52,130.18Z"/><path class="cls-5" d="M206.66,127a10.5,10.5,0,0,0-4.25,3,3,3,0,0,1-.31.31c-.07.05-.18,0-.27.05s0-.24,0-.3c.21-.25.46-.47.68-.72a11.66,11.66,0,0,1,5.7-3.24c.27-.08.54-.18.82-.24.1,0,.21,0,.32.08v.13a1.24,1.24,0,0,1-.3.16C208.26,126.5,207.45,126.73,206.66,127Z"/><path class="cls-5" d="M199.64,123.86c.07-.07.21,0,.32-.08,0,.12,0,.27-.09.34a20.13,20.13,0,0,0-1.6,1.6c-.85,1.08-1.62,2.21-2.39,3.34-.38.55-.68,1.14-1,1.7a1.77,1.77,0,0,1-.25.3,1.82,1.82,0,0,1-.16-.28s0-.1.07-.15a33.11,33.11,0,0,1,3.18-4.84A27.32,27.32,0,0,1,199.64,123.86Z"/><path class="cls-5" d="M195.38,126.66c0,.09.1.21.07.28a17.27,17.27,0,0,0-1.45,4.37c0,.08-.17.14-.25.2l-.12-.15a16.21,16.21,0,0,1,1.49-4.55C195.16,126.73,195.29,126.71,195.38,126.66Z"/><path class="cls-5" d="M209.13,131.45c-.51,0-1-.09-1.53-.13a2.72,2.72,0,0,0-.28,0c.27.48.56.91.8,1.38A8.93,8.93,0,0,1,192.28,141a8.73,8.73,0,0,1,.27-9,5.29,5.29,0,0,0,.35-1.27c.25-.91.51-1.83.78-2.73,0-.09.16-.15.24-.22,0,.11.11.24.09.33-.25,1-.54,1.91-.78,2.88a9.74,9.74,0,0,0-.18,1.32c0,.18-.06.3-.28.29s-.18.1-.22.18a8,8,0,0,0-1,3.58,8.57,8.57,0,1,0,15.5-4.64.5.5,0,0,0-.6-.22.4.4,0,0,1-.23,0,1,1,0,0,1-.27-.14c.07-.07.12-.19.19-.2a11.57,11.57,0,0,1,1.55-.22,8.94,8.94,0,0,1,1.46.16c.08,0,.15.13.22.2S209.22,131.46,209.13,131.45Z"/><path class="cls-5" d="M209.62,129.39c-.85.11-1.7.19-2.54.32a7,7,0,0,0-2.46,1.09c-.15.08-.32.35-.5.07,0,0,.18-.28.31-.38a8,8,0,0,1,4.2-1.38c.35,0,.69-.07,1-.08.1,0,.2.07.3.11v.13A2,2,0,0,1,209.62,129.39Z"/><path class="cls-5" d="M209.17,131.11a8.94,8.94,0,0,0-1.46-.16,11.57,11.57,0,0,0-1.55.22c-.07,0-.12.13-.19.2a1,1,0,0,0,.27.14.4.4,0,0,0,.23,0,.5.5,0,0,1,.6.22,8.57,8.57,0,1,1-15.5,4.64,8,8,0,0,1,1-3.58c0-.08.14-.18.22-.18s.26-.11.28-.29a9.74,9.74,0,0,1,.18-1.32c.24-1,.53-1.92.78-2.88,0-.09-.06-.22-.09-.33-.08.07-.22.13-.24.22-.27.9-.53,1.82-.78,2.73a5.29,5.29,0,0,1-.35,1.27,8.73,8.73,0,0,0-.27,9,8.93,8.93,0,0,0,15.84-8.26c-.24-.47-.53-.9-.8-1.38a2.72,2.72,0,0,1,.28,0c.51,0,1,.1,1.53.13.09,0,.18-.09.26-.14S209.25,131.13,209.17,131.11Z"/><path class="cls-5" d="M206.3,123.37c-.05-.1-.08-.19-.12-.2a.36.36,0,0,0-.25,0c-.38.2-.76.42-1.14.64a15.84,15.84,0,0,0-4.95,4c-.58.76-1.12,1.56-1.66,2.35-.05.07,0,.21,0,.31a1,1,0,0,0,.3-.13,2,2,0,0,0,.23-.34,14.46,14.46,0,0,1,3.83-4.26c1.11-.78,2.3-1.44,3.46-2.16Z"/><path class="cls-5" d="M194.44,130.78a1.82,1.82,0,0,0,.16.28,1.77,1.77,0,0,0,.25-.3c.35-.56.65-1.15,1-1.7.77-1.13,1.54-2.26,2.39-3.34a20.13,20.13,0,0,1,1.6-1.6c.07-.07.06-.22.09-.34-.11,0-.25,0-.32.08a27.32,27.32,0,0,0-1.95,1.93,33.11,33.11,0,0,0-3.18,4.84C194.48,130.68,194.43,130.74,194.44,130.78Z"/><path class="cls-5" d="M209.36,126.07v-.13c-.11,0-.22-.1-.32-.08-.28.06-.55.16-.82.24a11.66,11.66,0,0,0-5.7,3.24c-.22.25-.47.47-.68.72,0,.06,0,.2,0,.3s.2,0,.27-.05a3,3,0,0,0,.31-.31,10.5,10.5,0,0,1,4.25-3c.79-.29,1.6-.52,2.4-.79A1.24,1.24,0,0,0,209.36,126.07Z"/><path class="cls-5" d="M195.63,142.1a5.75,5.75,0,0,1,2.4-1.47,8.56,8.56,0,0,1,3.36-.54c.6,0,1.2.13,1.88.22,0,0,.13-.07.14-.14s-.09-.17-.16-.2a3.4,3.4,0,0,0-.46-.09,9,9,0,0,0-6,.88,9.53,9.53,0,0,0-1.57,1.21c-.06,0,0,.19-.06.28a1,1,0,0,0,.3,0C195.54,142.21,195.58,142.15,195.63,142.1Z"/><path class="cls-5" d="M209.66,129c-.34,0-.68.06-1,.08a8,8,0,0,0-4.2,1.38c-.13.1-.34.34-.31.38.18.28.35,0,.5-.07a7,7,0,0,1,2.46-1.09c.84-.13,1.69-.21,2.54-.32a2,2,0,0,0,.34-.12v-.13C209.86,129.1,209.76,129,209.66,129Z"/><path class="cls-5" d="M201.32,125.27a.48.48,0,0,0-.29.12q-1.67,2-3.3,4.07c-.1.11-.22.26,0,.36.06,0,.24-.07.31-.16,1.09-1.33,2.17-2.67,3.26-4a2.68,2.68,0,0,1,.17-.23C201.4,125.36,201.35,125.27,201.32,125.27Z"/><path class="cls-5" d="M193.75,131.51c.08-.06.23-.12.25-.2a17.27,17.27,0,0,1,1.45-4.37c0-.07,0-.19-.07-.28s-.22.07-.26.15a16.21,16.21,0,0,0-1.49,4.55Z"/><path class="cls-5" d="M203.39,126.46c-.12,0-.26,0-.35,0a13.43,13.43,0,0,0-2.68,2.13c-.27.26-.55.52-.81.79a.41.41,0,0,0-.07.27s.1.07.17.11a3.23,3.23,0,0,0,.27-.23,18.19,18.19,0,0,1,3.33-2.79C203.33,126.71,203.34,126.56,203.39,126.46Z"/><path class="cls-5" d="M207.83,128.42l-.2-.15-.3,0a9.48,9.48,0,0,0-4,1.58c-.1.06-.13.21-.19.33.13,0,.29,0,.38,0a9.59,9.59,0,0,1,4.06-1.55C207.67,128.62,207.74,128.5,207.83,128.42Z"/><path class="cls-5" d="M202.46,128.5a7.4,7.4,0,0,1,2.24-1.73,2.43,2.43,0,0,0,.29-.22c0-.22-.17-.26-.39-.15a9.32,9.32,0,0,0-3.27,2.87c-.06.08,0,.22-.05.33s.26,0,.33-.11C201.91,129.17,202.18,128.83,202.46,128.5Z"/><path class="cls-5" d="M198.54,126.84a13.66,13.66,0,0,0-2.61,3.11c0,.06,0,.2,0,.3h.13c.06-.08.13-.14.19-.22a14,14,0,0,1,2.49-2.94c.06,0,0-.19.05-.29S198.61,126.79,198.54,126.84Z"/><path class="cls-5" d="M205.79,131.19a5.19,5.19,0,0,1,1.9-.66,1.85,1.85,0,0,0,.47-.08.31.31,0,0,0,.16-.21.84.84,0,0,0-.08-.29l-.13.15a5.48,5.48,0,0,0-2.49.78c-.09.06-.12.22-.18.33A.8.8,0,0,0,205.79,131.19Z"/><path d="M208.17,132.11a8.94,8.94,0,0,0-1.46-.16,11.57,11.57,0,0,0-1.55.22c-.07,0-.12.13-.19.2a1,1,0,0,0,.27.14.4.4,0,0,0,.23,0,.5.5,0,0,1,.6.22,8.57,8.57,0,1,1-15.5,4.64,8,8,0,0,1,1-3.58c0-.08.14-.18.22-.18s.26-.11.28-.29a9.74,9.74,0,0,1,.18-1.32c.24-1,.53-1.92.78-2.88,0-.09-.06-.22-.09-.33-.08.07-.22.13-.24.22-.27.9-.53,1.82-.78,2.73a5.29,5.29,0,0,1-.35,1.27,8.73,8.73,0,0,0-.27,9,8.93,8.93,0,0,0,15.84-8.26c-.24-.47-.53-.9-.8-1.38a2.72,2.72,0,0,1,.28,0c.51,0,1,.1,1.53.13.09,0,.18-.09.26-.14S208.25,132.13,208.17,132.11Z"/><path d="M205.3,124.37c-.05-.1-.08-.19-.12-.2a.36.36,0,0,0-.25,0c-.38.2-.76.42-1.14.64a15.84,15.84,0,0,0-4.95,4c-.58.76-1.12,1.56-1.66,2.35-.05.07,0,.21,0,.31a1,1,0,0,0,.3-.13,2,2,0,0,0,.23-.34,14.46,14.46,0,0,1,3.83-4.26c1.11-.78,2.3-1.44,3.46-2.16Z"/><path d="M193.44,131.78a1.82,1.82,0,0,0,.16.28,1.77,1.77,0,0,0,.25-.3c.35-.56.65-1.15,1-1.7.77-1.13,1.54-2.26,2.39-3.34a20.13,20.13,0,0,1,1.6-1.6c.07-.07.06-.22.09-.34-.11,0-.25,0-.32.08a27.32,27.32,0,0,0-1.95,1.93,33.11,33.11,0,0,0-3.18,4.84C193.48,131.68,193.43,131.74,193.44,131.78Z"/><path d="M208.36,127.07v-.13c-.11,0-.22-.1-.32-.08-.28.06-.55.16-.82.24a11.66,11.66,0,0,0-5.7,3.24c-.22.25-.47.47-.68.72,0,.06,0,.2,0,.3s.2,0,.27-.05a3,3,0,0,0,.31-.31,10.5,10.5,0,0,1,4.25-3c.79-.29,1.6-.52,2.4-.79A1.24,1.24,0,0,0,208.36,127.07Z"/><path d="M194.63,143.1a5.75,5.75,0,0,1,2.4-1.47,8.56,8.56,0,0,1,3.36-.54c.6,0,1.2.13,1.88.22,0,0,.13-.07.14-.14s-.09-.17-.16-.2a3.4,3.4,0,0,0-.46-.09,9,9,0,0,0-6,.88,9.53,9.53,0,0,0-1.57,1.21c-.06,0,0,.19-.06.28a1,1,0,0,0,.3,0C194.54,143.21,194.58,143.15,194.63,143.1Z"/><path d="M208.66,130c-.34,0-.68.06-1,.08a8,8,0,0,0-4.2,1.38c-.13.1-.34.34-.31.38.18.28.35,0,.5-.07a7,7,0,0,1,2.46-1.09c.84-.13,1.69-.21,2.54-.32a2,2,0,0,0,.34-.12v-.13C208.86,130.1,208.76,130,208.66,130Z"/><path d="M200.32,126.27a.48.48,0,0,0-.29.12q-1.67,2-3.3,4.07c-.1.11-.22.26,0,.36.06,0,.24-.07.31-.16,1.09-1.33,2.17-2.67,3.26-4a2.68,2.68,0,0,1,.17-.23C200.4,126.36,200.35,126.27,200.32,126.27Z"/><path d="M192.75,132.51c.08-.06.23-.12.25-.2a17.27,17.27,0,0,1,1.45-4.37c0-.07,0-.19-.07-.28s-.22.07-.26.15a16.21,16.21,0,0,0-1.49,4.55Z"/><path d="M202.39,127.46c-.12,0-.26,0-.35,0a13.43,13.43,0,0,0-2.68,2.13c-.27.26-.55.52-.81.79a.41.41,0,0,0-.07.27s.1.07.17.11a3.23,3.23,0,0,0,.27-.23,18.19,18.19,0,0,1,3.33-2.79C202.33,127.71,202.34,127.56,202.39,127.46Z"/><path d="M206.83,129.42l-.2-.15-.3,0a9.48,9.48,0,0,0-4,1.58c-.1.06-.13.21-.19.33.13,0,.29,0,.38,0a9.59,9.59,0,0,1,4.06-1.55C206.67,129.62,206.74,129.5,206.83,129.42Z"/><path d="M201.46,129.5a7.4,7.4,0,0,1,2.24-1.73,2.43,2.43,0,0,0,.29-.22c0-.22-.17-.26-.39-.15a9.32,9.32,0,0,0-3.27,2.87c-.06.08,0,.22-.05.33s.26,0,.33-.11C200.91,130.17,201.18,129.83,201.46,129.5Z"/><path d="M197.54,127.84a13.66,13.66,0,0,0-2.61,3.11c0,.06,0,.2,0,.3h.13c.06-.08.13-.14.19-.22a14,14,0,0,1,2.49-2.94c.06,0,0-.19.05-.29S197.61,127.79,197.54,127.84Z"/><path d="M204.79,132.19a5.19,5.19,0,0,1,1.9-.66,1.85,1.85,0,0,0,.47-.08.31.31,0,0,0,.16-.21.84.84,0,0,0-.08-.29l-.13.15a5.48,5.48,0,0,0-2.49.78c-.09.06-.12.22-.18.33A.8.8,0,0,0,204.79,132.19Z"/><path class="cls-6" d="M205.34,136.77c0,.2-.07.39-.08.58s-.15.34-.39.2a4.51,4.51,0,0,0-4-.21c-.55.2-.55.2-.6-.39a2.55,2.55,0,1,1,5.07-.18Z"/><path class="cls-6" d="M204.44,132.21c.06-.11.09-.27.18-.33a5.48,5.48,0,0,1,2.49-.78l.13-.15a.84.84,0,0,1,.08.29.31.31,0,0,1-.16.21,1.85,1.85,0,0,1-.47.08,5.19,5.19,0,0,0-1.9.66A.8.8,0,0,1,204.44,132.21Z"/><path class="cls-6" d="M200.33,130.27a9.32,9.32,0,0,1,3.27-2.87c.22-.11.38-.07.39.15a2.43,2.43,0,0,1-.29.22,7.4,7.4,0,0,0-2.24,1.73c-.28.33-.55.67-.85,1-.07.07-.21.07-.33.11S200.27,130.35,200.33,130.27Z"/><path class="cls-6" d="M198.92,130.54a3.23,3.23,0,0,1-.27.23c-.07,0-.17-.08-.17-.11a.41.41,0,0,1,.07-.27c.26-.27.54-.53.81-.79a13.43,13.43,0,0,1,2.68-2.13c.09,0,.23,0,.35,0,0,.1-.06.25-.14.29A18.19,18.19,0,0,0,198.92,130.54Z"/><path class="cls-6" d="M201.54,126.74a14.46,14.46,0,0,0-3.83,4.26,2,2,0,0,1-.23.34,1,1,0,0,1-.3.13c0-.1-.05-.24,0-.31.54-.79,1.08-1.59,1.66-2.35a15.84,15.84,0,0,1,4.95-4c.38-.22.76-.44,1.14-.64a.36.36,0,0,1,.25,0s.07.1.12.2l-.3.21C203.84,125.3,202.65,126,201.54,126.74Z"/><path class="cls-6" d="M200.29,126.65c-1.09,1.34-2.17,2.68-3.26,4-.07.09-.25.19-.31.16-.21-.1-.09-.25,0-.36q1.64-2,3.3-4.07a.48.48,0,0,1,.29-.12s.08.09.14.15A2.68,2.68,0,0,0,200.29,126.65Z"/><path class="cls-6" d="M197.79,128.1A14,14,0,0,0,195.3,131c-.06.08-.13.14-.19.22H195c0-.1-.09-.24,0-.3a13.66,13.66,0,0,1,2.61-3.11c.07,0,.2,0,.3,0S197.85,128.05,197.79,128.1Z"/><path class="cls-6" d="M196.3,134.25A2.69,2.69,0,0,1,198,136.9l0,.24c0,.35-.09.39-.42.26a4.56,4.56,0,0,0-4.16.15c-.21.13-.35.09-.37-.18,0-.1,0-.2-.06-.3s0-.23,0-.34A2.52,2.52,0,0,1,196.3,134.25Z"/><path class="cls-6" d="M194.24,143a9.53,9.53,0,0,1,1.57-1.21,9,9,0,0,1,6-.88,3.4,3.4,0,0,1,.46.09c.07,0,.17.14.16.2s-.13.12-.14.14c-.68-.09-1.28-.17-1.88-.22a8.56,8.56,0,0,0-3.36.54,5.75,5.75,0,0,0-2.4,1.47c0,.05-.09.11-.15.13a1,1,0,0,1-.3,0C194.2,143.16,194.18,143,194.24,143Z"/><path class="cls-6" d="M202.52,131.18c-.09.06-.25,0-.38,0,.06-.12.09-.27.19-.33a9.48,9.48,0,0,1,4-1.58l.3,0,.2.15c-.09.08-.16.2-.25.21A9.59,9.59,0,0,0,202.52,131.18Z"/><path class="cls-6" d="M205.66,128a10.5,10.5,0,0,0-4.25,3,3,3,0,0,1-.31.31c-.07.05-.18,0-.27.05s0-.24,0-.3c.21-.25.46-.47.68-.72a11.66,11.66,0,0,1,5.7-3.24c.27-.08.54-.18.82-.24.1,0,.21,0,.32.08v.13a1.24,1.24,0,0,1-.3.16C207.26,127.5,206.45,127.73,205.66,128Z"/><path class="cls-6" d="M198.64,124.86c.07-.07.21,0,.32-.08,0,.12,0,.27-.09.34a20.13,20.13,0,0,0-1.6,1.6c-.85,1.08-1.62,2.21-2.39,3.34-.38.55-.68,1.14-1,1.7a1.77,1.77,0,0,1-.25.3,1.82,1.82,0,0,1-.16-.28s0-.1.07-.15a33.11,33.11,0,0,1,3.18-4.84A27.32,27.32,0,0,1,198.64,124.86Z"/><path class="cls-6" d="M194.38,127.66c0,.09.1.21.07.28a17.27,17.27,0,0,0-1.45,4.37c0,.08-.17.14-.25.2l-.12-.15a16.21,16.21,0,0,1,1.49-4.55C194.16,127.73,194.29,127.71,194.38,127.66Z"/><path class="cls-6" d="M208.13,132.45c-.51,0-1-.09-1.53-.13a2.72,2.72,0,0,0-.28,0c.27.48.56.91.8,1.38A8.93,8.93,0,0,1,191.28,142a8.73,8.73,0,0,1,.27-9,5.29,5.29,0,0,0,.35-1.27c.25-.91.51-1.83.78-2.73,0-.09.16-.15.24-.22,0,.11.11.24.09.33-.25,1-.54,1.91-.78,2.88a9.74,9.74,0,0,0-.18,1.32c0,.18-.06.3-.28.29s-.18.1-.22.18a8,8,0,0,0-1,3.58,8.57,8.57,0,1,0,15.5-4.64.5.5,0,0,0-.6-.22.4.4,0,0,1-.23,0,1,1,0,0,1-.27-.14c.07-.07.12-.19.19-.2a11.57,11.57,0,0,1,1.55-.22,8.94,8.94,0,0,1,1.46.16c.08,0,.15.13.22.2S208.22,132.46,208.13,132.45Z"/><path class="cls-6" d="M208.62,130.39c-.85.11-1.7.19-2.54.32a7,7,0,0,0-2.46,1.09c-.15.08-.32.35-.5.07,0,0,.18-.28.31-.38a8,8,0,0,1,4.2-1.38c.35,0,.69-.07,1-.08.1,0,.2.07.3.11v.13A2,2,0,0,1,208.62,130.39Z"/><path class="cls-6" d="M208.17,132.11a8.94,8.94,0,0,0-1.46-.16,11.57,11.57,0,0,0-1.55.22c-.07,0-.12.13-.19.2a1,1,0,0,0,.27.14.4.4,0,0,0,.23,0,.5.5,0,0,1,.6.22,8.57,8.57,0,1,1-15.5,4.64,8,8,0,0,1,1-3.58c0-.08.14-.18.22-.18s.26-.11.28-.29a9.74,9.74,0,0,1,.18-1.32c.24-1,.53-1.92.78-2.88,0-.09-.06-.22-.09-.33-.08.07-.22.13-.24.22-.27.9-.53,1.82-.78,2.73a5.29,5.29,0,0,1-.35,1.27,8.73,8.73,0,0,0-.27,9,8.93,8.93,0,0,0,15.84-8.26c-.24-.47-.53-.9-.8-1.38a2.72,2.72,0,0,1,.28,0c.51,0,1,.1,1.53.13.09,0,.18-.09.26-.14S208.25,132.13,208.17,132.11Z"/><path class="cls-6" d="M205.3,124.37c-.05-.1-.08-.19-.12-.2a.36.36,0,0,0-.25,0c-.38.2-.76.42-1.14.64a15.84,15.84,0,0,0-4.95,4c-.58.76-1.12,1.56-1.66,2.35-.05.07,0,.21,0,.31a1,1,0,0,0,.3-.13,2,2,0,0,0,.23-.34,14.46,14.46,0,0,1,3.83-4.26c1.11-.78,2.3-1.44,3.46-2.16Z"/><path class="cls-6" d="M193.44,131.78a1.82,1.82,0,0,0,.16.28,1.77,1.77,0,0,0,.25-.3c.35-.56.65-1.15,1-1.7.77-1.13,1.54-2.26,2.39-3.34a20.13,20.13,0,0,1,1.6-1.6c.07-.07.06-.22.09-.34-.11,0-.25,0-.32.08a27.32,27.32,0,0,0-1.95,1.93,33.11,33.11,0,0,0-3.18,4.84C193.48,131.68,193.43,131.74,193.44,131.78Z"/><path class="cls-6" d="M208.36,127.07v-.13c-.11,0-.22-.1-.32-.08-.28.06-.55.16-.82.24a11.66,11.66,0,0,0-5.7,3.24c-.22.25-.47.47-.68.72,0,.06,0,.2,0,.3s.2,0,.27-.05a3,3,0,0,0,.31-.31,10.5,10.5,0,0,1,4.25-3c.79-.29,1.6-.52,2.4-.79A1.24,1.24,0,0,0,208.36,127.07Z"/><path class="cls-6" d="M194.63,143.1a5.75,5.75,0,0,1,2.4-1.47,8.56,8.56,0,0,1,3.36-.54c.6,0,1.2.13,1.88.22,0,0,.13-.07.14-.14s-.09-.17-.16-.2a3.4,3.4,0,0,0-.46-.09,9,9,0,0,0-6,.88,9.53,9.53,0,0,0-1.57,1.21c-.06,0,0,.19-.06.28a1,1,0,0,0,.3,0C194.54,143.21,194.58,143.15,194.63,143.1Z"/><path class="cls-6" d="M208.66,130c-.34,0-.68.06-1,.08a8,8,0,0,0-4.2,1.38c-.13.1-.34.34-.31.38.18.28.35,0,.5-.07a7,7,0,0,1,2.46-1.09c.84-.13,1.69-.21,2.54-.32a2,2,0,0,0,.34-.12v-.13C208.86,130.1,208.76,130,208.66,130Z"/><path class="cls-6" d="M200.32,126.27a.48.48,0,0,0-.29.12q-1.67,2-3.3,4.07c-.1.11-.22.26,0,.36.06,0,.24-.07.31-.16,1.09-1.33,2.17-2.67,3.26-4a2.68,2.68,0,0,1,.17-.23C200.4,126.36,200.35,126.27,200.32,126.27Z"/><path class="cls-6" d="M192.75,132.51c.08-.06.23-.12.25-.2a17.27,17.27,0,0,1,1.45-4.37c0-.07,0-.19-.07-.28s-.22.07-.26.15a16.21,16.21,0,0,0-1.49,4.55Z"/><path class="cls-6" d="M202.39,127.46c-.12,0-.26,0-.35,0a13.43,13.43,0,0,0-2.68,2.13c-.27.26-.55.52-.81.79a.41.41,0,0,0-.07.27s.1.07.17.11a3.23,3.23,0,0,0,.27-.23,18.19,18.19,0,0,1,3.33-2.79C202.33,127.71,202.34,127.56,202.39,127.46Z"/><path class="cls-6" d="M206.83,129.42l-.2-.15-.3,0a9.48,9.48,0,0,0-4,1.58c-.1.06-.13.21-.19.33.13,0,.29,0,.38,0a9.59,9.59,0,0,1,4.06-1.55C206.67,129.62,206.74,129.5,206.83,129.42Z"/><path class="cls-6" d="M201.46,129.5a7.4,7.4,0,0,1,2.24-1.73,2.43,2.43,0,0,0,.29-.22c0-.22-.17-.26-.39-.15a9.32,9.32,0,0,0-3.27,2.87c-.06.08,0,.22-.05.33s.26,0,.33-.11C200.91,130.17,201.18,129.83,201.46,129.5Z"/><path class="cls-6" d="M197.54,127.84a13.66,13.66,0,0,0-2.61,3.11c0,.06,0,.2,0,.3h.13c.06-.08.13-.14.19-.22a14,14,0,0,1,2.49-2.94c.06,0,0-.19.05-.29S197.61,127.79,197.54,127.84Z"/><path class="cls-6" d="M204.79,132.19a5.19,5.19,0,0,1,1.9-.66,1.85,1.85,0,0,0,.47-.08.31.31,0,0,0,.16-.21.84.84,0,0,0-.08-.29l-.13.15a5.48,5.48,0,0,0-2.49.78c-.09.06-.12.22-.18.33A.8.8,0,0,0,204.79,132.19Z"/><g id="eyes"><path d="M200.27,137c0,.59,0,.59.6.39a4.51,4.51,0,0,1,4,.21c.24.14.36.08.39-.2s.05-.38.08-.58a2.55,2.55,0,1,0-5.07.18Zm4.62.18a8.38,8.38,0,0,1-.8-.35.48.48,0,0,1-.21-.3,1.23,1.23,0,0,0-.78-.89c-.25-.09-.36,0-.4.23a2.44,2.44,0,0,1-.09.37,2.32,2.32,0,0,1-.35-.14c-.27-.17-.46-.06-.49.21-.05.44-.34.56-.7.63a2.47,2.47,0,0,0-.36.11,2.13,2.13,0,0,1,3.23-2.19A2.28,2.28,0,0,1,204.89,137.13Z"/><path d="M193,136.73c0,.11,0,.22,0,.34s.05.2.06.3c0,.27.16.31.37.18a4.56,4.56,0,0,1,4.16-.15c.33.13.4.09.42-.26l0-.24a2.69,2.69,0,0,0-1.69-2.65A2.52,2.52,0,0,0,193,136.73Zm3.49-2a2.23,2.23,0,0,1,1.14,2.28c-.29-.08-.57-.15-.85-.25-.07,0-.12-.15-.14-.23a1.22,1.22,0,0,0-.72-.9c-.26-.11-.44-.12-.47.23a1.53,1.53,0,0,1-.1.34,1.43,1.43,0,0,1-.31-.12c-.27-.18-.48-.11-.52.19s-.35.58-.71.7a2.43,2.43,0,0,0-.37.16,2.09,2.09,0,0,1,.72-2.14A2,2,0,0,1,196.44,134.72Z"/><path class="cls-5" d="M201.53,134.9a2.1,2.1,0,0,0-.82,2.1,2.47,2.47,0,0,1,.36-.11c.36-.07.65-.19.7-.63,0-.27.22-.38.49-.21a2.32,2.32,0,0,0,.35.14,2.44,2.44,0,0,0,.09-.37c0-.26.15-.32.4-.23a1.23,1.23,0,0,1,.78.89.48.48,0,0,0,.21.3,8.38,8.38,0,0,0,.8.35,2.28,2.28,0,0,0-.95-2.32A2.09,2.09,0,0,0,201.53,134.9Z"/><path class="cls-5" d="M193.39,137.12a2.43,2.43,0,0,1,.37-.16c.36-.12.65-.26.71-.7s.25-.37.52-.19a1.43,1.43,0,0,0,.31.12,1.53,1.53,0,0,0,.1-.34c0-.35.21-.34.47-.23a1.22,1.22,0,0,1,.72.9c0,.08.07.21.14.23.28.1.56.17.85.25a2.23,2.23,0,0,0-1.14-2.28,2,2,0,0,0-2.33.26A2.09,2.09,0,0,0,193.39,137.12Z"/></g></g><g id="stars"><rect class="cls-7" x="269.09" y="193.51" width="15.06" height="15.06" transform="translate(-45.65 315.39) rotate(-55.54)"/><polygon class="cls-8" points="276.15 201.68 277.29 204.73 277.54 201.54 276.66 200.93 276.15 201.68"/><polygon class="cls-8" points="275.78 200.38 272.92 201.53 276.17 201.69 276.66 200.99 275.78 200.38"/><path class="cls-8" d="M280.3,195.67a.36.36,0,1,0,.41-.59.36.36,0,0,0-.41.59Z"/><path class="cls-8" d="M270.83,197.4a.36.36,0,0,0,.41-.59.35.35,0,0,0-.5.09A.36.36,0,0,0,270.83,197.4Z"/><path class="cls-8" d="M282.21,205.17a.37.37,0,0,0,.5-.09.36.36,0,0,0-.1-.5.37.37,0,0,0-.5.09A.36.36,0,0,0,282.21,205.17Z"/><path class="cls-8" d="M272.55,206.93a.37.37,0,0,0,.5-.09.36.36,0,0,0-.1-.5.37.37,0,0,0-.5.09A.36.36,0,0,0,272.55,206.93Z"/><polygon class="cls-8" points="277.19 200.16 280.44 200.15 277.54 201.54 276.66 200.93 277.19 200.16"/><polygon class="cls-8" points="277.17 200.15 276.06 197.05 275.75 200.34 276.63 200.94 277.17 200.15"/><g class="cls-9"><polygon class="cls-10" points="275.56 202.5 276.69 200.85 276.69 200.85 275.38 207.04 275.56 202.5"/><polygon class="cls-10" points="275.54 202.58 276.66 200.93 276.66 200.93 271.36 204.38 275.54 202.58"/><polygon class="cls-10" points="278.23 202.03 276.58 200.91 276.58 200.91 282.77 202.21 278.23 202.03"/><polygon class="cls-10" points="278.31 202.06 276.66 200.93 276.66 200.93 280.11 206.23 278.31 202.06"/><polygon class="cls-10" points="275.1 199.83 276.74 200.96 276.74 200.96 270.56 199.65 275.1 199.83"/><polygon class="cls-10" points="275.02 199.81 276.66 200.93 276.66 200.93 273.22 195.63 275.02 199.81"/><polygon class="cls-10" points="277.79 199.29 276.66 200.93 276.66 200.93 281.96 197.49 277.79 199.29"/><polygon class="cls-10" points="277.86 199.24 276.73 200.88 276.73 200.88 278.04 194.69 277.86 199.24"/></g><line class="cls-11" x1="280.86" y1="194.81" x2="272.34" y2="207.23"/><line class="cls-11" x1="282.89" y1="205.21" x2="270.48" y2="196.69"/><rect class="cls-7" x="274.28" y="130.96" width="27.72" height="27.72" transform="translate(22.05 327.01) rotate(-61.08)"/><polygon class="cls-12" points="286.88 144.06 281.49 146.7 287.39 146.59 288.34 144.87 286.88 144.06"/><polygon class="cls-12" points="289.19 143.15 286.58 138.11 286.86 144.11 288.24 144.87 289.19 143.15"/><path class="cls-12" d="M298.62,150.61a.65.65,0,0,0,.26.89.66.66,0,1,0-.26-.89Z"/><path class="cls-12" d="M293.78,133.56a.66.66,0,0,0,1.15.64.66.66,0,0,0-.26-.9A.65.65,0,0,0,293.78,133.56Z"/><path class="cls-12" d="M281.56,155.78a.66.66,0,1,0,.89-.26A.65.65,0,0,0,281.56,155.78Z"/><path class="cls-12" d="M276.62,138.39a.66.66,0,0,0,.26.9.66.66,0,0,0,.63-1.15A.65.65,0,0,0,276.62,138.39Z"/><polygon class="cls-12" points="289.84 145.7 290.44 151.64 287.39 146.59 288.34 144.87 289.84 145.7"/><polygon class="cls-12" points="289.87 145.66 295.34 143.07 289.27 143.08 288.32 144.8 289.87 145.66"/><g class="cls-9"><polygon class="cls-13" points="285.27 143.13 288.49 144.91 288.49 144.91 276.93 143.61 285.27 143.13"/><polygon class="cls-13" points="285.13 143.09 288.34 144.87 288.34 144.87 281.08 135.77 285.13 143.09"/><polygon class="cls-13" points="286.6 147.93 288.37 144.72 288.37 144.72 287.08 156.28 286.6 147.93"/><polygon class="cls-13" points="286.56 148.08 288.34 144.87 288.34 144.87 279.24 152.12 286.56 148.08"/><polygon class="cls-13" points="290.08 141.81 288.3 145.02 288.3 145.02 289.6 133.46 290.08 141.81"/><polygon class="cls-13" points="290.11 141.66 288.34 144.87 288.34 144.87 297.43 137.62 290.11 141.66"/><polygon class="cls-13" points="291.55 146.64 288.34 144.87 288.34 144.87 295.59 153.97 291.55 146.64"/><polygon class="cls-13" points="291.66 146.75 288.45 144.98 288.45 144.98 300.01 146.27 291.66 146.75"/></g><line class="cls-14" x1="300.3" y1="151.48" x2="276.03" y2="138.07"/><line class="cls-14" x1="281.61" y1="157.04" x2="295.02" y2="132.78"/><rect class="cls-7" x="282.2" y="85.55" width="32.17" height="32.17" transform="translate(52.95 299.41) rotate(-57.69)"/><polygon class="cls-15" points="296.88 100.67 290.45 103.36 297.3 103.64 298.51 101.71 296.88 100.67"/><polygon class="cls-15" points="299.62 99.77 296.94 93.76 296.85 100.72 298.4 101.7 299.62 99.77"/><path class="cls-15" d="M310,109.06a.77.77,0,0,0,.24,1.06.77.77,0,0,0,.82-1.3A.77.77,0,0,0,310,109.06Z"/><path class="cls-15" d="M305.59,89a.77.77,0,1,0,1.06-.24A.76.76,0,0,0,305.59,89Z"/><path class="cls-15" d="M289.91,113.88a.76.76,0,0,0,.24,1.06.75.75,0,0,0,1.05-.24.76.76,0,1,0-1.29-.82Z"/><path class="cls-15" d="M285.38,93.4a.77.77,0,0,0,1.3.82.78.78,0,0,0-.24-1.06A.77.77,0,0,0,285.38,93.4Z"/><polygon class="cls-15" points="300.2 102.78 300.48 109.7 297.3 103.64 298.51 101.71 300.2 102.78"/><polygon class="cls-15" points="300.23 102.73 306.75 100.1 299.71 99.7 298.5 101.63 300.23 102.73"/><g class="cls-9"><polygon class="cls-16" points="295.08 99.48 298.69 101.76 298.69 101.76 285.38 99.46 295.08 99.48"/><polygon class="cls-16" points="294.92 99.43 298.51 101.71 298.51 101.71 290.74 90.67 294.92 99.43"/><polygon class="cls-16" points="296.29 105.14 298.56 101.54 298.56 101.54 296.27 114.84 296.29 105.14"/><polygon class="cls-16" points="296.24 105.31 298.51 101.71 298.51 101.71 287.48 109.49 296.24 105.31"/><polygon class="cls-16" points="300.74 98.28 298.46 101.88 298.46 101.88 300.76 88.57 300.74 98.28"/><polygon class="cls-16" points="300.79 98.11 298.51 101.71 298.51 101.71 309.55 93.93 300.79 98.11"/><polygon class="cls-16" points="302.12 103.99 298.51 101.71 298.51 101.71 306.29 112.75 302.12 103.99"/><polygon class="cls-16" points="302.23 104.12 298.63 101.84 298.63 101.84 311.94 104.14 302.23 104.12"/></g><line class="cls-17" x1="311.92" y1="110.18" x2="284.73" y2="92.99"/><line class="cls-17" x1="289.89" y1="115.35" x2="307.08" y2="88.16"/></g><g id="ship"><g id="space_craft" data-name="space craft"><path d="M292.52,154.05c-4.35,5.48-6.72,12.44-8.18,21,3.19-.18,7.82-.56,9.15-1.13-4-.93-6.7-2.6-5.88-4.32.84-3.13,8.1-1.81,13,2.08-1.75-6-9.68-10.07-9.43-11,1.31-2,5.26.52,7.88,2.05C296.25,158.6,295,155.43,292.52,154.05Z"/><path d="M242.68,111.71c3.21,3.8-4,.39-4.37-3C220.51,98,208.82,91.67,197,92.42c-8.56,14.72-18.42,36.42-25,65.07,6.55,4.76,21.95,15.26,41.57,15.57-3.43-4.71,1.06,5.32,5.29.67,5.21,15.13,17.94,26.83,56.65,33.11,3.4-1.66,5.22,2.6,1.23-3.2,2.33-4.42-37.63-18.07-29.26-27,9,.5,26.13-1.21,35-.74,2.2-8.76,6.44-15.8,8.93-23.27-4.35-8.38-16.42-14.28-25.51-24,1.83-18.89,37.15,2.66,39.8-.48,3.2-3.62,2.2,3.15,1.23-3.21C273.05,96.17,258.09,106.25,242.68,111.71ZM251,150.46c-1.34,6.18-8.17,8.41-13.31,5.93-6-2.28-8.19-8.41-5.93-13.32,2.85-6.1,8.63-8.89,13.31-5.93C249.69,138.65,253.81,145.85,251,150.46Zm-35.28-13.54c-1.79,8.24-10.9,11.21-17.76,7.9-7.94-3-10.92-11.22-7.91-17.75,3.81-8.13,11.52-11.86,17.76-7.91C214,121.16,219.47,130.76,215.68,136.92Z"/><path d="M195,92.23c-20.94.62-33.57,4.18-41.64,19.42,1.24-1.71-10.26-3.25-9.87-2.44-1.43,2.17,7,3.06,9,4.8-3.31,13.1,3.86,27.9,17.95,42.29C170.91,136.1,179.55,109,195,92.23Z"/><path class="cls-5" d="M292.52,154.05c-4.35,5.48-6.72,12.44-8.18,21,3.19-.18,7.82-.56,9.15-1.13-4-.93-6.7-2.6-5.88-4.32.84-3.13,8.1-1.81,13,2.08-1.75-6-9.68-10.07-9.43-11,1.31-2,5.26.52,7.88,2.05C296.25,158.6,295,155.43,292.52,154.05Z"/><path class="cls-5" d="M292.52,154.05c-4.35,5.48-6.72,12.44-8.18,21,3.19-.18,7.82-.56,9.15-1.13-4-.93-6.7-2.6-5.88-4.32.84-3.13,8.1-1.81,13,2.08-1.75-6-9.68-10.07-9.43-11,1.31-2,5.26.52,7.88,2.05C296.25,158.6,295,155.43,292.52,154.05Z"/><path class="cls-5" d="M242.68,111.71c3.21,3.8-4,.39-4.37-3C220.51,98,208.82,91.67,197,92.42c-8.56,14.72-18.42,36.42-25,65.07,6.55,4.76,21.95,15.26,41.57,15.57-3.43-4.71,1.06,5.32,5.29.67,5.21,15.13,17.94,26.83,56.65,33.11,3.4-1.66,5.22,2.6,1.23-3.2,2.33-4.42-37.63-18.07-29.26-27,9,.5,26.13-1.21,35-.74,2.2-8.76,6.44-15.8,8.93-23.27-4.35-8.38-16.42-14.28-25.51-24,1.83-18.89,37.15,2.66,39.8-.48,3.2-3.62,2.2,3.15,1.23-3.21C273.05,96.17,258.09,106.25,242.68,111.71ZM251,150.46c-1.34,6.18-8.17,8.41-13.31,5.93-6-2.28-8.19-8.41-5.93-13.32,2.85-6.1,8.63-8.89,13.31-5.93C249.69,138.65,253.81,145.85,251,150.46Zm-35.28-13.54c-1.79,8.24-10.9,11.21-17.76,7.9-7.94-3-10.92-11.22-7.91-17.75,3.81-8.13,11.52-11.86,17.76-7.91C214,121.16,219.47,130.76,215.68,136.92Z"/><path class="cls-5" d="M242.68,111.71c3.21,3.8-4,.39-4.37-3C220.51,98,208.82,91.67,197,92.42c-8.56,14.72-18.42,36.42-25,65.07,6.55,4.76,21.95,15.26,41.57,15.57-3.43-4.71,1.06,5.32,5.29.67,5.21,15.13,17.94,26.83,56.65,33.11,3.4-1.66,5.22,2.6,1.23-3.2,2.33-4.42-37.63-18.07-29.26-27,9,.5,26.13-1.21,35-.74,2.2-8.76,6.44-15.8,8.93-23.27-4.35-8.38-16.42-14.28-25.51-24,1.83-18.89,37.15,2.66,39.8-.48,3.2-3.62,2.2,3.15,1.23-3.21C273.05,96.17,258.09,106.25,242.68,111.71ZM251,150.46c-1.34,6.18-8.17,8.41-13.31,5.93-6-2.28-8.19-8.41-5.93-13.32,2.85-6.1,8.63-8.89,13.31-5.93C249.69,138.65,253.81,145.85,251,150.46Zm-35.28-13.54c-1.79,8.24-10.9,11.21-17.76,7.9-7.94-3-10.92-11.22-7.91-17.75,3.81-8.13,11.52-11.86,17.76-7.91C214,121.16,219.47,130.76,215.68,136.92Z"/><path class="cls-5" d="M195,92.23c-20.94.62-33.57,4.18-41.64,19.42,1.24-1.71-10.26-3.25-9.87-2.44-1.43,2.17,7,3.06,9,4.8-3.31,13.1,3.86,27.9,17.95,42.29C170.91,136.1,179.55,109,195,92.23Z"/><path class="cls-5" d="M195,92.23c-20.94.62-33.57,4.18-41.64,19.42,1.24-1.71-10.26-3.25-9.87-2.44-1.43,2.17,7,3.06,9,4.8-3.31,13.1,3.86,27.9,17.95,42.29C170.91,136.1,179.55,109,195,92.23Z"/></g><g id="space_craft-2" data-name="space craft"><path d="M291.42,154.94c-4.35,5.47-6.72,12.44-8.18,21,3.19-.18,7.82-.56,9.15-1.13-4-.93-6.7-2.6-5.88-4.32.84-3.13,8.1-1.82,13,2.08-1.75-6-9.68-10.08-9.43-11,1.31-2,5.26.52,7.88,2.05C295.15,159.49,293.88,156.31,291.42,154.94Z"/><path d="M241.58,112.59c3.21,3.81-4,.4-4.37-3-17.8-10.63-29.49-17-41.31-16.24-8.56,14.72-18.42,36.42-25,65.07,6.55,4.75,22,15.26,41.57,15.57-3.43-4.71,1.06,5.32,5.29.67,5.21,15.13,17.94,26.82,56.65,33.11,3.4-1.66,5.22,2.6,1.23-3.2,2.33-4.42-37.63-18.07-29.26-27,9,.49,26.13-1.21,35-.74,2.2-8.76,6.44-15.8,8.93-23.27-4.35-8.39-16.42-14.28-25.51-24,1.82-18.9,37.15,2.65,39.8-.48,3.2-3.62,2.2,3.15,1.23-3.21C272,97.06,257,107.14,241.58,112.59Zm8.28,38.76c-1.34,6.18-8.17,8.41-13.31,5.93-6-2.28-8.19-8.41-5.93-13.32,2.85-6.1,8.63-8.89,13.31-5.93C248.59,139.53,252.71,146.73,249.86,151.35Zm-35.28-13.54c-1.79,8.24-10.9,11.2-17.76,7.9-7.94-3-10.92-11.22-7.91-17.75,3.81-8.13,11.52-11.86,17.76-7.91C212.89,122.05,218.37,131.65,214.58,137.81Z"/><path d="M193.91,93.12c-17.71-2.28-34.34,2.72-41.64,19.42,1.59-1.85-10.13-.78-9.87-2.44,1.19-3.06,7,3.51,9,4.79-4.84,12.94,3.57,30.3,18,42.3C171.41,137.13,179.09,109.34,193.91,93.12Z"/></g></g><g id="stars-2" data-name="stars"><rect class="cls-7" x="148.74" y="190.63" width="41.45" height="41.45" transform="translate(-39.05 38.4) rotate(-11.6)"/><polygon class="cls-18" points="169.83 213.53 178.07 217.09 172.21 210.49 169.33 211.08 169.83 213.53"/><polygon class="cls-18" points="166.54 211.79 163.36 219.64 169.9 213.5 169.42 211.19 166.54 211.79"/><path class="cls-18" d="M165.86,193.82a1,1,0,1,0-1.16-.77A1,1,0,0,0,165.86,193.82Z"/><path class="cls-18" d="M151.19,215.88a1,1,0,0,0-.4-1.93,1,1,0,1,0,.4,1.93Z"/><path class="cls-18" d="M188.32,208.19a1,1,0,1,0-1.17-.77A1,1,0,0,0,188.32,208.19Z"/><path class="cls-18" d="M173.36,230.69a1,1,0,1,0-1.17-.77A1,1,0,0,0,173.36,230.69Z"/><polygon class="cls-18" points="168.81 208.56 174.99 202.11 172.21 210.49 169.33 211.08 168.81 208.56"/><polygon class="cls-18" points="168.74 208.57 160.48 204.87 166.39 211.76 169.27 211.16 168.74 208.57"/><g class="cls-9"><polygon class="cls-19" points="170.33 216.25 169.22 210.87 169.22 210.87 178.98 225.28 170.33 216.25"/><polygon class="cls-19" points="170.43 216.45 169.33 211.08 169.33 211.08 166.04 228.16 170.43 216.45"/><polygon class="cls-19" points="174.5 210.08 169.13 211.18 169.13 211.18 183.53 201.43 174.5 210.08"/><polygon class="cls-19" points="174.71 209.97 169.33 211.08 169.33 211.08 186.41 214.37 174.71 209.97"/><polygon class="cls-19" points="164.16 212.07 169.53 210.97 169.53 210.97 155.13 220.73 164.16 212.07"/><polygon class="cls-19" points="163.96 212.18 169.33 211.08 169.33 211.08 152.25 207.78 163.96 212.18"/><polygon class="cls-19" points="168.22 205.7 169.33 211.08 169.33 211.08 172.62 194 168.22 205.7"/><polygon class="cls-19" points="168.24 205.47 169.35 210.85 169.35 210.85 159.59 196.45 168.24 205.47"/></g><line class="cls-20" x1="165.22" y1="191.06" x2="173.56" y2="231.67"/><line class="cls-20" x1="189.7" y1="206.89" x2="149.1" y2="215.23"/><rect class="cls-7" x="111.62" y="176.97" width="13.93" height="13.93" transform="translate(-100.2 189.34) rotate(-58.61)"/><polygon class="cls-21" points="117.96 183.53 115.2 184.73 118.16 184.81 118.68 183.96 117.96 183.53"/><polygon class="cls-21" points="119.14 183.12 117.94 180.53 117.95 183.55 118.63 183.96 119.14 183.12"/><path class="cls-21" d="M123.71,187.07a.34.34,0,0,0,.11.45.33.33,0,1,0,.35-.57A.34.34,0,0,0,123.71,187.07Z"/><path class="cls-21" d="M121.65,178.4a.33.33,0,1,0,.57.35.33.33,0,0,0-.57-.35Z"/><path class="cls-21" d="M115,189.29a.33.33,0,0,0,.11.46.34.34,0,0,0,.45-.11.33.33,0,1,0-.56-.35Z"/><path class="cls-21" d="M112.93,180.46a.34.34,0,0,0,.11.45.33.33,0,0,0,.46-.11.32.32,0,0,0-.11-.45A.33.33,0,0,0,112.93,180.46Z"/><polygon class="cls-21" points="119.42 184.41 119.58 187.41 118.16 184.81 118.68 183.96 119.42 184.41"/><polygon class="cls-21" points="119.43 184.39 122.23 183.21 119.18 183.09 118.67 183.93 119.43 184.39"/><g class="cls-9"><polygon class="cls-22" points="117.18 183.02 118.75 183.98 118.75 183.98 112.97 183.08 117.18 183.02"/><polygon class="cls-22" points="117.1 183 118.68 183.96 118.68 183.96 115.23 179.24 117.1 183"/><polygon class="cls-22" points="117.74 185.46 118.7 183.89 118.7 183.89 117.8 189.66 117.74 185.46"/><polygon class="cls-22" points="117.72 185.54 118.68 183.96 118.68 183.96 113.95 187.41 117.72 185.54"/><polygon class="cls-22" points="119.62 182.46 118.66 184.04 118.66 184.04 119.56 178.26 119.62 182.46"/><polygon class="cls-22" points="119.64 182.39 118.68 183.96 118.68 183.96 123.4 180.52 119.64 182.39"/><polygon class="cls-22" points="120.25 184.92 118.68 183.96 118.68 183.96 122.12 188.69 120.25 184.92"/><polygon class="cls-22" points="120.3 184.98 118.73 184.02 118.73 184.02 124.5 184.92 120.3 184.98"/></g><line class="cls-23" x1="124.54" y1="187.54" x2="112.65" y2="180.28"/><line class="cls-23" x1="115.04" y1="189.93" x2="122.29" y2="178.04"/><rect class="cls-7" x="104.14" y="117.32" width="21.25" height="21.25" transform="translate(-57.07 124.34) rotate(-46.91)"/><polygon class="cls-24" points="113.96 128.75 114.91 133.25 115.94 128.84 114.84 127.81 113.96 128.75"/><polygon class="cls-24" points="113.72 126.86 109.48 127.85 113.99 128.76 114.82 127.88 113.72 126.86"/><path class="cls-24" d="M121,121.25a.51.51,0,0,0,.72,0,.5.5,0,0,0,0-.71.5.5,0,0,0-.71,0A.52.52,0,0,0,121,121.25Z"/><path class="cls-24" d="M107.45,121.64a.5.5,0,1,0,.69-.73.49.49,0,0,0-.71,0A.5.5,0,0,0,107.45,121.64Z"/><path class="cls-24" d="M121.67,134.9a.51.51,0,0,0,.72,0,.5.5,0,0,0,0-.71.5.5,0,0,0-.71,0A.52.52,0,0,0,121.67,134.9Z"/><path class="cls-24" d="M107.83,135.3a.49.49,0,0,0,.71,0,.51.51,0,0,0-.74-.69A.5.5,0,0,0,107.83,135.3Z"/><polygon class="cls-24" points="115.74 126.85 120.27 127.52 115.94 128.84 114.84 127.81 115.74 126.85"/><polygon class="cls-24" points="115.71 126.82 114.81 122.27 113.68 126.78 114.78 127.81 115.71 126.82"/><g class="cls-9"><polygon class="cls-25" points="112.97 129.76 114.89 127.7 114.89 127.7 111.76 136.06 112.97 129.76"/><polygon class="cls-25" points="112.92 129.86 114.84 127.81 114.84 127.81 106.72 131.49 112.92 129.86"/><polygon class="cls-25" points="116.79 129.68 114.73 127.76 114.73 127.76 123.08 130.89 116.79 129.68"/><polygon class="cls-25" points="116.89 129.73 114.84 127.81 114.84 127.81 118.52 135.93 116.89 129.73"/><polygon class="cls-25" points="112.89 125.94 114.94 127.86 114.94 127.86 106.59 124.73 112.89 125.94"/><polygon class="cls-25" points="112.78 125.89 114.84 127.81 114.84 127.81 111.16 119.69 112.78 125.89"/><polygon class="cls-25" points="116.76 125.75 114.84 127.81 114.84 127.81 122.96 124.13 116.76 125.75"/><polygon class="cls-25" points="116.86 125.69 114.94 127.75 114.94 127.75 118.07 119.4 116.86 125.69"/></g><line class="cls-26" x1="121.99" y1="120.16" x2="107.48" y2="135.68"/><line class="cls-26" x1="122.62" y1="135.09" x2="107.11" y2="120.58"/><rect class="cls-7" x="112.39" y="79.66" width="52.91" height="52.91" transform="translate(-18.9 30.91) rotate(-11.9)"/><polygon class="cls-27" points="138.36 103.34 127.82 98.85 135.34 107.23 139.01 106.46 138.36 103.34"/><polygon class="cls-27" points="142.56 105.54 146.58 95.49 138.27 103.37 138.89 106.31 142.56 105.54"/><path class="cls-27" d="M143.55,128.47a1.26,1.26,0,1,0,1.5,1A1.26,1.26,0,0,0,143.55,128.47Z"/><path class="cls-27" d="M162.14,100.2a1.26,1.26,0,1,0,1.49,1A1.26,1.26,0,0,0,162.14,100.2Z"/><path class="cls-27" d="M114.79,110.28a1.26,1.26,0,1,0,1.5,1A1.26,1.26,0,0,0,114.79,110.28Z"/><path class="cls-27" d="M133.74,81.45a1.26,1.26,0,0,0,.52,2.47,1.26,1.26,0,1,0-.52-2.47Z"/><polygon class="cls-27" points="139.69 109.67 131.84 117.94 135.34 107.23 139.01 106.46 139.69 109.67"/><polygon class="cls-27" points="139.78 109.65 150.35 114.33 142.76 105.58 139.09 106.35 139.78 109.65"/><g class="cls-9"><polygon class="cls-28" points="137.7 99.87 139.15 106.72 139.15 106.72 126.6 88.4 137.7 99.87"/><polygon class="cls-28" points="137.57 99.61 139.01 106.46 139.01 106.46 143.1 84.63 137.57 99.61"/><polygon class="cls-28" points="132.42 107.77 139.27 106.33 139.27 106.33 120.95 118.88 132.42 107.77"/><polygon class="cls-28" points="132.16 107.91 139.01 106.46 139.01 106.46 117.19 102.37 132.16 107.91"/><polygon class="cls-28" points="145.61 105.15 138.75 106.6 138.75 106.6 157.07 94.04 145.61 105.15"/><polygon class="cls-28" points="145.87 105.02 139.01 106.46 139.01 106.46 160.84 110.55 145.87 105.02"/><polygon class="cls-28" points="140.46 113.32 139.01 106.46 139.01 106.46 134.92 128.29 140.46 113.32"/><polygon class="cls-28" points="140.44 113.61 138.99 106.75 138.99 106.75 151.54 125.07 140.44 113.61"/></g><line class="cls-29" x1="144.39" y1="131.98" x2="133.48" y2="80.21"/><line class="cls-29" x1="113.03" y1="111.94" x2="164.81" y2="101.03"/><rect class="cls-7" x="177.26" y="70.86" width="38.66" height="38.66" transform="translate(38.47 237.77) rotate(-67.67)"/><polygon class="cls-30" points="197.43 88.31 192.91 81.27 194.01 89.43 196.55 90.47 197.43 88.31"/><polygon class="cls-30" points="199.07 91.37 205.63 86.95 197.37 88.3 196.54 90.33 199.07 91.37"/><path class="cls-30" d="M190.24,105.63a.92.92,0,1,0,.51,1.21A.93.93,0,0,0,190.24,105.63Z"/><path class="cls-30" d="M213.09,96.2a.92.92,0,0,0-.7,1.7.93.93,0,0,0,1.21-.5A.92.92,0,0,0,213.09,96.2Z"/><path class="cls-30" d="M180.35,82.82a.92.92,0,1,0,.5,1.2A.92.92,0,0,0,180.35,82.82Z"/><path class="cls-30" d="M203.65,73.19a.92.92,0,1,0,.5,1.2A.93.93,0,0,0,203.65,73.19Z"/><polygon class="cls-30" points="195.64 92.69 187.5 94.46 194.01 89.43 196.55 90.47 195.64 92.69"/><polygon class="cls-30" points="195.7 92.71 200.16 99.89 199.17 91.47 196.64 90.43 195.7 92.71"/><g class="cls-9"><polygon class="cls-31" points="198.47 85.95 196.52 90.68 196.52 90.68 196.47 74.45 198.47 85.95"/><polygon class="cls-31" points="198.49 85.73 196.55 90.47 196.55 90.47 207.99 78.96 198.49 85.73"/><polygon class="cls-31" points="192.03 88.55 196.76 90.49 196.76 90.49 180.53 90.55 192.03 88.55"/><polygon class="cls-31" points="191.81 88.53 196.55 90.47 196.55 90.47 185.04 79.02 191.81 88.53"/><polygon class="cls-31" points="201.07 92.39 196.34 90.44 196.34 90.44 212.56 90.39 201.07 92.39"/><polygon class="cls-31" points="201.28 92.41 196.55 90.47 196.55 90.47 208.05 101.91 201.28 92.41"/><polygon class="cls-31" points="194.6 95.21 196.55 90.47 196.55 90.47 185.1 101.97 194.6 95.21"/><polygon class="cls-31" points="194.47 95.37 196.42 90.64 196.42 90.64 196.47 106.86 194.47 95.37"/></g><line class="cls-32" x1="189.31" y1="108.1" x2="204" y2="72.33"/><line class="cls-32" x1="178.6" y1="83.1" x2="214.37" y2="97.79"/><rect class="cls-7" x="210.6" y="12.13" width="54.94" height="54.94" transform="translate(-3.03 28.72) rotate(-6.86)"/><polygon class="cls-33" points="235.16 39.85 229.55 50.34 238.91 43.33 238.45 39.46 235.16 39.85"/><polygon class="cls-33" points="237.82 35.7 227.79 30.63 235.19 39.94 238.28 39.57 237.82 35.7"/><path class="cls-33" d="M261.63,36.77a1.31,1.31,0,0,0,2.6-.32,1.31,1.31,0,0,0-2.6.32Z"/><path class="cls-33" d="M234.09,15a1.3,1.3,0,1,0,2.59-.31,1.3,1.3,0,1,0-2.59.31Z"/><path class="cls-33" d="M240.19,64.86a1.3,1.3,0,1,0,2.59-.31,1.3,1.3,0,1,0-2.59.31Z"/><path class="cls-33" d="M212.1,42.63a1.29,1.29,0,0,0,1.45,1.14,1.31,1.31,0,1,0-1.45-1.14Z"/><polygon class="cls-33" points="241.83 39.05 249.67 47.92 238.91 43.33 238.45 39.46 241.83 39.05"/><polygon class="cls-33" points="241.82 38.95 247.62 28.44 237.87 35.51 238.34 39.37 241.82 38.95"/><g class="cls-9"><polygon class="cls-34" points="231.51 40.21 238.73 39.34 238.73 39.34 218.63 50.66 231.51 40.21"/><polygon class="cls-34" points="231.22 40.33 238.45 39.46 238.45 39.46 216.24 33.23 231.22 40.33"/><polygon class="cls-34" points="239.2 46.4 238.33 39.18 238.33 39.18 249.64 59.27 239.2 46.4"/><polygon class="cls-34" points="239.32 46.68 238.45 39.46 238.45 39.46 232.22 61.66 239.32 46.68"/><polygon class="cls-34" points="237.7 32.52 238.57 39.74 238.57 39.74 227.25 19.64 237.7 32.52"/><polygon class="cls-34" points="237.58 32.24 238.45 39.46 238.45 39.46 244.67 17.25 237.58 32.24"/><polygon class="cls-34" points="245.67 38.59 238.45 39.46 238.45 39.46 260.65 45.68 245.67 38.59"/><polygon class="cls-34" points="245.97 38.64 238.75 39.51 238.75 39.51 258.84 28.19 245.97 38.64"/></g><line class="cls-35" x1="265.34" y1="36.22" x2="210.79" y2="42.79"/><line class="cls-35" x1="241.74" y1="66.83" x2="235.18" y2="12.28"/><rect class="cls-7" x="166.88" y="55.45" width="11.78" height="11.78" transform="translate(2.65 129.7) rotate(-41.44)"/><polygon class="cls-36" points="173.17 61.83 175.7 61.54 173.32 60.74 172.7 61.29 173.17 61.83"/><polygon class="cls-36" points="172.11 61.86 172.44 64.25 173.18 61.81 172.74 61.31 172.11 61.86"/><path class="cls-36" d="M169.4,57.53a.28.28,0,1,0-.37-.42.27.27,0,0,0,0,.39A.28.28,0,0,0,169.4,57.53Z"/><path class="cls-36" d="M168.9,65.05a.28.28,0,1,0-.39,0A.27.27,0,0,0,168.9,65.05Z"/><path class="cls-36" d="M177,57.9a.28.28,0,0,0-.37-.43.28.28,0,0,0,0,.4A.27.27,0,0,0,177,57.9Z"/><path class="cls-36" d="M176.46,65.56a.28.28,0,0,0,0-.4.28.28,0,0,0-.42.38A.28.28,0,0,0,176.46,65.56Z"/><polygon class="cls-36" points="172.21 60.75 172.83 58.28 173.32 60.74 172.7 61.29 172.21 60.75"/><polygon class="cls-36" points="172.2 60.76 169.64 61.01 172.07 61.88 172.7 61.32 172.2 60.76"/><g class="cls-9"><polygon class="cls-37" points="173.68 62.43 172.64 61.26 172.64 61.26 177.09 63.43 173.68 62.43"/><polygon class="cls-37" points="173.73 62.46 172.7 61.29 172.7 61.29 174.3 65.97 173.73 62.46"/><polygon class="cls-37" points="173.83 60.32 172.66 61.35 172.66 61.35 174.83 56.91 173.83 60.32"/><polygon class="cls-37" points="173.87 60.26 172.7 61.29 172.7 61.29 177.38 59.69 173.87 60.26"/><polygon class="cls-37" points="171.56 62.27 172.73 61.24 172.73 61.24 170.56 65.68 171.56 62.27"/><polygon class="cls-37" points="171.53 62.33 172.7 61.29 172.7 61.29 168.02 62.9 171.53 62.33"/><polygon class="cls-37" points="171.66 60.12 172.7 61.29 172.7 61.29 171.09 56.62 171.66 60.12"/><polygon class="cls-37" points="171.64 60.07 172.67 61.23 172.67 61.23 168.23 59.06 171.64 60.07"/></g><line class="cls-38" x1="168.85" y1="56.94" x2="176.65" y2="65.77"/><line class="cls-38" x1="177.13" y1="57.38" x2="168.3" y2="65.18"/><rect class="cls-7" x="106.54" y="19.91" width="29.81" height="29.81" transform="translate(14.85 102.62) rotate(-48.46)"/><polygon class="cls-39" points="122.59 35.91 128.87 34.4 122.65 33.13 121.25 34.71 122.59 35.91"/><polygon class="cls-39" points="119.95 36.32 121.51 42.22 122.62 35.86 121.35 34.74 119.95 36.32"/><path class="cls-39" d="M111.81,26.28a.72.72,0,1,0-1,.06A.72.72,0,0,0,111.81,26.28Z"/><path class="cls-39" d="M112.88,45.31a.71.71,0,0,0-.06-1,.7.7,0,0,0-1,.07.71.71,0,1,0,1.06.94Z"/><path class="cls-39" d="M130.93,24.86a.71.71,0,0,0-.06-1,.69.69,0,0,0-1,.06.7.7,0,0,0,.06,1A.71.71,0,0,0,130.93,24.86Z"/><path class="cls-39" d="M132,44.26a.71.71,0,0,0-.06-1,.72.72,0,0,0-1,.06.71.71,0,0,0,1.07.94Z"/><polygon class="cls-39" points="119.86 33.49 120.64 27.11 122.65 33.13 121.25 34.71 119.86 33.49"/><polygon class="cls-39" points="119.83 33.52 113.47 34.96 119.85 36.37 121.25 34.79 119.83 33.52"/><g class="cls-9"><polygon class="cls-40" points="124.06 37.26 121.1 34.64 121.1 34.64 132.93 38.72 124.06 37.26"/><polygon class="cls-40" points="124.2 37.33 121.25 34.71 121.25 34.71 126.72 45.96 124.2 37.33"/><polygon class="cls-40" points="123.79 31.91 121.18 34.86 121.18 34.86 125.26 23.03 123.79 31.91"/><polygon class="cls-40" points="123.87 31.76 121.25 34.71 121.25 34.71 132.5 29.24 123.87 31.76"/><polygon class="cls-40" points="118.7 37.52 121.32 34.56 121.32 34.56 117.24 46.39 118.7 37.52"/><polygon class="cls-40" points="118.63 37.67 121.25 34.71 121.25 34.71 110 40.19 118.63 37.67"/><polygon class="cls-40" points="118.29 32.09 121.25 34.71 121.25 34.71 115.78 23.46 118.29 32.09"/><polygon class="cls-40" points="118.21 31.96 121.16 34.57 121.16 34.57 109.33 30.5 118.21 31.96"/></g><line class="cls-41" x1="110.25" y1="24.97" x2="132.56" y2="44.74"/><line class="cls-41" x1="131.17" y1="23.52" x2="111.4" y2="45.83"/></g><rect id="frame-2" data-name="frame" class="cls-42" x="1" y="1" width="342" height="234" rx="18"/><g id="earth"><path class="cls-5" d="M49,49.47c-9-1.33-15,6.72-15,15-1.22,9.56,6.73,15,15,15,6.95.24,15-6.73,15-15A15.08,15.08,0,0,0,49,49.47Zm-3.27,23c-.92,0-.6,2.9-.69,3-.77,1.37-1.13-.78-1.19-1.42-.59-.64.3-2.79.11-3.7-.14-.73-1-.9-1.18-1.45-.53-1.45.16-.93-.07-1.4-.12-1.23-3.29-.65-4.15-3.92,0-1.39.35-1,.3-1.64.42-1.28-.28-1.66-.56-2.23-.37,0-.68-.89-1.11-1.07-.06-1.21-.88.19-1.2.09-.07-1.6,1.17-2.25,2-3.23.73-.8.9.92,1.71,1.34,1,.23,1.7-1.39,2.56-1.82.73.6,1.94-.57,2.76-.78.86.2,1.64-.5,2.15-.49.19-1,.93,0,.64.57-.06.4-2.66,1.29-2.71,2.09.55.94,1,1.06,1.2,1.7-.06.11,0,1-.53,1-1-.74-1.15-.75-1.63-.83-.6-1.18-1.64,1.34-1.7,1.6-.15.71.08.79.34.91.87,0,1.2-.5,1.64-.63,1.06,0,1.93,1.16,1.67,1.81a2.16,2.16,0,0,0-1.44.46c0-.18-.45.92-.87,1.23-.63,1.06-1.35.43-1.77,1-1.48.58,2.72,2,3.85,2.4.72.27,0,.84.29,1-.22-.29,1.65.16,1.9.73C47.8,70.52,46.18,71.7,45.68,72.49Zm17.14-7.08c-.55-1.27-.45-.39-.82-.17-1.1,1.11-.46,1.27-1,1.21-1.1.08-.5-.91-.64-1.18a.9.9,0,0,0-.66-.48c-.8-.78-1,.76-1.42,1a.84.84,0,0,1-.65.33c-.07-.59-.43-.79-.94-1,0-.7-.91.25-.76.86a2.22,2.22,0,0,0,.86,1.69c1-.09-.6,2.89-1,3.59-.88.1-.5.94-.82,1.18-.32-.43-.53.46-.94.09a12.65,12.65,0,0,1-.72-1.91c-.16.55-.15-.62-.23-1.79,0,.18.26-1-.49-1-.46-.78-.48.11-.71.15,0-.07-.48.12-.68.08.43.07-.91-.71-1-.91-.39-.72-.1-.69,0-1-.34-.9.47-.53.64-.79.66-1.06.22-.52.4-.69.1.11.3-.06.6-.12.8-.18.72-.43,1-.33.51.33.22.08.29.45,0-.19.57.66,1,.47,1-.65.57-.32.85-.43,2.59-.67.25-3.67-.79-2.61-.83-.26.77.84.36,1.38.18.65-1.48-.88-1.6-.88-1.09-.39-.9,1-1.31,1-1,.66-.73-.57-.73-.77-.25.48.27-.32.81-.63.58.55-.47-.54-.32-.69,0-.81,1.14-.49,1.69-.65,1.06-.23.8.08,1.17,0-.08-.77,0-.52.62-1.13.6-1.37-.39-1.2-.75-1.17-1.17.85-.78,1.47-1.45,1.32-.82.39-.25-2.87,1.54-2.74.12-.14,1.47,1.12,1.74.86-.3-.45,0-.92.15-1.31-.22-.52.78-1.27,1-.88.19.94-.22,2,.29,2,.91.26.69-.82.94-1.1a.54.54,0,0,0,.68,0c.1-1,.44-1.08.62-1.7,2.12,2.87,3.49,5.75,3.49,9.32-.49.21,0,1-.07,1.43C62.71,65.6,62.84,65.46,62.82,65.41Z"/></g><g id="earth-2" data-name="earth"><path d="M48.29,48.8c-9-1.33-15,6.73-15,15-1.22,9.57,6.72,15,15,15,7,.25,15-6.72,15-15A15.1,15.1,0,0,0,48.29,48.8ZM45,71.83c-.92,0-.61,2.89-.7,3-.76,1.37-1.13-.78-1.18-1.42-.6-.65.3-2.8.11-3.71-.14-.72-1-.89-1.18-1.45-.54-1.45.15-.92-.07-1.4-.13-1.23-3.29-.65-4.15-3.91,0-1.39.34-1,.3-1.64.42-1.29-.28-1.66-.57-2.23-.36,0-.67-.89-1.1-1.07-.06-1.22-.89.19-1.21.09-.07-1.61,1.18-2.26,2-3.24.73-.8.9.93,1.71,1.35,1,.23,1.69-1.4,2.55-1.83.74.61,2-.57,2.77-.78.86.2,1.64-.5,2.15-.48.18-1,.93,0,.64.56-.07.4-2.67,1.29-2.71,2.1.55.93,1,1.05,1.2,1.7-.07.1,0,1-.54,1-1-.74-1.14-.76-1.62-.84-.6-1.17-1.64,1.34-1.7,1.6-.15.72.07.8.34.91.87,0,1.2-.49,1.64-.62,1.06,0,1.92,1.15,1.67,1.81-.24-.13-1,.13-1.45.45,0-.17-.45.93-.86,1.24-.63,1.06-1.35.43-1.78,1-1.48.57,2.72,2,3.86,2.39.72.28,0,.84.28,1-.21-.29,1.66.16,1.91.72C47.14,69.86,45.52,71,45,71.83Zm17.14-7.08c-.55-1.27-.45-.4-.82-.17-1.11,1.11-.46,1.27-1,1.2-1.1.08-.5-.9-.64-1.17a.93.93,0,0,0-.66-.49c-.8-.78-1,.76-1.42,1a.86.86,0,0,1-.65.34c-.07-.59-.43-.8-.95-1,0-.7-.91.25-.75.85a2.24,2.24,0,0,0,.85,1.7c1-.1-.6,2.88-1,3.59-.87.1-.5.94-.82,1.17-.31-.42-.52.47-.93.1A12.75,12.75,0,0,1,52.66,70c-.15.54-.15-.63-.22-1.8,0,.18.26-1-.49-1-.47-.77-.48.12-.71.16,0-.08-.49.12-.68.08.43.06-.91-.72-1-.91-.39-.72-.1-.69,0-1-.33-.89.47-.53.65-.79.66-1.06.21-.52.39-.68.1.11.3-.06.61-.13.79-.18.72-.42,1-.32.52.32.23.08.29.44,0-.18.58.67,1,.47,1-.64.57-.31.85-.43,2.59-.67.25-3.67-.79-2.61-.84-.25.76.84.35,1.39.19.65-1.47-.89-1.59-.88-1.09-.4-.9,1-1.31,1-1,.67-.73-.56-.73-.76-.25.48.27-.33.8-.63.59.54-.46-.55-.31-.69,0-.82,1.13-.49,1.69-.66,1.06-.23.79.08,1.16,0-.07-.76,0-.52.63-1.13.6-1.36-.4-1.2-.76-1.17-1.16.86-.77,1.48-1.45,1.33-.81.39-.24-2.87,1.54-2.75.13-.14,1.48,1.13,1.75.87-.3-.45,0-.93.14-1.31-.21-.53.79-1.28,1-.89.18,1-.22,2,.29,2,.91.27.69-.82.93-1.09a.55.55,0,0,0,.68,0c.1-1,.45-1.09.63-1.7,2.12,2.87,3.48,5.75,3.48,9.31-.48.22,0,1-.07,1.43C62.05,64.93,62.18,64.8,62.16,64.75Z"/></g></g></g></g></g></svg>