<svg xmlns="http://www.w3.org/2000/svg" xmlns:xlink="http://www.w3.org/1999/xlink" viewBox="0 0 344 236"><defs><style>.cls-1,.cls-6{stroke:#000;stroke-miterlimit:10;stroke-width:2px;}.cls-1{fill:url(#radial-gradient);}.cls-2{fill:#fff;}.cls-3{fill:#231f20;}.cls-4{fill:url(#radial-gradient-2);}.cls-5{opacity:0.14;}.cls-6{fill:none;}</style><radialGradient id="radial-gradient" cx="172" cy="118" r="146.51" gradientTransform="translate(0 -11.8) scale(1 1.1)" gradientUnits="userSpaceOnUse"><stop offset="0" stop-color="#4500e9"/><stop offset="0" stop-color="#6a22c7"/><stop offset="0" stop-color="#9f5297"/><stop offset="0" stop-color="#c87871"/><stop offset="0" stop-color="#e69356"/><stop offset="0" stop-color="#f8a445"/><stop offset="0" stop-color="#ffaa3f"/><stop offset="0.12" stop-color="#fda842"/><stop offset="0.2" stop-color="#f8a24b"/><stop offset="0.26" stop-color="#ee985a"/><stop offset="0.32" stop-color="#e18a6f"/><stop offset="0.38" stop-color="#d0788a"/><stop offset="0.43" stop-color="#bb61ac"/><stop offset="0.48" stop-color="#a247d4"/><stop offset="0.52" stop-color="#872aff"/><stop offset="0.79" stop-color="#611fb8"/><stop offset="1" stop-color="#42157d"/></radialGradient><radialGradient id="radial-gradient-2" cx="266.66" cy="108.11" r="13.79" gradientTransform="translate(131.61 -133.96) rotate(45) scale(1 0.7)" gradientUnits="userSpaceOnUse"><stop offset="0" stop-color="#4500e9"/><stop offset="0" stop-color="#6a22c7"/><stop offset="0" stop-color="#9f5297"/><stop offset="0" stop-color="#c87871"/><stop offset="0" stop-color="#e69356"/><stop offset="0" stop-color="#f8a445"/><stop offset="0" stop-color="#ffaa3f"/><stop offset="0.23" stop-color="#fca840"/><stop offset="0.38" stop-color="#f3a143"/><stop offset="0.5" stop-color="#e49548"/><stop offset="0.62" stop-color="#cf844f"/><stop offset="0.72" stop-color="#b46f58"/><stop offset="0.83" stop-color="#925463"/><stop offset="0.92" stop-color="#6a3570"/><stop offset="1" stop-color="#42157d"/></radialGradient></defs><g id="Layer_2" data-name="Layer 2"><g id="blue"><g id="theatre_production" data-name="theatre production"><g id="theatre"><rect id="frame" class="cls-1" x="1" y="1" width="342" height="234" rx="18"/><g id="_2nd_face_with_right_eyes" data-name="2nd face with right eyes"><path d="M67.28,142.4a6.94,6.94,0,0,0-.46-.8,7.49,7.49,0,0,0-.68-.7s-.11,0-.17,0a.52.52,0,0,0,0,.18s.07.07.11.1a.31.31,0,0,1,.11.38,5.36,5.36,0,1,1-8-6.13,4.88,4.88,0,0,1,2.16-.82.21.21,0,0,1,.18,0c.08.12.15.1.25,0a6.58,6.58,0,0,1,.74-.4c.57-.23,1.16-.43,1.73-.66.06,0,.1-.11.14-.16s-.14-.07-.2,0l-1.66.61a3,3,0,0,1-.77.29,5.48,5.48,0,0,0-4.67,3.17,5.59,5.59,0,0,0,10,5c.15-.29.26-.59.4-.91a.45.45,0,0,1,.11.14l.5.82c0,.05.11.06.17.08S67.3,142.45,67.28,142.4Z"/><path d="M70.14,138.1c0-.06.07-.11,0-.13a.29.29,0,0,0-.1-.12l-.75-.33a9.77,9.77,0,0,0-3.82-1.05c-.6,0-1.2,0-1.8,0,0,0-.1.08-.16.12a.87.87,0,0,0,.18.11,1.18,1.18,0,0,0,.26,0,9.13,9.13,0,0,1,3.56.38c.8.28,1.57.64,2.36,1Z"/><path d="M62,134.82A.85.85,0,0,0,62,135l.24,0c.42,0,.83-.1,1.24-.11.86,0,1.72,0,2.57,0a13.61,13.61,0,0,1,1.4.23c.06,0,.13-.06.2-.08s-.1-.13-.16-.14a16.06,16.06,0,0,0-1.69-.27,20.74,20.74,0,0,0-3.61.16S62.05,134.8,62,134.82Z"/><path d="M69.9,140.65l.06-.05a.54.54,0,0,0-.07-.19c-.13-.12-.28-.22-.42-.33a7.36,7.36,0,0,0-3.74-1.69l-.61-.08c-.05,0-.1.06-.16.1s.08.1.12.12l.28,0a6.63,6.63,0,0,1,3.07,1.05c.43.3.85.62,1.28.93A.85.85,0,0,0,69.9,140.65Z"/><path d="M56.75,139.58a3.63,3.63,0,0,1,1.62.68,5.39,5.39,0,0,1,1.51,1.5c.19.32.37.65.58,1,0,0,.08,0,.11,0a.17.17,0,0,0,0-.15,2.21,2.21,0,0,0-.12-.27,5.61,5.61,0,0,0-2.65-2.7,5.19,5.19,0,0,0-1.18-.35c-.05,0-.11,0-.17.07a.55.55,0,0,0,.12.14A.18.18,0,0,0,56.75,139.58Z"/><path d="M68.51,141.88c-.13-.17-.28-.32-.42-.49a5,5,0,0,0-2.24-1.62c-.1,0-.3-.05-.31,0-.07.2.13.19.22.23a4.14,4.14,0,0,1,1.45.85c.38.38.74.78,1.1,1.16a1.07,1.07,0,0,0,.19.13l.07,0A.59.59,0,0,0,68.51,141.88Z"/><path d="M67.35,136.28a.28.28,0,0,0-.17-.1L63.91,136c-.09,0-.21,0-.19.13s.13.09.2.1l3.23.17h.17S67.36,136.3,67.35,136.28Z"/><path d="M61.41,134.74c.06,0,.15.08.19,0a11.44,11.44,0,0,1,2.75-.87s.08-.09.12-.13-.12-.09-.17-.08a10,10,0,0,0-2.85.92Z"/><path d="M67.5,137.76c0-.06-.07-.14-.13-.17a8.07,8.07,0,0,0-2.06-.57c-.23,0-.46-.09-.7-.12,0,0-.11,0-.16.06s0,.08,0,.13l.21,0a11.35,11.35,0,0,1,2.64.66S67.44,137.78,67.5,137.76Z"/><path d="M68.14,140.73v-.15l-.13-.14A5.93,5.93,0,0,0,65.75,139c-.06,0-.15,0-.23,0s.09.15.16.18A6.12,6.12,0,0,1,68,140.68S68.08,140.72,68.14,140.73Z"/><path d="M66.13,138a4.77,4.77,0,0,1,1.7.5,1.11,1.11,0,0,0,.22.07c.11-.09.07-.18-.07-.26a5.94,5.94,0,0,0-2.65-.6c-.06,0-.12.07-.18.1s.11.12.17.13Z"/><path d="M65.53,135.45a8.6,8.6,0,0,0-2.53-.18s-.09.09-.13.14l0,.06.18,0a9.27,9.27,0,0,1,2.41.18s.1,0,.16-.08S65.58,135.47,65.53,135.45Z"/><path d="M66,140.72a3.05,3.05,0,0,1,1,.72,1.37,1.37,0,0,0,.22.2.18.18,0,0,0,.16,0s.08-.1.12-.15H67.4a3.48,3.48,0,0,0-1.31-1c-.07,0-.16,0-.24,0S65.94,140.69,66,140.72Z"/><path class="cls-2" d="M65.85,140.55c.08,0,.17-.06.24,0a3.48,3.48,0,0,1,1.31,1h.12c0,.05-.07.12-.12.15a.18.18,0,0,1-.16,0,1.37,1.37,0,0,1-.22-.2,3.05,3.05,0,0,0-1-.72C65.94,140.69,65.9,140.61,65.85,140.55Z"/><path class="cls-2" d="M65.33,137.75a5.94,5.94,0,0,1,2.65.6c.14.08.18.17.07.26a1.11,1.11,0,0,1-.22-.07,4.77,4.77,0,0,0-1.7-.5l-.81-.06c-.06,0-.12-.08-.17-.13S65.27,137.75,65.33,137.75Z"/><path class="cls-2" d="M64.67,137.14l-.21,0c0-.05,0-.11,0-.13s.11-.07.16-.06c.24,0,.47.08.7.12a8.07,8.07,0,0,1,2.06.57c.06,0,.09.11.13.17s-.14.07-.19,0A11.35,11.35,0,0,0,64.67,137.14Z"/><path class="cls-2" d="M67.56,137.07a9.13,9.13,0,0,0-3.56-.38,1.18,1.18,0,0,1-.26,0,.87.87,0,0,1-.18-.11c.06,0,.11-.11.16-.12.6,0,1.2,0,1.8,0a9.77,9.77,0,0,1,3.82,1.05l.75.33a.29.29,0,0,1,.1.12s0,.07,0,.13l-.22-.07C69.13,137.71,68.36,137.35,67.56,137.07Z"/><path class="cls-2" d="M67.15,136.4l-3.23-.17c-.07,0-.19-.06-.2-.1s.1-.13.19-.13l3.27.18a.28.28,0,0,1,.17.1s0,.08,0,.12Z"/><path class="cls-2" d="M65.5,135.67a9.27,9.27,0,0,0-2.41-.18l-.18,0,0-.06s.09-.14.13-.14a8.6,8.6,0,0,1,2.53.18s.09.09.13.14S65.54,135.68,65.5,135.67Z"/><path class="cls-2" d="M56.67,139.34a5.19,5.19,0,0,1,1.18.35,5.61,5.61,0,0,1,2.65,2.7,2.21,2.21,0,0,1,.12.27.17.17,0,0,1,0,.15s-.1,0-.11,0c-.21-.38-.39-.71-.58-1a5.39,5.39,0,0,0-1.51-1.5,3.63,3.63,0,0,0-1.62-.68.18.18,0,0,1-.13,0,.55.55,0,0,1-.12-.14C56.56,139.38,56.62,139.32,56.67,139.34Z"/><path class="cls-2" d="M65.68,139.2c-.07,0-.11-.12-.16-.18s.17-.05.23,0A5.93,5.93,0,0,1,68,140.44l.13.14v.15c-.06,0-.15,0-.19,0A6.12,6.12,0,0,0,65.68,139.2Z"/><path class="cls-2" d="M68.43,139.62a6.63,6.63,0,0,0-3.07-1.05l-.28,0s-.08-.08-.12-.12.11-.1.16-.1l.61.08a7.36,7.36,0,0,1,3.74,1.69c.14.11.29.21.42.33a.54.54,0,0,1,.07.19l-.06.05a.85.85,0,0,1-.19-.1C69.28,140.24,68.86,139.92,68.43,139.62Z"/><path class="cls-2" d="M67.44,134.91c.06,0,.11.09.16.14s-.14.09-.2.08a13.61,13.61,0,0,0-1.4-.23c-.85,0-1.71,0-2.57,0-.41,0-.82.07-1.24.11L62,135a.85.85,0,0,1,.09-.19s.06,0,.1,0a20.74,20.74,0,0,1,3.61-.16A16.06,16.06,0,0,1,67.44,134.91Z"/><path class="cls-2" d="M64.47,133.79s-.08.13-.12.13a11.44,11.44,0,0,0-2.75.87s-.13,0-.19,0l0-.11a10,10,0,0,1,2.85-.92S64.41,133.76,64.47,133.79Z"/><path class="cls-2" d="M67.09,142.5l-.5-.82a.45.45,0,0,0-.11-.14c-.14.32-.25.62-.4.91a5.59,5.59,0,0,1-10-5,5.48,5.48,0,0,1,4.67-3.17,3,3,0,0,0,.77-.29l1.66-.61c.06,0,.13,0,.2,0s-.08.14-.14.16c-.57.23-1.16.43-1.73.66a6.58,6.58,0,0,0-.74.4c-.1.06-.17.08-.25,0a.21.21,0,0,0-.18,0,4.88,4.88,0,0,0-2.16.82,5.36,5.36,0,1,0,8,6.13.31.31,0,0,0-.11-.38s-.1-.06-.11-.1a.52.52,0,0,1,0-.18c.06,0,.14,0,.17,0a7.49,7.49,0,0,1,.68.7,6.94,6.94,0,0,1,.46.8s0,.12,0,.18S67.12,142.55,67.09,142.5Z"/><path class="cls-2" d="M68.31,142c-.36-.38-.72-.78-1.1-1.16a4.14,4.14,0,0,0-1.45-.85c-.09,0-.29,0-.22-.23,0,0,.21,0,.31,0a5,5,0,0,1,2.24,1.62c.14.17.29.32.42.49a.59.59,0,0,1,.06.2l-.07,0A1.07,1.07,0,0,1,68.31,142Z"/><path class="cls-2" d="M67.28,142.4a6.94,6.94,0,0,0-.46-.8,7.49,7.49,0,0,0-.68-.7s-.11,0-.17,0a.52.52,0,0,0,0,.18s.07.07.11.1a.31.31,0,0,1,.11.38,5.36,5.36,0,1,1-8-6.13,4.88,4.88,0,0,1,2.16-.82.21.21,0,0,1,.18,0c.08.12.15.1.25,0a6.58,6.58,0,0,1,.74-.4c.57-.23,1.16-.43,1.73-.66.06,0,.1-.11.14-.16s-.14-.07-.2,0l-1.66.61a3,3,0,0,1-.77.29,5.48,5.48,0,0,0-4.67,3.17,5.59,5.59,0,0,0,10,5c.15-.29.26-.59.4-.91a.45.45,0,0,1,.11.14l.5.82c0,.05.11.06.17.08S67.3,142.45,67.28,142.4Z"/><path class="cls-2" d="M70.14,138.1c0-.06.07-.11,0-.13a.29.29,0,0,0-.1-.12l-.75-.33a9.77,9.77,0,0,0-3.82-1.05c-.6,0-1.2,0-1.8,0,0,0-.1.08-.16.12a.87.87,0,0,0,.18.11,1.18,1.18,0,0,0,.26,0,9.13,9.13,0,0,1,3.56.38c.8.28,1.57.64,2.36,1Z"/><path class="cls-2" d="M62,134.82A.85.85,0,0,0,62,135l.24,0c.42,0,.83-.1,1.24-.11.86,0,1.72,0,2.57,0a13.61,13.61,0,0,1,1.4.23c.06,0,.13-.06.2-.08s-.1-.13-.16-.14a16.06,16.06,0,0,0-1.69-.27,20.74,20.74,0,0,0-3.61.16S62.05,134.8,62,134.82Z"/><path class="cls-2" d="M69.9,140.65l.06-.05a.54.54,0,0,0-.07-.19c-.13-.12-.28-.22-.42-.33a7.36,7.36,0,0,0-3.74-1.69l-.61-.08c-.05,0-.1.06-.16.1s.08.1.12.12l.28,0a6.63,6.63,0,0,1,3.07,1.05c.43.3.85.62,1.28.93A.85.85,0,0,0,69.9,140.65Z"/><path class="cls-2" d="M56.75,139.58a3.63,3.63,0,0,1,1.62.68,5.39,5.39,0,0,1,1.51,1.5c.19.32.37.65.58,1,0,0,.08,0,.11,0a.17.17,0,0,0,0-.15,2.21,2.21,0,0,0-.12-.27,5.61,5.61,0,0,0-2.65-2.7,5.19,5.19,0,0,0-1.18-.35c-.05,0-.11,0-.17.07a.55.55,0,0,0,.12.14A.18.18,0,0,0,56.75,139.58Z"/><path class="cls-2" d="M68.51,141.88c-.13-.17-.28-.32-.42-.49a5,5,0,0,0-2.24-1.62c-.1,0-.3-.05-.31,0-.07.2.13.19.22.23a4.14,4.14,0,0,1,1.45.85c.38.38.74.78,1.1,1.16a1.07,1.07,0,0,0,.19.13l.07,0A.59.59,0,0,0,68.51,141.88Z"/><path class="cls-2" d="M67.35,136.28a.28.28,0,0,0-.17-.1L63.91,136c-.09,0-.21,0-.19.13s.13.09.2.1l3.23.17h.17S67.36,136.3,67.35,136.28Z"/><path class="cls-2" d="M61.41,134.74c.06,0,.15.08.19,0a11.44,11.44,0,0,1,2.75-.87s.08-.09.12-.13-.12-.09-.17-.08a10,10,0,0,0-2.85.92Z"/><path class="cls-2" d="M67.5,137.76c0-.06-.07-.14-.13-.17a8.07,8.07,0,0,0-2.06-.57c-.23,0-.46-.09-.7-.12,0,0-.11,0-.16.06s0,.08,0,.13l.21,0a11.35,11.35,0,0,1,2.64.66S67.44,137.78,67.5,137.76Z"/><path class="cls-2" d="M68.14,140.73v-.15l-.13-.14A5.93,5.93,0,0,0,65.75,139c-.06,0-.15,0-.23,0s.09.15.16.18A6.12,6.12,0,0,1,68,140.68S68.08,140.72,68.14,140.73Z"/><path class="cls-2" d="M66.13,138a4.77,4.77,0,0,1,1.7.5,1.11,1.11,0,0,0,.22.07c.11-.09.07-.18-.07-.26a5.94,5.94,0,0,0-2.65-.6c-.06,0-.12.07-.18.1s.11.12.17.13Z"/><path class="cls-2" d="M65.53,135.45a8.6,8.6,0,0,0-2.53-.18s-.09.09-.13.14l0,.06.18,0a9.27,9.27,0,0,1,2.41.18s.1,0,.16-.08S65.58,135.47,65.53,135.45Z"/><path class="cls-2" d="M66,140.72a3.05,3.05,0,0,1,1,.72,1.37,1.37,0,0,0,.22.2.18.18,0,0,0,.16,0s.08-.1.12-.15H67.4a3.48,3.48,0,0,0-1.31-1c-.07,0-.16,0-.24,0S65.94,140.69,66,140.72Z"/><path d="M66.4,142.26a6.3,6.3,0,0,0-.45-.8,9,9,0,0,0-.68-.7s-.11,0-.17,0a1,1,0,0,0,0,.18.36.36,0,0,0,.11.1.31.31,0,0,1,.11.39,5.36,5.36,0,1,1-8-6.14,5,5,0,0,1,2.16-.82.21.21,0,0,1,.18,0c.07.12.15.1.25,0a7.43,7.43,0,0,1,.73-.4l1.74-.66c.06,0,.09-.11.14-.16s-.15-.07-.2-.05l-1.67.61a2.89,2.89,0,0,1-.77.29,5.45,5.45,0,0,0-4.66,3.18,5.58,5.58,0,0,0,10,5c.14-.29.26-.59.4-.91a1.34,1.34,0,0,1,.11.14c.17.27.33.55.5.83,0,0,.11,0,.17.08S66.43,142.31,66.4,142.26Z"/><path d="M69.27,138c0-.06.06-.1,0-.13a.2.2,0,0,0-.11-.11l-.74-.34a9.82,9.82,0,0,0-3.82-1c-.6,0-1.2,0-1.8,0-.05,0-.11.07-.16.11s.11.1.18.11a2.09,2.09,0,0,0,.25,0,9,9,0,0,1,3.57.37c.8.28,1.57.64,2.36,1Z"/><path d="M61.16,134.69a.62.62,0,0,0-.08.18l.24,0c.41,0,.83-.1,1.24-.11.85,0,1.71-.05,2.57,0a13.42,13.42,0,0,1,1.39.23c.07,0,.14-.05.21-.08s-.1-.13-.16-.14a16.06,16.06,0,0,0-1.69-.27,20.9,20.9,0,0,0-3.62.16S61.18,134.66,61.16,134.69Z"/><path d="M69,140.51l.07,0c0-.06,0-.15-.08-.19s-.27-.22-.41-.33a7.36,7.36,0,0,0-3.74-1.69l-.61-.08s-.11.07-.16.1.07.1.12.12a1.26,1.26,0,0,0,.27,0,6.49,6.49,0,0,1,3.07,1.06c.44.29.85.61,1.28.92Z"/><path d="M55.87,139.44a3.62,3.62,0,0,1,1.63.68,5.36,5.36,0,0,1,1.5,1.5c.2.32.37.66.58,1,0,0,.08,0,.12,0a.16.16,0,0,0,0-.15c0-.09-.09-.18-.13-.27a5.63,5.63,0,0,0-2.64-2.7,5.84,5.84,0,0,0-1.19-.35s-.11.05-.16.07a.55.55,0,0,0,.12.14A.17.17,0,0,0,55.87,139.44Z"/><path d="M67.64,141.74c-.14-.17-.29-.32-.42-.49A5,5,0,0,0,65,139.63a.7.7,0,0,0-.31,0c-.07.2.12.19.22.23a4.33,4.33,0,0,1,1.45.85c.38.38.73.78,1.1,1.16a.64.64,0,0,0,.19.13l.06,0A1,1,0,0,0,67.64,141.74Z"/><path d="M66.47,136.14s-.1-.1-.16-.1L63,135.86c-.09,0-.22,0-.19.13s.12.09.19.1l3.23.18h.18S66.49,136.16,66.47,136.14Z"/><path d="M60.54,134.6c.06,0,.14.08.19.06a10.61,10.61,0,0,1,2.75-.87s.07-.09.11-.14-.12-.09-.17-.08a10.09,10.09,0,0,0-2.85.92Z"/><path d="M66.63,137.63c0-.06-.07-.15-.13-.18a8.76,8.76,0,0,0-2.06-.57l-.7-.12a.25.25,0,0,0-.16.06s0,.08,0,.13l.22.05a11.61,11.61,0,0,1,2.64.66S66.57,137.64,66.63,137.63Z"/><path d="M67.27,140.59v-.15l-.12-.14a5.93,5.93,0,0,0-2.27-1.45c-.07,0-.15,0-.23,0s.09.15.15.18a6,6,0,0,1,2.27,1.48S67.2,140.58,67.27,140.59Z"/><path d="M65.26,137.9a4.83,4.83,0,0,1,1.7.5,1,1,0,0,0,.21.07c.12-.09.08-.18-.06-.26a5.81,5.81,0,0,0-2.66-.59c-.06,0-.12.06-.18.09s.12.12.18.13Z"/><path d="M64.66,135.31a8.27,8.27,0,0,0-2.53-.17c-.05,0-.09.08-.13.13l0,.07.18,0a8.81,8.81,0,0,1,2.4.17s.11-.05.16-.08S64.71,135.33,64.66,135.31Z"/><path d="M65.12,140.58a3.24,3.24,0,0,1,1,.72,1.37,1.37,0,0,0,.22.2.18.18,0,0,0,.16,0s.08-.1.12-.15h-.12a3.51,3.51,0,0,0-1.32-1c-.06,0-.15,0-.23,0S65.06,140.55,65.12,140.58Z"/><path class="cls-3" d="M63,142.54l-.32.17c-.15.09-.22,0-.24-.12a2.82,2.82,0,0,0-1.36-2.1c-.3-.21-.31-.21,0-.45a1.59,1.59,0,1,1,2,2.5Z"/><path class="cls-3" d="M65,140.41c.08,0,.17,0,.23,0a3.51,3.51,0,0,1,1.32,1h.12s-.07.12-.12.15a.18.18,0,0,1-.16,0,1.37,1.37,0,0,1-.22-.2,3.24,3.24,0,0,0-1-.72C65.06,140.55,65,140.47,65,140.41Z"/><path class="cls-3" d="M64.45,137.62a5.81,5.81,0,0,1,2.66.59c.14.08.18.17.06.26a1,1,0,0,1-.21-.07,4.83,4.83,0,0,0-1.7-.5l-.81-.06c-.06,0-.12-.08-.18-.13S64.39,137.61,64.45,137.62Z"/><path class="cls-3" d="M63.8,137l-.22-.05s0-.11,0-.13a.25.25,0,0,1,.16-.06l.7.12a8.76,8.76,0,0,1,2.06.57c.06,0,.09.12.13.18s-.15.06-.19,0A11.61,11.61,0,0,0,63.8,137Z"/><path class="cls-3" d="M66.69,136.93a9,9,0,0,0-3.57-.37,2.09,2.09,0,0,1-.25,0c-.07,0-.12-.07-.18-.11s.11-.11.16-.11c.6,0,1.2,0,1.8,0a9.82,9.82,0,0,1,3.82,1l.74.34a.2.2,0,0,1,.11.11s0,.07,0,.13l-.22-.07C68.26,137.57,67.49,137.21,66.69,136.93Z"/><path class="cls-3" d="M66.27,136.27,63,136.09c-.07,0-.18-.06-.19-.1s.1-.13.19-.13l3.27.18c.06,0,.12.06.16.1s0,.08,0,.12Z"/><path class="cls-3" d="M64.62,135.53a8.81,8.81,0,0,0-2.4-.17l-.18,0,0-.07c0-.05.08-.13.13-.13a8.27,8.27,0,0,1,2.53.17s.08.09.12.14S64.66,135.55,64.62,135.53Z"/><path class="cls-3" d="M61,137a1.69,1.69,0,0,1-.73,1.82l-.13.08c-.19.11-.23.1-.29-.12a2.86,2.86,0,0,0-1.6-2c-.14-.06-.17-.14,0-.25a1.66,1.66,0,0,0,.13-.14l.18-.13A1.59,1.59,0,0,1,61,137Z"/><path class="cls-3" d="M55.79,139.2a5.84,5.84,0,0,1,1.19.35,5.63,5.63,0,0,1,2.64,2.7c0,.09.1.18.13.27a.16.16,0,0,1,0,.15s-.11,0-.12,0c-.21-.37-.38-.71-.58-1a5.36,5.36,0,0,0-1.5-1.5,3.62,3.62,0,0,0-1.63-.68.17.17,0,0,1-.12,0,.55.55,0,0,1-.12-.14S55.75,139.18,55.79,139.2Z"/><path class="cls-3" d="M64.8,139.06c-.06,0-.1-.12-.15-.18s.16,0,.23,0a5.93,5.93,0,0,1,2.27,1.45l.12.14v.15c-.07,0-.16,0-.2-.05A6,6,0,0,0,64.8,139.06Z"/><path class="cls-3" d="M67.55,139.49a6.49,6.49,0,0,0-3.07-1.06,1.26,1.26,0,0,1-.27,0s-.08-.08-.12-.12.11-.1.16-.1l.61.08a7.36,7.36,0,0,1,3.74,1.69c.14.11.28.21.41.33s.06.13.08.19l-.07,0-.19-.1C68.4,140.1,68,139.78,67.55,139.49Z"/><path class="cls-3" d="M66.57,134.77c.06,0,.11.09.16.14s-.14.09-.21.08a13.42,13.42,0,0,0-1.39-.23c-.86,0-1.72,0-2.57,0-.41,0-.83.07-1.24.11l-.24,0a.62.62,0,0,1,.08-.18s.07,0,.1,0a20.9,20.9,0,0,1,3.62-.16A16.06,16.06,0,0,1,66.57,134.77Z"/><path class="cls-3" d="M63.59,133.65s-.07.13-.11.14a10.61,10.61,0,0,0-2.75.87s-.13,0-.19-.06l0-.11a10.09,10.09,0,0,1,2.85-.92S63.54,133.62,63.59,133.65Z"/><path class="cls-3" d="M66.22,142.37c-.17-.28-.33-.56-.5-.83a1.34,1.34,0,0,0-.11-.14c-.14.32-.26.62-.4.91a5.58,5.58,0,0,1-10-5,5.45,5.45,0,0,1,4.66-3.18,2.89,2.89,0,0,0,.77-.29l1.67-.61s.13,0,.2.05-.08.14-.14.16l-1.74.66a7.43,7.43,0,0,0-.73.4c-.1.06-.18.08-.25,0a.21.21,0,0,0-.18,0,5,5,0,0,0-2.16.82,5.36,5.36,0,1,0,8,6.14.31.31,0,0,0-.11-.39.36.36,0,0,1-.11-.1,1,1,0,0,1,0-.18c.06,0,.13,0,.17,0a9,9,0,0,1,.68.7,6.3,6.3,0,0,1,.45.8c0,.05,0,.12,0,.19S66.25,142.41,66.22,142.37Z"/><path class="cls-3" d="M67.44,141.85c-.37-.38-.72-.78-1.1-1.16a4.33,4.33,0,0,0-1.45-.85c-.1,0-.29,0-.22-.23a.7.7,0,0,1,.31,0,5,5,0,0,1,2.24,1.62c.13.17.28.32.42.49a1,1,0,0,1,0,.2l-.06,0A.64.64,0,0,1,67.44,141.85Z"/><path class="cls-3" d="M66.4,142.26a6.3,6.3,0,0,0-.45-.8,9,9,0,0,0-.68-.7s-.11,0-.17,0a1,1,0,0,0,0,.18.36.36,0,0,0,.11.1.31.31,0,0,1,.11.39,5.36,5.36,0,1,1-8-6.14,5,5,0,0,1,2.16-.82.21.21,0,0,1,.18,0c.07.12.15.1.25,0a7.43,7.43,0,0,1,.73-.4l1.74-.66c.06,0,.09-.11.14-.16s-.15-.07-.2-.05l-1.67.61a2.89,2.89,0,0,1-.77.29,5.45,5.45,0,0,0-4.66,3.18,5.58,5.58,0,0,0,10,5c.14-.29.26-.59.4-.91a1.34,1.34,0,0,1,.11.14c.17.27.33.55.5.83,0,0,.11,0,.17.08S66.43,142.31,66.4,142.26Z"/><path class="cls-3" d="M69.27,138c0-.06.06-.1,0-.13a.2.2,0,0,0-.11-.11l-.74-.34a9.82,9.82,0,0,0-3.82-1c-.6,0-1.2,0-1.8,0-.05,0-.11.07-.16.11s.11.1.18.11a2.09,2.09,0,0,0,.25,0,9,9,0,0,1,3.57.37c.8.28,1.57.64,2.36,1Z"/><path class="cls-3" d="M61.16,134.69a.62.62,0,0,0-.08.18l.24,0c.41,0,.83-.1,1.24-.11.85,0,1.71-.05,2.57,0a13.42,13.42,0,0,1,1.39.23c.07,0,.14-.05.21-.08s-.1-.13-.16-.14a16.06,16.06,0,0,0-1.69-.27,20.9,20.9,0,0,0-3.62.16S61.18,134.66,61.16,134.69Z"/><path class="cls-3" d="M69,140.51l.07,0c0-.06,0-.15-.08-.19s-.27-.22-.41-.33a7.36,7.36,0,0,0-3.74-1.69l-.61-.08s-.11.07-.16.1.07.1.12.12a1.26,1.26,0,0,0,.27,0,6.49,6.49,0,0,1,3.07,1.06c.44.29.85.61,1.28.92Z"/><path class="cls-3" d="M55.87,139.44a3.62,3.62,0,0,1,1.63.68,5.36,5.36,0,0,1,1.5,1.5c.2.32.37.66.58,1,0,0,.08,0,.12,0a.16.16,0,0,0,0-.15c0-.09-.09-.18-.13-.27a5.63,5.63,0,0,0-2.64-2.7,5.84,5.84,0,0,0-1.19-.35s-.11.05-.16.07a.55.55,0,0,0,.12.14A.17.17,0,0,0,55.87,139.44Z"/><path class="cls-3" d="M67.64,141.74c-.14-.17-.29-.32-.42-.49A5,5,0,0,0,65,139.63a.7.7,0,0,0-.31,0c-.07.2.12.19.22.23a4.33,4.33,0,0,1,1.45.85c.38.38.73.78,1.1,1.16a.64.64,0,0,0,.19.13l.06,0A1,1,0,0,0,67.64,141.74Z"/><path class="cls-3" d="M66.47,136.14s-.1-.1-.16-.1L63,135.86c-.09,0-.22,0-.19.13s.12.09.19.1l3.23.18h.18S66.49,136.16,66.47,136.14Z"/><path class="cls-3" d="M60.54,134.6c.06,0,.14.08.19.06a10.61,10.61,0,0,1,2.75-.87s.07-.09.11-.14-.12-.09-.17-.08a10.09,10.09,0,0,0-2.85.92Z"/><path class="cls-3" d="M66.63,137.63c0-.06-.07-.15-.13-.18a8.76,8.76,0,0,0-2.06-.57l-.7-.12a.25.25,0,0,0-.16.06s0,.08,0,.13l.22.05a11.61,11.61,0,0,1,2.64.66S66.57,137.64,66.63,137.63Z"/><path class="cls-3" d="M67.27,140.59v-.15l-.12-.14a5.93,5.93,0,0,0-2.27-1.45c-.07,0-.15,0-.23,0s.09.15.15.18a6,6,0,0,1,2.27,1.48S67.2,140.58,67.27,140.59Z"/><path class="cls-3" d="M65.26,137.9a4.83,4.83,0,0,1,1.7.5,1,1,0,0,0,.21.07c.12-.09.08-.18-.06-.26a5.81,5.81,0,0,0-2.66-.59c-.06,0-.12.06-.18.09s.12.12.18.13Z"/><path class="cls-3" d="M64.66,135.31a8.27,8.27,0,0,0-2.53-.17c-.05,0-.09.08-.13.13l0,.07.18,0a8.81,8.81,0,0,1,2.4.17s.11-.05.16-.08S64.71,135.33,64.66,135.31Z"/><path class="cls-3" d="M65.12,140.58a3.24,3.24,0,0,1,1,.72,1.37,1.37,0,0,0,.22.2.18.18,0,0,0,.16,0s.08-.1.12-.15h-.12a3.51,3.51,0,0,0-1.32-1c-.06,0-.15,0-.23,0S65.06,140.55,65.12,140.58Z"/><g id="eyes"><path d="M61.05,140c-.28.24-.27.24,0,.45a2.82,2.82,0,0,1,1.36,2.1c0,.17.09.21.24.12l.32-.17a1.59,1.59,0,1,0-2-2.5Zm1.61,2.4a5,5,0,0,1-.12-.53.32.32,0,0,1,.08-.22.77.77,0,0,0,.16-.72c0-.16-.12-.19-.26-.11l-.22.08a1,1,0,0,1-.06-.22c0-.2-.14-.26-.29-.18s-.4,0-.57-.12l-.19-.14a1.29,1.29,0,0,1,1.36-.35,1.28,1.28,0,0,1,.93,1.18A1.41,1.41,0,0,1,62.66,142.44Z"/><path d="M58.48,136.25l-.18.13a1.66,1.66,0,0,1-.13.14c-.12.11-.09.19,0,.25a2.86,2.86,0,0,1,1.6,2c.06.22.1.23.29.12l.13-.08A1.69,1.69,0,0,0,61,137,1.59,1.59,0,0,0,58.48,136.25Zm2.3,1A1.4,1.4,0,0,1,60,138.7c-.06-.18-.13-.35-.19-.52a.21.21,0,0,1,.07-.16.76.76,0,0,0,.19-.7c0-.17-.1-.26-.29-.15l-.2.08a.89.89,0,0,1-.06-.2c0-.21-.12-.29-.29-.2a.52.52,0,0,1-.61-.1l-.22-.13a1.31,1.31,0,0,1,1.35-.42A1.29,1.29,0,0,1,60.78,137.28Z"/><path class="cls-2" d="M62.55,139.93a1.29,1.29,0,0,0-1.36.35l.19.14c.17.16.33.26.57.12s.28,0,.29.18a1,1,0,0,0,.06.22l.22-.08c.14-.08.22-.05.26.11a.77.77,0,0,1-.16.72.32.32,0,0,0-.08.22,5,5,0,0,0,.12.53,1.41,1.41,0,0,0,.82-1.33A1.28,1.28,0,0,0,62.55,139.93Z"/><path class="cls-2" d="M58.44,136.62l.22.13a.52.52,0,0,0,.61.1c.17-.09.28,0,.29.2a.89.89,0,0,0,.06.2l.2-.08c.19-.11.25,0,.29.15a.76.76,0,0,1-.19.7.21.21,0,0,0-.07.16c.06.17.13.34.19.52a1.4,1.4,0,0,0,.74-1.42,1.29,1.29,0,0,0-1-1.08A1.31,1.31,0,0,0,58.44,136.62Z"/></g></g><g id="curtains_01" data-name="curtains 01"><path class="cls-2" d="M40.39,34.16c.79-1.8-3.06,76.12.78,74.48-1.26,4.47,13.67,9.63,9.94,7.38,19.18-10.62,38.78-44.95,47.75-66-1.91.06-8.47-4.34-6.33-3.33-4.08-3.14-3.35,2-5.42,4.33C80.69,64.94,69.22,83.3,56.27,99.71,67.4,86.57,82.27,69,83.44,49.94c-.93,3.37-4.62.62-.55,1.18C78.37,71.83,62.4,87,51.39,102.59,64.06,90.15,71.51,72,75.86,52.76c.41,4,3.75,2.63-3.08,4.46-6.65,14.78-15,36-29.15,50.49C54,92.46,67.14,73.27,71,53.75,63,57.52,54,52.16,39,33.36c2.73,3.43,19.21,31.92,39,14.49,2.47,5.8,5.8,1.34,1.65,3.31,1.2-.94,9.3-2.36,9.18-5.87-4.87-3.49-3.35-9.3-4-9.48-4-.06,3.14,6,9.28,13-2-3.22.83-3.83.08-2.7,4.47,4.76-1.26,3.55.54,1.79,14.93,11.53,29.59,11.46,37.44,17,8.65.08,27.66-5.79,40-13.17-3.85-.78-1.26-3.73.87-3,.53,1-1.08-2.54-.86,1.26,5.41-5,6.49-16.3,10.25-15.82-5.27,6.57-2.53,10.12-3.72,12.59-1.23,1.4,3.4,3.38,9.75,3.19-1.48-.31-3.78-1.9-5.85,2,26.61,10,44.67-15.31,41.09-14-8.58,16.62-19.87,21.79-33,15.6,5.13,21.52,21.38,37.17,26.83,52.94C206.26,91.05,198.48,75,188.36,56.66c3.9-4.49,0-5.42,2.68-6.06,4.56,22.12,11.87,35.25,19.75,52.49-4.86-15.09-20.46-32-28.69-53.87,3.77,5.59,4.07,0,2.66.87,3.8,18.25,14.64,35.33,24.61,52.29-15.68-16.11-25.66-33-27.53-51.41-7.51-7.18-4.54-5.58-5.83-7.1-3.77,1.59-3.32,2.09-1.57,6.71,7.1,19,19.48,51.36,41.28,67.46-2.07-2.15,8.62-7.94,9.53-5,2.57,1.49-.54-77.16,5.57-80.23.19,2.83-45.2,4.93-49.6,1.2,5-.14-12.19-1.13-16.37.53-.76-2.07-20.21-1-16.6,2.34-3.22-5.09-31.68,1.28-29.39.29,3.61-1.64-23-4.45-20.46.48.64.26-18.79-5.1-13.68-5.75-6.26,2.16-45,5.32-46.21-.15C41.94,37.13,38.52,33.69,40.39,34.16Zm-1.61,79.45c.08-1-.33,44.9.08,44,7.6-.82,17.6-7.67,20-13.89.83-7.09-3.73-19.24-5.64-24.61C53.13,119.78,38.58,113.35,38.78,113.61Zm189.41,0c.08-1-14.54,4.36-14.13,3.44-2.24,7-7.13,19.13-6.66,26.65,2.72,6.65,13,13.45,21,15.93C228.33,160.32,228,113.35,228.19,113.61Z"/></g><g id="curtains_01-2" data-name="curtains 01"><path d="M38.44,36.12c.78-1.81-3.06,76.12.77,74.48-1.25,4.47,13.67,9.63,9.95,7.38C68.34,107.35,87.94,73,96.9,52c-1.9.06-8.47-4.35-6.33-3.34-4.08-3.14-3.34,2-5.42,4.34-6.42,13.87-17.89,32.23-30.84,48.65C65.44,88.52,80.32,71,81.49,51.89c-.93,3.37-4.62.63-.56,1.19C76.41,73.79,60.45,89,49.43,104.55,62.1,92.1,69.55,74,73.9,54.71c.42,3.95,3.76,2.64-3.08,4.47-6.64,14.77-15,36-29.15,50.49C52,94.42,65.19,75.23,69.08,55.7c-8.07,3.78-17-1.59-32-20.38,2.74,3.43,19.21,31.92,39,14.49,2.47,5.79,5.8,1.34,1.65,3.31,1.21-.94,9.3-2.36,9.19-5.87-4.87-3.49-3.35-9.3-4-9.49-4-.06,3.14,6,9.28,13-2-3.22.84-3.82.08-2.69,4.47,4.76-1.26,3.55.54,1.79,14.93,11.52,29.59,11.45,37.45,17C139,66.9,158,61,170.28,53.65c-3.84-.78-1.25-3.73.87-3,.53,1-1.08-2.54-.86,1.27,5.41-5,6.5-16.3,10.25-15.82-5.27,6.56-2.52,10.11-3.71,12.58-1.24,1.4,3.39,3.39,9.75,3.19-1.49-.31-3.79-1.89-5.86,2,26.62,10,44.67-15.31,41.1-14-8.59,16.62-19.88,21.79-33,15.61,5.14,21.51,21.39,37.17,26.84,52.94C204.31,93,196.53,76.94,186.4,58.61c3.91-4.48,0-5.41,2.68-6.06C193.65,74.67,201,87.8,208.84,105,204,90,188.37,73,180.14,51.17c3.77,5.59,4.08,0,2.67.87,3.79,18.25,14.64,35.33,24.6,52.29-15.67-16.1-25.66-33-27.53-51.41-7.5-7.18-4.53-5.58-5.83-7.1-3.77,1.59-3.32,2.09-1.56,6.71,7.1,19,19.48,51.36,41.28,67.47-2.08-2.15,8.61-8,9.52-5,2.57,1.49-.53-77.15,5.58-80.23.19,2.83-45.2,4.93-49.61,1.2,5.05-.14-12.19-1.12-16.36.53-.76-2.07-20.22-1-16.6,2.34-3.23-5.09-31.69,1.28-29.39.3,3.61-1.64-23-4.46-20.46.48.64.26-18.79-5.11-13.69-5.75-6.26,2.16-45,5.31-46.2-.15C40,39.08,36.57,35.65,38.44,36.12Zm-1.62,79.44c.09-1-.33,44.9.09,44,7.59-.83,17.6-7.67,20-13.9.83-7.09-3.74-19.24-5.65-24.6C51.17,121.73,36.62,115.31,36.82,115.56Zm189.41,0c.09-1-14.54,4.36-14.12,3.45-2.25,7-7.14,19.13-6.66,26.64,2.71,6.65,13,13.45,21,15.93C226.38,162.27,226,115.31,226.23,115.56Z"/></g><g id="spotlight"><path d="M240.37,97.87c.73.72,16.83.33,17.31-.8-.72-.66-8.9-10.19-9-9.26.7.79-14.66-3.73-13.43-3.23.77-1-24.8.86-24.29,1.75-1-.57,11.9,3.13,12.75,2.82C223.31,88.37,239.63,98.63,240.37,97.87Z"/><path d="M241.77,103.24c-1.28-2.37-16.12,1-16.64.8,0-1.57-13.86,5.15-13,6.72.72,2.38,23.77,32.67,23.63,31.27-.23-1.77,11.82-7,11.55-7.11.05.91,10.72-9.86,9.79-9.66C256.78,121.79,240.52,102.32,241.77,103.24Z"/><path d="M278.69,129.28c-.35,2.08-17.9,1.21-18-.94.6-.52-4,15.52-4.83,15.3-.65-2-5.3,11-5,12.89-.41.24,27.35,6.62,26.58,5.51.26-2.55,3.86-13.51,4.16-15C282.13,145.39,278.35,128,278.69,129.28Z"/><path d="M270.23,96.8c.25-.68-5.61,1.56-5.5,4.16.26-1.56,16.24,26.52,16.11,24.3-.5-.42,11.17,5.74,12.08,6.57-.24-2.8,6.86,7.18,7.25,6.45.23,2.1-24.77-38.92-25.1-38C275.63,101,270.48,98.25,270.23,96.8Z"/><path d="M245.55,99.05c-1.15,4.33.92,5,2.3,10.44.17,1.52,5.59,4.66,4.88,7,1,2.92,1.78,2,1.65,1.75,9.09,10.13,17.69,12,22.92,7-.58,2,.88-1.94,1.13-1.11.3-.07-1.15-.66-1.75-2.64-.94,2-.62,3.19-1.08,2-1.46-.2-2.26.77-3.77,1.28-.05.48.84.1,0,0-4.13-.52-9.77-3.16-15.74-8.3-5.7-4.88-9.22-14.91-8-17.64C247.3,99.9,245.05,98.54,245.55,99.05Z"/><path d="M303.19,70.15c-2,3.32-5.56-11-7.74-6-1.74-4.52.31-17.12,0-14.66,1.45-1-1.25-5.34-2.43-3.47-1.43-1.21-6,.83-4.5-.51-.78,5.52-1.72,2.79-1.69.15,1.63-.91-5.79.52-5.93,1-1.06-.62-.07-5.27,0-7.25-.09,2-2.27,3.26-1.67-.31.86,4.82-3-2.14-1.67.31,1.27-3.69,1.19,10,0,7.83-.53-1.58-11.34,2.61-11,1.91-.25,3.61-2-2.21-2.82,5.06-1.24,4.24-.56,29.68.07,25,1.71,6.77-11.11,8-11,10.74.88-4.41,7.25,10.23,5.88,6-1.35,6.8,3.09-4,2,2,1.08,6,2.77,1.54,3,1.87-1.31,6.76.21-3.49.16-.15,1.4,4.07,7.18-9.76,5.51-4.17,1.3,2.36.06-4.73.85-.28.88-.89,1.35-3.27.83.27,1.54.18,5.33,9.28,4.83,3.49,1.07-.51.52-3.7.36.36.64-5.17,9.38,19.23,10.76,16.29-.64-5.7,24.29-22.22,23.18-22.71C314.05,94.62,312.84,80.58,303.19,70.15Zm-7.74,2.59c0,.33,1.11-1.45,1.13-1.09.33-.66,1.1-.53,1.5,0a1,1,0,0,1,0,1.5c-.07-.07-2.67,2.58-2.6,2.51C295.42,76,295.52,72.87,295.45,72.74Zm0,6.36c.05.58,4.63-5.18,4.68-4.52.23-.87,1.12-.65,1.5,0,.56.52.38.89,0,1.5-.16-.13-6.31,6.08-6.15,5.94a18.36,18.36,0,0,1,0-2.94C295.63,79,295.6,79.32,295.45,79.1Zm0,6.66c.08.81,7.68-8.4,7.75-7.49.14-1,1.14-.74,1.5,0,.64.56.38.81,0,1.49-.23-.17-9.47,9.1-9.22,8.92C295.33,89.48,295.68,86.06,295.45,85.76Zm0,6.73c.1,1,9.93-10.79,10-9.69.08-1.17,1.15-.81,1.5,0,.69.59.38.75,0,1.49-.29-.2-11.79,11.34-11.49,11.11C295.3,96.36,295.73,92.85,295.45,92.49ZM271.81,50.63c.16,1.95,5.6-3.12,5.75-.93-.59-1.52.11.07,0,.9.49.51.73-.36,1.67.31.43-.41,1.14.31,1.67-.31-.27,1.86-.23-.49,0-1.44a64.86,64.86,0,0,1,8.39-1.35c-.36-.21.3,1.1.29,2.12,0,.73-.51,13,0,11.77-3.25.6-7.69-1.4-9.31,1.44.43-1.25-10.33,11.23-10.73,10.51-.18-.53-.14-19.34,0-19.58A16.4,16.4,0,0,1,271.81,50.63ZM263.62,86c-.1,1.6-.72-1.89-.76-.32-1.05-1.66-.28-1.77,0-1.5.53.28,19.61-19.52,19.64-19-.11-.74.52,0,1.49,0,.12,1.94.16,1.86,0,1.49.6-.25-19.58,18.85-19.63,19C263.76,85.77,264.39,86.64,263.62,86Zm6.27.84c0,1.79-.63-1.5-.74.3-.9-1.25-.44-.79-.76-.33.12-.14-.42-1.63,0-1.49-.52-.34,19.07-18.62,19.63-19,.14,1.12.85.38,1.5,0s.07-.1,0,0c-.38-.17,0,1.91,0,1.37,0,.62-.6,1-.07.08C290.17,69.22,270.39,87.47,269.89,86.88Zm4.57,2.05c-.07,1.55-.6-1.21-.74.3-.77-1-.47-.68-.76-.32,0-.19-.41-1.55,0-1.5-.41-.28,16.16-15.74,16.6-16-.22,1.29-.19,3.6,0,2.94C290.06,74.09,274.85,89.44,274.46,88.93Zm3.23,3.53c-.18,1.06-.66-1.3-.76-.33-.79-1.24-.33-1.54,0-1.49s12.63-12.59,12.64-12.23c-.31-.22-.33,3.19,0,3-.17,1-11.32,11.31-11.18,10.8C278.57,92.19,278.25,92.85,277.69,92.46Zm3.54,2.92c-.2.8-.62-1-.76-.32-.68-1-.34-1.44,0-1.5.23.14,9.08-9.07,9.09-8.8-.22-.17-.24,3.13,0,2.95-.12.76-7.72,7.76-7.62,7.37A.47.47,0,0,1,281.23,95.38Zm3.07,3.69c-.22.58-.6-.75-.76-.32-.59-.87-.36-1.33,0-1.49.15.1,6-6,6-5.83a8.79,8.79,0,0,0,0,2.94c-.08.55-4.63,4.69-4.56,4.41A.54.54,0,0,1,284.3,99.07Zm2.28,4.54c-.21.53-.62-.71-.76-.33-.66-.83-.36-1.32,0-1.5.21.1,5.37-5.38,5.38-5.2-.21-.11,2.77.17,3,0-.12.5-7,6.93-6.91,6.68C287.35,103.42,287,103.8,286.58,103.61Zm22.18-14.08c.17,1.59-19.8,17.19-19.63,19-.85-1-.36-.38-.74.3.25.28-.58-.65-.76-.32-.93-.76-1-.73,0-1.5-.29,1.52,19.39-18.21,19.63-19,1-.66,1.14-.54,1.49,0C308.81,88.28,309.69,89.72,308.76,89.53Z"/><path class="cls-2" d="M240.37,97.87c.73.72,16.83.33,17.31-.8-.72-.66-8.9-10.19-9-9.26.7.79-14.66-3.73-13.43-3.23.77-1-24.8.86-24.29,1.75-1-.57,11.9,3.13,12.75,2.82C223.31,88.37,239.63,98.63,240.37,97.87Z"/><path class="cls-2" d="M240.37,97.87c.73.72,16.83.33,17.31-.8-.72-.66-8.9-10.19-9-9.26.7.79-14.66-3.73-13.43-3.23.77-1-24.8.86-24.29,1.75-1-.57,11.9,3.13,12.75,2.82C223.31,88.37,239.63,98.63,240.37,97.87Z"/><path class="cls-2" d="M241.77,103.24c-1.28-2.37-16.12,1-16.64.8,0-1.57-13.86,5.15-13,6.72.72,2.38,23.77,32.67,23.63,31.27-.23-1.77,11.82-7,11.55-7.11.05.91,10.72-9.86,9.79-9.66C256.78,121.79,240.52,102.32,241.77,103.24Z"/><path class="cls-2" d="M241.77,103.24c-1.28-2.37-16.12,1-16.64.8,0-1.57-13.86,5.15-13,6.72.72,2.38,23.77,32.67,23.63,31.27-.23-1.77,11.82-7,11.55-7.11.05.91,10.72-9.86,9.79-9.66C256.78,121.79,240.52,102.32,241.77,103.24Z"/><path class="cls-2" d="M278.69,129.28c-.35,2.08-17.9,1.21-18-.94.6-.52-4,15.52-4.83,15.3-.65-2-5.3,11-5,12.89-.41.24,27.35,6.62,26.58,5.51.26-2.55,3.86-13.51,4.16-15C282.13,145.39,278.35,128,278.69,129.28Z"/><path class="cls-2" d="M278.69,129.28c-.35,2.08-17.9,1.21-18-.94.6-.52-4,15.52-4.83,15.3-.65-2-5.3,11-5,12.89-.41.24,27.35,6.62,26.58,5.51.26-2.55,3.86-13.51,4.16-15C282.13,145.39,278.35,128,278.69,129.28Z"/><path class="cls-2" d="M270.23,96.8c.25-.68-5.61,1.56-5.5,4.16.26-1.56,16.24,26.52,16.11,24.3-.5-.42,11.17,5.74,12.08,6.57-.24-2.8,6.86,7.18,7.25,6.45.23,2.1-24.77-38.92-25.1-38C275.63,101,270.48,98.25,270.23,96.8Z"/><path class="cls-2" d="M270.23,96.8c.25-.68-5.61,1.56-5.5,4.16.26-1.56,16.24,26.52,16.11,24.3-.5-.42,11.17,5.74,12.08,6.57-.24-2.8,6.86,7.18,7.25,6.45.23,2.1-24.77-38.92-25.1-38C275.63,101,270.48,98.25,270.23,96.8Z"/><path class="cls-2" d="M245.55,99.05c-1.15,4.33.92,5,2.3,10.44.17,1.52,5.59,4.66,4.88,7,1,2.92,1.78,2,1.65,1.75,9.09,10.13,17.69,12,22.92,7-.58,2,.88-1.94,1.13-1.11.3-.07-1.15-.66-1.75-2.64-.94,2-.62,3.19-1.08,2-1.46-.2-2.26.77-3.77,1.28-.05.48.84.1,0,0-4.13-.52-9.77-3.16-15.74-8.3-5.7-4.88-9.22-14.91-8-17.64C247.3,99.9,245.05,98.54,245.55,99.05Z"/><path class="cls-2" d="M245.55,99.05c-1.15,4.33.92,5,2.3,10.44.17,1.52,5.59,4.66,4.88,7,1,2.92,1.78,2,1.65,1.75,9.09,10.13,17.69,12,22.92,7-.58,2,.88-1.94,1.13-1.11.3-.07-1.15-.66-1.75-2.64-.94,2-.62,3.19-1.08,2-1.46-.2-2.26.77-3.77,1.28-.05.48.84.1,0,0-4.13-.52-9.77-3.16-15.74-8.3-5.7-4.88-9.22-14.91-8-17.64C247.3,99.9,245.05,98.54,245.55,99.05Z"/><path class="cls-2" d="M303.19,70.15c-2,3.32-5.56-11-7.74-6-1.74-4.52.31-17.12,0-14.66,1.45-1-1.25-5.34-2.43-3.47-1.43-1.21-6,.83-4.5-.51-.78,5.52-1.72,2.79-1.69.15,1.63-.91-5.79.52-5.93,1-1.06-.62-.07-5.27,0-7.25-.09,2-2.27,3.26-1.67-.31.86,4.82-3-2.14-1.67.31,1.27-3.69,1.19,10,0,7.83-.53-1.58-11.34,2.61-11,1.91-.25,3.61-2-2.21-2.82,5.06-1.24,4.24-.56,29.68.07,25,1.71,6.77-11.11,8-11,10.74.88-4.41,7.25,10.23,5.88,6-1.35,6.8,3.09-4,2,2,1.08,6,2.77,1.54,3,1.87-1.31,6.76.21-3.49.16-.15,1.4,4.07,7.18-9.76,5.51-4.17,1.3,2.36.06-4.73.85-.28.88-.89,1.35-3.27.83.27,1.54.18,5.33,9.28,4.83,3.49,1.07-.51.52-3.7.36.36.64-5.17,9.38,19.23,10.76,16.29-.64-5.7,24.29-22.22,23.18-22.71C314.05,94.62,312.84,80.58,303.19,70.15Zm-7.74,2.59c0,.33,1.11-1.45,1.13-1.09.33-.66,1.1-.53,1.5,0a1,1,0,0,1,0,1.5c-.07-.07-2.67,2.58-2.6,2.51C295.42,76,295.52,72.87,295.45,72.74Zm0,6.36c.05.58,4.63-5.18,4.68-4.52.23-.87,1.12-.65,1.5,0,.56.52.38.89,0,1.5-.16-.13-6.31,6.08-6.15,5.94a18.36,18.36,0,0,1,0-2.94C295.63,79,295.6,79.32,295.45,79.1Zm0,6.66c.08.81,7.68-8.4,7.75-7.49.14-1,1.14-.74,1.5,0,.64.56.38.81,0,1.49-.23-.17-9.47,9.1-9.22,8.92C295.33,89.48,295.68,86.06,295.45,85.76Zm0,6.73c.1,1,9.93-10.79,10-9.69.08-1.17,1.15-.81,1.5,0,.69.59.38.75,0,1.49-.29-.2-11.79,11.34-11.49,11.11C295.3,96.36,295.73,92.85,295.45,92.49ZM271.81,50.63c.16,1.95,5.6-3.12,5.75-.93-.59-1.52.11.07,0,.9.49.51.73-.36,1.67.31.43-.41,1.14.31,1.67-.31-.27,1.86-.23-.49,0-1.44a64.86,64.86,0,0,1,8.39-1.35c-.36-.21.3,1.1.29,2.12,0,.73-.51,13,0,11.77-3.25.6-7.69-1.4-9.31,1.44.43-1.25-10.33,11.23-10.73,10.51-.18-.53-.14-19.34,0-19.58A16.4,16.4,0,0,1,271.81,50.63ZM263.62,86c-.1,1.6-.72-1.89-.76-.32-1.05-1.66-.28-1.77,0-1.5.53.28,19.61-19.52,19.64-19-.11-.74.52,0,1.49,0,.12,1.94.16,1.86,0,1.49.6-.25-19.58,18.85-19.63,19C263.76,85.77,264.39,86.64,263.62,86Zm6.27.84c0,1.79-.63-1.5-.74.3-.9-1.25-.44-.79-.76-.33.12-.14-.42-1.63,0-1.49-.52-.34,19.07-18.62,19.63-19,.14,1.12.85.38,1.5,0s.07-.1,0,0c-.38-.17,0,1.91,0,1.37,0,.62-.6,1-.07.08C290.17,69.22,270.39,87.47,269.89,86.88Zm4.57,2.05c-.07,1.55-.6-1.21-.74.3-.77-1-.47-.68-.76-.32,0-.19-.41-1.55,0-1.5-.41-.28,16.16-15.74,16.6-16-.22,1.29-.19,3.6,0,2.94C290.06,74.09,274.85,89.44,274.46,88.93Zm3.23,3.53c-.18,1.06-.66-1.3-.76-.33-.79-1.24-.33-1.54,0-1.49s12.63-12.59,12.64-12.23c-.31-.22-.33,3.19,0,3-.17,1-11.32,11.31-11.18,10.8C278.57,92.19,278.25,92.85,277.69,92.46Zm3.54,2.92c-.2.8-.62-1-.76-.32-.68-1-.34-1.44,0-1.5.23.14,9.08-9.07,9.09-8.8-.22-.17-.24,3.13,0,2.95-.12.76-7.72,7.76-7.62,7.37A.47.47,0,0,1,281.23,95.38Zm3.07,3.69c-.22.58-.6-.75-.76-.32-.59-.87-.36-1.33,0-1.49.15.1,6-6,6-5.83a8.79,8.79,0,0,0,0,2.94c-.08.55-4.63,4.69-4.56,4.41A.54.54,0,0,1,284.3,99.07Zm2.28,4.54c-.21.53-.62-.71-.76-.33-.66-.83-.36-1.32,0-1.5.21.1,5.37-5.38,5.38-5.2-.21-.11,2.77.17,3,0-.12.5-7,6.93-6.91,6.68C287.35,103.42,287,103.8,286.58,103.61Zm22.18-14.08c.17,1.59-19.8,17.19-19.63,19-.85-1-.36-.38-.74.3.25.28-.58-.65-.76-.32-.93-.76-1-.73,0-1.5-.29,1.52,19.39-18.21,19.63-19,1-.66,1.14-.54,1.49,0C308.81,88.28,309.69,89.72,308.76,89.53Z"/><path class="cls-2" d="M303.19,70.15c-2,3.32-5.56-11-7.74-6-1.74-4.52.31-17.12,0-14.66,1.45-1-1.25-5.34-2.43-3.47-1.43-1.21-6,.83-4.5-.51-.78,5.52-1.72,2.79-1.69.15,1.63-.91-5.79.52-5.93,1-1.06-.62-.07-5.27,0-7.25-.09,2-2.27,3.26-1.67-.31.86,4.82-3-2.14-1.67.31,1.27-3.69,1.19,10,0,7.83-.53-1.58-11.34,2.61-11,1.91-.25,3.61-2-2.21-2.82,5.06-1.24,4.24-.56,29.68.07,25,1.71,6.77-11.11,8-11,10.74.88-4.41,7.25,10.23,5.88,6-1.35,6.8,3.09-4,2,2,1.08,6,2.77,1.54,3,1.87-1.31,6.76.21-3.49.16-.15,1.4,4.07,7.18-9.76,5.51-4.17,1.3,2.36.06-4.73.85-.28.88-.89,1.35-3.27.83.27,1.54.18,5.33,9.28,4.83,3.49,1.07-.51.52-3.7.36.36.64-5.17,9.38,19.23,10.76,16.29-.64-5.7,24.29-22.22,23.18-22.71C314.05,94.62,312.84,80.58,303.19,70.15Zm-7.74,2.59c0,.33,1.11-1.45,1.13-1.09.33-.66,1.1-.53,1.5,0a1,1,0,0,1,0,1.5c-.07-.07-2.67,2.58-2.6,2.51C295.42,76,295.52,72.87,295.45,72.74Zm0,6.36c.05.58,4.63-5.18,4.68-4.52.23-.87,1.12-.65,1.5,0,.56.52.38.89,0,1.5-.16-.13-6.31,6.08-6.15,5.94a18.36,18.36,0,0,1,0-2.94C295.63,79,295.6,79.32,295.45,79.1Zm0,6.66c.08.81,7.68-8.4,7.75-7.49.14-1,1.14-.74,1.5,0,.64.56.38.81,0,1.49-.23-.17-9.47,9.1-9.22,8.92C295.33,89.48,295.68,86.06,295.45,85.76Zm0,6.73c.1,1,9.93-10.79,10-9.69.08-1.17,1.15-.81,1.5,0,.69.59.38.75,0,1.49-.29-.2-11.79,11.34-11.49,11.11C295.3,96.36,295.73,92.85,295.45,92.49ZM271.81,50.63c.16,1.95,5.6-3.12,5.75-.93-.59-1.52.11.07,0,.9.49.51.73-.36,1.67.31.43-.41,1.14.31,1.67-.31-.27,1.86-.23-.49,0-1.44a64.86,64.86,0,0,1,8.39-1.35c-.36-.21.3,1.1.29,2.12,0,.73-.51,13,0,11.77-3.25.6-7.69-1.4-9.31,1.44.43-1.25-10.33,11.23-10.73,10.51-.18-.53-.14-19.34,0-19.58A16.4,16.4,0,0,1,271.81,50.63ZM263.62,86c-.1,1.6-.72-1.89-.76-.32-1.05-1.66-.28-1.77,0-1.5.53.28,19.61-19.52,19.64-19-.11-.74.52,0,1.49,0,.12,1.94.16,1.86,0,1.49.6-.25-19.58,18.85-19.63,19C263.76,85.77,264.39,86.64,263.62,86Zm6.27.84c0,1.79-.63-1.5-.74.3-.9-1.25-.44-.79-.76-.33.12-.14-.42-1.63,0-1.49-.52-.34,19.07-18.62,19.63-19,.14,1.12.85.38,1.5,0s.07-.1,0,0c-.38-.17,0,1.91,0,1.37,0,.62-.6,1-.07.08C290.17,69.22,270.39,87.47,269.89,86.88Zm4.57,2.05c-.07,1.55-.6-1.21-.74.3-.77-1-.47-.68-.76-.32,0-.19-.41-1.55,0-1.5-.41-.28,16.16-15.74,16.6-16-.22,1.29-.19,3.6,0,2.94C290.06,74.09,274.85,89.44,274.46,88.93Zm3.23,3.53c-.18,1.06-.66-1.3-.76-.33-.79-1.24-.33-1.54,0-1.49s12.63-12.59,12.64-12.23c-.31-.22-.33,3.19,0,3-.17,1-11.32,11.31-11.18,10.8C278.57,92.19,278.25,92.85,277.69,92.46Zm3.54,2.92c-.2.8-.62-1-.76-.32-.68-1-.34-1.44,0-1.5.23.14,9.08-9.07,9.09-8.8-.22-.17-.24,3.13,0,2.95-.12.76-7.72,7.76-7.62,7.37A.47.47,0,0,1,281.23,95.38Zm3.07,3.69c-.22.58-.6-.75-.76-.32-.59-.87-.36-1.33,0-1.49.15.1,6-6,6-5.83a8.79,8.79,0,0,0,0,2.94c-.08.55-4.63,4.69-4.56,4.41A.54.54,0,0,1,284.3,99.07Zm2.28,4.54c-.21.53-.62-.71-.76-.33-.66-.83-.36-1.32,0-1.5.21.1,5.37-5.38,5.38-5.2-.21-.11,2.77.17,3,0-.12.5-7,6.93-6.91,6.68C287.35,103.42,287,103.8,286.58,103.61Zm22.18-14.08c.17,1.59-19.8,17.19-19.63,19-.85-1-.36-.38-.74.3.25.28-.58-.65-.76-.32-.93-.76-1-.73,0-1.5-.29,1.52,19.39-18.21,19.63-19,1-.66,1.14-.54,1.49,0C308.81,88.28,309.69,89.72,308.76,89.53Z"/></g><g id="spotlight-2" data-name="spotlight"><path d="M242.82,99.1c-.83,1,17-1.19,17.32-.8.42,0-8.15-8.34-9-9.27-1,.58-13.5-2.44-13.43-3.22-.86-.49-24.5,1.51-24.3,1.75-.07.22,13.94,2.87,12.76,2.82C226.73,90.13,241.63,99.36,242.82,99.1Z"/><path d="M244.23,104.47c-.49-2.89-15.81,1-16.65.8-.4,3-14.09,5.88-13,6.71-.45,2.09,24.46,29,23.63,31.28.23,2.08,12.5-10.36,11.54-7.11.67,3.19,10.76-8.56,9.8-9.67C260.66,129,243.19,106,244.23,104.47Z"/><path d="M281.15,130.51c.72,2.19-17.13-3.4-18-.94.54,1.12-5.09,13.35-4.84,15.3.31-.39-4.56,11.41-5,12.89.8.08,26.83,8.05,26.58,5.5.48-.26,4.29-16.76,4.16-15C284.43,146,281.2,128.62,281.15,130.51Z"/><path class="cls-4" d="M274.9,102.2c7.14,5.23,6.32,14.68,2.67,19.83-3-.63-12.86,2.33-19-6.19-7.57-6.3-6.27-16.65-2.68-19.83C259.62,92.12,268,94.52,274.9,102.2Z"/><path d="M272.69,98c-.74,2.3-5.88,6.68-5.5,4.17,1,3.66,16,22.83,16.1,24.29.53-2.38,12.9,8.84,12.09,6.58-.81,3.68,7.92,3.18,7.24,6.45,0,2.94-24.66-37.79-25.1-38C276.71,105.2,273.19,96.17,272.69,98Z"/><path d="M248,100.28c-.26,5,.07,4.2,2.3,10.44-1-1.67,5.06,6.12,4.89,7,1.33,1,1,.45,1.65,1.76,7.46,7.82,17.66,11.91,22.92,7-.43,2,.77-.08,1.13-1.11.91-.34-1.68-2.83-1.76-2.64-.79.6-.6,2.26-1.07,2-.9,1.65-3,2.61-3.77,1.28,1,1.79-.74-.84,0,0-3.83-1.36-10.05-2.46-15.75-8.29-6.84-7.13-9.28-13.48-8-17.65C251.07,101.38,248.77,101.08,248,100.28Z"/><path d="M305.65,71.38c-2.35-1.78-6-11.08-7.74-6-.15,6-.23-13.92,0-14.66-1.71,1.15-1.76-9.3-2.43-3.47C297,43,290.64,48,291,46.77c0-4.6-2.55,6.11-1.68.15,1.59-.66-6.77-4.55-5.94,1-1.26-6.87-1.38-14.15,0-7.25,1.55,1.77.95-5.58-1.66-.31.21,1.7-.26-5.42-1.67.31,0,4.18-.16,9.52,0,7.83,1,2.58-11.69,8.8-11,1.91,0-4.19-3.39,1-2.82,5.06.56-3.63.46,30.74.07,25-.38-1.93-12.27,12.17-11,10.75.79,6.43,6.64,1.27,5.88,6,1.06,2.34,2.63-3.66,2,2,1.76,1.8,3.65,6.93,3.05,1.87-.2.54-1.26,1.82.16-.15s4.1-8.21,5.51-4.16c-1.06-5.39-1-7.12.85-.28.28,2.22,1.89,5,.83.26-.4,6.16,4,4.61,4.83,3.49.92,4.56.88,2.8.35.37C280,104.33,290.25,112,289.47,117c1,6.11,24.55-18.4,23.18-22.71C316.51,89.42,315.53,73.55,305.65,71.38ZM297.91,74S299,72.51,299,72.88c.41-.06,1.07-.35,1.49,0,.33.6.37.75,0,1.49.07-.23-2.62,2.58-2.6,2.52C297.91,76.66,298,73.63,297.91,74Zm0,6.36c0,.06,4.59-5.19,4.68-4.52.4.2,1.06-.32,1.5,0,.21.74.33.49,0,1.5.16-.43-6.18,6.06-6.15,5.94a19.21,19.21,0,0,1,0-2.94C298.09,80.26,298.09,79.71,297.91,80.33Zm0,6.66c0,.1,7.61-8.41,7.75-7.49.4.44,1-.29,1.49,0,.14.86.31.26,0,1.49.24-.59-9.27,9.08-9.22,8.91C297.92,89.29,298.17,86.14,297.91,87Zm0,6.73c0,.11,9.85-10.8,10-9.69.39.61,1-.27,1.5,0,.06.94.28.08,0,1.49.29-.71-11.56,11.31-11.49,11.11C297.92,95.88,298.23,92.69,297.91,93.72ZM274.27,51.86c0,.23,5.47-3.16,5.75-.93,0,2-.08,1.14,0,.9-.58,1.23.55-1.69,1.67.31,1.41-1.43,1.55.26,1.66-.31,0-1.55-.5.62,0-1.44.54-.22,8.11-3.23,8.39-1.35-.42-2.32-.14-1.89.3,2.12.52.66.57,10,0,11.77-3.47-.45-6.76-2.51-9.31,1.44,0,1.41-10.79,11.08-10.73,10.51.35.87-.26-17.25,0-19.58C272.5,51.87,273.35,50.06,274.27,51.86Zm-8.19,35.41c-.24.19-.87-1.92-.76-.32-.47,1.24-.49-.89,0-1.5-.62.87,19.43-20.62,19.64-19,.95-1.57,1-.07,1.49,0,.42-.84-.15,2.78,0,1.5.58-.18-19.94,17.45-19.64,19C266.14,85.28,266.93,85.59,266.08,87.27Zm6.27.84c-.17.39-.78-1.52-.74.29-.33,1.66-.64.1-.76-.32-1,.44-.6-2.72,0-1.5.54-1.16,19.52-18.65,19.64-19,.43-1.67.55,1.29,1.49,0,.6-.17-.27-1.5,0,.05-.45-1.89-.5-.53,0,1.37.54.56.58-1.4-.06.08C292.39,69.6,272.93,86.43,272.35,88.11Zm4.56,2c-.17.36-.71-1.24-.73.3-.32,1.4-.62.06-.76-.32-.9.31-.56-2.48,0-1.5.42-1,16.51-15.78,16.61-16,0-1.07-.43,4.37,0,2.94C292.5,75.38,277.37,88.74,276.91,90.16Zm3.23,3.52c-.25.13-.73-1.31-.76-.32-.44.69-.44-1,0-1.49-.38.57,12.52-13.32,12.64-12.23.32-.78-.07,3.16,0,2.94,0-.84-11.5,11.93-11.17,10.81C281,93.46,280.76,92.57,280.14,93.68Zm3.55,2.93c-.26.09-.69-1-.76-.33-.43.42-.43-1,0-1.49-.28.43,9-9.62,9.09-8.8.24-.59-.05,3.11,0,2.94,0-.63-7.86,8.22-7.62,7.38C284.47,96.42,284.21,95.76,283.69,96.61Zm3.07,3.69c-.26.07-.64-.76-.76-.32-.42.18-.42-1,0-1.49-.19.31,6-6.43,6-5.84a23.84,23.84,0,0,1,0,2.95c0-.46-4.72,5-4.56,4.41C287.46,100.14,287.2,99.69,286.76,100.3Zm2.27,4.53c-.26.07-.67-.71-.76-.32-.42.13-.43-1,0-1.5-.25.29,5.3-5.75,5.38-5.2.22-.39,2.95.15,3,0,0-.43-7.13,7.23-6.91,6.67C289.8,104.68,289.53,104.27,289,104.83Zm22.19-14.07c0,.19-19.94,17.16-19.64,19-.26,1.86-.55.5-.73.3-.9.86-.76-1.74-.76-.32.13-1.59-.52-.77,0-1.5,0-1.27,19.09-17.3,19.64-19,1-.59.78-1.93,1.49,0C311.19,87.79,312.23,88.67,311.22,90.76Z"/></g><g id="seats"><g id="seats-2" data-name="seats"><path d="M88.26,177.45c1.61-4.79-2-5.82-5.17-7.55,1.11,1.29-9.06.85-9.94,1.11-2.26.22-3.09,2.78-5.05,5-1.11.72-1.28,5.41-.7,3.54-.69,1.12,19.8.07,21,1.12C89.29,180.3,89.34,177.54,88.26,177.45Z"/><path d="M114.05,176.89c-2.35-2.63-3.18-6.06-5.14-5-.87-1.2-9.37-2.1-10.87-.22-1.22-.86-4.52,1.74-5.65,4.85.88.78,2.3,4.33.1,4.05,2.1-.39,22.71-.25,20.26.24C112.06,181.56,112.68,176.1,114.05,176.89Z"/><path d="M49.87,183.76c1.62-.85-10.75.72-12.44.13-2.89.29-3.39,3.67-3.45,6.37-2.32,1-2.45,10.56-4.32,9.12,1.2.52,30.93-1.31,27.7-.46,3.86,1-.18-8.65,3-8C58.62,187.6,54.19,182.73,49.87,183.76Z"/><path d="M85.09,181.4c-.76,1.82-10.71,2.6-11.67.5-2.94,2-7,5-8.31,8,.53,2-1.86,9-.34,10.65.78-.72,25,.32,25.83-2.86-.14,1.79,2.06-5.1-1-6.57C94.09,187.81,90.49,183.43,85.09,181.4Z"/><path d="M116.5,184.23c-.15-1.16-9.2-.94-8.7.41-4.83-1.2-11.36.34-8.41,6.85.21.72,1.1,6.27.83,6.91-1.52,2.07,26.91.87,24.74,0,1.68,2.25,1.45-6.92-.63-7.68C125.92,185,121.11,183,116.5,184.23Z"/><path d="M57,169.91c1.18,1.46-8.07.18-6.33.71-4.05-.1-6.64,3.81-8.6,6.86.24-1.32,2.34,2.55,1.14,3.58-.27-.3,19.57-1.56,18.46-.57,2.31.22,2.32-3.89,1.07-3C63.67,173.33,62.43,171.37,57,169.91Z"/></g><g id="seats-3" data-name="seats"><path d="M188.65,175.49c1.18-1.72-4.7-4.14-7.7-5.21.85.07-6.19.83-8.06,1.19-3.7-.71-6.27,2.65-4.15,4.93-1.42-.61-2.16,3.22-.36,3.89,1.05-.41,20.62-.13,19.07,1.26C189,180.88,189.05,175.73,188.65,175.49Z"/><path d="M213.8,177.21c.9-3.47-2.65-6.24-7-6.24-.43-.82-8.3-.67-6.42,0-5.58-.71-7.83,2.18-5.51,6.24-.08-.07-1.77,4.09-.07,3.16-2,.72,17.22.25,19.47,1.16C213.63,180.85,215.15,175.94,213.8,177.21Z"/><path d="M149.47,184.63c3.31-1.85-10.95-.17-7.77-2.68-7.56-.47-12,3.25-11.3,10.5-.89-1.53,3.91,5.9-.42,6,3.6-.3,30.86,1.25,31.2.7-3.34-.91-.42-8.59-1.91-7.45C159.29,186,155.74,181.51,149.47,184.63Z"/><path d="M185.5,183.46c-1.13-.63-15.13.25-11,.41-7.11-1.71-8.47,2.1-7.34,7.82-2.21-2.37-1.42,7.26-3.73,8.55,2.77-2.34,29.5-1.27,26.49,0,2.28-2.35,1.95-9.2-.05-9.43C193.35,188.19,190.17,184.75,185.5,183.46Z"/><path d="M216.11,184.84c-.53-1-9.08-1.66-12.44-1.77-.07,1-4.42,3.31-5.48,6.15-.15,2.91-1.61,8.86,1.81,8.3-1,1.18,25.69.95,24.84,2.4,1.41,0,2.45-10.22-1-9.37C223.22,186.39,222.27,183.27,216.11,184.84Z"/><path d="M159,170.74c.25.13-10.24-.58-10.32.15-3.27,0-3.6,2.19-4.14,5.41-2,1.16-.68,4-1.8,3.4,2.09.88,19.06.11,21.09,1.17-2-.9,1.23-3.39.79-5.22C164.23,172.86,159.94,170.74,159,170.74Z"/><path d="M132.59,170.45c-.75-.16-6.49-.19-8.94.91-3,.43-5.83,1.77-5.37,5-.76.72-.7,5,.59,4.19,1,.72,18.42,1,20.16-.86-1.58,1.52,1-3.25,0-2.42C136.91,173.53,136.43,171.09,132.59,170.45Z"/></g><g id="seats-4" data-name="seats"><path class="cls-2" d="M88.26,177.45c1.61-4.79-2-5.82-5.17-7.55,1.11,1.29-9.06.85-9.94,1.11-2.26.22-3.09,2.78-5.05,5-1.11.72-1.28,5.41-.7,3.54-.69,1.12,19.8.07,21,1.12C89.29,180.3,89.34,177.54,88.26,177.45Z"/><path class="cls-2" d="M88.26,177.45c1.61-4.79-2-5.82-5.17-7.55,1.11,1.29-9.06.85-9.94,1.11-2.26.22-3.09,2.78-5.05,5-1.11.72-1.28,5.41-.7,3.54-.69,1.12,19.8.07,21,1.12C89.29,180.3,89.34,177.54,88.26,177.45Z"/><path class="cls-2" d="M114.05,176.89c-2.35-2.63-3.18-6.06-5.14-5-.87-1.2-9.37-2.1-10.87-.22-1.22-.86-4.52,1.74-5.65,4.85.88.78,2.3,4.33.1,4.05,2.1-.39,22.71-.25,20.26.24C112.06,181.56,112.68,176.1,114.05,176.89Z"/><path class="cls-2" d="M114.05,176.89c-2.35-2.63-3.18-6.06-5.14-5-.87-1.2-9.37-2.1-10.87-.22-1.22-.86-4.52,1.74-5.65,4.85.88.78,2.3,4.33.1,4.05,2.1-.39,22.71-.25,20.26.24C112.06,181.56,112.68,176.1,114.05,176.89Z"/><path class="cls-2" d="M49.87,183.76c1.62-.85-10.75.72-12.44.13-2.89.29-3.39,3.67-3.45,6.37-2.32,1-2.45,10.56-4.32,9.12,1.2.52,30.93-1.31,27.7-.46,3.86,1-.18-8.65,3-8C58.62,187.6,54.19,182.73,49.87,183.76Z"/><path class="cls-2" d="M49.87,183.76c1.62-.85-10.75.72-12.44.13-2.89.29-3.39,3.67-3.45,6.37-2.32,1-2.45,10.56-4.32,9.12,1.2.52,30.93-1.31,27.7-.46,3.86,1-.18-8.65,3-8C58.62,187.6,54.19,182.73,49.87,183.76Z"/><path class="cls-2" d="M85.09,181.4c-.76,1.82-10.71,2.6-11.67.5-2.94,2-7,5-8.31,8,.53,2-1.86,9-.34,10.65.78-.72,25,.32,25.83-2.86-.14,1.79,2.06-5.1-1-6.57C94.09,187.81,90.49,183.43,85.09,181.4Z"/><path class="cls-2" d="M85.09,181.4c-.76,1.82-10.71,2.6-11.67.5-2.94,2-7,5-8.31,8,.53,2-1.86,9-.34,10.65.78-.72,25,.32,25.83-2.86-.14,1.79,2.06-5.1-1-6.57C94.09,187.81,90.49,183.43,85.09,181.4Z"/><path class="cls-2" d="M116.5,184.23c-.15-1.16-9.2-.94-8.7.41-4.83-1.2-11.36.34-8.41,6.85.21.72,1.1,6.27.83,6.91-1.52,2.07,26.91.87,24.74,0,1.68,2.25,1.45-6.92-.63-7.68C125.92,185,121.11,183,116.5,184.23Z"/><path class="cls-2" d="M116.5,184.23c-.15-1.16-9.2-.94-8.7.41-4.83-1.2-11.36.34-8.41,6.85.21.72,1.1,6.27.83,6.91-1.52,2.07,26.91.87,24.74,0,1.68,2.25,1.45-6.92-.63-7.68C125.92,185,121.11,183,116.5,184.23Z"/><path class="cls-2" d="M57,169.91c1.18,1.46-8.07.18-6.33.71-4.05-.1-6.64,3.81-8.6,6.86.24-1.32,2.34,2.55,1.14,3.58-.27-.3,19.57-1.56,18.46-.57,2.31.22,2.32-3.89,1.07-3C63.67,173.33,62.43,171.37,57,169.91Z"/><path class="cls-2" d="M57,169.91c1.18,1.46-8.07.18-6.33.71-4.05-.1-6.64,3.81-8.6,6.86.24-1.32,2.34,2.55,1.14,3.58-.27-.3,19.57-1.56,18.46-.57,2.31.22,2.32-3.89,1.07-3C63.67,173.33,62.43,171.37,57,169.91Z"/></g><g id="seats-5" data-name="seats"><path class="cls-2" d="M188.65,175.49c1.18-1.72-4.7-4.14-7.7-5.21.85.07-6.19.83-8.06,1.19-3.7-.71-6.27,2.65-4.15,4.93-1.42-.61-2.16,3.22-.36,3.89,1.05-.41,20.62-.13,19.07,1.26C189,180.88,189.05,175.73,188.65,175.49Z"/><path class="cls-2" d="M188.65,175.49c1.18-1.72-4.7-4.14-7.7-5.21.85.07-6.19.83-8.06,1.19-3.7-.71-6.27,2.65-4.15,4.93-1.42-.61-2.16,3.22-.36,3.89,1.05-.41,20.62-.13,19.07,1.26C189,180.88,189.05,175.73,188.65,175.49Z"/><path class="cls-2" d="M213.8,177.21c.9-3.47-2.65-6.24-7-6.24-.43-.82-8.3-.67-6.42,0-5.58-.71-7.83,2.18-5.51,6.24-.08-.07-1.77,4.09-.07,3.16-2,.72,17.22.25,19.47,1.16C213.63,180.85,215.15,175.94,213.8,177.21Z"/><path class="cls-2" d="M213.8,177.21c.9-3.47-2.65-6.24-7-6.24-.43-.82-8.3-.67-6.42,0-5.58-.71-7.83,2.18-5.51,6.24-.08-.07-1.77,4.09-.07,3.16-2,.72,17.22.25,19.47,1.16C213.63,180.85,215.15,175.94,213.8,177.21Z"/><path class="cls-2" d="M149.47,184.63c3.31-1.85-10.95-.17-7.77-2.68-7.56-.47-12,3.25-11.3,10.5-.89-1.53,3.91,5.9-.42,6,3.6-.3,30.86,1.25,31.2.7-3.34-.91-.42-8.59-1.91-7.45C159.29,186,155.74,181.51,149.47,184.63Z"/><path class="cls-2" d="M149.47,184.63c3.31-1.85-10.95-.17-7.77-2.68-7.56-.47-12,3.25-11.3,10.5-.89-1.53,3.91,5.9-.42,6,3.6-.3,30.86,1.25,31.2.7-3.34-.91-.42-8.59-1.91-7.45C159.29,186,155.74,181.51,149.47,184.63Z"/><path class="cls-2" d="M185.5,183.46c-1.13-.63-15.13.25-11,.41-7.11-1.71-8.47,2.1-7.34,7.82-2.21-2.37-1.42,7.26-3.73,8.55,2.77-2.34,29.5-1.27,26.49,0,2.28-2.35,1.95-9.2-.05-9.43C193.35,188.19,190.17,184.75,185.5,183.46Z"/><path class="cls-2" d="M185.5,183.46c-1.13-.63-15.13.25-11,.41-7.11-1.71-8.47,2.1-7.34,7.82-2.21-2.37-1.42,7.26-3.73,8.55,2.77-2.34,29.5-1.27,26.49,0,2.28-2.35,1.95-9.2-.05-9.43C193.35,188.19,190.17,184.75,185.5,183.46Z"/><path class="cls-2" d="M216.11,184.84c-.53-1-9.08-1.66-12.44-1.77-.07,1-4.42,3.31-5.48,6.15-.15,2.91-1.61,8.86,1.81,8.3-1,1.18,25.69.95,24.84,2.4,1.41,0,2.45-10.22-1-9.37C223.22,186.39,222.27,183.27,216.11,184.84Z"/><path class="cls-2" d="M216.11,184.84c-.53-1-9.08-1.66-12.44-1.77-.07,1-4.42,3.31-5.48,6.15-.15,2.91-1.61,8.86,1.81,8.3-1,1.18,25.69.95,24.84,2.4,1.41,0,2.45-10.22-1-9.37C223.22,186.39,222.27,183.27,216.11,184.84Z"/><path class="cls-2" d="M159,170.74c.25.13-10.24-.58-10.32.15-3.27,0-3.6,2.19-4.14,5.41-2,1.16-.68,4-1.8,3.4,2.09.88,19.06.11,21.09,1.17-2-.9,1.23-3.39.79-5.22C164.23,172.86,159.94,170.74,159,170.74Z"/><path class="cls-2" d="M159,170.74c.25.13-10.24-.58-10.32.15-3.27,0-3.6,2.19-4.14,5.41-2,1.16-.68,4-1.8,3.4,2.09.88,19.06.11,21.09,1.17-2-.9,1.23-3.39.79-5.22C164.23,172.86,159.94,170.74,159,170.74Z"/><path class="cls-2" d="M132.59,170.45c-.75-.16-6.49-.19-8.94.91-3,.43-5.83,1.77-5.37,5-.76.72-.7,5,.59,4.19,1,.72,18.42,1,20.16-.86-1.58,1.52,1-3.25,0-2.42C136.91,173.53,136.43,171.09,132.59,170.45Z"/><path class="cls-2" d="M132.59,170.45c-.75-.16-6.49-.19-8.94.91-3,.43-5.83,1.77-5.37,5-.76.72-.7,5,.59,4.19,1,.72,18.42,1,20.16-.86-1.58,1.52,1-3.25,0-2.42C136.91,173.53,136.43,171.09,132.59,170.45Z"/></g></g><g id="seats-6" data-name="seats"><g id="seats-7" data-name="seats"><path d="M88.29,178.69c-.79-3.51-3.29-6.07-7.35-5.54,1.85-.73-8.12-.74-7.84-.75-2.91.64-5.61,3.23-4.79,6.2-1.59.31-.68,3.88-2.1,3.71,2.21-.17,22.17-.29,22.27-.07C86.4,182.31,88.47,178.81,88.29,178.69Z"/><path d="M112.42,178.83c1-3.7-2.24-6-6.35-5.7.85-.08-9,.05-7.74-.08-4.28-.1-5.88,2.47-5.49,5.11.72-.08,0,4-1.52,4.19.7.48,21.14-.06,21.32-.12C113.58,182.14,112.91,178.12,112.42,178.83Z"/><path d="M51.1,185.06c-.88.23-12-.36-11.25,0-5.72-.47-9,3.56-10.1,7.82.88.27,1.42,9.07,2.14,8.55-1.88.47,26.88.41,25.34-.06,2.43.08.73-9.21,1.12-8.34C57.26,188.58,55.39,184.33,51.1,185.06Z"/><path d="M84.44,185c-2,.55-13.32.8-11.91.52-6-.92-7.79,3.52-8.5,6.66-1.54.29-.69,8.31.78,8.27-2.06.26,25.79.12,25.28.85,2.48-.9,0-8.33-.43-8.43C92.17,188.12,87.25,184.27,84.44,185Z"/><path d="M118,185.12c-2-.57-11.74.24-13.83,0-3.1-.74-6.18,3-7.56,8.1-1-.62,1.15,7.92-1,7.33,1.6.19,29.08,1.07,28.18.22.7.65.86-7.92.24-8.36C124.37,188.74,119.68,184.53,118,185.12Z"/><path d="M56.52,172.54c.4.42-8.55-.11-8.15.14-3.14-.11-6.56,2.58-5.84,6.08-1.17-.39-.59,3.8-.42,3.34.53.64,20.87.46,20.62.25-.81,0-.26-3.53-.83-3.61C63.13,175.24,58.88,173,56.52,172.54Z"/></g><g id="seats-8" data-name="seats"><path d="M188.12,178c0-2.55-4.43-5.15-5.56-4.9-1.71,0-9.2-.37-9.87-.51-2.12.53-5.46,3-6.29,6.1.16-.43.84,3.85.72,3.66,1.19.12,21.28.12,20.62,0C188.29,182.79,187.86,178.92,188.12,178Z"/><path d="M213.54,178.08c-1.45-3.08-3.16-5.55-6.43-5.37.64.07-8.33,0-8.62.46-3.31-.68-7,2.35-5.61,4.94-.86,0-.8,4.78.31,4.39-1.34-.13,20-.34,18.47.24C212.63,182.76,213.13,178.65,213.54,178.08Z"/><path d="M151.4,185.31c-1.38-.17-12-.64-11.81.13-6.33.12-7.11,3.88-9.25,7.92.45-.85,1.82,8.23,1.38,7.24-2,1.3,26.42,1.14,27.38-.19-.35.74-.93-8-2.27-6.79C159.35,189,154.11,184.88,151.4,185.31Z"/><path d="M182.87,184.31c.69.47-11.29.52-9.91.87-6.93-.26-9.79,4-10.5,7.8.82.17,1.55,8.07,2.91,8-2.45,0,25.59.36,25.6.34-1.33.18-1.15-8.78,1.7-8C192.19,188.1,186,184.54,182.87,184.31Z"/><path d="M215.26,185.29c0-.7-11.85-1-11.59-.83-3.1.86-6.93,4.79-5.36,8.93-1.95-.44-.64,8-.49,8.24.48-.1,27.36.19,27.16-1.11.53,1.09.55-7.45-1.21-7.75C224.69,189.2,222,184.83,215.26,185.29Z"/><path d="M157.55,172.38c-1.06.51-10,.87-8.81.57-3-.5-6,2.11-6.78,5.51.64.42-.5,4.11.12,3.87.79.59,20.94.3,20.74-.2-.06-.06.57-3.25,0-3.57A8.28,8.28,0,0,0,157.55,172.38Z"/><path d="M133,172.34c-1.66,0-9.81.48-9.75.85-4.2-.2-4.62,1.83-6,4.87.16.5-.62,4.84.41,4.09,1,.27,19.09-.16,19.38-.07-.37-.1,1.7-4,1.6-3.47C138.39,175.44,135.15,172.82,133,172.34Z"/></g></g><g id="comedy_tradegy" data-name="comedy tradegy" class="cls-5"><path d="M126.38,89.36c1.73-1.64-3.87,5.09-2.14,5.09,1.76-1.77,1.79,26.72,2.14,21.28-.47,2.91-1.68.48-3.82.5-1.43,1.33-2.22-1.57-3.83-.5.4,5.74,1.52-17.82,2.15-21.28,1.6-5.41-1.65-2.65-2.15-5.09.08-4.87-6.77-4.25-6.52.71-.25-2.92.28-12.44,0-17.57,1.17-3.59-17.84,3.88-16.91-1.84-2-.72-.58,1.92-2.15,5.1C94.5,79.33,95,93.11,95.3,97c-.41,5.68-2.39,4.69-3.78.5.6.39-5.5-4.36-3.78-.5-.58-1.24,1.09-14.74,2.15-21.27,1.46-4.13-1.25-9.51-2.15-5.1-.26.22-18.25,1.08-16.9,1.84,2.07-.09.88,7.21,0,20.35-2.14,20,15.73,22.88,20.61,26.33-.33.42,1.69-5.57,0,0,1.22,5.59-.18-3.93.07,0,0,3.46-2-1.5.08,0,.56,4.14-.63-5.2,0,0,.7.54,8.15,1.2,10.37-4.67,3,12.52,16.22,26.67,20.56,23.39-1-1-.26-1.08,0,0,1.38.84,1.6,1.32,0,0-1.61,4.07-2-4.31,0,0,1.22,1.2-2.15,4.52,0,0,8.72,2.18,19.09-7.05,20.71-26.36-.29-4.91,1.62-18.48,0-20.34C143.53,96.47,124.23,85.08,126.38,89.36ZM97.3,85.26c.66-2,4.14-4,8.33-1.94,2.41.74,2.88,5.51,1.8,5.81-1.19,1.17-2.08-1-4.3-1.92S96.57,86.62,97.3,85.26ZM75.61,89.13c-.87-1-.59-4.15,1.81-5.81,4.2-2.92,7.87.7,8.33,1.94.34,2.11-3.61,1-5.83,1.95S76.42,89.55,75.61,89.13Zm16,20.54c.56-.23-.64.48-.08,0,.58-.73-.16.75-.07,0-.16.4.73,0,0,0-10,.1-13.78-7.92-14.33-7.78.14.8,1.76-1.51,2-1.5.54-.26,4.91,5.32,12.42,5,4.68-.69,8.13-2.54,10.31-3.3-.09,2.11.09,3.36,0,4-2,1.3-6.11,4.29-10.23,3.53C90.9,109.56,90.86,109.08,91.6,109.67Zm16.89-2.19a18.44,18.44,0,0,0,1.86-3.88c.8-.63,1.12.36,1.59-.41,1.85-.63,3.43-2.79,4.31-1.92s.53,4.4-1.81,5.81C112.31,109,109.83,107.76,108.49,107.48Zm23.72,18.79c-1.57-1.54-6.08-2.44-9.68-2.83-3.58-.59-7.63,2.08-9.68,2.83-2,1.46-3.14-.79-2-2.46a17.5,17.5,0,0,1,11.72-4.64c.13.63-.21,0,0,0,.55-.21.18.27,0,0a13.52,13.52,0,0,1,11.73,4.64C136,126.12,133.29,126.93,132.21,126.27Zm6.7-21.13c-.16,1.63-4.65,4.68-8.33,1.94-1.89-1.85-3-4.38-1.81-5.81,1.06-.57,2.72,1,4.31,1.92S139,102.88,138.91,105.14Z"/></g><g id="hamlet"><path d="M188.25,114.84c-.61.26-.32-.67-.86-.7-.56-1.76,0,2.13-.84.59-.73.22-.84.73-.78,3.33.63,1.87-4.58-3.08-4.64-1.91.1-2.37-8-.45-8.5.56.32,1.39-11.37,8.6-10.73,10.7-.42-.42.42,1.32,0,0,.39-2-.9.11-.19.43.49,1.7.78.28.86.69-.23-.13.92,1.39.59-.2.57-.36.36.12,0,0-.53,1.26,8.72-7.87,9.46-7.3.59.52,1.47,4.37,1.24,6.31-.74,1.3,0,.78,0,0,.22-1.72-4.11,15.82-3.83,18.67-.33,1.6.5-.5.58.77,0,2.48,1.27.17.93-.47-.65-1.95,6.48-16.91,6.08-14-.38.29.11-2.76,0,0-.71-2.92.16-1.88,0,0-.41-2.29,5.92,14.64,6.08,14,.09-2.77.68.18.93.47,1.11.29,1.24.75.58-.77-.39,1-3.6-16.16-3.83-18.67-.2-2.82,1.65-4.36,1.25-7.15-.52-2,4.47,3.91,4.16,1.35.26,1.86.87,2.69,1.09-.47,1.12.78.86-5.91.35-6.22.37,2.51.49.49,0,0C188.54,113,187.56,113.87,188.25,114.84Z"/><path d="M176.93,109.12a3.35,3.35,0,0,0-3.2,3.19,3.22,3.22,0,0,0,3.17,3.2,4.17,4.17,0,0,0,3.2-3.19A3.22,3.22,0,0,0,176.93,109.12Z"/><path d="M187.4,109c-.07-.06-.34-.25-.45-.07-1.08-.32-2,1-2.32,1.71.06.08,0,.51,0,.3s-.58,1.06-.6.88.45.63.37.23c0,.17-.5,2.1-.44,1.73.12,0,2.05.92,2,.49,0,.31.24-.68.23-.93.21-.27.27,0,.18.07a2.89,2.89,0,0,0,2.77-1.65C189.24,110.4,188.51,109.06,187.4,109ZM186,111.48a.73.73,0,0,1-.68-.69c0-.45.32-.58.68-.68a.7.7,0,0,1,.68.69A.78.78,0,0,1,186,111.48Z"/><path class="cls-2" d="M188.25,114.84c-.61.26-.32-.67-.86-.7-.56-1.76,0,2.13-.84.59-.73.22-.84.73-.78,3.33.63,1.87-4.58-3.08-4.64-1.91.1-2.37-8-.45-8.5.56.32,1.39-11.37,8.6-10.73,10.7-.42-.42.42,1.32,0,0,.39-2-.9.11-.19.43.49,1.7.78.28.86.69-.23-.13.92,1.39.59-.2.57-.36.36.12,0,0-.53,1.26,8.72-7.87,9.46-7.3.59.52,1.47,4.37,1.24,6.31-.74,1.3,0,.78,0,0,.22-1.72-4.11,15.82-3.83,18.67-.33,1.6.5-.5.58.77,0,2.48,1.27.17.93-.47-.65-1.95,6.48-16.91,6.08-14-.38.29.11-2.76,0,0-.71-2.92.16-1.88,0,0-.41-2.29,5.92,14.64,6.08,14,.09-2.77.68.18.93.47,1.11.29,1.24.75.58-.77-.39,1-3.6-16.16-3.83-18.67-.2-2.82,1.65-4.36,1.25-7.15-.52-2,4.47,3.91,4.16,1.35.26,1.86.87,2.69,1.09-.47,1.12.78.86-5.91.35-6.22.37,2.51.49.49,0,0C188.54,113,187.56,113.87,188.25,114.84Z"/><path class="cls-2" d="M188.25,114.84c-.61.26-.32-.67-.86-.7-.56-1.76,0,2.13-.84.59-.73.22-.84.73-.78,3.33.63,1.87-4.58-3.08-4.64-1.91.1-2.37-8-.45-8.5.56.32,1.39-11.37,8.6-10.73,10.7-.42-.42.42,1.32,0,0,.39-2-.9.11-.19.43.49,1.7.78.28.86.69-.23-.13.92,1.39.59-.2.57-.36.36.12,0,0-.53,1.26,8.72-7.87,9.46-7.3.59.52,1.47,4.37,1.24,6.31-.74,1.3,0,.78,0,0,.22-1.72-4.11,15.82-3.83,18.67-.33,1.6.5-.5.58.77,0,2.48,1.27.17.93-.47-.65-1.95,6.48-16.91,6.08-14-.38.29.11-2.76,0,0-.71-2.92.16-1.88,0,0-.41-2.29,5.92,14.64,6.08,14,.09-2.77.68.18.93.47,1.11.29,1.24.75.58-.77-.39,1-3.6-16.16-3.83-18.67-.2-2.82,1.65-4.36,1.25-7.15-.52-2,4.47,3.91,4.16,1.35.26,1.86.87,2.69,1.09-.47,1.12.78.86-5.91.35-6.22.37,2.51.49.49,0,0C188.54,113,187.56,113.87,188.25,114.84Z"/><path class="cls-2" d="M176.93,109.12a3.35,3.35,0,0,0-3.2,3.19,3.22,3.22,0,0,0,3.17,3.2,4.17,4.17,0,0,0,3.2-3.19A3.22,3.22,0,0,0,176.93,109.12Z"/><path class="cls-2" d="M176.93,109.12a3.35,3.35,0,0,0-3.2,3.19,3.22,3.22,0,0,0,3.17,3.2,4.17,4.17,0,0,0,3.2-3.19A3.22,3.22,0,0,0,176.93,109.12Z"/><path class="cls-2" d="M187.4,109c-.07-.06-.34-.25-.45-.07-1.08-.32-2,1-2.32,1.71.06.08,0,.51,0,.3s-.58,1.06-.6.88.45.63.37.23c0,.17-.5,2.1-.44,1.73.12,0,2.05.92,2,.49,0,.31.24-.68.23-.93.21-.27.27,0,.18.07a2.89,2.89,0,0,0,2.77-1.65C189.24,110.4,188.51,109.06,187.4,109ZM186,111.48a.73.73,0,0,1-.68-.69c0-.45.32-.58.68-.68a.7.7,0,0,1,.68.69A.78.78,0,0,1,186,111.48Z"/><path class="cls-2" d="M187.4,109c-.07-.06-.34-.25-.45-.07-1.08-.32-2,1-2.32,1.71.06.08,0,.51,0,.3s-.58,1.06-.6.88.45.63.37.23c0,.17-.5,2.1-.44,1.73.12,0,2.05.92,2,.49,0,.31.24-.68.23-.93.21-.27.27,0,.18.07a2.89,2.89,0,0,0,2.77-1.65C189.24,110.4,188.51,109.06,187.4,109ZM186,111.48a.73.73,0,0,1-.68-.69c0-.45.32-.58.68-.68a.7.7,0,0,1,.68.69A.78.78,0,0,1,186,111.48Z"/></g><g id="hamlet-2" data-name="hamlet"><path d="M187.31,115.77c-.6.26-.31-.67-.85-.69-.56-1.77,0,2.12-.84.58-.73.22-.84.73-.78,3.33.63,1.87-4.58-3.08-4.64-1.91.1-2.37-8-.45-8.5.56.32,1.39-11.37,8.6-10.73,10.71-.42-.43.42,1.31,0,0,.39-2-.9.11-.19.43.49,1.7.77.28.86.69-.23-.13.92,1.39.59-.2.57-.36.36.12,0,0-.53,1.26,8.72-7.87,9.46-7.3s1.47,4.38,1.24,6.31c-.75,1.3,0,.78,0,0,.22-1.72-4.12,15.82-3.83,18.67-.33,1.6.5-.5.58.77,0,2.48,1.27.17.93-.47-.65-1.94,6.48-16.91,6.08-14-.38.29.11-2.76,0,0-.71-2.92.16-1.88,0,0-.41-2.29,5.92,14.64,6.08,14,.08-2.77.68.18.93.47,1.11.29,1.24.75.58-.77-.39,1-3.6-16.16-3.83-18.67-.2-2.82,1.65-4.36,1.25-7.15-.52-2,4.47,3.91,4.16,1.35.26,1.86.87,2.69,1.09-.47,1.12.78.86-5.91.34-6.22.38,2.51.5.49,0,0C187.61,113.89,186.63,114.81,187.31,115.77Z"/><path d="M176,110.05a3.35,3.35,0,0,0-3.2,3.19,3.22,3.22,0,0,0,3.17,3.2,4.17,4.17,0,0,0,3.2-3.19A3.22,3.22,0,0,0,176,110.05Z"/><path d="M186.47,109.92c-.07,0-.34-.25-.45-.07-1.08-.32-2,1-2.32,1.71.06.08,0,.51,0,.3s-.58,1.06-.6.88.45.63.37.23c0,.17-.5,2.1-.44,1.73.12,0,2.05.93,1.94.49,0,.31.25-.68.24-.93.21-.27.27,0,.18.07a2.9,2.9,0,0,0,2.77-1.65C188.31,111.33,187.58,110,186.47,109.92ZM185,112.41a.73.73,0,0,1-.68-.69c0-.45.32-.58.68-.68a.71.71,0,0,1,.68.69A.78.78,0,0,1,185,112.41Z"/></g><rect id="frame-2" data-name="frame" class="cls-6" x="1" y="1" width="342" height="234" rx="18"/></g></g></g></g></svg>