<svg xmlns="http://www.w3.org/2000/svg" xmlns:xlink="http://www.w3.org/1999/xlink" viewBox="0 0 344 236"><defs><style>.cls-1{stroke:#000;stroke-width:2px;fill:url(#linear-gradient);}.cls-1,.cls-3{stroke-miterlimit:10;}.cls-2{fill:#3eade2;}.cls-3{fill:none;stroke:#fff;stroke-width:3px;}</style><linearGradient id="linear-gradient" x1="172" y1="1" x2="172" y2="235" gradientUnits="userSpaceOnUse"><stop offset="0" stop-color="#6153a2"/><stop offset="0.02" stop-color="#786cb0"/><stop offset="0.06" stop-color="#9c93c5"/><stop offset="0.1" stop-color="#bbb5d7"/><stop offset="0.15" stop-color="#d4d0e5"/><stop offset="0.19" stop-color="#e7e5f1"/><stop offset="0.25" stop-color="#f5f4f9"/><stop offset="0.31" stop-color="#fdfcfe"/><stop offset="0.41" stop-color="#fff"/><stop offset="0.52" stop-color="#fcfeff"/><stop offset="0.6" stop-color="#f3fbfd"/><stop offset="0.67" stop-color="#e4f6fa"/><stop offset="0.73" stop-color="#ceeff7"/><stop offset="0.79" stop-color="#b2e6f2"/><stop offset="0.85" stop-color="#90dbec"/><stop offset="0.9" stop-color="#67cee5"/><stop offset="0.95" stop-color="#38bfdd"/><stop offset="1" stop-color="#04aed4"/><stop offset="1" stop-color="#00add3"/></linearGradient></defs><g id="Layer_2" data-name="Layer 2"><g id="blue"><g id="zombie_apolcalypse" data-name="zombie apolcalypse"><g id="zombies_new" data-name="zombies new"><rect id="frame" class="cls-1" x="1" y="1" width="342" height="234" rx="18"/><g id="buidlings"><path class="cls-2" d="M221.39,197.82c-4.57,3.74-15-1.23-15.62-.73,10.2,5.59-1.52-24.26,8.14-32,1.54,2.25-2.37-107.49-3.44-113.35-.58-2.85-2.75,1.74-6.72,3.48,3.75-.5-10.36-11.17-7.29-2.61,1.31.13,2.54-14.2-4.35-10.07,7.34-7.5,1.48-7.38,6.32-7.84-4.92,7.52-3.29.18-13.42,8.65,11.71,3,8.93,13.33-.49,1.53,10,5.51-6.92,2-9.27,5.31,5.67,4.53-.31,6.77-.19-1.28-2.51,5.14,3.62,75.84-1.94,71.86.4,9.23-9,6.56-12.43.52-.35,3.8-5.27-80.36-.08-83.85,1.82-5.36-6.77,2.4-5.73.93,0-2.69-28.75,2.37-21.63,1.42-10.49-7.35-4.26-9.69-10-6.67.8,9.8-2.47,107.05,3.38,111.37,5,4.42-6.7,8.47-4.38,7.34,1.12-3.62-.44-60.91,5.87-62.21-4.4,5-6.7-3.1-3.2,1.9-5.62-2.14-14.56-7.25-15.35-4.05,6.18,4.15-1.94-47.67-4.72-47,4.54,1.63,9.41,1,5.5,3.37-6.26,5.67-13.33-4.47-16.1-1.6-7,7.82.42-9.43-4.13-4.43-3.58-7.72-1.73-12.55-5.61-13.33,1,2.21,2.19,7.77-1.92,14.26,7.07-11.93,8.74,3,5.2,2.07C85.89,43.71,69.93,45.15,74,44.12c5.12-1.9-2.71-6.73,3.21,5.23-4.84-.21-7,153.79-10.72,146.67,1.13-3.73-2.31,5.28-6.29-5.41,6.07,3.14,2.54,3.2.27,8.35-4,3.92,1.46,6.78-.49,3.1,10.34,4.8,152.82-3.11,158.2-.72-.79-3.48-6.65-5.84-1.67-4.28C213.24,194.19,213.86,203.41,221.39,197.82Zm-39.75-.66c-.72.84-1.6-26.48-1.69-26.37,1.63-5.65,5.24-12.19,13.69-13.93,7.15.5,12,8.17,11.83,13.76-.09-.32-.28,27.13-.69,27.52C205.38,198,180.25,198.42,181.64,197.16ZM206.42,55.27c-.73,2.25-1.6,103.12-1.7,103.42-1.47,0-7.62-4.31-11.08-9-4.52,1.36-9.67,8.72-12.94,8.52-.09-.86-.29-29.44-.69-28.39.6-.3.32-6.73.81-1.57.21.07.41-74.33-.69-71.83C181.3,52.77,205,58.64,206.42,55.27ZM176.87,171.1c-.72,1.47-1.58,25.72-1.68,25.92,1.61,2.2-.24.76,1.29-2.29.24.88-24.91,4.29-25.08,2-.09-.56-.28-66.26-.69-65.57.6-.2,24.86-4.41,25.35-1C176.26,130.16,175.49,173.3,176.87,171.1Zm-29.35,26.05c-.68.8-24.85-.26-24.94-.16,1.54,1.2-.23-24.59,1.23-26.25.23-6.19,4.88-9.58,11.15-10.83,6.34-.31,11.4,6.36,11,13.16C146.54,173,146.21,198.35,147.52,197.15ZM132.1,40.75C131.37,43,155,40,154.94,40.3c1.63,3.44-.24,85,1.3,80.29.24,1.38-7.05,6.69-7.22,3.09-1.52-.87-2.67,3.48-3.08,6,.6-.31.33,12.68.82,17.93.21.08-15.32-2.43-16.42.11,1.17-3.73.39-108.84,1.39-109.12C131.17,43.2,130.71,44.18,132.1,40.75ZM147.52,151c-.68.2-1.5,9.22-1.59,9.25-1.57-2.8-7.38-4.9-10.45-5.32-4.3.12-9.17,2.5-12.19,5.28-.09-.08-.27-9.07-.65-9C123.2,151.25,146.21,151.34,147.52,151Zm-28.3,46.43c-.72,2.2-26.12-.72-26.21-.43,1.61,3.3-.24-100.34,1.29-104.9.24,1.33,24.16,6.43,24,3C118.2,94.27,117.85,200.76,119.22,197.47Zm-41-148.65c-.85,3.23,27.19-1.06,27.08-.63,1.91,4.83-.29,44.31,1.52,37.63.29,1.94-15,9.41-15.17,4.35-1.54-1.22-2.72,4.51-3.2,7.44.7-.43.38,94,1,101.37.24.11-11.68-3.42-13,.15C77.79,193.89,76.56,53.65,78.19,48.82Z"/><path class="cls-2" d="M100.3,126.89a2.1,2.1,0,0,0,2.32-2.67c.22-.14.07-4.22.24-3.9a2.48,2.48,0,0,0-2.37-2.42c-1.5,0-2.31,1.16-2.62,2.61.3-.18,0,3.63.09,3.91C98,125.87,99,126.52,100.3,126.89Z"/><path class="cls-2" d="M111.72,126.91a2.44,2.44,0,0,0,2.57-2.48c0-.41-.23-4.34,0-3.88,0-2-1-2.75-2.3-2.45-1.73-.23-2.45.49-2.49,1.88-.13,0-.13,4.63-.24,4.39A2.91,2.91,0,0,0,111.72,126.91Z"/><path class="cls-2" d="M100.23,143.1a2.17,2.17,0,0,0,2.68-2.24c0-.07-.33-4.29-.2-3.87-.11-1.67-1-2.79-2.18-2.64-1.66-.35-2.72.62-2.39,2.48-.28-.18,0,3.67-.11,4A2.1,2.1,0,0,0,100.23,143.1Z"/><path class="cls-2" d="M111.79,143.13a2.37,2.37,0,0,0,2.3-2.06c.16-.14,0-4.32.26-4,0-1.88-1-2.79-2.54-2.39a1.72,1.72,0,0,0-2.24,2c-.31-.17-.19,4.25-.24,4C109.45,142.48,110.66,143.34,111.79,143.13Z"/><path class="cls-2" d="M100.43,109.7a2.18,2.18,0,0,0,2.51-2.13,33.19,33.19,0,0,1-.09-4.24,2.4,2.4,0,0,0-2.63-2.17,2.22,2.22,0,0,0-2.11,2.08c-.18.12-.21,4.45-.23,4.16C98.09,109.32,98.86,110,100.43,109.7Z"/><path class="cls-2" d="M111.92,109.77c1.31.43,2.28-.82,2.2-2.18a37.17,37.17,0,0,1,.11-4.22,2.62,2.62,0,0,0-2.48-2.29,2.87,2.87,0,0,0-2.44,2.78c0-.07.1,3.66.17,3.56C109.39,109.34,110.59,110.25,111.92,109.77Z"/><path class="cls-2" d="M100.3,159.74c1.52-.24,2.32-.81,2.62-2.14a21.78,21.78,0,0,1-.09-4.1,2.46,2.46,0,0,0-4.91-.35c0,.55,0,4.58.26,4C98,159.2,98.76,160.14,100.3,159.74Z"/><path class="cls-2" d="M111.88,160a2.16,2.16,0,0,0,2.33-2.32,23.3,23.3,0,0,0-.17-4.44,2.34,2.34,0,0,0-2-2.38c-1.58.08-2.66.78-2.49,2.4-.24-.07,0,3.84-.2,4.13C109.28,159.08,110.7,159.66,111.88,160Z"/><path class="cls-2" d="M100.19,176.45c1.72-.24,2.51-1.2,2.4-2.26a33.71,33.71,0,0,0,.26-4.17c.06-1.6-.95-2-2.3-2-1.69-.57-2.52.3-2.57,2A22.17,22.17,0,0,1,98,174C97.83,175.08,98.87,176.66,100.19,176.45Z"/><path class="cls-2" d="M111.81,176.2c1.42,0,2.43-.77,2.48-1.75,0-.43-.11-4.67-.13-4.64,0-1.35-1-2-2.53-1.95a2.24,2.24,0,0,0-2.26,2.4,34.66,34.66,0,0,1,0,3.55A2.76,2.76,0,0,0,111.81,176.2Z"/><path class="cls-2" d="M100.21,193.24c1.77-.58,2.71-1.51,2.54-2.8a28.08,28.08,0,0,1-.07-4.28c0-1.3-1-1.82-2.42-2.35-1.17.42-2.36,1.42-2.2,2.77-.2.18.11,3.72,0,3.65A2.87,2.87,0,0,0,100.21,193.24Z"/><path class="cls-2" d="M111.75,193.13c1.46-.22,2.61-.92,2.36-2.91,0,.37-.1-4,0-3.94a2.25,2.25,0,0,0-2.46-2.3c-1.15.47-2.15.91-2,2.18-.28.64,0,4.67-.19,4.19C109.45,191.84,110.57,193.16,111.75,193.13Z"/><path class="cls-2" d="M137.47,64.14a2.33,2.33,0,0,0-2.37,2.35c.22-.1,0,4.06,0,3.41,0,1.94.87,2.5,2.5,2.41a1.91,1.91,0,0,0,2.42-2c-.09-.4,0-4.11-.28-3.89C140,65.18,138.69,64.25,137.47,64.14Z"/><path class="cls-2" d="M149.15,72.47a1.93,1.93,0,0,0,2.21-2,21,21,0,0,1,0-4A2.32,2.32,0,0,0,149,63.84a2.42,2.42,0,0,0-2.36,2.32,18.89,18.89,0,0,0,0,3.78C146.49,71.6,147.78,72.35,149.15,72.47Z"/><path class="cls-2" d="M137.66,79.62a2.42,2.42,0,0,0-2.45,2.24c-.19.31.11,3.94,0,4-.25,1.64,1,2.27,2.37,2.55,1.32,0,2.26-1.14,2.39-2.77a22.2,22.2,0,0,0-.24-3.81C140,80.39,138.59,79.77,137.66,79.62Z"/><path class="cls-2" d="M149.15,88.05c1.28.61,2-.68,2.3-2.11a31.56,31.56,0,0,1-.06-4.08c0-.85-1.15-2.18-2.23-1.91A2,2,0,0,0,146.74,82a18,18,0,0,0-.19,4.25C146.56,87.65,147.72,88.12,149.15,88.05Z"/><path class="cls-2" d="M137.68,47.78a2.64,2.64,0,0,0-2.62,2.92,20.29,20.29,0,0,1,0,3.5,1.9,1.9,0,0,0,2.34,2.13,1.83,1.83,0,0,0,2.39-1.87c.13,0,.16-3.91.34-3.93A3.8,3.8,0,0,0,137.68,47.78Z"/><path class="cls-2" d="M149,56.41a2.15,2.15,0,0,0,2.35-2,18,18,0,0,0-.06-4.2c.24-.94-.93-2.11-2.48-1.88a1.6,1.6,0,0,0-2.11,1.87c-.29.5-.12,4.35-.28,4.29A2.25,2.25,0,0,0,149,56.41Z"/><path class="cls-2" d="M137.46,95.73c-1.2-.45-2.4.41-2.36,2a35.85,35.85,0,0,1,0,4.16c-.08.94.87,1.84,2.47,2.14a2.55,2.55,0,0,0,2.4-2.68c.13.25,0-3.57.09-3.5C139.87,96.82,138.67,95.19,137.46,95.73Z"/><path class="cls-2" d="M149,103.92c1.54.18,2.28-1,2.53-2.54a17.82,17.82,0,0,1-.13-3.64c.05-1.1-1-1.93-2.5-2.27a2.92,2.92,0,0,0-2.39,2.27,22.67,22.67,0,0,1,.08,3.89A2.44,2.44,0,0,0,149,103.92Z"/><path class="cls-2" d="M137.43,111.49c-1.48-.53-2.25.71-2.35,2.26.24,0,.18,3.58.27,3.52a2.35,2.35,0,1,0,4.65,0,24.25,24.25,0,0,1-.11-3.91C139.78,112.12,138.86,111,137.43,111.49Z"/><path class="cls-2" d="M149.1,120.24c1.32.1,2.14-.89,2.2-2.72-.12,0,.24-3.7.15-3.54a2.76,2.76,0,0,0-2.44-2.7c-1.38.13-2.53,1.15-2.43,2.26.14.46-.12,3.83.18,4.33C146.65,119.08,147.66,120,149.1,120.24Z"/><path class="cls-2" d="M187.19,84.89c1.47-.2,2.45-.6,2.64-2.35-.21.11-.09-3.51-.13-3.45.15-1.58-1.13-2.35-2.33-2.79a2.51,2.51,0,0,0-2.45,2.42c.13.09.09,3.83.18,4.24C184.78,83.73,185.79,85.08,187.19,84.89Z"/><path class="cls-2" d="M198.63,84.83c1.47.08,2.66-.74,2.37-2a15.51,15.51,0,0,0,.2-4.17,2.92,2.92,0,0,0-2.51-2.28,2.16,2.16,0,0,0-2.13,2.41c0-.3-.37,3.69-.35,3.58A2.19,2.19,0,0,0,198.63,84.83Z"/><path class="cls-2" d="M187.34,100.39c1.51.24,2.26-.91,2.43-2.14a33.75,33.75,0,0,1,0-3.75,2.28,2.28,0,0,0-2.35-2.36c-1.68-.26-2.38.87-2.36,2.36-.07-.1-.1,3.82-.06,3.66C184.93,100.06,186,100.5,187.34,100.39Z"/><path class="cls-2" d="M198.68,100.43c1.39.56,2.62-.36,2.53-2.18-.08-.07-.05-3.87-.17-3.49.06-1.94-1-2.43-2.42-2.4-1.17-.51-2.36.54-2.05,2.43-.37-.3-.2,3.33-.17,3.31C196.24,99.69,197.24,100.69,198.68,100.43Z"/><path class="cls-2" d="M187.36,69.22a2.52,2.52,0,0,0,2.32-2.57c0,.57,0-3.26,0-3.5a2.55,2.55,0,0,0-2.23-2.65c-1.51.23-2.32,1-2.36,2.35a23.74,23.74,0,0,0,0,4.16C184.87,67.88,186,69.55,187.36,69.22Z"/><path class="cls-2" d="M198.8,69.49c1.5-.36,2.38-1.22,2.36-2.52,0,0,0-3.89,0-4,0-1.51-.9-2-2.27-2.18-1.65-.37-2.5.57-2.44,2.3,0,.26-.27,4-.25,3.62C196.31,68.39,197.32,69.63,198.8,69.49Z"/><path class="cls-2" d="M187.32,116.8a2.84,2.84,0,0,0,2.57-2.56c-.37.24-.27-3.52,0-3.9-.1-1.52-1.13-2-2.45-2.24-1.7-.31-2.61.82-2.56,2.64a15.64,15.64,0,0,1-.08,3.82A3.28,3.28,0,0,0,187.32,116.8Z"/><path class="cls-2" d="M199,116.38c1.33.22,2.17-.45,2-2.19.24-.1.13-3.48.15-3.86.15-1.59-.81-2-2.38-1.94a2,2,0,0,0-2.42,1.86c.11,0,.21,3.93.25,3.93C196.24,115.16,197.33,116.36,199,116.38Z"/><path class="cls-2" d="M187.16,132.56c1.46-.05,2.39-1,2.39-2.86.34.3.28-3.18.33-3.74-.26-.86-1.2-2.42-2.44-2.28-1.47.3-2.47.89-2.67,2.61.19,0,.23,3.46.33,4A2.07,2.07,0,0,0,187.16,132.56Z"/><path class="cls-2" d="M198.61,132.55c1.68.1,2.41-1.14,2.34-2.85a33.6,33.6,0,0,0,.2-3.59A2.2,2.2,0,0,0,199,124c-1.74-.09-2.71.85-2.46,1.92-.22.09,0,4-.07,3.84C196.26,131.34,197.49,132.71,198.61,132.55Z"/><path class="cls-2" d="M187.4,148.17a2.68,2.68,0,0,0,2.37-2.74,32,32,0,0,1-.09-3.82,2.52,2.52,0,0,0-2.3-2.25c-1.63.07-2.51,1.12-2.4,2.88-.08-.57-.08,3.44-.15,3.51A2.93,2.93,0,0,0,187.4,148.17Z"/><path class="cls-2" d="M198.61,148a1.88,1.88,0,0,0,2.37-2.3,13.2,13.2,0,0,0,0-3.44,2.28,2.28,0,0,0-4.52-.65,20.27,20.27,0,0,0,0,4A2.11,2.11,0,0,0,198.61,148Z"/><path class="cls-2" d="M157.9,148.73a2,2,0,0,0,2.1-2.23c0-.31.1-4.4.33-3.83a2.33,2.33,0,0,0-2.53-2.49c-1.46-.37-2.57,1.15-2.3,2.55a17.82,17.82,0,0,0-.08,3.73C155.27,147.62,156.64,148.67,157.9,148.73Z"/><path class="cls-2" d="M169.55,148.59a2.59,2.59,0,0,0,2.26-2.48c-.1-.07-.13-3.78-.11-4,.08-.93-.78-1.88-2.38-2.12a2.11,2.11,0,0,0-2.35,2.11,41.34,41.34,0,0,1,0,4.32C167,147.59,168,148.47,169.55,148.59Z"/><path class="cls-2" d="M157.77,164.13a2.71,2.71,0,0,0,2.55-2.24c-.15,0-.21-3.68-.33-4,0-1.61-.79-2.12-2.34-2.65a2.63,2.63,0,0,0-2.3,2.68c-.12.12,0,4-.09,3.85C155.58,163.4,156.45,164.18,157.77,164.13Z"/><path class="cls-2" d="M169.52,164.12c1.23.28,2.49-1.17,2.4-2.46-.21.39,0-3.71-.12-3.46-.11-1.75-1-2.89-2.48-2.93s-2.25,1.29-2.37,3c.21-.59.27,3.39.16,3.35A2.39,2.39,0,0,0,169.52,164.12Z"/><path class="cls-2" d="M157.8,179.73c1.58.22,2.27-.53,2.34-2a34.66,34.66,0,0,1,.18-4.26c-.14-1.11-1.13-2.42-2.41-2.17-1.6-.11-2.52.59-2.55,2.18a16.07,16.07,0,0,1-.14,3.71A2.73,2.73,0,0,0,157.8,179.73Z"/><path class="cls-2" d="M169.37,179.64c1.45.46,2.59-.63,2.49-2.36a26.43,26.43,0,0,1,0-3.68c0-1.62-1.14-2.14-2.49-2.22a2,2,0,0,0-2.15,2.46c-.28-.37-.06,3.28-.24,3.36C167,179.11,168.12,179.84,169.37,179.64Z"/><path class="cls-2" d="M157.69,193.29a2.86,2.86,0,0,0,2.64-2.65c-.1.37,0-3.61-.33-3.27.36-1.28-.68-2.23-2.4-2.8a2.76,2.76,0,0,0-2.29,2.64,18.23,18.23,0,0,1,.07,3.39A2.9,2.9,0,0,0,157.69,193.29Z"/><path class="cls-2" d="M169.65,193.2c1.29.18,2.07-1,2.06-2.42.31.27-.05-3.48.25-3.86,0-1.32-1-1.85-2.49-2.13a2.54,2.54,0,0,0-2.52,2.66c.12,0,.07,3,.16,3.45A2.19,2.19,0,0,0,169.65,193.2Z"/></g><g id="buidlings-2" data-name="buidlings"><path class="cls-2" d="M217,189c-.32,5.46-2.7,7-.47,7.67.57-2.31,120.13-6.45,121.25-2.23,2.4-2.91,4.84-3.86,1.35-6.33-.29,3.28.48-.07-2.35.31,1.64,2.27-2.48,3.9-3.08-.74C330.84,191.05,330,67,331.45,69c-.78-4.47-.37-2.31,0-2.61-2.44,1-12.25-5.59-10.55-7-2.4,8-1.58-4.17-.4-6.62.4,2.76.71-3.15-3.62-4.63,2.3,2.1-.89,8.16.22,3.83-.47-1.7.32,7.18-.32,7.79-1.21.38-13.2.43-15.64,5.47,2.24-4.35.22-.29.08,2.74-.43-2.29-1.1,36.42,2.36,35-1.79-4-8.06-2.26-9.48-1.08-2.14-.54-4.87-1.4-4.84-.1,1.46.1,4.14,42.38,4.27,43.91-2.88,3.67-6-1-5.92,6,3.6-1.38,3.17-95,2.41-91-.11-.84-1.14-1.45-4.91-4.82,0,1.92-20.47,4-23.71,0-1.27,1-1.85,1.36-1.91,4.82,1.06-4.21,4,66.89,3.23,69.83,1.22.08-14,1-11.78,2.88-2.51-2.78-1.37-66.13.08-62.69-3.76-.15-5.05-4.26-2.65-5.77-1.07,2.17-10.57,6.07-10.66,2.76,1.27-.65-.59-7-2.74-11.31,2.86,6.7,1.79,2.39,2.23-1.07-1.75,4.79-2.33,4.6-5,3.65,1.46,3.68-.34,9.92,1.22,5.89,2.07,4-12,8-12.14,2.64,2.71,2.36.14,4.58-1.79,3.74,2.78-4.18,3.71,93.13,1.59,93.29,1.63,6-.59,23.74-1.62,28.05-.26,1.23-2.89.83.17-2.72C218.19,193.6,218.07,191.62,217,189Zm8.92.19c0,1-.56-20.42-.38-20.27.09-6.21,4.39-11.85,10.23-10.9,5.87-.65,10.63,4,10.06,9.41-.05,1,.2,22-.07,22.07C246,190,226.1,190,225.92,189.18ZM246.23,71.1c0,2.58-.57,62.25-.39,62.65.09-1.4-.1-3.89.08-1.35.21-1.75.48,24.42-.09,23.64-2.58-.06-6-3.37-10.22-3.15-3.83,1.37-7,4.12-9.66,4.07-.47,2-.61-83.2-.37-81.94C225.46,73,246.4,73.4,246.23,71.1Zm3.9,61.75c0,1.68,19.55,2,19.73,2.25.09-.91-.1,53.32.08,55,.2-1.14-19.64-1.21-20.2-1.72-.05,1.76.2.75-.07.9.26.89.58-20,.49-21.86C249.69,168.74,250.3,134.35,250.13,132.85Zm24,35.78a8.8,8.8,0,0,1,9.21-8.58c5.35-.49,9.47,2.93,9.64,9.33.19-.63.45,19.92-.09,19.64,0,1-18.94.41-19.2.49C274,190,274.3,169.45,274.13,168.63ZM287,59.12c0,2.62-.56,90.14-.39,90.54.1-1.42-13-4-12.8-1.37.2-1.79.48-18-.09-18.76-.05,1.56-.58-.8-2-.57.26,1.4-4.88,2.4-5-.45-.46,2.08-.61-66.69-.36-65.41-.13-2,20.17-.21,20.42-.4C286.41,63.33,287.21,61.45,287,59.12Zm6.24,92.71c0,.23-.54,7.91-.37,7.95a11.94,11.94,0,0,0-9.49-4.24c-3.51-.15-6.58,1.4-9.65,3.88,0,.24.19-7.54-.07-7.52C274,152,293.43,152,293.27,151.83Zm4.11-47.17c-.06,2.52,19.55,3,19.72,3.37.09-1.36-.1,79.71.08,82.19.21-1.71-19.63-1.81-20.2-2.57C296.94,190.28,297.55,106.91,297.38,104.66Zm33.81,82.56c-.06,3.69-10.62,4.36-10.41,4.92.1-2-.12-90.84.09-87.2.24-3.68-.22-4.61-2.06-5.73-.05,3.85-11.67,1.64-12,2,.31,2,.7-31.73.58-35.73-.55,2.92,23.1,3.26,23.39,5C330.64,67.65,331.39,190.5,331.19,187.22Z"/><path class="cls-2" d="M316.81,130s0-3.23.06-3.34a2.16,2.16,0,0,0-2.11-1.84,1.69,1.69,0,0,0-1.88,2,20.87,20.87,0,0,0-.05,3.14,1.66,1.66,0,0,0,2,1.9A1.8,1.8,0,0,0,316.81,130Z"/><path class="cls-2" d="M307.09,130a25.5,25.5,0,0,0,0-3.16,1.7,1.7,0,0,0-2-2c-1.16-.28-2,.61-2,2.08-.08-.17,0,3,0,3.27-.05,1.12.76,1.79,2.05,1.64A1.77,1.77,0,0,0,307.09,130Z"/><path class="cls-2" d="M316.79,143.65s0-3.6.07-3.6a1.61,1.61,0,0,0-2-1.65c-1.3,0-2,.61-2.12,1.71.1.08.05,3.31.09,3.59a1.54,1.54,0,0,0,1.91,1.66C316,145.33,316.8,144.89,316.79,143.65Z"/><path class="cls-2" d="M307.17,143.44s0-3,0-3.15a2.06,2.06,0,0,0-2-2.13c-1.28.25-2,.91-2.1,2,0,.23,0,3.27,0,3.16.1,1.29.83,2.12,2.07,2C306.24,145.68,307.14,144.88,307.17,143.44Z"/><path class="cls-2" d="M316.86,116.12c0,.37,0-3.28,0-3.2a1.79,1.79,0,0,0-2.09-1.81,1.7,1.7,0,0,0-2.05,1.87c0-.08,0,3.14,0,3.29a2.15,2.15,0,0,0,2,2C316,118.08,316.82,117.59,316.86,116.12Z"/><path class="cls-2" d="M307.1,116.19c.08,0,0-3.11.11-3.41a2.18,2.18,0,0,0-2.12-1.82c-1.16-.17-1.9.71-1.88,1.93a25.15,25.15,0,0,0,0,3.34c-.06,1.18.69,1.9,1.95,2.06A2.22,2.22,0,0,0,307.1,116.19Z"/><path class="cls-2" d="M316.87,157.31a31.38,31.38,0,0,1,0-3.36c0-1.18-.77-1.83-2.11-1.82a1.69,1.69,0,0,0-2,1.87s0,3.41.09,3.07a2,2,0,0,0,1.87,2.29A2.17,2.17,0,0,0,316.87,157.31Z"/><path class="cls-2" d="M307.21,157.44c0-.32,0-3.55,0-3.37-.12-1.32-.83-2.24-2.06-2.27a2.23,2.23,0,0,0-2.11,2.17,29.66,29.66,0,0,1,0,3.42,1.77,1.77,0,0,0,2,1.78A2.2,2.2,0,0,0,307.21,157.44Z"/><path class="cls-2" d="M316.81,171.17a21.88,21.88,0,0,1,.08-3.49c-.1-1.4-.95-2.17-2-1.9-1.33-.11-2,.55-2.07,1.92,0,0,0,3.34-.05,3.43a2,2,0,0,0,2.09,1.9A2.35,2.35,0,0,0,316.81,171.17Z"/><path class="cls-2" d="M307.23,171.2c0-.28,0-3.58-.07-3.34a2,2,0,0,0-2-2.17,1.9,1.9,0,0,0-2.11,2,22.59,22.59,0,0,1,0,3.32,1.89,1.89,0,0,0,2.14,2.05A2.34,2.34,0,0,0,307.23,171.2Z"/><path class="cls-2" d="M316.86,184.36c0,.14-.05-3.22-.1-3.21.09-1.17-.74-1.74-1.9-2.14a2.13,2.13,0,0,0-2.11,2c.09.3.06,3.61,0,3.48a2.26,2.26,0,0,0,2,2.16A2.2,2.2,0,0,0,316.86,184.36Z"/><path class="cls-2" d="M307.18,184.38c0,.35.05-3.19,0-3.27a1.77,1.77,0,0,0-2-1.72c-1.2,0-2,.55-1.94,1.66,0,.3-.06,3.43,0,3.27a1.84,1.84,0,0,0,2.07,2.11A2.16,2.16,0,0,0,307.18,184.38Z"/><path class="cls-2" d="M281.42,82.46s0,3.14,0,3a1.81,1.81,0,0,0,2,1.89c1.23.34,2-.46,2.12-2a23.27,23.27,0,0,1,0-3.12,2,2,0,0,0-2.09-1.85A1.9,1.9,0,0,0,281.42,82.46Z"/><path class="cls-2" d="M275.69,85.43c0,.28.11-3.09.15-3.14a1.93,1.93,0,0,0-2.06-1.94c-1.31,0-2,.65-2.1,2,0,.17,0,3.37,0,3.13a2.15,2.15,0,0,0,2.11,2.11A2.24,2.24,0,0,0,275.69,85.43Z"/><path class="cls-2" d="M281.43,95.31c0-.11,0,3.34,0,3.35-.11.84.74,1.58,1.93,1.75a2,2,0,0,0,2-2c-.09,0,0-3.14,0-2.95a1.93,1.93,0,0,0-2-1.92A1.81,1.81,0,0,0,281.43,95.31Z"/><path class="cls-2" d="M275.74,98.32s0-2.93-.06-2.88a1.75,1.75,0,0,0-2-2c-1.13,0-2.06.54-2,1.66,0,0,0,3.42,0,3.29a2.34,2.34,0,0,0,2,2A2.24,2.24,0,0,0,275.74,98.32Z"/><path class="cls-2" d="M281.36,69.06c0,.07,0,3.47,0,3.15.11,1.43.82,2.24,2.1,2.2a2,2,0,0,0,2-2.21c-.05.07,0-3.11,0-3.12a1.49,1.49,0,0,0-2-1.58A1.91,1.91,0,0,0,281.36,69.06Z"/><path class="cls-2" d="M275.72,72.26a21.37,21.37,0,0,0,0-3.08,2,2,0,0,0-1.87-2.09c-1.33.39-2,1.16-2.09,2,0,0-.06,3.15-.07,3.44a2.22,2.22,0,0,0,2.08,1.71C274.69,74.48,275.68,73.42,275.72,72.26Z"/><path class="cls-2" d="M281.38,108.05c0,.32,0,3.21.05,3.15a2,2,0,0,0,2,2.19c1.17-.24,2-1,1.89-2a26.48,26.48,0,0,0,0-3c0-1.31-.72-1.94-2-2.28C282.38,106.34,281.36,107.47,281.38,108.05Z"/><path class="cls-2" d="M275.75,111.46c.08,0,0-3.4,0-3.32a2.06,2.06,0,0,0-2-2c-1.28.37-2.06.81-2,1.94,0,.29,0,3.44,0,3.38a1.81,1.81,0,0,0,2,1.94A2.1,2.1,0,0,0,275.75,111.46Z"/><path class="cls-2" d="M281.44,121.16c-.11.13,0,3.07,0,3.24a2,2,0,0,0,3.93-.23c.1,0,.06-3.14.14-3.06a1.74,1.74,0,0,0-2.09-1.72C282.35,119.05,281.47,120.12,281.44,121.16Z"/><path class="cls-2" d="M275.77,124.35a16.27,16.27,0,0,1,.07-2.84c-.07-1.35-.93-1.88-2-2.15a2.19,2.19,0,0,0-2.1,2.23,26.72,26.72,0,0,0,.07,2.85,1.64,1.64,0,0,0,2,1.87C274.7,126.5,275.69,125.46,275.77,124.35Z"/><path class="cls-2" d="M243.3,95.66c0,.23.09-3.17,0-3.28a2,2,0,0,0-3.88.24,11.88,11.88,0,0,0,0,2.92c-.07,1.54.65,2.12,2,2.12S243.31,96.93,243.3,95.66Z"/><path class="cls-2" d="M233.65,95.57a18.07,18.07,0,0,0,0-2.83,2,2,0,0,0-1.9-2.27,2.42,2.42,0,0,0-2.13,2.25c.06-.21.06,3,.14,2.8a2.2,2.2,0,0,0,1.91,2.3C232.9,97.85,233.71,97.06,233.65,95.57Z"/><path class="cls-2" d="M243.32,108.8c0-.31,0-3.48,0-3.29a2,2,0,0,0-2-2.15,2.09,2.09,0,0,0-2,2.15c-.08.09-.07,3.19,0,3a2.22,2.22,0,0,0,2,2.21C242.61,110.51,243.34,109.75,243.32,108.8Z"/><path class="cls-2" d="M233.7,108.57c0,.21,0-2.86,0-3.06.09-1.07-.7-1.86-2-2a1.89,1.89,0,0,0-2,2c.06-.06,0,3,0,3.31a2.05,2.05,0,0,0,4.08-.23Z"/><path class="cls-2" d="M243.43,82.69c0,.06-.05-3,0-2.93a2.24,2.24,0,0,0-2-2.15,1.94,1.94,0,0,0-2.06,1.9,28.07,28.07,0,0,0,0,3.17,1.76,1.76,0,0,0,2.07,1.87C242.59,84.92,243.39,83.71,243.43,82.69Z"/><path class="cls-2" d="M233.72,82.87c-.11-.19,0-3.11,0-3.34a2.15,2.15,0,0,0-2-2c-1.14.28-2.06.79-1.93,2.28,0,0,0,2.84-.12,3.17a2.09,2.09,0,0,0,2,1.88A2,2,0,0,0,233.72,82.87Z"/><path class="cls-2" d="M243.34,122c.07-.1-.07-3.12,0-3.39a2,2,0,1,0-4,.29,12.63,12.63,0,0,0,0,3.06c0,1.24.71,2,1.94,1.75A1.85,1.85,0,0,0,243.34,122Z"/><path class="cls-2" d="M233.71,121.7c-.09.2-.05-2.9-.05-3.07a1.91,1.91,0,0,0-1.91-1.95,1.83,1.83,0,0,0-2.16,1.82c0,.2,0,3.33,0,3.21a2.06,2.06,0,0,0,4.11,0Z"/><path class="cls-2" d="M243.38,134.7c0,.16,0-3.17,0-3.12-.1-1.33-.8-2-2-2a1.83,1.83,0,0,0-2,1.87c0,.29,0,3.27-.09,3.15a2.22,2.22,0,0,0,2,2.2C242.59,136.64,243.36,136.07,243.38,134.7Z"/><path class="cls-2" d="M233.64,134.86c0-.31,0-3.17,0-3.15.11-1.49-.79-2.21-1.87-1.93-1.36-.18-2.1.49-2.09,1.65-.06.1,0,3.15,0,3.09a2,2,0,0,0,2,2.1A1.66,1.66,0,0,0,233.64,134.86Z"/><path class="cls-2" d="M243.33,147.7c0,.09,0-3.33.07-3.3a2,2,0,0,0-2-2c-1.27.25-2.06,1-2,2.17a25.14,25.14,0,0,0-.1,2.89c0,1.52.9,2.33,2.07,2.08A1.83,1.83,0,0,0,243.33,147.7Z"/><path class="cls-2" d="M233.7,147.58c0-.05,0-2.88.05-3-.09-1.41-.85-2.2-2-2s-2.13.88-2.11,1.84c0,.31.1,3.42.07,3.22a1.78,1.78,0,0,0,2,1.85C232.86,149.82,233.69,148.64,233.7,147.58Z"/><path class="cls-2" d="M268.37,148c0-.06-.07-2.87,0-3.05-.12-1.37-.91-2-2.09-1.8-1.14-.2-2,.66-2.05,2a29.91,29.91,0,0,1,.09,3.11,2,2,0,0,0,2,1.87A2.18,2.18,0,0,0,268.37,148Z"/><path class="cls-2" d="M258.44,148a22.72,22.72,0,0,0,0-2.86,2.12,2.12,0,0,0-2-2.28,1.88,1.88,0,0,0-1.91,2c-.14-.13,0,3.06-.08,3.29a2,2,0,0,0,2.09,1.84A1.85,1.85,0,0,0,258.44,148Z"/><path class="cls-2" d="M268.38,160.64a16.46,16.46,0,0,1,0-3.08,1.84,1.84,0,0,0-2.14-1.81c-1.13,0-1.91.56-1.87,2a20.46,20.46,0,0,0,0,2.82c0,1.31.72,2.27,1.87,2.07A2,2,0,0,0,268.38,160.64Z"/><path class="cls-2" d="M258.45,160.73a13.38,13.38,0,0,1,.07-3,2.45,2.45,0,0,0-2-2.24,2,2,0,0,0-2,2c-.07.09,0,3.36-.09,3.39a1.57,1.57,0,0,0,2,1.66A1.63,1.63,0,0,0,258.45,160.73Z"/><path class="cls-2" d="M268.3,173.53c-.05.39,0-3.07,0-3.05a1.64,1.64,0,0,0-2-1.65c-1.24-.36-2,.55-2.07,1.77a23.16,23.16,0,0,1,0,3.22,1.61,1.61,0,0,0,2,1.67C267.25,175.74,268.29,175.11,268.3,173.53Z"/><path class="cls-2" d="M258.38,173.93c.12-.27,0-3.22.1-3.23,0-1.39-.85-1.95-2-2.27-1.31.21-2,.92-2,2.08,0,.21,0,3.24,0,3.25a1.8,1.8,0,0,0,2,1.74C257.61,175.59,258.45,175.1,258.38,173.93Z"/><path class="cls-2" d="M268.38,184.87c0-.15-.14-3.1-.07-3,0-1.4-.88-1.84-2-1.86-1.27,0-2.1.48-2,1.91-.07,0,0,2.77-.07,2.72a1.86,1.86,0,0,0,2,2A2.45,2.45,0,0,0,268.38,184.87Z"/><path class="cls-2" d="M258.38,184.52a21.17,21.17,0,0,0,0-2.78,1.87,1.87,0,0,0-2-2.12,2.14,2.14,0,0,0-2,2.26s.06,2.87.09,2.9c-.07,1.26.79,1.88,1.89,2.06A2.36,2.36,0,0,0,258.38,184.52Z"/></g><g id="buidlings-3" data-name="buidlings"><path class="cls-2" d="M6.81,187.24c-6.07-.88-3.12-1.59-.76-.44,2.19-2.8,105.49,6.51,108,.64-3.39,4.93-5.77-.44.53-3.76-1.08-2.3-1,2.2-6.93,6,3.7-8.16-7.07-.87-3.75-6.57,3.32,5.6-1.37-104.69-2.12-107.3-.8-1.49,4.21,6.68,5,5.84-.19-1.08-8.07-6-14.94-7.63.21.15,5.37-3.39-1.34-4.53,2.4,1.22,2.34-4-2-5.16,1.54,4.13,6.58,8.84.45,7.86.62.69,4.19,7.06,3.83,8.06,1.59-1.84-10.69-4.15-11.68-3.87-3.41-1.71-6.2,4.19-5.23,1.07,4.26-.55,3.14,34.87-1.06,35.36,5.4-4.58-1.74-3.95-1.57-5.33-.8-.81-4.93,1.41,0,2.78-6.48-1.61-8.47,36.91-8.47,43.52,1.43-6.76-1.39-3.78.51-2.2C68.43,149.32,66.65,74.83,67,74c-2.06-2.38-3.54-2.08-1.66-3.85-2.58-2.53-22.84.9-24,1.42,6.49,2.75,5.07,2.14,4.24,2.91-1.11,3.83-5.25,56.52-.49,62-1.86-5-8.75-3.73-9.08-3.49-2-2.87-5.7-48.59-2.66-46.21.57-2.36-4.66-.6-.64-8.12,1,7.92-6.9,8.25-10.47,6.82-2.61,1.58-.62-14.29-2.58-13.26,5,1.62-1.32-1.77.11,1.46s-.66-3,.09-1.33c0-1,2,7.33-4.23,5.65,3.46-.29-9.7,3-5.49,6.15,1.06.5-3.58-.49-6-2.5.32,6-.36,85.06,3.72,81.39,0,6.22.11,24.84,3.86,23.49C4.06,185.32.47,184,.78,181.93,3.67,185.8,6.64,185.72,6.81,187.24ZM12,185.43c-1-.42-.6-19.1-.39-18.84.35-5.48,3.86-7.38,9.09-8.71a11.44,11.44,0,0,1,8.49,8.38c-.17-.29-.06,19.24-.84,20.1C28.94,184.52,12,185.31,12,185.43ZM29.34,85.81c-1-1.14-.6,48.46-.39,49.16.35-1.69,0,3.92.42.38-.7,3-1.19,22.51-.18,21.11-2.34-3.11-5.4-1.5-9.51.8-2.91-4.93-6.78,1-8.42-.12.53,3.37-.22-72-.34-73.57C10.8,83.28,29.32,85.5,29.34,85.81Zm3.33,52.06c-1-.74,16.58-1.29,16.79-.83.35-1.1,0,50.16.41,47.84-.69,1.94-18.35.09-17.35-.82-.17-.51-.06,1.52-.83,3,.58-3.22-.28-18.72.25-21C32.46,168.33,32.64,137.67,32.67,137.87Zm20.48,30a7.48,7.48,0,0,1,7.8-8.81c4.83-.6,8.19,5.07,8.56,8.49-.66,1.06-1.11,17.58-.17,17.09-.16-.28-16.39.83-17.13,1.64C52.77,184.56,53.12,167.78,53.15,167.9Zm11-92.27c-1-1.16-.6,72.13-.39,72.84.35-1.72-11,4-10.59.4-.7,3-1.18-13.56-.18-15-.17-1.79-.73.71-2.5,3.05.58-5-5-.53-4.42-4,.53,3.44-.22-58-.34-59.56C45.64,73.05,63.72,78.47,64,78A12.08,12.08,0,0,1,64.19,75.63Zm5.3,77.54c-.91-.1-.57,6.34-.37,6.4-1.67-2.32-5-3.15-7.78-3.47-3.82.26-7.12,1.35-8.34,3.39-.16-.07,0-6.3-.79-6.1C52.77,153,69.46,153.14,69.49,153.17ZM73,114.36c-1-1.11,16.57-1.92,16.79-1.24.34-1.65,0,75,.41,71.51-.69,2.9-18.35.13-17.35-1.23C72.7,182.64,73,114.06,73,114.36Zm29,71c-1.14-1.63-9.21-2.82-9-1.82.41-2.42,0-67,.49-72.09-.82,3.25-2.06-1.47-1.88-3.48-.2-1.11-10.24,3.34-11.16,6.64.7-7-.32-30.65.3-35.56.62,4.83,20.08,1.15,19.94-1.1C100.57,77.56,102,184.93,102,185.38Z"/><path class="cls-2" d="M86.6,134.58c0-.17-.13-2.89-.16-3A2,2,0,0,0,85,129.73c-1.11.45-1.73.94-1.78,2a15.24,15.24,0,0,1,.11,2.56c0,1.21.65,1.93,1.64,1.69A1.5,1.5,0,0,0,86.6,134.58Z"/><path class="cls-2" d="M78.47,134.25c.21.45.18-2.47.18-2.77-.14-.92-.67-1.66-1.7-1.45a1.51,1.51,0,0,0-1.79,1.65,26.53,26.53,0,0,1,.12,2.95c-.11,1.05.51,1.46,1.58,1.41C77.71,136.29,78.59,135.52,78.47,134.25Z"/><path class="cls-2" d="M86.49,145.92a10.14,10.14,0,0,0,0-2.86c.18-.88-.66-1.49-1.47-1.48-1.24-.26-1.9.78-1.88,1.78a12.85,12.85,0,0,1,0,2.62,1.82,1.82,0,0,0,1.59,1.72A1.75,1.75,0,0,0,86.49,145.92Z"/><path class="cls-2" d="M78.54,145.81a14.37,14.37,0,0,1,0-2.78,1.63,1.63,0,0,0-1.76-1.7,1.37,1.37,0,0,0-1.49,1.57c-.15.45-.19,3.19,0,3.11a1.74,1.74,0,0,0,1.56,1.87A2.17,2.17,0,0,0,78.54,145.81Z"/><path class="cls-2" d="M86.61,122.65a15.45,15.45,0,0,1,.09-2.58,1.59,1.59,0,0,0-1.91-1.62c-.93-.25-1.65.72-1.54,1.63-.12-.17,0,2.49-.06,2.52A1.73,1.73,0,0,0,85,124.5,2,2,0,0,0,86.61,122.65Z"/><path class="cls-2" d="M78.44,122.72a14.39,14.39,0,0,0,.08-2.7c0-1-.63-1.65-1.74-1.91a2,2,0,0,0-1.6,1.8c-.08-.09.11,3,0,2.65.12,1,.7,2,1.58,1.84C77.82,124.25,78.45,123.72,78.44,122.72Z"/><path class="cls-2" d="M86.55,157.75a16.56,16.56,0,0,0,0-3.07c.09-.78-.54-1.47-1.77-1.68a2,2,0,0,0-1.68,2,6.49,6.49,0,0,1,.09,2.46c-.06,1,.7,2.07,1.72,1.62A1.18,1.18,0,0,0,86.55,157.75Z"/><path class="cls-2" d="M78.58,157.71a25.84,25.84,0,0,0,0-3A2.21,2.21,0,0,0,77,152.93a1.85,1.85,0,0,0-1.7,1.86,24.74,24.74,0,0,1-.12,2.66c.2,1.25.65,1.73,1.68,1.77A1.82,1.82,0,0,0,78.58,157.71Z"/><path class="cls-2" d="M86.52,169.42c0,.18.13-2.66,0-2.68.12-1.38-.63-1.7-1.63-2.1a2.22,2.22,0,0,0-1.77,1.93,11.11,11.11,0,0,1,0,2.68c-.08,1.17.57,2,1.62,1.56A1.35,1.35,0,0,0,86.52,169.42Z"/><path class="cls-2" d="M78.64,169.36a12.67,12.67,0,0,1,0-2.75c-.17-.88-.71-1.75-1.62-1.52-1.07-.27-1.73.18-1.84,1.62a10.11,10.11,0,0,1,0,2.64A1.58,1.58,0,0,0,76.83,171,2.15,2.15,0,0,0,78.64,169.36Z"/><path class="cls-2" d="M86.44,180.92c.24.13,0-2.93,0-2.79.09-1.12-.62-1.56-1.71-1.65A1.41,1.41,0,0,0,83.35,178c-.13.14-.14,3.16-.24,2.95a1.73,1.73,0,0,0,1.7,1.61C86,182.66,86.6,182.13,86.44,180.92Z"/><path class="cls-2" d="M78.52,180.86a21.88,21.88,0,0,0,.09-3.06c0-.74-.62-1.3-1.67-1.6a2.15,2.15,0,0,0-1.7,1.71c0,.28-.1,2.94,0,3.17,0,.9.54,1.72,1.59,1.27A1.34,1.34,0,0,0,78.52,180.86Z"/><path class="cls-2" d="M57.18,94.11a25.14,25.14,0,0,1,0,2.6A2,2,0,0,0,59,98.43a2.21,2.21,0,0,0,1.63-1.79c0,.1.06-3,0-2.86a2,2,0,0,0-1.79-1.67A2.31,2.31,0,0,0,57.18,94.11Z"/><path class="cls-2" d="M52.5,96.79a11.52,11.52,0,0,0,0-3.11A1.45,1.45,0,0,0,51,92.17a2,2,0,0,0-1.88,1.93,17.13,17.13,0,0,1,.08,2.58c0,.93.64,1.32,1.56,1.54C51.77,98.27,52.61,97.31,52.5,96.79Z"/><path class="cls-2" d="M57.29,105.13c0-.15,0,2.27,0,2.21.08,1.33.5,2,1.52,1.78,1.06,0,1.84-.48,1.7-1.4a13.6,13.6,0,0,1,.12-2.84c-.11-1.14-.83-1.85-1.7-1.7A1.67,1.67,0,0,0,57.29,105.13Z"/><path class="cls-2" d="M52.57,107.69a23.5,23.5,0,0,0,0-2.63,1.64,1.64,0,0,0-1.77-1.79c-1-.18-1.64.52-1.5,1.67a7.43,7.43,0,0,0,0,2.79c0,1,.54,1.69,1.66,1.48A1.5,1.5,0,0,0,52.57,107.69Z"/><path class="cls-2" d="M57.11,82.68a9.59,9.59,0,0,1,0,2.89c.18.75.7,1.65,1.87,1.31a1.57,1.57,0,0,0,1.48-1.3c0-.21.21-3,0-3,.19-1-.47-1.5-1.45-1.58A1.88,1.88,0,0,0,57.11,82.68Z"/><path class="cls-2" d="M52.48,85.32s.17-2.4.15-2.58A1.6,1.6,0,0,0,51,81.13c-1.16-.23-1.71.48-1.65,1.68-.12-.33-.08,2.53-.2,2.7a2.28,2.28,0,0,0,1.63,1.67C51.74,86.86,52.67,86.21,52.48,85.32Z"/><path class="cls-2" d="M57.32,115.73c0,.08-.07,2.89-.17,3.1a1.5,1.5,0,0,0,1.62,1.43c1.23.13,1.85-.69,1.8-1.89a12.87,12.87,0,0,1,.1-2.67,1.44,1.44,0,0,0-1.8-1.34A1.94,1.94,0,0,0,57.32,115.73Z"/><path class="cls-2" d="M52.59,118.76a8.44,8.44,0,0,1,.07-2.85,1.58,1.58,0,0,0-1.8-1.64c-1,0-1.51.59-1.55,1.61-.15.26-.05,2.68-.13,2.53a1.9,1.9,0,0,0,1.75,1.94C51.61,120.14,52.66,119.58,52.59,118.76Z"/><path class="cls-2" d="M57.35,126.83c-.23,0-.09,2.85-.15,2.71a2,2,0,0,0,1.64,1.87c1,.1,1.66-.84,1.69-1.83a15.93,15.93,0,0,1,0-2.63c.07-.84-.78-1.45-1.65-1.86C58,125.43,57.34,125.89,57.35,126.83Z"/><path class="cls-2" d="M52.58,129.67a16.68,16.68,0,0,0,.09-2.45c-.09-1.18-.75-1.85-1.86-1.59-.79-.36-1.61.31-1.58,1.3,0,.32,0,3,.1,2.92a1.22,1.22,0,0,0,1.43,1.53A1.85,1.85,0,0,0,52.58,129.67Z"/><path class="cls-2" d="M25.73,105.29c-.09,0,0-2.9,0-2.55A1.39,1.39,0,0,0,24,101.07a1.48,1.48,0,0,0-1.58,1.63,10.91,10.91,0,0,0,0,2.38,1.77,1.77,0,0,0,1.49,1.77A1.61,1.61,0,0,0,25.73,105.29Z"/><path class="cls-2" d="M17.59,105.26a13,13,0,0,0,.18-2.7,1.63,1.63,0,0,0-1.64-1.68,1.66,1.66,0,0,0-1.85,1.69c.07.08.11,2.91.17,2.75A1.33,1.33,0,0,0,16,107C17.17,107,17.63,106.29,17.59,105.26Z"/><path class="cls-2" d="M25.69,116.14a24.09,24.09,0,0,1,.11-2.57,1.83,1.83,0,0,0-1.69-1.51,1.38,1.38,0,0,0-1.72,1.34,9.47,9.47,0,0,0,.06,2.67A1.67,1.67,0,0,0,24,118C25.17,117.72,25.74,117.27,25.69,116.14Z"/><path class="cls-2" d="M17.66,116.39c.14-.17-.05-3,.17-2.79-.17-1.17-.68-1.59-1.85-1.66-.9-.23-1.54.52-1.65,1.77-.08-.19.1,2.56-.08,2.39.13,1.05.82,2,1.75,1.73A1.28,1.28,0,0,0,17.66,116.39Z"/><path class="cls-2" d="M25.76,94.17c.07.2-.15-2.53-.06-2.74a1.54,1.54,0,0,0-1.62-1.6,1.6,1.6,0,0,0-1.69,1.86,12.33,12.33,0,0,0,0,2.35c.06,1.31.76,1.89,1.74,1.79A1.65,1.65,0,0,0,25.76,94.17Z"/><path class="cls-2" d="M17.62,94.35a26.06,26.06,0,0,0,.18-3,1.49,1.49,0,0,0-1.65-1.27c-1.19,0-1.74.49-1.81,1.42a12.58,12.58,0,0,1-.06,2.86A1.6,1.6,0,0,0,16,95.84C17.15,95.9,17.79,94.9,17.62,94.35Z"/><path class="cls-2" d="M25.61,127.68a18.55,18.55,0,0,0,.23-3.1,1.58,1.58,0,0,0-1.75-1.51A1.75,1.75,0,0,0,22.41,125c0-.34-.14,2.57,0,2.29a1.57,1.57,0,0,0,1.7,1.86C25,129.07,25.72,128.16,25.61,127.68Z"/><path class="cls-2" d="M17.84,127.61a15.32,15.32,0,0,1,0-2.76c-.11-1-.69-1.86-1.68-1.63a1.78,1.78,0,0,0-1.79,1.72c0-.26.15,2.65.11,2.35-.17,1.4.61,2,1.69,1.62C17.1,129.13,17.61,128.2,17.84,127.61Z"/><path class="cls-2" d="M25.67,138.45c.08.22-.09-2.81,0-2.88a1.33,1.33,0,0,0-1.53-1.41,1.73,1.73,0,0,0-1.89,1.68c.07,0,.13,2.61.24,2.6A1.46,1.46,0,0,0,24,140.21,1.53,1.53,0,0,0,25.67,138.45Z"/><path class="cls-2" d="M17.76,138.51c-.07,0,0-2.78-.15-2.65,0-1.21-.69-2-1.67-1.92a1.92,1.92,0,0,0-1.47,2,13.52,13.52,0,0,0,0,2.65c0,1,.69,1.73,1.67,1.34C17.14,140.29,17.83,139.67,17.76,138.51Z"/><path class="cls-2" d="M25.83,149.56a20.3,20.3,0,0,1,0-2.94,1.86,1.86,0,0,0-1.7-1.38c-1-.25-1.7.45-1.78,1.57.07.21-.06,2.73,0,2.61.09,1.29.77,1.82,1.75,1.57A1.75,1.75,0,0,0,25.83,149.56Z"/><path class="cls-2" d="M17.69,149.67s0-2.83.14-3.07a1.37,1.37,0,0,0-1.8-1.24c-1.12-.1-1.55.31-1.7,1.25a21.53,21.53,0,0,0,.05,2.72c.11,1.14.57,1.59,1.6,1.63S17.81,150.4,17.69,149.67Z"/><path class="cls-2" d="M46.39,150s-.13-2.76,0-3c.13-.67-.51-1.28-1.53-1.63A1.84,1.84,0,0,0,43,147.11c.11.09-.11,2.54-.09,2.87a2,2,0,0,0,1.64,1.69A2.59,2.59,0,0,0,46.39,150Z"/><path class="cls-2" d="M38.19,150.05a23.37,23.37,0,0,0-.08-3.05c0-.73-.51-1.69-1.47-1.54a1.82,1.82,0,0,0-1.84,1.66,6.75,6.75,0,0,1,0,2.75c.11,1,.87,1.85,1.9,1.4C37.54,151.34,38.3,150.82,38.19,150.05Z"/><path class="cls-2" d="M46.36,160.79a20.5,20.5,0,0,1,.13-2.83,1.9,1.9,0,0,0-1.67-1.7A1.7,1.7,0,0,0,43,157.81a19.26,19.26,0,0,0,.08,2.72,1.57,1.57,0,0,0,1.7,1.83C45.53,162.19,46.52,161.68,46.36,160.79Z"/><path class="cls-2" d="M38.15,160.76c0-.31,0-2.92.13-2.53a1.68,1.68,0,0,0-1.69-1.74A1.55,1.55,0,0,0,35,158a11.84,11.84,0,0,0,0,2.52,2.2,2.2,0,0,0,1.51,2A1.48,1.48,0,0,0,38.15,160.76Z"/><path class="cls-2" d="M46.42,171.56a7.48,7.48,0,0,1,.08-2.63,1.78,1.78,0,0,0-1.89-1.73c-1,.18-1.68.58-1.54,1.6,0,.07,0,2.95-.09,2.71a1.84,1.84,0,0,0,1.81,1.82C45.66,173.49,46.34,172.47,46.42,171.56Z"/><path class="cls-2" d="M38.27,171.81a20.87,20.87,0,0,1,0-2.68c-.19-1.12-.67-1.81-1.66-1.67-1.16-.11-1.65.53-1.67,1.69,0-.11-.2,2.5-.17,2.65.19.94.63,1.67,1.8,1.41C37.55,173.43,38.11,172.53,38.27,171.81Z"/><path class="cls-2" d="M46.34,180.88c.11.32-.05-2.49.15-2.16-.1-1.37-.89-1.92-1.84-1.69-1-.1-1.62.37-1.59,1.52a9.46,9.46,0,0,1-.13,2.52,1.72,1.72,0,0,0,1.8,1.56A1.8,1.8,0,0,0,46.34,180.88Z"/><path class="cls-2" d="M38.24,181c-.07-.12.08-2.62-.07-2.28a1.66,1.66,0,0,0-1.75-1.95,1.72,1.72,0,0,0-1.56,1.75,10.87,10.87,0,0,1-.07,2.69,1.58,1.58,0,0,0,1.89,1.49C37.65,182.74,38.12,181.82,38.24,181Z"/></g><g id="right_zombie_white_outline" data-name="right zombie white outline"><path d="M207.53,189.86c1.05,1.41,3.88,4.54,4.32-.23,5.16,3.39,6.14,5.85,6,4.44-2.7-5.31,10.47-10.35,6.63-6.41-.56-2.47,2.13-7.15.31-11.3,1.77,4.41,7.26-1.47,5.4.56,1.52,4.45-.21-4.81.84.43,2.14-.85,2.14-4.5,2.53-5.1,4.42,5.2,6.76-3.75,8.28-3.15,3.8.17.35-.63,2.44-5.83,3.74,3,4.15-7.41,6-9.11-3.22.43,10.31,10.1,11.38,7.49-5.54-4-11,23.32-6.26,21.38-1.83,7-4.17,11,5.44,12.33-1.49-2-4.15-5-3.69,0,7.46.19,13.81-4.24,13.84-11.53-4.52,5.89,5.64-22.81,5.24-26,4.06-5.09-1.3-7.7-2.52-9.5,2.21,3.91-18.65-7.76-16.42-6.58-.66-9.93,2-9.61,3.49-17.25,1,4.39,4.46,7.77,2.27,5.14,3.8,2.6,4.55,8.8,3.35,4.71,1.94.22,11.55,6,11.16.48,5,.15,7,2.1,2.83.9,1.56-2.86,5.45,7.2,6.54,7-4.28-4.59-.67-1.21.58.6-.71.23,3.55.07-.3-2.88,5.35,2.53,7.53-4.34,9.36-.81.49-6.67-4.67-11.11-7.62-7.34,1.3-1.35-12.41-7.33-18.32-4,5.63-.83-2.51-11.65,1.21-4.76.94-5.74,1-6.82-1.75-5,3.83-1.76-6.09-7-4.65-3.08,1.74-4.34-.77-6.37-2.68-2,1.25-2.22,1-5.52-1.14-11.06,3,.23,5.59-3.39,6.46-4.1-1.11,1.54,4,6.78,4.1,6.32-3.66-6.24,5.07-3.08,7.14,1.36.84-6.11,2.75-4,2.06-4.9-10.92-3.47-15.05-11-25.64-1.89-4.36,4.56-7.76,9.08-17.66,14.29,4-1.79,2.55,7.52,8.54,3.13-1.61,0-5.67,4.83-2.36,4.06-2.53-1,2-.58,3,3.89-.48-1.58-11.08-.53-10.47.35,3.74,1-2-3.3-2.56-2.66,1.7,5.88,1.07,6.65.48,5.45-5.21,5.24-6.89,10.16-.4,15.93,1.39,1.92-1.83,1.77-1,.28,3.4-1.77-4,18.59-1.47,19.61-2.27-1.5-20.51,14.48-20.62,12.42C203.19,178.66,202.05,188.62,207.53,189.86Z"/><path class="cls-3" d="M207.53,189.86c1.05,1.41,3.88,4.54,4.32-.23,5.16,3.39,6.14,5.85,6,4.44-2.7-5.31,10.47-10.35,6.63-6.41-.56-2.47,2.13-7.15.31-11.3,1.77,4.41,7.26-1.47,5.4.56,1.52,4.45-.21-4.81.84.43,2.14-.85,2.14-4.5,2.53-5.1,4.42,5.2,6.76-3.75,8.28-3.15,3.8.17.35-.63,2.44-5.83,3.74,3,4.15-7.41,6-9.11-3.22.43,10.31,10.1,11.38,7.49-5.54-4-11,23.32-6.26,21.38-1.83,7-4.17,11,5.44,12.33-1.49-2-4.15-5-3.69,0,7.46.19,13.81-4.24,13.84-11.53-4.52,5.89,5.64-22.81,5.24-26,4.06-5.09-1.3-7.7-2.52-9.5,2.21,3.91-18.65-7.76-16.42-6.58-.66-9.93,2-9.61,3.49-17.25,1,4.39,4.46,7.77,2.27,5.14,3.8,2.6,4.55,8.8,3.35,4.71,1.94.22,11.55,6,11.16.48,5,.15,7,2.1,2.83.9,1.56-2.86,5.45,7.2,6.54,7-4.28-4.59-.67-1.21.58.6-.71.23,3.55.07-.3-2.88,5.35,2.53,7.53-4.34,9.36-.81.49-6.67-4.67-11.11-7.62-7.34,1.3-1.35-12.41-7.33-18.32-4,5.63-.83-2.51-11.65,1.21-4.76.94-5.74,1-6.82-1.75-5,3.83-1.76-6.09-7-4.65-3.08,1.74-4.34-.77-6.37-2.68-2,1.25-2.22,1-5.52-1.14-11.06,3,.23,5.59-3.39,6.46-4.1-1.11,1.54,4,6.78,4.1,6.32-3.66-6.24,5.07-3.08,7.14,1.36.84-6.11,2.75-4,2.06-4.9-10.92-3.47-15.05-11-25.64-1.89-4.36,4.56-7.76,9.08-17.66,14.29,4-1.79,2.55,7.52,8.54,3.13-1.61,0-5.67,4.83-2.36,4.06-2.53-1,2-.58,3,3.89-.48-1.58-11.08-.53-10.47.35,3.74,1-2-3.3-2.56-2.66,1.7,5.88,1.07,6.65.48,5.45-5.21,5.24-6.89,10.16-.4,15.93,1.39,1.92-1.83,1.77-1,.28,3.4-1.77-4,18.59-1.47,19.61-2.27-1.5-20.51,14.48-20.62,12.42C203.19,178.66,202.05,188.62,207.53,189.86Z"/><path d="M309.33,100c-3.35-1.15-3.35-3.22-5.58-4,.72.09-5.46,4.82-5,5.8-1.37-.32-3-6.44-2.64-7.38-3.73.39-6.57,2.65-8.84,4.92a14.19,14.19,0,0,0-3.79,6.41C283.7,107,311,118,309,117.12,312.46,111.94,313.42,104.49,309.33,100Z"/><path class="cls-3" d="M309.33,100c-3.35-1.15-3.35-3.22-5.58-4,.72.09-5.46,4.82-5,5.8-1.37-.32-3-6.44-2.64-7.38-3.73.39-6.57,2.65-8.84,4.92a14.19,14.19,0,0,0-3.79,6.41C283.7,107,311,118,309,117.12,312.46,111.94,313.42,104.49,309.33,100Z"/><path d="M269.66,102.52c-2-1.13-3.7,1.17-8.34,2.46,1.5,3.81,2.84,6.66,5.9,8.66,0-1,7.89,2.83,9.13,4.33-2.38-1.4,1.74-2.43.07-1.88.53-.75,4.42,1.65,2.05,2-.7.29,28.81,11.8,28.56,11.93,2.16-.39,3.23-2,4.11-2.66-2.09-.3,2.61,4.76-1,3.59,3.32.3,2.32.88,4.15,2.49-.61-1.3.13-.36,3.42-.14-.74-.36,1.69-1.17,3.77-4.14-.82-2-.83-4.69-1.14-7.47C319,123.12,270.85,104.12,269.66,102.52Z"/><path class="cls-3" d="M269.66,102.52c-2-1.13-3.7,1.17-8.34,2.46,1.5,3.81,2.84,6.66,5.9,8.66,0-1,7.89,2.83,9.13,4.33-2.38-1.4,1.74-2.43.07-1.88.53-.75,4.42,1.65,2.05,2-.7.29,28.81,11.8,28.56,11.93,2.16-.39,3.23-2,4.11-2.66-2.09-.3,2.61,4.76-1,3.59,3.32.3,2.32.88,4.15,2.49-.61-1.3.13-.36,3.42-.14-.74-.36,1.69-1.17,3.77-4.14-.82-2-.83-4.69-1.14-7.47C319,123.12,270.85,104.12,269.66,102.52Z"/></g><g id="right_zombie_no_outline" data-name="right zombie no outline"><path d="M205.18,185.91c4,1.39,6.2,2,6.58,1.4,4.61-.71,5.61,1.48,11.41,4.14-5.73-1.66,3.36-5.82,4.3-8.39,2.11-4.3,1.19-4.3-4.08-4.93,6.28-2.79,9.85-1.64,5.79.59,2.26-3.31,6.12-3.85,7.45-4.18-1.54-4.2,1.55-3,2.48.2-3.46-5.75,7-3.1,1.49-4,6-.29,9.4-6,4.4-5.18,1.87-.29,2.78-12.14,7.09-14.86-2.32-2,5.16,10.75,11.84,6-.81-1-12.63,20.27-9.28,24.13-.87,6.26-1.24,5.63,2,9.22,6.27-.68,1.65,1.83,3.38,0,7.05,1.11,12.12-6.23,12-9.05-2.55-.61,3.89-26.16,8.36-24.12-1.44-6.16-5.62-11.26-2.17-9.37-4.17-.14-20.14-12.06-21-7.91,3.92-9.91,6.56-8.68,8.5-16.18,1.33,3.84,4.48,10.22-.28,10.36,1.85,1.21,4.48-2.16,2.94-4,4,3.45,16.37,7.47,11.45,4.43,1.84-1.08,5.53-.74,6.75-2.11-3.31-1.57-2.15,6.57.28,4.55-3.3-1.46,6.92-1.49,4,4.69-2.59-2.43-2.42-4.62,4.23-2.68.4,2.51-.56-3,3.77-6.28.86-4.05-1.27-2.13-8.55-8,.94,1.26-15.19,1.76-16.05-4.67-1.34,7.6-2.37.67,1.12-1.85-5-4.27,2-6.1-.15.24-1.88-6.4-7.55-10.47-10.73-7.71,2.65,3.1-1.46-1.1,2.83.11-2.11-7.26-.69-9.23-5.08-8.58.48.26,8.83-1.7,4.54-4.48,1.85,3.76,8.44,1.39,3.45,1.07.44-.65,14.31,4.05,14.61.74-7.05,4-5.07-2.92-4.72-4-4.31-.56-12.26-4.5-18.15,3.94-9.48,0-15.24,4.2-18.75,12.14,1.21,3.46,4.21,2.07,4.73,3.17-3.86,4.24-6.58,1.86-3.7,6.46,0-.18,3.18-2.63.3-4.52.38-.06-1.21,10.38-4.65,10.32.82-6.8-6.05-1.91-3.6-8.58-.43,5.25.58,9.4-.17,8.65-4.72,8-2,11.08-3.46,9.8,2.8,5.9,2.88.22,5.67.93-1.94,1.71-5.83,17.9-4.52,16.82-4.9,6.13-25.62,22-27.78,18C208.1,175.93,204.34,184.68,205.18,185.91Z"/><path d="M309.32,96.56c-.44-.4-2.55-2.69-4.7-2.67.81-.77-4.41,4.19-4.45,5,.88-.49-3.32-7.46-2.23-7.25-3.92,1.36-6.89,2.2-9.14,5.15-1.38.91-3.84,4.43-5.33,7.25,1.69.22,29,10.89,27.38,10.82C315.23,108.52,313.82,102,309.32,96.56Z"/><path d="M271,99.61c-1.47-.9-3.37.5-5.08,3.25-1.65,2.54,1.31,5,4.05,6.24-2.39.52,6.93,4.8,8.75,5.41.49.22,3.37-2-.13-1.2,2.34-.25,3,2.32,3.93,2.43-3.16-1.11,27.57,12.21,26.53,10.51,1.17,1.44,1.81-2.49,3.22-3-.2.62,1.59,5.11.86,6.52,3.36-1.37,4.36-.83,2.8.43-1-1,.68-1.23,4.21-.13-.81-.61.75-1.88,3.77-2.81-.43-3.8-2-5.78-4.14-6.79C322.65,119.83,274,100.78,271,99.61Z"/></g><g id="middle_zombie_white_outline" data-name="middle zombie white outline"><path d="M218.07,80.32c5.72,2.36-17.93-5.69-14.94-11.59-7.07-.06-10.53,2.87-11.12,2.46-11.88,9.06-17.64,4.67-19.81-4-3.51-6.38-9.72-1.84-8,3-1.11-4.49-8.65,1.62-1.35-2.31-2.63-1.32-4.9-.66-7.28-4.56-.36,7.61,5.06,13.56-3,13.44,7.49,1.13-3.83-10.62-1.33-6.62-.26-5,.39-7.38,1.37-6.57-7.75,1.45-12.39,5.59-10.93,12.8.71,3.25-.06-7.83,1.64-5.19-4.76-3.61-10.49-3.06-14.14,5.28-3.83-8.05-6.57-3.65-10.35,1.6,5.16.17,7,31.89,8.18,33.9-3.4,3.91,1.57,10.23,4.68,1.49.22-1,.2-1.85-2,7.23,10.54-4.41,12-12.35,9-14.68-1,3.51-4.74-20.12-.18-23-2.74.72,11.14-1.75,13.45-3.56,3.34-1.88,5.79,49.94,5.07,44.87-1.25,12.24-7.18,2.57-5.28,10.86-2.28.16.63,29.65,1,31.76-3.85-.4-15.93,11.59-14.89,19,6.31-8.33,8,3.74,14.44-7.43-4.11,7.45-19.38,4.27-18.54,13.69-.39-2.29-7.31,8.1-1.94,9.74-4,11.32-7,6.82-.35,16.57-2.41,1.7,4.29-4.34,6.45-4.59,1,8.12,1.81,5.95,9.31-2.93-4.53.53,18.08-27.55,24-29-3.49-9.16,1.67-11-2.91-9.67,5.94-2.06,10.06-40.5,7.14-29.81-4.69-3.77,6.58-6.58,2.81-8.52,3.91-.14,3.79,34.08,8.67,42-1.73-2.91-5.57,2.19,1.65,5.56-3.59-3.24-3.44-4.62.83-1-4.62,4.45-.28.72,1.38-8.19,2.2.49.33,11.43,7.23,14.51-5.47-4.13,2-2.63,4-3.95,1.33,3.37,1.35,3.41,2.13,11.89-2.65-10.07-2.49-6.46,1.23-9.09-3.49,10.88-6.21,10.21-10.7,4.83,6,9.57,20.75,19.16,15.25,25.06,1.17-1.93,11.39.33,11.65,6.52,1.27,1.41,5.41-7.75,6.65-2.36,1-6.91,6.48-11.43-.1-15.28,4.14-1.73-26.17-32.82-25.24-36.71,0-3-4.82-36.67-5.91-34.64,1.66-8.07,3.33-4.91,4.7-8.46-2.32,4.6.51-37.18-3.55-44.52,3.21.52,9.19,14.4,15.07,17.24-5.53-3.82-.21,34.68-3.08,24.16,5.53,3.47,8.65,6.65,7.92,9.57.91,7.05,4-2.28,4.16-3.81-1,5.52,7.73,6.91.08-7,5.94,7.79,5.79-28.47-1.63-29C226.89,84.29,225.35,89.44,218.07,80.32Z"/><path class="cls-3" d="M218.07,80.32c5.72,2.36-17.93-5.69-14.94-11.59-7.07-.06-10.53,2.87-11.12,2.46-11.88,9.06-17.64,4.67-19.81-4-3.51-6.38-9.72-1.84-8,3-1.11-4.49-8.65,1.62-1.35-2.31-2.63-1.32-4.9-.66-7.28-4.56-.36,7.61,5.06,13.56-3,13.44,7.49,1.13-3.83-10.62-1.33-6.62-.26-5,.39-7.38,1.37-6.57-7.75,1.45-12.39,5.59-10.93,12.8.71,3.25-.06-7.83,1.64-5.19-4.76-3.61-10.49-3.06-14.14,5.28-3.83-8.05-6.57-3.65-10.35,1.6,5.16.17,7,31.89,8.18,33.9-3.4,3.91,1.57,10.23,4.68,1.49.22-1,.2-1.85-2,7.23,10.54-4.41,12-12.35,9-14.68-1,3.51-4.74-20.12-.18-23-2.74.72,11.14-1.75,13.45-3.56,3.34-1.88,5.79,49.94,5.07,44.87-1.25,12.24-7.18,2.57-5.28,10.86-2.28.16.63,29.65,1,31.76-3.85-.4-15.93,11.59-14.89,19,6.31-8.33,8,3.74,14.44-7.43-4.11,7.45-19.38,4.27-18.54,13.69-.39-2.29-7.31,8.1-1.94,9.74-4,11.32-7,6.82-.35,16.57-2.41,1.7,4.29-4.34,6.45-4.59,1,8.12,1.81,5.95,9.31-2.93-4.53.53,18.08-27.55,24-29-3.49-9.16,1.67-11-2.91-9.67,5.94-2.06,10.06-40.5,7.14-29.81-4.69-3.77,6.58-6.58,2.81-8.52,3.91-.14,3.79,34.08,8.67,42-1.73-2.91-5.57,2.19,1.65,5.56-3.59-3.24-3.44-4.62.83-1-4.62,4.45-.28.72,1.38-8.19,2.2.49.33,11.43,7.23,14.51-5.47-4.13,2-2.63,4-3.95,1.33,3.37,1.35,3.41,2.13,11.89-2.65-10.07-2.49-6.46,1.23-9.09-3.49,10.88-6.21,10.21-10.7,4.83,6,9.57,20.75,19.16,15.25,25.06,1.17-1.93,11.39.33,11.65,6.52,1.27,1.41,5.41-7.75,6.65-2.36,1-6.91,6.48-11.43-.1-15.28,4.14-1.73-26.17-32.82-25.24-36.71,0-3-4.82-36.67-5.91-34.64,1.66-8.07,3.33-4.91,4.7-8.46-2.32,4.6.51-37.18-3.55-44.52,3.21.52,9.19,14.4,15.07,17.24-5.53-3.82-.21,34.68-3.08,24.16,5.53,3.47,8.65,6.65,7.92,9.57.91,7.05,4-2.28,4.16-3.81-1,5.52,7.73,6.91.08-7,5.94,7.79,5.79-28.47-1.63-29C226.89,84.29,225.35,89.44,218.07,80.32Z"/><path d="M189,74c8.43-1.27,17.54-9.56,18.41-21.38.85-8.57-8.6-17.76-18.11-17-6.14-2.12-9.12.18-13.05,3.44,1.39.14,6.42,7.83,6.63,8.06-.53.82-14.09,5.08-13.77,6.11,1.18-1.3-1,1.1-1,1.35C168.68,63.75,177.2,74,189,74Z"/><path class="cls-3" d="M189,74c8.43-1.27,17.54-9.56,18.41-21.38.85-8.57-8.6-17.76-18.11-17-6.14-2.12-9.12.18-13.05,3.44,1.39.14,6.42,7.83,6.63,8.06-.53.82-14.09,5.08-13.77,6.11,1.18-1.3-1,1.1-1,1.35C168.68,63.75,177.2,74,189,74Z"/></g><g id="middle_zombie_no_outline" data-name="middle zombie no outline"><path d="M217.07,79.32c5.72,2.36-17.94-5.69-14.94-11.6-7.07,0-10.54,2.88-11.12,2.47-11.88,9.06-17.64,4.67-19.81-4-3.51-6.38-9.72-1.84-8,3-1.11-4.49-8.65,1.62-1.35-2.31-2.63-1.32-4.9-.67-7.28-4.56-.36,7.61,5.06,13.56-3,13.44,7.49,1.12-3.83-10.62-1.33-6.62-.26-5,.39-7.38,1.37-6.57-7.75,1.45-12.39,5.59-10.93,12.8.71,3.25-.06-7.83,1.64-5.19-4.76-3.61-10.5-3.06-14.14,5.28-3.83-8.05-6.58-3.65-10.35,1.6,5.16.17,7,31.89,8.18,33.9-3.4,3.91,1.57,10.23,4.68,1.49.22-1,.2-1.85-2,7.23,10.54-4.41,12-12.35,9-14.68-1,3.51-4.74-20.12-.18-23-2.75.72,11.14-1.75,13.44-3.56,3.35-1.88,5.8,49.94,5.08,44.87-1.25,12.24-7.18,2.56-5.28,10.86-2.28.16.63,29.65,1,31.76-3.85-.4-15.93,11.59-14.89,19,6.31-8.33,8,3.74,14.44-7.43-4.11,7.45-19.38,4.27-18.54,13.69-.39-2.29-7.31,8.1-1.94,9.74-4,11.32-7,6.82-.35,16.57-2.41,1.7,4.29-4.34,6.45-4.59,1,8.12,1.8,5.95,9.31-2.93-4.53.53,18.08-27.56,24-29-3.49-9.16,1.67-11-2.91-9.67,5.94-2.06,10.05-40.51,7.14-29.82-4.69-3.76,6.58-6.57,2.81-8.51,3.91-.14,3.79,34.07,8.67,42-1.73-2.91-5.57,2.19,1.65,5.56-3.59-3.24-3.44-4.62.83-1-4.62,4.45-.28.72,1.38-8.19,2.2.49.32,11.43,7.23,14.51-5.47-4.13,2-2.63,4-3.95,1.33,3.37,1.35,3.41,2.13,11.89-2.65-10.07-2.49-6.46,1.22-9.09-3.48,10.88-6.2,10.21-10.69,4.83,6,9.57,20.75,19.16,15.25,25,1.17-1.92,11.39.34,11.65,6.53,1.27,1.41,5.41-7.75,6.65-2.37,1-6.9,6.48-11.42-.1-15.27,4.14-1.73-26.17-32.82-25.24-36.71,0-3-4.82-36.67-5.91-34.65,1.66-8.06,3.33-4.9,4.7-8.45-2.33,4.6.51-37.18-3.55-44.52,3.21.52,9.19,14.4,15.07,17.24-5.53-3.82-.21,34.68-3.08,24.16,5.52,3.47,8.64,6.65,7.92,9.57.91,7.05,4-2.28,4.16-3.82-1,5.53,7.73,6.92.08-7,5.93,7.8,5.79-28.46-1.63-29C225.89,83.29,224.35,88.44,217.07,79.32Z"/><path d="M188,73c8.43-1.27,17.54-9.56,18.41-21.38.85-8.57-8.6-17.76-18.11-17-6.14-2.12-9.12.18-13.05,3.43,1.39.15,6.42,7.84,6.63,8.07-.53.82-14.09,5.08-13.77,6.11,1.18-1.3-1,1.1-1,1.35C167.68,62.75,176.2,73,188,73Z"/></g><g id="zombie_left_white_outline" data-name="zombie left white outline"><path d="M102,138.11c-.25.17-2.07-.61-9.26-4,.2,2.74-2.12,3.89-3.89,1.74.19.67,1.29,1,2-.28-.17-.29-13.45-.8-14-3.43a12.38,12.38,0,0,1-4.56-.65c-.79-2.92,0-2.92-2.21-.91-1.22-1.52-1.41,0-1.94-2.31.52,2.43.8-1.18.25-.06-3,2.7-8.36,1.42-8.73,8.36.62-.46.17-1.19.29-1.52,1.3,2.86-1.27,3.32-.82,3.65.72.71-2.21,10.8-1.72,8.87,1.1,1.63,1.53,5.57,2.09,4.63-1,.24-1.66.94-1.35-.5-1.62-2.17-2.41,7.2-1,6.13-.46,3.26-1.44,4.61,1,6-.66-1.25-3.11,5.69-3.2,8.43,1.14.1,3-.18,2.73-2.2-1.33,3.24-2.18,4.31-2.3,2.58.88-.81-3.63,20.13-3,20.22.17,5,1.55,7.63,5.09,8.76-1-3.27-1.13-1-1.68-3.33,3.18,2.89,6.1-.26,5.94-4.59.9.64,1.51-1.16.7-3.6.57.12-.93-.93-1-4,1.48.08,3.31,3.32,2.09,2.66.46-1.57,3.28-15.44,3.6-15.54-1.26-2.53,4.41,4.11,4.78,5.11a1.42,1.42,0,0,0,.38-2.24c.85,1.39,2.5,1.37,2.87,4.68,0-2.1,3.74,1.37,3.71,3.79,1.17-1.42,3-3.27,2-2.12,1.66-.46,4.54,1,5.64,4.83-.64-1.92-1.12-1.2-1.47.92,1.87-.3,2.37-1.49,3.47-.1,1.61-2.68,1.27-4.08.38-1.44,1.3.14,2.2-.79,2-3.59,1.25.78,1.25-1.46,0-2.52-1.32.17-.91,3.29-1.79,3.6-1.09-3.41-1.1-3.58-.51-1.11.27-2.39-3.13-4.07-3-3.85-1.13-.39,1.11-4.26,1.34-3.53.69-.18-5.94-5.95-7.61-6,1.17-1-2.54,1.15-.78-1.26-.48,0-.39.89.58.46-.74-.55-5.65-7-5.34-4.5.34-1.54.11-7.3.51-7.69,1.1.54.4-.51.24-.16.73,2.51-.17,1.74-.12.27-.67-.73-1.77-2.36-.65-1,.41,1,1.35-1.38,1.59-2.25,1-1,1.14-4.47,1.9-3.91a94.39,94.39,0,0,0,13.13,2.16c-.85-1-.87-.9.56-2-.56-1.09,4.56.68,3.35,3.78.23-1.45.68-.79-.31-1.13,1.69.45,2.47,1.22,2.41.11.74,2,.79-.89-1,.24,1.26-.11,1.72-1.08,3.12-2.29a9.86,9.86,0,0,1-2-2.43c.26,2.64-1.51.23-.09,3.82-.81-3.39-1.81-2.28-1.45-.11-.25-1-3.38-4.41-3.1-3.11,1.33.53.6-3.54,0-2.34-.46.23-4.27-4.14-7.54-4.61,8.8,1,15.69,1.24,17.11,3.79,1.13-1.06,4.32-3.79,4.46-3.44C104.66,138.85,103.9,138.37,102,138.11Z"/><path class="cls-3" d="M102,138.11c-.25.17-2.07-.61-9.26-4,.2,2.74-2.12,3.89-3.89,1.74.19.67,1.29,1,2-.28-.17-.29-13.45-.8-14-3.43a12.38,12.38,0,0,1-4.56-.65c-.79-2.92,0-2.92-2.21-.91-1.22-1.52-1.41,0-1.94-2.31.52,2.43.8-1.18.25-.06-3,2.7-8.36,1.42-8.73,8.36.62-.46.17-1.19.29-1.52,1.3,2.86-1.27,3.32-.82,3.65.72.71-2.21,10.8-1.72,8.87,1.1,1.63,1.53,5.57,2.09,4.63-1,.24-1.66.94-1.35-.5-1.62-2.17-2.41,7.2-1,6.13-.46,3.26-1.44,4.61,1,6-.66-1.25-3.11,5.69-3.2,8.43,1.14.1,3-.18,2.73-2.2-1.33,3.24-2.18,4.31-2.3,2.58.88-.81-3.63,20.13-3,20.22.17,5,1.55,7.63,5.09,8.76-1-3.27-1.13-1-1.68-3.33,3.18,2.89,6.1-.26,5.94-4.59.9.64,1.51-1.16.7-3.6.57.12-.93-.93-1-4,1.48.08,3.31,3.32,2.09,2.66.46-1.57,3.28-15.44,3.6-15.54-1.26-2.53,4.41,4.11,4.78,5.11a1.42,1.42,0,0,0,.38-2.24c.85,1.39,2.5,1.37,2.87,4.68,0-2.1,3.74,1.37,3.71,3.79,1.17-1.42,3-3.27,2-2.12,1.66-.46,4.54,1,5.64,4.83-.64-1.92-1.12-1.2-1.47.92,1.87-.3,2.37-1.49,3.47-.1,1.61-2.68,1.27-4.08.38-1.44,1.3.14,2.2-.79,2-3.59,1.25.78,1.25-1.46,0-2.52-1.32.17-.91,3.29-1.79,3.6-1.09-3.41-1.1-3.58-.51-1.11.27-2.39-3.13-4.07-3-3.85-1.13-.39,1.11-4.26,1.34-3.53.69-.18-5.94-5.95-7.61-6,1.17-1-2.54,1.15-.78-1.26-.48,0-.39.89.58.46-.74-.55-5.65-7-5.34-4.5.34-1.54.11-7.3.51-7.69,1.1.54.4-.51.24-.16.73,2.51-.17,1.74-.12.27-.67-.73-1.77-2.36-.65-1,.41,1,1.35-1.38,1.59-2.25,1-1,1.14-4.47,1.9-3.91a94.39,94.39,0,0,0,13.13,2.16c-.85-1-.87-.9.56-2-.56-1.09,4.56.68,3.35,3.78.23-1.45.68-.79-.31-1.13,1.69.45,2.47,1.22,2.41.11.74,2,.79-.89-1,.24,1.26-.11,1.72-1.08,3.12-2.29a9.86,9.86,0,0,1-2-2.43c.26,2.64-1.51.23-.09,3.82-.81-3.39-1.81-2.28-1.45-.11-.25-1-3.38-4.41-3.1-3.11,1.33.53.6-3.54,0-2.34-.46.23-4.27-4.14-7.54-4.61,8.8,1,15.69,1.24,17.11,3.79,1.13-1.06,4.32-3.79,4.46-3.44C104.66,138.85,103.9,138.37,102,138.11Z"/><path d="M71.68,127.83c.8.59,1.78,1.59,2,1.29a10.11,10.11,0,0,0,13.9-3.7C90,120,87.72,114,83,112.26c-1.27-1.12-1.44-1-2.25-.83.09-.37.44.61,0,.79-.17.12-.26-.12-.37-.07-.2-.29-1,.64-1.17.78a6.79,6.79,0,0,0-1.64-1.3A1.73,1.73,0,0,0,76,113.27c-.44-1-.69-.68-.55-.62-1.35-.33-2.1.42-2.14.8-1.15.24-1.69,1-1.41,1-.25.77-.13.18,0,.57-.66.28-1.34-.51-1.48-.44-.08.5-.73.69-.82,1.84a8,8,0,0,0,.87,9.83C70.31,126.35,71.88,128.62,71.68,127.83Z"/><path class="cls-3" d="M71.68,127.83c.8.59,1.78,1.59,2,1.29a10.11,10.11,0,0,0,13.9-3.7C90,120,87.72,114,83,112.26c-1.27-1.12-1.44-1-2.25-.83.09-.37.44.61,0,.79-.17.12-.26-.12-.37-.07-.2-.29-1,.64-1.17.78a6.79,6.79,0,0,0-1.64-1.3A1.73,1.73,0,0,0,76,113.27c-.44-1-.69-.68-.55-.62-1.35-.33-2.1.42-2.14.8-1.15.24-1.69,1-1.41,1-.25.77-.13.18,0,.57-.66.28-1.34-.51-1.48-.44-.08.5-.73.69-.82,1.84a8,8,0,0,0,.87,9.83C70.31,126.35,71.88,128.62,71.68,127.83Z"/></g><g id="zombie_left" data-name="zombie left"><path d="M100.17,135c-.46,0-2.49-.08-10-.9L88,135.16l.83-1.26-13.41-1.69A10.12,10.12,0,0,0,70.72,128a7.92,7.92,0,0,0-2.1-.65,14,14,0,0,0-2.28-.11h0c-3.46.25-7.45,2.36-8.13,6.42l.93,1.43L57.45,138l-1.64,9.72,1.22,3-1.55-1.08-1,5.81a6.77,6.77,0,0,0,1,4.92L54.11,169l1,.86-1.48,2-3.38,20.23a5.3,5.3,0,0,0,4.36,6.1h0a5.31,5.31,0,0,0,6.1-4.36l.77-4.65-1.24-3,1.79-.35,2.71-16.24,5.78,5.27.81-.58L73,177.16l4.76,4.34,2.33-2.06,4.34,4c-.64.74-.88,1.58-.15,2.24a1.81,1.81,0,0,0,2.66-2.44,1.82,1.82,0,0,0,2.2-2.87c-.74-.68-1.58-.35-2.26.39a.18.18,0,0,0,0,.07L82.68,177c1-.91,1.9-1.84,2.8-2.81l-7-5.89-2.62-1.19,1-.55-5.44-5.18c.47-.67,1.34-5.06,1.56-5.93l0,0-1-.42-.22-1.89,1.9-2.24,1-5.06c4.45,1.84,9.37,3.91,12.84,5.37q.72-1.19,1.38-2.4l3.88,1.73c-.24.59-.21,1.15.37,1.41A1.17,1.17,0,0,0,94.27,150a1.17,1.17,0,0,0,.77-2.21c-.6-.27-1.05.11-1.31.7a.17.17,0,0,0,0,.05L90,146.82c.4-.81.78-1.64,1.1-2.48l-8.59-3.61c8.18.88,16.64,1.92,16.76,1.93a3.88,3.88,0,1,0,1-7.71Z"/><path d="M70,126.29a10,10,0,1,0,11.1-16.42,7.73,7.73,0,0,0-1.93-.75l-.2,1.17-.17,0a1.42,1.42,0,0,0-1.42.61,1.88,1.88,0,0,0-3.11,0,1.69,1.69,0,0,0-.79-.36,1.74,1.74,0,0,0-1.95,1.2A1.54,1.54,0,0,0,69.82,113a1.34,1.34,0,0,0,0,.2L68.58,113a10.68,10.68,0,0,0-.87,1.41,10,10,0,0,0,1,10.42Z"/></g></g></g></g></g></svg>