<svg xmlns="http://www.w3.org/2000/svg" xmlns:xlink="http://www.w3.org/1999/xlink" viewBox="0 0 235 57"><defs><style>.cls-1{fill:url(#_ÂÁ_Ï_ÌÌ_È_ËÂÌÚ_5);}.cls-2{isolation:isolate;}.cls-3{fill:url(#linear-gradient);}.cls-4{mix-blend-mode:multiply;}.cls-5{clip-path:url(#clip-path);}.cls-6{fill:url(#_ÂÁ_Ï_ÌÌ_È_ËÂÌÚ_15);}.cls-7{fill:url(#_ÂÁ_Ï_ÌÌ_È_ËÂÌÚ_15-2);}.cls-8{fill:url(#_ÂÁ_Ï_ÌÌ_È_ËÂÌÚ_14);}.cls-9{fill:#fffff8;}.cls-10{fill:#003970;}.cls-11{fill:#fffff7;}</style><linearGradient id="_ÂÁ_Ï_ÌÌ_È_ËÂÌÚ_5" y1="25" x2="230" y2="25" gradientUnits="userSpaceOnUse"><stop offset="0" stop-color="#db8810"/><stop offset="1" stop-color="#e22d18"/></linearGradient><linearGradient id="linear-gradient" y1="25" x2="230" y2="25" gradientUnits="userSpaceOnUse"><stop offset="0" stop-color="#44ade2"/><stop offset="1" stop-color="#003970"/></linearGradient><clipPath id="clip-path" transform="translate(2.5)"><path id="Mask" class="cls-1" d="M205,0H25a25,25,0,0,0,0,50H205a25,25,0,0,0,0-50Z"/></clipPath><radialGradient id="_ÂÁ_Ï_ÌÌ_È_ËÂÌÚ_15" cx="29.34" cy="-70.09" r="25" gradientTransform="translate(-4.45 108.4) scale(1.02 1.14)" gradientUnits="userSpaceOnUse"><stop offset="0.75" stop-color="#fff"/><stop offset="0.79" stop-color="#fefdfc"/><stop offset="0.83" stop-color="#fcf7f2"/><stop offset="0.86" stop-color="#f9ede1"/><stop offset="0.89" stop-color="#f3dfc9"/><stop offset="0.92" stop-color="#edcdaa"/><stop offset="0.95" stop-color="#e5b784"/><stop offset="0.98" stop-color="#db9d59"/><stop offset="1" stop-color="#d48936"/></radialGradient><radialGradient id="_ÂÁ_Ï_ÌÌ_È_ËÂÌÚ_15-2" cx="208.61" cy="-70.09" r="25" xlink:href="#_ÂÁ_Ï_ÌÌ_È_ËÂÌÚ_15"/><linearGradient id="_ÂÁ_Ï_ÌÌ_È_ËÂÌÚ_14" x1="117.5" y1="57" x2="117.5" gradientUnits="userSpaceOnUse"><stop offset="0.88" stop-color="#fff"/><stop offset="0.9" stop-color="#fefdfc"/><stop offset="0.92" stop-color="#fcf7f2"/><stop offset="0.93" stop-color="#f9ede1"/><stop offset="0.95" stop-color="#f3dfc9"/><stop offset="0.96" stop-color="#edcdaa"/><stop offset="0.98" stop-color="#e5b784"/><stop offset="0.99" stop-color="#db9d59"/><stop offset="1" stop-color="#d48936"/></linearGradient></defs><g class="cls-2"><g id="Layer_2" data-name="Layer 2"><g id="the_advantages" data-name="the advantages"><g id="basic_button_hover" data-name="basic button hover"><path id="BG" class="cls-3" d="M205,0H25a25,25,0,0,0,0,50H205a25,25,0,0,0,0-50Z" transform="translate(2.5)"/><g id="Shadow" class="cls-4"><path id="Mask-2" data-name="Mask" class="cls-1" d="M205,0H25a25,25,0,0,0,0,50H205a25,25,0,0,0,0-50Z" transform="translate(2.5)"/><g class="cls-5"><g id="Shadow-2" data-name="Shadow"><rect class="cls-6" width="51.25" height="57"/><rect class="cls-7" x="183.75" width="51.25" height="57"/><rect class="cls-8" x="25.63" width="183.75" height="57"/></g></g></g><g id="eye"><ellipse class="cls-9" cx="205.03" cy="24.9" rx="15" ry="14.79"/><path class="cls-10" d="M203,20.87A4.15,4.15,0,1,0,207.16,25,4.15,4.15,0,0,0,203,20.87Z" transform="translate(2.5)"/><path class="cls-10" d="M203,16.72c-6.92,0-12.45,8.3-12.45,8.3s5.53,8.29,12.45,8.29S215.46,25,215.46,25,209.93,16.72,203,16.72Zm0,13.83c-3.52,0-7-3.23-9-5.53,1.95-2.31,5.45-5.54,9-5.54s7,3.23,9,5.54C210,27.33,206.53,30.55,203,30.55Z" transform="translate(2.5)"/></g></g><g id="basic_button" data-name="basic button"><g id="show_ability_label" data-name="show ability label"><path class="cls-11" d="M60.2,28.55a7.38,7.38,0,0,0,3.16.76c1.11,0,1.65-.38,1.65-1s-.54-.94-1.91-1.41c-2.05-.72-3.4-1.85-3.4-3.65,0-2.15,1.8-3.8,4.86-3.8a7.88,7.88,0,0,1,3.3.63l-.69,2.59a6.37,6.37,0,0,0-2.64-.58c-1,0-1.53.36-1.53.9s.64.87,2.17,1.44c2.18.8,3.17,2,3.17,3.66,0,2.09-1.64,3.87-5.18,3.87a8.64,8.64,0,0,1-3.57-.74Z" transform="translate(2.5)"/><path class="cls-11" d="M73.34,19.65v4.49h4V19.65h3.24V31.79H77.29V27h-4v4.81H70.09V19.65Z" transform="translate(2.5)"/><path class="cls-11" d="M94.19,25.6c0,3.9-2.34,6.39-6.08,6.39s-5.84-2.83-5.84-6.2,2.32-6.33,6-6.33C92.21,19.46,94.19,22.36,94.19,25.6Zm-8.48.14c0,2.27,1,3.67,2.56,3.67s2.48-1.53,2.48-3.71S89.82,22,88.25,22,85.71,23.51,85.71,25.74Z" transform="translate(2.5)"/><path class="cls-11" d="M97.64,31.79,94.85,19.65h3.5l.7,4.51c.22,1.4.43,3,.63,4.26h0c.18-1.36.43-2.82.7-4.3l.77-4.47h3.48l.75,4.69c.22,1.38.38,2.63.54,4h0c.18-1.35.4-2.79.61-4.21l.72-4.47h3.3l-3,12.14h-3.55L103.28,27c-.18-1.06-.34-2.2-.5-3.64h0c-.2,1.44-.36,2.58-.58,3.66l-.91,4.73Z" transform="translate(2.5)"/><path class="cls-11" d="M118.76,29l-.69,2.81h-3.36l3.53-12.14h4.32l3.62,12.14h-3.51L121.89,29Zm2.68-2.41-.56-2.18c-.18-.68-.41-1.67-.59-2.39h0c-.18.72-.36,1.72-.54,2.41l-.52,2.16Z" transform="translate(2.5)"/><path class="cls-11" d="M127.72,19.82a26.73,26.73,0,0,1,3.84-.26,7.74,7.74,0,0,1,3.71.6,2.67,2.67,0,0,1-.35,5v0a3,3,0,0,1,2.38,3A3.27,3.27,0,0,1,136,30.84c-.92.68-2.43,1.08-5,1.08a20.81,20.81,0,0,1-3.21-.2Zm3.22,4.5h.65c1.39,0,2.06-.49,2.06-1.26s-.54-1.17-1.64-1.17a6,6,0,0,0-1.07.07Zm0,5.18a6.15,6.15,0,0,0,.94,0c1.08,0,2-.43,2-1.49s-.94-1.43-2.16-1.43h-.78Z" transform="translate(2.5)"/><path class="cls-11" d="M142.34,19.65V31.79h-3.26V19.65Z" transform="translate(2.5)"/><path class="cls-11" d="M144.57,19.65h3.26v9.42h4.66v2.72h-7.92Z" transform="translate(2.5)"/><path class="cls-11" d="M157.33,19.65V31.79h-3.26V19.65Z" transform="translate(2.5)"/><path class="cls-11" d="M161.92,22.37h-3.09V19.65h9.5v2.72h-3.15v9.42h-3.26Z" transform="translate(2.5)"/><path class="cls-11" d="M172.67,31.79v-4.9l-3.84-7.24h3.73l1,2.74c.34.85.55,1.46.83,2.23h0c.23-.73.49-1.4.77-2.23l1-2.74h3.66l-4,7.12v5Z" transform="translate(2.5)"/></g></g></g></g></g></svg>