<svg xmlns="http://www.w3.org/2000/svg" xmlns:xlink="http://www.w3.org/1999/xlink" viewBox="0 0 235 57"><defs><style>.cls-1{fill:url(#_ÂÁ_Ï_ÌÌ_È_ËÂÌÚ_5);}.cls-2{isolation:isolate;}.cls-3{fill:url(#linear-gradient);}.cls-4{mix-blend-mode:multiply;}.cls-5{clip-path:url(#clip-path);}.cls-6{fill:url(#_ÂÁ_Ï_ÌÌ_È_ËÂÌÚ_15);}.cls-7{fill:url(#_ÂÁ_Ï_ÌÌ_È_ËÂÌÚ_15-2);}.cls-8{fill:url(#_ÂÁ_Ï_ÌÌ_È_ËÂÌÚ_14);}.cls-9{fill:#fffff8;}.cls-10{fill:#003970;}.cls-11{fill:#fffff7;}</style><linearGradient id="_ÂÁ_Ï_ÌÌ_È_ËÂÌÚ_5" y1="25" x2="230" y2="25" gradientUnits="userSpaceOnUse"><stop offset="0" stop-color="#db8810"/><stop offset="1" stop-color="#e22d18"/></linearGradient><linearGradient id="linear-gradient" y1="25" x2="230" y2="25" gradientUnits="userSpaceOnUse"><stop offset="0" stop-color="#44ade2"/><stop offset="1" stop-color="#003970"/></linearGradient><clipPath id="clip-path" transform="translate(2.5)"><path id="Mask" class="cls-1" d="M205,0H25a25,25,0,0,0,0,50H205a25,25,0,0,0,0-50Z"/></clipPath><radialGradient id="_ÂÁ_Ï_ÌÌ_È_ËÂÌÚ_15" cx="29.34" cy="-70.09" r="25" gradientTransform="translate(-4.45 108.4) scale(1.02 1.14)" gradientUnits="userSpaceOnUse"><stop offset="0.75" stop-color="#fff"/><stop offset="0.79" stop-color="#fefdfc"/><stop offset="0.83" stop-color="#fcf7f2"/><stop offset="0.86" stop-color="#f9ede1"/><stop offset="0.89" stop-color="#f3dfc9"/><stop offset="0.92" stop-color="#edcdaa"/><stop offset="0.95" stop-color="#e5b784"/><stop offset="0.98" stop-color="#db9d59"/><stop offset="1" stop-color="#d48936"/></radialGradient><radialGradient id="_ÂÁ_Ï_ÌÌ_È_ËÂÌÚ_15-2" cx="208.61" cy="-70.09" r="25" xlink:href="#_ÂÁ_Ï_ÌÌ_È_ËÂÌÚ_15"/><linearGradient id="_ÂÁ_Ï_ÌÌ_È_ËÂÌÚ_14" x1="117.5" y1="57" x2="117.5" gradientUnits="userSpaceOnUse"><stop offset="0.88" stop-color="#fff"/><stop offset="0.9" stop-color="#fefdfc"/><stop offset="0.92" stop-color="#fcf7f2"/><stop offset="0.93" stop-color="#f9ede1"/><stop offset="0.95" stop-color="#f3dfc9"/><stop offset="0.96" stop-color="#edcdaa"/><stop offset="0.98" stop-color="#e5b784"/><stop offset="0.99" stop-color="#db9d59"/><stop offset="1" stop-color="#d48936"/></linearGradient></defs><g class="cls-2"><g id="Layer_2" data-name="Layer 2"><g id="the_advantages" data-name="the advantages"><g id="basic_button_hover" data-name="basic button hover"><path id="BG" class="cls-3" d="M205,0H25a25,25,0,0,0,0,50H205a25,25,0,0,0,0-50Z" transform="translate(2.5)"/><g id="Shadow" class="cls-4"><path id="Mask-2" data-name="Mask" class="cls-1" d="M205,0H25a25,25,0,0,0,0,50H205a25,25,0,0,0,0-50Z" transform="translate(2.5)"/><g class="cls-5"><g id="Shadow-2" data-name="Shadow"><rect class="cls-6" width="51.25" height="57"/><rect class="cls-7" x="183.75" width="51.25" height="57"/><rect class="cls-8" x="25.63" width="183.75" height="57"/></g></g></g><g id="check_mark" data-name="check mark"><path id="check_mark-2" data-name="check mark" class="cls-9" d="M202.69,10.93a15.12,15.12,0,1,0,15.12,15.12A15.12,15.12,0,0,0,202.69,10.93Z" transform="translate(2.5)"/><path class="cls-10" d="M212.26,16.72a45.8,45.8,0,0,0-5,4.11,50.53,50.53,0,0,0-7,8l-4.81-4.3-2.06,1.94,7.51,8.72s1.84-5.15,7.36-12c1.31-1.63,2.82-3.35,4.54-5.12Z" transform="translate(2.5)"/></g></g><g id="basic_button" data-name="basic button"><g id="assign_dobbles_label" data-name="assign dobbles label"><path class="cls-11" d="M39.52,29l-.68,2.81H35.47L39,19.65h4.32l3.62,12.14H43.43L42.66,29Zm2.69-2.41-.56-2.18c-.18-.68-.42-1.67-.6-2.39h0c-.18.72-.36,1.72-.54,2.41L40,26.57Z" transform="translate(2.5)"/><path class="cls-11" d="M48.7,28.55a7.37,7.37,0,0,0,3.15.76c1.12,0,1.66-.38,1.66-1s-.54-.94-1.91-1.41c-2.05-.72-3.4-1.85-3.4-3.65,0-2.15,1.8-3.8,4.86-3.8a7.79,7.79,0,0,1,3.29.63l-.68,2.59A6.38,6.38,0,0,0,53,22.1c-1,0-1.53.36-1.53.9s.65.87,2.18,1.44c2.18.8,3.17,2,3.17,3.66,0,2.09-1.64,3.87-5.18,3.87a8.6,8.6,0,0,1-3.57-.74Z" transform="translate(2.5)"/><path class="cls-11" d="M58.8,28.55a7.37,7.37,0,0,0,3.15.76c1.12,0,1.66-.38,1.66-1s-.54-.94-1.91-1.41c-2.05-.72-3.4-1.85-3.4-3.65,0-2.15,1.8-3.8,4.86-3.8a7.82,7.82,0,0,1,3.29.63l-.68,2.59a6.38,6.38,0,0,0-2.65-.58c-1,0-1.53.36-1.53.9s.65.87,2.18,1.44c2.18.8,3.17,2,3.17,3.66,0,2.09-1.64,3.87-5.19,3.87a8.58,8.58,0,0,1-3.56-.74Z" transform="translate(2.5)"/><path class="cls-11" d="M71.94,19.65V31.79H68.68V19.65Z" transform="translate(2.5)"/><path class="cls-11" d="M84.69,31.21a14.19,14.19,0,0,1-4.18.71,7.09,7.09,0,0,1-5.11-1.64,5.94,5.94,0,0,1-1.73-4.39c0-4.22,3.15-6.36,7.09-6.36a8.85,8.85,0,0,1,3.51.59l-.64,2.6a6.94,6.94,0,0,0-2.89-.51c-2,0-3.65,1.05-3.65,3.51a3.31,3.31,0,0,0,3.46,3.59,4,4,0,0,0,1-.11V27.11H79.93V24.59h4.76Z" transform="translate(2.5)"/><path class="cls-11" d="M86.72,31.79V19.65h3.83l1.93,3.73a35.38,35.38,0,0,1,1.91,4.25h0a45.78,45.78,0,0,1-.25-5.11V19.65h3V31.79H93.74l-2-4a42.52,42.52,0,0,1-2-4.4h-.06c.07,1.64.11,3.48.11,5.44v3Z" transform="translate(2.5)"/><path class="cls-11" d="M103,19.82a25.52,25.52,0,0,1,3.87-.26,8.28,8.28,0,0,1,5,1.21,5.33,5.33,0,0,1,2.2,4.67,6,6,0,0,1-2.13,5,9.16,9.16,0,0,1-5.69,1.5,20.1,20.1,0,0,1-3.24-.2Zm3.26,9.54a3.66,3.66,0,0,0,.69,0c2.1,0,3.65-1.14,3.65-3.88a3.12,3.12,0,0,0-3.35-3.47,5.52,5.52,0,0,0-1,.07Z" transform="translate(2.5)"/><path class="cls-11" d="M127.17,25.6c0,3.9-2.34,6.39-6.09,6.39s-5.83-2.83-5.83-6.2,2.32-6.33,6-6.33C125.19,19.46,127.17,22.36,127.17,25.6Zm-8.48.14c0,2.27,1,3.67,2.55,3.67s2.49-1.53,2.49-3.71-.94-3.67-2.5-3.67S118.69,23.51,118.69,25.74Z" transform="translate(2.5)"/><path class="cls-11" d="M128.89,19.82a26.73,26.73,0,0,1,3.84-.26,7.74,7.74,0,0,1,3.71.6,2.67,2.67,0,0,1-.35,5v0a3,3,0,0,1,2.38,3,3.27,3.27,0,0,1-1.35,2.65c-.92.68-2.43,1.08-5,1.08a20.81,20.81,0,0,1-3.21-.2Zm3.22,4.5h.65c1.39,0,2.06-.49,2.06-1.26s-.54-1.17-1.64-1.17a6,6,0,0,0-1.07.07Zm0,5.18a6.15,6.15,0,0,0,.94,0c1.08,0,2-.43,2-1.49s-.94-1.43-2.16-1.43h-.78Z" transform="translate(2.5)"/><path class="cls-11" d="M140.25,19.82a26.68,26.68,0,0,1,3.83-.26,7.71,7.71,0,0,1,3.71.6,2.67,2.67,0,0,1-.34,5v0a3,3,0,0,1,2.38,3,3.27,3.27,0,0,1-1.35,2.65c-.92.68-2.43,1.08-5,1.08a20.75,20.75,0,0,1-3.2-.2Zm3.22,4.5h.65c1.39,0,2-.49,2-1.26s-.54-1.17-1.64-1.17a5.87,5.87,0,0,0-1.06.07Zm0,5.18a6.08,6.08,0,0,0,.94,0c1.08,0,2-.43,2-1.49s-.94-1.43-2.16-1.43h-.78Z" transform="translate(2.5)"/><path class="cls-11" d="M151.61,19.65h3.26v9.42h4.66v2.72h-7.92Z" transform="translate(2.5)"/><path class="cls-11" d="M168.73,26.89h-4.36v2.24h4.88v2.66h-8.14V19.65H169V22.3h-4.63v2h4.36Z" transform="translate(2.5)"/><path class="cls-11" d="M171.26,28.55a7.37,7.37,0,0,0,3.15.76c1.12,0,1.66-.38,1.66-1s-.54-.94-1.91-1.41c-2-.72-3.4-1.85-3.4-3.65,0-2.15,1.8-3.8,4.86-3.8a7.88,7.88,0,0,1,3.3.63l-.69,2.59a6.38,6.38,0,0,0-2.65-.58c-1,0-1.53.36-1.53.9s.65.87,2.18,1.44c2.18.8,3.17,2,3.17,3.66,0,2.09-1.64,3.87-5.18,3.87a8.64,8.64,0,0,1-3.57-.74Z" transform="translate(2.5)"/></g></g></g></g></g></svg>