<svg xmlns="http://www.w3.org/2000/svg" viewBox="0 0 433.99 522"><defs><style>.cls-1{fill:#fffff8;}.cls-2{fill:#3eade2;}.cls-3{fill:#231f20;}.cls-4{fill:none;stroke:#000;stroke-miterlimit:10;}</style></defs><g id="Layer_2" data-name="Layer 2"><g id="new_base" data-name="new base"><rect id="frame" class="cls-1" width="433.99" height="522"/></g><g id="homepage"><g id="blue"><rect id="card_back" data-name="card back" class="cls-2" x="64.6" y="47.65" width="304.78" height="426.7" rx="18"/></g><g id="logo"><path class="cls-3" d="M129.63,75.05a18,18,0,0,0-3.93-5.83,18.23,18.23,0,0,0-13-5.37h-27a18.34,18.34,0,1,1,0,36.67h27a18.22,18.22,0,0,0,7.14-1.44,18.41,18.41,0,0,0,5.82-3.93,18.3,18.3,0,0,0,3.93-20.1ZM112.74,94h-3.87V70.34h3.87a11.85,11.85,0,0,1,0,23.69Z"/><path class="cls-3" d="M85.7,70.36H81.83V94.05H85.7a11.85,11.85,0,1,0,0-23.69Z"/></g><g id="situation_icon" data-name="situation icon"><path d="M189.71,259.94c-2.45,10.51-.29,19.36.62,27.58-.26,18.54,10.75,31.49,20.11,42.3,4,8,8.55,12.72,11.62,14.93,1.9,5.13,2.11,6.64.41,6.43-9.95-9.5-22.47-19.22-29-35.88-2.29,7.17-1.43,12.13,0,14.52.08,6.46-1.43,8.84-4.15,7.88-3.54-5.74-1.81-14.58-3.73-25.51-5.85,9.85-10.38,17.18-13.69,21.57-4.25,7.27-7.48,11.59-8.5,13.06-4,6.94-8.7,6.73-8.92,6.85-2.58.53-1.72-1.85,2.29-7.26,4.19-3.87,8.94-12.29,15.13-22.81-.79,1-.15-.27,2.08-3.53,6.19-7.1,8.35-18.11,10.16-30.48.35-13.74.78-28.42-.21-42.1a176.89,176.89,0,0,1-4.15-27.37c-2-8.59-1.77-15.5.63-19.7-.24-7.45.84-12.42,3.11-13.89-.33-6.08.75-8.89,4.77-6.22.73-4,2-5,3.94.83-.19-2.63,1.54-2.2,3.11,1.45,4-3.44,6.2-.2,8.5,6.43,7.2,8.26,14.1,20.14,19.08,34.42,1.71.82,2.79,1.9,4.77,2.07,3.42-3,6-3.84,7.88-2.28,4.17-2.2,7-3.93,7.05-5,2.73-4.78,4.89-7.15,6-6.42,4.28-3.75,7.08-4.4,7.88-.21,4.6-.31,6.54,4.87,3.53,9.54.64,2.89-5,6.77-11.2,6.22-3.92-4.41-8.24-1.82-13.69,1.87-9.87,3.65-7.5,2.35-5.39,12.44a24.1,24.1,0,0,1,4.35,11.61c5.63,10.89,6.06,22.76,4.77,33.8,1.29,6.88-1.51,9.25-8.5,6.64-6.83-.84-13.52-4.94-19.28-11.2C204.1,275.42,195.9,269.16,189.71,259.94Zm46.34,25.34c-2.27-9.5-.76-21.81-6.63-33.59-1-3.54-2.11-8.5-4.15-12.86-1-4.06-1.42-4.06-5.6-1.87a23.78,23.78,0,0,1-4.77,2.49,3.53,3.53,0,0,1-5-1.86,3,3,0,0,1,1.87-4.36c2.13-1.27,4.29-2.56,6.22-3.52,4.12-2.71,4.12-2.71,1.87-6-6.6-13.31-13.73-25.83-22.4-35-2.55-4.39-4.28-4.39-5.6-1-3-.76-3.86,1-3.11,5.39-1.39,5.08.33,11.77,2.28,19.49,1.51,14.08,8,27.67,13.69,41.06a45.43,45.43,0,0,0,12.65,20.12,95.92,95.92,0,0,0,7.47,9.95c2,4.89,5,6.62,7.46,5.19C235.94,291.53,237,290.24,236.05,285.28Z"/><path class="cls-4" d="M189.71,259.94c-2.45,10.51-.29,19.36.62,27.58-.26,18.54,10.75,31.49,20.11,42.3,4,8,8.55,12.72,11.62,14.93,1.9,5.13,2.11,6.64.41,6.43-9.95-9.5-22.47-19.22-29-35.88-2.29,7.17-1.43,12.13,0,14.52.08,6.46-1.43,8.84-4.15,7.88-3.54-5.74-1.81-14.58-3.73-25.51-5.85,9.85-10.38,17.18-13.69,21.57-4.25,7.27-7.48,11.59-8.5,13.06-4,6.94-8.7,6.73-8.92,6.85-2.58.53-1.72-1.85,2.29-7.26,4.19-3.87,8.94-12.29,15.13-22.81-.79,1-.15-.27,2.08-3.53,6.19-7.1,8.35-18.11,10.16-30.48.35-13.74.78-28.42-.21-42.1a176.89,176.89,0,0,1-4.15-27.37c-2-8.59-1.77-15.5.63-19.7-.24-7.45.84-12.42,3.11-13.89-.33-6.08.75-8.89,4.77-6.22.73-4,2-5,3.94.83-.19-2.63,1.54-2.2,3.11,1.45,4-3.44,6.2-.2,8.5,6.43,7.2,8.26,14.1,20.14,19.08,34.42,1.71.82,2.79,1.9,4.77,2.07,3.42-3,6-3.84,7.88-2.28,4.17-2.2,7-3.93,7.05-5,2.73-4.78,4.89-7.15,6-6.42,4.28-3.75,7.08-4.4,7.88-.21,4.6-.31,6.54,4.87,3.53,9.54.64,2.89-5,6.77-11.2,6.22-3.92-4.41-8.24-1.82-13.69,1.87-9.87,3.65-7.5,2.35-5.39,12.44a24.1,24.1,0,0,1,4.35,11.61c5.63,10.89,6.06,22.76,4.77,33.8,1.29,6.88-1.51,9.25-8.5,6.64-6.83-.84-13.52-4.94-19.28-11.2C204.1,275.42,195.9,269.16,189.71,259.94Zm46.34,25.34c-2.27-9.5-.76-21.81-6.63-33.59-1-3.54-2.11-8.5-4.15-12.86-1-4.06-1.42-4.06-5.6-1.87a23.78,23.78,0,0,1-4.77,2.49,3.53,3.53,0,0,1-5-1.86,3,3,0,0,1,1.87-4.36c2.13-1.27,4.29-2.56,6.22-3.52,4.12-2.71,4.12-2.71,1.87-6-6.6-13.31-13.73-25.83-22.4-35-2.55-4.39-4.28-4.39-5.6-1-3-.76-3.86,1-3.11,5.39-1.39,5.08.33,11.77,2.28,19.49,1.51,14.08,8,27.67,13.69,41.06a45.43,45.43,0,0,0,12.65,20.12,95.92,95.92,0,0,0,7.47,9.95c2,4.89,5,6.62,7.46,5.19C235.94,291.53,237,290.24,236.05,285.28Z"/><path d="M305.79,243.48c-3.16-1.49-6.39-3.65-5.6-9.75,5.47-15.7-.79-30.59-8.5-44.79-5-10.62-12.8-18.61-19.29-25.51-1.92-3-5.16-4.75-2.07-5.18,1.22-3.46,2.52-.22,4.56,2.69a68.35,68.35,0,0,1,17.83,21.57,32.2,32.2,0,0,1,6.22,12.65c3.48,8.63,6.28,17.47,6.85,25.71C307.38,229,306.52,236.59,305.79,243.48Z"/><path class="cls-4" d="M305.79,243.48c-3.16-1.49-6.39-3.65-5.6-9.75,5.47-15.7-.79-30.59-8.5-44.79-5-10.62-12.8-18.61-19.29-25.51-1.92-3-5.16-4.75-2.07-5.18,1.22-3.46,2.52-.22,4.56,2.69a68.35,68.35,0,0,1,17.83,21.57,32.2,32.2,0,0,1,6.22,12.65c3.48,8.63,6.28,17.47,6.85,25.71C307.38,229,306.52,236.59,305.79,243.48Z"/><path d="M260.84,187.47c5.16-1.33,10.44,0,12.39,7.52,3.33,7.43,6.85,16,6.5,24.58.79,4.42.13,7.5-1.42,9.14.45,2.54-.21,3.2-1.63,1.22-.34,1.76-1,1.1-1.62-1.43,0,.33.62-.77.41-3.45a37.31,37.31,0,0,0-3.66-24.38c-1.85-5.07-4.49-9.25-8.53-9.75C261.37,188.78,259.83,187.9,260.84,187.47Z"/></g><g id="situation_cards_label" data-name="situation cards label"><path class="cls-3" d="M147.51,402.6a7.37,7.37,0,0,0,3.15.76c1.12,0,1.66-.38,1.66-1s-.54-.94-1.91-1.4c-2-.72-3.4-1.86-3.4-3.66,0-2.14,1.8-3.8,4.86-3.8a7.79,7.79,0,0,1,3.29.63l-.68,2.59a6.41,6.41,0,0,0-2.65-.57c-1,0-1.53.36-1.53.9s.65.86,2.18,1.44c2.18.79,3.17,2,3.17,3.65,0,2.09-1.64,3.87-5.18,3.87a8.62,8.62,0,0,1-3.57-.73Z"/><path class="cls-3" d="M160.65,393.71v12.14h-3.26V393.71Z"/><path class="cls-3" d="M165.24,396.43h-3.09v-2.72h9.5v2.72H168.5v9.42h-3.26Z"/><path class="cls-3" d="M176.39,393.71v6.88c0,1.83.63,2.88,1.9,2.88s1.93-1,1.93-2.88v-6.88h3.26v6.7c0,3.74-1.87,5.63-5.28,5.63s-5.07-1.81-5.07-5.72v-6.61Z"/><path class="cls-3" d="M188.37,403l-.68,2.81h-3.37l3.53-12.14h4.32l3.62,12.14h-3.51l-.77-2.81Zm2.69-2.42-.56-2.18c-.18-.68-.42-1.67-.6-2.39h0c-.18.72-.36,1.73-.54,2.41l-.52,2.16Z"/><path class="cls-3" d="M198.15,396.43h-3.1v-2.72h9.51v2.72h-3.15v9.42h-3.26Z"/><path class="cls-3" d="M209.31,393.71v12.14h-3.26V393.71Z"/><path class="cls-3" d="M223,399.65c0,3.91-2.34,6.39-6.08,6.39s-5.84-2.82-5.84-6.19c0-3.53,2.33-6.34,6-6.34C221,393.51,223,396.41,223,399.65Zm-8.48.15c0,2.26,1,3.67,2.56,3.67s2.48-1.53,2.48-3.71-.93-3.67-2.5-3.67S214.47,397.56,214.47,399.8Z"/><path class="cls-3" d="M224.68,405.85V393.71h3.83l1.93,3.73a34,34,0,0,1,1.91,4.25h.05a46.09,46.09,0,0,1-.25-5.12v-2.86h3v12.14H231.7l-2-4a43.49,43.49,0,0,1-2.06-4.39h-.05c.07,1.64.11,3.47.11,5.44v3Z"/><path class="cls-3" d="M250,405.54A8.21,8.21,0,0,1,247,406c-4.53,0-6.53-2.82-6.53-6,0-4.29,3.13-6.47,6.75-6.47a7.28,7.28,0,0,1,3,.54l-.63,2.56a5.86,5.86,0,0,0-2.25-.43,3.58,3.58,0,0,0,.06,7.16,6.59,6.59,0,0,0,2.17-.36Z"/><path class="cls-3" d="M255.17,403l-.68,2.81h-3.37l3.53-12.14H259l3.62,12.14h-3.51L258.3,403Zm2.68-2.42-.55-2.18c-.18-.68-.42-1.67-.6-2.39h0c-.19.72-.37,1.73-.54,2.41l-.53,2.16Z"/><path class="cls-3" d="M264.13,393.87a27.62,27.62,0,0,1,3.93-.25,6.73,6.73,0,0,1,4.1.94,3.1,3.1,0,0,1,1.21,2.64,3.22,3.22,0,0,1-2.09,2.94v.07a3,3,0,0,1,1.55,2.16c.38,1.24.77,3,1,3.48h-3.33a16.79,16.79,0,0,1-.85-2.8c-.32-1.45-.77-1.76-1.78-1.76h-.52v4.56h-3.23Zm3.23,5.1h.84c1.23,0,1.93-.61,1.93-1.52s-.6-1.42-1.68-1.44a5,5,0,0,0-1.09.08Z"/><path class="cls-3" d="M275.24,393.87a26.91,26.91,0,0,1,3.87-.25,8.3,8.3,0,0,1,5,1.21,5.3,5.3,0,0,1,2.19,4.66,6,6,0,0,1-2.12,5,9.23,9.23,0,0,1-5.69,1.49,20,20,0,0,1-3.24-.2Zm3.26,9.54a3.61,3.61,0,0,0,.68,0c2.11,0,3.66-1.13,3.66-3.87a3.13,3.13,0,0,0-3.35-3.48,4.45,4.45,0,0,0-1,.08Z"/><path class="cls-3" d="M288.23,402.6a7.38,7.38,0,0,0,3.16.76c1.11,0,1.65-.38,1.65-1s-.54-.94-1.91-1.4c-2.05-.72-3.4-1.86-3.4-3.66,0-2.14,1.8-3.8,4.86-3.8a7.88,7.88,0,0,1,3.3.63l-.69,2.59a6.4,6.4,0,0,0-2.64-.57c-1,0-1.53.36-1.53.9s.64.86,2.17,1.44c2.18.79,3.17,2,3.17,3.65,0,2.09-1.64,3.87-5.18,3.87a8.66,8.66,0,0,1-3.57-.73Z"/></g></g></g></svg>