<svg xmlns="http://www.w3.org/2000/svg" viewBox="0 0 262 327"><defs><style>.cls-1{fill:#fffff8;}.cls-2{fill:#fafaf8;}.cls-3{fill:#f6c820;isolation:isolate;opacity:0.83;}</style></defs><g id="Layer_2" data-name="Layer 2"><g id="the_advantages" data-name="the advantages"><g id="need_click_for_a_spark_" data-name="need/click for a spark!"><rect id="framing_rectangle" data-name="framing rectangle" class="cls-1" width="262" height="327"/><rect id="white_card" data-name="white card" class="cls-2" x="36.31" y="45.21" width="184.95" height="258.93" rx="10.92" transform="translate(-1.52 1.13) rotate(-0.5)"/><rect id="background" class="cls-3" x="45.64" y="53.39" width="165.61" height="142" rx="10.92"/><path d="M129.23,77.49c-1.14-.86,5.7-.86,4.56,0,1.14-.86,1.14,4.27,0,3.42,1.14.85-5.7.85-4.56,0C128.09,81.76,128.09,76.63,129.23,77.49ZM127,85.18c-2.28-2,11.4-2,9.12,0,2.28-2,2.28,10,0,8,2.28,2-11.4,2-9.12,0C124.67,95.16,124.67,83.19,127,85.18Zm-2.28,13.26c-3.42-2.85,17.1-2.85,13.68,0,3.42-2.85,3.42,14.25,0,11.4,3.42,2.85-17.1,2.85-13.68,0C121.25,112.69,121.25,95.59,124.67,98.44Zm-4.56,16.24c-5.7-1.14,28.5-1.14,22.8,0,5.7-1.14,5.7,5.71,0,4.57,5.7,1.14-28.5,1.14-22.8,0C114.41,120.39,114.41,113.54,120.11,114.68Zm4.56,36.77c-3.42-.57,17.1-.57,13.68,0,3.42-.57,3.42,2.85,0,2.28,3.42.57-17.1.57-13.68,0C121.25,154.3,121.25,150.88,124.67,151.45Zm0-3.42c-3.42.57-3.42-2.85,0-2.28-3.42-.57,17.1-.57,13.68,0,3.42-.57,3.42,2.85,0,2.28C141.77,148.6,121.25,148.6,124.67,148Zm12.54,11.41c2.85.57-14.25.57-11.4,0-3.8.57-4.56-.2-1.14-1.14-3.42,0-3.42-1.72,0-1.14-3.42-.58,17.1-.58,13.68,0,3.42-.58,3.42,1.14,0,1.14C141.77,159.24,141,160,137.21,159.44Zm1.14-17.11c3.42.57-17.1.57-13.68,0-3.42.57-3.42-2.85,0-2.28-3.42-.57,17.1-.57,13.68,0C141.77,139.48,141.77,142.9,138.35,142.33Zm-18.24-6c-5.7,1.14-5.7-5.7,0-4.56-5.7-1.14,28.5-1.14,22.8,0,5.7-1.14,5.7,5.7,0,4.56C148.61,137.49,114.41,137.49,120.11,136.35Zm18.24-8.55c3.42,1.14-17.1,1.14-13.68,0-3.42,1.14-3.42-5.7,0-4.56-3.42-1.14,17.1-1.14,13.68,0C141.77,122.1,141.77,128.94,138.35,127.8Z"/><path d="M103.25,133.21c2.36,7.41-14.74,7.41-11.4,0-4.28,7.41-5,6.65-1.14-1.14-3.91,6.39-3.73,6,.33-.8-3.74,6.43,7-4.33,7.18-7.18-.15,2.85-12.63-9.62-8.32-8.31-5-2-5-3.06,0-1.62-4-2.43-3.55-2.61.81-.33-3.91-2.28,8.06-2.28,8,0,.08-2.28.08-16,0-9.12.08-7.79.85-8.55,1.14-1.14,1.11-7.41,1.54-7.23.81.33,1-7.24,11.31,3,6.84,6.84,4.47-3.82,2.06-1.4-1.62,1.62,3.68-3-3.67-10.36-4.89-4.9,1.22-5.46,1.22,5.8,0,7.51,1.22-.77.46,0-1.14,1.14.65-1.14-8.9-1.14-6.37,0-2.53-1.14,8.23,9.62,7.18,7.17,1.72,3.12,1.72,4.2,0,1.62,1,3.25-8,12.3-6,6-2,6.27,11,6.27,8.65,0C105.61,137.2,105.61,140.62,103.25,133.21Z"/><path d="M171.17,133.21c3.34,7.41-13.76,7.41-11.4,0-2.36,7.41-2.36,4,0-2.28-2.36,6.27,10.61,6.27,8.65,0,2,6.27-7.09-2.78-6-6-1.73,2.58-1.73,1.5,0-1.62-1.06,2.45,9.7-8.31,7.17-7.17,2.53-1.14-7-1.14-6.37,0-1.6-1.14-2.36-1.91-1.14-1.14-1.22-1.71-1.22-13,0-7.51-1.22-5.46-8.56,1.88-4.89,4.9-3.67-3-6.09-5.44-1.62-1.62-4.47-3.82,5.79-14.08,6.85-6.84-.39-7.91.69-7.91,1.61,0,.07-6.92.25-6.49.33.81-.08-6.84-.08,6.84,0,9.12-.08-2.28,11.89-2.28,8,0,4.85-2.28,5.62-1.51,1.14,1.14,4.48-1.26,4.3-.82-.33.81,4.31-1.31-8.16,11.16-8.32,8.31.16,2.85,10.92,13.61,7.18,7.18,4.41,7.1,4.41,8.18,0,1.61C175.4,140.44,175,140.62,171.17,133.21Z"/></g></g></g></svg>