<svg xmlns="http://www.w3.org/2000/svg" viewBox="0 0 262 327"><defs><style>.cls-1{fill:#fffff8;}.cls-2{fill:#f6c820;}</style></defs><g id="Layer_2" data-name="Layer 2"><g id="the_advantages" data-name="the advantages"><g id="need_click_for_a_spark_" data-name="need/click for a spark!"><rect id="framing_rectangle" data-name="framing rectangle" class="cls-1" width="262" height="327"/><rect id="card_back" data-name="card back" class="cls-2" x="36.31" y="45.21" width="184.95" height="258.93" rx="10.92" transform="translate(-1.52 1.13) rotate(-0.5)"/><path d="M129.23,77.49c-1.14-.86,5.7-.86,4.56,0,1.14-.86,1.14,4.27,0,3.42,1.14.85-5.7.85-4.56,0C128.09,81.76,128.09,76.63,129.23,77.49ZM127,85.18c-2.28-2,11.4-2,9.12,0,2.28-2,2.28,10,0,8,2.28,2-11.4,2-9.12,0C124.67,95.16,124.67,83.19,127,85.18Zm-2.28,13.26c-3.42-2.85,17.1-2.85,13.68,0,3.42-2.85,3.42,14.25,0,11.4,3.42,2.85-17.1,2.85-13.68,0C121.25,112.69,121.25,95.59,124.67,98.44Zm-4.56,16.24c-5.7-1.14,28.5-1.14,22.8,0,5.7-1.14,5.7,5.71,0,4.57,5.7,1.14-28.5,1.14-22.8,0C114.41,120.39,114.41,113.54,120.11,114.68Zm4.56,36.77c-3.42-.57,17.1-.57,13.68,0,3.42-.57,3.42,2.85,0,2.28,3.42.57-17.1.57-13.68,0C121.25,154.3,121.25,150.88,124.67,151.45Zm0-3.42c-3.42.57-3.42-2.85,0-2.28-3.42-.57,17.1-.57,13.68,0,3.42-.57,3.42,2.85,0,2.28C141.77,148.6,121.25,148.6,124.67,148Zm12.54,11.41c2.85.57-14.25.57-11.4,0-3.8.57-4.56-.2-1.14-1.14-3.42,0-3.42-1.72,0-1.14-3.42-.58,17.1-.58,13.68,0,3.42-.58,3.42,1.14,0,1.14C141.77,159.24,141,160,137.21,159.44Zm1.14-17.11c3.42.57-17.1.57-13.68,0-3.42.57-3.42-2.85,0-2.28-3.42-.57,17.1-.57,13.68,0C141.77,139.48,141.77,142.9,138.35,142.33Zm-18.24-6c-5.7,1.14-5.7-5.7,0-4.56-5.7-1.14,28.5-1.14,22.8,0,5.7-1.14,5.7,5.7,0,4.56C148.61,137.49,114.41,137.49,120.11,136.35Zm18.24-8.55c3.42,1.14-17.1,1.14-13.68,0-3.42,1.14-3.42-5.7,0-4.56-3.42-1.14,17.1-1.14,13.68,0C141.77,122.1,141.77,128.94,138.35,127.8Z"/><path d="M103.25,133.21c2.36,7.41-14.74,7.41-11.4,0-4.28,7.41-5,6.65-1.14-1.14-3.91,6.39-3.73,6,.33-.8-3.74,6.43,7-4.33,7.18-7.18-.15,2.85-12.63-9.62-8.32-8.31-5-2-5-3.06,0-1.62-4-2.43-3.55-2.61.81-.33-3.91-2.28,8.06-2.28,8,0,.08-2.28.08-16,0-9.12.08-7.79.85-8.55,1.14-1.14,1.11-7.41,1.54-7.23.81.33,1-7.24,11.31,3,6.84,6.84,4.47-3.82,2.06-1.4-1.62,1.62,3.68-3-3.67-10.36-4.89-4.9,1.22-5.46,1.22,5.8,0,7.51,1.22-.77.46,0-1.14,1.14.65-1.14-8.9-1.14-6.37,0-2.53-1.14,8.23,9.62,7.18,7.17,1.72,3.12,1.72,4.2,0,1.62,1,3.25-8,12.3-6,6-2,6.27,11,6.27,8.65,0C105.61,137.2,105.61,140.62,103.25,133.21Z"/><path d="M171.17,133.21c3.34,7.41-13.76,7.41-11.4,0-2.36,7.41-2.36,4,0-2.28-2.36,6.27,10.61,6.27,8.65,0,2,6.27-7.09-2.78-6-6-1.73,2.58-1.73,1.5,0-1.62-1.06,2.45,9.7-8.31,7.17-7.17,2.53-1.14-7-1.14-6.37,0-1.6-1.14-2.36-1.91-1.14-1.14-1.22-1.71-1.22-13,0-7.51-1.22-5.46-8.56,1.88-4.89,4.9-3.67-3-6.09-5.44-1.62-1.62-4.47-3.82,5.79-14.08,6.85-6.84-.39-7.91.69-7.91,1.61,0,.07-6.92.25-6.49.33.81-.08-6.84-.08,6.84,0,9.12-.08-2.28,11.89-2.28,8,0,4.85-2.28,5.62-1.51,1.14,1.14,4.48-1.26,4.3-.82-.33.81,4.31-1.31-8.16,11.16-8.32,8.31.16,2.85,10.92,13.61,7.18,7.18,4.41,7.1,4.41,8.18,0,1.61C175.4,140.44,175,140.62,171.17,133.21Z"/><g id="need_label" data-name="need label"><path d="M65.57,219.66c0-1.34,0-2.4-.1-3.42H68l.14,1.64h.06A3.92,3.92,0,0,1,71.59,216c2,0,3.8,1.37,3.8,4.77v7.15H72.55v-6.84c0-1.52-.5-2.76-2-2.76a2.18,2.18,0,0,0-2,1.65,3.35,3.35,0,0,0-.13,1v7H65.57Z"/><path d="M80.36,222.86a3,3,0,0,0,3.3,3.13,7.76,7.76,0,0,0,2.89-.51l.41,2a9.56,9.56,0,0,1-3.73.68c-3.56,0-5.6-2.29-5.6-5.89,0-3.41,1.92-6.25,5.3-6.25s4.64,2.85,4.64,5.58a6.35,6.35,0,0,1-.1,1.28Zm4.55-2c0-1.32-.5-2.89-2.16-2.89s-2.29,1.64-2.39,2.89Z"/><path d="M91.85,222.86A3,3,0,0,0,95.16,226a7.76,7.76,0,0,0,2.89-.51l.41,2a9.63,9.63,0,0,1-3.73.68c-3.56,0-5.61-2.29-5.61-5.89,0-3.41,1.93-6.25,5.31-6.25s4.63,2.85,4.63,5.58a7.43,7.43,0,0,1-.09,1.28Zm4.55-2c0-1.32-.5-2.89-2.15-2.89s-2.29,1.64-2.4,2.89Z"/><path d="M111.17,211v13.67c0,1.13,0,2.42.09,3.24h-2.5l-.14-1.71h-.05a3.75,3.75,0,0,1-3.39,2c-2.63,0-4.56-2.41-4.56-6,0-4,2.23-6.19,4.76-6.19a3.2,3.2,0,0,1,2.91,1.44h0V211Zm-2.83,10a3.9,3.9,0,0,0-.06-.76,2.31,2.31,0,0,0-2.2-2c-1.72,0-2.6,1.73-2.6,3.87s.94,3.76,2.56,3.76a2.3,2.3,0,0,0,2.21-1.91,3.58,3.58,0,0,0,.09-.83Z"/><path d="M124.82,227.92l-.19-1.27h-.06a3.82,3.82,0,0,1-3.16,1.52A3.35,3.35,0,0,1,118,224.7c0-3,2.6-4.39,6.41-4.39v-.23c0-.9-.36-2.05-2.19-2.05a5.57,5.57,0,0,0-2.85.81l-.56-1.87a7.94,7.94,0,0,1,3.94-1c3.52,0,4.5,2.27,4.5,4.81v4.34a17.22,17.22,0,0,0,.18,2.77Zm-.39-5.76c-1.75,0-3.69.38-3.69,2.23a1.52,1.52,0,0,0,1.56,1.72,2.12,2.12,0,0,0,2.06-1.53,2.26,2.26,0,0,0,.07-.63Z"/><path d="M134.55,225.29a5.74,5.74,0,0,0,2.7.79c1.18,0,1.75-.53,1.75-1.32s-.44-1.2-1.77-1.76c-2.12-.86-3-2.07-3-3.4,0-2,1.64-3.6,4.18-3.6a6,6,0,0,1,2.84.66l-.57,2a4.54,4.54,0,0,0-2.21-.62c-1,0-1.54.54-1.54,1.24s.48,1.06,1.85,1.66c2,.8,2.89,1.9,2.9,3.55,0,2.2-1.66,3.64-4.48,3.64a6.57,6.57,0,0,1-3.24-.77Z"/><path d="M144,220.05c0-1.53,0-2.75-.1-3.81h2.49l.14,1.68h.05a4,4,0,0,1,3.54-1.92c2.57,0,4.48,2.35,4.48,6,0,4.24-2.39,6.21-4.83,6.21a3.32,3.32,0,0,1-2.89-1.47h-.05v5.93H144Zm2.83,3.17a3.2,3.2,0,0,0,.1.85,2.28,2.28,0,0,0,2.21,1.86c1.7,0,2.6-1.64,2.6-3.86s-.87-3.79-2.55-3.79a2.4,2.4,0,0,0-2.25,2,2.83,2.83,0,0,0-.11.78Z"/><path d="M162.93,227.92l-.18-1.27h-.07a3.82,3.82,0,0,1-3.15,1.52,3.35,3.35,0,0,1-3.47-3.47c0-3,2.6-4.39,6.41-4.39v-.23c0-.9-.35-2.05-2.18-2.05a5.58,5.58,0,0,0-2.86.81l-.55-1.87a7.89,7.89,0,0,1,3.93-1c3.52,0,4.5,2.27,4.5,4.81v4.34a17.22,17.22,0,0,0,.18,2.77Zm-.38-5.76c-1.76,0-3.7.38-3.7,2.23a1.53,1.53,0,0,0,1.56,1.72,2.12,2.12,0,0,0,2.06-1.53,2.27,2.27,0,0,0,.08-.63Z"/><path d="M168.21,219.86c0-1.43,0-2.6-.09-3.62h2.46l.11,2.08h.09a3.14,3.14,0,0,1,3.6-2.27v2.72a3.52,3.52,0,0,0-.78-.07,2.5,2.5,0,0,0-2.47,2.17,5.39,5.39,0,0,0-.08,1v6.09h-2.84Z"/><path d="M179,221.4h0c.25-.49.55-1,.82-1.4l2.56-3.76h3.31l-3.91,4.81,4.4,6.87h-3.39l-3-5.15-.87,1.15v4h-2.84V211H179Z"/><path d="M189.05,223.05l0-.55a5.66,5.66,0,0,1,1.35-4,5.05,5.05,0,0,0,1.43-2.92c0-1-.65-1.7-1.9-1.71a4,4,0,0,0-2.16.63l-.62-2.07a6.64,6.64,0,0,1,3.41-.89c2.93,0,4.16,1.78,4.16,3.62s-1,3-2,4.15a4.64,4.64,0,0,0-1.19,3.28l0,.5Zm-.55,3.31a1.73,1.73,0,0,1,1.74-1.83,1.82,1.82,0,1,1-1.74,1.83Z"/></g></g></g></g></svg>