<svg xmlns="http://www.w3.org/2000/svg" viewBox="0 0 433.99 522"><defs><style>.cls-1{fill:#fffff8;}.cls-2{fill:#f9d128;}.cls-3{fill:#231f20;}</style></defs><g id="Layer_2" data-name="Layer 2"><g id="new_base" data-name="new base"><rect id="frame" class="cls-1" width="433.99" height="522"/></g><g id="homepage"><g id="yellow"><rect id="card_back" data-name="card back" class="cls-2" x="64.6" y="47.65" width="304.78" height="426.7" rx="18"/></g><g id="logo"><path class="cls-3" d="M129.63,75.05a18,18,0,0,0-3.93-5.83,18.23,18.23,0,0,0-13-5.37h-27a18.34,18.34,0,1,1,0,36.67h27a18.22,18.22,0,0,0,7.14-1.44,18.41,18.41,0,0,0,5.82-3.93,18.3,18.3,0,0,0,3.93-20.1ZM112.74,94h-3.87V70.34h3.87a11.85,11.85,0,0,1,0,23.69Z"/><path class="cls-3" d="M85.7,70.36H81.83V94.05H85.7a11.85,11.85,0,1,0,0-23.69Z"/></g><g id="spark_icon" data-name="spark icon"><path d="M209.24,158.78c-2.39-1.8,12-1.8,9.57,0,2.39-1.8,2.39,9,0,7.17,2.39,1.79-12,1.79-9.57,0C206.85,167.74,206.85,157,209.24,158.78Zm-4.78,16.14c-4.78-4.19,23.91-4.19,19.13,0,4.78-4.19,4.78,20.92,0,16.74,4.78,4.18-23.91,4.18-19.13,0C199.68,195.84,199.68,170.73,204.46,174.92Zm-4.78,27.79c-7.18-6,35.86-6,28.69,0,7.17-6,7.17,29.89,0,23.92,7.17,6-35.87,6-28.69,0C192.5,232.6,192.5,196.74,199.68,202.71Zm-9.57,34.08c-12-2.39,59.78-2.39,47.83,0,11.95-2.39,11.95,12,0,9.56,11.95,2.4-59.78,2.4-47.83,0C178.16,248.75,178.16,234.4,190.11,236.79Zm9.57,77.12c-7.18-1.2,35.86-1.2,28.69,0,7.17-1.2,7.17,6,0,4.78,7.17,1.19-35.87,1.19-28.69,0C192.5,319.88,192.5,312.71,199.68,313.91Zm0-7.18c-7.18,1.2-7.18-6,0-4.78-7.18-1.2,35.86-1.2,28.69,0,7.17-1.2,7.17,6,0,4.78C235.54,307.93,192.5,307.93,199.68,306.73ZM226,330.64c6,1.2-29.89,1.2-23.91,0-8,1.2-9.57-.41-2.39-2.39-7.18,0-7.18-3.58,0-2.39-7.18-1.19,35.86-1.19,28.69,0,7.17-1.19,7.17,2.39,0,2.39C235.54,330.23,233.94,331.84,226,330.64Zm2.39-35.86c7.17,1.19-35.87,1.19-28.69,0-7.18,1.19-7.18-6,0-4.79-7.18-1.19,35.86-1.19,28.69,0C235.54,288.8,235.54,296,228.37,294.78Zm-38.26-12.56c-12,2.39-12-12,0-9.56-12-2.39,59.78-2.39,47.83,0,11.95-2.39,11.95,11.95,0,9.56C249.89,284.61,178.16,284.61,190.11,282.22Zm38.26-17.93c7.17,2.39-35.87,2.39-28.69,0-7.18,2.39-7.18-12,0-9.57-7.18-2.39,35.86-2.39,28.69,0C235.54,252.33,235.54,266.68,228.37,264.29Z"/><path d="M154.75,275.65c5,15.54-30.91,15.54-23.91,0-9,15.54-10.58,13.93-2.39-2.4-8.19,13.4-7.82,12.49.7-1.69-7.84,13.51,14.73-9.07,15-15-.32,6-26.48-20.18-17.44-17.44-10.44-4.14-10.44-6.42,0-3.38-8.37-5.11-7.45-5.49,1.69-.7-8.19-4.79,16.91-4.79,16.74,0,.17-4.79.17-33.48,0-19.13.17-16.33,1.78-17.94,2.39-2.39,2.32-15.55,3.23-15.17,1.69.7,2.22-15.2,23.74,6.32,14.35,14.34,9.39-8,4.32-2.94-3.38,3.38,7.7-6.32-7.7-21.72-10.27-10.26,2.57-11.46,2.57,12.16,0,15.75,2.57-1.61,1,0-2.39,2.39,1.37-2.39-18.67-2.39-13.36,0-5.31-2.39,17.27,20.18,15.05,15.05,3.62,6.53,3.62,8.8,0,3.38,2.22,6.82-16.77,25.81-12.66,12.65-4.11,13.16,23.1,13.16,18.14,0C159.71,284,159.71,291.19,154.75,275.65Z"/><path d="M297.21,275.65c7,15.54-28.87,15.54-23.92,0-5,15.54-5,8.37,0-4.79-5,13.16,22.26,13.16,18.14,0,4.12,13.16-14.87-5.83-12.65-12.65-3.62,5.42-3.62,3.15,0-3.38-2.22,5.13,20.35-17.44,15-15.05,5.31-2.39-14.72-2.39-13.35,0-3.35-2.39-5-4-2.39-2.39-2.57-3.59-2.57-27.21,0-15.75-2.57-11.46-18,3.94-10.27,10.26-7.7-6.32-12.77-11.4-3.38-3.38-9.39-8,12.13-29.54,14.35-14.34-.82-16.6,1.45-16.6,3.38,0,.15-14.52.52-13.61.7,1.69-.18-14.35-.18,14.34,0,19.13-.18-4.79,24.93-4.79,16.74,0,10.17-4.79,11.78-3.18,2.39,2.39,9.39-2.64,9-1.73-.7,1.69,9-2.74-17.12,23.41-17.44,17.44.32,6,22.89,28.55,15,15,9.24,14.91,9.24,17.18,0,3.39C306.07,290.81,305.15,291.19,297.21,275.65Z"/></g><g id="spark_need_label" data-name="spark need label"><path class="cls-3" d="M154.18,404V391.85H158l1.93,3.73a37,37,0,0,1,1.91,4.25h.05a45.9,45.9,0,0,1-.25-5.11v-2.87h3V404H161.2l-2-4a44.74,44.74,0,0,1-2.06-4.4H157c.07,1.64.11,3.48.11,5.44v3Z"/><path class="cls-3" d="M174.48,399.09h-4.35v2.23H175V404h-8.14V391.85h7.88v2.65h-4.62v2h4.35Z"/><path class="cls-3" d="M184.42,399.09h-4.36v2.23h4.88V404H176.8V391.85h7.89v2.65h-4.63v2h4.36Z"/><path class="cls-3" d="M186.74,392a26.91,26.91,0,0,1,3.87-.25,8.3,8.3,0,0,1,5,1.21,5.31,5.31,0,0,1,2.19,4.66,6,6,0,0,1-2.12,5,9.23,9.23,0,0,1-5.69,1.49,21.65,21.65,0,0,1-3.24-.19Zm3.26,9.55a4.79,4.79,0,0,0,.68,0c2.11,0,3.66-1.13,3.66-3.87a3.12,3.12,0,0,0-3.35-3.47,4.68,4.68,0,0,0-1,.07Z"/><path class="cls-3" d="M206.27,401.18l-.69,2.81h-3.36l3.53-12.14h4.32L213.69,404h-3.51l-.78-2.81Zm2.68-2.41-.56-2.18c-.18-.69-.41-1.68-.59-2.4h0c-.18.72-.36,1.73-.54,2.42l-.52,2.16Z"/><path class="cls-3" d="M219,400.75a7.53,7.53,0,0,0,3.15.75c1.12,0,1.66-.38,1.66-1s-.54-.93-1.91-1.4c-2-.72-3.4-1.86-3.4-3.66,0-2.14,1.8-3.8,4.86-3.8a7.65,7.65,0,0,1,3.29.64l-.68,2.59a6.23,6.23,0,0,0-2.65-.58c-1,0-1.53.36-1.53.9s.65.87,2.18,1.44c2.18.79,3.17,2,3.17,3.66,0,2.09-1.64,3.87-5.19,3.87a8.58,8.58,0,0,1-3.56-.74Z"/><path class="cls-3" d="M228.89,392a26.22,26.22,0,0,1,4-.25,6.15,6.15,0,0,1,3.83,1,3.62,3.62,0,0,1,1.39,2.93,3.94,3.94,0,0,1-1.17,3,6,6,0,0,1-4.05,1.26c-.31,0-.6,0-.79,0V404h-3.23Zm3.23,5.37a6,6,0,0,0,.73,0c1.28,0,2.08-.65,2.08-1.7s-.62-1.51-1.84-1.51a5.51,5.51,0,0,0-1,.07Z"/><path class="cls-3" d="M242,401.18l-.69,2.81H238l3.53-12.14h4.33L249.43,404h-3.51l-.77-2.81Zm2.68-2.41-.56-2.18c-.18-.69-.41-1.68-.59-2.4h0c-.18.72-.36,1.73-.54,2.42l-.52,2.16Z"/><path class="cls-3" d="M251,392a27.51,27.51,0,0,1,3.93-.25,6.75,6.75,0,0,1,4.1.94,3.15,3.15,0,0,1,1.21,2.65,3.23,3.23,0,0,1-2.09,2.93v.07a3,3,0,0,1,1.55,2.16c.37,1.25.77,3,1,3.48h-3.33a16.91,16.91,0,0,1-.84-2.79c-.33-1.46-.78-1.77-1.79-1.77h-.52V404H251Zm3.22,5.1h.85c1.22,0,1.93-.61,1.93-1.51s-.6-1.42-1.68-1.44a5.38,5.38,0,0,0-1.1.07Z"/><path class="cls-3" d="M262.08,391.85h3.23V397h0c.26-.45.53-.9.8-1.33l2.32-3.82h4L268.6,397l4,7h-3.76l-2.56-4.92-1,1.25V404h-3.23Z"/><path class="cls-3" d="M275.06,399.85v-.47a3.93,3.93,0,0,1,1-2.68c.49-.58,1-1.12,1-1.64s-.34-.83-1.13-.87a3.37,3.37,0,0,0-1.78.53l-.69-2.33a6.92,6.92,0,0,1,3.21-.74c2.5,0,3.65,1.34,3.65,2.87a4.28,4.28,0,0,1-1.55,3,2.87,2.87,0,0,0-.86,2.06l0,.27Zm-.5,2.48a1.85,1.85,0,1,1,1.84,1.86A1.79,1.79,0,0,1,274.56,402.33Z"/></g></g></g></svg>