<svg xmlns="http://www.w3.org/2000/svg" viewBox="0 0 433.99 522"><defs><style>.cls-1{fill:#fffff8;}.cls-2{fill:#ed5d24;}.cls-3{fill:#231f20;}.cls-4{fill:none;stroke:#000;stroke-miterlimit:10;}</style></defs><g id="Layer_2" data-name="Layer 2"><g id="new_base" data-name="new base"><rect id="frame" class="cls-1" width="433.99" height="522"/></g><g id="homepage"><g id="orange"><rect id="card_back" data-name="card back" class="cls-2" x="64.6" y="47.65" width="304.78" height="426.7" rx="18"/></g><g id="logo"><path class="cls-3" d="M129.63,75.05a18,18,0,0,0-3.93-5.83,18.23,18.23,0,0,0-13-5.37h-27a18.34,18.34,0,1,1,0,36.67h27a18.22,18.22,0,0,0,7.14-1.44,18.41,18.41,0,0,0,5.82-3.93,18.3,18.3,0,0,0,3.93-20.1ZM112.74,94h-3.87V70.34h3.87a11.85,11.85,0,0,1,0,23.69Z"/><path class="cls-3" d="M85.7,70.36H81.83V94.05H85.7a11.85,11.85,0,1,0,0-23.69Z"/></g><g id="ability_cards_label" data-name="ability cards label"><path class="cls-3" d="M163,408.17l-.68,2.8H159l3.53-12.13h4.32L170.42,411h-3.51l-.78-2.8Zm2.68-2.42-.56-2.18c-.18-.68-.41-1.67-.59-2.39h0c-.18.72-.36,1.73-.54,2.41l-.52,2.16Z"/><path class="cls-3" d="M172,399a27,27,0,0,1,3.84-.25,7.87,7.87,0,0,1,3.71.59,2.73,2.73,0,0,1,1.63,2.49,2.68,2.68,0,0,1-2,2.55v0a3,3,0,0,1,2.38,2.95,3.24,3.24,0,0,1-1.35,2.65c-.92.68-2.43,1.08-5,1.08a20.81,20.81,0,0,1-3.21-.2Zm3.22,4.5h.65c1.39,0,2.06-.48,2.06-1.26s-.54-1.17-1.64-1.17a7.18,7.18,0,0,0-1.07.07Zm0,5.19a8.18,8.18,0,0,0,.94,0c1.08,0,2-.43,2-1.49s-.94-1.42-2.16-1.42h-.78Z"/><path class="cls-3" d="M186.58,398.84V411h-3.26V398.84Z"/><path class="cls-3" d="M188.81,398.84h3.26v9.42h4.66V411h-7.92Z"/><path class="cls-3" d="M201.57,398.84V411h-3.26V398.84Z"/><path class="cls-3" d="M206.16,401.56h-3.09v-2.72h9.5v2.72h-3.15V411h-3.26Z"/><path class="cls-3" d="M216.91,411v-4.89l-3.84-7.24h3.73l1,2.74c.34.84.56,1.45.83,2.23h0c.24-.74.49-1.41.78-2.23l1-2.74h3.66l-4,7.11v5Z"/><path class="cls-3" d="M241.61,410.67a8.52,8.52,0,0,1-3.06.48c-4.54,0-6.54-2.82-6.54-6,0-4.28,3.13-6.46,6.75-6.46a7.34,7.34,0,0,1,3.05.54l-.63,2.56a5.92,5.92,0,0,0-2.26-.43,3.58,3.58,0,0,0,.06,7.16,6.7,6.7,0,0,0,2.18-.36Z"/><path class="cls-3" d="M246.75,408.17l-.68,2.8H242.7l3.53-12.13h4.32L254.17,411h-3.51l-.77-2.8Zm2.69-2.42-.56-2.18c-.18-.68-.42-1.67-.6-2.39h0c-.18.72-.36,1.73-.54,2.41l-.53,2.16Z"/><path class="cls-3" d="M255.72,399a27.35,27.35,0,0,1,3.92-.25,6.76,6.76,0,0,1,4.11.94,3.12,3.12,0,0,1,1.2,2.64,3.24,3.24,0,0,1-2.09,2.94v.07a3,3,0,0,1,1.55,2.16c.38,1.24.78,3,1,3.47h-3.33a16.22,16.22,0,0,1-.85-2.79c-.32-1.45-.77-1.76-1.78-1.76h-.52V411h-3.22Zm3.22,5.1h.84c1.23,0,1.93-.62,1.93-1.52s-.59-1.42-1.67-1.44a5,5,0,0,0-1.1.08Z"/><path class="cls-3" d="M266.82,399a27,27,0,0,1,3.87-.25,8.35,8.35,0,0,1,5,1.2,5.34,5.34,0,0,1,2.2,4.67,6,6,0,0,1-2.13,5,9.23,9.23,0,0,1-5.69,1.49,20.1,20.1,0,0,1-3.24-.2Zm3.26,9.54a3.61,3.61,0,0,0,.68,0c2.11,0,3.66-1.13,3.66-3.87a3.12,3.12,0,0,0-3.35-3.48,4.45,4.45,0,0,0-1,.08Z"/><path class="cls-3" d="M279.82,407.73a7.34,7.34,0,0,0,3.15.76c1.11,0,1.65-.38,1.65-1s-.54-.94-1.9-1.41c-2.06-.72-3.41-1.85-3.41-3.65,0-2.14,1.8-3.8,4.86-3.8a7.88,7.88,0,0,1,3.3.63l-.68,2.59a6.49,6.49,0,0,0-2.65-.57c-1,0-1.53.36-1.53.9s.65.86,2.18,1.44c2.18.79,3.17,2,3.17,3.65,0,2.09-1.64,3.87-5.19,3.87a8.57,8.57,0,0,1-3.56-.73Z"/></g><g id="ability_icon" data-name="ability icon"><path d="M298.61,195.35c1.22-5.31-2.33-7.48-10-6.31-10.64-5.44-33.84-.17-60.15,13.66-17.44-24.07-35.89-39.08-47.84-38.92-1.54-3.32-2.59,1.14-1,4.28h0c10.91-.21,28.33,14.36,44.73,36.6-7.57,2.18-15.59,6.62-22.94,12.74a65.14,65.14,0,0,0-21.62,14.94c-7.14-12.55-11.27-24.15-11.59-32.74-5.81-18.41-4.64-30.41,3-30.85.21-4.44,3.15-4.68,8.4-.69-1.59-3.14-.54-7.6,1-4.28h0c-6.31-4.44-10.47-4.07-11.73,1.23-14.62,4.55-10.74,34.65,7.36,70.1-32,23.75-48.78,49-37.7,59.58-1.22,5.31,2.34,7.48,10,6.31,10.63,5.44,33.83.17,60.14-13.66,17.44,24.07,35.89,39.08,47.84,38.93,6.32,4.43,10.47,4.06,11.73-1.24,14.62-4.55,10.75-34.65-7.35-70.11C292.88,231.17,309.69,205.92,298.61,195.35Zm-10.05-2.5c4.64-.3,7.17,1.22,7.23,4.35,4.82,4.74.55,16-11,29-5.94,8.51-14.79,17.08-24.92,24.2-4-6.64-8.45-14.67-12.75-23-5.7-7.8-10.92-15.32-14.9-21.6C255,194.1,277,188.77,288.56,192.85Zm-19.85,98c6.32,17.57,5.14,29.57-3,30.84.3,3.62-2.65,3.86-8.4.69-10.4-.61-27.81-15.19-44.73-36.6A13.21,13.21,0,0,0,220,282c.58.66-6.32-.95-6.63-1.55a4.18,4.18,0,0,1-3.6,1.78,8.86,8.86,0,0,1-2.44-3.2c0,.55-6.84-1.07-6.63-1.55a23.08,23.08,0,0,0,5,6.69c-24.06,11.82-46.13,17.16-56.33,13-6,.42-8.49-1.1-7.22-4.35-6.15-4.62-1.88-15.89,11-29,4.61-8.39,13.46-17,24.92-24.21,1.05,3.39,3.41,7.9,6.84,13-.09-2.28.76-3.89,2.44-4.65a57.3,57.3,0,0,1-5.76-11.13,60.24,60.24,0,0,1,22-15.26c8-6.84,16.24-11.35,23.44-12.91,6.35,4.73,11.71,12.42,15.27,22a49.32,49.32,0,0,1,13,23.44c-1.75,2.43-5.68,5.31-11.32,8.26,1.7,1.62,1.71,3.45.06,5.28,6.36-3.15,10.94-6.46,13.18-9.48C264.77,269.83,268.9,281.43,268.71,290.86Z"/><path class="cls-4" d="M298.61,195.35c1.22-5.31-2.33-7.48-10-6.31-10.64-5.44-33.84-.17-60.15,13.66-17.44-24.07-35.89-39.08-47.84-38.92-1.54-3.32-2.59,1.14-1,4.28h0c10.91-.21,28.33,14.36,44.73,36.6-7.57,2.18-15.59,6.62-22.94,12.74a65.14,65.14,0,0,0-21.62,14.94c-7.14-12.55-11.27-24.15-11.59-32.74-5.81-18.41-4.64-30.41,3-30.85.21-4.44,3.15-4.68,8.4-.69-1.59-3.14-.54-7.6,1-4.28h0c-6.31-4.44-10.47-4.07-11.73,1.23-14.62,4.55-10.74,34.65,7.36,70.1-32,23.75-48.78,49-37.7,59.58-1.22,5.31,2.34,7.48,10,6.31,10.63,5.44,33.83.17,60.14-13.66,17.44,24.07,35.89,39.08,47.84,38.93,6.32,4.43,10.47,4.06,11.73-1.24,14.62-4.55,10.75-34.65-7.35-70.11C292.88,231.17,309.69,205.92,298.61,195.35Zm-10.05-2.5c4.64-.3,7.17,1.22,7.23,4.35,4.82,4.74.55,16-11,29-5.94,8.51-14.79,17.08-24.92,24.2-4-6.64-8.45-14.67-12.75-23-5.7-7.8-10.92-15.32-14.9-21.6C255,194.1,277,188.77,288.56,192.85Zm-19.85,98c6.32,17.57,5.14,29.57-3,30.84.3,3.62-2.65,3.86-8.4.69-10.4-.61-27.81-15.19-44.73-36.6A13.21,13.21,0,0,0,220,282c.58.66-6.32-.95-6.63-1.55a4.18,4.18,0,0,1-3.6,1.78,8.86,8.86,0,0,1-2.44-3.2c0,.55-6.84-1.07-6.63-1.55a23.08,23.08,0,0,0,5,6.69c-24.06,11.82-46.13,17.16-56.33,13-6,.42-8.49-1.1-7.22-4.35-6.15-4.62-1.88-15.89,11-29,4.61-8.39,13.46-17,24.92-24.21,1.05,3.39,3.41,7.9,6.84,13-.09-2.28.76-3.89,2.44-4.65a57.3,57.3,0,0,1-5.76-11.13,60.24,60.24,0,0,1,22-15.26c8-6.84,16.24-11.35,23.44-12.91,6.35,4.73,11.71,12.42,15.27,22a49.32,49.32,0,0,1,13,23.44c-1.75,2.43-5.68,5.31-11.32,8.26,1.7,1.62,1.71,3.45.06,5.28,6.36-3.15,10.94-6.46,13.18-9.48C264.77,269.83,268.9,281.43,268.71,290.86Z"/><path d="M230.82,246c-.85.41-2.6,1.14-5,2.09,3.67,1.2,6.06,3.35,6.85,6.23,4,5.06,4.46,12.68,1.22,21.77.87.65-44.87-10.05-43.94-10.28,1.26-9.91,4.83-16.44,10.49-19.18,2.29-2.34,5.69-3.2,9.74-2.5-1.51-1.94-2.69-3.44-3.38-4.25-14.92.89-20.09,14.61-21.31,25.75-1.52,2.23-.1,4.26,3,4.35-1,.4,45.78,11.34,44.93,10.52,2.93,1.31,5.11.12,4.59-2.59C241.8,267.74,242.88,253.64,230.82,246Z"/><path class="cls-4" d="M230.82,246c-.85.41-2.6,1.14-5,2.09,3.67,1.2,6.06,3.35,6.85,6.23,4,5.06,4.46,12.68,1.22,21.77.87.65-44.87-10.05-43.94-10.28,1.26-9.91,4.83-16.44,10.49-19.18,2.29-2.34,5.69-3.2,9.74-2.5-1.51-1.94-2.69-3.44-3.38-4.25-14.92.89-20.09,14.61-21.31,25.75-1.52,2.23-.1,4.26,3,4.35-1,.4,45.78,11.34,44.93,10.52,2.93,1.31,5.11.12,4.59-2.59C241.8,267.74,242.88,253.64,230.82,246Z"/><path d="M219.17,242.59a12.11,12.11,0,1,0-9-14.55A11.24,11.24,0,0,0,219.17,242.59Zm4.51-19.3a7.71,7.71,0,1,1-9.26,5.75A7.17,7.17,0,0,1,223.68,223.29Z"/><path class="cls-4" d="M219.17,242.59a12.11,12.11,0,1,0-9-14.55A11.24,11.24,0,0,0,219.17,242.59Zm4.51-19.3a7.71,7.71,0,1,1-9.26,5.75A7.17,7.17,0,0,1,223.68,223.29Z"/><path d="M186.43,205A9.91,9.91,0,1,0,179,193.07,9.21,9.21,0,0,0,186.43,205Zm3.51-15a5.5,5.5,0,1,1-6.61,4.11A5.12,5.12,0,0,1,189.94,190Z"/><path class="cls-4" d="M186.43,205A9.91,9.91,0,1,0,179,193.07,9.21,9.21,0,0,0,186.43,205Zm3.51-15a5.5,5.5,0,1,1-6.61,4.11A5.12,5.12,0,0,1,189.94,190Z"/><path d="M266.29,223.66a9.91,9.91,0,1,0-7.39-11.9A9.21,9.21,0,0,0,266.29,223.66Zm3.51-15a5.5,5.5,0,1,1-6.61,4.11A5.12,5.12,0,0,1,269.8,208.65Z"/><path class="cls-4" d="M266.29,223.66a9.91,9.91,0,1,0-7.39-11.9A9.21,9.21,0,0,0,266.29,223.66Zm3.51-15a5.5,5.5,0,1,1-6.61,4.11A5.12,5.12,0,0,1,269.8,208.65Z"/><path d="M170.66,267.47a9.91,9.91,0,1,0,7.39,11.91A9.2,9.2,0,0,0,170.66,267.47Zm-3.52,15a5.5,5.5,0,1,1,6.62-4.1A5.12,5.12,0,0,1,167.14,282.48Z"/><path class="cls-4" d="M170.66,267.47a9.91,9.91,0,1,0,7.39,11.91A9.2,9.2,0,0,0,170.66,267.47Zm-3.52,15a5.5,5.5,0,1,1,6.62-4.1A5.12,5.12,0,0,1,167.14,282.48Z"/><path d="M246.51,303.27a9.91,9.91,0,1,0-7.39-11.91A9.21,9.21,0,0,0,246.51,303.27Zm3.51-15a5.5,5.5,0,1,1-6.61,4.1A5.12,5.12,0,0,1,250,288.26Z"/><path class="cls-4" d="M246.51,303.27a9.91,9.91,0,1,0-7.39-11.91A9.21,9.21,0,0,0,246.51,303.27Zm3.51-15a5.5,5.5,0,1,1-6.61,4.1A5.12,5.12,0,0,1,250,288.26Z"/></g></g></g></svg>