<svg xmlns="http://www.w3.org/2000/svg" xmlns:xlink="http://www.w3.org/1999/xlink" viewBox="0 0 433.99 522"><defs><style>.cls-1,.cls-2{fill:#fffff8;}.cls-2{stroke:#231f20;stroke-miterlimit:10;stroke-width:0.25px;}.cls-3{fill:#231f20;}.cls-4{fill:url(#linear-gradient);}</style><linearGradient id="linear-gradient" x1="142.7" y1="232.56" x2="292.81" y2="232.56" gradientTransform="translate(2.27 -2.32)" gradientUnits="userSpaceOnUse"><stop offset="0" stop-color="#e9dd12"/><stop offset="1" stop-color="#f27f20"/></linearGradient></defs><g id="Layer_2" data-name="Layer 2"><g id="new_base" data-name="new base"><rect id="frame" class="cls-1" width="433.99" height="522"/></g><g id="homepage"><g id="black"><rect id="card_back" data-name="card back" class="cls-2" x="64.6" y="47.65" width="304.78" height="426.7" rx="18"/><rect id="card_back-2" data-name="card back" x="105.64" y="111.81" width="217.92" height="232.4" rx="11.23"/></g><g id="logo"><path class="cls-3" d="M129.63,75.05a18,18,0,0,0-3.93-5.83,18.23,18.23,0,0,0-13-5.37h-27a18.34,18.34,0,1,1,0,36.67h27a18.22,18.22,0,0,0,7.14-1.44,18.41,18.41,0,0,0,5.82-3.93,18.3,18.3,0,0,0,3.93-20.1ZM112.74,94h-3.87V70.34h3.87a11.85,11.85,0,0,1,0,23.69Z"/><path class="cls-3" d="M85.7,70.36H81.83V94.05H85.7a11.85,11.85,0,1,0,0-23.69Z"/></g><g id="dobble_cards_label" data-name="dobble cards label"><path d="M153.7,395.52a25.52,25.52,0,0,1,3.87-.26,8.28,8.28,0,0,1,5,1.21,5.32,5.32,0,0,1,2.2,4.66,6,6,0,0,1-2.13,5,9.16,9.16,0,0,1-5.69,1.5,20.1,20.1,0,0,1-3.24-.2Zm3.26,9.54a4.79,4.79,0,0,0,.68,0c2.11,0,3.66-1.13,3.66-3.87a3.11,3.11,0,0,0-3.35-3.47,4.68,4.68,0,0,0-1,.07Z"/><path d="M177.9,401.29c0,3.91-2.34,6.4-6.09,6.4s-5.83-2.83-5.83-6.2c0-3.53,2.32-6.33,6-6.33C175.92,395.16,177.9,398.05,177.9,401.29Zm-8.48.15c0,2.27,1,3.67,2.55,3.67s2.49-1.53,2.49-3.71-.94-3.67-2.51-3.67S169.42,399.21,169.42,401.44Z"/><path d="M179.62,395.52a26.73,26.73,0,0,1,3.84-.26,7.69,7.69,0,0,1,3.7.6,2.67,2.67,0,0,1-.34,5v0a3,3,0,0,1,2.38,2.95,3.27,3.27,0,0,1-1.35,2.65c-.92.68-2.43,1.08-5,1.08a20.81,20.81,0,0,1-3.21-.2Zm3.22,4.5h.65c1.39,0,2-.49,2-1.26s-.54-1.17-1.63-1.17a6,6,0,0,0-1.07.07Zm0,5.18a6.15,6.15,0,0,0,.94,0c1.08,0,2-.43,2-1.5s-.94-1.42-2.16-1.42h-.78Z"/><path d="M191,395.52a26.68,26.68,0,0,1,3.83-.26,7.71,7.71,0,0,1,3.71.6,2.67,2.67,0,0,1-.34,5v0a3,3,0,0,1,2.38,2.95,3.27,3.27,0,0,1-1.35,2.65c-.92.68-2.43,1.08-5,1.08a20.66,20.66,0,0,1-3.2-.2Zm3.22,4.5h.65c1.39,0,2.05-.49,2.05-1.26s-.54-1.17-1.64-1.17a5.87,5.87,0,0,0-1.06.07Zm0,5.18a6,6,0,0,0,.94,0c1.08,0,2-.43,2-1.5s-.94-1.42-2.17-1.42h-.77Z"/><path d="M202.34,395.35h3.25v9.42h4.67v2.72h-7.92Z"/><path d="M219.46,402.59H215.1v2.23H220v2.67h-8.14V395.35h7.89V398H215.1v2h4.36Z"/><path d="M234.43,407.18a8.2,8.2,0,0,1-3.06.49c-4.54,0-6.53-2.83-6.53-6.05,0-4.29,3.13-6.46,6.75-6.46a7.28,7.28,0,0,1,3,.54l-.63,2.55a6.05,6.05,0,0,0-2.25-.43,3.59,3.59,0,0,0,.05,7.17,6.87,6.87,0,0,0,2.18-.36Z"/><path d="M239.58,404.68l-.69,2.81h-3.36l3.53-12.14h4.32L247,407.49h-3.51l-.78-2.81Zm2.68-2.41-.56-2.18c-.18-.68-.41-1.68-.59-2.4h0c-.18.72-.36,1.73-.54,2.42l-.52,2.16Z"/><path d="M248.54,395.52a26,26,0,0,1,3.93-.26,6.82,6.82,0,0,1,4.1.94,3.12,3.12,0,0,1,1.21,2.65,3.23,3.23,0,0,1-2.09,2.93v.07a3.05,3.05,0,0,1,1.55,2.16c.38,1.25.77,3,1,3.48h-3.33a16.55,16.55,0,0,1-.85-2.79c-.32-1.46-.78-1.77-1.78-1.77h-.53v4.56h-3.22Zm3.22,5.09h.85c1.22,0,1.93-.61,1.93-1.51s-.6-1.42-1.68-1.44a5.46,5.46,0,0,0-1.1.07Z"/><path d="M259.65,395.52a25.42,25.42,0,0,1,3.87-.26,8.24,8.24,0,0,1,5,1.21,5.3,5.3,0,0,1,2.2,4.66,6,6,0,0,1-2.12,5,9.18,9.18,0,0,1-5.69,1.5,20,20,0,0,1-3.24-.2Zm3.26,9.54a4.72,4.72,0,0,0,.68,0c2.11,0,3.66-1.13,3.66-3.87a3.12,3.12,0,0,0-3.35-3.47,4.61,4.61,0,0,0-1,.07Z"/><path d="M272.64,404.25a7.38,7.38,0,0,0,3.15.75c1.12,0,1.66-.37,1.66-1s-.54-.93-1.91-1.4c-2.05-.72-3.4-1.86-3.4-3.65,0-2.15,1.8-3.8,4.86-3.8a7.79,7.79,0,0,1,3.29.63l-.68,2.59a6.23,6.23,0,0,0-2.65-.58c-1,0-1.53.36-1.53.9s.65.87,2.18,1.44c2.18.8,3.17,2,3.17,3.66,0,2.09-1.64,3.87-5.18,3.87a8.6,8.6,0,0,1-3.57-.74Z"/></g><g id="dobble_icon" data-name="dobble icon"><path class="cls-4" d="M180.93,234c-5.81,5.07-5.22,7.65,1.8,8.44-13.58,20-18.41,36.69-13,43.32,5.27,5.76,19.69.41,37.47-14.38,4,6.12,10.31,6,17.28,1.9,10.72,17.83,22.34,25.16,28.12,19.58,6.87,14.29,7.92,16.37,3.64,2,8.87,12.78,7.65,10.21,1.16-4.45,5.89-2.65,5.34-18.15-1.64-38.8,5.83.24,7.6-2.76,4.56-9,20.57-6.52,33.83-16.85,34.81-26.33-3.4-6.5-18.9-11.07-40.49-10.82-.81-5.54-4.52-8.52-10.46-9.39-1.16-21.52-6.95-37-13.94-40.09-9,1.43-18.68,15.23-23.76,36.21-7.06-.95-10.85.65-11.16,5.93-22.08-5.76-38.33-5.53-40.67-.1-14-1.1-12.32.54,2.5,6.47C153.16,212.07,162.44,224.09,180.93,234Z"/></g></g></g></svg>