<svg xmlns="http://www.w3.org/2000/svg" viewBox="0 0 433.99 522"><defs><style>.cls-1,.cls-3{fill:#fffff8;}.cls-2{fill:#f9d128;}.cls-3{stroke:#231f20;stroke-miterlimit:10;stroke-width:0.25px;}.cls-4,.cls-5{fill:#231f20;}.cls-5{font-size:18px;font-family:MyriadPro-Black, Myriad Pro;font-weight:800;}.cls-6{letter-spacing:-0.05em;}.cls-7{letter-spacing:0em;}.cls-8{letter-spacing:0.1em;}</style></defs><g id="Layer_2" data-name="Layer 2"><g id="new_base" data-name="new base"><rect id="frame" class="cls-1" width="433.99" height="522"/></g><g id="homepage"><g id="yellow"><rect id="card_back" data-name="card back" class="cls-2" x="64.6" y="47.65" width="304.78" height="426.7" rx="18"/><rect id="card_back-2" data-name="card back" class="cls-3" x="64.6" y="47.65" width="304.78" height="426.7" rx="18"/><rect id="card_back-3" data-name="card back" class="cls-2" x="105.64" y="111.81" width="217.92" height="232.4" rx="11.23"/></g><g id="logo"><path class="cls-4" d="M129.63,75.05a18,18,0,0,0-3.93-5.83,18.23,18.23,0,0,0-13-5.37h-27a18.34,18.34,0,1,1,0,36.67h27a18.22,18.22,0,0,0,7.14-1.44,18.41,18.41,0,0,0,5.82-3.93,18.3,18.3,0,0,0,3.93-20.1ZM112.74,94h-3.87V70.34h3.87a11.85,11.85,0,0,1,0,23.69Z"/><path class="cls-4" d="M85.7,70.36H81.83V94.05H85.7a11.85,11.85,0,1,0,0-23.69Z"/></g><g id="spark_icon_alt" data-name="spark icon alt"><path d="M213.77,150.83c-2.09-1.57,10.44-1.57,8.36,0,2.08-1.57,2.08,7.83,0,6.27,2.08,1.56-10.45,1.56-8.36,0C211.68,158.66,211.68,149.26,213.77,150.83Zm-4.17,14.1c-4.18-3.66,20.88-3.66,16.7,0,4.18-3.66,4.18,18.27,0,14.62,4.18,3.65-20.88,3.65-16.7,0C205.42,183.2,205.42,161.27,209.6,164.93Zm-4.18,24.27c-6.27-5.22,31.32-5.22,25.06,0,6.26-5.22,6.26,26.11,0,20.89,6.26,5.22-31.33,5.22-25.06,0C199.15,215.31,199.15,184,205.42,189.2ZM197.07,219c-10.45-2.09,52.2-2.09,41.76,0,10.44-2.09,10.44,10.44,0,8.36,10.44,2.08-52.21,2.08-41.76,0C186.62,229.4,186.62,216.87,197.07,219Zm8.35,67.35c-6.27-1,31.32-1,25.06,0,6.26-1,6.26,5.22,0,4.18,6.26,1-31.33,1-25.06,0C199.15,291.53,199.15,285.27,205.42,286.31Zm0-6.26c-6.27,1-6.27-5.22,0-4.18-6.27-1,31.32-1,25.06,0,6.26-1,6.26,5.22,0,4.18C236.74,281.09,199.15,281.09,205.42,280.05Zm23,20.88c5.22,1-26.1,1-20.88,0-6.95,1-8.36-.36-2.09-2.09-6.27,0-6.27-3.13,0-2.09-6.27-1,31.32-1,25.06,0,6.26-1,6.26,2.09,0,2.09C236.74,300.57,235.34,302,228.39,300.93Zm2.09-31.33c6.26,1-31.33,1-25.06,0-6.27,1-6.27-5.22,0-4.17-6.27-1.05,31.32-1.05,25.06,0C236.74,264.38,236.74,270.65,230.48,269.6Zm-33.41-11c-10.45,2.09-10.45-10.44,0-8.35-10.45-2.09,52.2-2.09,41.76,0,10.44-2.09,10.44,10.44,0,8.35C249.27,260.73,186.62,260.73,197.07,258.64ZM230.48,243c6.26,2.09-31.33,2.09-25.06,0-6.27,2.09-6.27-10.44,0-8.35-6.27-2.09,31.32-2.09,25.06,0C236.74,232.54,236.74,245.07,230.48,243Z"/><path d="M166.19,252.9c4.33,13.57-27,13.57-20.89,0-7.84,13.57-9.24,12.17-2.08-2.09-7.16,11.7-6.83,10.9.61-1.48-6.85,11.79,12.86-7.92,13.14-13.14-.28,5.22-23.13-17.62-15.23-15.23-9.12-3.62-9.12-5.6,0-3-7.31-4.46-6.51-4.79,1.48-.61-7.16-4.18,14.77-4.18,14.61,0,.16-4.18.16-29.24,0-16.71.16-14.26,1.56-15.66,2.09-2.09,2-13.57,2.83-13.24,1.48.61,1.93-13.26,20.73,5.53,12.53,12.53,8.2-7,3.77-2.57-3,3,6.72-5.53-6.73-19-9-9,2.24-10,2.24,10.62,0,13.75,2.24-1.4.84,0-2.09,2.09,1.2-2.09-16.3-2.09-11.66,0-4.64-2.09,15.07,17.63,13.14,13.14,3.16,5.71,3.16,7.69,0,3,1.93,6-14.65,22.54-11.06,11.05-3.59,11.49,20.18,11.49,15.85,0C170.52,260.21,170.52,266.47,166.19,252.9Z"/><path d="M290.59,252.9c6.12,13.57-25.21,13.57-20.88,0-4.33,13.57-4.33,7.31,0-4.18-4.33,11.49,19.43,11.49,15.84,0,3.59,11.49-13-5.09-11.05-11.05-3.16,4.73-3.16,2.75,0-3-1.94,4.49,17.78-15.23,13.14-13.14,4.64-2.09-12.86-2.09-11.66,0-2.93-2.09-4.33-3.49-2.09-2.09-2.24-3.13-2.24-23.76,0-13.75-2.24-10-15.69,3.44-9,9-6.72-5.53-11.15-10-2.95-3-8.2-7,10.59-25.79,12.53-12.53-.71-14.49,1.27-14.49,2.95,0,.13-12.68.46-11.88.61,1.48-.15-12.53-.15,12.53,0,16.71-.15-4.18,21.78-4.18,14.62,0,8.89-4.18,10.29-2.78,2.09,2.09,8.2-2.31,7.87-1.51-.61,1.47,7.89-2.39-15,20.45-15.23,15.23.28,5.22,20,24.93,13.14,13.14,8.07,13,8.07,15,0,3C298.33,266.14,297.54,266.47,290.59,252.9Z"/></g><text id="spark_click_label" data-name="spark click label" class="cls-5" transform="translate(141.34 403.99)">CLICK FOR S<tspan class="cls-6" x="99.58" y="0">P</tspan><tspan class="cls-7" x="109.51" y="0">AR</tspan><tspan class="cls-8" x="132.77" y="0">K</tspan><tspan x="146.19" y="0">!</tspan></text></g></g></svg>