<svg xmlns="http://www.w3.org/2000/svg" xmlns:xlink="http://www.w3.org/1999/xlink" viewBox="0 0 235 57"><defs><style>.cls-1{fill:url(#_ÂÁ_Ï_ÌÌ_È_ËÂÌÚ_5);}.cls-2{isolation:isolate;}.cls-3{fill:url(#linear-gradient);}.cls-4{mix-blend-mode:multiply;}.cls-5{clip-path:url(#clip-path);}.cls-6{fill:url(#_ÂÁ_Ï_ÌÌ_È_ËÂÌÚ_15);}.cls-7{fill:url(#_ÂÁ_Ï_ÌÌ_È_ËÂÌÚ_15-2);}.cls-8{fill:url(#_ÂÁ_Ï_ÌÌ_È_ËÂÌÚ_14);}.cls-9{fill:#f1f1f1;}.cls-10{fill:#fffff7;}</style><linearGradient id="_ÂÁ_Ï_ÌÌ_È_ËÂÌÚ_5" y1="25" x2="230" y2="25" gradientUnits="userSpaceOnUse"><stop offset="0" stop-color="#db8810"/><stop offset="1" stop-color="#e22d18"/></linearGradient><linearGradient id="linear-gradient" y1="25" x2="230" y2="25" gradientUnits="userSpaceOnUse"><stop offset="0" stop-color="#44ade2"/><stop offset="1" stop-color="#003970"/></linearGradient><clipPath id="clip-path" transform="translate(2.5)"><path id="Mask" class="cls-1" d="M205,0H25a25,25,0,0,0,0,50H205a25,25,0,0,0,0-50Z"/></clipPath><radialGradient id="_ÂÁ_Ï_ÌÌ_È_ËÂÌÚ_15" cx="29.34" cy="-70.09" r="25" gradientTransform="translate(-4.45 108.4) scale(1.02 1.14)" gradientUnits="userSpaceOnUse"><stop offset="0.75" stop-color="#fff"/><stop offset="0.79" stop-color="#fefdfc"/><stop offset="0.83" stop-color="#fcf7f2"/><stop offset="0.86" stop-color="#f9ede1"/><stop offset="0.89" stop-color="#f3dfc9"/><stop offset="0.92" stop-color="#edcdaa"/><stop offset="0.95" stop-color="#e5b784"/><stop offset="0.98" stop-color="#db9d59"/><stop offset="1" stop-color="#d48936"/></radialGradient><radialGradient id="_ÂÁ_Ï_ÌÌ_È_ËÂÌÚ_15-2" cx="208.61" cy="-70.09" r="25" xlink:href="#_ÂÁ_Ï_ÌÌ_È_ËÂÌÚ_15"/><linearGradient id="_ÂÁ_Ï_ÌÌ_È_ËÂÌÚ_14" x1="117.5" y1="57" x2="117.5" gradientUnits="userSpaceOnUse"><stop offset="0.88" stop-color="#fff"/><stop offset="0.9" stop-color="#fefdfc"/><stop offset="0.92" stop-color="#fcf7f2"/><stop offset="0.93" stop-color="#f9ede1"/><stop offset="0.95" stop-color="#f3dfc9"/><stop offset="0.96" stop-color="#edcdaa"/><stop offset="0.98" stop-color="#e5b784"/><stop offset="0.99" stop-color="#db9d59"/><stop offset="1" stop-color="#d48936"/></linearGradient></defs><g class="cls-2"><g id="Layer_2" data-name="Layer 2"><g id="the_advantages" data-name="the advantages"><g id="basic_button_hover" data-name="basic button hover"><path id="BG" class="cls-3" d="M205,0H25a25,25,0,0,0,0,50H205a25,25,0,0,0,0-50Z" transform="translate(2.5)"/><g id="Shadow" class="cls-4"><path id="Mask-2" data-name="Mask" class="cls-1" d="M205,0H25a25,25,0,0,0,0,50H205a25,25,0,0,0,0-50Z" transform="translate(2.5)"/><g class="cls-5"><g id="Shadow-2" data-name="Shadow"><rect class="cls-6" width="51.25" height="57"/><rect class="cls-7" x="183.75" width="51.25" height="57"/><rect class="cls-8" x="25.63" width="183.75" height="57"/></g></g></g></g><g id="basic_button" data-name="basic button"><path id="arrow" class="cls-9" d="M218,25.5a15,15,0,1,0-15,14.79A14.9,14.9,0,0,0,218,25.5Zm-16.37,6.89a1.74,1.74,0,0,1,0-2.49l2.61-2.55h-6.92a1.8,1.8,0,0,1-1.82-1.79v-.12a1.8,1.8,0,0,1,1.82-1.79h6.9l-2.59-2.53a1.74,1.74,0,0,1,0-2.49,1.83,1.83,0,0,1,2.55,0L210,24.27a1.74,1.74,0,0,1,0,2.49l-5.77,5.63A1.83,1.83,0,0,1,201.63,32.39Z" transform="translate(2.5)"/><path class="cls-10" d="M103.24,31.48a8.15,8.15,0,0,1-3.06.49c-4.53,0-6.53-2.83-6.53-6,0-4.28,3.13-6.46,6.75-6.46a7.28,7.28,0,0,1,3,.54l-.63,2.55a6.05,6.05,0,0,0-2.25-.43,3.28,3.28,0,0,0-3.49,3.58,3.29,3.29,0,0,0,3.55,3.59,6.59,6.59,0,0,0,2.17-.36Z" transform="translate(2.5)"/><path class="cls-10" d="M115.81,25.6c0,3.9-2.34,6.39-6.09,6.39s-5.83-2.83-5.83-6.2,2.32-6.33,6-6.33C113.83,19.46,115.81,22.36,115.81,25.6Zm-8.48.14c0,2.27,1,3.67,2.56,3.67s2.48-1.53,2.48-3.71-.94-3.67-2.5-3.67S107.33,23.51,107.33,25.74Z" transform="translate(2.5)"/><path class="cls-10" d="M117.53,31.79V19.65h3.84l1.93,3.73a37,37,0,0,1,1.9,4.25h.06a45.78,45.78,0,0,1-.25-5.11V19.65h3V31.79h-3.42l-2.06-4a47.14,47.14,0,0,1-2-4.4h0c.07,1.64.1,3.48.1,5.44v3Z" transform="translate(2.5)"/><path class="cls-10" d="M132.58,22.37h-3.1V19.65H139v2.72h-3.15v9.42h-3.26Z" transform="translate(2.5)"/><path class="cls-10" d="M143.74,19.65V31.79h-3.26V19.65Z" transform="translate(2.5)"/><path class="cls-10" d="M146,31.79V19.65h3.84l1.92,3.73a35.38,35.38,0,0,1,1.91,4.25h.06a45.78,45.78,0,0,1-.25-5.11V19.65h3V31.79H153l-2.06-4a47.14,47.14,0,0,1-2.05-4.4h0c.07,1.64.1,3.48.1,5.44v3Z" transform="translate(2.5)"/><path class="cls-10" d="M161.9,19.65v6.88c0,1.84.63,2.88,1.91,2.88s1.93-.95,1.93-2.88V19.65H169v6.7c0,3.75-1.87,5.64-5.28,5.64s-5.08-1.82-5.08-5.73V19.65Z" transform="translate(2.5)"/><path class="cls-10" d="M178.82,26.89h-4.35v2.24h4.88v2.66h-8.14V19.65h7.88V22.3h-4.62v2h4.35Z" transform="translate(2.5)"/></g></g></g></g></svg>