<svg xmlns="http://www.w3.org/2000/svg" xmlns:xlink="http://www.w3.org/1999/xlink" viewBox="0 0 146.11 112.54"><defs><style>.cls-1{fill:url(#_ÂÁ_Ï_ÌÌ_È_ËÂÌÚ_5);}.cls-2{isolation:isolate;}.cls-3{mix-blend-mode:multiply;}.cls-4{clip-path:url(#clip-path);}.cls-5{fill:url(#_ÂÁ_Ï_ÌÌ_È_ËÂÌÚ_15);}.cls-6{fill:url(#_ÂÁ_Ï_ÌÌ_È_ËÂÌÚ_15-2);}.cls-7{fill:url(#_ÂÁ_Ï_ÌÌ_È_ËÂÌÚ_14);}.cls-8{fill:#fffff8;}</style><linearGradient id="_ÂÁ_Ï_ÌÌ_È_ËÂÌÚ_5" y1="49.36" x2="143" y2="49.36" gradientUnits="userSpaceOnUse"><stop offset="0" stop-color="#db8810"/><stop offset="1" stop-color="#e22d18"/></linearGradient><clipPath id="clip-path" transform="translate(1.55)"><path id="Mask" class="cls-1" d="M127.46,0H15.54C7,0,0,22.1,0,49.36S7,98.72,15.54,98.72H127.46C136,98.72,143,76.62,143,49.36S136,0,127.46,0Z"/></clipPath><radialGradient id="_ÂÁ_Ï_ÌÌ_È_ËÂÌÚ_15" cx="-6.96" cy="-82.86" r="25" gradientTransform="translate(20.37 242.77) scale(0.64 2.25)" gradientUnits="userSpaceOnUse"><stop offset="0.75" stop-color="#fff"/><stop offset="0.79" stop-color="#fefdfc"/><stop offset="0.83" stop-color="#fcf7f2"/><stop offset="0.86" stop-color="#f9ede1"/><stop offset="0.89" stop-color="#f3dfc9"/><stop offset="0.92" stop-color="#edcdaa"/><stop offset="0.95" stop-color="#e5b784"/><stop offset="0.98" stop-color="#db9d59"/><stop offset="1" stop-color="#d48936"/></radialGradient><radialGradient id="_ÂÁ_Ï_ÌÌ_È_ËÂÌÚ_15-2" cx="172.31" cy="-82.86" r="25" xlink:href="#_ÂÁ_Ï_ÌÌ_È_ËÂÌÚ_15"/><linearGradient id="_ÂÁ_Ï_ÌÌ_È_ËÂÌÚ_14" x1="73.05" y1="112.54" x2="73.05" gradientUnits="userSpaceOnUse"><stop offset="0.88" stop-color="#fff"/><stop offset="0.9" stop-color="#fefdfc"/><stop offset="0.92" stop-color="#fcf7f2"/><stop offset="0.93" stop-color="#f9ede1"/><stop offset="0.95" stop-color="#f3dfc9"/><stop offset="0.96" stop-color="#edcdaa"/><stop offset="0.98" stop-color="#e5b784"/><stop offset="0.99" stop-color="#db9d59"/><stop offset="1" stop-color="#d48936"/></linearGradient></defs><g class="cls-2"><g id="Layer_2" data-name="Layer 2"><g id="the_advantages" data-name="the advantages"><g id="debate_button" data-name="debate button"><path id="BG" class="cls-1" d="M127.46,0H15.54C7,0,0,22.1,0,49.36S7,98.72,15.54,98.72H127.46C136,98.72,143,76.62,143,49.36S136,0,127.46,0Z" transform="translate(1.55)"/><g id="Shadow" class="cls-3"><path id="Mask-2" data-name="Mask" class="cls-1" d="M127.46,0H15.54C7,0,0,22.1,0,49.36S7,98.72,15.54,98.72H127.46C136,98.72,143,76.62,143,49.36S136,0,127.46,0Z" transform="translate(1.55)"/><g class="cls-4"><g id="Shadow-2" data-name="Shadow"><rect class="cls-5" width="31.86" height="112.54"/><rect class="cls-6" x="114.24" width="31.86" height="112.54"/><rect class="cls-7" x="15.93" width="114.24" height="112.54"/></g></g></g><path class="cls-8" d="M86.3,41.56a.63.63,0,0,0,.2,1.2,9.17,9.17,0,0,0,7-1.9h0a16.57,16.57,0,1,0-4-3.3l.2.1A7.83,7.83,0,0,1,86.3,41.56Zm23.1-17a2,2,0,1,1-2,2A2.07,2.07,0,0,1,109.4,24.56Zm-7.4,0a2,2,0,1,1-2,2A2,2,0,0,1,102,24.56Zm-7.4,0a2,2,0,1,1-2,2A2,2,0,0,1,94.6,24.56Zm-31.4,28c-.3-10.7,4.7-12.5,6.5-13.2,5.4-2,8,1.2,8,1.2,6.2-.6,7.9,6.2,7.2,13.9s3.5,8.9,3.5,8.9c-2.9,3-9.1,2.8-9.1,2.8v1.4a.37.37,0,0,0,.1.3c.1.2.5,1.3,3.8,2.8,1.2.5,2.3,1,3.5,1.4a29.18,29.18,0,0,1,4.7,2.3,4.84,4.84,0,0,1,1.9,2.1,10.88,10.88,0,0,1,.7,2.4v4.7H53.9v-4.7a10.88,10.88,0,0,1,.7-2.4,5.46,5.46,0,0,1,1.9-2.1,22.71,22.71,0,0,1,4.7-2.3c1.2-.5,2.3-1,3.5-1.4,3.3-1.5,3.7-2.6,3.8-2.8a.37.37,0,0,1,.1-.3,1.7,1.7,0,0,1,.1-.7v-.6c-7.1.1-9.2-3-9.2-3S63.4,63.26,63.2,52.56Zm-24,20.7a7.5,7.5,0,0,0,.7-2.3,11.08,11.08,0,0,1-2.1-5.4c-.5,0-1.1-.7-1.8-3.1-.9-3.1-.1-3.7.7-3.7h.2a8.57,8.57,0,0,1-.2-5,9.94,9.94,0,0,1,2.5-4.5,10.1,10.1,0,0,1,2.3-1.9,8.36,8.36,0,0,1,2.3-1.2h0a6.54,6.54,0,0,1,2.1-.4h.9a8.77,8.77,0,0,1,4.3,1.1,6.35,6.35,0,0,1,2.5,2.4s4.6.3,2.6,10h0c.6.2,1.1,1.1.3,3.6S55.2,66,54.7,66a.76.76,0,0,1-.4-.1,12.13,12.13,0,0,1-2,4.9,5.77,5.77,0,0,0,.9,2.6.77.77,0,0,1,.3.1,5.33,5.33,0,0,0-1.3,1.9,9.63,9.63,0,0,0-.9,3.2v5H26v-.8c0-2.2.5-5.6,3.8-6.4A42.89,42.89,0,0,0,39.2,73.26Zm55.2,0a7.5,7.5,0,0,0,.7-2.3,11.08,11.08,0,0,1-2.1-5.4c-.5,0-1.1-.7-1.8-3.1-.9-3.1-.1-3.7.7-3.7h.2a8.57,8.57,0,0,1-.2-5,9.94,9.94,0,0,1,2.5-4.5,10.1,10.1,0,0,1,2.3-1.9,8.36,8.36,0,0,1,2.3-1.2h0a6.54,6.54,0,0,1,2.1-.4h.9a8.77,8.77,0,0,1,4.3,1.1,6.35,6.35,0,0,1,2.5,2.4s4.6.3,2.6,10c.6.2,1.1,1.1.3,3.6s-1.3,3.1-1.8,3.1a.76.76,0,0,1-.4-.1,12.13,12.13,0,0,1-2,4.9,5.77,5.77,0,0,0,.9,2.6,57.8,57.8,0,0,0,9.2,3.1c3.3.8,3.8,4.2,3.8,6.4v.8H96.7v-5a10.33,10.33,0,0,0-.9-3.2,7.35,7.35,0,0,0-1.6-2.2Z" transform="translate(1.55)"/></g></g></g></g></svg>