<svg xmlns="http://www.w3.org/2000/svg" xmlns:xlink="http://www.w3.org/1999/xlink" viewBox="0 0 49.22 39.35"><defs><style>.cls-1{fill:url(#_ÂÁ_Ï_ÌÌ_È_ËÂÌÚ_34);}.cls-2{isolation:isolate;}.cls-3{fill:url(#linear-gradient);}.cls-4{mix-blend-mode:multiply;}.cls-5{clip-path:url(#clip-path);}.cls-6{fill:url(#_ÂÁ_Ï_ÌÌ_È_ËÂÌÚ_11);}.cls-7{fill:url(#_ÂÁ_Ï_ÌÌ_È_ËÂÌÚ_11-2);}.cls-8{fill:url(#_ÂÁ_Ï_ÌÌ_È_ËÂÌÚ_10);}.cls-9{fill:#fffff8;fill-rule:evenodd;}</style><linearGradient id="_ÂÁ_Ï_ÌÌ_È_ËÂÌÚ_34" x1="49.98" y1="15.41" x2="88.49" y2="15.41" gradientTransform="translate(37 -49.98) rotate(90)" gradientUnits="userSpaceOnUse"><stop offset="0" stop-color="#7057da"/><stop offset="0.5" stop-color="#511edf"/><stop offset="1" stop-color="#5300d7"/></linearGradient><linearGradient id="linear-gradient" x1="49.98" y1="15.41" x2="88.49" y2="15.41" gradientTransform="translate(37 -49.98) rotate(90)" gradientUnits="userSpaceOnUse"><stop offset="0" stop-color="#84dff3"/><stop offset="0.1" stop-color="#7bd9f0"/><stop offset="0.25" stop-color="#61c8e9"/><stop offset="0.46" stop-color="#38acdd"/><stop offset="0.57" stop-color="#1e9bd6"/><stop offset="0.87" stop-color="#0075bd"/><stop offset="0.99" stop-color="#005b96"/></linearGradient><clipPath id="clip-path" transform="translate(6.04 0.42)"><path id="Mask" class="cls-1" d="M43.17,34.32V4.19C43.17,1.87,33.51,0,21.59,0S0,1.87,0,4.19V34.32c0,2.31,9.67,4.19,21.59,4.19S43.17,36.63,43.17,34.32Z"/></clipPath><radialGradient id="_ÂÁ_Ï_ÌÌ_È_ËÂÌÚ_11" cx="58.28" cy="-23.26" r="11.01" gradientTransform="translate(-4.14 55.85) scale(0.39 2.23)" gradientUnits="userSpaceOnUse"><stop offset="0.75" stop-color="#fff"/><stop offset="0.8" stop-color="#fcfcfd"/><stop offset="0.84" stop-color="#f3f2f8"/><stop offset="0.88" stop-color="#e5e1ef"/><stop offset="0.91" stop-color="#d0c9e3"/><stop offset="0.95" stop-color="#b5aad3"/><stop offset="0.98" stop-color="#9485c0"/><stop offset="1" stop-color="#7e6cb3"/></radialGradient><radialGradient id="_ÂÁ_Ï_ÌÌ_È_ËÂÌÚ_11-2" cx="137.26" cy="-23.26" r="11.01" gradientTransform="translate(-34.9 86.62) scale(0.39 2.23)" xlink:href="#_ÂÁ_Ï_ÌÌ_È_ËÂÌÚ_11"/><linearGradient id="_ÂÁ_Ï_ÌÌ_È_ËÂÌÚ_10" x1="69.24" y1="43.04" x2="69.24" y2="-6.17" gradientTransform="translate(-50.67 0.82)" gradientUnits="userSpaceOnUse"><stop offset="0.88" stop-color="#fff"/><stop offset="0.9" stop-color="#fcfcfd"/><stop offset="0.92" stop-color="#f3f2f8"/><stop offset="0.94" stop-color="#e5e1ef"/><stop offset="0.96" stop-color="#d0c9e3"/><stop offset="0.97" stop-color="#b5aad3"/><stop offset="0.99" stop-color="#9485c0"/><stop offset="1" stop-color="#7e6cb3"/></linearGradient></defs><g class="cls-2"><g id="Layer_2" data-name="Layer 2"><g id="the_advantages" data-name="the advantages"><g id="debate_button" data-name="debate button"><path id="BG" class="cls-3" d="M43.17,34.32V4.19C43.17,1.87,33.51,0,21.59,0S0,1.87,0,4.19V34.32c0,2.31,9.67,4.19,21.59,4.19S43.17,36.63,43.17,34.32Z" transform="translate(6.04 0.42)"/><g id="Shadow" class="cls-4"><path id="Mask-2" data-name="Mask" class="cls-1" d="M43.17,34.32V4.19C43.17,1.87,33.51,0,21.59,0S0,1.87,0,4.19V34.32c0,2.31,9.67,4.19,21.59,4.19S43.17,36.63,43.17,34.32Z" transform="translate(6.04 0.42)"/><g class="cls-5"><g id="Shadow-2" data-name="Shadow"><rect class="cls-6" x="14.27" y="-20.74" width="8.58" height="49.22" transform="translate(28.48 -14.27) rotate(90)"/><rect class="cls-7" x="14.27" y="10.03" width="8.58" height="49.22" transform="translate(59.25 16.49) rotate(90)"/><rect class="cls-8" x="3.18" y="-5.36" width="30.76" height="49.22" transform="translate(43.86 1.11) rotate(90)"/></g></g></g></g><g id="dobble_arrow" data-name="dobble arrow"><path id="arrow" class="cls-9" d="M33.59,10c1.93-1.36,2.5-.83,1.28,1.19l-11,18.14a1.43,1.43,0,0,1-2.66,0l-11-18.14C9,9.18,9.53,8.65,11.45,10l1.27.9c5.42,3.82,14.19,3.81,19.6,0Z" transform="translate(6.04 0.42)"/></g></g></g></g></svg>