<svg xmlns="http://www.w3.org/2000/svg" xmlns:xlink="http://www.w3.org/1999/xlink" viewBox="0 0 49.58 39.35"><defs><style>.cls-1{fill:url(#_ÂÁ_Ï_ÌÌ_È_ËÂÌÚ_5);}.cls-2{isolation:isolate;}.cls-3{mix-blend-mode:multiply;}.cls-4{clip-path:url(#clip-path);}.cls-5{fill:url(#_ÂÁ_Ï_ÌÌ_È_ËÂÌÚ_15);}.cls-6{fill:url(#_ÂÁ_Ï_ÌÌ_È_ËÂÌÚ_15-2);}.cls-7{fill:url(#_ÂÁ_Ï_ÌÌ_È_ËÂÌÚ_14);}.cls-8{fill:#fffff8;fill-rule:evenodd;}</style><linearGradient id="_ÂÁ_Ï_ÌÌ_È_ËÂÌÚ_5" x1="49.98" y1="15.25" x2="88.49" y2="15.25" gradientTransform="translate(37 -49.98) rotate(90)" gradientUnits="userSpaceOnUse"><stop offset="0" stop-color="#db8810"/><stop offset="1" stop-color="#e22d18"/></linearGradient><clipPath id="clip-path" transform="translate(6.09 0.42)"><path id="Mask" class="cls-1" d="M43.49,34.32V4.19C43.49,1.87,33.76,0,21.75,0S0,1.87,0,4.19V34.32c0,2.31,9.74,4.19,21.75,4.19S43.49,36.63,43.49,34.32Z"/></clipPath><radialGradient id="_ÂÁ_Ï_ÌÌ_È_ËÂÌÚ_15" cx="72.29" cy="-46.78" r="11.01" gradientTransform="translate(-9.46 109.17) scale(0.39 2.25)" gradientUnits="userSpaceOnUse"><stop offset="0.75" stop-color="#fff"/><stop offset="0.79" stop-color="#fefdfc"/><stop offset="0.83" stop-color="#fcf7f2"/><stop offset="0.86" stop-color="#f9ede1"/><stop offset="0.89" stop-color="#f3dfc9"/><stop offset="0.92" stop-color="#edcdaa"/><stop offset="0.95" stop-color="#e5b784"/><stop offset="0.98" stop-color="#db9d59"/><stop offset="1" stop-color="#d48936"/></radialGradient><radialGradient id="_ÂÁ_Ï_ÌÌ_È_ËÂÌÚ_15-2" cx="151.27" cy="-46.78" r="11.01" gradientTransform="translate(-40.22 139.93) scale(0.39 2.25)" xlink:href="#_ÂÁ_Ï_ÌÌ_È_ËÂÌÚ_15"/><linearGradient id="_ÂÁ_Ï_ÌÌ_È_ËÂÌÚ_14" x1="69.24" y1="43.09" x2="69.24" y2="-6.49" gradientTransform="translate(-50.54 0.96)" gradientUnits="userSpaceOnUse"><stop offset="0.88" stop-color="#fff"/><stop offset="0.9" stop-color="#fefdfc"/><stop offset="0.92" stop-color="#fcf7f2"/><stop offset="0.93" stop-color="#f9ede1"/><stop offset="0.95" stop-color="#f3dfc9"/><stop offset="0.96" stop-color="#edcdaa"/><stop offset="0.98" stop-color="#e5b784"/><stop offset="0.99" stop-color="#db9d59"/><stop offset="1" stop-color="#d48936"/></linearGradient></defs><g class="cls-2"><g id="Layer_2" data-name="Layer 2"><g id="the_advantages" data-name="the advantages"><g id="dobble_arrow" data-name="dobble arrow"><path id="BG" class="cls-1" d="M43.49,34.32V4.19C43.49,1.87,33.76,0,21.75,0S0,1.87,0,4.19V34.32c0,2.31,9.74,4.19,21.75,4.19S43.49,36.63,43.49,34.32Z" transform="translate(6.09 0.42)"/><g id="Shadow" class="cls-3"><path id="Mask-2" data-name="Mask" class="cls-1" d="M43.49,34.32V4.19C43.49,1.87,33.76,0,21.75,0S0,1.87,0,4.19V34.32c0,2.31,9.74,4.19,21.75,4.19S43.49,36.63,43.49,34.32Z" transform="translate(6.09 0.42)"/><g class="cls-4"><g id="Shadow-2" data-name="Shadow"><rect class="cls-5" x="14.41" y="-20.92" width="8.58" height="49.58" transform="translate(28.66 -14.41) rotate(90)"/><rect class="cls-6" x="14.41" y="9.85" width="8.58" height="49.58" transform="translate(59.43 16.35) rotate(90)"/><rect class="cls-7" x="3.32" y="-5.54" width="30.76" height="49.58" transform="translate(44.04 0.97) rotate(90)"/></g></g></g><path id="arrow" class="cls-8" d="M33.59,10c1.93-1.36,2.5-.83,1.28,1.19l-11,18.14a1.43,1.43,0,0,1-2.66,0l-11-18.14C9,9.18,9.53,8.65,11.45,10l1.27.9c5.42,3.82,14.19,3.81,19.6,0Z" transform="translate(6.09 0.42)"/></g></g></g></g></svg>