<svg xmlns="http://www.w3.org/2000/svg" viewBox="0 0 230 50"><defs><style>.cls-1{fill:none;stroke:#f16522;stroke-miterlimit:10;stroke-width:4px;}.cls-2{fill:#f16522;}</style></defs><g id="Layer_2" data-name="Layer 2"><g id="buttons_for_options" data-name="buttons for options"><g id="basic_link" data-name="basic link"><path id="outline" class="cls-1" d="M25,48A23,23,0,0,1,25,2H205a23,23,0,0,1,0,46Z"/><path id="arrow" class="cls-2" d="M217.89,24.84a15,15,0,1,0-15,14.8A14.9,14.9,0,0,0,217.89,24.84Zm-16.37,6.9a1.75,1.75,0,0,1,0-2.5l2.61-2.55h-6.92a1.8,1.8,0,0,1-1.82-1.79v-.12A1.8,1.8,0,0,1,197.21,23h6.9l-2.59-2.53a1.74,1.74,0,0,1,0-2.49,1.83,1.83,0,0,1,2.55,0l5.77,5.64a1.74,1.74,0,0,1,0,2.49l-5.77,5.64A1.83,1.83,0,0,1,201.52,31.74Z"/><g id="exit_label" data-name="exit label"><path class="cls-2" d="M145.15,27.53h-4.36v2.23h4.88v2.67h-8.14V20.29h7.89v2.65h-4.63v2h4.36Z"/><path class="cls-2" d="M153.73,32.43l-.9-2c-.34-.78-.61-1.41-.93-2.11h0c-.21.7-.48,1.33-.77,2.09l-.81,2h-3.69l3.4-6.14-3.3-6h3.75l.81,1.93c.32.72.56,1.31.81,2h.05c.27-.8.45-1.32.71-2l.75-1.95h3.71L154,26.22l3.53,6.21Z"/><path class="cls-2" d="M162.09,20.29V32.43h-3.26V20.29Z"/><path class="cls-2" d="M166.67,23h-3.09V20.29h9.5V23h-3.15v9.42h-3.26Z"/></g></g></g></g></svg>