<svg xmlns="http://www.w3.org/2000/svg" xmlns:xlink="http://www.w3.org/1999/xlink" viewBox="0 0 235 57"><defs><style>.cls-1{fill:url(#_ÂÁ_Ï_ÌÌ_È_ËÂÌÚ_5);}.cls-2{isolation:isolate;}.cls-3{mix-blend-mode:multiply;}.cls-4{clip-path:url(#clip-path);}.cls-5{fill:url(#_ÂÁ_Ï_ÌÌ_È_ËÂÌÚ_15);}.cls-6{fill:url(#_ÂÁ_Ï_ÌÌ_È_ËÂÌÚ_15-2);}.cls-7{fill:url(#_ÂÁ_Ï_ÌÌ_È_ËÂÌÚ_14);}.cls-8{fill:#fffff7;}.cls-9{fill:#fffff8;}</style><linearGradient id="_ÂÁ_Ï_ÌÌ_È_ËÂÌÚ_5" y1="25" x2="230" y2="25" gradientUnits="userSpaceOnUse"><stop offset="0" stop-color="#db8810"/><stop offset="1" stop-color="#e22d18"/></linearGradient><clipPath id="clip-path" transform="translate(2.5)"><path id="Mask" class="cls-1" d="M205,0H25a25,25,0,0,0,0,50H205a25,25,0,0,0,0-50Z"/></clipPath><radialGradient id="_ÂÁ_Ï_ÌÌ_È_ËÂÌÚ_15" cx="29.34" cy="-70.09" r="25" gradientTransform="translate(-4.45 108.4) scale(1.02 1.14)" gradientUnits="userSpaceOnUse"><stop offset="0.75" stop-color="#fff"/><stop offset="0.79" stop-color="#fefdfc"/><stop offset="0.83" stop-color="#fcf7f2"/><stop offset="0.86" stop-color="#f9ede1"/><stop offset="0.89" stop-color="#f3dfc9"/><stop offset="0.92" stop-color="#edcdaa"/><stop offset="0.95" stop-color="#e5b784"/><stop offset="0.98" stop-color="#db9d59"/><stop offset="1" stop-color="#d48936"/></radialGradient><radialGradient id="_ÂÁ_Ï_ÌÌ_È_ËÂÌÚ_15-2" cx="208.61" cy="-70.09" r="25" xlink:href="#_ÂÁ_Ï_ÌÌ_È_ËÂÌÚ_15"/><linearGradient id="_ÂÁ_Ï_ÌÌ_È_ËÂÌÚ_14" x1="117.5" y1="57" x2="117.5" gradientUnits="userSpaceOnUse"><stop offset="0.88" stop-color="#fff"/><stop offset="0.9" stop-color="#fefdfc"/><stop offset="0.92" stop-color="#fcf7f2"/><stop offset="0.93" stop-color="#f9ede1"/><stop offset="0.95" stop-color="#f3dfc9"/><stop offset="0.96" stop-color="#edcdaa"/><stop offset="0.98" stop-color="#e5b784"/><stop offset="0.99" stop-color="#db9d59"/><stop offset="1" stop-color="#d48936"/></linearGradient></defs><g class="cls-2"><g id="Layer_2" data-name="Layer 2"><g id="buttons_for_options" data-name="buttons for options"><g id="basic_button" data-name="basic button"><path id="BG" class="cls-1" d="M205,0H25a25,25,0,0,0,0,50H205a25,25,0,0,0,0-50Z" transform="translate(2.5)"/><g id="Shadow" class="cls-3"><path id="Mask-2" data-name="Mask" class="cls-1" d="M205,0H25a25,25,0,0,0,0,50H205a25,25,0,0,0,0-50Z" transform="translate(2.5)"/><g class="cls-4"><g id="Shadow-2" data-name="Shadow"><rect class="cls-5" width="51.25" height="57"/><rect class="cls-6" x="183.75" width="51.25" height="57"/><rect class="cls-7" x="25.63" width="183.75" height="57"/></g></g></g><g id="how_to_play_label" data-name="how to play label"><path class="cls-8" d="M65.08,19.65v4.49H69V19.65h3.24V31.79H69V27H65.08v4.81H61.82V19.65Z" transform="translate(2.5)"/><path class="cls-8" d="M85.92,25.6c0,3.9-2.34,6.39-6.08,6.39S74,29.16,74,25.79s2.33-6.33,6-6.33C83.94,19.46,85.92,22.36,85.92,25.6Zm-8.48.14c0,2.27,1,3.67,2.56,3.67s2.48-1.53,2.48-3.71S81.55,22,80,22,77.44,23.51,77.44,25.74Z" transform="translate(2.5)"/><path class="cls-8" d="M89.38,31.79,86.59,19.65h3.49l.7,4.51c.22,1.4.43,3,.63,4.26h0c.18-1.36.43-2.82.7-4.3l.77-4.47H96.4l.75,4.69c.22,1.38.38,2.63.55,4h0c.18-1.35.4-2.79.61-4.21l.72-4.47h3.3l-3,12.14H95.82L95,27c-.18-1.06-.34-2.2-.5-3.64h0c-.2,1.44-.36,2.58-.57,3.66L93,31.79Z" transform="translate(2.5)"/><path class="cls-8" d="M109,22.37h-3.1V19.65h9.51v2.72h-3.15v9.42H109Z" transform="translate(2.5)"/><path class="cls-8" d="M127.75,25.6c0,3.9-2.34,6.39-6.08,6.39s-5.83-2.83-5.83-6.2,2.32-6.33,6-6.33C125.77,19.46,127.75,22.36,127.75,25.6Zm-8.48.14c0,2.27,1,3.67,2.56,3.67s2.49-1.53,2.49-3.71S123.38,22,121.81,22,119.27,23.51,119.27,25.74Z" transform="translate(2.5)"/><path class="cls-8" d="M133,19.82a24.71,24.71,0,0,1,4-.26,6.17,6.17,0,0,1,3.83,1,3.62,3.62,0,0,1,1.39,2.93,3.94,3.94,0,0,1-1.17,3,6,6,0,0,1-4.05,1.26c-.31,0-.6,0-.79,0v4.12H133Zm3.23,5.36a6,6,0,0,0,.73,0c1.28,0,2.08-.65,2.08-1.69S138.46,22,137.24,22a4.43,4.43,0,0,0-1,.08Z" transform="translate(2.5)"/><path class="cls-8" d="M143.88,19.65h3.26v9.42h4.66v2.72h-7.92Z" transform="translate(2.5)"/><path class="cls-8" d="M156.7,29,156,31.79h-3.37l3.53-12.14h4.33l3.61,12.14H160.6L159.83,29Zm2.68-2.41-.56-2.18c-.18-.68-.41-1.67-.59-2.39h0c-.18.72-.36,1.72-.54,2.41l-.52,2.16Z" transform="translate(2.5)"/><path class="cls-8" d="M166.67,31.79v-4.9l-3.84-7.24h3.73l1,2.74c.34.85.55,1.46.82,2.23h0c.23-.73.49-1.4.77-2.23l1-2.74h3.66l-4,7.12v5Z" transform="translate(2.5)"/></g><path id="question_mark" data-name="question mark" class="cls-9" d="M202.69,10.93a15.12,15.12,0,1,0,15.12,15.12A15.12,15.12,0,0,0,202.69,10.93ZM202.48,36a1.73,1.73,0,1,1,1.74-1.73h0A1.75,1.75,0,0,1,202.48,36Zm1.9-8.41s-.17.07-.17.17v1.37a1.73,1.73,0,0,1-3.45,0h0V27.76a3.65,3.65,0,0,1,2.51-3.43,2.43,2.43,0,0,0,1.67-2.4,2.51,2.51,0,0,0-2.47-2.38,2.42,2.42,0,0,0-2.19,1.39,1.73,1.73,0,0,1-3.11-1.5,5.87,5.87,0,0,1,5.27-3.34h0a6,6,0,0,1,5.9,5.73,5.86,5.86,0,0,1-4,5.76Z" transform="translate(2.5)"/></g></g></g></g></svg>