<svg xmlns="http://www.w3.org/2000/svg" viewBox="0 0 106.32 106.08"><defs><style>.cls-1{opacity:0.25;}</style></defs><g id="Layer_2" data-name="Layer 2"><g id="orange"><path id="link_symbol" data-name="link symbol" class="cls-1" d="M28.38,106.08a28.3,28.3,0,0,0,20.06-8.26L64.13,82.13A28.09,28.09,0,0,0,72,66.2a8.48,8.48,0,0,0,3.42.71,9.29,9.29,0,0,0,6.61-2.72L98,48.38A28.37,28.37,0,0,0,57.88,8.26L42.07,24a28.09,28.09,0,0,0-7.91,15.93,8.47,8.47,0,0,0-3.42-.7,9.28,9.28,0,0,0-6.61,2.71L8.32,57.58a28.44,28.44,0,0,0,20.06,48.5ZM69.91,50a27.19,27.19,0,0,0-5.66-8.14,9.28,9.28,0,0,0-6.61-2.71A10.23,10.23,0,0,0,53,40.36a10,10,0,0,1,2.12-3.31l15.7-15.69a9.52,9.52,0,0,1,7-2.83,10.21,10.21,0,0,1,7,2.83,9.53,9.53,0,0,1,2.84,7,10.23,10.23,0,0,1-2.84,7Zm-23.71-22L61.89,12.39a22.89,22.89,0,0,1,16-6.61A22.48,22.48,0,0,1,93.87,44.13L78.06,59.94a3.42,3.42,0,0,1-4.84-4.83l15.69-15.7A15.68,15.68,0,1,0,66.73,17.23L51,32.92a15.66,15.66,0,0,0,0,22.19,3.42,3.42,0,1,1-4.84,4.83A22.65,22.65,0,0,1,46.2,28.08ZM36.4,55.93a27.4,27.4,0,0,0,5.67,8.14,9.28,9.28,0,0,0,6.6,2.72,10.24,10.24,0,0,0,4.61-1.18,9.89,9.89,0,0,1-2.13,3.3L35.34,84.61a9.56,9.56,0,0,1-7,2.83,10.22,10.22,0,0,1-7-2.83,9.53,9.53,0,0,1-2.83-7,10.24,10.24,0,0,1,2.83-7Zm-23.83,5.9L28.26,46.14a3.53,3.53,0,0,1,2.36-1,3.29,3.29,0,0,1,2.36,1A3.49,3.49,0,0,1,33,51L17.41,66.67A15.68,15.68,0,1,0,39.59,88.85L55.28,73a15.64,15.64,0,0,0,0-22.18A3.42,3.42,0,0,1,60.12,46a22.51,22.51,0,0,1,0,31.74L44.31,93.57A22.44,22.44,0,1,1,12.57,61.83Z"/></g></g></svg>