<svg xmlns="http://www.w3.org/2000/svg" xmlns:xlink="http://www.w3.org/1999/xlink" viewBox="0 0 235 57"><defs><style>.cls-1{fill:url(#_ÂÁ_Ï_ÌÌ_È_ËÂÌÚ_5);}.cls-2{isolation:isolate;}.cls-3{mix-blend-mode:multiply;}.cls-4{clip-path:url(#clip-path);}.cls-5{fill:url(#_ÂÁ_Ï_ÌÌ_È_ËÂÌÚ_15);}.cls-6{fill:url(#_ÂÁ_Ï_ÌÌ_È_ËÂÌÚ_15-2);}.cls-7{fill:url(#_ÂÁ_Ï_ÌÌ_È_ËÂÌÚ_14);}.cls-8{fill:#f1f1f1;}.cls-9{fill:#fffff7;}</style><linearGradient id="_ÂÁ_Ï_ÌÌ_È_ËÂÌÚ_5" y1="25" x2="230" y2="25" gradientUnits="userSpaceOnUse"><stop offset="0" stop-color="#db8810"/><stop offset="1" stop-color="#e22d18"/></linearGradient><clipPath id="clip-path" transform="translate(2.5)"><path id="Mask" class="cls-1" d="M205,0H25a25,25,0,0,0,0,50H205a25,25,0,0,0,0-50Z"/></clipPath><radialGradient id="_ÂÁ_Ï_ÌÌ_È_ËÂÌÚ_15" cx="29.34" cy="-70.09" r="25" gradientTransform="translate(-4.45 108.4) scale(1.02 1.14)" gradientUnits="userSpaceOnUse"><stop offset="0.75" stop-color="#fff"/><stop offset="0.79" stop-color="#fefdfc"/><stop offset="0.83" stop-color="#fcf7f2"/><stop offset="0.86" stop-color="#f9ede1"/><stop offset="0.89" stop-color="#f3dfc9"/><stop offset="0.92" stop-color="#edcdaa"/><stop offset="0.95" stop-color="#e5b784"/><stop offset="0.98" stop-color="#db9d59"/><stop offset="1" stop-color="#d48936"/></radialGradient><radialGradient id="_ÂÁ_Ï_ÌÌ_È_ËÂÌÚ_15-2" cx="208.61" cy="-70.09" r="25" xlink:href="#_ÂÁ_Ï_ÌÌ_È_ËÂÌÚ_15"/><linearGradient id="_ÂÁ_Ï_ÌÌ_È_ËÂÌÚ_14" x1="117.5" y1="57" x2="117.5" gradientUnits="userSpaceOnUse"><stop offset="0.88" stop-color="#fff"/><stop offset="0.9" stop-color="#fefdfc"/><stop offset="0.92" stop-color="#fcf7f2"/><stop offset="0.93" stop-color="#f9ede1"/><stop offset="0.95" stop-color="#f3dfc9"/><stop offset="0.96" stop-color="#edcdaa"/><stop offset="0.98" stop-color="#e5b784"/><stop offset="0.99" stop-color="#db9d59"/><stop offset="1" stop-color="#d48936"/></linearGradient></defs><g class="cls-2"><g id="Layer_2" data-name="Layer 2"><g id="the_advantages" data-name="the advantages"><g id="basic_button" data-name="basic button"><path id="BG" class="cls-1" d="M205,0H25a25,25,0,0,0,0,50H205a25,25,0,0,0,0-50Z" transform="translate(2.5)"/><g id="Shadow" class="cls-3"><path id="Mask-2" data-name="Mask" class="cls-1" d="M205,0H25a25,25,0,0,0,0,50H205a25,25,0,0,0,0-50Z" transform="translate(2.5)"/><g class="cls-4"><g id="Shadow-2" data-name="Shadow"><rect class="cls-5" width="51.25" height="57"/><rect class="cls-6" x="183.75" width="51.25" height="57"/><rect class="cls-7" x="25.63" width="183.75" height="57"/></g></g></g><path id="arrow" class="cls-8" d="M218,25.5a15,15,0,1,0-15,14.79A14.9,14.9,0,0,0,218,25.5Zm-16.37,6.89a1.74,1.74,0,0,1,0-2.49l2.61-2.55h-6.92a1.8,1.8,0,0,1-1.82-1.79v-.12a1.8,1.8,0,0,1,1.82-1.79h6.9l-2.59-2.53a1.74,1.74,0,0,1,0-2.49,1.83,1.83,0,0,1,2.55,0L210,24.27a1.74,1.74,0,0,1,0,2.49l-5.77,5.63A1.83,1.83,0,0,1,201.63,32.39Z" transform="translate(2.5)"/><g id="next_round_label" data-name="next round label"><path class="cls-9" d="M71.13,31.79V19.65H75l1.92,3.73a35.38,35.38,0,0,1,1.91,4.25h0a45.78,45.78,0,0,1-.25-5.11V19.65h3V31.79H78.15l-2.05-4a44.71,44.71,0,0,1-2-4.4H74c.07,1.64.11,3.48.11,5.44v3Z" transform="translate(2.5)"/><path class="cls-9" d="M91.44,26.89H87.08v2.24H92v2.66H83.82V19.65h7.89V22.3H87.08v2h4.36Z" transform="translate(2.5)"/><path class="cls-9" d="M100,31.79l-.9-2c-.34-.77-.61-1.4-.93-2.11h0c-.22.71-.49,1.34-.77,2.09l-.82,2H92.87l3.41-6.14-3.3-6h3.75l.81,1.93c.32.72.56,1.32.81,2h.05c.27-.79.45-1.31.7-2l.76-2h3.71l-3.31,5.93,3.53,6.21Z" transform="translate(2.5)"/><path class="cls-9" d="M107.56,22.37h-3.09V19.65H114v2.72h-3.15v9.42h-3.26Z" transform="translate(2.5)"/><path class="cls-9" d="M119,19.82a25.83,25.83,0,0,1,3.92-.26,6.84,6.84,0,0,1,4.11.94,3.15,3.15,0,0,1,1.2,2.65,3.22,3.22,0,0,1-2.08,2.93v.07a3,3,0,0,1,1.54,2.17c.38,1.24.78,3,1,3.47H125.4a17.61,17.61,0,0,1-.85-2.79c-.32-1.46-.77-1.77-1.78-1.77h-.52v4.56H119Zm3.22,5.09h.85c1.22,0,1.92-.61,1.92-1.51S124.43,22,123.35,22a6.29,6.29,0,0,0-1.1.07Z" transform="translate(2.5)"/><path class="cls-9" d="M141.4,25.6c0,3.9-2.34,6.39-6.08,6.39s-5.83-2.83-5.83-6.2,2.32-6.33,6-6.33C139.42,19.46,141.4,22.36,141.4,25.6Zm-8.48.14c0,2.27,1,3.67,2.56,3.67S138,27.88,138,25.7,137,22,135.46,22,132.92,23.51,132.92,25.74Z" transform="translate(2.5)"/><path class="cls-9" d="M146.37,19.65v6.88c0,1.84.63,2.88,1.91,2.88s1.93-.95,1.93-2.88V19.65h3.25v6.7c0,3.75-1.87,5.64-5.27,5.64s-5.08-1.82-5.08-5.73V19.65Z" transform="translate(2.5)"/><path class="cls-9" d="M155.68,31.79V19.65h3.83l1.93,3.73a38.83,38.83,0,0,1,1.91,4.25h.05a45.78,45.78,0,0,1-.25-5.11V19.65h3V31.79H162.7l-2.06-4a47.14,47.14,0,0,1-2-4.4h-.05c.07,1.64.11,3.48.11,5.44v3Z" transform="translate(2.5)"/><path class="cls-9" d="M168.36,19.82a25.66,25.66,0,0,1,3.88-.26,8.24,8.24,0,0,1,5,1.21,5.3,5.3,0,0,1,2.2,4.67,6,6,0,0,1-2.12,5,9.2,9.2,0,0,1-5.69,1.5,20.16,20.16,0,0,1-3.25-.2Zm3.26,9.54a3.72,3.72,0,0,0,.69,0c2.1,0,3.65-1.14,3.65-3.88a3.12,3.12,0,0,0-3.35-3.47,5.61,5.61,0,0,0-1,.07Z" transform="translate(2.5)"/></g></g></g></g></g></svg>