<svg xmlns="http://www.w3.org/2000/svg" xmlns:xlink="http://www.w3.org/1999/xlink" viewBox="0 0 235 57"><defs><style>.cls-1{fill:url(#_ÂÁ_Ï_ÌÌ_È_ËÂÌÚ_5);}.cls-2{isolation:isolate;}.cls-3{mix-blend-mode:multiply;}.cls-4{clip-path:url(#clip-path);}.cls-5{fill:url(#_ÂÁ_Ï_ÌÌ_È_ËÂÌÚ_15);}.cls-6{fill:url(#_ÂÁ_Ï_ÌÌ_È_ËÂÌÚ_15-2);}.cls-7{fill:url(#_ÂÁ_Ï_ÌÌ_È_ËÂÌÚ_14);}.cls-8{fill:#fffff8;}.cls-9{fill:#f16522;}.cls-10{fill:#fffff7;}</style><linearGradient id="_ÂÁ_Ï_ÌÌ_È_ËÂÌÚ_5" y1="25" x2="230" y2="25" gradientUnits="userSpaceOnUse"><stop offset="0" stop-color="#db8810"/><stop offset="1" stop-color="#e22d18"/></linearGradient><clipPath id="clip-path" transform="translate(2.5)"><path id="Mask" class="cls-1" d="M205,0H25a25,25,0,0,0,0,50H205a25,25,0,0,0,0-50Z"/></clipPath><radialGradient id="_ÂÁ_Ï_ÌÌ_È_ËÂÌÚ_15" cx="29.34" cy="-70.09" r="25" gradientTransform="translate(-4.45 108.4) scale(1.02 1.14)" gradientUnits="userSpaceOnUse"><stop offset="0.75" stop-color="#fff"/><stop offset="0.79" stop-color="#fefdfc"/><stop offset="0.83" stop-color="#fcf7f2"/><stop offset="0.86" stop-color="#f9ede1"/><stop offset="0.89" stop-color="#f3dfc9"/><stop offset="0.92" stop-color="#edcdaa"/><stop offset="0.95" stop-color="#e5b784"/><stop offset="0.98" stop-color="#db9d59"/><stop offset="1" stop-color="#d48936"/></radialGradient><radialGradient id="_ÂÁ_Ï_ÌÌ_È_ËÂÌÚ_15-2" cx="208.61" cy="-70.09" r="25" xlink:href="#_ÂÁ_Ï_ÌÌ_È_ËÂÌÚ_15"/><linearGradient id="_ÂÁ_Ï_ÌÌ_È_ËÂÌÚ_14" x1="117.5" y1="57" x2="117.5" gradientUnits="userSpaceOnUse"><stop offset="0.88" stop-color="#fff"/><stop offset="0.9" stop-color="#fefdfc"/><stop offset="0.92" stop-color="#fcf7f2"/><stop offset="0.93" stop-color="#f9ede1"/><stop offset="0.95" stop-color="#f3dfc9"/><stop offset="0.96" stop-color="#edcdaa"/><stop offset="0.98" stop-color="#e5b784"/><stop offset="0.99" stop-color="#db9d59"/><stop offset="1" stop-color="#d48936"/></linearGradient></defs><g class="cls-2"><g id="Layer_2" data-name="Layer 2"><g id="the_advantages" data-name="the advantages"><g id="basic_button" data-name="basic button"><path id="BG" class="cls-1" d="M205,0H25a25,25,0,0,0,0,50H205a25,25,0,0,0,0-50Z" transform="translate(2.5)"/><g id="Shadow" class="cls-3"><path id="Mask-2" data-name="Mask" class="cls-1" d="M205,0H25a25,25,0,0,0,0,50H205a25,25,0,0,0,0-50Z" transform="translate(2.5)"/><g class="cls-4"><g id="Shadow-2" data-name="Shadow"><rect class="cls-5" width="51.25" height="57"/><rect class="cls-6" x="183.75" width="51.25" height="57"/><rect class="cls-7" x="25.63" width="183.75" height="57"/></g></g></g><g id="eye"><ellipse class="cls-8" cx="205.03" cy="24.9" rx="15" ry="14.79"/><path class="cls-9" d="M203,20.87A4.15,4.15,0,1,0,207.16,25,4.15,4.15,0,0,0,203,20.87Z" transform="translate(2.5)"/><path class="cls-9" d="M203,16.72c-6.92,0-12.45,8.3-12.45,8.3s5.53,8.29,12.45,8.29S215.46,25,215.46,25,209.93,16.72,203,16.72Zm0,13.83c-3.52,0-7-3.23-9-5.53,1.95-2.31,5.45-5.54,9-5.54s7,3.23,9,5.54C210,27.33,206.53,30.55,203,30.55Z" transform="translate(2.5)"/></g><path class="cls-10" d="M34.54,28.55a7.3,7.3,0,0,0,3.15.76c1.11,0,1.65-.38,1.65-1s-.54-.94-1.9-1.41C35.38,26.19,34,25.06,34,23.26c0-2.15,1.8-3.8,4.86-3.8a7.88,7.88,0,0,1,3.3.63l-.68,2.59a6.47,6.47,0,0,0-2.65-.58c-1,0-1.53.36-1.53.9s.65.87,2.18,1.44c2.17.8,3.17,2,3.17,3.66C42.68,30.19,41,32,37.49,32a8.64,8.64,0,0,1-3.57-.74Z" transform="translate(2.5)"/><path class="cls-10" d="M47.68,19.65v4.49h3.94V19.65h3.24V31.79H51.62V27H47.68v4.81H44.42V19.65Z" transform="translate(2.5)"/><path class="cls-10" d="M68.52,25.6c0,3.9-2.34,6.39-6.08,6.39s-5.84-2.83-5.84-6.2,2.33-6.33,6-6.33C66.54,19.46,68.52,22.36,68.52,25.6ZM60,25.74c0,2.27,1,3.67,2.56,3.67s2.48-1.53,2.48-3.71S64.15,22,62.58,22,60,23.51,60,25.74Z" transform="translate(2.5)"/><path class="cls-10" d="M72,31.79,69.19,19.65h3.49l.7,4.51c.22,1.4.43,3,.63,4.26h0c.18-1.36.43-2.82.7-4.3l.77-4.47H79l.76,4.69c.21,1.38.37,2.63.54,4h0c.18-1.35.4-2.79.61-4.21l.72-4.47H85L82,31.79H78.42L77.61,27c-.18-1.06-.34-2.2-.5-3.64h0c-.2,1.44-.36,2.58-.57,3.66l-.92,4.73Z" transform="translate(2.5)"/><path class="cls-10" d="M89.9,19.82a24.71,24.71,0,0,1,4-.26,6.15,6.15,0,0,1,3.83,1,3.62,3.62,0,0,1,1.39,2.93,3.94,3.94,0,0,1-1.17,3,6,6,0,0,1-4,1.26c-.31,0-.6,0-.79,0v4.12H89.9Zm3.23,5.36a6,6,0,0,0,.73,0c1.28,0,2.08-.65,2.08-1.69S95.32,22,94.1,22a4.43,4.43,0,0,0-1,.08Z" transform="translate(2.5)"/><path class="cls-10" d="M112.15,25.6c0,3.9-2.34,6.39-6.08,6.39s-5.83-2.83-5.83-6.2,2.32-6.33,6-6.33C110.17,19.46,112.15,22.36,112.15,25.6Zm-8.48.14c0,2.27,1,3.67,2.56,3.67s2.49-1.53,2.49-3.71S107.78,22,106.21,22,103.67,23.51,103.67,25.74Z" transform="translate(2.5)"/><path class="cls-10" d="M114.1,28.55a7.3,7.3,0,0,0,3.15.76c1.11,0,1.65-.38,1.65-1s-.54-.94-1.9-1.41c-2.06-.72-3.41-1.85-3.41-3.65,0-2.15,1.8-3.8,4.86-3.8a7.88,7.88,0,0,1,3.3.63l-.69,2.59a6.37,6.37,0,0,0-2.64-.58c-1,0-1.53.36-1.53.9s.65.87,2.18,1.44c2.17.8,3.16,2,3.16,3.66,0,2.09-1.63,3.87-5.18,3.87a8.64,8.64,0,0,1-3.57-.74Z" transform="translate(2.5)"/><path class="cls-10" d="M127.24,19.65V31.79H124V19.65Z" transform="translate(2.5)"/><path class="cls-10" d="M131.83,22.37h-3.1V19.65h9.51v2.72h-3.15v9.42h-3.26Z" transform="translate(2.5)"/><path class="cls-10" d="M143,19.65V31.79h-3.26V19.65Z" transform="translate(2.5)"/><path class="cls-10" d="M156.63,25.6c0,3.9-2.34,6.39-6.08,6.39s-5.84-2.83-5.84-6.2,2.33-6.33,6-6.33C154.65,19.46,156.63,22.36,156.63,25.6Zm-8.48.14c0,2.27,1,3.67,2.56,3.67s2.48-1.53,2.48-3.71-.93-3.67-2.5-3.67S148.15,23.51,148.15,25.74Z" transform="translate(2.5)"/><path class="cls-10" d="M158.36,31.79V19.65h3.83l1.93,3.73A37,37,0,0,1,166,27.63h.05a45.78,45.78,0,0,1-.25-5.11V19.65h3V31.79h-3.42l-2-4a44.74,44.74,0,0,1-2.06-4.4h-.05c.07,1.64.11,3.48.11,5.44v3Z" transform="translate(2.5)"/><path class="cls-10" d="M171.26,28.55a7.37,7.37,0,0,0,3.15.76c1.12,0,1.66-.38,1.66-1s-.54-.94-1.91-1.41c-2-.72-3.4-1.85-3.4-3.65,0-2.15,1.8-3.8,4.86-3.8a7.88,7.88,0,0,1,3.3.63l-.69,2.59a6.38,6.38,0,0,0-2.65-.58c-1,0-1.53.36-1.53.9s.65.87,2.18,1.44c2.18.8,3.17,2,3.17,3.66,0,2.09-1.64,3.87-5.18,3.87a8.64,8.64,0,0,1-3.57-.74Z" transform="translate(2.5)"/></g></g></g></g></svg>