<svg xmlns="http://www.w3.org/2000/svg" viewBox="0 0 1257.34 104.58"><defs><style>.cls-1{fill:#23e207;}.cls-2{stroke:#000;stroke-miterlimit:10;}.cls-3{fill:#8961f7;}.cls-4{fill:#e50707;}</style></defs><g id="Layer_2" data-name="Layer 2"><g id="positions_assigned" data-name="positions assigned"><path class="cls-1" d="M32,0H365.61a33.11,33.11,0,0,1,33.11,33.11V87.16a0,0,0,0,1,0,0H0a0,0,0,0,1,0,0V32A32,32,0,0,1,32,0Z"/><g id="pro"><path class="cls-2" d="M196.52,46.54c-5.7-2-11.89.29-17.11,2.53-1.26.68-2.61,1.35-4.06,2.13a54.45,54.45,0,0,1-10,11.06c-1.07.68-2.42,1.94-3.77,1.16-.78-.58-.39-1.65.09-2.33,2.13-2.71,6.19-6.11,10.83-9a41.62,41.62,0,0,0,4.35-8.92c1.55-5.82-4.54-.19-5.89,1.55C159.29,59.83,153.3,79.52,148.85,98c-.29,1.46-.58,3-.87,4.47a1.75,1.75,0,0,1-2,1.35,1.79,1.79,0,0,1-1.35-1.94c1.45-11,3-22.11,4.54-33.17s3.29-22.12,5.13-33.17a1.66,1.66,0,1,1,3.28.48c-2.12,13.1-4.06,26.19-5.89,39.38,4.93-14.26,12-28.52,20.69-35.89a6.6,6.6,0,0,1,3.77-1.55,3.42,3.42,0,0,1,3.67,3.3c-.09,2.62-1.35,4.85-2.51,7-.39.68-.77,1.26-1.16,1.85,7.35-4,15.57-6.5,20.79-4.56A.57.57,0,1,1,196.52,46.54Zm-24.75,6.79c-3.87,2.53-7.64,5.44-9.77,8.64-.09.19-.19.48,0,.68.78.68,2.23-.68,2.9-1.17A48.8,48.8,0,0,0,171.77,53.33Z"/><path class="cls-2" d="M228.91,47.71c-2.8,2.13-9.57,7.08-13,5.91-4.16-1.84-2.22-8.34-1.74-11.73.19-.87.39-1.75.48-2.52a1.38,1.38,0,0,0-2-1.46c-5.41,3.2-14.79,20.18-15.66,32.59a1.73,1.73,0,0,1-3.39-.38A127.31,127.31,0,0,1,199.23,34a1.75,1.75,0,0,1,3.29,1.17,124.62,124.62,0,0,0-5,24.63c1.93-5.33,8.12-18.33,12.57-22.5,4.25-4.08,8.89-3.69,7.15,3-.48,3-4.15,10.47-.77,12.22,3.58,1,11.12-4.17,13.44-6.89.1-.19.39-.19.58-.1C231.24,46.25,229.2,47.32,228.91,47.71Z"/><path class="cls-2" d="M274.75,46.45c-4.06,3-8.9,4.75-13.73,6.11a70.24,70.24,0,0,1-8.9,1.84c-3.48,7.47-9.67,14.16-14.6,14.55-5.9.39-6.57-7.27-5.61-11.54a15.37,15.37,0,0,1,1.74-4.85A6.78,6.78,0,0,1,232,51.3c-3.1-2.91-2.32-8,.39-11,4.44-5.05,12.95-7.86,19-4.08,4.83,3.11,4.06,10.67.87,17.66,8.6-1.26,17.4-4.76,21.56-8.44C274.56,44.9,275.43,46,274.75,46.45Zm-40.52,5.24a10.27,10.27,0,0,1,2.52-2.53,8,8,0,0,1,5.12-1.45,1.7,1.7,0,0,1-.29,3.39,5.36,5.36,0,0,0-4.25,2.23,28.73,28.73,0,0,0,11.12,1.07c2.51-4.56,4.16-9.6,3.09-13.19a4.77,4.77,0,0,0-1.74-2.43c-3.48-2.61-8.89-1.35-12.57.78C232.88,41.89,229.88,47.9,234.23,51.69Zm13.93,3.2a40.65,40.65,0,0,1-10.25-.68c-.29-.1-.68-.2-1-.29a13.5,13.5,0,0,0-1.55,9.7c.29.87.58,1.74,1.55,1.84a6.75,6.75,0,0,0,4.16-1.84A30,30,0,0,0,248.16,54.89Z"/></g><path class="cls-3" d="M459.51,0H793.07a33.11,33.11,0,0,1,33.11,33.11V87.16a0,0,0,0,1,0,0H427.46a0,0,0,0,1,0,0V32A32,32,0,0,1,459.51,0Z"/><g id="ref"><path class="cls-2" d="M622.15,47.71c-2.8,2.13-9.57,7.08-13,5.91-4.16-1.84-2.23-8.34-1.75-11.73.2-.87.39-1.75.49-2.52a1.39,1.39,0,0,0-2-1.46c-5.42,3.2-14.8,20.18-15.67,32.59a1.73,1.73,0,0,1-3.38-.38A127.65,127.65,0,0,1,592.46,34a1.75,1.75,0,0,1,3.29,1.17,125.34,125.34,0,0,0-5,24.63c1.94-5.33,8.13-18.33,12.57-22.5,4.26-4.08,8.9-3.69,7.16,3-.48,3-4.16,10.47-.77,12.22,3.57,1,11.12-4.17,13.44-6.89.09-.19.38-.19.58-.1C624.47,46.25,622.44,47.32,622.15,47.71Z"/><path class="cls-2" d="M654.83,46.35A85.69,85.69,0,0,1,642.94,60.9c-3.87,3.59-8.41,7.18-13.92,7.76-10.25.29-11.12-10.38-8.22-17.95,2.22-6,6.28-12.6,12.76-14.45,4.35-1,8.22,1.07,5.71,5.82a19.6,19.6,0,0,1-8.51,8.05,11.43,11.43,0,0,1-7,1.36,1.52,1.52,0,0,1-.58-.19c-2,5.14-2.41,10.57.68,13.67,9.48,7.38,25-12.31,29.88-19.4a.63.63,0,0,1,.87-.19A.74.74,0,0,1,654.83,46.35Zm-30.17,1.84c3.39.29,6.87-1.94,9.38-4.27a11.82,11.82,0,0,0,2.9-4.07.62.62,0,0,0-.48-.77,7.49,7.49,0,0,0-4.74,1C629.31,41.4,626.6,44.51,624.66,48.19Z"/><path class="cls-2" d="M680.55,46.45A133.57,133.57,0,0,0,654.83,49c-.09.58-.19,1.26-.29,1.84,6,10.67,1.94,35.31-.48,45.59a46.18,46.18,0,0,1-1.45,4.76,7.54,7.54,0,0,1-1.16,2.32,2,2,0,0,1-2.71.1c-1.45-1.16-1.64-3.2-1.84-4.85-.48-5.72.2-11.45.68-17.17.68-6.4,1.64-12.8,2.61-19.2.68-3.88,1.35-7.86,2-11.74a4,4,0,0,0-.87-1.36.8.8,0,0,1,.58-1.26h.87c1.74-9.12,3.77-18.24,6.38-27.06.87-2.62,1.84-5.24,4-7.08,1.74-1.46,3.87-.39,4.06,1.93a23.6,23.6,0,0,1-1,6.5,1.7,1.7,0,1,1-3.29-.87,27.51,27.51,0,0,0,1-3.88c-.87-.29-2.32,5-3.19,7.66-1.84,6.12-3.38,12.32-4.74,18.63-.29,1.26-.58,2.62-.87,4,1.36-.09,2.61-.29,4-.38,6.57-.68,14.69-1.36,21.37-1.94C681,45.48,681.13,46.45,680.55,46.45Zm-26.78,8.24c-1.74,9-3.1,18-4,27.16-.29,3.11-.48,6.31-.58,9.51a35.32,35.32,0,0,0,.68,9,81.05,81.05,0,0,0,2.22-9.31,141.08,141.08,0,0,0,2.42-28.52A43.58,43.58,0,0,0,653.77,54.69Z"/></g><path class="cls-4" d="M890.68,0h333.56a33.11,33.11,0,0,1,33.11,33.11V87.16a0,0,0,0,1,0,0H858.63a0,0,0,0,1,0,0V32A32,32,0,0,1,890.68,0Z"/><g id="con"><path class="cls-2" d="M1029.74,46.35c-5.12,8-21.76,29.39-32.59,23.86-10.73-6.4.39-29.19,7.93-34.72a7.43,7.43,0,0,1,5.13-1.85,4.54,4.54,0,0,1,4.06,4.56,11.24,11.24,0,0,1-2.51,6.4,1.69,1.69,0,0,1-2.62-2.13c1.26-1.45,3.58-6.21-.19-5.63-3.29,1.17-5.61,4.37-7.54,7.18a37.09,37.09,0,0,0-6.19,15.62c-.58,4.27.87,9.41,5.9,9.41,4.64-.2,8.7-3.3,12.28-6.11a84.36,84.36,0,0,0,15.37-17.27C1029.16,45.09,1030.22,45.67,1029.74,46.35Z"/><path class="cls-2" d="M1119.86,46.25a84.3,84.3,0,0,1-7.54,11.55c-3.1,3.68-7.74,9.11-13.15,8.53-5-.48-5.71-6.5-6.19-10.47-.29-2.53-.29-8.54-3.58-8.83-4.64-.2-12.76,14.16-16.05,17.85-1.16,1.26-2,2.62-3.68,3.39a2.23,2.23,0,0,1-2.9-1.06,5.69,5.69,0,0,1-.09-4c1.16-3.88,3.19-7.47,4.83-11.16,1.26-2.52,4.93-10.28,4.06-14-2.12-8.15-20.21-3.21-33.36,2a5.1,5.1,0,0,1-.58.78c-.09.19-.19.29-.29.48,2.71-.48,5.42-.38,7.74,1.17,5.41,3.78,2.9,11.54.29,16.2-2.52,4.26-5.8,8.24-10.25,10.47-3.68,1.84-7.83.88-9.77-3-1.45-3.3-.48-7,.68-10.19a34.83,34.83,0,0,1,1.84-4.46c1.16-2.52,2.51-4.85,3.86-7.18l-2.7.87c-.78.29-2.61.88-3.39,1.17-.48.09-.87.38-1.45.19a.77.77,0,0,1-.48-.58,1.29,1.29,0,0,1,.77-1.07,36.48,36.48,0,0,1,3.77-1.94c1.94-.87,3.87-1.74,5.81-2.52a16.11,16.11,0,0,0,.87-1.36,34.89,34.89,0,0,0,1.74-3.2,1.74,1.74,0,0,1,3.19-1c.58,1,.09,1.94-.29,2.81a3.16,3.16,0,0,1-.49.78c.78-.29,1.55-.48,2.32-.78,6.48-2.13,27.76-9.4,30.66.2,1.06,3.59-2,11.44-3.19,14.65a81.86,81.86,0,0,0-3.49,11.15,5.49,5.49,0,0,0-.09,1.16c.58-.58,1.16-1.26,1.74-1.94,1.16-1.45,2.9-3.88,4.06-5.43,3.09-4,7.54-10.57,12.18-12.61a5.66,5.66,0,0,1,4.35.29c3.29,2.14,3.1,7,3.58,10.38.29,2.72.29,6.89,2.9,8.34a5.85,5.85,0,0,0,5.61-.67c6.58-4.08,10.93-11.26,14.89-17.76A.72.72,0,0,1,1119.86,46.25Zm-79.68-3a105,105,0,0,0-5.7,9.7c-.68,1.35-1.26,2.71-1.84,4.07-1.26,3.4-2.61,8.92,1.74,10.48,3.87.87,8.12-3.3,10.54-6,2.71-3.49,5.22-7.56,5.51-12,.29-4-2.51-6.59-6.28-6.69A18.58,18.58,0,0,0,1040.18,43.25Zm-3.19-.88a1.34,1.34,0,0,1-.58.2c.19,0,.29-.1.48-.1C1036.89,42.37,1036.89,42.37,1037,42.37Z"/></g></g></g></svg>