<svg xmlns="http://www.w3.org/2000/svg" xmlns:xlink="http://www.w3.org/1999/xlink" viewBox="0 0 235 57"><defs><style>.cls-1{fill:url(#_ÂÁ_Ï_ÌÌ_È_ËÂÌÚ_5);}.cls-2{isolation:isolate;}.cls-3{fill:url(#linear-gradient);}.cls-4{mix-blend-mode:multiply;}.cls-5{clip-path:url(#clip-path);}.cls-6{fill:url(#_ÂÁ_Ï_ÌÌ_È_ËÂÌÚ_15);}.cls-7{fill:url(#_ÂÁ_Ï_ÌÌ_È_ËÂÌÚ_15-2);}.cls-8{fill:url(#_ÂÁ_Ï_ÌÌ_È_ËÂÌÚ_14);}.cls-9{fill:#fffff8;}.cls-10{fill:#003970;}.cls-11{fill:#fffff7;}</style><linearGradient id="_ÂÁ_Ï_ÌÌ_È_ËÂÌÚ_5" y1="25" x2="230" y2="25" gradientUnits="userSpaceOnUse"><stop offset="0" stop-color="#db8810"/><stop offset="1" stop-color="#e22d18"/></linearGradient><linearGradient id="linear-gradient" y1="25" x2="230" y2="25" gradientUnits="userSpaceOnUse"><stop offset="0" stop-color="#44ade2"/><stop offset="1" stop-color="#003970"/></linearGradient><clipPath id="clip-path" transform="translate(2.5)"><path id="Mask" class="cls-1" d="M205,0H25a25,25,0,0,0,0,50H205a25,25,0,0,0,0-50Z"/></clipPath><radialGradient id="_ÂÁ_Ï_ÌÌ_È_ËÂÌÚ_15" cx="29.34" cy="-70.09" r="25" gradientTransform="translate(-4.45 108.4) scale(1.02 1.14)" gradientUnits="userSpaceOnUse"><stop offset="0.75" stop-color="#fff"/><stop offset="0.79" stop-color="#fefdfc"/><stop offset="0.83" stop-color="#fcf7f2"/><stop offset="0.86" stop-color="#f9ede1"/><stop offset="0.89" stop-color="#f3dfc9"/><stop offset="0.92" stop-color="#edcdaa"/><stop offset="0.95" stop-color="#e5b784"/><stop offset="0.98" stop-color="#db9d59"/><stop offset="1" stop-color="#d48936"/></radialGradient><radialGradient id="_ÂÁ_Ï_ÌÌ_È_ËÂÌÚ_15-2" cx="208.61" cy="-70.09" r="25" xlink:href="#_ÂÁ_Ï_ÌÌ_È_ËÂÌÚ_15"/><linearGradient id="_ÂÁ_Ï_ÌÌ_È_ËÂÌÚ_14" x1="117.5" y1="57" x2="117.5" gradientUnits="userSpaceOnUse"><stop offset="0.88" stop-color="#fff"/><stop offset="0.9" stop-color="#fefdfc"/><stop offset="0.92" stop-color="#fcf7f2"/><stop offset="0.93" stop-color="#f9ede1"/><stop offset="0.95" stop-color="#f3dfc9"/><stop offset="0.96" stop-color="#edcdaa"/><stop offset="0.98" stop-color="#e5b784"/><stop offset="0.99" stop-color="#db9d59"/><stop offset="1" stop-color="#d48936"/></linearGradient></defs><g class="cls-2"><g id="Layer_2" data-name="Layer 2"><g id="the_advantages" data-name="the advantages"><g id="basic_button_hover" data-name="basic button hover"><path id="BG" class="cls-3" d="M205,0H25a25,25,0,0,0,0,50H205a25,25,0,0,0,0-50Z" transform="translate(2.5)"/><g id="Shadow" class="cls-4"><path id="Mask-2" data-name="Mask" class="cls-1" d="M205,0H25a25,25,0,0,0,0,50H205a25,25,0,0,0,0-50Z" transform="translate(2.5)"/><g class="cls-5"><g id="Shadow-2" data-name="Shadow"><rect class="cls-6" width="51.25" height="57"/><rect class="cls-7" x="183.75" width="51.25" height="57"/><rect class="cls-8" x="25.63" width="183.75" height="57"/></g></g></g><g id="eye"><ellipse class="cls-9" cx="205.03" cy="24.9" rx="15" ry="14.79"/><path class="cls-10" d="M203,20.87A4.15,4.15,0,1,0,207.16,25,4.15,4.15,0,0,0,203,20.87Z" transform="translate(2.5)"/><path class="cls-10" d="M203,16.72c-6.92,0-12.45,8.3-12.45,8.3s5.53,8.29,12.45,8.29S215.46,25,215.46,25,209.93,16.72,203,16.72Zm0,13.83c-3.52,0-7-3.23-9-5.53,1.95-2.31,5.45-5.54,9-5.54s7,3.23,9,5.54C210,27.33,206.53,30.55,203,30.55Z" transform="translate(2.5)"/></g></g><g id="basic_button" data-name="basic button"><g id="scoreboard_label" data-name="scoreboard label"><path class="cls-11" d="M66.59,28.55a7.38,7.38,0,0,0,3.16.76c1.11,0,1.65-.38,1.65-1s-.54-.94-1.91-1.41c-2-.72-3.4-1.85-3.4-3.65,0-2.15,1.8-3.8,4.86-3.8a7.88,7.88,0,0,1,3.3.63l-.69,2.59a6.37,6.37,0,0,0-2.64-.58c-1,0-1.53.36-1.53.9s.64.87,2.17,1.44c2.18.8,3.17,2,3.17,3.66,0,2.09-1.64,3.87-5.18,3.87A8.64,8.64,0,0,1,66,31.23Z" transform="translate(2.5)"/><path class="cls-11" d="M85.57,31.48a8.2,8.2,0,0,1-3.06.49C78,32,76,29.14,76,25.92c0-4.28,3.13-6.46,6.75-6.46a7.34,7.34,0,0,1,3,.54l-.63,2.55a6.05,6.05,0,0,0-2.25-.43,3.28,3.28,0,0,0-3.5,3.58,3.29,3.29,0,0,0,3.55,3.59,6.7,6.7,0,0,0,2.18-.36Z" transform="translate(2.5)"/><path class="cls-11" d="M98.13,25.6c0,3.9-2.34,6.39-6.08,6.39s-5.84-2.83-5.84-6.2,2.33-6.33,6-6.33C96.15,19.46,98.13,22.36,98.13,25.6Zm-8.48.14c0,2.27,1,3.67,2.56,3.67s2.48-1.53,2.48-3.71S93.76,22,92.19,22,89.65,23.51,89.65,25.74Z" transform="translate(2.5)"/><path class="cls-11" d="M99.86,19.82a25.83,25.83,0,0,1,3.92-.26,6.84,6.84,0,0,1,4.11.94,3.15,3.15,0,0,1,1.2,2.65A3.22,3.22,0,0,1,107,26.08v.07a3,3,0,0,1,1.54,2.17c.38,1.24.78,3,1,3.47h-3.33a16.91,16.91,0,0,1-.84-2.79c-.33-1.46-.78-1.77-1.79-1.77h-.52v4.56H99.86Zm3.22,5.09h.85c1.22,0,1.92-.61,1.92-1.51S105.26,22,104.18,22a6.29,6.29,0,0,0-1.1.07Z" transform="translate(2.5)"/><path class="cls-11" d="M118.58,26.89h-4.36v2.24h4.88v2.66H111V19.65h7.89V22.3h-4.63v2h4.36Z" transform="translate(2.5)"/><path class="cls-11" d="M120.9,19.82a26.68,26.68,0,0,1,3.83-.26,7.71,7.71,0,0,1,3.71.6,2.67,2.67,0,0,1-.34,5v0a3,3,0,0,1,2.38,3,3.27,3.27,0,0,1-1.35,2.65c-.92.68-2.43,1.08-5,1.08a20.75,20.75,0,0,1-3.2-.2Zm3.22,4.5h.65c1.39,0,2-.49,2-1.26s-.54-1.17-1.64-1.17a5.87,5.87,0,0,0-1.06.07Zm0,5.18a6.08,6.08,0,0,0,.94,0c1.08,0,2-.43,2-1.49s-.94-1.43-2.16-1.43h-.78Z" transform="translate(2.5)"/><path class="cls-11" d="M143.67,25.6c0,3.9-2.34,6.39-6.08,6.39s-5.84-2.83-5.84-6.2,2.33-6.33,6-6.33C141.69,19.46,143.67,22.36,143.67,25.6Zm-8.48.14c0,2.27,1,3.67,2.56,3.67s2.48-1.53,2.48-3.71S139.3,22,137.73,22,135.19,23.51,135.19,25.74Z" transform="translate(2.5)"/><path class="cls-11" d="M148.3,29l-.69,2.81h-3.36l3.52-12.14h4.33l3.62,12.14H152.2L151.43,29ZM151,26.57l-.56-2.18c-.18-.68-.41-1.67-.59-2.39h0c-.18.72-.36,1.72-.54,2.41l-.52,2.16Z" transform="translate(2.5)"/><path class="cls-11" d="M157.26,19.82a25.83,25.83,0,0,1,3.92-.26,6.84,6.84,0,0,1,4.11.94,3.16,3.16,0,0,1,1.21,2.65,3.23,3.23,0,0,1-2.09,2.93v.07A3,3,0,0,1,166,28.32c.37,1.24.77,3,1,3.47h-3.33a16.91,16.91,0,0,1-.84-2.79c-.33-1.46-.78-1.77-1.79-1.77h-.52v4.56h-3.22Zm3.22,5.09h.85c1.22,0,1.93-.61,1.93-1.51s-.6-1.42-1.68-1.44a6.29,6.29,0,0,0-1.1.07Z" transform="translate(2.5)"/><path class="cls-11" d="M168.37,19.82a25.42,25.42,0,0,1,3.87-.26,8.24,8.24,0,0,1,5,1.21,5.3,5.3,0,0,1,2.2,4.67,6,6,0,0,1-2.12,5,9.2,9.2,0,0,1-5.69,1.5,20,20,0,0,1-3.24-.2Zm3.25,9.54a3.72,3.72,0,0,0,.69,0c2.11,0,3.65-1.14,3.65-3.88a3.12,3.12,0,0,0-3.35-3.47,5.61,5.61,0,0,0-1,.07Z" transform="translate(2.5)"/></g></g></g></g></g></svg>