<svg xmlns="http://www.w3.org/2000/svg" viewBox="0 0 230 50"><defs><style>.cls-1{fill:none;stroke:#003970;stroke-miterlimit:10;stroke-width:4px;}.cls-2{fill:#003970;}</style></defs><g id="Layer_2" data-name="Layer 2"><g id="buttons_for_options" data-name="buttons for options"><g id="basic_link_hover" data-name="basic link hover"><path id="outline" class="cls-1" d="M25,48A23,23,0,0,1,25,2H205a23,23,0,0,1,0,46Z"/><path class="cls-2" d="M217.89,24.84a15,15,0,1,0-15,14.8A14.9,14.9,0,0,0,217.89,24.84Zm-16.37,6.9a1.75,1.75,0,0,1,0-2.5l2.61-2.55h-6.92a1.8,1.8,0,0,1-1.82-1.79v-.12A1.8,1.8,0,0,1,197.21,23h6.9l-2.59-2.53a1.74,1.74,0,0,1,0-2.49,1.83,1.83,0,0,1,2.55,0l5.77,5.64a1.74,1.74,0,0,1,0,2.49l-5.77,5.64A1.83,1.83,0,0,1,201.52,31.74Z"/><g id="start_again_label" data-name="start again label"><path class="cls-2" d="M65.09,29.16a7.34,7.34,0,0,0,3.15.75c1.12,0,1.66-.37,1.66-1S69.36,28,68,27.52c-2-.72-3.4-1.86-3.4-3.66,0-2.14,1.8-3.8,4.86-3.8a7.65,7.65,0,0,1,3.29.64l-.68,2.59a6.23,6.23,0,0,0-2.65-.58c-1,0-1.53.36-1.53.9s.65.87,2.18,1.44c2.18.79,3.17,2,3.17,3.66,0,2.09-1.64,3.87-5.19,3.87a8.55,8.55,0,0,1-3.56-.74Z"/><path class="cls-2" d="M77.33,23h-3.1V20.26h9.51V23H80.59V32.4H77.33Z"/><path class="cls-2" d="M87.16,29.59l-.69,2.81H83.11l3.53-12.14H91L94.58,32.4H91.06l-.77-2.81Zm2.68-2.41L89.28,25c-.18-.69-.41-1.68-.59-2.4h0c-.18.72-.36,1.73-.54,2.42l-.52,2.16Z"/><path class="cls-2" d="M96.12,20.42a27.62,27.62,0,0,1,3.93-.25,6.75,6.75,0,0,1,4.1.94,3.12,3.12,0,0,1,1.21,2.65,3.23,3.23,0,0,1-2.09,2.93v.07a3,3,0,0,1,1.55,2.16c.38,1.25.77,3,1,3.48H102.5a16.55,16.55,0,0,1-.85-2.79c-.32-1.46-.77-1.77-1.78-1.77h-.53V32.4H96.12Zm3.22,5.1h.85c1.23,0,1.93-.61,1.93-1.51s-.6-1.42-1.68-1.44a5.46,5.46,0,0,0-1.1.07Z"/><path class="cls-2" d="M109.53,23h-3.09V20.26h9.5V23h-3.15V32.4h-3.26Z"/><path class="cls-2" d="M124.18,29.59l-.68,2.81h-3.37l3.53-12.14H128L131.6,32.4h-3.51l-.77-2.81Zm2.69-2.41L126.31,25c-.18-.69-.42-1.68-.6-2.4h0c-.18.72-.36,1.73-.54,2.42l-.52,2.16Z"/><path class="cls-2" d="M143.14,31.82a14.17,14.17,0,0,1-4.18.7,7.09,7.09,0,0,1-5.11-1.63,5.94,5.94,0,0,1-1.73-4.4c0-4.21,3.15-6.35,7.09-6.35a8.72,8.72,0,0,1,3.52.59l-.65,2.59a7.12,7.12,0,0,0-2.88-.5c-2,0-3.66,1-3.66,3.51A3.3,3.3,0,0,0,139,29.91a4.27,4.27,0,0,0,1-.1V27.72h-1.62V25.2h4.75Z"/><path class="cls-2" d="M148.36,29.59l-.69,2.81h-3.36l3.53-12.14h4.32l3.62,12.14h-3.52l-.77-2.81ZM151,27.18,150.48,25c-.18-.69-.41-1.68-.59-2.4h0c-.18.72-.36,1.73-.54,2.42l-.52,2.16Z"/><path class="cls-2" d="M160.58,20.26V32.4h-3.26V20.26Z"/><path class="cls-2" d="M162.81,32.4V20.26h3.84L168.57,24a35.38,35.38,0,0,1,1.91,4.25h.05a45.9,45.9,0,0,1-.25-5.11V20.26h3V32.4h-3.42l-2.05-4a44.71,44.71,0,0,1-2.05-4.4h-.06c.07,1.64.11,3.48.11,5.44v3Z"/></g></g></g></g></svg>