<svg xmlns="http://www.w3.org/2000/svg" xmlns:xlink="http://www.w3.org/1999/xlink" viewBox="0 0 235 57"><defs><style>.cls-1{fill:url(#_ÂÁ_Ï_ÌÌ_È_ËÂÌÚ_5);}.cls-2{isolation:isolate;}.cls-3{mix-blend-mode:multiply;}.cls-4{clip-path:url(#clip-path);}.cls-5{fill:url(#_ÂÁ_Ï_ÌÌ_È_ËÂÌÚ_15);}.cls-6{fill:url(#_ÂÁ_Ï_ÌÌ_È_ËÂÌÚ_15-2);}.cls-7{fill:url(#_ÂÁ_Ï_ÌÌ_È_ËÂÌÚ_14);}.cls-8{fill:#f1f1f1;}.cls-9{fill:#fffff7;}</style><linearGradient id="_ÂÁ_Ï_ÌÌ_È_ËÂÌÚ_5" y1="25" x2="230" y2="25" gradientUnits="userSpaceOnUse"><stop offset="0" stop-color="#db8810"/><stop offset="1" stop-color="#e22d18"/></linearGradient><clipPath id="clip-path" transform="translate(2.5)"><path id="Mask" class="cls-1" d="M205,0H25a25,25,0,0,0,0,50H205a25,25,0,0,0,0-50Z"/></clipPath><radialGradient id="_ÂÁ_Ï_ÌÌ_È_ËÂÌÚ_15" cx="29.34" cy="-70.09" r="25" gradientTransform="translate(-4.45 108.4) scale(1.02 1.14)" gradientUnits="userSpaceOnUse"><stop offset="0.75" stop-color="#fff"/><stop offset="0.79" stop-color="#fefdfc"/><stop offset="0.83" stop-color="#fcf7f2"/><stop offset="0.86" stop-color="#f9ede1"/><stop offset="0.89" stop-color="#f3dfc9"/><stop offset="0.92" stop-color="#edcdaa"/><stop offset="0.95" stop-color="#e5b784"/><stop offset="0.98" stop-color="#db9d59"/><stop offset="1" stop-color="#d48936"/></radialGradient><radialGradient id="_ÂÁ_Ï_ÌÌ_È_ËÂÌÚ_15-2" cx="208.61" cy="-70.09" r="25" xlink:href="#_ÂÁ_Ï_ÌÌ_È_ËÂÌÚ_15"/><linearGradient id="_ÂÁ_Ï_ÌÌ_È_ËÂÌÚ_14" x1="117.5" y1="57" x2="117.5" gradientUnits="userSpaceOnUse"><stop offset="0.88" stop-color="#fff"/><stop offset="0.9" stop-color="#fefdfc"/><stop offset="0.92" stop-color="#fcf7f2"/><stop offset="0.93" stop-color="#f9ede1"/><stop offset="0.95" stop-color="#f3dfc9"/><stop offset="0.96" stop-color="#edcdaa"/><stop offset="0.98" stop-color="#e5b784"/><stop offset="0.99" stop-color="#db9d59"/><stop offset="1" stop-color="#d48936"/></linearGradient></defs><g class="cls-2"><g id="Layer_2" data-name="Layer 2"><g id="the_advantages" data-name="the advantages"><g id="basic_button" data-name="basic button"><path id="BG" class="cls-1" d="M205,0H25a25,25,0,0,0,0,50H205a25,25,0,0,0,0-50Z" transform="translate(2.5)"/><g id="Shadow" class="cls-3"><path id="Mask-2" data-name="Mask" class="cls-1" d="M205,0H25a25,25,0,0,0,0,50H205a25,25,0,0,0,0-50Z" transform="translate(2.5)"/><g class="cls-4"><g id="Shadow-2" data-name="Shadow"><rect class="cls-5" width="51.25" height="57"/><rect class="cls-6" x="183.75" width="51.25" height="57"/><rect class="cls-7" x="25.63" width="183.75" height="57"/></g></g></g><path id="arrow" class="cls-8" d="M218,25.5a15,15,0,1,0-15,14.79A14.9,14.9,0,0,0,218,25.5Zm-16.37,6.89a1.74,1.74,0,0,1,0-2.49l2.61-2.55h-6.92a1.8,1.8,0,0,1-1.82-1.79v-.12a1.8,1.8,0,0,1,1.82-1.79h6.9l-2.59-2.53a1.74,1.74,0,0,1,0-2.49,1.83,1.83,0,0,1,2.55,0L210,24.27a1.74,1.74,0,0,1,0,2.49l-5.77,5.63A1.83,1.83,0,0,1,201.63,32.39Z" transform="translate(2.5)"/><g id="submit_dobbles_label" data-name="submit dobbles label"><path class="cls-9" d="M34.3,28.55a7.37,7.37,0,0,0,3.15.76c1.12,0,1.66-.38,1.66-1s-.54-.94-1.91-1.41c-2.05-.72-3.4-1.85-3.4-3.65,0-2.15,1.8-3.8,4.86-3.8a7.82,7.82,0,0,1,3.29.63l-.68,2.59a6.38,6.38,0,0,0-2.65-.58c-1,0-1.53.36-1.53.9s.65.87,2.18,1.44c2.18.8,3.17,2,3.17,3.66,0,2.09-1.64,3.87-5.18,3.87a8.6,8.6,0,0,1-3.57-.74Z" transform="translate(2.5)"/><path class="cls-9" d="M47.43,19.65v6.88c0,1.84.62,2.88,1.9,2.88s1.93-.95,1.93-2.88V19.65h3.26v6.7c0,3.75-1.87,5.64-5.28,5.64s-5.07-1.82-5.07-5.73V19.65Z" transform="translate(2.5)"/><path class="cls-9" d="M56.73,19.82a26.68,26.68,0,0,1,3.83-.26,7.71,7.71,0,0,1,3.71.6,2.67,2.67,0,0,1-.34,5v0a3,3,0,0,1,2.38,3A3.27,3.27,0,0,1,65,30.84c-.92.68-2.43,1.08-5,1.08a20.75,20.75,0,0,1-3.2-.2ZM60,24.32h.65c1.39,0,2-.49,2-1.26s-.54-1.17-1.64-1.17A5.87,5.87,0,0,0,60,22Zm0,5.18a6.08,6.08,0,0,0,.94,0c1.08,0,2-.43,2-1.49s-.94-1.43-2.16-1.43H60Z" transform="translate(2.5)"/><path class="cls-9" d="M78.35,27.45c0-1.39-.07-3,0-4.9h-.06c-.37,1.61-.88,3.43-1.27,4.76l-1.21,4.23H73.22l-1-4.22c-.3-1.31-.68-3.11-1-4.77h0c-.07,1.71-.14,3.51-.19,4.9l-.18,4.34h-3l.73-12.14H73l.81,3.26c.32,1.35.68,3,.94,4.45h.07c.34-1.47.74-3.19,1.1-4.46l.9-3.25h4.28l.61,12.14H78.5Z" transform="translate(2.5)"/><path class="cls-9" d="M86.92,19.65V31.79H83.66V19.65Z" transform="translate(2.5)"/><path class="cls-9" d="M91.51,22.37h-3.1V19.65h9.51v2.72H94.77v9.42H91.51Z" transform="translate(2.5)"/><path class="cls-9" d="M103,19.82a25.52,25.52,0,0,1,3.87-.26,8.28,8.28,0,0,1,5,1.21,5.33,5.33,0,0,1,2.2,4.67,6,6,0,0,1-2.13,5,9.16,9.16,0,0,1-5.69,1.5,20.1,20.1,0,0,1-3.24-.2Zm3.26,9.54a3.61,3.61,0,0,0,.68,0c2.11,0,3.66-1.14,3.66-3.88a3.12,3.12,0,0,0-3.35-3.47,5.52,5.52,0,0,0-1,.07Z" transform="translate(2.5)"/><path class="cls-9" d="M127.17,25.6c0,3.9-2.34,6.39-6.09,6.39s-5.83-2.83-5.83-6.2,2.32-6.33,6-6.33C125.19,19.46,127.17,22.36,127.17,25.6Zm-8.48.14c0,2.27,1,3.67,2.55,3.67s2.49-1.53,2.49-3.71S122.79,22,121.22,22,118.69,23.51,118.69,25.74Z" transform="translate(2.5)"/><path class="cls-9" d="M128.89,19.82a26.73,26.73,0,0,1,3.84-.26,7.69,7.69,0,0,1,3.7.6,2.67,2.67,0,0,1-.34,5v0a3,3,0,0,1,2.38,3,3.27,3.27,0,0,1-1.35,2.65c-.92.68-2.43,1.08-5,1.08a20.81,20.81,0,0,1-3.21-.2Zm3.22,4.5h.65c1.39,0,2.05-.49,2.05-1.26s-.54-1.17-1.63-1.17a6,6,0,0,0-1.07.07Zm0,5.18a6.15,6.15,0,0,0,.94,0c1.08,0,2-.43,2-1.49s-.94-1.43-2.16-1.43h-.78Z" transform="translate(2.5)"/><path class="cls-9" d="M140.25,19.82a26.68,26.68,0,0,1,3.83-.26,7.71,7.71,0,0,1,3.71.6,2.67,2.67,0,0,1-.34,5v0a3,3,0,0,1,2.38,3,3.27,3.27,0,0,1-1.35,2.65c-.92.68-2.43,1.08-5,1.08a20.75,20.75,0,0,1-3.2-.2Zm3.22,4.5h.65c1.39,0,2-.49,2-1.26s-.54-1.17-1.64-1.17a5.87,5.87,0,0,0-1.06.07Zm0,5.18a6.08,6.08,0,0,0,.94,0c1.08,0,2-.43,2-1.49s-.94-1.43-2.16-1.43h-.78Z" transform="translate(2.5)"/><path class="cls-9" d="M151.61,19.65h3.26v9.42h4.66v2.72h-7.92Z" transform="translate(2.5)"/><path class="cls-9" d="M168.73,26.89h-4.36v2.24h4.88v2.66h-8.14V19.65H169V22.3h-4.63v2h4.36Z" transform="translate(2.5)"/><path class="cls-9" d="M171.26,28.55a7.37,7.37,0,0,0,3.15.76c1.12,0,1.66-.38,1.66-1s-.54-.94-1.91-1.41c-2-.72-3.4-1.85-3.4-3.65,0-2.15,1.8-3.8,4.86-3.8a7.88,7.88,0,0,1,3.3.63l-.69,2.59a6.38,6.38,0,0,0-2.65-.58c-1,0-1.53.36-1.53.9s.65.87,2.18,1.44c2.18.8,3.17,2,3.17,3.66,0,2.09-1.64,3.87-5.18,3.87a8.64,8.64,0,0,1-3.57-.74Z" transform="translate(2.5)"/></g></g></g></g></g></svg>