<svg xmlns="http://www.w3.org/2000/svg" xmlns:xlink="http://www.w3.org/1999/xlink" viewBox="0 0 235 57"><defs><style>.cls-1{fill:url(#_ÂÁ_Ï_ÌÌ_È_ËÂÌÚ_5);}.cls-2{isolation:isolate;}.cls-3{fill:url(#linear-gradient);}.cls-4{mix-blend-mode:multiply;}.cls-5{clip-path:url(#clip-path);}.cls-6{fill:url(#_ÂÁ_Ï_ÌÌ_È_ËÂÌÚ_15);}.cls-7{fill:url(#_ÂÁ_Ï_ÌÌ_È_ËÂÌÚ_15-2);}.cls-8{fill:url(#_ÂÁ_Ï_ÌÌ_È_ËÂÌÚ_14);}.cls-9{fill:#f1f1f1;}</style><linearGradient id="_ÂÁ_Ï_ÌÌ_È_ËÂÌÚ_5" y1="25" x2="230" y2="25" gradientUnits="userSpaceOnUse"><stop offset="0" stop-color="#db8810"/><stop offset="1" stop-color="#e22d18"/></linearGradient><linearGradient id="linear-gradient" y1="25" x2="230" y2="25" gradientUnits="userSpaceOnUse"><stop offset="0" stop-color="#44ade2"/><stop offset="1" stop-color="#003970"/></linearGradient><clipPath id="clip-path" transform="translate(2.5)"><path id="Mask" class="cls-1" d="M205,0H25a25,25,0,0,0,0,50H205a25,25,0,0,0,0-50Z"/></clipPath><radialGradient id="_ÂÁ_Ï_ÌÌ_È_ËÂÌÚ_15" cx="17.65" cy="-104.96" r="25" gradientTransform="translate(7.53 148.16) scale(1.02 1.14)" gradientUnits="userSpaceOnUse"><stop offset="0.75" stop-color="#fff"/><stop offset="0.79" stop-color="#fefdfc"/><stop offset="0.83" stop-color="#fcf7f2"/><stop offset="0.86" stop-color="#f9ede1"/><stop offset="0.89" stop-color="#f3dfc9"/><stop offset="0.92" stop-color="#edcdaa"/><stop offset="0.95" stop-color="#e5b784"/><stop offset="0.98" stop-color="#db9d59"/><stop offset="1" stop-color="#d48936"/></radialGradient><radialGradient id="_ÂÁ_Ï_ÌÌ_È_ËÂÌÚ_15-2" cx="196.92" cy="-104.96" r="25" xlink:href="#_ÂÁ_Ï_ÌÌ_È_ËÂÌÚ_15"/><linearGradient id="_ÂÁ_Ï_ÌÌ_È_ËÂÌÚ_14" x1="117.5" y1="57" x2="117.5" gradientUnits="userSpaceOnUse"><stop offset="0.88" stop-color="#fff"/><stop offset="0.9" stop-color="#fefdfc"/><stop offset="0.92" stop-color="#fcf7f2"/><stop offset="0.93" stop-color="#f9ede1"/><stop offset="0.95" stop-color="#f3dfc9"/><stop offset="0.96" stop-color="#edcdaa"/><stop offset="0.98" stop-color="#e5b784"/><stop offset="0.99" stop-color="#db9d59"/><stop offset="1" stop-color="#d48936"/></linearGradient></defs><g class="cls-2"><g id="Layer_2" data-name="Layer 2"><g id="choose_your_avatar" data-name="choose your avatar"><g id="submit_hover" data-name="submit hover"><path id="BG" class="cls-3" d="M205,0H25a25,25,0,0,0,0,50H205a25,25,0,0,0,0-50Z" transform="translate(2.5)"/><g id="Shadow" class="cls-4"><path id="Mask-2" data-name="Mask" class="cls-1" d="M205,0H25a25,25,0,0,0,0,50H205a25,25,0,0,0,0-50Z" transform="translate(2.5)"/><g class="cls-5"><g id="Shadow-2" data-name="Shadow"><rect class="cls-6" width="51.25" height="57"/><rect class="cls-7" x="183.75" width="51.25" height="57"/><rect class="cls-8" x="25.63" width="183.75" height="57"/></g></g></g><path class="cls-9" d="M87.19,29.33a7,7,0,0,0,3,.76c1.26,0,1.92-.53,1.92-1.32s-.57-1.19-2-1.71c-2-.7-3.33-1.82-3.33-3.58,0-2.07,1.72-3.66,4.59-3.66a7.46,7.46,0,0,1,3.09.61l-.61,2.22a5.66,5.66,0,0,0-2.54-.58c-1.18,0-1.76.54-1.76,1.17,0,.78.68,1.12,2.25,1.71C94,25.75,95,26.86,95,28.57c0,2-1.57,3.77-4.9,3.77a7.88,7.88,0,0,1-3.43-.74Z" transform="translate(2.5)"/><path class="cls-9" d="M99.56,20v7c0,2.09.79,3.15,2.2,3.15S104,29.15,104,27V20h2.73v6.81c0,3.74-1.88,5.52-5,5.52s-4.87-1.69-4.87-5.56V20Z" transform="translate(2.5)"/><path class="cls-9" d="M109.1,20.18a22.4,22.4,0,0,1,3.55-.25,6.72,6.72,0,0,1,3.58.68A2.64,2.64,0,0,1,117.69,23a2.74,2.74,0,0,1-2,2.59v0a3,3,0,0,1,2.41,3,3.21,3.21,0,0,1-1.26,2.57c-.88.71-2.36,1.1-4.77,1.1a21.2,21.2,0,0,1-3-.18Zm2.72,4.65h.9c1.44,0,2.21-.6,2.21-1.5s-.7-1.4-1.94-1.4a7,7,0,0,0-1.17.07Zm0,5.38a7.75,7.75,0,0,0,1.06,0c1.24,0,2.34-.47,2.34-1.75s-1.1-1.71-2.47-1.71h-.93Z" transform="translate(2.5)"/><path class="cls-9" d="M130.23,27.51c0-1.46-.1-3.22-.1-5h-.06c-.38,1.55-.88,3.28-1.35,4.7L127.24,32H125.1l-1.3-4.7c-.39-1.42-.81-3.15-1.09-4.74h0c-.07,1.64-.13,3.51-.22,5l-.21,4.61H119.7L120.47,20h3.66l1.19,4.05c.38,1.41.75,2.92,1,4.34h.06c.34-1.4.75-3,1.15-4.36l1.3-4h3.58l.67,12.14h-2.69Z" transform="translate(2.5)"/><path class="cls-9" d="M138,20V32.16H135.2V20Z" transform="translate(2.5)"/><path class="cls-9" d="M142.67,22.32h-3.26V20h9.33v2.3h-3.32v9.84h-2.75Z" transform="translate(2.5)"/><path class="cls-9" d="M218,25.5a15,15,0,1,0-15,14.79A14.9,14.9,0,0,0,218,25.5Zm-16.37,6.89a1.74,1.74,0,0,1,0-2.49l2.61-2.55h-6.92a1.8,1.8,0,0,1-1.82-1.79v-.12a1.8,1.8,0,0,1,1.82-1.79h6.9l-2.59-2.53a1.74,1.74,0,0,1,0-2.49,1.83,1.83,0,0,1,2.55,0L210,24.27a1.74,1.74,0,0,1,0,2.49l-5.77,5.63A1.83,1.83,0,0,1,201.63,32.39Z" transform="translate(2.5)"/></g></g></g></g></svg>