<svg xmlns="http://www.w3.org/2000/svg" viewBox="0 0 666.78 118.5"><defs><style>.cls-1{stroke:#000;stroke-miterlimit:10;}</style></defs><g id="Layer_2" data-name="Layer 2"><g id="choose_your_avatar" data-name="choose your avatar"><path class="cls-1" d="M37.65,50.86C32.51,58.92,15.82,80.26,5,74.73c-10.77-6.41.39-29.2,8-34.73a7.43,7.43,0,0,1,5.15-1.84,4.53,4.53,0,0,1,4.07,4.56,11.21,11.21,0,0,1-2.52,6.4A1.69,1.69,0,0,1,17,47c1.26-1.45,3.59-6.2-.2-5.62-3.29,1.16-5.62,4.36-7.56,7.18A36.9,36.9,0,0,0,3,64.15c-.58,4.27.87,9.41,5.92,9.41,4.65-.19,8.73-3.3,12.32-6.11A84.84,84.84,0,0,0,36.68,50.19C37.07,49.6,38.13,50.19,37.65,50.86Z"/><path class="cls-1" d="M76.64,50.77q-3,4.65-6.4,9.31c-2.72,3.39-5.92,8.34-10.18,9.8-3.88,1-5.44-2.82-5.44-5.92-.19-4.75.68-9.41,1.17-14.07A19.49,19.49,0,0,0,56,45.14a.61.61,0,0,0-1.07-.39l-2.23,2.72C47.35,55,43.18,63.38,38.33,71.33c-.88,1.26-2.43,4.75-4.17,4.56-2.91-.48-1.75-5.43-1.56-7.47.59-3.78,1.07-7.47,1.85-11.15,3.2-16.59,7-33.18,13.38-48.89A33.4,33.4,0,0,1,51.71,1.3,1.59,1.59,0,0,1,53.65.62c1.56.58.68,2.91.39,3.78-.58,1.65-2,5.14-1.84,5.53a1.72,1.72,0,0,1-1.55,2.23,2.22,2.22,0,0,1-1.27-.48c-3.29,7.56-5.81,16.49-8.05,24.15C39.39,43,37.65,50.28,36.19,57.56c-.87,4.56-2.33,14.16-1.45,14.35,1.45-2.13,2.62-4.56,4-6.79,4.17-7.37,8.05-15.23,13.58-21.63,1-1.06,2-2.23,3.58-2.23a3.19,3.19,0,0,1,2.72,2.91c.49,4.85-1.36,9.6-2,14.26-.38,2.62-1,5.43-.29,8.05C57.53,71,62,68.13,64.13,65.9c4.56-4.66,8.05-10.28,11.44-15.81a.65.65,0,0,1,.88-.2A.52.52,0,0,1,76.64,50.77Z"/><path class="cls-1" d="M155.79,50.48a.82.82,0,0,1-.68.77,117.94,117.94,0,0,1-16.58.78c-3.3-.1-6.5-.2-9.7-.49,5.53,5.63-.68,16.78-7.76,21.15-4.37,2.81-9.7,3.1-12.61-1.84-1.46-2.72-1.07-6-.2-8.83a46.63,46.63,0,0,1,6-11.54c-1.55-.2-4.37-1.26-5.34-2.82-.58-.87-.29-1.55.59-2.23,1.26-1.16,3.1,1.46,7.08,1.85.77-.88,2.81-4.18,2.81-5.73-.49-6.79-21.92-4.46-26.87-3.78-2.72.19-20.18,3-16.88,7.47,1.94,2.13,5.72,3,8.44,3.88,2,.58,4.17,1.07,5.72,2.42,3.11,2.53,2.82,7,1.46,10.29C89,67.94,80.62,77,73.44,74.24c-9.41-4.56-2-19.11,2.62-24.83a1.72,1.72,0,1,1,2.62,2.23,29.66,29.66,0,0,0-6.79,13.19c-.49,2.43-.29,5.24,1.94,6.7,2.72,1.84,6.21,0,8.63-1.75,4.76-3.2,12.32-13.87,4.85-17.85a23.81,23.81,0,0,0-3.68-1.26,31.48,31.48,0,0,1-7.47-3.1c-3.59-2.23-2.91-5.34.68-7.08a30.58,30.58,0,0,1,7.66-2.62,87.76,87.76,0,0,1,15.91-1.75c4.75,0,20,0,19.88,6.4,0,1.26-1.74,4.37-2.42,5.14,2.91.78,20.95,4.08,37.15,2C155.41,49.7,155.7,50.09,155.79,50.48Zm-28.32,4.46c-1.55-3.3-6.5-3.3-9.7-4-.58-.1-1.26-.19-1.94-.29-3.1,4.95-5.92,10.57-6.11,15.71a5.54,5.54,0,0,0,3.3,5.53c3.49,1.26,7.08-1.55,9.5-3.88C125.53,64.83,129.12,59.3,127.47,54.94Z"/><path class="cls-1" d="M195.08,51.25a11.81,11.81,0,0,0-3.69.68c-8.53,2.81-16.39,7.66-23.57,13a54.87,54.87,0,0,0-7.37,6.5c.78,1.36,1.75,2.71,2.62,4.07,1.55,2.62,4,5.24,4.46,8.44A2.22,2.22,0,0,1,166,86.27c-2.23.78-4.37-.1-6.5-.78-2.23-.87-4.46-2.62-4.66-5.23,0-2.43,1.36-5.15,3.59-7.86A53.34,53.34,0,0,1,154,64.83c-3-6.3-3-13,1.94-18.43a29.34,29.34,0,0,1,16.88-8.92c2.71-.2,4.85,1.55,3.49,4.27-.87,1.55-2.23,2.91-2.62,4.46a1.68,1.68,0,1,1-3.3-.68c.39-1.84,1.56-3.2,2.43-4.75-2.33.09-6,1.74-7.76,2.62-6.31,3.1-11.93,8.82-10.09,16.39a37.69,37.69,0,0,0,5,10.86c7.56-8,21.34-15.91,27.45-18.52,2.52-1.07,5-2.24,7.66-2.33A.73.73,0,1,1,195.08,51.25ZM158.9,73.17c-4.08,5.15-5.43,10.58,4.65,12.13,1,0,2.82,0,2.53-1.36a11.43,11.43,0,0,0-1.94-3.68C162.49,77.83,160.64,75.5,158.9,73.17Z"/><path class="cls-1" d="M226,50.86a85.44,85.44,0,0,1-11.93,14.55c-3.88,3.59-8.44,7.18-14,7.76-10.28.3-11.15-10.37-8.24-17.94,2.23-6,6.3-12.61,12.8-14.45,4.37-1,8.25,1.06,5.72,5.82a19.6,19.6,0,0,1-8.53,8,11.64,11.64,0,0,1-7,1.36,1.39,1.39,0,0,1-.58-.2c-2,5.14-2.42,10.57.68,13.68,9.51,7.37,25.12-12.32,30-19.4a.65.65,0,0,1,.88-.2A.76.76,0,0,1,226,50.86Zm-30.26,1.85c3.39.29,6.88-1.94,9.41-4.27a12.32,12.32,0,0,0,2.91-4.07.65.65,0,0,0-.49-.78,7.53,7.53,0,0,0-4.75,1C200.41,45.92,197.7,49,195.76,52.71Z"/><path class="cls-1" d="M308,50.48a.86.86,0,0,1-.87.87,57.44,57.44,0,0,0-17.36,2.13,183.12,183.12,0,0,1-12.61,42.88c-3.59,7.56-7.76,16.2-15.33,20.37-9.5,4.36-14.35-3.2-14.06-12,.19-10,4.27-19.5,9.6-27.74a60.26,60.26,0,0,1,29.29-23.57c.3-2,.59-4,.88-6a74.61,74.61,0,0,0,.77-8.15c.78-5.91-2.23-4.55-2.91-4a36.76,36.76,0,0,0-2.42,3.1c-4.85,6.89-8.54,14.26-13.48,21.15a25.84,25.84,0,0,1-6,6.5,6,6,0,0,1-7.86,0c-4.07-3.88-2.61-11-1.16-15.81a26.2,26.2,0,0,1,1.84-4.08,1.67,1.67,0,1,1,2.91,1.65c-1.94,4-3.2,8.54-2.62,13,.2,1.65,1.36,3.49,3.21,3.3,1.84-.49,3.1-1.94,4.46-3.4,4.36-5.24,7.76-11.35,11.35-17.17,2.81-4.17,5.53-9.5,9.89-12.41a3.78,3.78,0,0,1,4.46.09c2.91,2.43,1.07,13,.78,16.69-.29,1.45-.49,2.91-.78,4.36a53.65,53.65,0,0,1,8.64-1.94A82.54,82.54,0,0,1,307,49.6,1,1,0,0,1,308,50.48Zm-21.63,4.17a57.12,57.12,0,0,0-32,30.16c-3.2,7.38-5.62,15.82-4.17,23.87.58,3.49,2.91,7.27,7,6.88,8.53-1,14.26-13.29,17.55-20.27A185.07,185.07,0,0,0,286.35,54.65Z"/><path class="cls-1" d="M351.83,51c-4.08,3-8.93,4.75-13.78,6.11a68.86,68.86,0,0,1-8.92,1.85c-3.49,7.46-9.7,14.16-14.65,14.55-5.91.38-6.59-7.28-5.62-11.55a15.37,15.37,0,0,1,1.74-4.85A6.76,6.76,0,0,1,309,55.81c-3.1-2.91-2.32-8.05.39-11,4.46-5,13-7.86,19.11-4.07,4.85,3.1,4.07,10.67.87,17.65C338,57.17,346.78,53.68,351,50,351.63,49.41,352.51,50.48,351.83,51ZM311.18,56.2a10.44,10.44,0,0,1,2.53-2.52,8,8,0,0,1,5.14-1.46,1.71,1.71,0,0,1-.29,3.4,5.37,5.37,0,0,0-4.27,2.23,28.89,28.89,0,0,0,11.15,1.07c2.53-4.56,4.17-9.61,3.11-13.2a4.71,4.71,0,0,0-1.75-2.42c-3.49-2.62-8.92-1.36-12.61.77C309.83,46.4,306.82,52.42,311.18,56.2Zm14,3.2a41,41,0,0,1-10.28-.68c-.29-.1-.68-.19-1-.29a13.45,13.45,0,0,0-1.55,9.7c.29.87.58,1.75,1.55,1.84a6.75,6.75,0,0,0,4.17-1.84C320.21,66.58,323,63.18,325.15,59.4Z"/><path class="cls-1" d="M394.9,50.86A105,105,0,0,1,387.81,61c-2.61,3-5.52,6.5-9.7,7.47-6.2,1-7.76-5.72-7.85-12.22-3.59,7.37-8.93,15.62-14.84,17-3.59.88-6.7-1.64-7.47-5-1.55-7.47,1.74-16.3,5.14-22.89a1.69,1.69,0,0,1,3,1.55c-3,5.82-6.21,14-5,20.47,1.45,5.43,6.5,1.84,8.83-.88a56.28,56.28,0,0,0,7.85-12.31,60,60,0,0,0,3-6.79,1.52,1.52,0,0,1,2.91.87,1,1,0,0,1-.19.48c-1.75,5.34-3.79,19.89,4.36,18.92,6.5-1.55,12.71-11.64,15.71-17.27C394,49.51,395.28,50.09,394.9,50.86Z"/><path class="cls-1" d="M426.61,52.22c-2.81,2.14-9.6,7.08-13.09,5.92-4.17-1.84-2.23-8.34-1.75-11.74.2-.87.39-1.74.49-2.52a1.39,1.39,0,0,0-2-1.45c-5.43,3.2-14.84,20.17-15.71,32.59a1.74,1.74,0,0,1-3.4-.39,126.9,126.9,0,0,1,5.72-36.08,1.75,1.75,0,0,1,3.3,1.16,124.73,124.73,0,0,0-5,24.64C397,59,403.24,46,407.7,41.84c4.27-4.07,8.92-3.68,7.18,3-.49,3-4.18,10.48-.78,12.22,3.59,1,11.16-4.17,13.48-6.88.1-.2.39-.2.58-.1C428.94,50.77,426.9,51.83,426.61,52.22Z"/><path class="cls-1" d="M498.78,50.77a89.29,89.29,0,0,1-5.72,8.53c-3.2,4-12.22,15.91-17.85,12-3.1-2.62-3.1-8.53-2.23-14a91,91,0,0,1-12.42,13.58c-1.94,1.46-4.46,3.4-7.08,2.43a5.33,5.33,0,0,1-2.91-4.17,16.45,16.45,0,0,1,1.17-7.86c2.71-7.37,7.95-16,15-19.79,4.07-2,8.25-.77,10.38,3.3a1.72,1.72,0,0,1-3,1.65c-5.53-10.67-23.08,16.1-19.88,22.89a1.56,1.56,0,0,0,1.84.87C459.79,69,467,59.3,469.58,56.2l2.91-3.78,2.91-3.79a1.72,1.72,0,0,1,2.43-.29,1.66,1.66,0,0,1,.48,2.14,27.46,27.46,0,0,0-2.52,5.91,28.38,28.38,0,0,0-1.16,6.41c-.2,2.42-.29,5.43,1.55,7.17,5.33,3.69,17.27-12.7,19.69-16.87a28.39,28.39,0,0,0,1.55-3A.76.76,0,0,1,498.78,50.77Z"/><path class="cls-1" d="M526.23,40.1c-1,1.16-1.94,2.52-2.81,3.78-4.66,6.4-9,13-13.58,19.5-1.75,2.52-3.69,5.14-5.72,7.56-1.36,1.56-2.62,3.3-4.56,4.17-5.34,1.56-4.85-8.53-4.66-11.73a74.3,74.3,0,0,1,4-18.92c.87-2.13,4.17-.77,3.1,1.36a58.92,58.92,0,0,0-5,17.75c-.29,2.91-.68,6.11.39,8.93.58,1.45,1.35,1.64,2.52.77,3.59-3,6.2-7,8.92-10.67a198.15,198.15,0,0,0,12.32-20.17c.78-1.36,1.55-2.82,2.23-4.18a1.77,1.77,0,0,1,2.33-.77A1.73,1.73,0,0,1,526.23,40.1Z"/><path class="cls-1" d="M567.36,50.77a87.53,87.53,0,0,1-5.73,8.53c-3.2,4-12.22,15.91-17.84,12-3.11-2.62-3.11-8.53-2.23-14a91.57,91.57,0,0,1-12.42,13.58c-1.94,1.46-4.46,3.4-7.08,2.43a5.33,5.33,0,0,1-2.91-4.17,16.57,16.57,0,0,1,1.16-7.86c2.72-7.37,8-16,15-19.79,4.07-2,8.24-.77,10.38,3.3a1.72,1.72,0,0,1-3,1.65c-5.53-10.67-23.09,16.1-19.88,22.89a1.56,1.56,0,0,0,1.84.87c3.68-1.26,10.86-11,13.48-14.06l2.91-3.78L544,48.63a1.72,1.72,0,0,1,2.43-.29,1.66,1.66,0,0,1,.48,2.14,27,27,0,0,0-2.52,5.91,28.38,28.38,0,0,0-1.16,6.41c-.2,2.42-.3,5.43,1.55,7.17,5.33,3.69,17.26-12.7,19.69-16.87a30.39,30.39,0,0,0,1.55-3A.76.76,0,0,1,567.36,50.77Z"/><path class="cls-1" d="M617.22,29.62a.53.53,0,0,1-.49.49c-5.43-.49-10.86-.49-16.39-.49-9,.2-18.14.39-27.26.87-.87,2.62-1.55,5.24-2.33,7.86-2.71,10-4.94,20.27-5.53,30.75-.19,4.66-.48,10.86,2.33,14.74A3.4,3.4,0,0,0,572,85c8.44-4.27,17.66-25.51,20.08-34.73.29-1.06,1.94-.68,1.65.39a129.47,129.47,0,0,1-6.21,14.65c-2.81,5.53-13.38,28-21,19.4-6.59-8.83-.58-36.38,1.94-46.95.59-2.43,1.27-4.75,1.85-7.08-4.85.29-9.8.68-14.65,1.16-.39.1-.68.1-1.07.2a1.65,1.65,0,0,1-1.94,1c-.29-.1-.68-.2-.87-.29a1.88,1.88,0,0,1,.39-3.59,43.83,43.83,0,0,1,7.27-.78c3.88-.19,7.76-.29,11.64-.39,1.26-4.36,2.72-8.73,4.27-13,1-2.52,1.94-4.94,3-7.37a1.78,1.78,0,0,1,2.33-.87,1.66,1.66,0,0,1,.77,2.33,143.54,143.54,0,0,0-7.56,18.82c8.82-.1,17.75,0,26.57.19,5.44.19,10.87.39,16.4,1.07A.44.44,0,0,1,617.22,29.62Z"/><path class="cls-1" d="M633.32,50.77a87.53,87.53,0,0,1-5.73,8.53c-3.2,4-12.22,15.91-17.84,12-3.11-2.62-3.11-8.53-2.24-14A91,91,0,0,1,595.1,70.94c-1.94,1.46-4.46,3.4-7.08,2.43a5.33,5.33,0,0,1-2.91-4.17,16.57,16.57,0,0,1,1.16-7.86c2.72-7.37,8-16,15-19.79,4.07-2,8.24-.77,10.38,3.3a1.72,1.72,0,0,1-3,1.65c-5.53-10.67-23.09,16.1-19.89,22.89a1.58,1.58,0,0,0,1.85.87c3.68-1.26,10.86-11,13.48-14.06L607,52.42l2.91-3.79a1.71,1.71,0,0,1,2.42-.29,1.66,1.66,0,0,1,.49,2.14,27,27,0,0,0-2.52,5.91,29,29,0,0,0-1.17,6.41c-.19,2.42-.29,5.43,1.56,7.17,5.33,3.69,17.26-12.7,19.69-16.87a30.39,30.39,0,0,0,1.55-3A.76.76,0,0,1,633.32,50.77Z"/><path class="cls-1" d="M664.55,52.22c-2.81,2.14-9.6,7.08-13.09,5.92-4.18-1.84-2.24-8.34-1.75-11.74.19-.87.39-1.74.48-2.52a1.38,1.38,0,0,0-2-1.45c-5.43,3.2-14.84,20.17-15.72,32.59a1.73,1.73,0,0,1-3.39-.39,126.9,126.9,0,0,1,5.72-36.08,1.75,1.75,0,0,1,3.3,1.16,124.73,124.73,0,0,0-5,24.64C635,59,641.17,46,645.63,41.84c4.27-4.07,8.93-3.68,7.18,3-.48,3-4.17,10.48-.77,12.22,3.59,1,11.15-4.17,13.48-6.88.1-.2.39-.2.58-.1C666.88,50.77,664.84,51.83,664.55,52.22Z"/></g></g></svg>