<svg xmlns="http://www.w3.org/2000/svg" viewBox="0 0 640.69 111.81"><defs><style>.cls-1{stroke:#000;stroke-miterlimit:10;}</style></defs><g id="Layer_2" data-name="Layer 2"><g id="basic_tutorial" data-name="basic tutorial"><g id="what_is_pre-baked_" data-name="what is pre-baked?"><path class="cls-1" d="M38.15,53.76C36,60.15,32.34,69.35,27.5,74c-1.84,1.84-4.84,1.07-6.29-.87-2.52-3.39-3.49-9.49-3.59-15.2-1.16,2.32-2.32,4.55-3.48,6.87-1.36,2.52-2.71,5-4.17,7.56-1.35,2.13-2.51,4.45-4.35,6.29a2.39,2.39,0,0,1-1.84.68c-1.75-.1-2.71-1.94-3-3.49C-.29,68.38,1.94,59.37,4,52.11A70.13,70.13,0,0,1,7.07,44,1.58,1.58,0,0,1,9.3,43.2a1.67,1.67,0,0,1,.87,2.23c-3,6-7.46,22.56-6,29.63,4.17-6,7.36-12.78,10.66-19.37,1.25-2.52,2.42-5,3.48-7.55a1.72,1.72,0,0,1,3.2,1.26c-.29.77-.68,1.45-1,2.13-.1.48-.29,1-.39,1.45-1.35,5.71-1.64,13.75,1.65,18.88a9.18,9.18,0,0,0,1,1.16c1.93,1.55,3.68.68,5.23-1.45a49.33,49.33,0,0,0,7-14.52C36,53.37,37.09,49.3,36.8,45.43a3.15,3.15,0,0,0-.68-1.94,1.78,1.78,0,0,1-1.84-1.84,1.81,1.81,0,0,1,2.81-1.35C41.64,42.43,39.12,50.08,38.15,53.76Z"/><path class="cls-1" d="M85.79,53.85q-3,4.65-6.39,9.3c-2.71,3.39-5.91,8.33-10.17,9.78-3.87,1-5.42-2.81-5.42-5.91-.19-4.74.68-9.39,1.16-14a18.93,18.93,0,0,0,.2-4.74.61.61,0,0,0-1.07-.39l-2.23,2.71c-5.32,7.55-9.48,15.88-14.33,23.82-.87,1.26-2.42,4.75-4.16,4.55-2.91-.48-1.74-5.42-1.55-7.45.58-3.78,1.07-7.46,1.84-11.14,3.2-16.56,7-33.12,13.36-48.8a33.58,33.58,0,0,1,3.88-7.07,1.58,1.58,0,0,1,1.93-.68c1.55.58.68,2.9.39,3.78-.58,1.64-2,5.13-1.84,5.52a1.71,1.71,0,0,1-1.55,2.22,2.12,2.12,0,0,1-1.26-.48c-3.29,7.55-5.81,16.46-8,24.11-1.94,7.17-3.68,14.43-5.14,21.69C44.54,65.18,43.09,74.77,44,75c1.45-2.13,2.62-4.55,4-6.78,4.16-7.36,8-15.2,13.56-21.59,1-1.07,2-2.23,3.58-2.23a3.19,3.19,0,0,1,2.71,2.91c.49,4.84-1.35,9.58-2,14.23-.39,2.62-1,5.42-.29,8,1.26,4.55,5.71,1.64,7.84-.58,4.55-4.65,8-10.27,11.43-15.79A.63.63,0,0,1,85.6,53,.51.51,0,0,1,85.79,53.85Z"/><path class="cls-1" d="M125.69,53.85A87.3,87.3,0,0,1,120,62.37c-3.19,4-12.2,15.88-17.81,12-3.1-2.61-3.1-8.52-2.23-13.94A91.72,91.72,0,0,1,87.53,74c-1.93,1.46-4.45,3.39-7.06,2.42a5.3,5.3,0,0,1-2.91-4.16,16.48,16.48,0,0,1,1.16-7.84c2.71-7.36,7.94-16,15-19.76,4.07-2,8.23-.77,10.36,3.3a1.71,1.71,0,0,1-3,1.64C95.57,38.94,78,65.67,81.24,72.44a1.58,1.58,0,0,0,1.84.88c3.68-1.26,10.85-10.95,13.46-14Q98,57.4,99.44,55.5l2.91-3.78a1.71,1.71,0,0,1,2.42-.29,1.64,1.64,0,0,1,.48,2.13,27,27,0,0,0-2.51,5.91,28.79,28.79,0,0,0-1.17,6.39c-.19,2.42-.29,5.42,1.55,7.16,5.33,3.68,17.24-12.68,19.66-16.84a28.39,28.39,0,0,0,1.55-3A.76.76,0,0,1,125.69,53.85Z"/><path class="cls-1" d="M175.46,32.74a.53.53,0,0,1-.49.49c-5.42-.49-10.84-.49-16.36-.49-9,.2-18.11.39-27.21.87-.87,2.62-1.55,5.23-2.33,7.85-2.71,10-4.94,20.24-5.52,30.69-.19,4.65-.48,10.85,2.33,14.72A3.39,3.39,0,0,0,130.33,88c8.43-4.26,17.63-25.46,20-34.66a.84.84,0,0,1,1.64.39,130.73,130.73,0,0,1-6.19,14.62c-2.81,5.52-13.37,28-21,19.36-6.58-8.81-.58-36.31,1.94-46.86.58-2.42,1.26-4.75,1.84-7.07-4.84.29-9.78.68-14.62,1.16-.39.1-.68.1-1.07.19a1.63,1.63,0,0,1-1.93,1,7.57,7.57,0,0,1-.88-.29,1.88,1.88,0,0,1,.39-3.58,45.94,45.94,0,0,1,7.26-.78c3.88-.19,7.75-.29,11.62-.38,1.26-4.36,2.72-8.72,4.26-13,1-2.52,1.94-4.94,3-7.36A1.77,1.77,0,0,1,139,9.89a1.66,1.66,0,0,1,.78,2.32A142.88,142.88,0,0,0,132.17,31c8.81-.1,17.72,0,26.53.19,5.43.2,10.85.39,16.37,1.07A.44.44,0,0,1,175.46,32.74Z"/><path class="cls-1" d="M207.51,53.85c-4.85,6.88-14.14,18.59-22.28,21.11-14.42,3.29-5.32-25.47.1-30.31a1.74,1.74,0,0,1,2.71.29c.58,1,.29,2.13.2,3.1a4.93,4.93,0,0,1-.2,1.07,1.35,1.35,0,0,1-.09,1.35,1.72,1.72,0,0,1-3.1.1c-.58,1-1.07,2-1.55,3-4.65,10.07-7.46,28.37,8.71,15.59a68.2,68.2,0,0,0,9.2-9.1,71.85,71.85,0,0,0,5.33-6.88C207,52.59,208,53.27,207.51,53.85ZM187,32.74c1.26-2.42,2.51-3.1,3.87-2.42s2.32,2.42,1.16,4.84-1.26,6.1-2.61,5.33C186.88,39,185.62,35.07,187,32.74Z"/><path class="cls-1" d="M248.08,54.34a12,12,0,0,0-3.68.67c-8.52,2.81-16.37,7.65-23.53,13a54.11,54.11,0,0,0-7.36,6.49c.77,1.35,1.74,2.71,2.61,4.06,1.55,2.62,4,5.23,4.46,8.43A2.23,2.23,0,0,1,219,89.29c-2.23.78-4.36-.09-6.49-.77-2.23-.87-4.46-2.62-4.65-5.23,0-2.42,1.36-5.13,3.58-7.84A54.72,54.72,0,0,1,207,67.89c-3-6.29-3-13,1.94-18.4a29.26,29.26,0,0,1,16.84-8.9c2.72-.2,4.85,1.55,3.49,4.26-.87,1.55-2.23,2.9-2.61,4.45a1.68,1.68,0,1,1-3.3-.68c.39-1.84,1.55-3.19,2.42-4.74-2.32.09-6,1.74-7.74,2.61-6.3,3.1-11.91,8.81-10.07,16.37a37.94,37.94,0,0,0,4.94,10.84c7.55-7.94,21.3-15.88,27.4-18.49,2.52-1.07,4.94-2.23,7.65-2.33A.73.73,0,0,1,248.08,54.34ZM212,76.22c-4.07,5.13-5.42,10.55,4.65,12.1,1,0,2.8,0,2.51-1.35a11.21,11.21,0,0,0-1.93-3.68C215.54,80.87,213.7,78.54,212,76.22Z"/><path class="cls-1" d="M321.28,54.14c-5.71-2-11.91.29-17.14,2.52-1.26.68-2.62,1.36-4.07,2.13a54.1,54.1,0,0,1-10,11c-1.07.68-2.42,1.94-3.78,1.16-.77-.58-.39-1.64.1-2.32,2.13-2.71,6.2-6.1,10.84-9a41.85,41.85,0,0,0,4.36-8.91c1.55-5.81-4.55-.19-5.9,1.55C284,67.41,278,87.07,273.54,105.46c-.29,1.46-.58,3-.87,4.46a1.75,1.75,0,0,1-2,1.35,1.78,1.78,0,0,1-1.36-1.93c1.45-11,3-22.08,4.55-33.12S277.12,54.14,279,43.1a1.67,1.67,0,1,1,3.3.49c-2.14,13.07-4.07,26.14-5.91,39.31,4.94-14.23,12-28.47,20.72-35.83a6.63,6.63,0,0,1,3.78-1.55,3.43,3.43,0,0,1,3.68,3.3c-.1,2.61-1.36,4.84-2.52,7-.39.68-.78,1.26-1.16,1.84,7.36-4,15.59-6.49,20.82-4.55A.57.57,0,1,1,321.28,54.14Zm-24.79,6.78c-3.87,2.52-7.65,5.42-9.78,8.62a.59.59,0,0,0,0,.68c.77.67,2.23-.68,2.9-1.17A48.58,48.58,0,0,0,296.49,60.92Z"/><path class="cls-1" d="M353.72,55.3c-2.81,2.13-9.59,7.07-13.08,5.91-4.16-1.84-2.22-8.33-1.74-11.72.19-.87.39-1.74.48-2.51a1.38,1.38,0,0,0-2-1.46c-5.42,3.2-14.82,20.15-15.69,32.54a1.73,1.73,0,0,1-3.39-.39,126.55,126.55,0,0,1,5.72-36,1.75,1.75,0,0,1,3.29,1.16,125.06,125.06,0,0,0-5,24.6c1.94-5.33,8.14-18.3,12.59-22.47,4.26-4.06,8.91-3.68,7.17,3-.49,3-4.17,10.45-.78,12.2,3.59,1,11.14-4.17,13.46-6.88.1-.19.39-.19.58-.1C356,53.85,354,54.92,353.72,55.3Z"/><path class="cls-1" d="M386.44,54a85.12,85.12,0,0,1-11.91,14.52c-3.87,3.59-8.42,7.17-13.94,7.75-10.27.29-11.14-10.36-8.23-17.91,2.23-6,6.29-12.59,12.78-14.43,4.36-1,8.23,1.06,5.71,5.81a19.61,19.61,0,0,1-8.52,8,11.5,11.5,0,0,1-7,1.35,1.47,1.47,0,0,1-.58-.19c-2,5.13-2.42,10.55.68,13.65,9.49,7.36,25.08-12.3,29.92-19.37a.63.63,0,0,1,.87-.19A.74.74,0,0,1,386.44,54Zm-30.21,1.84c3.39.29,6.88-1.94,9.39-4.26a12,12,0,0,0,2.91-4.07.63.63,0,0,0-.48-.77,7.59,7.59,0,0,0-4.75,1C360.88,49,358.17,52.11,356.23,55.79Z"/><path class="cls-1" d="M407.84,60.44c-5.13-.1-10.36-.1-15.49,0-1.74.09-3.39.09-5.13.29a1.17,1.17,0,1,1,0-2.33,180.47,180.47,0,0,0,20.52-.29A1.17,1.17,0,0,1,407.84,60.44Z"/><path class="cls-1" d="M459.36,53.56a.75.75,0,0,1-.88.78,28.7,28.7,0,0,0-12.78,2.51c-2.42,9.88-8.13,21.31-11.62,25.86-2.52,3.19-6,7.65-10.65,7a3.67,3.67,0,0,1-2.52-1.55c-2.13-4.26,1.94-11,4.26-14.62a48.16,48.16,0,0,1,18.3-16.66c1.17-5,1.55-9.49.59-11.81a4,4,0,0,0-2.43-2.23c-3-1.16-6.29.39-8.71,2.33-7.46,6.1-12.39,15.39-15.11,24.5a26.59,26.59,0,0,0-.77,4.64,1.74,1.74,0,0,1-1.36,1.55,2.45,2.45,0,0,1-2.61-1.35c-1.94-4.07.39-14.53,1.06-19.27C415.68,46.78,425.85-.37,436,1.76c2.71.38,1.84,3.87-.49,2.9-5.22.19-12.68,27-14,32.34a213.23,213.23,0,0,0-5.42,27.89c3.2-8.42,8.91-16.94,15.3-21.79,3.39-2.71,8.52-4.26,12.3-1.84a5.58,5.58,0,0,1,2.52,3.2c1,2.9.67,6.87-.29,11.33.87-.39,1.74-.78,2.61-1.07a38.78,38.78,0,0,1,10-1.93A.79.79,0,0,1,459.36,53.56ZM443.18,58a47.71,47.71,0,0,0-17,16.07c-1.74,2.61-7.55,13.17-2.42,14.23C431.08,89,439.89,71.38,443.18,58Z"/><path class="cls-1" d="M498.76,53.85a87.22,87.22,0,0,1-5.71,8.52c-3.19,4-12.2,15.88-17.82,12-3.1-2.61-3.1-8.52-2.22-13.94A91.72,91.72,0,0,1,460.61,74c-1.93,1.46-4.45,3.39-7.07,2.42a5.31,5.31,0,0,1-2.9-4.16,16.48,16.48,0,0,1,1.16-7.84c2.71-7.36,7.94-16,15-19.76,4.07-2,8.23-.77,10.36,3.3a1.71,1.71,0,0,1-3,1.64c-5.52-10.65-23.05,16.08-19.85,22.85a1.58,1.58,0,0,0,1.84.88c3.68-1.26,10.84-10.95,13.46-14,1-1.25,1.93-2.51,2.9-3.77l2.91-3.78a1.71,1.71,0,0,1,2.42-.29,1.64,1.64,0,0,1,.48,2.13,27.46,27.46,0,0,0-2.52,5.91,28.78,28.78,0,0,0-1.16,6.39c-.19,2.42-.29,5.42,1.55,7.16,5.33,3.68,17.24-12.68,19.66-16.84a30.39,30.39,0,0,0,1.55-3A.76.76,0,0,1,498.76,53.85Z"/><path class="cls-1" d="M531.69,63.34c-4.36,5.23-20.34,2.81-29.15-.39-3.49,10.17-6.29,20.73-8,27.21a1,1,0,0,1-1.35.49c-1.94-1.16-.58-9.3-.49-11.52a434.52,434.52,0,0,1,15-66.24c1.26-3.68,2.42-7.45,4.75-10.75a1.7,1.7,0,0,1,2.9,1.75c-1,2-2.61,5-2.71,7.26a1.69,1.69,0,0,1-1.84,2.61c-4,10.56-6.78,21.6-9.59,32.54-3,12.68-6.1,25.37-7.45,38.34a1.23,1.23,0,0,0-.1.59c0,1-.19,1.93-.1,2.9,1.65-6.78,4-16.46,6.88-26a18.35,18.35,0,0,1-1.94-.87.71.71,0,0,1-.19-1.06l4-6.39c.77-1.17,1.55-2.33,2.23-3.49,2.8-7,6-12.88,9.58-16.17a1.73,1.73,0,0,1,2.62,2.13c-2.62,4.45-5.62,8.71-8.62,13.07a124.4,124.4,0,0,0-5.13,12.49c7.26,3.1,18.49,4.75,24.59,2.91a6.79,6.79,0,0,0,3.29-2C531.3,62,532.27,62.76,531.69,63.34ZM500.8,60.82c.29-1,.58-1.93.87-2.8-.58.77-1.07,1.54-1.65,2.32C500.22,60.44,500.51,60.63,500.8,60.82Z"/><path class="cls-1" d="M564.8,54a85.59,85.59,0,0,1-11.91,14.52c-3.87,3.59-8.42,7.17-13.94,7.75-10.27.29-11.14-10.36-8.23-17.91,2.22-6,6.29-12.59,12.78-14.43,4.35-1,8.23,1.06,5.71,5.81a19.61,19.61,0,0,1-8.52,8,11.51,11.51,0,0,1-7,1.35,1.42,1.42,0,0,1-.58-.19c-2,5.13-2.42,10.55.67,13.65,9.49,7.36,25.08-12.3,29.92-19.37a.64.64,0,0,1,.88-.19A.76.76,0,0,1,564.8,54Zm-30.21,1.84c3.39.29,6.87-1.94,9.39-4.26a12.17,12.17,0,0,0,2.91-4.07.64.64,0,0,0-.49-.77,7.56,7.56,0,0,0-4.74,1C539.24,49,536.52,52.11,534.59,55.79Z"/><path class="cls-1" d="M600.92,2.92c-5.33,15.59-10.07,31.47-14.24,47.45-3.1,12-6.1,24.11-7.07,36.4-.19,3-.58,6.11.49,8.82,2.61-.68,3.19,2.51,1.64,3-5.61,1.84-5-5.52-4.64-8.91,1.84-14.33,5.22-26.14,8.32-38.93a2,2,0,0,1-2.42-.48c-3.1,6.49-8,17.91-14.52,21.3-3.29,1.65-7.26-.48-8.33-3.87-1.74-5.42.68-11.23,3.78-15.69,3.77-5.61,10.84-10,17.62-6.68,6.1-14.23,11.14-28.86,16.17-43.48A1.85,1.85,0,0,1,600.05.69,1.68,1.68,0,0,1,600.92,2.92ZM580.19,48.43c-8.71-3.87-16.65,7.46-17.23,15.11-.1,2,.39,4.45,2.42,5.13,3.87.58,8.52-8,10.26-11S578.74,51.53,580.19,48.43Zm9-12.69c-1.55,3.78-3.1,7.56-4.74,11.33.48.49,1.16.78,1.45,1.36C587,44.17,588,39.91,589.2,35.74Z"/><path class="cls-1" d="M630.64,30.71c-2.81,4.65-6.19,10.26-8.62,15.2a43.69,43.69,0,0,0-3.58,9.49c-.29,1.94-.39,4.07.78,5.52a1.8,1.8,0,0,1-.29,2.42c-2.72,1.65-3.68-2.9-3.68-4.65-.58-14.13,29.82-43,23-54.61-1.75-2.71-5.43-2.81-8.33-2.42A27.16,27.16,0,0,0,615,9.6c-3,3.1-5,7.55-3.49,11.72a13.21,13.21,0,0,0,3.68,5.23,1.71,1.71,0,1,1-2.52,2.32c-4.55-5.42-5.52-11.91-1.16-17.62,3.58-4.85,9.1-8,14.82-9.78,4-1.07,9.48-2,12.39,1.64C643.91,9.89,634.13,24.32,630.64,30.71ZM614.57,78.54c-2.81-.48-2.42-4.55-1.84-6.1s1.55-2.32,2.71-1.74,1.94,1.07,1.84,1.94C617.09,74.28,618.44,79.32,614.57,78.54Z"/></g></g></g></svg>