<svg xmlns="http://www.w3.org/2000/svg" viewBox="0 0 342 234"><defs><style>.cls-1{fill:#f16522;}.cls-2{opacity:0.21;}.cls-3{opacity:0.5;}.cls-4{fill:#fff;}</style></defs><g id="Layer_2" data-name="Layer 2"><g id="orange_export_qr_with_background" data-name="orange export qr with background"><rect id="background" class="cls-1" width="342" height="234" rx="18"/><g id="link_icons" data-name="link icons" class="cls-2"><path class="cls-3" d="M34.88,71.56A15.66,15.66,0,0,1,12.74,49.42L23.81,38.34a15.69,15.69,0,0,1,22.15,0c1.27.23,2,2,1.81,3.24a2.34,2.34,0,0,1-2.71,1.9,4.25,4.25,0,0,1-2.43-1.81,10.87,10.87,0,0,0-15.5,0L16.06,52.74a11,11,0,0,0,15.5,15.5l10-10a2.35,2.35,0,0,1,3.37,3.28s0,0,0,.05l-10,10ZM57,49.42a15.69,15.69,0,0,1-22.15,0,2.35,2.35,0,0,1,3.32-3.33h0a10.88,10.88,0,0,0,15.51,0L64.78,35a11,11,0,0,0-15.5-15.5l-10,10a2.35,2.35,0,1,1-3.37-3.27l.05-.05,10-10A15.66,15.66,0,1,1,68.1,38.34Z"/><path class="cls-3" d="M101.92,71.56A15.66,15.66,0,0,1,79.77,49.42L90.85,38.34a15.68,15.68,0,0,1,22.14,0c1.28.23,2.05,2,1.82,3.24a2.34,2.34,0,0,1-2.72,1.9,4.26,4.26,0,0,1-2.42-1.81,10.87,10.87,0,0,0-15.5,0L83.1,52.74a11,11,0,0,0,15.5,15.5l10-10a2.35,2.35,0,0,1,3.37,3.28l0,.05-10,10Zm22.15-22.14a15.69,15.69,0,0,1-22.15,0,2.35,2.35,0,0,1,3.32-3.33h0a10.87,10.87,0,0,0,15.5,0L131.82,35a11,11,0,0,0-15.5-15.5l-10,10A2.35,2.35,0,0,1,103,26.21l0-.05,10-10a15.66,15.66,0,1,1,22.15,22.14Z"/><path class="cls-3" d="M169,71.56a15.66,15.66,0,1,1-22.15-22.14l11.08-11.08a15.68,15.68,0,0,1,22.14,0c1.28.23,2,2,1.82,3.24a2.34,2.34,0,0,1-2.72,1.9,4.23,4.23,0,0,1-2.42-1.81,10.87,10.87,0,0,0-15.5,0L150.13,52.74a11,11,0,0,0,15.51,15.5l10-10A2.35,2.35,0,0,1,179,61.55s0,0-.05.05l-10,10ZM191.1,49.42a15.68,15.68,0,0,1-22.14,0,2.35,2.35,0,0,1,3.32-3.33h0a10.87,10.87,0,0,0,15.5,0L198.86,35a11,11,0,1,0-15.51-15.5l-10,10A2.35,2.35,0,1,1,170,26.21s0,0,0-.05l10-10a15.66,15.66,0,1,1,22.15,22.14Z"/><path class="cls-3" d="M236,71.56a15.66,15.66,0,0,1-22.15-22.14l11.07-11.08a15.69,15.69,0,0,1,22.15,0c1.28.23,2,2,1.82,3.24a2.34,2.34,0,0,1-2.72,1.9,4.23,4.23,0,0,1-2.42-1.81,10.87,10.87,0,0,0-15.5,0L217.17,52.74a11,11,0,0,0,15.5,15.5l10-10A2.35,2.35,0,0,1,246,61.55l0,.05-10,10Zm22.14-22.14a15.68,15.68,0,0,1-22.14,0,2.35,2.35,0,0,1,3.32-3.33h0a10.87,10.87,0,0,0,15.5,0L265.89,35a11,11,0,0,0-15.5-15.5l-10,10a2.35,2.35,0,1,1-3.37-3.27l0-.05,10-10a15.66,15.66,0,0,1,22.15,22.14Z"/><path class="cls-3" d="M303,71.56a15.66,15.66,0,0,1-22.15-22.14L292,38.34a15.69,15.69,0,0,1,22.15,0c1.28.23,2,2,1.82,3.24a2.35,2.35,0,0,1-2.72,1.9,4.2,4.2,0,0,1-2.42-1.81,10.88,10.88,0,0,0-15.51,0L284.21,52.74a11,11,0,0,0,15.5,15.5l10-10a2.35,2.35,0,0,1,3.37,3.28l-.05.05-10,10Zm22.14-22.14a15.68,15.68,0,0,1-22.14,0,2.35,2.35,0,0,1,3.32-3.33h0a10.87,10.87,0,0,0,15.5,0L332.93,35a11,11,0,0,0-15.5-15.5l-10,10a2.34,2.34,0,1,1-3.36-3.27l0-.05,10-10a15.66,15.66,0,0,1,22.14,22.14Z"/><path class="cls-3" d="M34.12,219.46A15.66,15.66,0,0,1,12,197.32l11.07-11.08a15.69,15.69,0,0,1,22.15,0c1.27.23,2,2,1.82,3.24a2.37,2.37,0,0,1-2.72,1.91,4.31,4.31,0,0,1-2.43-1.82,10.87,10.87,0,0,0-15.5,0L15.3,200.64a11,11,0,0,0,15.5,15.5l10-10a2.35,2.35,0,1,1,3.37,3.27l0,.05-10,10Zm22.15-22.14a15.69,15.69,0,0,1-22.15,0A2.35,2.35,0,1,1,37.45,194h0A10.89,10.89,0,0,0,53,194L64,182.92a11,11,0,0,0-15.5-15.5l-10,10a2.35,2.35,0,0,1-3.37-3.28l0-.05,10-10a15.66,15.66,0,0,1,22.14,22.14Z"/><path class="cls-3" d="M101.16,219.46A15.66,15.66,0,0,1,79,197.32l11.07-11.08a15.68,15.68,0,0,1,22.14,0c1.28.23,2,2,1.82,3.24a2.36,2.36,0,0,1-2.72,1.91,4.33,4.33,0,0,1-2.42-1.82,10.87,10.87,0,0,0-15.5,0L82.34,200.64a11,11,0,0,0,15.5,15.5l10-10a2.34,2.34,0,1,1,3.36,3.27l0,.05-10,10Zm22.15-22.14a15.69,15.69,0,0,1-22.15,0,2.35,2.35,0,1,1,3.32-3.32h0A10.9,10.9,0,0,0,120,194l11.07-11.08a11,11,0,0,0-15.5-15.5l-10,10a2.35,2.35,0,0,1-3.37-3.28l0-.05,10-10a15.66,15.66,0,0,1,22.14,22.14Z"/><path class="cls-3" d="M168.2,219.46a15.66,15.66,0,0,1-22.15-22.14l11.08-11.08a15.68,15.68,0,0,1,22.14,0c1.28.23,2,2,1.82,3.24a2.36,2.36,0,0,1-2.72,1.91,4.29,4.29,0,0,1-2.42-1.82,10.87,10.87,0,0,0-15.5,0l-11.07,11.07a11,11,0,0,0,15.5,15.5l10-10a2.35,2.35,0,1,1,3.37,3.27l0,.05-10,10Zm22.15-22.14a15.69,15.69,0,0,1-22.15,0,2.35,2.35,0,0,1,3.32-3.32h0a10.89,10.89,0,0,0,15.5,0l11.08-11.08a11,11,0,0,0-15.5-15.5l-10,10a2.35,2.35,0,0,1-3.37-3.28l.05-.05,10-10a15.66,15.66,0,0,1,22.15,22.14Z"/><path class="cls-3" d="M235.24,219.46a15.66,15.66,0,0,1-22.15-22.14l11.08-11.08a15.68,15.68,0,0,1,22.14,0c1.28.23,2,2,1.82,3.24a2.36,2.36,0,0,1-2.72,1.91,4.29,4.29,0,0,1-2.42-1.82,10.87,10.87,0,0,0-15.5,0l-11.08,11.07a11,11,0,0,0,15.51,15.5l10-10a2.35,2.35,0,0,1,3.37,3.27s0,0-.05.05l-10,10Zm22.14-22.14a15.68,15.68,0,0,1-22.14,0,2.35,2.35,0,0,1,3.32-3.32h0a10.89,10.89,0,0,0,15.5,0l11.08-11.08a11,11,0,0,0-15.51-15.5l-10,10a2.35,2.35,0,0,1-3.37-3.28l0-.05,10-10a15.66,15.66,0,0,1,22.15,22.14Z"/><path class="cls-3" d="M302.28,219.46a15.66,15.66,0,0,1-22.15-22.14l11.07-11.08a15.69,15.69,0,0,1,22.15,0c1.28.23,2,2,1.82,3.24a2.36,2.36,0,0,1-2.72,1.91,4.26,4.26,0,0,1-2.42-1.82,10.87,10.87,0,0,0-15.5,0l-11.08,11.07a11,11,0,0,0,15.5,15.5l10-10a2.35,2.35,0,1,1,3.37,3.27l-.05.05-10,10Zm22.14-22.14a15.68,15.68,0,0,1-22.14,0A2.35,2.35,0,0,1,305.6,194h0a10.89,10.89,0,0,0,15.5,0l11.07-11.08a11,11,0,0,0-15.5-15.5l-10,10a2.35,2.35,0,0,1-3.37-3.28l0-.05,10-10a15.66,15.66,0,0,1,22.15,22.14Z"/></g><rect class="cls-4" x="99" y="45" width="144" height="144" rx="11.52"/></g><g id="_02" data-name="02"><circle cx="134.71" cy="56.52" r="1.51"/><circle cx="140.76" cy="56.52" r="1.51"/><circle cx="149.83" cy="56.52" r="1.51"/><circle cx="152.86" cy="56.52" r="1.51"/><circle cx="155.88" cy="56.52" r="1.51"/><circle cx="158.9" cy="56.52" r="1.51"/><circle cx="161.93" cy="56.52" r="1.51"/><circle cx="174.02" cy="56.52" r="1.51"/><circle cx="177.05" cy="56.52" r="1.51"/><circle cx="183.1" cy="56.52" r="1.51"/><circle cx="189.14" cy="56.52" r="1.51"/><circle cx="192.17" cy="56.52" r="1.51"/><circle cx="195.19" cy="56.52" r="1.51"/><circle cx="207.29" cy="56.52" r="1.51"/><circle cx="137.74" cy="59.54" r="1.51"/><circle cx="143.78" cy="59.54" r="1.51"/><circle cx="149.83" cy="59.54" r="1.51"/><circle cx="164.95" cy="59.54" r="1.51"/><circle cx="171" cy="59.54" r="1.51"/><circle cx="174.02" cy="59.54" r="1.51"/><circle cx="177.05" cy="59.54" r="1.51"/><circle cx="186.12" cy="59.54" r="1.51"/><circle cx="201.24" cy="59.54" r="1.51"/><circle cx="207.29" cy="59.54" r="1.51"/><circle cx="134.71" cy="62.57" r="1.51"/><circle cx="137.74" cy="62.57" r="1.51"/><circle cx="140.76" cy="62.57" r="1.51"/><circle cx="155.88" cy="62.57" r="1.51"/><circle cx="161.93" cy="62.57" r="1.51"/><circle cx="171" cy="62.57" r="1.51"/><circle cx="177.05" cy="62.57" r="1.51"/><circle cx="180.07" cy="62.57" r="1.51"/><circle cx="183.1" cy="62.57" r="1.51"/><circle cx="192.17" cy="62.57" r="1.51"/><circle cx="198.22" cy="62.57" r="1.51"/><circle cx="207.29" cy="62.57" r="1.51"/><circle cx="134.71" cy="65.59" r="1.51"/><circle cx="146.81" cy="65.59" r="1.51"/><circle cx="152.86" cy="65.59" r="1.51"/><circle cx="155.88" cy="65.59" r="1.51"/><circle cx="158.9" cy="65.59" r="1.51"/><circle cx="171" cy="65.59" r="1.51"/><circle cx="174.02" cy="65.59" r="1.51"/><circle cx="177.05" cy="65.59" r="1.51"/><circle cx="183.1" cy="65.59" r="1.51"/><circle cx="192.17" cy="65.59" r="1.51"/><circle cx="198.22" cy="65.59" r="1.51"/><circle cx="207.29" cy="65.59" r="1.51"/><circle cx="134.71" cy="68.62" r="1.51"/><circle cx="137.74" cy="68.62" r="1.51"/><circle cx="140.76" cy="68.62" r="1.51"/><circle cx="146.81" cy="68.62" r="1.51"/><circle cx="152.86" cy="68.62" r="1.51"/><circle cx="161.93" cy="68.62" r="1.51"/><circle cx="171" cy="68.62" r="1.51"/><circle cx="177.05" cy="68.62" r="1.51"/><circle cx="180.07" cy="68.62" r="1.51"/><circle cx="183.1" cy="68.62" r="1.51"/><circle cx="189.14" cy="68.62" r="1.51"/><circle cx="195.19" cy="68.62" r="1.51"/><circle cx="198.22" cy="68.62" r="1.51"/><circle cx="207.29" cy="68.62" r="1.51"/><circle cx="137.74" cy="71.64" r="1.51"/><circle cx="143.78" cy="71.64" r="1.51"/><circle cx="146.81" cy="71.64" r="1.51"/><circle cx="152.86" cy="71.64" r="1.51"/><circle cx="161.93" cy="71.64" r="1.51"/><circle cx="164.95" cy="71.64" r="1.51"/><circle cx="167.98" cy="71.64" r="1.51"/><circle cx="171" cy="71.64" r="1.51"/><circle cx="174.02" cy="71.64" r="1.51"/><circle cx="180.07" cy="71.64" r="1.51"/><circle cx="189.14" cy="71.64" r="1.51"/><circle cx="198.22" cy="71.64" r="1.51"/><circle cx="201.24" cy="71.64" r="1.51"/><circle cx="204.26" cy="71.64" r="1.51"/><circle cx="134.71" cy="74.66" r="1.51"/><circle cx="140.76" cy="74.66" r="1.51"/><circle cx="146.81" cy="74.66" r="1.51"/><circle cx="152.86" cy="74.66" r="1.51"/><circle cx="158.9" cy="74.66" r="1.51"/><circle cx="164.95" cy="74.66" r="1.51"/><circle cx="171" cy="74.66" r="1.51"/><circle cx="177.05" cy="74.66" r="1.51"/><circle cx="183.1" cy="74.66" r="1.51"/><circle cx="189.14" cy="74.66" r="1.51"/><circle cx="195.19" cy="74.66" r="1.51"/><circle cx="201.24" cy="74.66" r="1.51"/><circle cx="207.29" cy="74.66" r="1.51"/><circle cx="137.74" cy="77.69" r="1.51"/><circle cx="143.78" cy="77.69" r="1.51"/><circle cx="149.83" cy="77.69" r="1.51"/><circle cx="161.93" cy="77.69" r="1.51"/><circle cx="171" cy="77.69" r="1.51"/><circle cx="183.1" cy="77.69" r="1.51"/><circle cx="189.14" cy="77.69" r="1.51"/><circle cx="192.17" cy="77.69" r="1.51"/><circle cx="195.19" cy="77.69" r="1.51"/><circle cx="204.26" cy="77.69" r="1.51"/><circle cx="110.52" cy="80.71" r="1.51"/><circle cx="113.54" cy="80.71" r="1.51"/><circle cx="116.57" cy="80.71" r="1.51"/><circle cx="119.59" cy="80.71" r="1.51"/><circle cx="128.66" cy="80.71" r="1.51"/><circle cx="134.71" cy="80.71" r="1.51"/><circle cx="143.78" cy="80.71" r="1.51"/><circle cx="146.81" cy="80.71" r="1.51"/><circle cx="149.83" cy="80.71" r="1.51"/><circle cx="158.9" cy="80.71" r="1.51"/><circle cx="161.93" cy="80.71" r="1.51"/><circle cx="167.98" cy="80.71" r="1.51"/><circle cx="171" cy="80.71" r="1.51"/><circle cx="174.02" cy="80.71" r="1.51"/><circle cx="177.05" cy="80.71" r="1.51"/><circle cx="186.12" cy="80.71" r="1.51"/><circle cx="189.14" cy="80.71" r="1.51"/><circle cx="195.19" cy="80.71" r="1.51"/><circle cx="201.24" cy="80.71" r="1.51"/><circle cx="204.26" cy="80.71" r="1.51"/><circle cx="210.31" cy="80.71" r="1.51"/><circle cx="219.38" cy="80.71" r="1.51"/><circle cx="222.41" cy="80.71" r="1.51"/><circle cx="225.43" cy="80.71" r="1.51"/><circle cx="231.48" cy="80.71" r="1.51"/><circle cx="119.59" cy="83.74" r="1.51"/><circle cx="137.74" cy="83.74" r="1.51"/><circle cx="140.76" cy="83.74" r="1.51"/><circle cx="146.81" cy="83.74" r="1.51"/><circle cx="155.88" cy="83.74" r="1.51"/><circle cx="158.9" cy="83.74" r="1.51"/><circle cx="164.95" cy="83.74" r="1.51"/><circle cx="171" cy="83.74" r="1.51"/><circle cx="174.02" cy="83.74" r="1.51"/><circle cx="177.05" cy="83.74" r="1.51"/><circle cx="183.1" cy="83.74" r="1.51"/><circle cx="195.19" cy="83.74" r="1.51"/><circle cx="201.24" cy="83.74" r="1.51"/><circle cx="222.41" cy="83.74" r="1.51"/><circle cx="110.52" cy="86.76" r="1.51"/><circle cx="116.57" cy="86.76" r="1.51"/><circle cx="119.59" cy="86.76" r="1.51"/><circle cx="125.64" cy="86.76" r="1.51"/><circle cx="128.66" cy="86.76" r="1.51"/><circle cx="131.69" cy="86.76" r="1.51"/><circle cx="143.78" cy="86.76" r="1.51"/><circle cx="146.81" cy="86.76" r="1.51"/><circle cx="152.86" cy="86.76" r="1.51"/><circle cx="155.88" cy="86.76" r="1.51"/><circle cx="161.93" cy="86.76" r="1.51"/><circle cx="167.98" cy="86.76" r="1.51"/><circle cx="171" cy="86.76" r="1.51"/><circle cx="174.02" cy="86.76" r="1.51"/><circle cx="177.05" cy="86.76" r="1.51"/><circle cx="183.1" cy="86.76" r="1.51"/><circle cx="186.12" cy="86.76" r="1.51"/><circle cx="192.17" cy="86.76" r="1.51"/><circle cx="201.24" cy="86.76" r="1.51"/><circle cx="204.26" cy="86.76" r="1.51"/><circle cx="207.29" cy="86.76" r="1.51"/><circle cx="210.31" cy="86.76" r="1.51"/><circle cx="219.38" cy="86.76" r="1.51"/><circle cx="222.41" cy="86.76" r="1.51"/><circle cx="228.46" cy="86.76" r="1.51"/><circle cx="231.48" cy="86.76" r="1.51"/><circle cx="116.57" cy="89.78" r="1.51"/><circle cx="122.62" cy="89.78" r="1.51"/><circle cx="131.69" cy="89.78" r="1.51"/><circle cx="140.76" cy="89.78" r="1.51"/><circle cx="143.78" cy="89.78" r="1.51"/><circle cx="149.83" cy="89.78" r="1.51"/><circle cx="152.86" cy="89.78" r="1.51"/><circle cx="155.88" cy="89.78" r="1.51"/><circle cx="164.95" cy="89.78" r="1.51"/><circle cx="174.02" cy="89.78" r="1.51"/><circle cx="180.07" cy="89.78" r="1.51"/><circle cx="183.1" cy="89.78" r="1.51"/><circle cx="186.12" cy="89.78" r="1.51"/><circle cx="189.14" cy="89.78" r="1.51"/><circle cx="192.17" cy="89.78" r="1.51"/><circle cx="195.19" cy="89.78" r="1.51"/><circle cx="198.22" cy="89.78" r="1.51"/><circle cx="201.24" cy="89.78" r="1.51"/><circle cx="207.29" cy="89.78" r="1.51"/><circle cx="216.36" cy="89.78" r="1.51"/><circle cx="113.54" cy="92.81" r="1.51"/><circle cx="116.57" cy="92.81" r="1.51"/><circle cx="119.59" cy="92.81" r="1.51"/><circle cx="122.62" cy="92.81" r="1.51"/><circle cx="125.64" cy="92.81" r="1.51"/><circle cx="128.66" cy="92.81" r="1.51"/><circle cx="131.69" cy="92.81" r="1.51"/><circle cx="137.74" cy="92.81" r="1.51"/><circle cx="143.78" cy="92.81" r="1.51"/><circle cx="146.81" cy="92.81" r="1.51"/><circle cx="155.88" cy="92.81" r="1.51"/><circle cx="164.95" cy="92.81" r="1.51"/><circle cx="174.02" cy="92.81" r="1.51"/><circle cx="186.12" cy="92.81" r="1.51"/><circle cx="192.17" cy="92.81" r="1.51"/><circle cx="195.19" cy="92.81" r="1.51"/><circle cx="201.24" cy="92.81" r="1.51"/><circle cx="207.29" cy="92.81" r="1.51"/><circle cx="210.31" cy="92.81" r="1.51"/><circle cx="216.36" cy="92.81" r="1.51"/><circle cx="219.38" cy="92.81" r="1.51"/><circle cx="228.46" cy="92.81" r="1.51"/><circle cx="110.52" cy="95.83" r="1.51"/><circle cx="113.54" cy="95.83" r="1.51"/><circle cx="119.59" cy="95.83" r="1.51"/><circle cx="125.64" cy="95.83" r="1.51"/><circle cx="131.69" cy="95.83" r="1.51"/><circle cx="134.71" cy="95.83" r="1.51"/><circle cx="137.74" cy="95.83" r="1.51"/><circle cx="140.76" cy="95.83" r="1.51"/><circle cx="143.78" cy="95.83" r="1.51"/><circle cx="146.81" cy="95.83" r="1.51"/><circle cx="158.9" cy="95.83" r="1.51"/><circle cx="161.93" cy="95.83" r="1.51"/><circle cx="164.95" cy="95.83" r="1.51"/><circle cx="192.17" cy="95.83" r="1.51"/><circle cx="195.19" cy="95.83" r="1.51"/><circle cx="198.22" cy="95.83" r="1.51"/><circle cx="201.24" cy="95.83" r="1.51"/><circle cx="210.31" cy="95.83" r="1.51"/><circle cx="216.36" cy="95.83" r="1.51"/><circle cx="219.38" cy="95.83" r="1.51"/><circle cx="222.41" cy="95.83" r="1.51"/><circle cx="225.43" cy="95.83" r="1.51"/><circle cx="119.59" cy="98.86" r="1.51"/><circle cx="125.64" cy="98.86" r="1.51"/><circle cx="128.66" cy="98.86" r="1.51"/><circle cx="137.74" cy="98.86" r="1.51"/><circle cx="140.76" cy="98.86" r="1.51"/><circle cx="143.78" cy="98.86" r="1.51"/><circle cx="152.86" cy="98.86" r="1.51"/><circle cx="155.88" cy="98.86" r="1.51"/><circle cx="158.9" cy="98.86" r="1.51"/><circle cx="161.93" cy="98.86" r="1.51"/><circle cx="164.95" cy="98.86" r="1.51"/><circle cx="174.02" cy="98.86" r="1.51"/><circle cx="183.1" cy="98.86" r="1.51"/><circle cx="189.14" cy="98.86" r="1.51"/><circle cx="195.19" cy="98.86" r="1.51"/><circle cx="198.22" cy="98.86" r="1.51"/><circle cx="201.24" cy="98.86" r="1.51"/><circle cx="210.31" cy="98.86" r="1.51"/><circle cx="213.34" cy="98.86" r="1.51"/><circle cx="219.38" cy="98.86" r="1.51"/><circle cx="222.41" cy="98.86" r="1.51"/><circle cx="225.43" cy="98.86" r="1.51"/><circle cx="119.59" cy="101.88" r="1.51"/><circle cx="125.64" cy="101.88" r="1.51"/><circle cx="131.69" cy="101.88" r="1.51"/><circle cx="134.71" cy="101.88" r="1.51"/><circle cx="137.74" cy="101.88" r="1.51"/><circle cx="140.76" cy="101.88" r="1.51"/><circle cx="143.78" cy="101.88" r="1.51"/><circle cx="149.83" cy="101.88" r="1.51"/><circle cx="158.9" cy="101.88" r="1.51"/><circle cx="161.93" cy="101.88" r="1.51"/><circle cx="164.95" cy="101.88" r="1.51"/><circle cx="167.98" cy="101.88" r="1.51"/><circle cx="171" cy="101.88" r="1.51"/><circle cx="174.02" cy="101.88" r="1.51"/><circle cx="177.05" cy="101.88" r="1.51"/><circle cx="180.07" cy="101.88" r="1.51"/><circle cx="189.14" cy="101.88" r="1.51"/><circle cx="195.19" cy="101.88" r="1.51"/><circle cx="204.26" cy="101.88" r="1.51"/><circle cx="207.29" cy="101.88" r="1.51"/><circle cx="213.34" cy="101.88" r="1.51"/><circle cx="216.36" cy="101.88" r="1.51"/><circle cx="219.38" cy="101.88" r="1.51"/><circle cx="222.41" cy="101.88" r="1.51"/><circle cx="228.46" cy="101.88" r="1.51"/><circle cx="231.48" cy="101.88" r="1.51"/><circle cx="110.52" cy="104.9" r="1.51"/><circle cx="113.54" cy="104.9" r="1.51"/><circle cx="128.66" cy="104.9" r="1.51"/><circle cx="131.69" cy="104.9" r="1.51"/><circle cx="137.74" cy="104.9" r="1.51"/><circle cx="152.86" cy="104.9" r="1.51"/><circle cx="155.88" cy="104.9" r="1.51"/><circle cx="158.9" cy="104.9" r="1.51"/><circle cx="164.95" cy="104.9" r="1.51"/><circle cx="167.98" cy="104.9" r="1.51"/><circle cx="171" cy="104.9" r="1.51"/><circle cx="174.02" cy="104.9" r="1.51"/><circle cx="180.07" cy="104.9" r="1.51"/><circle cx="183.1" cy="104.9" r="1.51"/><circle cx="198.22" cy="104.9" r="1.51"/><circle cx="216.36" cy="104.9" r="1.51"/><circle cx="225.43" cy="104.9" r="1.51"/><circle cx="228.46" cy="104.9" r="1.51"/><circle cx="110.52" cy="107.93" r="1.51"/><circle cx="122.62" cy="107.93" r="1.51"/><circle cx="125.64" cy="107.93" r="1.51"/><circle cx="131.69" cy="107.93" r="1.51"/><circle cx="134.71" cy="107.93" r="1.51"/><circle cx="137.74" cy="107.93" r="1.51"/><circle cx="140.76" cy="107.93" r="1.51"/><circle cx="146.81" cy="107.93" r="1.51"/><circle cx="152.86" cy="107.93" r="1.51"/><circle cx="155.88" cy="107.93" r="1.51"/><circle cx="158.9" cy="107.93" r="1.51"/><circle cx="161.93" cy="107.93" r="1.51"/><circle cx="164.95" cy="107.93" r="1.51"/><circle cx="171" cy="107.93" r="1.51"/><circle cx="183.1" cy="107.93" r="1.51"/><circle cx="186.12" cy="107.93" r="1.51"/><circle cx="189.14" cy="107.93" r="1.51"/><circle cx="195.19" cy="107.93" r="1.51"/><circle cx="204.26" cy="107.93" r="1.51"/><circle cx="210.31" cy="107.93" r="1.51"/><circle cx="216.36" cy="107.93" r="1.51"/><circle cx="228.46" cy="107.93" r="1.51"/><circle cx="110.52" cy="110.95" r="1.51"/><circle cx="113.54" cy="110.95" r="1.51"/><circle cx="116.57" cy="110.95" r="1.51"/><circle cx="122.62" cy="110.95" r="1.51"/><circle cx="128.66" cy="110.95" r="1.51"/><circle cx="131.69" cy="110.95" r="1.51"/><circle cx="137.74" cy="110.95" r="1.51"/><circle cx="140.76" cy="110.95" r="1.51"/><circle cx="149.83" cy="110.95" r="1.51"/><circle cx="152.86" cy="110.95" r="1.51"/><circle cx="155.88" cy="110.95" r="1.51"/><circle cx="158.9" cy="110.95" r="1.51"/><circle cx="161.93" cy="110.95" r="1.51"/><circle cx="167.98" cy="110.95" r="1.51"/><circle cx="177.05" cy="110.95" r="1.51"/><circle cx="183.1" cy="110.95" r="1.51"/><circle cx="186.12" cy="110.95" r="1.51"/><circle cx="198.22" cy="110.95" r="1.51"/><circle cx="201.24" cy="110.95" r="1.51"/><circle cx="210.31" cy="110.95" r="1.51"/><circle cx="222.41" cy="110.95" r="1.51"/><circle cx="225.43" cy="110.95" r="1.51"/><circle cx="228.46" cy="110.95" r="1.51"/><circle cx="110.52" cy="113.98" r="1.51"/><circle cx="116.57" cy="113.98" r="1.51"/><circle cx="119.59" cy="113.98" r="1.51"/><circle cx="122.62" cy="113.98" r="1.51"/><circle cx="131.69" cy="113.98" r="1.51"/><circle cx="134.71" cy="113.98" r="1.51"/><circle cx="146.81" cy="113.98" r="1.51"/><circle cx="149.83" cy="113.98" r="1.51"/><circle cx="152.86" cy="113.98" r="1.51"/><circle cx="155.88" cy="113.98" r="1.51"/><circle cx="158.9" cy="113.98" r="1.51"/><circle cx="167.98" cy="113.98" r="1.51"/><circle cx="174.02" cy="113.98" r="1.51"/><circle cx="183.1" cy="113.98" r="1.51"/><circle cx="186.12" cy="113.98" r="1.51"/><circle cx="189.14" cy="113.98" r="1.51"/><circle cx="192.17" cy="113.98" r="1.51"/><circle cx="195.19" cy="113.98" r="1.51"/><circle cx="204.26" cy="113.98" r="1.51"/><circle cx="213.34" cy="113.98" r="1.51"/><circle cx="222.41" cy="113.98" r="1.51"/><circle cx="225.43" cy="113.98" r="1.51"/><circle cx="228.46" cy="113.98" r="1.51"/><circle cx="231.48" cy="113.98" r="1.51"/><circle cx="110.52" cy="117" r="1.51"/><circle cx="116.57" cy="117" r="1.51"/><circle cx="119.59" cy="117" r="1.51"/><circle cx="128.66" cy="117" r="1.51"/><circle cx="134.71" cy="117" r="1.51"/><circle cx="137.74" cy="117" r="1.51"/><circle cx="146.81" cy="117" r="1.51"/><circle cx="149.83" cy="117" r="1.51"/><circle cx="152.86" cy="117" r="1.51"/><circle cx="164.95" cy="117" r="1.51"/><circle cx="167.98" cy="117" r="1.51"/><circle cx="171" cy="117" r="1.51"/><circle cx="177.05" cy="117" r="1.51"/><circle cx="183.1" cy="117" r="1.51"/><circle cx="186.12" cy="117" r="1.51"/><circle cx="189.14" cy="117" r="1.51"/><circle cx="195.19" cy="117" r="1.51"/><circle cx="201.24" cy="117" r="1.51"/><circle cx="204.26" cy="117" r="1.51"/><circle cx="207.29" cy="117" r="1.51"/><circle cx="210.31" cy="117" r="1.51"/><circle cx="222.41" cy="117" r="1.51"/><circle cx="228.46" cy="117" r="1.51"/><circle cx="231.48" cy="117" r="1.51"/><circle cx="110.52" cy="120.02" r="1.51"/><circle cx="113.54" cy="120.02" r="1.51"/><circle cx="122.62" cy="120.02" r="1.51"/><circle cx="131.69" cy="120.02" r="1.51"/><circle cx="140.76" cy="120.02" r="1.51"/><circle cx="146.81" cy="120.02" r="1.51"/><circle cx="155.88" cy="120.02" r="1.51"/><circle cx="164.95" cy="120.02" r="1.51"/><circle cx="174.02" cy="120.02" r="1.51"/><circle cx="177.05" cy="120.02" r="1.51"/><circle cx="183.1" cy="120.02" r="1.51"/><circle cx="189.14" cy="120.02" r="1.51"/><circle cx="195.19" cy="120.02" r="1.51"/><circle cx="207.29" cy="120.02" r="1.51"/><circle cx="213.34" cy="120.02" r="1.51"/><circle cx="222.41" cy="120.02" r="1.51"/><circle cx="113.54" cy="123.05" r="1.51"/><circle cx="119.59" cy="123.05" r="1.51"/><circle cx="122.62" cy="123.05" r="1.51"/><circle cx="125.64" cy="123.05" r="1.51"/><circle cx="128.66" cy="123.05" r="1.51"/><circle cx="131.69" cy="123.05" r="1.51"/><circle cx="134.71" cy="123.05" r="1.51"/><circle cx="137.74" cy="123.05" r="1.51"/><circle cx="140.76" cy="123.05" r="1.51"/><circle cx="143.78" cy="123.05" r="1.51"/><circle cx="146.81" cy="123.05" r="1.51"/><circle cx="149.83" cy="123.05" r="1.51"/><circle cx="158.9" cy="123.05" r="1.51"/><circle cx="164.95" cy="123.05" r="1.51"/><circle cx="174.02" cy="123.05" r="1.51"/><circle cx="183.1" cy="123.05" r="1.51"/><circle cx="186.12" cy="123.05" r="1.51"/><circle cx="189.14" cy="123.05" r="1.51"/><circle cx="192.17" cy="123.05" r="1.51"/><circle cx="204.26" cy="123.05" r="1.51"/><circle cx="207.29" cy="123.05" r="1.51"/><circle cx="210.31" cy="123.05" r="1.51"/><circle cx="219.38" cy="123.05" r="1.51"/><circle cx="222.41" cy="123.05" r="1.51"/><circle cx="228.46" cy="123.05" r="1.51"/><circle cx="231.48" cy="123.05" r="1.51"/><circle cx="119.59" cy="126.07" r="1.51"/><circle cx="122.62" cy="126.07" r="1.51"/><circle cx="125.64" cy="126.07" r="1.51"/><circle cx="137.74" cy="126.07" r="1.51"/><circle cx="149.83" cy="126.07" r="1.51"/><circle cx="158.9" cy="126.07" r="1.51"/><circle cx="164.95" cy="126.07" r="1.51"/><circle cx="167.98" cy="126.07" r="1.51"/><circle cx="174.02" cy="126.07" r="1.51"/><circle cx="177.05" cy="126.07" r="1.51"/><circle cx="180.07" cy="126.07" r="1.51"/><circle cx="183.1" cy="126.07" r="1.51"/><circle cx="192.17" cy="126.07" r="1.51"/><circle cx="198.22" cy="126.07" r="1.51"/><circle cx="216.36" cy="126.07" r="1.51"/><circle cx="222.41" cy="126.07" r="1.51"/><circle cx="225.43" cy="126.07" r="1.51"/><circle cx="110.52" cy="129.1" r="1.51"/><circle cx="128.66" cy="129.1" r="1.51"/><circle cx="131.69" cy="129.1" r="1.51"/><circle cx="140.76" cy="129.1" r="1.51"/><circle cx="155.88" cy="129.1" r="1.51"/><circle cx="158.9" cy="129.1" r="1.51"/><circle cx="177.05" cy="129.1" r="1.51"/><circle cx="183.1" cy="129.1" r="1.51"/><circle cx="186.12" cy="129.1" r="1.51"/><circle cx="189.14" cy="129.1" r="1.51"/><circle cx="192.17" cy="129.1" r="1.51"/><circle cx="195.19" cy="129.1" r="1.51"/><circle cx="198.22" cy="129.1" r="1.51"/><circle cx="207.29" cy="129.1" r="1.51"/><circle cx="213.34" cy="129.1" r="1.51"/><circle cx="216.36" cy="129.1" r="1.51"/><circle cx="222.41" cy="129.1" r="1.51"/><circle cx="110.52" cy="132.12" r="1.51"/><circle cx="119.59" cy="132.12" r="1.51"/><circle cx="125.64" cy="132.12" r="1.51"/><circle cx="131.69" cy="132.12" r="1.51"/><circle cx="134.71" cy="132.12" r="1.51"/><circle cx="140.76" cy="132.12" r="1.51"/><circle cx="143.78" cy="132.12" r="1.51"/><circle cx="161.93" cy="132.12" r="1.51"/><circle cx="164.95" cy="132.12" r="1.51"/><circle cx="167.98" cy="132.12" r="1.51"/><circle cx="171" cy="132.12" r="1.51"/><circle cx="177.05" cy="132.12" r="1.51"/><circle cx="180.07" cy="132.12" r="1.51"/><circle cx="183.1" cy="132.12" r="1.51"/><circle cx="192.17" cy="132.12" r="1.51"/><circle cx="198.22" cy="132.12" r="1.51"/><circle cx="207.29" cy="132.12" r="1.51"/><circle cx="219.38" cy="132.12" r="1.51"/><circle cx="222.41" cy="132.12" r="1.51"/><circle cx="225.43" cy="132.12" r="1.51"/><circle cx="228.46" cy="132.12" r="1.51"/><circle cx="110.52" cy="135.14" r="1.51"/><circle cx="113.54" cy="135.14" r="1.51"/><circle cx="125.64" cy="135.14" r="1.51"/><circle cx="128.66" cy="135.14" r="1.51"/><circle cx="149.83" cy="135.14" r="1.51"/><circle cx="155.88" cy="135.14" r="1.51"/><circle cx="167.98" cy="135.14" r="1.51"/><circle cx="171" cy="135.14" r="1.51"/><circle cx="174.02" cy="135.14" r="1.51"/><circle cx="180.07" cy="135.14" r="1.51"/><circle cx="189.14" cy="135.14" r="1.51"/><circle cx="195.19" cy="135.14" r="1.51"/><circle cx="198.22" cy="135.14" r="1.51"/><circle cx="201.24" cy="135.14" r="1.51"/><circle cx="210.31" cy="135.14" r="1.51"/><circle cx="213.34" cy="135.14" r="1.51"/><circle cx="219.38" cy="135.14" r="1.51"/><circle cx="225.43" cy="135.14" r="1.51"/><circle cx="119.59" cy="138.17" r="1.51"/><circle cx="125.64" cy="138.17" r="1.51"/><circle cx="131.69" cy="138.17" r="1.51"/><circle cx="137.74" cy="138.17" r="1.51"/><circle cx="143.78" cy="138.17" r="1.51"/><circle cx="152.86" cy="138.17" r="1.51"/><circle cx="158.9" cy="138.17" r="1.51"/><circle cx="167.98" cy="138.17" r="1.51"/><circle cx="171" cy="138.17" r="1.51"/><circle cx="174.02" cy="138.17" r="1.51"/><circle cx="180.07" cy="138.17" r="1.51"/><circle cx="186.12" cy="138.17" r="1.51"/><circle cx="195.19" cy="138.17" r="1.51"/><circle cx="204.26" cy="138.17" r="1.51"/><circle cx="207.29" cy="138.17" r="1.51"/><circle cx="213.34" cy="138.17" r="1.51"/><circle cx="219.38" cy="138.17" r="1.51"/><circle cx="228.46" cy="138.17" r="1.51"/><circle cx="231.48" cy="138.17" r="1.51"/><circle cx="116.57" cy="141.19" r="1.51"/><circle cx="119.59" cy="141.19" r="1.51"/><circle cx="122.62" cy="141.19" r="1.51"/><circle cx="125.64" cy="141.19" r="1.51"/><circle cx="128.66" cy="141.19" r="1.51"/><circle cx="131.69" cy="141.19" r="1.51"/><circle cx="137.74" cy="141.19" r="1.51"/><circle cx="143.78" cy="141.19" r="1.51"/><circle cx="152.86" cy="141.19" r="1.51"/><circle cx="161.93" cy="141.19" r="1.51"/><circle cx="171" cy="141.19" r="1.51"/><circle cx="174.02" cy="141.19" r="1.51"/><circle cx="180.07" cy="141.19" r="1.51"/><circle cx="186.12" cy="141.19" r="1.51"/><circle cx="195.19" cy="141.19" r="1.51"/><circle cx="210.31" cy="141.19" r="1.51"/><circle cx="225.43" cy="141.19" r="1.51"/><circle cx="228.46" cy="141.19" r="1.51"/><circle cx="116.57" cy="144.22" r="1.51"/><circle cx="119.59" cy="144.22" r="1.51"/><circle cx="125.64" cy="144.22" r="1.51"/><circle cx="134.71" cy="144.22" r="1.51"/><circle cx="140.76" cy="144.22" r="1.51"/><circle cx="146.81" cy="144.22" r="1.51"/><circle cx="149.83" cy="144.22" r="1.51"/><circle cx="152.86" cy="144.22" r="1.51"/><circle cx="164.95" cy="144.22" r="1.51"/><circle cx="167.98" cy="144.22" r="1.51"/><circle cx="171" cy="144.22" r="1.51"/><circle cx="183.1" cy="144.22" r="1.51"/><circle cx="186.12" cy="144.22" r="1.51"/><circle cx="189.14" cy="144.22" r="1.51"/><circle cx="201.24" cy="144.22" r="1.51"/><circle cx="204.26" cy="144.22" r="1.51"/><circle cx="207.29" cy="144.22" r="1.51"/><circle cx="213.34" cy="144.22" r="1.51"/><circle cx="216.36" cy="144.22" r="1.51"/><circle cx="231.48" cy="144.22" r="1.51"/><circle cx="110.52" cy="147.24" r="1.51"/><circle cx="125.64" cy="147.24" r="1.51"/><circle cx="128.66" cy="147.24" r="1.51"/><circle cx="137.74" cy="147.24" r="1.51"/><circle cx="143.78" cy="147.24" r="1.51"/><circle cx="146.81" cy="147.24" r="1.51"/><circle cx="149.83" cy="147.24" r="1.51"/><circle cx="161.93" cy="147.24" r="1.51"/><circle cx="167.98" cy="147.24" r="1.51"/><circle cx="177.05" cy="147.24" r="1.51"/><circle cx="183.1" cy="147.24" r="1.51"/><circle cx="186.12" cy="147.24" r="1.51"/><circle cx="189.14" cy="147.24" r="1.51"/><circle cx="192.17" cy="147.24" r="1.51"/><circle cx="198.22" cy="147.24" r="1.51"/><circle cx="222.41" cy="147.24" r="1.51"/><circle cx="225.43" cy="147.24" r="1.51"/><circle cx="119.59" cy="150.26" r="1.51"/><circle cx="122.62" cy="150.26" r="1.51"/><circle cx="146.81" cy="150.26" r="1.51"/><circle cx="149.83" cy="150.26" r="1.51"/><circle cx="152.86" cy="150.26" r="1.51"/><circle cx="155.88" cy="150.26" r="1.51"/><circle cx="158.9" cy="150.26" r="1.51"/><circle cx="161.93" cy="150.26" r="1.51"/><circle cx="164.95" cy="150.26" r="1.51"/><circle cx="167.98" cy="150.26" r="1.51"/><circle cx="174.02" cy="150.26" r="1.51"/><circle cx="183.1" cy="150.26" r="1.51"/><circle cx="189.14" cy="150.26" r="1.51"/><circle cx="192.17" cy="150.26" r="1.51"/><circle cx="195.19" cy="150.26" r="1.51"/><circle cx="198.22" cy="150.26" r="1.51"/><circle cx="201.24" cy="150.26" r="1.51"/><circle cx="204.26" cy="150.26" r="1.51"/><circle cx="213.34" cy="150.26" r="1.51"/><circle cx="225.43" cy="150.26" r="1.51"/><circle cx="231.48" cy="150.26" r="1.51"/><circle cx="113.54" cy="153.29" r="1.51"/><circle cx="116.57" cy="153.29" r="1.51"/><circle cx="119.59" cy="153.29" r="1.51"/><circle cx="122.62" cy="153.29" r="1.51"/><circle cx="125.64" cy="153.29" r="1.51"/><circle cx="128.66" cy="153.29" r="1.51"/><circle cx="131.69" cy="153.29" r="1.51"/><circle cx="137.74" cy="153.29" r="1.51"/><circle cx="143.78" cy="153.29" r="1.51"/><circle cx="152.86" cy="153.29" r="1.51"/><circle cx="155.88" cy="153.29" r="1.51"/><circle cx="158.9" cy="153.29" r="1.51"/><circle cx="164.95" cy="153.29" r="1.51"/><circle cx="171" cy="153.29" r="1.51"/><circle cx="183.1" cy="153.29" r="1.51"/><circle cx="186.12" cy="153.29" r="1.51"/><circle cx="189.14" cy="153.29" r="1.51"/><circle cx="201.24" cy="153.29" r="1.51"/><circle cx="204.26" cy="153.29" r="1.51"/><circle cx="207.29" cy="153.29" r="1.51"/><circle cx="210.31" cy="153.29" r="1.51"/><circle cx="213.34" cy="153.29" r="1.51"/><circle cx="216.36" cy="153.29" r="1.51"/><circle cx="219.38" cy="153.29" r="1.51"/><circle cx="225.43" cy="153.29" r="1.51"/><circle cx="134.71" cy="156.31" r="1.51"/><circle cx="137.74" cy="156.31" r="1.51"/><circle cx="146.81" cy="156.31" r="1.51"/><circle cx="149.83" cy="156.31" r="1.51"/><circle cx="152.86" cy="156.31" r="1.51"/><circle cx="155.88" cy="156.31" r="1.51"/><circle cx="158.9" cy="156.31" r="1.51"/><circle cx="161.93" cy="156.31" r="1.51"/><circle cx="164.95" cy="156.31" r="1.51"/><circle cx="174.02" cy="156.31" r="1.51"/><circle cx="180.07" cy="156.31" r="1.51"/><circle cx="183.1" cy="156.31" r="1.51"/><circle cx="192.17" cy="156.31" r="1.51"/><circle cx="207.29" cy="156.31" r="1.51"/><circle cx="219.38" cy="156.31" r="1.51"/><circle cx="140.76" cy="159.34" r="1.51"/><circle cx="149.83" cy="159.34" r="1.51"/><circle cx="164.95" cy="159.34" r="1.51"/><circle cx="171" cy="159.34" r="1.51"/><circle cx="174.02" cy="159.34" r="1.51"/><circle cx="177.05" cy="159.34" r="1.51"/><circle cx="180.07" cy="159.34" r="1.51"/><circle cx="183.1" cy="159.34" r="1.51"/><circle cx="186.12" cy="159.34" r="1.51"/><circle cx="192.17" cy="159.34" r="1.51"/><circle cx="201.24" cy="159.34" r="1.51"/><circle cx="207.29" cy="159.34" r="1.51"/><circle cx="213.34" cy="159.34" r="1.51"/><circle cx="219.38" cy="159.34" r="1.51"/><circle cx="222.41" cy="159.34" r="1.51"/><circle cx="228.46" cy="159.34" r="1.51"/><circle cx="231.48" cy="159.34" r="1.51"/><circle cx="137.74" cy="162.36" r="1.51"/><circle cx="143.78" cy="162.36" r="1.51"/><circle cx="146.81" cy="162.36" r="1.51"/><circle cx="155.88" cy="162.36" r="1.51"/><circle cx="161.93" cy="162.36" r="1.51"/><circle cx="171" cy="162.36" r="1.51"/><circle cx="180.07" cy="162.36" r="1.51"/><circle cx="183.1" cy="162.36" r="1.51"/><circle cx="186.12" cy="162.36" r="1.51"/><circle cx="192.17" cy="162.36" r="1.51"/><circle cx="201.24" cy="162.36" r="1.51"/><circle cx="204.26" cy="162.36" r="1.51"/><circle cx="207.29" cy="162.36" r="1.51"/><circle cx="219.38" cy="162.36" r="1.51"/><circle cx="222.41" cy="162.36" r="1.51"/><circle cx="225.43" cy="162.36" r="1.51"/><circle cx="137.74" cy="165.38" r="1.51"/><circle cx="140.76" cy="165.38" r="1.51"/><circle cx="152.86" cy="165.38" r="1.51"/><circle cx="155.88" cy="165.38" r="1.51"/><circle cx="158.9" cy="165.38" r="1.51"/><circle cx="186.12" cy="165.38" r="1.51"/><circle cx="189.14" cy="165.38" r="1.51"/><circle cx="192.17" cy="165.38" r="1.51"/><circle cx="204.26" cy="165.38" r="1.51"/><circle cx="207.29" cy="165.38" r="1.51"/><circle cx="210.31" cy="165.38" r="1.51"/><circle cx="213.34" cy="165.38" r="1.51"/><circle cx="216.36" cy="165.38" r="1.51"/><circle cx="219.38" cy="165.38" r="1.51"/><circle cx="225.43" cy="165.38" r="1.51"/><circle cx="228.46" cy="165.38" r="1.51"/><circle cx="134.71" cy="168.41" r="1.51"/><circle cx="137.74" cy="168.41" r="1.51"/><circle cx="140.76" cy="168.41" r="1.51"/><circle cx="143.78" cy="168.41" r="1.51"/><circle cx="152.86" cy="168.41" r="1.51"/><circle cx="161.93" cy="168.41" r="1.51"/><circle cx="171" cy="168.41" r="1.51"/><circle cx="177.05" cy="168.41" r="1.51"/><circle cx="180.07" cy="168.41" r="1.51"/><circle cx="183.1" cy="168.41" r="1.51"/><circle cx="189.14" cy="168.41" r="1.51"/><circle cx="192.17" cy="168.41" r="1.51"/><circle cx="198.22" cy="168.41" r="1.51"/><circle cx="204.26" cy="168.41" r="1.51"/><circle cx="210.31" cy="168.41" r="1.51"/><circle cx="219.38" cy="168.41" r="1.51"/><circle cx="222.41" cy="168.41" r="1.51"/><circle cx="225.43" cy="168.41" r="1.51"/><circle cx="228.46" cy="168.41" r="1.51"/><circle cx="134.71" cy="171.43" r="1.51"/><circle cx="137.74" cy="171.43" r="1.51"/><circle cx="140.76" cy="171.43" r="1.51"/><circle cx="146.81" cy="171.43" r="1.51"/><circle cx="152.86" cy="171.43" r="1.51"/><circle cx="161.93" cy="171.43" r="1.51"/><circle cx="167.98" cy="171.43" r="1.51"/><circle cx="174.02" cy="171.43" r="1.51"/><circle cx="180.07" cy="171.43" r="1.51"/><circle cx="189.14" cy="171.43" r="1.51"/><circle cx="198.22" cy="171.43" r="1.51"/><circle cx="201.24" cy="171.43" r="1.51"/><circle cx="210.31" cy="171.43" r="1.51"/><circle cx="213.34" cy="171.43" r="1.51"/><circle cx="216.36" cy="171.43" r="1.51"/><circle cx="219.38" cy="171.43" r="1.51"/><circle cx="222.41" cy="171.43" r="1.51"/><circle cx="225.43" cy="171.43" r="1.51"/><circle cx="231.48" cy="171.43" r="1.51"/><circle cx="134.71" cy="174.46" r="1.51"/><circle cx="140.76" cy="174.46" r="1.51"/><circle cx="146.81" cy="174.46" r="1.51"/><circle cx="152.86" cy="174.46" r="1.51"/><circle cx="155.88" cy="174.46" r="1.51"/><circle cx="161.93" cy="174.46" r="1.51"/><circle cx="164.95" cy="174.46" r="1.51"/><circle cx="174.02" cy="174.46" r="1.51"/><circle cx="180.07" cy="174.46" r="1.51"/><circle cx="183.1" cy="174.46" r="1.51"/><circle cx="186.12" cy="174.46" r="1.51"/><circle cx="189.14" cy="174.46" r="1.51"/><circle cx="195.19" cy="174.46" r="1.51"/><circle cx="198.22" cy="174.46" r="1.51"/><circle cx="201.24" cy="174.46" r="1.51"/><circle cx="222.41" cy="174.46" r="1.51"/><circle cx="225.43" cy="174.46" r="1.51"/><circle cx="231.48" cy="174.46" r="1.51"/><circle cx="134.71" cy="177.48" r="1.51"/><circle cx="137.74" cy="177.48" r="1.51"/><circle cx="143.78" cy="177.48" r="1.51"/><circle cx="146.81" cy="177.48" r="1.51"/><circle cx="149.83" cy="177.48" r="1.51"/><circle cx="158.9" cy="177.48" r="1.51"/><circle cx="161.93" cy="177.48" r="1.51"/><circle cx="164.95" cy="177.48" r="1.51"/><circle cx="177.05" cy="177.48" r="1.51"/><circle cx="180.07" cy="177.48" r="1.51"/><circle cx="183.1" cy="177.48" r="1.51"/><circle cx="189.14" cy="177.48" r="1.51"/><circle cx="195.19" cy="177.48" r="1.51"/><circle cx="198.22" cy="177.48" r="1.51"/><circle cx="201.24" cy="177.48" r="1.51"/><circle cx="213.34" cy="177.48" r="1.51"/><circle cx="216.36" cy="177.48" r="1.51"/><circle cx="225.43" cy="177.48" r="1.51"/><circle cx="228.46" cy="177.48" r="1.51"/><path d="M109.65,55a.66.66,0,0,0-.65.65V75.53a.65.65,0,0,0,.65.65h19.88a.65.65,0,0,0,.65-.65V55.65a.66.66,0,0,0-.65-.65Zm17.5,6.06V72.78a.36.36,0,0,1-.37.37H112.4a.37.37,0,0,1-.37-.37V58.4a.38.38,0,0,1,.37-.37h14.38a.37.37,0,0,1,.37.37Z"/><path d="M124.13,67.1V61.7a.65.65,0,0,0-.65-.65H115.7a.65.65,0,0,0-.65.65v7.79a.65.65,0,0,0,.65.64h7.78a.65.65,0,0,0,.65-.64Z"/><path d="M212.47,55a.66.66,0,0,0-.65.65V75.53a.65.65,0,0,0,.65.65h19.88a.66.66,0,0,0,.65-.65V55.65a.66.66,0,0,0-.65-.65ZM230,61.06V72.78a.37.37,0,0,1-.37.37H215.22a.36.36,0,0,1-.37-.37V58.4a.37.37,0,0,1,.37-.37H229.6a.38.38,0,0,1,.37.37Z"/><path d="M226.94,67.1V61.7a.64.64,0,0,0-.64-.65h-7.79a.65.65,0,0,0-.64.65v7.79a.64.64,0,0,0,.64.64h7.79a.64.64,0,0,0,.64-.64Z"/><path d="M109.65,157.82a.66.66,0,0,0-.65.65v19.88a.66.66,0,0,0,.65.65h19.88a.65.65,0,0,0,.65-.65V158.47a.65.65,0,0,0-.65-.65Zm17.5,6.05V175.6a.37.37,0,0,1-.37.37H112.4a.38.38,0,0,1-.37-.37V161.22a.37.37,0,0,1,.37-.37h14.38a.36.36,0,0,1,.37.37Z"/><path d="M124.13,169.92v-5.41a.65.65,0,0,0-.65-.64H115.7a.65.65,0,0,0-.65.64v7.79a.65.65,0,0,0,.65.65h7.78a.65.65,0,0,0,.65-.65Z"/></g></g></svg>