<svg xmlns="http://www.w3.org/2000/svg" viewBox="0 0 342 234"><defs><style>.cls-1{fill:#f16522;}.cls-2{opacity:0.21;}.cls-3{opacity:0.5;}.cls-4{fill:#fff;}</style></defs><g id="Layer_2" data-name="Layer 2"><g id="orange_export_qr_with_background" data-name="orange export qr with background"><rect id="background" class="cls-1" width="342" height="234" rx="18"/><g id="link_icons" data-name="link icons" class="cls-2"><path class="cls-3" d="M34.88,71.56A15.66,15.66,0,0,1,12.74,49.42L23.81,38.34a15.69,15.69,0,0,1,22.15,0c1.27.23,2,2,1.81,3.24a2.34,2.34,0,0,1-2.71,1.9,4.25,4.25,0,0,1-2.43-1.81,10.87,10.87,0,0,0-15.5,0L16.06,52.74a11,11,0,0,0,15.5,15.5l10-10a2.35,2.35,0,0,1,3.37,3.28s0,0,0,.05l-10,10ZM57,49.42a15.69,15.69,0,0,1-22.15,0,2.35,2.35,0,0,1,3.32-3.33h0a10.88,10.88,0,0,0,15.51,0L64.78,35a11,11,0,0,0-15.5-15.5l-10,10a2.35,2.35,0,1,1-3.37-3.27l.05-.05,10-10A15.66,15.66,0,1,1,68.1,38.34Z"/><path class="cls-3" d="M101.92,71.56A15.66,15.66,0,0,1,79.77,49.42L90.85,38.34a15.68,15.68,0,0,1,22.14,0c1.28.23,2.05,2,1.82,3.24a2.34,2.34,0,0,1-2.72,1.9,4.26,4.26,0,0,1-2.42-1.81,10.87,10.87,0,0,0-15.5,0L83.1,52.74a11,11,0,0,0,15.5,15.5l10-10a2.35,2.35,0,0,1,3.37,3.28l0,.05-10,10Zm22.15-22.14a15.69,15.69,0,0,1-22.15,0,2.35,2.35,0,0,1,3.32-3.33h0a10.87,10.87,0,0,0,15.5,0L131.82,35a11,11,0,0,0-15.5-15.5l-10,10A2.35,2.35,0,0,1,103,26.21l0-.05,10-10a15.66,15.66,0,1,1,22.15,22.14Z"/><path class="cls-3" d="M169,71.56a15.66,15.66,0,1,1-22.15-22.14l11.08-11.08a15.68,15.68,0,0,1,22.14,0c1.28.23,2,2,1.82,3.24a2.34,2.34,0,0,1-2.72,1.9,4.23,4.23,0,0,1-2.42-1.81,10.87,10.87,0,0,0-15.5,0L150.13,52.74a11,11,0,0,0,15.51,15.5l10-10A2.35,2.35,0,0,1,179,61.55s0,0-.05.05l-10,10ZM191.1,49.42a15.68,15.68,0,0,1-22.14,0,2.35,2.35,0,0,1,3.32-3.33h0a10.87,10.87,0,0,0,15.5,0L198.86,35a11,11,0,1,0-15.51-15.5l-10,10A2.35,2.35,0,1,1,170,26.21s0,0,0-.05l10-10a15.66,15.66,0,1,1,22.15,22.14Z"/><path class="cls-3" d="M236,71.56a15.66,15.66,0,0,1-22.15-22.14l11.07-11.08a15.69,15.69,0,0,1,22.15,0c1.28.23,2,2,1.82,3.24a2.34,2.34,0,0,1-2.72,1.9,4.23,4.23,0,0,1-2.42-1.81,10.87,10.87,0,0,0-15.5,0L217.17,52.74a11,11,0,0,0,15.5,15.5l10-10A2.35,2.35,0,0,1,246,61.55l0,.05-10,10Zm22.14-22.14a15.68,15.68,0,0,1-22.14,0,2.35,2.35,0,0,1,3.32-3.33h0a10.87,10.87,0,0,0,15.5,0L265.89,35a11,11,0,0,0-15.5-15.5l-10,10a2.35,2.35,0,1,1-3.37-3.27l0-.05,10-10a15.66,15.66,0,0,1,22.15,22.14Z"/><path class="cls-3" d="M303,71.56a15.66,15.66,0,0,1-22.15-22.14L292,38.34a15.69,15.69,0,0,1,22.15,0c1.28.23,2,2,1.82,3.24a2.35,2.35,0,0,1-2.72,1.9,4.2,4.2,0,0,1-2.42-1.81,10.88,10.88,0,0,0-15.51,0L284.21,52.74a11,11,0,0,0,15.5,15.5l10-10a2.35,2.35,0,0,1,3.37,3.28l-.05.05-10,10Zm22.14-22.14a15.68,15.68,0,0,1-22.14,0,2.35,2.35,0,0,1,3.32-3.33h0a10.87,10.87,0,0,0,15.5,0L332.93,35a11,11,0,0,0-15.5-15.5l-10,10a2.34,2.34,0,1,1-3.36-3.27l0-.05,10-10a15.66,15.66,0,0,1,22.14,22.14Z"/><path class="cls-3" d="M34.12,219.46A15.66,15.66,0,0,1,12,197.32l11.07-11.08a15.69,15.69,0,0,1,22.15,0c1.27.23,2,2,1.82,3.24a2.37,2.37,0,0,1-2.72,1.91,4.31,4.31,0,0,1-2.43-1.82,10.87,10.87,0,0,0-15.5,0L15.3,200.64a11,11,0,0,0,15.5,15.5l10-10a2.35,2.35,0,1,1,3.37,3.27l0,.05-10,10Zm22.15-22.14a15.69,15.69,0,0,1-22.15,0A2.35,2.35,0,1,1,37.45,194h0A10.89,10.89,0,0,0,53,194L64,182.92a11,11,0,0,0-15.5-15.5l-10,10a2.35,2.35,0,0,1-3.37-3.28l0-.05,10-10a15.66,15.66,0,0,1,22.14,22.14Z"/><path class="cls-3" d="M101.16,219.46A15.66,15.66,0,0,1,79,197.32l11.07-11.08a15.68,15.68,0,0,1,22.14,0c1.28.23,2,2,1.82,3.24a2.36,2.36,0,0,1-2.72,1.91,4.33,4.33,0,0,1-2.42-1.82,10.87,10.87,0,0,0-15.5,0L82.34,200.64a11,11,0,0,0,15.5,15.5l10-10a2.34,2.34,0,1,1,3.36,3.27l0,.05-10,10Zm22.15-22.14a15.69,15.69,0,0,1-22.15,0,2.35,2.35,0,1,1,3.32-3.32h0A10.9,10.9,0,0,0,120,194l11.07-11.08a11,11,0,0,0-15.5-15.5l-10,10a2.35,2.35,0,0,1-3.37-3.28l0-.05,10-10a15.66,15.66,0,0,1,22.14,22.14Z"/><path class="cls-3" d="M168.2,219.46a15.66,15.66,0,0,1-22.15-22.14l11.08-11.08a15.68,15.68,0,0,1,22.14,0c1.28.23,2,2,1.82,3.24a2.36,2.36,0,0,1-2.72,1.91,4.29,4.29,0,0,1-2.42-1.82,10.87,10.87,0,0,0-15.5,0l-11.07,11.07a11,11,0,0,0,15.5,15.5l10-10a2.35,2.35,0,1,1,3.37,3.27l0,.05-10,10Zm22.15-22.14a15.69,15.69,0,0,1-22.15,0,2.35,2.35,0,0,1,3.32-3.32h0a10.89,10.89,0,0,0,15.5,0l11.08-11.08a11,11,0,0,0-15.5-15.5l-10,10a2.35,2.35,0,0,1-3.37-3.28l.05-.05,10-10a15.66,15.66,0,0,1,22.15,22.14Z"/><path class="cls-3" d="M235.24,219.46a15.66,15.66,0,0,1-22.15-22.14l11.08-11.08a15.68,15.68,0,0,1,22.14,0c1.28.23,2,2,1.82,3.24a2.36,2.36,0,0,1-2.72,1.91,4.29,4.29,0,0,1-2.42-1.82,10.87,10.87,0,0,0-15.5,0l-11.08,11.07a11,11,0,0,0,15.51,15.5l10-10a2.35,2.35,0,0,1,3.37,3.27s0,0-.05.05l-10,10Zm22.14-22.14a15.68,15.68,0,0,1-22.14,0,2.35,2.35,0,0,1,3.32-3.32h0a10.89,10.89,0,0,0,15.5,0l11.08-11.08a11,11,0,0,0-15.51-15.5l-10,10a2.35,2.35,0,0,1-3.37-3.28l0-.05,10-10a15.66,15.66,0,0,1,22.15,22.14Z"/><path class="cls-3" d="M302.28,219.46a15.66,15.66,0,0,1-22.15-22.14l11.07-11.08a15.69,15.69,0,0,1,22.15,0c1.28.23,2,2,1.82,3.24a2.36,2.36,0,0,1-2.72,1.91,4.26,4.26,0,0,1-2.42-1.82,10.87,10.87,0,0,0-15.5,0l-11.08,11.07a11,11,0,0,0,15.5,15.5l10-10a2.35,2.35,0,1,1,3.37,3.27l-.05.05-10,10Zm22.14-22.14a15.68,15.68,0,0,1-22.14,0A2.35,2.35,0,0,1,305.6,194h0a10.89,10.89,0,0,0,15.5,0l11.07-11.08a11,11,0,0,0-15.5-15.5l-10,10a2.35,2.35,0,0,1-3.37-3.28l0-.05,10-10a15.66,15.66,0,0,1,22.15,22.14Z"/></g><rect class="cls-4" x="99" y="45" width="144" height="144" rx="11.52"/></g><g id="_04" data-name="04"><circle cx="145.3" cy="58.25" r="1.84"/><circle cx="163.66" cy="58.25" r="1.84"/><circle cx="189.36" cy="58.25" r="1.84"/><circle cx="141.62" cy="61.92" r="1.84"/><circle cx="145.3" cy="61.92" r="1.84"/><circle cx="152.64" cy="61.92" r="1.84"/><circle cx="156.31" cy="61.92" r="1.84"/><circle cx="159.98" cy="61.92" r="1.84"/><circle cx="163.66" cy="61.92" r="1.84"/><circle cx="167.33" cy="61.92" r="1.84"/><circle cx="171" cy="61.92" r="1.84"/><circle cx="174.67" cy="61.92" r="1.84"/><circle cx="193.03" cy="61.92" r="1.84"/><circle cx="200.38" cy="61.92" r="1.84"/><circle cx="145.3" cy="65.59" r="1.84"/><circle cx="148.97" cy="65.59" r="1.84"/><circle cx="152.64" cy="65.59" r="1.84"/><circle cx="159.98" cy="65.59" r="1.84"/><circle cx="171" cy="65.59" r="1.84"/><circle cx="182.02" cy="65.59" r="1.84"/><circle cx="185.69" cy="65.59" r="1.84"/><circle cx="193.03" cy="65.59" r="1.84"/><circle cx="196.7" cy="65.59" r="1.84"/><circle cx="141.62" cy="69.26" r="1.84"/><circle cx="145.3" cy="69.26" r="1.84"/><circle cx="152.64" cy="69.26" r="1.84"/><circle cx="167.33" cy="69.26" r="1.84"/><circle cx="171" cy="69.26" r="1.84"/><circle cx="178.34" cy="69.26" r="1.84"/><circle cx="189.36" cy="69.26" r="1.84"/><circle cx="148.97" cy="72.94" r="1.84"/><circle cx="156.31" cy="72.94" r="1.84"/><circle cx="163.66" cy="72.94" r="1.84"/><circle cx="178.34" cy="72.94" r="1.84"/><circle cx="182.02" cy="72.94" r="1.84"/><circle cx="185.69" cy="72.94" r="1.84"/><circle cx="189.36" cy="72.94" r="1.84"/><circle cx="193.03" cy="72.94" r="1.84"/><circle cx="196.7" cy="72.94" r="1.84"/><circle cx="141.62" cy="76.61" r="1.84"/><circle cx="148.97" cy="76.61" r="1.84"/><circle cx="159.98" cy="76.61" r="1.84"/><circle cx="163.66" cy="76.61" r="1.84"/><circle cx="167.33" cy="76.61" r="1.84"/><circle cx="171" cy="76.61" r="1.84"/><circle cx="174.67" cy="76.61" r="1.84"/><circle cx="182.02" cy="76.61" r="1.84"/><circle cx="193.03" cy="76.61" r="1.84"/><circle cx="196.7" cy="76.61" r="1.84"/><circle cx="200.38" cy="76.61" r="1.84"/><circle cx="141.62" cy="80.28" r="1.84"/><circle cx="148.97" cy="80.28" r="1.84"/><circle cx="156.31" cy="80.28" r="1.84"/><circle cx="163.66" cy="80.28" r="1.84"/><circle cx="171" cy="80.28" r="1.84"/><circle cx="178.34" cy="80.28" r="1.84"/><circle cx="185.69" cy="80.28" r="1.84"/><circle cx="193.03" cy="80.28" r="1.84"/><circle cx="200.38" cy="80.28" r="1.84"/><circle cx="156.31" cy="83.95" r="1.84"/><circle cx="159.98" cy="83.95" r="1.84"/><circle cx="171" cy="83.95" r="1.84"/><circle cx="182.02" cy="83.95" r="1.84"/><circle cx="185.69" cy="83.95" r="1.84"/><circle cx="189.36" cy="83.95" r="1.84"/><circle cx="193.03" cy="83.95" r="1.84"/><circle cx="196.7" cy="83.95" r="1.84"/><circle cx="200.38" cy="83.95" r="1.84"/><circle cx="112.25" cy="87.62" r="1.84"/><circle cx="115.92" cy="87.62" r="1.84"/><circle cx="119.59" cy="87.62" r="1.84"/><circle cx="123.26" cy="87.62" r="1.84"/><circle cx="126.94" cy="87.62" r="1.84"/><circle cx="134.28" cy="87.62" r="1.84"/><circle cx="137.95" cy="87.62" r="1.84"/><circle cx="141.62" cy="87.62" r="1.84"/><circle cx="145.3" cy="87.62" r="1.84"/><circle cx="148.97" cy="87.62" r="1.84"/><circle cx="156.31" cy="87.62" r="1.84"/><circle cx="159.98" cy="87.62" r="1.84"/><circle cx="163.66" cy="87.62" r="1.84"/><circle cx="167.33" cy="87.62" r="1.84"/><circle cx="171" cy="87.62" r="1.84"/><circle cx="178.34" cy="87.62" r="1.84"/><circle cx="185.69" cy="87.62" r="1.84"/><circle cx="204.05" cy="87.62" r="1.84"/><circle cx="211.39" cy="87.62" r="1.84"/><circle cx="218.74" cy="87.62" r="1.84"/><circle cx="226.08" cy="87.62" r="1.84"/><circle cx="112.25" cy="91.3" r="1.84"/><circle cx="123.26" cy="91.3" r="1.84"/><circle cx="126.94" cy="91.3" r="1.84"/><circle cx="137.95" cy="91.3" r="1.84"/><circle cx="141.62" cy="91.3" r="1.84"/><circle cx="145.3" cy="91.3" r="1.84"/><circle cx="167.33" cy="91.3" r="1.84"/><circle cx="171" cy="91.3" r="1.84"/><circle cx="178.34" cy="91.3" r="1.84"/><circle cx="185.69" cy="91.3" r="1.84"/><circle cx="189.36" cy="91.3" r="1.84"/><circle cx="193.03" cy="91.3" r="1.84"/><circle cx="218.74" cy="91.3" r="1.84"/><circle cx="222.41" cy="91.3" r="1.84"/><circle cx="130.61" cy="94.97" r="1.84"/><circle cx="134.28" cy="94.97" r="1.84"/><circle cx="145.3" cy="94.97" r="1.84"/><circle cx="152.64" cy="94.97" r="1.84"/><circle cx="156.31" cy="94.97" r="1.84"/><circle cx="159.98" cy="94.97" r="1.84"/><circle cx="163.66" cy="94.97" r="1.84"/><circle cx="167.33" cy="94.97" r="1.84"/><circle cx="174.67" cy="94.97" r="1.84"/><circle cx="185.69" cy="94.97" r="1.84"/><circle cx="193.03" cy="94.97" r="1.84"/><circle cx="196.7" cy="94.97" r="1.84"/><circle cx="200.38" cy="94.97" r="1.84"/><circle cx="204.05" cy="94.97" r="1.84"/><circle cx="215.06" cy="94.97" r="1.84"/><circle cx="218.74" cy="94.97" r="1.84"/><circle cx="226.08" cy="94.97" r="1.84"/><circle cx="112.25" cy="98.64" r="1.84"/><circle cx="123.26" cy="98.64" r="1.84"/><circle cx="126.94" cy="98.64" r="1.84"/><circle cx="137.95" cy="98.64" r="1.84"/><circle cx="141.62" cy="98.64" r="1.84"/><circle cx="145.3" cy="98.64" r="1.84"/><circle cx="148.97" cy="98.64" r="1.84"/><circle cx="152.64" cy="98.64" r="1.84"/><circle cx="171" cy="98.64" r="1.84"/><circle cx="182.02" cy="98.64" r="1.84"/><circle cx="185.69" cy="98.64" r="1.84"/><circle cx="189.36" cy="98.64" r="1.84"/><circle cx="196.7" cy="98.64" r="1.84"/><circle cx="207.72" cy="98.64" r="1.84"/><circle cx="222.41" cy="98.64" r="1.84"/><circle cx="226.08" cy="98.64" r="1.84"/><circle cx="229.75" cy="98.64" r="1.84"/><circle cx="115.92" cy="102.31" r="1.84"/><circle cx="123.26" cy="102.31" r="1.84"/><circle cx="126.94" cy="102.31" r="1.84"/><circle cx="134.28" cy="102.31" r="1.84"/><circle cx="137.95" cy="102.31" r="1.84"/><circle cx="141.62" cy="102.31" r="1.84"/><circle cx="145.3" cy="102.31" r="1.84"/><circle cx="152.64" cy="102.31" r="1.84"/><circle cx="159.98" cy="102.31" r="1.84"/><circle cx="163.66" cy="102.31" r="1.84"/><circle cx="167.33" cy="102.31" r="1.84"/><circle cx="174.67" cy="102.31" r="1.84"/><circle cx="178.34" cy="102.31" r="1.84"/><circle cx="185.69" cy="102.31" r="1.84"/><circle cx="193.03" cy="102.31" r="1.84"/><circle cx="207.72" cy="102.31" r="1.84"/><circle cx="215.06" cy="102.31" r="1.84"/><circle cx="222.41" cy="102.31" r="1.84"/><circle cx="226.08" cy="102.31" r="1.84"/><circle cx="126.94" cy="105.98" r="1.84"/><circle cx="148.97" cy="105.98" r="1.84"/><circle cx="156.31" cy="105.98" r="1.84"/><circle cx="163.66" cy="105.98" r="1.84"/><circle cx="167.33" cy="105.98" r="1.84"/><circle cx="171" cy="105.98" r="1.84"/><circle cx="178.34" cy="105.98" r="1.84"/><circle cx="185.69" cy="105.98" r="1.84"/><circle cx="189.36" cy="105.98" r="1.84"/><circle cx="193.03" cy="105.98" r="1.84"/><circle cx="196.7" cy="105.98" r="1.84"/><circle cx="204.05" cy="105.98" r="1.84"/><circle cx="211.39" cy="105.98" r="1.84"/><circle cx="218.74" cy="105.98" r="1.84"/><circle cx="222.41" cy="105.98" r="1.84"/><circle cx="112.25" cy="109.66" r="1.84"/><circle cx="123.26" cy="109.66" r="1.84"/><circle cx="126.94" cy="109.66" r="1.84"/><circle cx="134.28" cy="109.66" r="1.84"/><circle cx="137.95" cy="109.66" r="1.84"/><circle cx="141.62" cy="109.66" r="1.84"/><circle cx="145.3" cy="109.66" r="1.84"/><circle cx="159.98" cy="109.66" r="1.84"/><circle cx="174.67" cy="109.66" r="1.84"/><circle cx="182.02" cy="109.66" r="1.84"/><circle cx="193.03" cy="109.66" r="1.84"/><circle cx="196.7" cy="109.66" r="1.84"/><circle cx="200.38" cy="109.66" r="1.84"/><circle cx="204.05" cy="109.66" r="1.84"/><circle cx="215.06" cy="109.66" r="1.84"/><circle cx="218.74" cy="109.66" r="1.84"/><circle cx="226.08" cy="109.66" r="1.84"/><circle cx="112.25" cy="113.33" r="1.84"/><circle cx="115.92" cy="113.33" r="1.84"/><circle cx="123.26" cy="113.33" r="1.84"/><circle cx="126.94" cy="113.33" r="1.84"/><circle cx="137.95" cy="113.33" r="1.84"/><circle cx="141.62" cy="113.33" r="1.84"/><circle cx="156.31" cy="113.33" r="1.84"/><circle cx="159.98" cy="113.33" r="1.84"/><circle cx="171" cy="113.33" r="1.84"/><circle cx="178.34" cy="113.33" r="1.84"/><circle cx="182.02" cy="113.33" r="1.84"/><circle cx="189.36" cy="113.33" r="1.84"/><circle cx="193.03" cy="113.33" r="1.84"/><circle cx="196.7" cy="113.33" r="1.84"/><circle cx="207.72" cy="113.33" r="1.84"/><circle cx="222.41" cy="113.33" r="1.84"/><circle cx="226.08" cy="113.33" r="1.84"/><circle cx="229.75" cy="113.33" r="1.84"/><circle cx="115.92" cy="117" r="1.84"/><circle cx="123.26" cy="117" r="1.84"/><circle cx="126.94" cy="117" r="1.84"/><circle cx="134.28" cy="117" r="1.84"/><circle cx="145.3" cy="117" r="1.84"/><circle cx="148.97" cy="117" r="1.84"/><circle cx="156.31" cy="117" r="1.84"/><circle cx="159.98" cy="117" r="1.84"/><circle cx="163.66" cy="117" r="1.84"/><circle cx="167.33" cy="117" r="1.84"/><circle cx="204.05" cy="117" r="1.84"/><circle cx="207.72" cy="117" r="1.84"/><circle cx="218.74" cy="117" r="1.84"/><circle cx="226.08" cy="117" r="1.84"/><circle cx="112.25" cy="120.67" r="1.84"/><circle cx="115.92" cy="120.67" r="1.84"/><circle cx="119.59" cy="120.67" r="1.84"/><circle cx="141.62" cy="120.67" r="1.84"/><circle cx="145.3" cy="120.67" r="1.84"/><circle cx="148.97" cy="120.67" r="1.84"/><circle cx="163.66" cy="120.67" r="1.84"/><circle cx="182.02" cy="120.67" r="1.84"/><circle cx="185.69" cy="120.67" r="1.84"/><circle cx="189.36" cy="120.67" r="1.84"/><circle cx="196.7" cy="120.67" r="1.84"/><circle cx="200.38" cy="120.67" r="1.84"/><circle cx="207.72" cy="120.67" r="1.84"/><circle cx="222.41" cy="120.67" r="1.84"/><circle cx="112.25" cy="124.34" r="1.84"/><circle cx="115.92" cy="124.34" r="1.84"/><circle cx="119.59" cy="124.34" r="1.84"/><circle cx="134.28" cy="124.34" r="1.84"/><circle cx="145.3" cy="124.34" r="1.84"/><circle cx="152.64" cy="124.34" r="1.84"/><circle cx="156.31" cy="124.34" r="1.84"/><circle cx="167.33" cy="124.34" r="1.84"/><circle cx="174.67" cy="124.34" r="1.84"/><circle cx="182.02" cy="124.34" r="1.84"/><circle cx="193.03" cy="124.34" r="1.84"/><circle cx="200.38" cy="124.34" r="1.84"/><circle cx="204.05" cy="124.34" r="1.84"/><circle cx="215.06" cy="124.34" r="1.84"/><circle cx="218.74" cy="124.34" r="1.84"/><circle cx="229.75" cy="124.34" r="1.84"/><circle cx="112.25" cy="128.02" r="1.84"/><circle cx="115.92" cy="128.02" r="1.84"/><circle cx="126.94" cy="128.02" r="1.84"/><circle cx="137.95" cy="128.02" r="1.84"/><circle cx="141.62" cy="128.02" r="1.84"/><circle cx="145.3" cy="128.02" r="1.84"/><circle cx="152.64" cy="128.02" r="1.84"/><circle cx="171" cy="128.02" r="1.84"/><circle cx="178.34" cy="128.02" r="1.84"/><circle cx="182.02" cy="128.02" r="1.84"/><circle cx="185.69" cy="128.02" r="1.84"/><circle cx="189.36" cy="128.02" r="1.84"/><circle cx="196.7" cy="128.02" r="1.84"/><circle cx="207.72" cy="128.02" r="1.84"/><circle cx="229.75" cy="128.02" r="1.84"/><circle cx="126.94" cy="131.69" r="1.84"/><circle cx="134.28" cy="131.69" r="1.84"/><circle cx="141.62" cy="131.69" r="1.84"/><circle cx="145.3" cy="131.69" r="1.84"/><circle cx="148.97" cy="131.69" r="1.84"/><circle cx="152.64" cy="131.69" r="1.84"/><circle cx="167.33" cy="131.69" r="1.84"/><circle cx="171" cy="131.69" r="1.84"/><circle cx="174.67" cy="131.69" r="1.84"/><circle cx="178.34" cy="131.69" r="1.84"/><circle cx="185.69" cy="131.69" r="1.84"/><circle cx="189.36" cy="131.69" r="1.84"/><circle cx="200.38" cy="131.69" r="1.84"/><circle cx="204.05" cy="131.69" r="1.84"/><circle cx="211.39" cy="131.69" r="1.84"/><circle cx="226.08" cy="131.69" r="1.84"/><circle cx="112.25" cy="135.36" r="1.84"/><circle cx="123.26" cy="135.36" r="1.84"/><circle cx="126.94" cy="135.36" r="1.84"/><circle cx="130.61" cy="135.36" r="1.84"/><circle cx="148.97" cy="135.36" r="1.84"/><circle cx="156.31" cy="135.36" r="1.84"/><circle cx="159.98" cy="135.36" r="1.84"/><circle cx="167.33" cy="135.36" r="1.84"/><circle cx="171" cy="135.36" r="1.84"/><circle cx="189.36" cy="135.36" r="1.84"/><circle cx="193.03" cy="135.36" r="1.84"/><circle cx="196.7" cy="135.36" r="1.84"/><circle cx="204.05" cy="135.36" r="1.84"/><circle cx="222.41" cy="135.36" r="1.84"/><circle cx="229.75" cy="135.36" r="1.84"/><circle cx="112.25" cy="139.03" r="1.84"/><circle cx="119.59" cy="139.03" r="1.84"/><circle cx="134.28" cy="139.03" r="1.84"/><circle cx="145.3" cy="139.03" r="1.84"/><circle cx="159.98" cy="139.03" r="1.84"/><circle cx="163.66" cy="139.03" r="1.84"/><circle cx="174.67" cy="139.03" r="1.84"/><circle cx="193.03" cy="139.03" r="1.84"/><circle cx="196.7" cy="139.03" r="1.84"/><circle cx="200.38" cy="139.03" r="1.84"/><circle cx="204.05" cy="139.03" r="1.84"/><circle cx="211.39" cy="139.03" r="1.84"/><circle cx="215.06" cy="139.03" r="1.84"/><circle cx="226.08" cy="139.03" r="1.84"/><circle cx="229.75" cy="139.03" r="1.84"/><circle cx="112.25" cy="142.7" r="1.84"/><circle cx="119.59" cy="142.7" r="1.84"/><circle cx="126.94" cy="142.7" r="1.84"/><circle cx="137.95" cy="142.7" r="1.84"/><circle cx="156.31" cy="142.7" r="1.84"/><circle cx="159.98" cy="142.7" r="1.84"/><circle cx="174.67" cy="142.7" r="1.84"/><circle cx="178.34" cy="142.7" r="1.84"/><circle cx="182.02" cy="142.7" r="1.84"/><circle cx="185.69" cy="142.7" r="1.84"/><circle cx="189.36" cy="142.7" r="1.84"/><circle cx="193.03" cy="142.7" r="1.84"/><circle cx="196.7" cy="142.7" r="1.84"/><circle cx="200.38" cy="142.7" r="1.84"/><circle cx="204.05" cy="142.7" r="1.84"/><circle cx="207.72" cy="142.7" r="1.84"/><circle cx="218.74" cy="142.7" r="1.84"/><circle cx="226.08" cy="142.7" r="1.84"/><circle cx="229.75" cy="142.7" r="1.84"/><circle cx="112.25" cy="146.38" r="1.84"/><circle cx="123.26" cy="146.38" r="1.84"/><circle cx="130.61" cy="146.38" r="1.84"/><circle cx="134.28" cy="146.38" r="1.84"/><circle cx="141.62" cy="146.38" r="1.84"/><circle cx="145.3" cy="146.38" r="1.84"/><circle cx="148.97" cy="146.38" r="1.84"/><circle cx="156.31" cy="146.38" r="1.84"/><circle cx="163.66" cy="146.38" r="1.84"/><circle cx="167.33" cy="146.38" r="1.84"/><circle cx="178.34" cy="146.38" r="1.84"/><circle cx="185.69" cy="146.38" r="1.84"/><circle cx="189.36" cy="146.38" r="1.84"/><circle cx="200.38" cy="146.38" r="1.84"/><circle cx="204.05" cy="146.38" r="1.84"/><circle cx="207.72" cy="146.38" r="1.84"/><circle cx="211.39" cy="146.38" r="1.84"/><circle cx="215.06" cy="146.38" r="1.84"/><circle cx="218.74" cy="146.38" r="1.84"/><circle cx="141.62" cy="150.05" r="1.84"/><circle cx="148.97" cy="150.05" r="1.84"/><circle cx="167.33" cy="150.05" r="1.84"/><circle cx="171" cy="150.05" r="1.84"/><circle cx="185.69" cy="150.05" r="1.84"/><circle cx="189.36" cy="150.05" r="1.84"/><circle cx="196.7" cy="150.05" r="1.84"/><circle cx="200.38" cy="150.05" r="1.84"/><circle cx="215.06" cy="150.05" r="1.84"/><circle cx="222.41" cy="150.05" r="1.84"/><circle cx="141.62" cy="153.72" r="1.84"/><circle cx="152.64" cy="153.72" r="1.84"/><circle cx="156.31" cy="153.72" r="1.84"/><circle cx="167.33" cy="153.72" r="1.84"/><circle cx="174.67" cy="153.72" r="1.84"/><circle cx="182.02" cy="153.72" r="1.84"/><circle cx="193.03" cy="153.72" r="1.84"/><circle cx="200.38" cy="153.72" r="1.84"/><circle cx="207.72" cy="153.72" r="1.84"/><circle cx="215.06" cy="153.72" r="1.84"/><circle cx="226.08" cy="153.72" r="1.84"/><circle cx="152.64" cy="157.39" r="1.84"/><circle cx="163.66" cy="157.39" r="1.84"/><circle cx="171" cy="157.39" r="1.84"/><circle cx="178.34" cy="157.39" r="1.84"/><circle cx="182.02" cy="157.39" r="1.84"/><circle cx="200.38" cy="157.39" r="1.84"/><circle cx="215.06" cy="157.39" r="1.84"/><circle cx="218.74" cy="157.39" r="1.84"/><circle cx="229.75" cy="157.39" r="1.84"/><circle cx="141.62" cy="161.06" r="1.84"/><circle cx="145.3" cy="161.06" r="1.84"/><circle cx="148.97" cy="161.06" r="1.84"/><circle cx="152.64" cy="161.06" r="1.84"/><circle cx="167.33" cy="161.06" r="1.84"/><circle cx="171" cy="161.06" r="1.84"/><circle cx="178.34" cy="161.06" r="1.84"/><circle cx="185.69" cy="161.06" r="1.84"/><circle cx="189.36" cy="161.06" r="1.84"/><circle cx="196.7" cy="161.06" r="1.84"/><circle cx="200.38" cy="161.06" r="1.84"/><circle cx="204.05" cy="161.06" r="1.84"/><circle cx="207.72" cy="161.06" r="1.84"/><circle cx="211.39" cy="161.06" r="1.84"/><circle cx="215.06" cy="161.06" r="1.84"/><circle cx="218.74" cy="161.06" r="1.84"/><circle cx="229.75" cy="161.06" r="1.84"/><circle cx="141.62" cy="164.74" r="1.84"/><circle cx="145.3" cy="164.74" r="1.84"/><circle cx="148.97" cy="164.74" r="1.84"/><circle cx="156.31" cy="164.74" r="1.84"/><circle cx="159.98" cy="164.74" r="1.84"/><circle cx="163.66" cy="164.74" r="1.84"/><circle cx="167.33" cy="164.74" r="1.84"/><circle cx="171" cy="164.74" r="1.84"/><circle cx="189.36" cy="164.74" r="1.84"/><circle cx="196.7" cy="164.74" r="1.84"/><circle cx="211.39" cy="164.74" r="1.84"/><circle cx="215.06" cy="164.74" r="1.84"/><circle cx="218.74" cy="164.74" r="1.84"/><circle cx="222.41" cy="164.74" r="1.84"/><circle cx="226.08" cy="164.74" r="1.84"/><circle cx="141.62" cy="168.41" r="1.84"/><circle cx="145.3" cy="168.41" r="1.84"/><circle cx="159.98" cy="168.41" r="1.84"/><circle cx="163.66" cy="168.41" r="1.84"/><circle cx="167.33" cy="168.41" r="1.84"/><circle cx="174.67" cy="168.41" r="1.84"/><circle cx="193.03" cy="168.41" r="1.84"/><circle cx="196.7" cy="168.41" r="1.84"/><circle cx="200.38" cy="168.41" r="1.84"/><circle cx="207.72" cy="168.41" r="1.84"/><circle cx="211.39" cy="168.41" r="1.84"/><circle cx="141.62" cy="172.08" r="1.84"/><circle cx="145.3" cy="172.08" r="1.84"/><circle cx="148.97" cy="172.08" r="1.84"/><circle cx="156.31" cy="172.08" r="1.84"/><circle cx="159.98" cy="172.08" r="1.84"/><circle cx="171" cy="172.08" r="1.84"/><circle cx="182.02" cy="172.08" r="1.84"/><circle cx="185.69" cy="172.08" r="1.84"/><circle cx="196.7" cy="172.08" r="1.84"/><circle cx="200.38" cy="172.08" r="1.84"/><circle cx="204.05" cy="172.08" r="1.84"/><circle cx="215.06" cy="172.08" r="1.84"/><circle cx="218.74" cy="172.08" r="1.84"/><circle cx="222.41" cy="172.08" r="1.84"/><circle cx="226.08" cy="172.08" r="1.84"/><circle cx="229.75" cy="172.08" r="1.84"/><circle cx="141.62" cy="175.75" r="1.84"/><circle cx="145.3" cy="175.75" r="1.84"/><circle cx="156.31" cy="175.75" r="1.84"/><circle cx="163.66" cy="175.75" r="1.84"/><circle cx="167.33" cy="175.75" r="1.84"/><circle cx="185.69" cy="175.75" r="1.84"/><circle cx="189.36" cy="175.75" r="1.84"/><circle cx="196.7" cy="175.75" r="1.84"/><circle cx="200.38" cy="175.75" r="1.84"/><circle cx="207.72" cy="175.75" r="1.84"/><circle cx="222.41" cy="175.75" r="1.84"/><circle cx="226.08" cy="175.75" r="1.84"/><path d="M111.19,56.41a.78.78,0,0,0-.78.78V81.34a.78.78,0,0,0,.78.78h24.15a.78.78,0,0,0,.78-.78V57.19a.78.78,0,0,0-.78-.78Zm21.25,7.35V78a.44.44,0,0,1-.44.44H114.53a.45.45,0,0,1-.45-.44V60.53a.45.45,0,0,1,.45-.45H132a.45.45,0,0,1,.44.45Z"/><path d="M128.77,71.1V64.53a.78.78,0,0,0-.78-.78h-9.46a.78.78,0,0,0-.78.78V74a.79.79,0,0,0,.78.79H128a.78.78,0,0,0,.78-.79Z"/><path d="M206.66,56.41a.78.78,0,0,0-.78.78V81.34a.78.78,0,0,0,.78.78h24.15a.78.78,0,0,0,.78-.78V57.19a.78.78,0,0,0-.78-.78Zm21.26,7.35V78a.45.45,0,0,1-.45.44H210a.44.44,0,0,1-.44-.44V60.53a.45.45,0,0,1,.44-.45h17.47a.45.45,0,0,1,.45.45Z"/><path d="M224.24,71.1V64.53a.77.77,0,0,0-.78-.78H214a.79.79,0,0,0-.79.78V74a.79.79,0,0,0,.79.79h9.45a.78.78,0,0,0,.78-.79Z"/><path d="M111.19,151.88a.78.78,0,0,0-.78.78v24.15a.78.78,0,0,0,.78.78h24.15a.78.78,0,0,0,.78-.78V152.66a.78.78,0,0,0-.78-.78Zm21.25,7.35v14.24a.45.45,0,0,1-.44.45H114.53a.45.45,0,0,1-.45-.45V156a.45.45,0,0,1,.45-.44H132a.44.44,0,0,1,.44.44Z"/><path d="M128.77,166.57V160a.79.79,0,0,0-.78-.79h-9.46a.78.78,0,0,0-.78.79v9.46a.78.78,0,0,0,.78.78H128a.78.78,0,0,0,.78-.78Z"/></g></g></svg>