<svg xmlns="http://www.w3.org/2000/svg" viewBox="0 0 342 234"><defs><style>.cls-1{fill:#f16522;}.cls-2{opacity:0.21;}.cls-3{opacity:0.5;}.cls-4{fill:#fff;}</style></defs><g id="Layer_2" data-name="Layer 2"><g id="orange_export_qr_with_background" data-name="orange export qr with background"><rect id="background" class="cls-1" width="342" height="234" rx="18"/><g id="link_icons" data-name="link icons" class="cls-2"><path class="cls-3" d="M34.88,71.56A15.66,15.66,0,0,1,12.74,49.42L23.81,38.34a15.69,15.69,0,0,1,22.15,0c1.27.23,2,2,1.81,3.24a2.34,2.34,0,0,1-2.71,1.9,4.25,4.25,0,0,1-2.43-1.81,10.87,10.87,0,0,0-15.5,0L16.06,52.74a11,11,0,0,0,15.5,15.5l10-10a2.35,2.35,0,0,1,3.37,3.28s0,0,0,.05l-10,10ZM57,49.42a15.69,15.69,0,0,1-22.15,0,2.35,2.35,0,0,1,3.32-3.33h0a10.88,10.88,0,0,0,15.51,0L64.78,35a11,11,0,0,0-15.5-15.5l-10,10a2.35,2.35,0,1,1-3.37-3.27l.05-.05,10-10A15.66,15.66,0,1,1,68.1,38.34Z"/><path class="cls-3" d="M101.92,71.56A15.66,15.66,0,0,1,79.77,49.42L90.85,38.34a15.68,15.68,0,0,1,22.14,0c1.28.23,2.05,2,1.82,3.24a2.34,2.34,0,0,1-2.72,1.9,4.26,4.26,0,0,1-2.42-1.81,10.87,10.87,0,0,0-15.5,0L83.1,52.74a11,11,0,0,0,15.5,15.5l10-10a2.35,2.35,0,0,1,3.37,3.28l0,.05-10,10Zm22.15-22.14a15.69,15.69,0,0,1-22.15,0,2.35,2.35,0,0,1,3.32-3.33h0a10.87,10.87,0,0,0,15.5,0L131.82,35a11,11,0,0,0-15.5-15.5l-10,10A2.35,2.35,0,0,1,103,26.21l0-.05,10-10a15.66,15.66,0,1,1,22.15,22.14Z"/><path class="cls-3" d="M169,71.56a15.66,15.66,0,1,1-22.15-22.14l11.08-11.08a15.68,15.68,0,0,1,22.14,0c1.28.23,2,2,1.82,3.24a2.34,2.34,0,0,1-2.72,1.9,4.23,4.23,0,0,1-2.42-1.81,10.87,10.87,0,0,0-15.5,0L150.13,52.74a11,11,0,0,0,15.51,15.5l10-10A2.35,2.35,0,0,1,179,61.55s0,0-.05.05l-10,10ZM191.1,49.42a15.68,15.68,0,0,1-22.14,0,2.35,2.35,0,0,1,3.32-3.33h0a10.87,10.87,0,0,0,15.5,0L198.86,35a11,11,0,1,0-15.51-15.5l-10,10A2.35,2.35,0,1,1,170,26.21s0,0,0-.05l10-10a15.66,15.66,0,1,1,22.15,22.14Z"/><path class="cls-3" d="M236,71.56a15.66,15.66,0,0,1-22.15-22.14l11.07-11.08a15.69,15.69,0,0,1,22.15,0c1.28.23,2,2,1.82,3.24a2.34,2.34,0,0,1-2.72,1.9,4.23,4.23,0,0,1-2.42-1.81,10.87,10.87,0,0,0-15.5,0L217.17,52.74a11,11,0,0,0,15.5,15.5l10-10A2.35,2.35,0,0,1,246,61.55l0,.05-10,10Zm22.14-22.14a15.68,15.68,0,0,1-22.14,0,2.35,2.35,0,0,1,3.32-3.33h0a10.87,10.87,0,0,0,15.5,0L265.89,35a11,11,0,0,0-15.5-15.5l-10,10a2.35,2.35,0,1,1-3.37-3.27l0-.05,10-10a15.66,15.66,0,0,1,22.15,22.14Z"/><path class="cls-3" d="M303,71.56a15.66,15.66,0,0,1-22.15-22.14L292,38.34a15.69,15.69,0,0,1,22.15,0c1.28.23,2,2,1.82,3.24a2.35,2.35,0,0,1-2.72,1.9,4.2,4.2,0,0,1-2.42-1.81,10.88,10.88,0,0,0-15.51,0L284.21,52.74a11,11,0,0,0,15.5,15.5l10-10a2.35,2.35,0,0,1,3.37,3.28l-.05.05-10,10Zm22.14-22.14a15.68,15.68,0,0,1-22.14,0,2.35,2.35,0,0,1,3.32-3.33h0a10.87,10.87,0,0,0,15.5,0L332.93,35a11,11,0,0,0-15.5-15.5l-10,10a2.34,2.34,0,1,1-3.36-3.27l0-.05,10-10a15.66,15.66,0,0,1,22.14,22.14Z"/><path class="cls-3" d="M34.12,219.46A15.66,15.66,0,0,1,12,197.32l11.07-11.08a15.69,15.69,0,0,1,22.15,0c1.27.23,2,2,1.82,3.24a2.37,2.37,0,0,1-2.72,1.91,4.31,4.31,0,0,1-2.43-1.82,10.87,10.87,0,0,0-15.5,0L15.3,200.64a11,11,0,0,0,15.5,15.5l10-10a2.35,2.35,0,1,1,3.37,3.27l0,.05-10,10Zm22.15-22.14a15.69,15.69,0,0,1-22.15,0A2.35,2.35,0,1,1,37.45,194h0A10.89,10.89,0,0,0,53,194L64,182.92a11,11,0,0,0-15.5-15.5l-10,10a2.35,2.35,0,0,1-3.37-3.28l0-.05,10-10a15.66,15.66,0,0,1,22.14,22.14Z"/><path class="cls-3" d="M101.16,219.46A15.66,15.66,0,0,1,79,197.32l11.07-11.08a15.68,15.68,0,0,1,22.14,0c1.28.23,2,2,1.82,3.24a2.36,2.36,0,0,1-2.72,1.91,4.33,4.33,0,0,1-2.42-1.82,10.87,10.87,0,0,0-15.5,0L82.34,200.64a11,11,0,0,0,15.5,15.5l10-10a2.34,2.34,0,1,1,3.36,3.27l0,.05-10,10Zm22.15-22.14a15.69,15.69,0,0,1-22.15,0,2.35,2.35,0,1,1,3.32-3.32h0A10.9,10.9,0,0,0,120,194l11.07-11.08a11,11,0,0,0-15.5-15.5l-10,10a2.35,2.35,0,0,1-3.37-3.28l0-.05,10-10a15.66,15.66,0,0,1,22.14,22.14Z"/><path class="cls-3" d="M168.2,219.46a15.66,15.66,0,0,1-22.15-22.14l11.08-11.08a15.68,15.68,0,0,1,22.14,0c1.28.23,2,2,1.82,3.24a2.36,2.36,0,0,1-2.72,1.91,4.29,4.29,0,0,1-2.42-1.82,10.87,10.87,0,0,0-15.5,0l-11.07,11.07a11,11,0,0,0,15.5,15.5l10-10a2.35,2.35,0,1,1,3.37,3.27l0,.05-10,10Zm22.15-22.14a15.69,15.69,0,0,1-22.15,0,2.35,2.35,0,0,1,3.32-3.32h0a10.89,10.89,0,0,0,15.5,0l11.08-11.08a11,11,0,0,0-15.5-15.5l-10,10a2.35,2.35,0,0,1-3.37-3.28l.05-.05,10-10a15.66,15.66,0,0,1,22.15,22.14Z"/><path class="cls-3" d="M235.24,219.46a15.66,15.66,0,0,1-22.15-22.14l11.08-11.08a15.68,15.68,0,0,1,22.14,0c1.28.23,2,2,1.82,3.24a2.36,2.36,0,0,1-2.72,1.91,4.29,4.29,0,0,1-2.42-1.82,10.87,10.87,0,0,0-15.5,0l-11.08,11.07a11,11,0,0,0,15.51,15.5l10-10a2.35,2.35,0,0,1,3.37,3.27s0,0-.05.05l-10,10Zm22.14-22.14a15.68,15.68,0,0,1-22.14,0,2.35,2.35,0,0,1,3.32-3.32h0a10.89,10.89,0,0,0,15.5,0l11.08-11.08a11,11,0,0,0-15.51-15.5l-10,10a2.35,2.35,0,0,1-3.37-3.28l0-.05,10-10a15.66,15.66,0,0,1,22.15,22.14Z"/><path class="cls-3" d="M302.28,219.46a15.66,15.66,0,0,1-22.15-22.14l11.07-11.08a15.69,15.69,0,0,1,22.15,0c1.28.23,2,2,1.82,3.24a2.36,2.36,0,0,1-2.72,1.91,4.26,4.26,0,0,1-2.42-1.82,10.87,10.87,0,0,0-15.5,0l-11.08,11.07a11,11,0,0,0,15.5,15.5l10-10a2.35,2.35,0,1,1,3.37,3.27l-.05.05-10,10Zm22.14-22.14a15.68,15.68,0,0,1-22.14,0A2.35,2.35,0,0,1,305.6,194h0a10.89,10.89,0,0,0,15.5,0l11.07-11.08a11,11,0,0,0-15.5-15.5l-10,10a2.35,2.35,0,0,1-3.37-3.28l0-.05,10-10a15.66,15.66,0,0,1,22.15,22.14Z"/></g><rect class="cls-4" x="99" y="45" width="144" height="144" rx="11.52"/></g><g id="_05" data-name="05"><circle cx="150.48" cy="59.54" r="2.05"/><circle cx="175.1" cy="59.54" r="2.05"/><circle cx="179.21" cy="59.54" r="2.05"/><circle cx="191.52" cy="59.54" r="2.05"/><circle cx="195.62" cy="59.54" r="2.05"/><circle cx="146.38" cy="63.65" r="2.05"/><circle cx="150.48" cy="63.65" r="2.05"/><circle cx="158.69" cy="63.65" r="2.05"/><circle cx="162.79" cy="63.65" r="2.05"/><circle cx="166.9" cy="63.65" r="2.05"/><circle cx="175.1" cy="63.65" r="2.05"/><circle cx="183.31" cy="63.65" r="2.05"/><circle cx="191.52" cy="63.65" r="2.05"/><circle cx="150.48" cy="67.75" r="2.05"/><circle cx="154.58" cy="67.75" r="2.05"/><circle cx="158.69" cy="67.75" r="2.05"/><circle cx="166.9" cy="67.75" r="2.05"/><circle cx="171" cy="67.75" r="2.05"/><circle cx="179.21" cy="67.75" r="2.05"/><circle cx="183.31" cy="67.75" r="2.05"/><circle cx="187.42" cy="67.75" r="2.05"/><circle cx="191.52" cy="67.75" r="2.05"/><circle cx="195.62" cy="67.75" r="2.05"/><circle cx="146.38" cy="71.86" r="2.05"/><circle cx="150.48" cy="71.86" r="2.05"/><circle cx="158.69" cy="71.86" r="2.05"/><circle cx="171" cy="71.86" r="2.05"/><circle cx="175.1" cy="71.86" r="2.05"/><circle cx="179.21" cy="71.86" r="2.05"/><circle cx="195.62" cy="71.86" r="2.05"/><circle cx="154.58" cy="75.96" r="2.05"/><circle cx="162.79" cy="75.96" r="2.05"/><circle cx="171" cy="75.96" r="2.05"/><circle cx="175.1" cy="75.96" r="2.05"/><circle cx="191.52" cy="75.96" r="2.05"/><circle cx="146.38" cy="80.06" r="2.05"/><circle cx="154.58" cy="80.06" r="2.05"/><circle cx="166.9" cy="80.06" r="2.05"/><circle cx="183.31" cy="80.06" r="2.05"/><circle cx="187.42" cy="80.06" r="2.05"/><circle cx="146.38" cy="84.17" r="2.05"/><circle cx="154.58" cy="84.17" r="2.05"/><circle cx="162.79" cy="84.17" r="2.05"/><circle cx="171" cy="84.17" r="2.05"/><circle cx="179.21" cy="84.17" r="2.05"/><circle cx="187.42" cy="84.17" r="2.05"/><circle cx="195.62" cy="84.17" r="2.05"/><circle cx="162.79" cy="88.27" r="2.05"/><circle cx="171" cy="88.27" r="2.05"/><circle cx="179.21" cy="88.27" r="2.05"/><circle cx="183.31" cy="88.27" r="2.05"/><circle cx="187.42" cy="88.27" r="2.05"/><circle cx="191.52" cy="88.27" r="2.05"/><circle cx="195.62" cy="88.27" r="2.05"/><circle cx="113.54" cy="92.38" r="2.05"/><circle cx="117.65" cy="92.38" r="2.05"/><circle cx="121.75" cy="92.38" r="2.05"/><circle cx="125.86" cy="92.38" r="2.05"/><circle cx="129.96" cy="92.38" r="2.05"/><circle cx="138.17" cy="92.38" r="2.05"/><circle cx="142.27" cy="92.38" r="2.05"/><circle cx="146.38" cy="92.38" r="2.05"/><circle cx="150.48" cy="92.38" r="2.05"/><circle cx="154.58" cy="92.38" r="2.05"/><circle cx="162.79" cy="92.38" r="2.05"/><circle cx="166.9" cy="92.38" r="2.05"/><circle cx="171" cy="92.38" r="2.05"/><circle cx="175.1" cy="92.38" r="2.05"/><circle cx="179.21" cy="92.38" r="2.05"/><circle cx="183.31" cy="92.38" r="2.05"/><circle cx="199.73" cy="92.38" r="2.05"/><circle cx="207.94" cy="92.38" r="2.05"/><circle cx="216.14" cy="92.38" r="2.05"/><circle cx="224.35" cy="92.38" r="2.05"/><circle cx="113.54" cy="96.48" r="2.05"/><circle cx="121.75" cy="96.48" r="2.05"/><circle cx="134.06" cy="96.48" r="2.05"/><circle cx="146.38" cy="96.48" r="2.05"/><circle cx="150.48" cy="96.48" r="2.05"/><circle cx="171" cy="96.48" r="2.05"/><circle cx="179.21" cy="96.48" r="2.05"/><circle cx="191.52" cy="96.48" r="2.05"/><circle cx="195.62" cy="96.48" r="2.05"/><circle cx="203.83" cy="96.48" r="2.05"/><circle cx="207.94" cy="96.48" r="2.05"/><circle cx="212.04" cy="96.48" r="2.05"/><circle cx="216.14" cy="96.48" r="2.05"/><circle cx="224.35" cy="96.48" r="2.05"/><circle cx="117.65" cy="100.58" r="2.05"/><circle cx="125.86" cy="100.58" r="2.05"/><circle cx="129.96" cy="100.58" r="2.05"/><circle cx="138.17" cy="100.58" r="2.05"/><circle cx="150.48" cy="100.58" r="2.05"/><circle cx="158.69" cy="100.58" r="2.05"/><circle cx="162.79" cy="100.58" r="2.05"/><circle cx="179.21" cy="100.58" r="2.05"/><circle cx="183.31" cy="100.58" r="2.05"/><circle cx="191.52" cy="100.58" r="2.05"/><circle cx="199.73" cy="100.58" r="2.05"/><circle cx="207.94" cy="100.58" r="2.05"/><circle cx="216.14" cy="100.58" r="2.05"/><circle cx="220.25" cy="100.58" r="2.05"/><circle cx="113.54" cy="104.69" r="2.05"/><circle cx="117.65" cy="104.69" r="2.05"/><circle cx="121.75" cy="104.69" r="2.05"/><circle cx="129.96" cy="104.69" r="2.05"/><circle cx="142.27" cy="104.69" r="2.05"/><circle cx="150.48" cy="104.69" r="2.05"/><circle cx="154.58" cy="104.69" r="2.05"/><circle cx="158.69" cy="104.69" r="2.05"/><circle cx="183.31" cy="104.69" r="2.05"/><circle cx="187.42" cy="104.69" r="2.05"/><circle cx="191.52" cy="104.69" r="2.05"/><circle cx="199.73" cy="104.69" r="2.05"/><circle cx="203.83" cy="104.69" r="2.05"/><circle cx="207.94" cy="104.69" r="2.05"/><circle cx="212.04" cy="104.69" r="2.05"/><circle cx="216.14" cy="104.69" r="2.05"/><circle cx="228.46" cy="104.69" r="2.05"/><circle cx="113.54" cy="108.79" r="2.05"/><circle cx="117.65" cy="108.79" r="2.05"/><circle cx="125.86" cy="108.79" r="2.05"/><circle cx="134.06" cy="108.79" r="2.05"/><circle cx="138.17" cy="108.79" r="2.05"/><circle cx="146.38" cy="108.79" r="2.05"/><circle cx="150.48" cy="108.79" r="2.05"/><circle cx="158.69" cy="108.79" r="2.05"/><circle cx="175.1" cy="108.79" r="2.05"/><circle cx="187.42" cy="108.79" r="2.05"/><circle cx="195.62" cy="108.79" r="2.05"/><circle cx="203.83" cy="108.79" r="2.05"/><circle cx="207.94" cy="108.79" r="2.05"/><circle cx="113.54" cy="112.9" r="2.05"/><circle cx="117.65" cy="112.9" r="2.05"/><circle cx="134.06" cy="112.9" r="2.05"/><circle cx="142.27" cy="112.9" r="2.05"/><circle cx="146.38" cy="112.9" r="2.05"/><circle cx="150.48" cy="112.9" r="2.05"/><circle cx="154.58" cy="112.9" r="2.05"/><circle cx="162.79" cy="112.9" r="2.05"/><circle cx="166.9" cy="112.9" r="2.05"/><circle cx="175.1" cy="112.9" r="2.05"/><circle cx="191.52" cy="112.9" r="2.05"/><circle cx="199.73" cy="112.9" r="2.05"/><circle cx="203.83" cy="112.9" r="2.05"/><circle cx="207.94" cy="112.9" r="2.05"/><circle cx="212.04" cy="112.9" r="2.05"/><circle cx="216.14" cy="112.9" r="2.05"/><circle cx="224.35" cy="112.9" r="2.05"/><circle cx="113.54" cy="117" r="2.05"/><circle cx="117.65" cy="117" r="2.05"/><circle cx="129.96" cy="117" r="2.05"/><circle cx="138.17" cy="117" r="2.05"/><circle cx="150.48" cy="117" r="2.05"/><circle cx="154.58" cy="117" r="2.05"/><circle cx="166.9" cy="117" r="2.05"/><circle cx="171" cy="117" r="2.05"/><circle cx="175.1" cy="117" r="2.05"/><circle cx="179.21" cy="117" r="2.05"/><circle cx="183.31" cy="117" r="2.05"/><circle cx="191.52" cy="117" r="2.05"/><circle cx="207.94" cy="117" r="2.05"/><circle cx="216.14" cy="117" r="2.05"/><circle cx="220.25" cy="117" r="2.05"/><circle cx="224.35" cy="117" r="2.05"/><circle cx="228.46" cy="117" r="2.05"/><circle cx="117.65" cy="121.1" r="2.05"/><circle cx="142.27" cy="121.1" r="2.05"/><circle cx="146.38" cy="121.1" r="2.05"/><circle cx="162.79" cy="121.1" r="2.05"/><circle cx="166.9" cy="121.1" r="2.05"/><circle cx="179.21" cy="121.1" r="2.05"/><circle cx="183.31" cy="121.1" r="2.05"/><circle cx="187.42" cy="121.1" r="2.05"/><circle cx="191.52" cy="121.1" r="2.05"/><circle cx="195.62" cy="121.1" r="2.05"/><circle cx="199.73" cy="121.1" r="2.05"/><circle cx="203.83" cy="121.1" r="2.05"/><circle cx="207.94" cy="121.1" r="2.05"/><circle cx="212.04" cy="121.1" r="2.05"/><circle cx="224.35" cy="121.1" r="2.05"/><circle cx="228.46" cy="121.1" r="2.05"/><circle cx="117.65" cy="125.21" r="2.05"/><circle cx="121.75" cy="125.21" r="2.05"/><circle cx="138.17" cy="125.21" r="2.05"/><circle cx="142.27" cy="125.21" r="2.05"/><circle cx="146.38" cy="125.21" r="2.05"/><circle cx="150.48" cy="125.21" r="2.05"/><circle cx="154.58" cy="125.21" r="2.05"/><circle cx="162.79" cy="125.21" r="2.05"/><circle cx="171" cy="125.21" r="2.05"/><circle cx="175.1" cy="125.21" r="2.05"/><circle cx="183.31" cy="125.21" r="2.05"/><circle cx="195.62" cy="125.21" r="2.05"/><circle cx="203.83" cy="125.21" r="2.05"/><circle cx="207.94" cy="125.21" r="2.05"/><circle cx="113.54" cy="129.31" r="2.05"/><circle cx="117.65" cy="129.31" r="2.05"/><circle cx="125.86" cy="129.31" r="2.05"/><circle cx="129.96" cy="129.31" r="2.05"/><circle cx="175.1" cy="129.31" r="2.05"/><circle cx="187.42" cy="129.31" r="2.05"/><circle cx="199.73" cy="129.31" r="2.05"/><circle cx="207.94" cy="129.31" r="2.05"/><circle cx="212.04" cy="129.31" r="2.05"/><circle cx="216.14" cy="129.31" r="2.05"/><circle cx="113.54" cy="133.42" r="2.05"/><circle cx="125.86" cy="133.42" r="2.05"/><circle cx="129.96" cy="133.42" r="2.05"/><circle cx="134.06" cy="133.42" r="2.05"/><circle cx="138.17" cy="133.42" r="2.05"/><circle cx="146.38" cy="133.42" r="2.05"/><circle cx="158.69" cy="133.42" r="2.05"/><circle cx="162.79" cy="133.42" r="2.05"/><circle cx="183.31" cy="133.42" r="2.05"/><circle cx="207.94" cy="133.42" r="2.05"/><circle cx="216.14" cy="133.42" r="2.05"/><circle cx="220.25" cy="133.42" r="2.05"/><circle cx="113.54" cy="137.52" r="2.05"/><circle cx="129.96" cy="137.52" r="2.05"/><circle cx="134.06" cy="137.52" r="2.05"/><circle cx="142.27" cy="137.52" r="2.05"/><circle cx="150.48" cy="137.52" r="2.05"/><circle cx="154.58" cy="137.52" r="2.05"/><circle cx="158.69" cy="137.52" r="2.05"/><circle cx="171" cy="137.52" r="2.05"/><circle cx="179.21" cy="137.52" r="2.05"/><circle cx="187.42" cy="137.52" r="2.05"/><circle cx="191.52" cy="137.52" r="2.05"/><circle cx="195.62" cy="137.52" r="2.05"/><circle cx="199.73" cy="137.52" r="2.05"/><circle cx="203.83" cy="137.52" r="2.05"/><circle cx="207.94" cy="137.52" r="2.05"/><circle cx="212.04" cy="137.52" r="2.05"/><circle cx="224.35" cy="137.52" r="2.05"/><circle cx="228.46" cy="137.52" r="2.05"/><circle cx="113.54" cy="141.62" r="2.05"/><circle cx="121.75" cy="141.62" r="2.05"/><circle cx="125.86" cy="141.62" r="2.05"/><circle cx="129.96" cy="141.62" r="2.05"/><circle cx="134.06" cy="141.62" r="2.05"/><circle cx="138.17" cy="141.62" r="2.05"/><circle cx="150.48" cy="141.62" r="2.05"/><circle cx="158.69" cy="141.62" r="2.05"/><circle cx="175.1" cy="141.62" r="2.05"/><circle cx="195.62" cy="141.62" r="2.05"/><circle cx="199.73" cy="141.62" r="2.05"/><circle cx="203.83" cy="141.62" r="2.05"/><circle cx="207.94" cy="141.62" r="2.05"/><circle cx="212.04" cy="141.62" r="2.05"/><circle cx="216.14" cy="141.62" r="2.05"/><circle cx="220.25" cy="141.62" r="2.05"/><circle cx="224.35" cy="141.62" r="2.05"/><circle cx="146.38" cy="145.73" r="2.05"/><circle cx="150.48" cy="145.73" r="2.05"/><circle cx="162.79" cy="145.73" r="2.05"/><circle cx="166.9" cy="145.73" r="2.05"/><circle cx="171" cy="145.73" r="2.05"/><circle cx="175.1" cy="145.73" r="2.05"/><circle cx="187.42" cy="145.73" r="2.05"/><circle cx="191.52" cy="145.73" r="2.05"/><circle cx="195.62" cy="145.73" r="2.05"/><circle cx="212.04" cy="145.73" r="2.05"/><circle cx="224.35" cy="145.73" r="2.05"/><circle cx="146.38" cy="149.83" r="2.05"/><circle cx="150.48" cy="149.83" r="2.05"/><circle cx="154.58" cy="149.83" r="2.05"/><circle cx="166.9" cy="149.83" r="2.05"/><circle cx="171" cy="149.83" r="2.05"/><circle cx="175.1" cy="149.83" r="2.05"/><circle cx="179.21" cy="149.83" r="2.05"/><circle cx="183.31" cy="149.83" r="2.05"/><circle cx="195.62" cy="149.83" r="2.05"/><circle cx="203.83" cy="149.83" r="2.05"/><circle cx="212.04" cy="149.83" r="2.05"/><circle cx="216.14" cy="149.83" r="2.05"/><circle cx="220.25" cy="149.83" r="2.05"/><circle cx="150.48" cy="153.94" r="2.05"/><circle cx="154.58" cy="153.94" r="2.05"/><circle cx="162.79" cy="153.94" r="2.05"/><circle cx="166.9" cy="153.94" r="2.05"/><circle cx="179.21" cy="153.94" r="2.05"/><circle cx="187.42" cy="153.94" r="2.05"/><circle cx="195.62" cy="153.94" r="2.05"/><circle cx="212.04" cy="153.94" r="2.05"/><circle cx="220.25" cy="153.94" r="2.05"/><circle cx="224.35" cy="153.94" r="2.05"/><circle cx="228.46" cy="153.94" r="2.05"/><circle cx="146.38" cy="158.04" r="2.05"/><circle cx="162.79" cy="158.04" r="2.05"/><circle cx="171" cy="158.04" r="2.05"/><circle cx="175.1" cy="158.04" r="2.05"/><circle cx="191.52" cy="158.04" r="2.05"/><circle cx="195.62" cy="158.04" r="2.05"/><circle cx="199.73" cy="158.04" r="2.05"/><circle cx="203.83" cy="158.04" r="2.05"/><circle cx="207.94" cy="158.04" r="2.05"/><circle cx="212.04" cy="158.04" r="2.05"/><circle cx="220.25" cy="158.04" r="2.05"/><circle cx="224.35" cy="158.04" r="2.05"/><circle cx="228.46" cy="158.04" r="2.05"/><circle cx="146.38" cy="162.14" r="2.05"/><circle cx="179.21" cy="162.14" r="2.05"/><circle cx="195.62" cy="162.14" r="2.05"/><circle cx="199.73" cy="162.14" r="2.05"/><circle cx="207.94" cy="162.14" r="2.05"/><circle cx="146.38" cy="166.25" r="2.05"/><circle cx="150.48" cy="166.25" r="2.05"/><circle cx="158.69" cy="166.25" r="2.05"/><circle cx="162.79" cy="166.25" r="2.05"/><circle cx="183.31" cy="166.25" r="2.05"/><circle cx="191.52" cy="166.25" r="2.05"/><circle cx="207.94" cy="166.25" r="2.05"/><circle cx="220.25" cy="166.25" r="2.05"/><circle cx="224.35" cy="166.25" r="2.05"/><circle cx="146.38" cy="170.35" r="2.05"/><circle cx="158.69" cy="170.35" r="2.05"/><circle cx="171" cy="170.35" r="2.05"/><circle cx="183.31" cy="170.35" r="2.05"/><circle cx="216.14" cy="170.35" r="2.05"/><circle cx="220.25" cy="170.35" r="2.05"/><circle cx="228.46" cy="170.35" r="2.05"/><circle cx="146.38" cy="174.46" r="2.05"/><circle cx="150.48" cy="174.46" r="2.05"/><circle cx="154.58" cy="174.46" r="2.05"/><circle cx="158.69" cy="174.46" r="2.05"/><circle cx="175.1" cy="174.46" r="2.05"/><circle cx="187.42" cy="174.46" r="2.05"/><circle cx="203.83" cy="174.46" r="2.05"/><circle cx="212.04" cy="174.46" r="2.05"/><circle cx="216.14" cy="174.46" r="2.05"/><circle cx="220.25" cy="174.46" r="2.05"/><path d="M112.36,57.49a.87.87,0,0,0-.87.87v27a.87.87,0,0,0,.87.87h27a.87.87,0,0,0,.87-.87v-27a.87.87,0,0,0-.87-.87Zm23.76,8.21V81.62a.51.51,0,0,1-.5.5H116.1a.5.5,0,0,1-.5-.5V62.1a.5.5,0,0,1,.5-.5h19.52a.5.5,0,0,1,.5.5Z"/><path d="M132,73.91V66.57a.87.87,0,0,0-.87-.87H120.57a.87.87,0,0,0-.87.87V77.14a.88.88,0,0,0,.87.88h10.57a.87.87,0,0,0,.87-.88Z"/><path d="M202.65,57.49a.87.87,0,0,0-.87.87v27a.87.87,0,0,0,.87.87h27a.87.87,0,0,0,.87-.87v-27a.87.87,0,0,0-.87-.87ZM226.4,65.7V81.62a.5.5,0,0,1-.5.5H206.38a.51.51,0,0,1-.5-.5V62.1a.5.5,0,0,1,.5-.5H225.9a.5.5,0,0,1,.5.5Z"/><path d="M222.3,73.91V66.57a.87.87,0,0,0-.87-.87H210.86a.88.88,0,0,0-.88.87V77.14a.88.88,0,0,0,.88.88h10.57a.87.87,0,0,0,.87-.88Z"/><path d="M112.36,147.78a.87.87,0,0,0-.87.87v27a.87.87,0,0,0,.87.87h27a.87.87,0,0,0,.87-.87v-27a.87.87,0,0,0-.87-.87ZM136.12,156V171.9a.5.5,0,0,1-.5.5H116.1a.5.5,0,0,1-.5-.5V152.38a.5.5,0,0,1,.5-.5h19.52a.51.51,0,0,1,.5.5Z"/><path d="M132,164.2v-7.34a.88.88,0,0,0-.87-.88H120.57a.87.87,0,0,0-.87.88v10.57a.87.87,0,0,0,.87.87h10.57a.87.87,0,0,0,.87-.87Z"/></g></g></svg>