<svg xmlns="http://www.w3.org/2000/svg" viewBox="0 0 342 234"><defs><style>.cls-1{fill:#f16522;}.cls-2{opacity:0.21;}.cls-3{opacity:0.5;}.cls-4{fill:#fff;}</style></defs><g id="Layer_2" data-name="Layer 2"><g id="orange_export_qr_with_background" data-name="orange export qr with background"><rect id="background" class="cls-1" width="342" height="234" rx="18"/><g id="link_icons" data-name="link icons" class="cls-2"><path class="cls-3" d="M34.88,71.56A15.66,15.66,0,0,1,12.74,49.42L23.81,38.34a15.69,15.69,0,0,1,22.15,0c1.27.23,2,2,1.81,3.24a2.34,2.34,0,0,1-2.71,1.9,4.25,4.25,0,0,1-2.43-1.81,10.87,10.87,0,0,0-15.5,0L16.06,52.74a11,11,0,0,0,15.5,15.5l10-10a2.35,2.35,0,0,1,3.37,3.28s0,0,0,.05l-10,10ZM57,49.42a15.69,15.69,0,0,1-22.15,0,2.35,2.35,0,0,1,3.32-3.33h0a10.88,10.88,0,0,0,15.51,0L64.78,35a11,11,0,0,0-15.5-15.5l-10,10a2.35,2.35,0,1,1-3.37-3.27l.05-.05,10-10A15.66,15.66,0,1,1,68.1,38.34Z"/><path class="cls-3" d="M101.92,71.56A15.66,15.66,0,0,1,79.77,49.42L90.85,38.34a15.68,15.68,0,0,1,22.14,0c1.28.23,2.05,2,1.82,3.24a2.34,2.34,0,0,1-2.72,1.9,4.26,4.26,0,0,1-2.42-1.81,10.87,10.87,0,0,0-15.5,0L83.1,52.74a11,11,0,0,0,15.5,15.5l10-10a2.35,2.35,0,0,1,3.37,3.28l0,.05-10,10Zm22.15-22.14a15.69,15.69,0,0,1-22.15,0,2.35,2.35,0,0,1,3.32-3.33h0a10.87,10.87,0,0,0,15.5,0L131.82,35a11,11,0,0,0-15.5-15.5l-10,10A2.35,2.35,0,0,1,103,26.21l0-.05,10-10a15.66,15.66,0,1,1,22.15,22.14Z"/><path class="cls-3" d="M169,71.56a15.66,15.66,0,1,1-22.15-22.14l11.08-11.08a15.68,15.68,0,0,1,22.14,0c1.28.23,2,2,1.82,3.24a2.34,2.34,0,0,1-2.72,1.9,4.23,4.23,0,0,1-2.42-1.81,10.87,10.87,0,0,0-15.5,0L150.13,52.74a11,11,0,0,0,15.51,15.5l10-10A2.35,2.35,0,0,1,179,61.55s0,0-.05.05l-10,10ZM191.1,49.42a15.68,15.68,0,0,1-22.14,0,2.35,2.35,0,0,1,3.32-3.33h0a10.87,10.87,0,0,0,15.5,0L198.86,35a11,11,0,1,0-15.51-15.5l-10,10A2.35,2.35,0,1,1,170,26.21s0,0,0-.05l10-10a15.66,15.66,0,1,1,22.15,22.14Z"/><path class="cls-3" d="M236,71.56a15.66,15.66,0,0,1-22.15-22.14l11.07-11.08a15.69,15.69,0,0,1,22.15,0c1.28.23,2,2,1.82,3.24a2.34,2.34,0,0,1-2.72,1.9,4.23,4.23,0,0,1-2.42-1.81,10.87,10.87,0,0,0-15.5,0L217.17,52.74a11,11,0,0,0,15.5,15.5l10-10A2.35,2.35,0,0,1,246,61.55l0,.05-10,10Zm22.14-22.14a15.68,15.68,0,0,1-22.14,0,2.35,2.35,0,0,1,3.32-3.33h0a10.87,10.87,0,0,0,15.5,0L265.89,35a11,11,0,0,0-15.5-15.5l-10,10a2.35,2.35,0,1,1-3.37-3.27l0-.05,10-10a15.66,15.66,0,0,1,22.15,22.14Z"/><path class="cls-3" d="M303,71.56a15.66,15.66,0,0,1-22.15-22.14L292,38.34a15.69,15.69,0,0,1,22.15,0c1.28.23,2,2,1.82,3.24a2.35,2.35,0,0,1-2.72,1.9,4.2,4.2,0,0,1-2.42-1.81,10.88,10.88,0,0,0-15.51,0L284.21,52.74a11,11,0,0,0,15.5,15.5l10-10a2.35,2.35,0,0,1,3.37,3.28l-.05.05-10,10Zm22.14-22.14a15.68,15.68,0,0,1-22.14,0,2.35,2.35,0,0,1,3.32-3.33h0a10.87,10.87,0,0,0,15.5,0L332.93,35a11,11,0,0,0-15.5-15.5l-10,10a2.34,2.34,0,1,1-3.36-3.27l0-.05,10-10a15.66,15.66,0,0,1,22.14,22.14Z"/><path class="cls-3" d="M34.12,219.46A15.66,15.66,0,0,1,12,197.32l11.07-11.08a15.69,15.69,0,0,1,22.15,0c1.27.23,2,2,1.82,3.24a2.37,2.37,0,0,1-2.72,1.91,4.31,4.31,0,0,1-2.43-1.82,10.87,10.87,0,0,0-15.5,0L15.3,200.64a11,11,0,0,0,15.5,15.5l10-10a2.35,2.35,0,1,1,3.37,3.27l0,.05-10,10Zm22.15-22.14a15.69,15.69,0,0,1-22.15,0A2.35,2.35,0,1,1,37.45,194h0A10.89,10.89,0,0,0,53,194L64,182.92a11,11,0,0,0-15.5-15.5l-10,10a2.35,2.35,0,0,1-3.37-3.28l0-.05,10-10a15.66,15.66,0,0,1,22.14,22.14Z"/><path class="cls-3" d="M101.16,219.46A15.66,15.66,0,0,1,79,197.32l11.07-11.08a15.68,15.68,0,0,1,22.14,0c1.28.23,2,2,1.82,3.24a2.36,2.36,0,0,1-2.72,1.91,4.33,4.33,0,0,1-2.42-1.82,10.87,10.87,0,0,0-15.5,0L82.34,200.64a11,11,0,0,0,15.5,15.5l10-10a2.34,2.34,0,1,1,3.36,3.27l0,.05-10,10Zm22.15-22.14a15.69,15.69,0,0,1-22.15,0,2.35,2.35,0,1,1,3.32-3.32h0A10.9,10.9,0,0,0,120,194l11.07-11.08a11,11,0,0,0-15.5-15.5l-10,10a2.35,2.35,0,0,1-3.37-3.28l0-.05,10-10a15.66,15.66,0,0,1,22.14,22.14Z"/><path class="cls-3" d="M168.2,219.46a15.66,15.66,0,0,1-22.15-22.14l11.08-11.08a15.68,15.68,0,0,1,22.14,0c1.28.23,2,2,1.82,3.24a2.36,2.36,0,0,1-2.72,1.91,4.29,4.29,0,0,1-2.42-1.82,10.87,10.87,0,0,0-15.5,0l-11.07,11.07a11,11,0,0,0,15.5,15.5l10-10a2.35,2.35,0,1,1,3.37,3.27l0,.05-10,10Zm22.15-22.14a15.69,15.69,0,0,1-22.15,0,2.35,2.35,0,0,1,3.32-3.32h0a10.89,10.89,0,0,0,15.5,0l11.08-11.08a11,11,0,0,0-15.5-15.5l-10,10a2.35,2.35,0,0,1-3.37-3.28l.05-.05,10-10a15.66,15.66,0,0,1,22.15,22.14Z"/><path class="cls-3" d="M235.24,219.46a15.66,15.66,0,0,1-22.15-22.14l11.08-11.08a15.68,15.68,0,0,1,22.14,0c1.28.23,2,2,1.82,3.24a2.36,2.36,0,0,1-2.72,1.91,4.29,4.29,0,0,1-2.42-1.82,10.87,10.87,0,0,0-15.5,0l-11.08,11.07a11,11,0,0,0,15.51,15.5l10-10a2.35,2.35,0,0,1,3.37,3.27s0,0-.05.05l-10,10Zm22.14-22.14a15.68,15.68,0,0,1-22.14,0,2.35,2.35,0,0,1,3.32-3.32h0a10.89,10.89,0,0,0,15.5,0l11.08-11.08a11,11,0,0,0-15.51-15.5l-10,10a2.35,2.35,0,0,1-3.37-3.28l0-.05,10-10a15.66,15.66,0,0,1,22.15,22.14Z"/><path class="cls-3" d="M302.28,219.46a15.66,15.66,0,0,1-22.15-22.14l11.07-11.08a15.69,15.69,0,0,1,22.15,0c1.28.23,2,2,1.82,3.24a2.36,2.36,0,0,1-2.72,1.91,4.26,4.26,0,0,1-2.42-1.82,10.87,10.87,0,0,0-15.5,0l-11.08,11.07a11,11,0,0,0,15.5,15.5l10-10a2.35,2.35,0,1,1,3.37,3.27l-.05.05-10,10Zm22.14-22.14a15.68,15.68,0,0,1-22.14,0A2.35,2.35,0,0,1,305.6,194h0a10.89,10.89,0,0,0,15.5,0l11.07-11.08a11,11,0,0,0-15.5-15.5l-10,10a2.35,2.35,0,0,1-3.37-3.28l0-.05,10-10a15.66,15.66,0,0,1,22.15,22.14Z"/></g><rect class="cls-4" x="99" y="45" width="144" height="144" rx="11.52"/></g><g id="_06" data-name="06"><circle cx="141.19" cy="56.5" r="1.66"/><circle cx="151.13" cy="56.5" r="1.66"/><circle cx="154.44" cy="56.5" r="1.66"/><circle cx="164.38" cy="56.5" r="1.66"/><circle cx="171" cy="56.5" r="1.66"/><circle cx="174.31" cy="56.5" r="1.66"/><circle cx="177.62" cy="56.5" r="1.66"/><circle cx="190.87" cy="56.5" r="1.66"/><circle cx="204.12" cy="56.5" r="1.66"/><circle cx="137.88" cy="59.82" r="1.66"/><circle cx="147.82" cy="59.82" r="1.66"/><circle cx="151.13" cy="59.82" r="1.66"/><circle cx="154.44" cy="59.82" r="1.66"/><circle cx="157.75" cy="59.82" r="1.66"/><circle cx="161.06" cy="59.82" r="1.66"/><circle cx="171" cy="59.82" r="1.66"/><circle cx="177.62" cy="59.82" r="1.66"/><circle cx="184.25" cy="59.82" r="1.66"/><circle cx="187.56" cy="59.82" r="1.66"/><circle cx="190.87" cy="59.82" r="1.66"/><circle cx="194.18" cy="59.82" r="1.66"/><circle cx="197.5" cy="59.82" r="1.66"/><circle cx="200.81" cy="59.82" r="1.66"/><circle cx="204.12" cy="59.82" r="1.66"/><circle cx="137.88" cy="63.13" r="1.66"/><circle cx="141.19" cy="63.13" r="1.66"/><circle cx="144.5" cy="63.13" r="1.66"/><circle cx="147.82" cy="63.13" r="1.66"/><circle cx="151.13" cy="63.13" r="1.66"/><circle cx="154.44" cy="63.13" r="1.66"/><circle cx="164.38" cy="63.13" r="1.66"/><circle cx="167.69" cy="63.13" r="1.66"/><circle cx="171" cy="63.13" r="1.66"/><circle cx="174.31" cy="63.13" r="1.66"/><circle cx="177.62" cy="63.13" r="1.66"/><circle cx="180.94" cy="63.13" r="1.66"/><circle cx="184.25" cy="63.13" r="1.66"/><circle cx="190.87" cy="63.13" r="1.66"/><circle cx="194.18" cy="63.13" r="1.66"/><circle cx="200.81" cy="63.13" r="1.66"/><circle cx="141.19" cy="66.44" r="1.66"/><circle cx="144.5" cy="66.44" r="1.66"/><circle cx="147.82" cy="66.44" r="1.66"/><circle cx="154.44" cy="66.44" r="1.66"/><circle cx="157.75" cy="66.44" r="1.66"/><circle cx="161.06" cy="66.44" r="1.66"/><circle cx="167.69" cy="66.44" r="1.66"/><circle cx="171" cy="66.44" r="1.66"/><circle cx="174.31" cy="66.44" r="1.66"/><circle cx="177.62" cy="66.44" r="1.66"/><circle cx="184.25" cy="66.44" r="1.66"/><circle cx="187.56" cy="66.44" r="1.66"/><circle cx="190.87" cy="66.44" r="1.66"/><circle cx="194.18" cy="66.44" r="1.66"/><circle cx="197.5" cy="66.44" r="1.66"/><circle cx="200.81" cy="66.44" r="1.66"/><circle cx="204.12" cy="66.44" r="1.66"/><circle cx="137.88" cy="69.75" r="1.66"/><circle cx="154.44" cy="69.75" r="1.66"/><circle cx="157.75" cy="69.75" r="1.66"/><circle cx="164.38" cy="69.75" r="1.66"/><circle cx="174.31" cy="69.75" r="1.66"/><circle cx="184.25" cy="69.75" r="1.66"/><circle cx="187.56" cy="69.75" r="1.66"/><circle cx="190.87" cy="69.75" r="1.66"/><circle cx="194.18" cy="69.75" r="1.66"/><circle cx="197.5" cy="69.75" r="1.66"/><circle cx="204.12" cy="69.75" r="1.66"/><circle cx="137.88" cy="73.06" r="1.66"/><circle cx="141.19" cy="73.06" r="1.66"/><circle cx="147.82" cy="73.06" r="1.66"/><circle cx="154.44" cy="73.06" r="1.66"/><circle cx="157.75" cy="73.06" r="1.66"/><circle cx="167.69" cy="73.06" r="1.66"/><circle cx="171" cy="73.06" r="1.66"/><circle cx="174.31" cy="73.06" r="1.66"/><circle cx="184.25" cy="73.06" r="1.66"/><circle cx="190.87" cy="73.06" r="1.66"/><circle cx="200.81" cy="73.06" r="1.66"/><circle cx="137.88" cy="76.38" r="1.66"/><circle cx="144.5" cy="76.38" r="1.66"/><circle cx="151.13" cy="76.38" r="1.66"/><circle cx="157.75" cy="76.38" r="1.66"/><circle cx="164.38" cy="76.38" r="1.66"/><circle cx="171" cy="76.38" r="1.66"/><circle cx="177.62" cy="76.38" r="1.66"/><circle cx="184.25" cy="76.38" r="1.66"/><circle cx="190.87" cy="76.38" r="1.66"/><circle cx="197.5" cy="76.38" r="1.66"/><circle cx="204.12" cy="76.38" r="1.66"/><circle cx="137.88" cy="79.69" r="1.66"/><circle cx="141.19" cy="79.69" r="1.66"/><circle cx="151.13" cy="79.69" r="1.66"/><circle cx="157.75" cy="79.69" r="1.66"/><circle cx="167.69" cy="79.69" r="1.66"/><circle cx="171" cy="79.69" r="1.66"/><circle cx="174.31" cy="79.69" r="1.66"/><circle cx="177.62" cy="79.69" r="1.66"/><circle cx="180.94" cy="79.69" r="1.66"/><circle cx="197.5" cy="79.69" r="1.66"/><circle cx="111.38" cy="83" r="1.66"/><circle cx="114.7" cy="83" r="1.66"/><circle cx="121.32" cy="83" r="1.66"/><circle cx="131.26" cy="83" r="1.66"/><circle cx="134.57" cy="83" r="1.66"/><circle cx="144.5" cy="83" r="1.66"/><circle cx="161.06" cy="83" r="1.66"/><circle cx="164.38" cy="83" r="1.66"/><circle cx="167.69" cy="83" r="1.66"/><circle cx="177.62" cy="83" r="1.66"/><circle cx="180.94" cy="83" r="1.66"/><circle cx="184.25" cy="83" r="1.66"/><circle cx="187.56" cy="83" r="1.66"/><circle cx="197.5" cy="83" r="1.66"/><circle cx="204.12" cy="83" r="1.66"/><circle cx="210.74" cy="83" r="1.66"/><circle cx="214.06" cy="83" r="1.66"/><circle cx="217.37" cy="83" r="1.66"/><circle cx="223.99" cy="83" r="1.66"/><circle cx="227.3" cy="83" r="1.66"/><circle cx="111.38" cy="86.31" r="1.66"/><circle cx="118.01" cy="86.31" r="1.66"/><circle cx="124.63" cy="86.31" r="1.66"/><circle cx="134.57" cy="86.31" r="1.66"/><circle cx="141.19" cy="86.31" r="1.66"/><circle cx="144.5" cy="86.31" r="1.66"/><circle cx="147.82" cy="86.31" r="1.66"/><circle cx="157.75" cy="86.31" r="1.66"/><circle cx="161.06" cy="86.31" r="1.66"/><circle cx="167.69" cy="86.31" r="1.66"/><circle cx="177.62" cy="86.31" r="1.66"/><circle cx="180.94" cy="86.31" r="1.66"/><circle cx="184.25" cy="86.31" r="1.66"/><circle cx="190.87" cy="86.31" r="1.66"/><circle cx="194.18" cy="86.31" r="1.66"/><circle cx="200.81" cy="86.31" r="1.66"/><circle cx="207.43" cy="86.31" r="1.66"/><circle cx="227.3" cy="86.31" r="1.66"/><circle cx="111.38" cy="89.62" r="1.66"/><circle cx="127.94" cy="89.62" r="1.66"/><circle cx="131.26" cy="89.62" r="1.66"/><circle cx="134.57" cy="89.62" r="1.66"/><circle cx="141.19" cy="89.62" r="1.66"/><circle cx="167.69" cy="89.62" r="1.66"/><circle cx="177.62" cy="89.62" r="1.66"/><circle cx="180.94" cy="89.62" r="1.66"/><circle cx="184.25" cy="89.62" r="1.66"/><circle cx="187.56" cy="89.62" r="1.66"/><circle cx="190.87" cy="89.62" r="1.66"/><circle cx="200.81" cy="89.62" r="1.66"/><circle cx="207.43" cy="89.62" r="1.66"/><circle cx="210.74" cy="89.62" r="1.66"/><circle cx="214.06" cy="89.62" r="1.66"/><circle cx="220.68" cy="89.62" r="1.66"/><circle cx="223.99" cy="89.62" r="1.66"/><circle cx="230.62" cy="89.62" r="1.66"/><circle cx="114.7" cy="92.94" r="1.66"/><circle cx="121.32" cy="92.94" r="1.66"/><circle cx="127.94" cy="92.94" r="1.66"/><circle cx="137.88" cy="92.94" r="1.66"/><circle cx="144.5" cy="92.94" r="1.66"/><circle cx="157.75" cy="92.94" r="1.66"/><circle cx="161.06" cy="92.94" r="1.66"/><circle cx="171" cy="92.94" r="1.66"/><circle cx="180.94" cy="92.94" r="1.66"/><circle cx="184.25" cy="92.94" r="1.66"/><circle cx="187.56" cy="92.94" r="1.66"/><circle cx="197.5" cy="92.94" r="1.66"/><circle cx="204.12" cy="92.94" r="1.66"/><circle cx="210.74" cy="92.94" r="1.66"/><circle cx="217.37" cy="92.94" r="1.66"/><circle cx="220.68" cy="92.94" r="1.66"/><circle cx="227.3" cy="92.94" r="1.66"/><circle cx="230.62" cy="92.94" r="1.66"/><circle cx="111.38" cy="96.25" r="1.66"/><circle cx="114.7" cy="96.25" r="1.66"/><circle cx="118.01" cy="96.25" r="1.66"/><circle cx="124.63" cy="96.25" r="1.66"/><circle cx="131.26" cy="96.25" r="1.66"/><circle cx="137.88" cy="96.25" r="1.66"/><circle cx="151.13" cy="96.25" r="1.66"/><circle cx="164.38" cy="96.25" r="1.66"/><circle cx="177.62" cy="96.25" r="1.66"/><circle cx="197.5" cy="96.25" r="1.66"/><circle cx="204.12" cy="96.25" r="1.66"/><circle cx="217.37" cy="96.25" r="1.66"/><circle cx="220.68" cy="96.25" r="1.66"/><circle cx="227.3" cy="96.25" r="1.66"/><circle cx="230.62" cy="96.25" r="1.66"/><circle cx="114.7" cy="99.56" r="1.66"/><circle cx="127.94" cy="99.56" r="1.66"/><circle cx="137.88" cy="99.56" r="1.66"/><circle cx="141.19" cy="99.56" r="1.66"/><circle cx="147.82" cy="99.56" r="1.66"/><circle cx="151.13" cy="99.56" r="1.66"/><circle cx="161.06" cy="99.56" r="1.66"/><circle cx="164.38" cy="99.56" r="1.66"/><circle cx="167.69" cy="99.56" r="1.66"/><circle cx="177.62" cy="99.56" r="1.66"/><circle cx="180.94" cy="99.56" r="1.66"/><circle cx="184.25" cy="99.56" r="1.66"/><circle cx="187.56" cy="99.56" r="1.66"/><circle cx="214.06" cy="99.56" r="1.66"/><circle cx="220.68" cy="99.56" r="1.66"/><circle cx="223.99" cy="99.56" r="1.66"/><circle cx="227.3" cy="99.56" r="1.66"/><circle cx="124.63" cy="102.87" r="1.66"/><circle cx="127.94" cy="102.87" r="1.66"/><circle cx="131.26" cy="102.87" r="1.66"/><circle cx="137.88" cy="102.87" r="1.66"/><circle cx="141.19" cy="102.87" r="1.66"/><circle cx="151.13" cy="102.87" r="1.66"/><circle cx="164.38" cy="102.87" r="1.66"/><circle cx="177.62" cy="102.87" r="1.66"/><circle cx="180.94" cy="102.87" r="1.66"/><circle cx="187.56" cy="102.87" r="1.66"/><circle cx="194.18" cy="102.87" r="1.66"/><circle cx="204.12" cy="102.87" r="1.66"/><circle cx="210.74" cy="102.87" r="1.66"/><circle cx="214.06" cy="102.87" r="1.66"/><circle cx="217.37" cy="102.87" r="1.66"/><circle cx="220.68" cy="102.87" r="1.66"/><circle cx="230.62" cy="102.87" r="1.66"/><circle cx="111.38" cy="106.18" r="1.66"/><circle cx="114.7" cy="106.18" r="1.66"/><circle cx="121.32" cy="106.18" r="1.66"/><circle cx="124.63" cy="106.18" r="1.66"/><circle cx="134.57" cy="106.18" r="1.66"/><circle cx="137.88" cy="106.18" r="1.66"/><circle cx="144.5" cy="106.18" r="1.66"/><circle cx="151.13" cy="106.18" r="1.66"/><circle cx="154.44" cy="106.18" r="1.66"/><circle cx="157.75" cy="106.18" r="1.66"/><circle cx="167.69" cy="106.18" r="1.66"/><circle cx="177.62" cy="106.18" r="1.66"/><circle cx="180.94" cy="106.18" r="1.66"/><circle cx="184.25" cy="106.18" r="1.66"/><circle cx="204.12" cy="106.18" r="1.66"/><circle cx="210.74" cy="106.18" r="1.66"/><circle cx="220.68" cy="106.18" r="1.66"/><circle cx="223.99" cy="106.18" r="1.66"/><circle cx="230.62" cy="106.18" r="1.66"/><circle cx="114.7" cy="109.5" r="1.66"/><circle cx="121.32" cy="109.5" r="1.66"/><circle cx="127.94" cy="109.5" r="1.66"/><circle cx="131.26" cy="109.5" r="1.66"/><circle cx="134.57" cy="109.5" r="1.66"/><circle cx="144.5" cy="109.5" r="1.66"/><circle cx="147.82" cy="109.5" r="1.66"/><circle cx="154.44" cy="109.5" r="1.66"/><circle cx="157.75" cy="109.5" r="1.66"/><circle cx="164.38" cy="109.5" r="1.66"/><circle cx="174.31" cy="109.5" r="1.66"/><circle cx="180.94" cy="109.5" r="1.66"/><circle cx="190.87" cy="109.5" r="1.66"/><circle cx="204.12" cy="109.5" r="1.66"/><circle cx="210.74" cy="109.5" r="1.66"/><circle cx="214.06" cy="109.5" r="1.66"/><circle cx="223.99" cy="109.5" r="1.66"/><circle cx="227.3" cy="109.5" r="1.66"/><circle cx="230.62" cy="109.5" r="1.66"/><circle cx="114.7" cy="112.81" r="1.66"/><circle cx="118.01" cy="112.81" r="1.66"/><circle cx="124.63" cy="112.81" r="1.66"/><circle cx="127.94" cy="112.81" r="1.66"/><circle cx="134.57" cy="112.81" r="1.66"/><circle cx="144.5" cy="112.81" r="1.66"/><circle cx="164.38" cy="112.81" r="1.66"/><circle cx="171" cy="112.81" r="1.66"/><circle cx="174.31" cy="112.81" r="1.66"/><circle cx="180.94" cy="112.81" r="1.66"/><circle cx="194.18" cy="112.81" r="1.66"/><circle cx="197.5" cy="112.81" r="1.66"/><circle cx="200.81" cy="112.81" r="1.66"/><circle cx="204.12" cy="112.81" r="1.66"/><circle cx="207.43" cy="112.81" r="1.66"/><circle cx="210.74" cy="112.81" r="1.66"/><circle cx="220.68" cy="112.81" r="1.66"/><circle cx="114.7" cy="116.12" r="1.66"/><circle cx="124.63" cy="116.12" r="1.66"/><circle cx="127.94" cy="116.12" r="1.66"/><circle cx="131.26" cy="116.12" r="1.66"/><circle cx="137.88" cy="116.12" r="1.66"/><circle cx="141.19" cy="116.12" r="1.66"/><circle cx="144.5" cy="116.12" r="1.66"/><circle cx="154.44" cy="116.12" r="1.66"/><circle cx="161.06" cy="116.12" r="1.66"/><circle cx="164.38" cy="116.12" r="1.66"/><circle cx="167.69" cy="116.12" r="1.66"/><circle cx="171" cy="116.12" r="1.66"/><circle cx="174.31" cy="116.12" r="1.66"/><circle cx="177.62" cy="116.12" r="1.66"/><circle cx="180.94" cy="116.12" r="1.66"/><circle cx="194.18" cy="116.12" r="1.66"/><circle cx="207.43" cy="116.12" r="1.66"/><circle cx="210.74" cy="116.12" r="1.66"/><circle cx="227.3" cy="116.12" r="1.66"/><circle cx="230.62" cy="116.12" r="1.66"/><circle cx="114.7" cy="119.43" r="1.66"/><circle cx="124.63" cy="119.43" r="1.66"/><circle cx="127.94" cy="119.43" r="1.66"/><circle cx="141.19" cy="119.43" r="1.66"/><circle cx="144.5" cy="119.43" r="1.66"/><circle cx="147.82" cy="119.43" r="1.66"/><circle cx="154.44" cy="119.43" r="1.66"/><circle cx="164.38" cy="119.43" r="1.66"/><circle cx="174.31" cy="119.43" r="1.66"/><circle cx="180.94" cy="119.43" r="1.66"/><circle cx="184.25" cy="119.43" r="1.66"/><circle cx="194.18" cy="119.43" r="1.66"/><circle cx="207.43" cy="119.43" r="1.66"/><circle cx="210.74" cy="119.43" r="1.66"/><circle cx="214.06" cy="119.43" r="1.66"/><circle cx="230.62" cy="119.43" r="1.66"/><circle cx="111.38" cy="122.74" r="1.66"/><circle cx="114.7" cy="122.74" r="1.66"/><circle cx="127.94" cy="122.74" r="1.66"/><circle cx="131.26" cy="122.74" r="1.66"/><circle cx="134.57" cy="122.74" r="1.66"/><circle cx="144.5" cy="122.74" r="1.66"/><circle cx="147.82" cy="122.74" r="1.66"/><circle cx="151.13" cy="122.74" r="1.66"/><circle cx="157.75" cy="122.74" r="1.66"/><circle cx="167.69" cy="122.74" r="1.66"/><circle cx="187.56" cy="122.74" r="1.66"/><circle cx="194.18" cy="122.74" r="1.66"/><circle cx="197.5" cy="122.74" r="1.66"/><circle cx="204.12" cy="122.74" r="1.66"/><circle cx="214.06" cy="122.74" r="1.66"/><circle cx="220.68" cy="122.74" r="1.66"/><circle cx="230.62" cy="122.74" r="1.66"/><circle cx="111.38" cy="126.06" r="1.66"/><circle cx="118.01" cy="126.06" r="1.66"/><circle cx="124.63" cy="126.06" r="1.66"/><circle cx="134.57" cy="126.06" r="1.66"/><circle cx="141.19" cy="126.06" r="1.66"/><circle cx="147.82" cy="126.06" r="1.66"/><circle cx="151.13" cy="126.06" r="1.66"/><circle cx="154.44" cy="126.06" r="1.66"/><circle cx="161.06" cy="126.06" r="1.66"/><circle cx="164.38" cy="126.06" r="1.66"/><circle cx="167.69" cy="126.06" r="1.66"/><circle cx="171" cy="126.06" r="1.66"/><circle cx="177.62" cy="126.06" r="1.66"/><circle cx="180.94" cy="126.06" r="1.66"/><circle cx="184.25" cy="126.06" r="1.66"/><circle cx="190.87" cy="126.06" r="1.66"/><circle cx="194.18" cy="126.06" r="1.66"/><circle cx="197.5" cy="126.06" r="1.66"/><circle cx="204.12" cy="126.06" r="1.66"/><circle cx="210.74" cy="126.06" r="1.66"/><circle cx="220.68" cy="126.06" r="1.66"/><circle cx="227.3" cy="126.06" r="1.66"/><circle cx="111.38" cy="129.37" r="1.66"/><circle cx="114.7" cy="129.37" r="1.66"/><circle cx="127.94" cy="129.37" r="1.66"/><circle cx="131.26" cy="129.37" r="1.66"/><circle cx="134.57" cy="129.37" r="1.66"/><circle cx="141.19" cy="129.37" r="1.66"/><circle cx="147.82" cy="129.37" r="1.66"/><circle cx="151.13" cy="129.37" r="1.66"/><circle cx="154.44" cy="129.37" r="1.66"/><circle cx="157.75" cy="129.37" r="1.66"/><circle cx="167.69" cy="129.37" r="1.66"/><circle cx="174.31" cy="129.37" r="1.66"/><circle cx="177.62" cy="129.37" r="1.66"/><circle cx="180.94" cy="129.37" r="1.66"/><circle cx="184.25" cy="129.37" r="1.66"/><circle cx="187.56" cy="129.37" r="1.66"/><circle cx="190.87" cy="129.37" r="1.66"/><circle cx="200.81" cy="129.37" r="1.66"/><circle cx="207.43" cy="129.37" r="1.66"/><circle cx="210.74" cy="129.37" r="1.66"/><circle cx="214.06" cy="129.37" r="1.66"/><circle cx="223.99" cy="129.37" r="1.66"/><circle cx="111.38" cy="132.68" r="1.66"/><circle cx="118.01" cy="132.68" r="1.66"/><circle cx="121.32" cy="132.68" r="1.66"/><circle cx="127.94" cy="132.68" r="1.66"/><circle cx="134.57" cy="132.68" r="1.66"/><circle cx="147.82" cy="132.68" r="1.66"/><circle cx="151.13" cy="132.68" r="1.66"/><circle cx="154.44" cy="132.68" r="1.66"/><circle cx="164.38" cy="132.68" r="1.66"/><circle cx="171" cy="132.68" r="1.66"/><circle cx="187.56" cy="132.68" r="1.66"/><circle cx="194.18" cy="132.68" r="1.66"/><circle cx="207.43" cy="132.68" r="1.66"/><circle cx="210.74" cy="132.68" r="1.66"/><circle cx="217.37" cy="132.68" r="1.66"/><circle cx="223.99" cy="132.68" r="1.66"/><circle cx="230.62" cy="132.68" r="1.66"/><circle cx="111.38" cy="135.99" r="1.66"/><circle cx="114.7" cy="135.99" r="1.66"/><circle cx="121.32" cy="135.99" r="1.66"/><circle cx="124.63" cy="135.99" r="1.66"/><circle cx="127.94" cy="135.99" r="1.66"/><circle cx="131.26" cy="135.99" r="1.66"/><circle cx="137.88" cy="135.99" r="1.66"/><circle cx="147.82" cy="135.99" r="1.66"/><circle cx="157.75" cy="135.99" r="1.66"/><circle cx="167.69" cy="135.99" r="1.66"/><circle cx="171" cy="135.99" r="1.66"/><circle cx="180.94" cy="135.99" r="1.66"/><circle cx="190.87" cy="135.99" r="1.66"/><circle cx="194.18" cy="135.99" r="1.66"/><circle cx="197.5" cy="135.99" r="1.66"/><circle cx="210.74" cy="135.99" r="1.66"/><circle cx="214.06" cy="135.99" r="1.66"/><circle cx="217.37" cy="135.99" r="1.66"/><circle cx="220.68" cy="135.99" r="1.66"/><circle cx="227.3" cy="135.99" r="1.66"/><circle cx="230.62" cy="135.99" r="1.66"/><circle cx="114.7" cy="139.3" r="1.66"/><circle cx="147.82" cy="139.3" r="1.66"/><circle cx="154.44" cy="139.3" r="1.66"/><circle cx="157.75" cy="139.3" r="1.66"/><circle cx="161.06" cy="139.3" r="1.66"/><circle cx="167.69" cy="139.3" r="1.66"/><circle cx="171" cy="139.3" r="1.66"/><circle cx="174.31" cy="139.3" r="1.66"/><circle cx="177.62" cy="139.3" r="1.66"/><circle cx="180.94" cy="139.3" r="1.66"/><circle cx="184.25" cy="139.3" r="1.66"/><circle cx="187.56" cy="139.3" r="1.66"/><circle cx="204.12" cy="139.3" r="1.66"/><circle cx="207.43" cy="139.3" r="1.66"/><circle cx="210.74" cy="139.3" r="1.66"/><circle cx="214.06" cy="139.3" r="1.66"/><circle cx="217.37" cy="139.3" r="1.66"/><circle cx="223.99" cy="139.3" r="1.66"/><circle cx="227.3" cy="139.3" r="1.66"/><circle cx="230.62" cy="139.3" r="1.66"/><circle cx="111.38" cy="142.62" r="1.66"/><circle cx="118.01" cy="142.62" r="1.66"/><circle cx="124.63" cy="142.62" r="1.66"/><circle cx="131.26" cy="142.62" r="1.66"/><circle cx="134.57" cy="142.62" r="1.66"/><circle cx="141.19" cy="142.62" r="1.66"/><circle cx="147.82" cy="142.62" r="1.66"/><circle cx="154.44" cy="142.62" r="1.66"/><circle cx="157.75" cy="142.62" r="1.66"/><circle cx="161.06" cy="142.62" r="1.66"/><circle cx="164.38" cy="142.62" r="1.66"/><circle cx="174.31" cy="142.62" r="1.66"/><circle cx="180.94" cy="142.62" r="1.66"/><circle cx="187.56" cy="142.62" r="1.66"/><circle cx="194.18" cy="142.62" r="1.66"/><circle cx="197.5" cy="142.62" r="1.66"/><circle cx="210.74" cy="142.62" r="1.66"/><circle cx="217.37" cy="142.62" r="1.66"/><circle cx="227.3" cy="142.62" r="1.66"/><circle cx="230.62" cy="142.62" r="1.66"/><circle cx="114.7" cy="145.93" r="1.66"/><circle cx="121.32" cy="145.93" r="1.66"/><circle cx="127.94" cy="145.93" r="1.66"/><circle cx="137.88" cy="145.93" r="1.66"/><circle cx="141.19" cy="145.93" r="1.66"/><circle cx="147.82" cy="145.93" r="1.66"/><circle cx="164.38" cy="145.93" r="1.66"/><circle cx="171" cy="145.93" r="1.66"/><circle cx="177.62" cy="145.93" r="1.66"/><circle cx="180.94" cy="145.93" r="1.66"/><circle cx="194.18" cy="145.93" r="1.66"/><circle cx="204.12" cy="145.93" r="1.66"/><circle cx="207.43" cy="145.93" r="1.66"/><circle cx="210.74" cy="145.93" r="1.66"/><circle cx="223.99" cy="145.93" r="1.66"/><circle cx="111.38" cy="149.24" r="1.66"/><circle cx="114.7" cy="149.24" r="1.66"/><circle cx="118.01" cy="149.24" r="1.66"/><circle cx="131.26" cy="149.24" r="1.66"/><circle cx="137.88" cy="149.24" r="1.66"/><circle cx="141.19" cy="149.24" r="1.66"/><circle cx="144.5" cy="149.24" r="1.66"/><circle cx="151.13" cy="149.24" r="1.66"/><circle cx="154.44" cy="149.24" r="1.66"/><circle cx="164.38" cy="149.24" r="1.66"/><circle cx="171" cy="149.24" r="1.66"/><circle cx="174.31" cy="149.24" r="1.66"/><circle cx="180.94" cy="149.24" r="1.66"/><circle cx="184.25" cy="149.24" r="1.66"/><circle cx="190.87" cy="149.24" r="1.66"/><circle cx="204.12" cy="149.24" r="1.66"/><circle cx="207.43" cy="149.24" r="1.66"/><circle cx="210.74" cy="149.24" r="1.66"/><circle cx="214.06" cy="149.24" r="1.66"/><circle cx="217.37" cy="149.24" r="1.66"/><circle cx="220.68" cy="149.24" r="1.66"/><circle cx="227.3" cy="149.24" r="1.66"/><circle cx="230.62" cy="149.24" r="1.66"/><circle cx="137.88" cy="152.55" r="1.66"/><circle cx="151.13" cy="152.55" r="1.66"/><circle cx="154.44" cy="152.55" r="1.66"/><circle cx="157.75" cy="152.55" r="1.66"/><circle cx="164.38" cy="152.55" r="1.66"/><circle cx="171" cy="152.55" r="1.66"/><circle cx="174.31" cy="152.55" r="1.66"/><circle cx="180.94" cy="152.55" r="1.66"/><circle cx="184.25" cy="152.55" r="1.66"/><circle cx="187.56" cy="152.55" r="1.66"/><circle cx="194.18" cy="152.55" r="1.66"/><circle cx="200.81" cy="152.55" r="1.66"/><circle cx="204.12" cy="152.55" r="1.66"/><circle cx="217.37" cy="152.55" r="1.66"/><circle cx="137.88" cy="155.86" r="1.66"/><circle cx="144.5" cy="155.86" r="1.66"/><circle cx="147.82" cy="155.86" r="1.66"/><circle cx="151.13" cy="155.86" r="1.66"/><circle cx="157.75" cy="155.86" r="1.66"/><circle cx="161.06" cy="155.86" r="1.66"/><circle cx="164.38" cy="155.86" r="1.66"/><circle cx="167.69" cy="155.86" r="1.66"/><circle cx="174.31" cy="155.86" r="1.66"/><circle cx="177.62" cy="155.86" r="1.66"/><circle cx="180.94" cy="155.86" r="1.66"/><circle cx="194.18" cy="155.86" r="1.66"/><circle cx="197.5" cy="155.86" r="1.66"/><circle cx="200.81" cy="155.86" r="1.66"/><circle cx="204.12" cy="155.86" r="1.66"/><circle cx="210.74" cy="155.86" r="1.66"/><circle cx="217.37" cy="155.86" r="1.66"/><circle cx="227.3" cy="155.86" r="1.66"/><circle cx="230.62" cy="155.86" r="1.66"/><circle cx="141.19" cy="159.18" r="1.66"/><circle cx="151.13" cy="159.18" r="1.66"/><circle cx="157.75" cy="159.18" r="1.66"/><circle cx="174.31" cy="159.18" r="1.66"/><circle cx="180.94" cy="159.18" r="1.66"/><circle cx="194.18" cy="159.18" r="1.66"/><circle cx="200.81" cy="159.18" r="1.66"/><circle cx="204.12" cy="159.18" r="1.66"/><circle cx="217.37" cy="159.18" r="1.66"/><circle cx="227.3" cy="159.18" r="1.66"/><circle cx="230.62" cy="159.18" r="1.66"/><circle cx="144.5" cy="162.49" r="1.66"/><circle cx="164.38" cy="162.49" r="1.66"/><circle cx="177.62" cy="162.49" r="1.66"/><circle cx="187.56" cy="162.49" r="1.66"/><circle cx="190.87" cy="162.49" r="1.66"/><circle cx="194.18" cy="162.49" r="1.66"/><circle cx="197.5" cy="162.49" r="1.66"/><circle cx="204.12" cy="162.49" r="1.66"/><circle cx="207.43" cy="162.49" r="1.66"/><circle cx="210.74" cy="162.49" r="1.66"/><circle cx="214.06" cy="162.49" r="1.66"/><circle cx="217.37" cy="162.49" r="1.66"/><circle cx="220.68" cy="162.49" r="1.66"/><circle cx="227.3" cy="162.49" r="1.66"/><circle cx="137.88" cy="165.8" r="1.66"/><circle cx="141.19" cy="165.8" r="1.66"/><circle cx="144.5" cy="165.8" r="1.66"/><circle cx="147.82" cy="165.8" r="1.66"/><circle cx="157.75" cy="165.8" r="1.66"/><circle cx="167.69" cy="165.8" r="1.66"/><circle cx="180.94" cy="165.8" r="1.66"/><circle cx="187.56" cy="165.8" r="1.66"/><circle cx="194.18" cy="165.8" r="1.66"/><circle cx="197.5" cy="165.8" r="1.66"/><circle cx="204.12" cy="165.8" r="1.66"/><circle cx="141.19" cy="169.11" r="1.66"/><circle cx="144.5" cy="169.11" r="1.66"/><circle cx="164.38" cy="169.11" r="1.66"/><circle cx="167.69" cy="169.11" r="1.66"/><circle cx="174.31" cy="169.11" r="1.66"/><circle cx="180.94" cy="169.11" r="1.66"/><circle cx="184.25" cy="169.11" r="1.66"/><circle cx="197.5" cy="169.11" r="1.66"/><circle cx="200.81" cy="169.11" r="1.66"/><circle cx="210.74" cy="169.11" r="1.66"/><circle cx="217.37" cy="169.11" r="1.66"/><circle cx="220.68" cy="169.11" r="1.66"/><circle cx="223.99" cy="169.11" r="1.66"/><circle cx="230.62" cy="169.11" r="1.66"/><circle cx="137.88" cy="172.42" r="1.66"/><circle cx="141.19" cy="172.42" r="1.66"/><circle cx="144.5" cy="172.42" r="1.66"/><circle cx="157.75" cy="172.42" r="1.66"/><circle cx="164.38" cy="172.42" r="1.66"/><circle cx="187.56" cy="172.42" r="1.66"/><circle cx="194.18" cy="172.42" r="1.66"/><circle cx="207.43" cy="172.42" r="1.66"/><circle cx="214.06" cy="172.42" r="1.66"/><circle cx="227.3" cy="172.42" r="1.66"/><circle cx="230.62" cy="172.42" r="1.66"/><circle cx="137.88" cy="175.74" r="1.66"/><circle cx="141.19" cy="175.74" r="1.66"/><circle cx="144.5" cy="175.74" r="1.66"/><circle cx="151.13" cy="175.74" r="1.66"/><circle cx="164.38" cy="175.74" r="1.66"/><circle cx="177.62" cy="175.74" r="1.66"/><circle cx="184.25" cy="175.74" r="1.66"/><circle cx="190.87" cy="175.74" r="1.66"/><circle cx="194.18" cy="175.74" r="1.66"/><circle cx="197.5" cy="175.74" r="1.66"/><circle cx="200.81" cy="175.74" r="1.66"/><circle cx="204.12" cy="175.74" r="1.66"/><circle cx="214.06" cy="175.74" r="1.66"/><circle cx="217.37" cy="175.74" r="1.66"/><circle cx="227.3" cy="175.74" r="1.66"/><circle cx="230.62" cy="175.74" r="1.66"/><path d="M110.43,54.85a.7.7,0,0,0-.71.7V77.33a.71.71,0,0,0,.71.71h21.78a.71.71,0,0,0,.71-.71V55.55a.7.7,0,0,0-.71-.7Zm19.17,6.62V74.32a.4.4,0,0,1-.4.4H113.44a.4.4,0,0,1-.4-.4V58.56a.4.4,0,0,1,.4-.4H129.2a.4.4,0,0,1,.4.4Z"/><path d="M126.29,68.1V62.17a.71.71,0,0,0-.71-.7h-8.53a.7.7,0,0,0-.7.7v8.54a.7.7,0,0,0,.7.7h8.53a.7.7,0,0,0,.71-.7Z"/><path d="M209.79,54.85a.7.7,0,0,0-.71.7V77.33a.71.71,0,0,0,.71.71h21.78a.71.71,0,0,0,.71-.71V55.55a.7.7,0,0,0-.71-.7ZM229,61.47V74.32a.4.4,0,0,1-.4.4H212.8a.4.4,0,0,1-.4-.4V58.56a.4.4,0,0,1,.4-.4h15.76a.4.4,0,0,1,.4.4Z"/><path d="M225.65,68.1V62.17a.71.71,0,0,0-.71-.7h-8.53a.7.7,0,0,0-.7.7v8.54a.7.7,0,0,0,.7.7h8.53a.7.7,0,0,0,.71-.7Z"/><path d="M110.43,154.21a.7.7,0,0,0-.71.7v21.78a.71.71,0,0,0,.71.71h21.78a.71.71,0,0,0,.71-.71V154.91a.7.7,0,0,0-.71-.7Zm19.17,6.62v12.85a.4.4,0,0,1-.4.4H113.44a.4.4,0,0,1-.4-.4V157.92a.4.4,0,0,1,.4-.4H129.2a.4.4,0,0,1,.4.4Z"/><path d="M126.29,167.46v-5.93a.71.71,0,0,0-.71-.7h-8.53a.7.7,0,0,0-.7.7v8.54a.7.7,0,0,0,.7.7h8.53a.7.7,0,0,0,.71-.7Z"/></g></g></svg>