<svg xmlns="http://www.w3.org/2000/svg" viewBox="0 0 342 234"><defs><style>.cls-1{fill:#f16522;}.cls-2{opacity:0.21;}.cls-3{opacity:0.5;}.cls-4{fill:#fff;}</style></defs><g id="Layer_2" data-name="Layer 2"><g id="orange_export_qr_with_background" data-name="orange export qr with background"><rect id="background" class="cls-1" width="342" height="234" rx="18"/><g id="link_icons" data-name="link icons" class="cls-2"><path class="cls-3" d="M34.88,71.56A15.66,15.66,0,0,1,12.74,49.42L23.81,38.34a15.69,15.69,0,0,1,22.15,0c1.27.23,2,2,1.81,3.24a2.34,2.34,0,0,1-2.71,1.9,4.25,4.25,0,0,1-2.43-1.81,10.87,10.87,0,0,0-15.5,0L16.06,52.74a11,11,0,0,0,15.5,15.5l10-10a2.35,2.35,0,0,1,3.37,3.28s0,0,0,.05l-10,10ZM57,49.42a15.69,15.69,0,0,1-22.15,0,2.35,2.35,0,0,1,3.32-3.33h0a10.88,10.88,0,0,0,15.51,0L64.78,35a11,11,0,0,0-15.5-15.5l-10,10a2.35,2.35,0,1,1-3.37-3.27l.05-.05,10-10A15.66,15.66,0,1,1,68.1,38.34Z"/><path class="cls-3" d="M101.92,71.56A15.66,15.66,0,0,1,79.77,49.42L90.85,38.34a15.68,15.68,0,0,1,22.14,0c1.28.23,2.05,2,1.82,3.24a2.34,2.34,0,0,1-2.72,1.9,4.26,4.26,0,0,1-2.42-1.81,10.87,10.87,0,0,0-15.5,0L83.1,52.74a11,11,0,0,0,15.5,15.5l10-10a2.35,2.35,0,0,1,3.37,3.28l0,.05-10,10Zm22.15-22.14a15.69,15.69,0,0,1-22.15,0,2.35,2.35,0,0,1,3.32-3.33h0a10.87,10.87,0,0,0,15.5,0L131.82,35a11,11,0,0,0-15.5-15.5l-10,10A2.35,2.35,0,0,1,103,26.21l0-.05,10-10a15.66,15.66,0,1,1,22.15,22.14Z"/><path class="cls-3" d="M169,71.56a15.66,15.66,0,1,1-22.15-22.14l11.08-11.08a15.68,15.68,0,0,1,22.14,0c1.28.23,2,2,1.82,3.24a2.34,2.34,0,0,1-2.72,1.9,4.23,4.23,0,0,1-2.42-1.81,10.87,10.87,0,0,0-15.5,0L150.13,52.74a11,11,0,0,0,15.51,15.5l10-10A2.35,2.35,0,0,1,179,61.55s0,0-.05.05l-10,10ZM191.1,49.42a15.68,15.68,0,0,1-22.14,0,2.35,2.35,0,0,1,3.32-3.33h0a10.87,10.87,0,0,0,15.5,0L198.86,35a11,11,0,1,0-15.51-15.5l-10,10A2.35,2.35,0,1,1,170,26.21s0,0,0-.05l10-10a15.66,15.66,0,1,1,22.15,22.14Z"/><path class="cls-3" d="M236,71.56a15.66,15.66,0,0,1-22.15-22.14l11.07-11.08a15.69,15.69,0,0,1,22.15,0c1.28.23,2,2,1.82,3.24a2.34,2.34,0,0,1-2.72,1.9,4.23,4.23,0,0,1-2.42-1.81,10.87,10.87,0,0,0-15.5,0L217.17,52.74a11,11,0,0,0,15.5,15.5l10-10A2.35,2.35,0,0,1,246,61.55l0,.05-10,10Zm22.14-22.14a15.68,15.68,0,0,1-22.14,0,2.35,2.35,0,0,1,3.32-3.33h0a10.87,10.87,0,0,0,15.5,0L265.89,35a11,11,0,0,0-15.5-15.5l-10,10a2.35,2.35,0,1,1-3.37-3.27l0-.05,10-10a15.66,15.66,0,0,1,22.15,22.14Z"/><path class="cls-3" d="M303,71.56a15.66,15.66,0,0,1-22.15-22.14L292,38.34a15.69,15.69,0,0,1,22.15,0c1.28.23,2,2,1.82,3.24a2.35,2.35,0,0,1-2.72,1.9,4.2,4.2,0,0,1-2.42-1.81,10.88,10.88,0,0,0-15.51,0L284.21,52.74a11,11,0,0,0,15.5,15.5l10-10a2.35,2.35,0,0,1,3.37,3.28l-.05.05-10,10Zm22.14-22.14a15.68,15.68,0,0,1-22.14,0,2.35,2.35,0,0,1,3.32-3.33h0a10.87,10.87,0,0,0,15.5,0L332.93,35a11,11,0,0,0-15.5-15.5l-10,10a2.34,2.34,0,1,1-3.36-3.27l0-.05,10-10a15.66,15.66,0,0,1,22.14,22.14Z"/><path class="cls-3" d="M34.12,219.46A15.66,15.66,0,0,1,12,197.32l11.07-11.08a15.69,15.69,0,0,1,22.15,0c1.27.23,2,2,1.82,3.24a2.37,2.37,0,0,1-2.72,1.91,4.31,4.31,0,0,1-2.43-1.82,10.87,10.87,0,0,0-15.5,0L15.3,200.64a11,11,0,0,0,15.5,15.5l10-10a2.35,2.35,0,1,1,3.37,3.27l0,.05-10,10Zm22.15-22.14a15.69,15.69,0,0,1-22.15,0A2.35,2.35,0,1,1,37.45,194h0A10.89,10.89,0,0,0,53,194L64,182.92a11,11,0,0,0-15.5-15.5l-10,10a2.35,2.35,0,0,1-3.37-3.28l0-.05,10-10a15.66,15.66,0,0,1,22.14,22.14Z"/><path class="cls-3" d="M101.16,219.46A15.66,15.66,0,0,1,79,197.32l11.07-11.08a15.68,15.68,0,0,1,22.14,0c1.28.23,2,2,1.82,3.24a2.36,2.36,0,0,1-2.72,1.91,4.33,4.33,0,0,1-2.42-1.82,10.87,10.87,0,0,0-15.5,0L82.34,200.64a11,11,0,0,0,15.5,15.5l10-10a2.34,2.34,0,1,1,3.36,3.27l0,.05-10,10Zm22.15-22.14a15.69,15.69,0,0,1-22.15,0,2.35,2.35,0,1,1,3.32-3.32h0A10.9,10.9,0,0,0,120,194l11.07-11.08a11,11,0,0,0-15.5-15.5l-10,10a2.35,2.35,0,0,1-3.37-3.28l0-.05,10-10a15.66,15.66,0,0,1,22.14,22.14Z"/><path class="cls-3" d="M168.2,219.46a15.66,15.66,0,0,1-22.15-22.14l11.08-11.08a15.68,15.68,0,0,1,22.14,0c1.28.23,2,2,1.82,3.24a2.36,2.36,0,0,1-2.72,1.91,4.29,4.29,0,0,1-2.42-1.82,10.87,10.87,0,0,0-15.5,0l-11.07,11.07a11,11,0,0,0,15.5,15.5l10-10a2.35,2.35,0,1,1,3.37,3.27l0,.05-10,10Zm22.15-22.14a15.69,15.69,0,0,1-22.15,0,2.35,2.35,0,0,1,3.32-3.32h0a10.89,10.89,0,0,0,15.5,0l11.08-11.08a11,11,0,0,0-15.5-15.5l-10,10a2.35,2.35,0,0,1-3.37-3.28l.05-.05,10-10a15.66,15.66,0,0,1,22.15,22.14Z"/><path class="cls-3" d="M235.24,219.46a15.66,15.66,0,0,1-22.15-22.14l11.08-11.08a15.68,15.68,0,0,1,22.14,0c1.28.23,2,2,1.82,3.24a2.36,2.36,0,0,1-2.72,1.91,4.29,4.29,0,0,1-2.42-1.82,10.87,10.87,0,0,0-15.5,0l-11.08,11.07a11,11,0,0,0,15.51,15.5l10-10a2.35,2.35,0,0,1,3.37,3.27s0,0-.05.05l-10,10Zm22.14-22.14a15.68,15.68,0,0,1-22.14,0,2.35,2.35,0,0,1,3.32-3.32h0a10.89,10.89,0,0,0,15.5,0l11.08-11.08a11,11,0,0,0-15.51-15.5l-10,10a2.35,2.35,0,0,1-3.37-3.28l0-.05,10-10a15.66,15.66,0,0,1,22.15,22.14Z"/><path class="cls-3" d="M302.28,219.46a15.66,15.66,0,0,1-22.15-22.14l11.07-11.08a15.69,15.69,0,0,1,22.15,0c1.28.23,2,2,1.82,3.24a2.36,2.36,0,0,1-2.72,1.91,4.26,4.26,0,0,1-2.42-1.82,10.87,10.87,0,0,0-15.5,0l-11.08,11.07a11,11,0,0,0,15.5,15.5l10-10a2.35,2.35,0,1,1,3.37,3.27l-.05.05-10,10Zm22.14-22.14a15.68,15.68,0,0,1-22.14,0A2.35,2.35,0,0,1,305.6,194h0a10.89,10.89,0,0,0,15.5,0l11.07-11.08a11,11,0,0,0-15.5-15.5l-10,10a2.35,2.35,0,0,1-3.37-3.28l0-.05,10-10a15.66,15.66,0,0,1,22.15,22.14Z"/></g><rect class="cls-4" x="99" y="45" width="144" height="144" rx="11.52"/></g><g id="_09" data-name="09"><circle cx="141.19" cy="60.77" r="1.66"/><circle cx="161.06" cy="60.77" r="1.66"/><circle cx="164.38" cy="60.77" r="1.66"/><circle cx="177.62" cy="60.77" r="1.66"/><circle cx="180.94" cy="60.77" r="1.66"/><circle cx="187.56" cy="60.77" r="1.66"/><circle cx="190.87" cy="60.77" r="1.66"/><circle cx="197.5" cy="60.77" r="1.66"/><circle cx="200.81" cy="60.77" r="1.66"/><circle cx="204.12" cy="60.77" r="1.66"/><circle cx="137.88" cy="64.09" r="1.66"/><circle cx="141.19" cy="64.09" r="1.66"/><circle cx="147.82" cy="64.09" r="1.66"/><circle cx="151.13" cy="64.09" r="1.66"/><circle cx="167.69" cy="64.09" r="1.66"/><circle cx="184.25" cy="64.09" r="1.66"/><circle cx="194.18" cy="64.09" r="1.66"/><circle cx="197.5" cy="64.09" r="1.66"/><circle cx="200.81" cy="64.09" r="1.66"/><circle cx="141.19" cy="67.4" r="1.66"/><circle cx="144.5" cy="67.4" r="1.66"/><circle cx="147.82" cy="67.4" r="1.66"/><circle cx="157.75" cy="67.4" r="1.66"/><circle cx="164.38" cy="67.4" r="1.66"/><circle cx="174.31" cy="67.4" r="1.66"/><circle cx="177.62" cy="67.4" r="1.66"/><circle cx="180.94" cy="67.4" r="1.66"/><circle cx="187.56" cy="67.4" r="1.66"/><circle cx="204.12" cy="67.4" r="1.66"/><circle cx="137.88" cy="70.71" r="1.66"/><circle cx="141.19" cy="70.71" r="1.66"/><circle cx="147.82" cy="70.71" r="1.66"/><circle cx="164.38" cy="70.71" r="1.66"/><circle cx="167.69" cy="70.71" r="1.66"/><circle cx="171" cy="70.71" r="1.66"/><circle cx="177.62" cy="70.71" r="1.66"/><circle cx="180.94" cy="70.71" r="1.66"/><circle cx="184.25" cy="70.71" r="1.66"/><circle cx="194.18" cy="70.71" r="1.66"/><circle cx="200.81" cy="70.71" r="1.66"/><circle cx="144.5" cy="74.02" r="1.66"/><circle cx="151.13" cy="74.02" r="1.66"/><circle cx="154.44" cy="74.02" r="1.66"/><circle cx="157.75" cy="74.02" r="1.66"/><circle cx="161.06" cy="74.02" r="1.66"/><circle cx="171" cy="74.02" r="1.66"/><circle cx="174.31" cy="74.02" r="1.66"/><circle cx="177.62" cy="74.02" r="1.66"/><circle cx="180.94" cy="74.02" r="1.66"/><circle cx="197.5" cy="74.02" r="1.66"/><circle cx="204.12" cy="74.02" r="1.66"/><circle cx="137.88" cy="77.33" r="1.66"/><circle cx="144.5" cy="77.33" r="1.66"/><circle cx="154.44" cy="77.33" r="1.66"/><circle cx="157.75" cy="77.33" r="1.66"/><circle cx="161.06" cy="77.33" r="1.66"/><circle cx="164.38" cy="77.33" r="1.66"/><circle cx="167.69" cy="77.33" r="1.66"/><circle cx="171" cy="77.33" r="1.66"/><circle cx="177.62" cy="77.33" r="1.66"/><circle cx="184.25" cy="77.33" r="1.66"/><circle cx="194.18" cy="77.33" r="1.66"/><circle cx="197.5" cy="77.33" r="1.66"/><circle cx="200.81" cy="77.33" r="1.66"/><circle cx="137.88" cy="80.65" r="1.66"/><circle cx="144.5" cy="80.65" r="1.66"/><circle cx="151.13" cy="80.65" r="1.66"/><circle cx="157.75" cy="80.65" r="1.66"/><circle cx="164.38" cy="80.65" r="1.66"/><circle cx="171" cy="80.65" r="1.66"/><circle cx="177.62" cy="80.65" r="1.66"/><circle cx="184.25" cy="80.65" r="1.66"/><circle cx="190.87" cy="80.65" r="1.66"/><circle cx="197.5" cy="80.65" r="1.66"/><circle cx="204.12" cy="80.65" r="1.66"/><circle cx="151.13" cy="83.96" r="1.66"/><circle cx="154.44" cy="83.96" r="1.66"/><circle cx="161.06" cy="83.96" r="1.66"/><circle cx="167.69" cy="83.96" r="1.66"/><circle cx="171" cy="83.96" r="1.66"/><circle cx="174.31" cy="83.96" r="1.66"/><circle cx="177.62" cy="83.96" r="1.66"/><circle cx="180.94" cy="83.96" r="1.66"/><circle cx="187.56" cy="83.96" r="1.66"/><circle cx="197.5" cy="83.96" r="1.66"/><circle cx="204.12" cy="83.96" r="1.66"/><circle cx="111.38" cy="87.27" r="1.66"/><circle cx="114.7" cy="87.27" r="1.66"/><circle cx="118.01" cy="87.27" r="1.66"/><circle cx="121.32" cy="87.27" r="1.66"/><circle cx="124.63" cy="87.27" r="1.66"/><circle cx="131.26" cy="87.27" r="1.66"/><circle cx="134.57" cy="87.27" r="1.66"/><circle cx="137.88" cy="87.27" r="1.66"/><circle cx="141.19" cy="87.27" r="1.66"/><circle cx="144.5" cy="87.27" r="1.66"/><circle cx="151.13" cy="87.27" r="1.66"/><circle cx="157.75" cy="87.27" r="1.66"/><circle cx="161.06" cy="87.27" r="1.66"/><circle cx="177.62" cy="87.27" r="1.66"/><circle cx="180.94" cy="87.27" r="1.66"/><circle cx="184.25" cy="87.27" r="1.66"/><circle cx="190.87" cy="87.27" r="1.66"/><circle cx="197.5" cy="87.27" r="1.66"/><circle cx="200.81" cy="87.27" r="1.66"/><circle cx="207.43" cy="87.27" r="1.66"/><circle cx="214.06" cy="87.27" r="1.66"/><circle cx="220.68" cy="87.27" r="1.66"/><circle cx="227.3" cy="87.27" r="1.66"/><circle cx="114.7" cy="90.58" r="1.66"/><circle cx="121.32" cy="90.58" r="1.66"/><circle cx="127.94" cy="90.58" r="1.66"/><circle cx="137.88" cy="90.58" r="1.66"/><circle cx="161.06" cy="90.58" r="1.66"/><circle cx="164.38" cy="90.58" r="1.66"/><circle cx="174.31" cy="90.58" r="1.66"/><circle cx="177.62" cy="90.58" r="1.66"/><circle cx="180.94" cy="90.58" r="1.66"/><circle cx="184.25" cy="90.58" r="1.66"/><circle cx="187.56" cy="90.58" r="1.66"/><circle cx="190.87" cy="90.58" r="1.66"/><circle cx="207.43" cy="90.58" r="1.66"/><circle cx="230.62" cy="90.58" r="1.66"/><circle cx="118.01" cy="93.89" r="1.66"/><circle cx="124.63" cy="93.89" r="1.66"/><circle cx="131.26" cy="93.89" r="1.66"/><circle cx="144.5" cy="93.89" r="1.66"/><circle cx="147.82" cy="93.89" r="1.66"/><circle cx="151.13" cy="93.89" r="1.66"/><circle cx="167.69" cy="93.89" r="1.66"/><circle cx="171" cy="93.89" r="1.66"/><circle cx="174.31" cy="93.89" r="1.66"/><circle cx="184.25" cy="93.89" r="1.66"/><circle cx="190.87" cy="93.89" r="1.66"/><circle cx="194.18" cy="93.89" r="1.66"/><circle cx="200.81" cy="93.89" r="1.66"/><circle cx="204.12" cy="93.89" r="1.66"/><circle cx="207.43" cy="93.89" r="1.66"/><circle cx="210.74" cy="93.89" r="1.66"/><circle cx="217.37" cy="93.89" r="1.66"/><circle cx="223.99" cy="93.89" r="1.66"/><circle cx="230.62" cy="93.89" r="1.66"/><circle cx="111.38" cy="97.21" r="1.66"/><circle cx="114.7" cy="97.21" r="1.66"/><circle cx="118.01" cy="97.21" r="1.66"/><circle cx="121.32" cy="97.21" r="1.66"/><circle cx="124.63" cy="97.21" r="1.66"/><circle cx="134.57" cy="97.21" r="1.66"/><circle cx="141.19" cy="97.21" r="1.66"/><circle cx="144.5" cy="97.21" r="1.66"/><circle cx="147.82" cy="97.21" r="1.66"/><circle cx="157.75" cy="97.21" r="1.66"/><circle cx="164.38" cy="97.21" r="1.66"/><circle cx="174.31" cy="97.21" r="1.66"/><circle cx="177.62" cy="97.21" r="1.66"/><circle cx="187.56" cy="97.21" r="1.66"/><circle cx="194.18" cy="97.21" r="1.66"/><circle cx="204.12" cy="97.21" r="1.66"/><circle cx="214.06" cy="97.21" r="1.66"/><circle cx="220.68" cy="97.21" r="1.66"/><circle cx="227.3" cy="97.21" r="1.66"/><circle cx="111.38" cy="100.52" r="1.66"/><circle cx="121.32" cy="100.52" r="1.66"/><circle cx="131.26" cy="100.52" r="1.66"/><circle cx="147.82" cy="100.52" r="1.66"/><circle cx="164.38" cy="100.52" r="1.66"/><circle cx="171" cy="100.52" r="1.66"/><circle cx="184.25" cy="100.52" r="1.66"/><circle cx="197.5" cy="100.52" r="1.66"/><circle cx="200.81" cy="100.52" r="1.66"/><circle cx="204.12" cy="100.52" r="1.66"/><circle cx="207.43" cy="100.52" r="1.66"/><circle cx="217.37" cy="100.52" r="1.66"/><circle cx="223.99" cy="100.52" r="1.66"/><circle cx="227.3" cy="100.52" r="1.66"/><circle cx="230.62" cy="100.52" r="1.66"/><circle cx="111.38" cy="103.83" r="1.66"/><circle cx="118.01" cy="103.83" r="1.66"/><circle cx="124.63" cy="103.83" r="1.66"/><circle cx="127.94" cy="103.83" r="1.66"/><circle cx="134.57" cy="103.83" r="1.66"/><circle cx="137.88" cy="103.83" r="1.66"/><circle cx="141.19" cy="103.83" r="1.66"/><circle cx="144.5" cy="103.83" r="1.66"/><circle cx="151.13" cy="103.83" r="1.66"/><circle cx="154.44" cy="103.83" r="1.66"/><circle cx="157.75" cy="103.83" r="1.66"/><circle cx="161.06" cy="103.83" r="1.66"/><circle cx="180.94" cy="103.83" r="1.66"/><circle cx="197.5" cy="103.83" r="1.66"/><circle cx="200.81" cy="103.83" r="1.66"/><circle cx="204.12" cy="103.83" r="1.66"/><circle cx="207.43" cy="103.83" r="1.66"/><circle cx="214.06" cy="103.83" r="1.66"/><circle cx="217.37" cy="103.83" r="1.66"/><circle cx="220.68" cy="103.83" r="1.66"/><circle cx="230.62" cy="103.83" r="1.66"/><circle cx="118.01" cy="107.14" r="1.66"/><circle cx="121.32" cy="107.14" r="1.66"/><circle cx="124.63" cy="107.14" r="1.66"/><circle cx="131.26" cy="107.14" r="1.66"/><circle cx="134.57" cy="107.14" r="1.66"/><circle cx="137.88" cy="107.14" r="1.66"/><circle cx="154.44" cy="107.14" r="1.66"/><circle cx="157.75" cy="107.14" r="1.66"/><circle cx="161.06" cy="107.14" r="1.66"/><circle cx="164.38" cy="107.14" r="1.66"/><circle cx="167.69" cy="107.14" r="1.66"/><circle cx="171" cy="107.14" r="1.66"/><circle cx="177.62" cy="107.14" r="1.66"/><circle cx="187.56" cy="107.14" r="1.66"/><circle cx="190.87" cy="107.14" r="1.66"/><circle cx="194.18" cy="107.14" r="1.66"/><circle cx="197.5" cy="107.14" r="1.66"/><circle cx="200.81" cy="107.14" r="1.66"/><circle cx="207.43" cy="107.14" r="1.66"/><circle cx="210.74" cy="107.14" r="1.66"/><circle cx="217.37" cy="107.14" r="1.66"/><circle cx="223.99" cy="107.14" r="1.66"/><circle cx="227.3" cy="107.14" r="1.66"/><circle cx="230.62" cy="107.14" r="1.66"/><circle cx="114.7" cy="110.45" r="1.66"/><circle cx="124.63" cy="110.45" r="1.66"/><circle cx="127.94" cy="110.45" r="1.66"/><circle cx="141.19" cy="110.45" r="1.66"/><circle cx="144.5" cy="110.45" r="1.66"/><circle cx="151.13" cy="110.45" r="1.66"/><circle cx="154.44" cy="110.45" r="1.66"/><circle cx="161.06" cy="110.45" r="1.66"/><circle cx="167.69" cy="110.45" r="1.66"/><circle cx="174.31" cy="110.45" r="1.66"/><circle cx="177.62" cy="110.45" r="1.66"/><circle cx="187.56" cy="110.45" r="1.66"/><circle cx="190.87" cy="110.45" r="1.66"/><circle cx="194.18" cy="110.45" r="1.66"/><circle cx="204.12" cy="110.45" r="1.66"/><circle cx="220.68" cy="110.45" r="1.66"/><circle cx="223.99" cy="110.45" r="1.66"/><circle cx="227.3" cy="110.45" r="1.66"/><circle cx="114.7" cy="113.77" r="1.66"/><circle cx="118.01" cy="113.77" r="1.66"/><circle cx="124.63" cy="113.77" r="1.66"/><circle cx="127.94" cy="113.77" r="1.66"/><circle cx="131.26" cy="113.77" r="1.66"/><circle cx="134.57" cy="113.77" r="1.66"/><circle cx="137.88" cy="113.77" r="1.66"/><circle cx="144.5" cy="113.77" r="1.66"/><circle cx="151.13" cy="113.77" r="1.66"/><circle cx="157.75" cy="113.77" r="1.66"/><circle cx="161.06" cy="113.77" r="1.66"/><circle cx="171" cy="113.77" r="1.66"/><circle cx="180.94" cy="113.77" r="1.66"/><circle cx="184.25" cy="113.77" r="1.66"/><circle cx="197.5" cy="113.77" r="1.66"/><circle cx="200.81" cy="113.77" r="1.66"/><circle cx="207.43" cy="113.77" r="1.66"/><circle cx="214.06" cy="113.77" r="1.66"/><circle cx="217.37" cy="113.77" r="1.66"/><circle cx="220.68" cy="113.77" r="1.66"/><circle cx="223.99" cy="113.77" r="1.66"/><circle cx="227.3" cy="113.77" r="1.66"/><circle cx="230.62" cy="113.77" r="1.66"/><circle cx="118.01" cy="117.08" r="1.66"/><circle cx="121.32" cy="117.08" r="1.66"/><circle cx="124.63" cy="117.08" r="1.66"/><circle cx="134.57" cy="117.08" r="1.66"/><circle cx="144.5" cy="117.08" r="1.66"/><circle cx="161.06" cy="117.08" r="1.66"/><circle cx="164.38" cy="117.08" r="1.66"/><circle cx="171" cy="117.08" r="1.66"/><circle cx="174.31" cy="117.08" r="1.66"/><circle cx="180.94" cy="117.08" r="1.66"/><circle cx="184.25" cy="117.08" r="1.66"/><circle cx="190.87" cy="117.08" r="1.66"/><circle cx="197.5" cy="117.08" r="1.66"/><circle cx="200.81" cy="117.08" r="1.66"/><circle cx="207.43" cy="117.08" r="1.66"/><circle cx="210.74" cy="117.08" r="1.66"/><circle cx="214.06" cy="117.08" r="1.66"/><circle cx="217.37" cy="117.08" r="1.66"/><circle cx="220.68" cy="117.08" r="1.66"/><circle cx="230.62" cy="117.08" r="1.66"/><circle cx="111.38" cy="120.39" r="1.66"/><circle cx="114.7" cy="120.39" r="1.66"/><circle cx="118.01" cy="120.39" r="1.66"/><circle cx="124.63" cy="120.39" r="1.66"/><circle cx="127.94" cy="120.39" r="1.66"/><circle cx="131.26" cy="120.39" r="1.66"/><circle cx="141.19" cy="120.39" r="1.66"/><circle cx="144.5" cy="120.39" r="1.66"/><circle cx="147.82" cy="120.39" r="1.66"/><circle cx="151.13" cy="120.39" r="1.66"/><circle cx="167.69" cy="120.39" r="1.66"/><circle cx="171" cy="120.39" r="1.66"/><circle cx="177.62" cy="120.39" r="1.66"/><circle cx="184.25" cy="120.39" r="1.66"/><circle cx="190.87" cy="120.39" r="1.66"/><circle cx="194.18" cy="120.39" r="1.66"/><circle cx="197.5" cy="120.39" r="1.66"/><circle cx="200.81" cy="120.39" r="1.66"/><circle cx="204.12" cy="120.39" r="1.66"/><circle cx="210.74" cy="120.39" r="1.66"/><circle cx="217.37" cy="120.39" r="1.66"/><circle cx="220.68" cy="120.39" r="1.66"/><circle cx="223.99" cy="120.39" r="1.66"/><circle cx="227.3" cy="120.39" r="1.66"/><circle cx="230.62" cy="120.39" r="1.66"/><circle cx="111.38" cy="123.7" r="1.66"/><circle cx="118.01" cy="123.7" r="1.66"/><circle cx="121.32" cy="123.7" r="1.66"/><circle cx="124.63" cy="123.7" r="1.66"/><circle cx="127.94" cy="123.7" r="1.66"/><circle cx="137.88" cy="123.7" r="1.66"/><circle cx="141.19" cy="123.7" r="1.66"/><circle cx="144.5" cy="123.7" r="1.66"/><circle cx="147.82" cy="123.7" r="1.66"/><circle cx="157.75" cy="123.7" r="1.66"/><circle cx="164.38" cy="123.7" r="1.66"/><circle cx="174.31" cy="123.7" r="1.66"/><circle cx="177.62" cy="123.7" r="1.66"/><circle cx="187.56" cy="123.7" r="1.66"/><circle cx="204.12" cy="123.7" r="1.66"/><circle cx="214.06" cy="123.7" r="1.66"/><circle cx="223.99" cy="123.7" r="1.66"/><circle cx="227.3" cy="123.7" r="1.66"/><circle cx="111.38" cy="127.01" r="1.66"/><circle cx="118.01" cy="127.01" r="1.66"/><circle cx="124.63" cy="127.01" r="1.66"/><circle cx="131.26" cy="127.01" r="1.66"/><circle cx="134.57" cy="127.01" r="1.66"/><circle cx="137.88" cy="127.01" r="1.66"/><circle cx="144.5" cy="127.01" r="1.66"/><circle cx="147.82" cy="127.01" r="1.66"/><circle cx="167.69" cy="127.01" r="1.66"/><circle cx="171" cy="127.01" r="1.66"/><circle cx="177.62" cy="127.01" r="1.66"/><circle cx="184.25" cy="127.01" r="1.66"/><circle cx="197.5" cy="127.01" r="1.66"/><circle cx="200.81" cy="127.01" r="1.66"/><circle cx="204.12" cy="127.01" r="1.66"/><circle cx="207.43" cy="127.01" r="1.66"/><circle cx="223.99" cy="127.01" r="1.66"/><circle cx="227.3" cy="127.01" r="1.66"/><circle cx="230.62" cy="127.01" r="1.66"/><circle cx="111.38" cy="130.33" r="1.66"/><circle cx="114.7" cy="130.33" r="1.66"/><circle cx="118.01" cy="130.33" r="1.66"/><circle cx="127.94" cy="130.33" r="1.66"/><circle cx="134.57" cy="130.33" r="1.66"/><circle cx="137.88" cy="130.33" r="1.66"/><circle cx="141.19" cy="130.33" r="1.66"/><circle cx="144.5" cy="130.33" r="1.66"/><circle cx="151.13" cy="130.33" r="1.66"/><circle cx="154.44" cy="130.33" r="1.66"/><circle cx="157.75" cy="130.33" r="1.66"/><circle cx="161.06" cy="130.33" r="1.66"/><circle cx="171" cy="130.33" r="1.66"/><circle cx="177.62" cy="130.33" r="1.66"/><circle cx="180.94" cy="130.33" r="1.66"/><circle cx="184.25" cy="130.33" r="1.66"/><circle cx="197.5" cy="130.33" r="1.66"/><circle cx="200.81" cy="130.33" r="1.66"/><circle cx="204.12" cy="130.33" r="1.66"/><circle cx="207.43" cy="130.33" r="1.66"/><circle cx="214.06" cy="130.33" r="1.66"/><circle cx="220.68" cy="130.33" r="1.66"/><circle cx="230.62" cy="130.33" r="1.66"/><circle cx="111.38" cy="133.64" r="1.66"/><circle cx="114.7" cy="133.64" r="1.66"/><circle cx="121.32" cy="133.64" r="1.66"/><circle cx="127.94" cy="133.64" r="1.66"/><circle cx="131.26" cy="133.64" r="1.66"/><circle cx="144.5" cy="133.64" r="1.66"/><circle cx="154.44" cy="133.64" r="1.66"/><circle cx="157.75" cy="133.64" r="1.66"/><circle cx="161.06" cy="133.64" r="1.66"/><circle cx="167.69" cy="133.64" r="1.66"/><circle cx="171" cy="133.64" r="1.66"/><circle cx="184.25" cy="133.64" r="1.66"/><circle cx="187.56" cy="133.64" r="1.66"/><circle cx="190.87" cy="133.64" r="1.66"/><circle cx="194.18" cy="133.64" r="1.66"/><circle cx="197.5" cy="133.64" r="1.66"/><circle cx="207.43" cy="133.64" r="1.66"/><circle cx="210.74" cy="133.64" r="1.66"/><circle cx="217.37" cy="133.64" r="1.66"/><circle cx="220.68" cy="133.64" r="1.66"/><circle cx="223.99" cy="133.64" r="1.66"/><circle cx="124.63" cy="136.95" r="1.66"/><circle cx="137.88" cy="136.95" r="1.66"/><circle cx="151.13" cy="136.95" r="1.66"/><circle cx="154.44" cy="136.95" r="1.66"/><circle cx="161.06" cy="136.95" r="1.66"/><circle cx="167.69" cy="136.95" r="1.66"/><circle cx="174.31" cy="136.95" r="1.66"/><circle cx="177.62" cy="136.95" r="1.66"/><circle cx="180.94" cy="136.95" r="1.66"/><circle cx="184.25" cy="136.95" r="1.66"/><circle cx="187.56" cy="136.95" r="1.66"/><circle cx="190.87" cy="136.95" r="1.66"/><circle cx="194.18" cy="136.95" r="1.66"/><circle cx="207.43" cy="136.95" r="1.66"/><circle cx="214.06" cy="136.95" r="1.66"/><circle cx="223.99" cy="136.95" r="1.66"/><circle cx="111.38" cy="140.26" r="1.66"/><circle cx="118.01" cy="140.26" r="1.66"/><circle cx="121.32" cy="140.26" r="1.66"/><circle cx="124.63" cy="140.26" r="1.66"/><circle cx="131.26" cy="140.26" r="1.66"/><circle cx="134.57" cy="140.26" r="1.66"/><circle cx="137.88" cy="140.26" r="1.66"/><circle cx="151.13" cy="140.26" r="1.66"/><circle cx="157.75" cy="140.26" r="1.66"/><circle cx="161.06" cy="140.26" r="1.66"/><circle cx="171" cy="140.26" r="1.66"/><circle cx="197.5" cy="140.26" r="1.66"/><circle cx="200.81" cy="140.26" r="1.66"/><circle cx="207.43" cy="140.26" r="1.66"/><circle cx="210.74" cy="140.26" r="1.66"/><circle cx="214.06" cy="140.26" r="1.66"/><circle cx="217.37" cy="140.26" r="1.66"/><circle cx="223.99" cy="140.26" r="1.66"/><circle cx="227.3" cy="140.26" r="1.66"/><circle cx="230.62" cy="140.26" r="1.66"/><circle cx="111.38" cy="143.57" r="1.66"/><circle cx="114.7" cy="143.57" r="1.66"/><circle cx="124.63" cy="143.57" r="1.66"/><circle cx="134.57" cy="143.57" r="1.66"/><circle cx="141.19" cy="143.57" r="1.66"/><circle cx="180.94" cy="143.57" r="1.66"/><circle cx="197.5" cy="143.57" r="1.66"/><circle cx="200.81" cy="143.57" r="1.66"/><circle cx="204.12" cy="143.57" r="1.66"/><circle cx="207.43" cy="143.57" r="1.66"/><circle cx="214.06" cy="143.57" r="1.66"/><circle cx="217.37" cy="143.57" r="1.66"/><circle cx="227.3" cy="143.57" r="1.66"/><circle cx="111.38" cy="146.89" r="1.66"/><circle cx="127.94" cy="146.89" r="1.66"/><circle cx="131.26" cy="146.89" r="1.66"/><circle cx="134.57" cy="146.89" r="1.66"/><circle cx="137.88" cy="146.89" r="1.66"/><circle cx="144.5" cy="146.89" r="1.66"/><circle cx="147.82" cy="146.89" r="1.66"/><circle cx="151.13" cy="146.89" r="1.66"/><circle cx="161.06" cy="146.89" r="1.66"/><circle cx="164.38" cy="146.89" r="1.66"/><circle cx="167.69" cy="146.89" r="1.66"/><circle cx="171" cy="146.89" r="1.66"/><circle cx="177.62" cy="146.89" r="1.66"/><circle cx="190.87" cy="146.89" r="1.66"/><circle cx="194.18" cy="146.89" r="1.66"/><circle cx="197.5" cy="146.89" r="1.66"/><circle cx="200.81" cy="146.89" r="1.66"/><circle cx="207.43" cy="146.89" r="1.66"/><circle cx="210.74" cy="146.89" r="1.66"/><circle cx="217.37" cy="146.89" r="1.66"/><circle cx="220.68" cy="146.89" r="1.66"/><circle cx="223.99" cy="146.89" r="1.66"/><circle cx="227.3" cy="146.89" r="1.66"/><circle cx="111.38" cy="150.2" r="1.66"/><circle cx="118.01" cy="150.2" r="1.66"/><circle cx="124.63" cy="150.2" r="1.66"/><circle cx="127.94" cy="150.2" r="1.66"/><circle cx="144.5" cy="150.2" r="1.66"/><circle cx="147.82" cy="150.2" r="1.66"/><circle cx="157.75" cy="150.2" r="1.66"/><circle cx="174.31" cy="150.2" r="1.66"/><circle cx="177.62" cy="150.2" r="1.66"/><circle cx="187.56" cy="150.2" r="1.66"/><circle cx="194.18" cy="150.2" r="1.66"/><circle cx="204.12" cy="150.2" r="1.66"/><circle cx="214.06" cy="150.2" r="1.66"/><circle cx="230.62" cy="150.2" r="1.66"/><circle cx="111.38" cy="153.51" r="1.66"/><circle cx="124.63" cy="153.51" r="1.66"/><circle cx="131.26" cy="153.51" r="1.66"/><circle cx="147.82" cy="153.51" r="1.66"/><circle cx="161.06" cy="153.51" r="1.66"/><circle cx="171" cy="153.51" r="1.66"/><circle cx="177.62" cy="153.51" r="1.66"/><circle cx="180.94" cy="153.51" r="1.66"/><circle cx="184.25" cy="153.51" r="1.66"/><circle cx="190.87" cy="153.51" r="1.66"/><circle cx="194.18" cy="153.51" r="1.66"/><circle cx="197.5" cy="153.51" r="1.66"/><circle cx="200.81" cy="153.51" r="1.66"/><circle cx="204.12" cy="153.51" r="1.66"/><circle cx="207.43" cy="153.51" r="1.66"/><circle cx="210.74" cy="153.51" r="1.66"/><circle cx="214.06" cy="153.51" r="1.66"/><circle cx="217.37" cy="153.51" r="1.66"/><circle cx="223.99" cy="153.51" r="1.66"/><circle cx="227.3" cy="153.51" r="1.66"/><circle cx="230.62" cy="153.51" r="1.66"/><circle cx="137.88" cy="156.82" r="1.66"/><circle cx="141.19" cy="156.82" r="1.66"/><circle cx="151.13" cy="156.82" r="1.66"/><circle cx="154.44" cy="156.82" r="1.66"/><circle cx="157.75" cy="156.82" r="1.66"/><circle cx="161.06" cy="156.82" r="1.66"/><circle cx="177.62" cy="156.82" r="1.66"/><circle cx="180.94" cy="156.82" r="1.66"/><circle cx="184.25" cy="156.82" r="1.66"/><circle cx="187.56" cy="156.82" r="1.66"/><circle cx="190.87" cy="156.82" r="1.66"/><circle cx="197.5" cy="156.82" r="1.66"/><circle cx="200.81" cy="156.82" r="1.66"/><circle cx="204.12" cy="156.82" r="1.66"/><circle cx="217.37" cy="156.82" r="1.66"/><circle cx="230.62" cy="156.82" r="1.66"/><circle cx="137.88" cy="160.13" r="1.66"/><circle cx="144.5" cy="160.13" r="1.66"/><circle cx="154.44" cy="160.13" r="1.66"/><circle cx="157.75" cy="160.13" r="1.66"/><circle cx="161.06" cy="160.13" r="1.66"/><circle cx="164.38" cy="160.13" r="1.66"/><circle cx="167.69" cy="160.13" r="1.66"/><circle cx="171" cy="160.13" r="1.66"/><circle cx="177.62" cy="160.13" r="1.66"/><circle cx="184.25" cy="160.13" r="1.66"/><circle cx="190.87" cy="160.13" r="1.66"/><circle cx="194.18" cy="160.13" r="1.66"/><circle cx="197.5" cy="160.13" r="1.66"/><circle cx="200.81" cy="160.13" r="1.66"/><circle cx="204.12" cy="160.13" r="1.66"/><circle cx="210.74" cy="160.13" r="1.66"/><circle cx="217.37" cy="160.13" r="1.66"/><circle cx="220.68" cy="160.13" r="1.66"/><circle cx="223.99" cy="160.13" r="1.66"/><circle cx="227.3" cy="160.13" r="1.66"/><circle cx="230.62" cy="160.13" r="1.66"/><circle cx="141.19" cy="163.45" r="1.66"/><circle cx="151.13" cy="163.45" r="1.66"/><circle cx="154.44" cy="163.45" r="1.66"/><circle cx="174.31" cy="163.45" r="1.66"/><circle cx="177.62" cy="163.45" r="1.66"/><circle cx="180.94" cy="163.45" r="1.66"/><circle cx="187.56" cy="163.45" r="1.66"/><circle cx="197.5" cy="163.45" r="1.66"/><circle cx="204.12" cy="163.45" r="1.66"/><circle cx="217.37" cy="163.45" r="1.66"/><circle cx="220.68" cy="163.45" r="1.66"/><circle cx="223.99" cy="163.45" r="1.66"/><circle cx="137.88" cy="166.76" r="1.66"/><circle cx="141.19" cy="166.76" r="1.66"/><circle cx="144.5" cy="166.76" r="1.66"/><circle cx="151.13" cy="166.76" r="1.66"/><circle cx="157.75" cy="166.76" r="1.66"/><circle cx="161.06" cy="166.76" r="1.66"/><circle cx="164.38" cy="166.76" r="1.66"/><circle cx="177.62" cy="166.76" r="1.66"/><circle cx="180.94" cy="166.76" r="1.66"/><circle cx="194.18" cy="166.76" r="1.66"/><circle cx="204.12" cy="166.76" r="1.66"/><circle cx="207.43" cy="166.76" r="1.66"/><circle cx="210.74" cy="166.76" r="1.66"/><circle cx="214.06" cy="166.76" r="1.66"/><circle cx="217.37" cy="166.76" r="1.66"/><circle cx="137.88" cy="170.07" r="1.66"/><circle cx="144.5" cy="170.07" r="1.66"/><circle cx="161.06" cy="170.07" r="1.66"/><circle cx="171" cy="170.07" r="1.66"/><circle cx="174.31" cy="170.07" r="1.66"/><circle cx="180.94" cy="170.07" r="1.66"/><circle cx="184.25" cy="170.07" r="1.66"/><circle cx="200.81" cy="170.07" r="1.66"/><circle cx="204.12" cy="170.07" r="1.66"/><circle cx="207.43" cy="170.07" r="1.66"/><circle cx="214.06" cy="170.07" r="1.66"/><circle cx="227.3" cy="170.07" r="1.66"/><circle cx="230.62" cy="170.07" r="1.66"/><circle cx="137.88" cy="173.38" r="1.66"/><circle cx="141.19" cy="173.38" r="1.66"/><circle cx="144.5" cy="173.38" r="1.66"/><circle cx="147.82" cy="173.38" r="1.66"/><circle cx="151.13" cy="173.38" r="1.66"/><circle cx="164.38" cy="173.38" r="1.66"/><circle cx="167.69" cy="173.38" r="1.66"/><circle cx="171" cy="173.38" r="1.66"/><circle cx="177.62" cy="173.38" r="1.66"/><circle cx="187.56" cy="173.38" r="1.66"/><circle cx="190.87" cy="173.38" r="1.66"/><circle cx="194.18" cy="173.38" r="1.66"/><circle cx="197.5" cy="173.38" r="1.66"/><circle cx="207.43" cy="173.38" r="1.66"/><circle cx="214.06" cy="173.38" r="1.66"/><circle cx="217.37" cy="173.38" r="1.66"/><circle cx="223.99" cy="173.38" r="1.66"/><circle cx="230.62" cy="173.38" r="1.66"/><circle cx="137.88" cy="176.69" r="1.66"/><circle cx="141.19" cy="176.69" r="1.66"/><circle cx="147.82" cy="176.69" r="1.66"/><circle cx="157.75" cy="176.69" r="1.66"/><circle cx="174.31" cy="176.69" r="1.66"/><circle cx="177.62" cy="176.69" r="1.66"/><circle cx="187.56" cy="176.69" r="1.66"/><circle cx="190.87" cy="176.69" r="1.66"/><circle cx="194.18" cy="176.69" r="1.66"/><circle cx="197.5" cy="176.69" r="1.66"/><circle cx="207.43" cy="176.69" r="1.66"/><circle cx="210.74" cy="176.69" r="1.66"/><circle cx="217.37" cy="176.69" r="1.66"/><circle cx="220.68" cy="176.69" r="1.66"/><circle cx="223.99" cy="176.69" r="1.66"/><circle cx="227.3" cy="176.69" r="1.66"/><circle cx="137.88" cy="180.01" r="1.66"/><circle cx="147.82" cy="180.01" r="1.66"/><circle cx="161.06" cy="180.01" r="1.66"/><circle cx="167.69" cy="180.01" r="1.66"/><circle cx="177.62" cy="180.01" r="1.66"/><circle cx="180.94" cy="180.01" r="1.66"/><circle cx="184.25" cy="180.01" r="1.66"/><circle cx="207.43" cy="180.01" r="1.66"/><circle cx="214.06" cy="180.01" r="1.66"/><circle cx="220.68" cy="180.01" r="1.66"/><circle cx="223.99" cy="180.01" r="1.66"/><circle cx="227.3" cy="180.01" r="1.66"/><circle cx="230.62" cy="180.01" r="1.66"/><path d="M110.43,59.11a.71.71,0,0,0-.71.71V81.6a.71.71,0,0,0,.71.71h21.78a.71.71,0,0,0,.71-.71V59.82a.71.71,0,0,0-.71-.71Zm19.17,6.63V78.59a.4.4,0,0,1-.4.4H113.44a.4.4,0,0,1-.4-.4V62.83a.4.4,0,0,1,.4-.4H129.2a.4.4,0,0,1,.4.4Z"/><path d="M126.29,72.37V66.44a.71.71,0,0,0-.71-.7h-8.53a.7.7,0,0,0-.7.7V75a.7.7,0,0,0,.7.7h8.53a.7.7,0,0,0,.71-.7Z"/><path d="M209.79,59.11a.71.71,0,0,0-.71.71V81.6a.71.71,0,0,0,.71.71h21.78a.71.71,0,0,0,.71-.71V59.82a.71.71,0,0,0-.71-.71ZM229,65.74V78.59a.4.4,0,0,1-.4.4H212.8a.4.4,0,0,1-.4-.4V62.83a.4.4,0,0,1,.4-.4h15.76a.4.4,0,0,1,.4.4Z"/><path d="M225.65,72.37V66.44a.71.71,0,0,0-.71-.7h-8.53a.7.7,0,0,0-.7.7V75a.7.7,0,0,0,.7.7h8.53a.7.7,0,0,0,.71-.7Z"/><path d="M110.43,158.47a.71.71,0,0,0-.71.71V181a.71.71,0,0,0,.71.71h21.78a.71.71,0,0,0,.71-.71V159.18a.71.71,0,0,0-.71-.71Zm19.17,6.63V178a.4.4,0,0,1-.4.4H113.44a.4.4,0,0,1-.4-.4V162.19a.4.4,0,0,1,.4-.4H129.2a.4.4,0,0,1,.4.4Z"/><path d="M126.29,171.73V165.8a.71.71,0,0,0-.71-.7h-8.53a.7.7,0,0,0-.7.7v8.54a.7.7,0,0,0,.7.7h8.53a.7.7,0,0,0,.71-.7Z"/></g></g></svg>