<svg xmlns="http://www.w3.org/2000/svg" viewBox="0 0 342 234"><defs><style>.cls-1{fill:#f16522;}.cls-2{opacity:0.21;}.cls-3{opacity:0.5;}.cls-4{fill:#fff;}</style></defs><g id="Layer_2" data-name="Layer 2"><g id="orange_export_qr_with_background" data-name="orange export qr with background"><rect id="background" class="cls-1" width="342" height="234" rx="18"/><g id="link_icons" data-name="link icons" class="cls-2"><path class="cls-3" d="M34.88,71.56A15.66,15.66,0,0,1,12.74,49.42L23.81,38.34a15.69,15.69,0,0,1,22.15,0c1.27.23,2,2,1.81,3.24a2.34,2.34,0,0,1-2.71,1.9,4.25,4.25,0,0,1-2.43-1.81,10.87,10.87,0,0,0-15.5,0L16.06,52.74a11,11,0,0,0,15.5,15.5l10-10a2.35,2.35,0,0,1,3.37,3.28s0,0,0,.05l-10,10ZM57,49.42a15.69,15.69,0,0,1-22.15,0,2.35,2.35,0,0,1,3.32-3.33h0a10.88,10.88,0,0,0,15.51,0L64.78,35a11,11,0,0,0-15.5-15.5l-10,10a2.35,2.35,0,1,1-3.37-3.27l.05-.05,10-10A15.66,15.66,0,1,1,68.1,38.34Z"/><path class="cls-3" d="M101.92,71.56A15.66,15.66,0,0,1,79.77,49.42L90.85,38.34a15.68,15.68,0,0,1,22.14,0c1.28.23,2.05,2,1.82,3.24a2.34,2.34,0,0,1-2.72,1.9,4.26,4.26,0,0,1-2.42-1.81,10.87,10.87,0,0,0-15.5,0L83.1,52.74a11,11,0,0,0,15.5,15.5l10-10a2.35,2.35,0,0,1,3.37,3.28l0,.05-10,10Zm22.15-22.14a15.69,15.69,0,0,1-22.15,0,2.35,2.35,0,0,1,3.32-3.33h0a10.87,10.87,0,0,0,15.5,0L131.82,35a11,11,0,0,0-15.5-15.5l-10,10A2.35,2.35,0,0,1,103,26.21l0-.05,10-10a15.66,15.66,0,1,1,22.15,22.14Z"/><path class="cls-3" d="M169,71.56a15.66,15.66,0,1,1-22.15-22.14l11.08-11.08a15.68,15.68,0,0,1,22.14,0c1.28.23,2,2,1.82,3.24a2.34,2.34,0,0,1-2.72,1.9,4.23,4.23,0,0,1-2.42-1.81,10.87,10.87,0,0,0-15.5,0L150.13,52.74a11,11,0,0,0,15.51,15.5l10-10A2.35,2.35,0,0,1,179,61.55s0,0-.05.05l-10,10ZM191.1,49.42a15.68,15.68,0,0,1-22.14,0,2.35,2.35,0,0,1,3.32-3.33h0a10.87,10.87,0,0,0,15.5,0L198.86,35a11,11,0,1,0-15.51-15.5l-10,10A2.35,2.35,0,1,1,170,26.21s0,0,0-.05l10-10a15.66,15.66,0,1,1,22.15,22.14Z"/><path class="cls-3" d="M236,71.56a15.66,15.66,0,0,1-22.15-22.14l11.07-11.08a15.69,15.69,0,0,1,22.15,0c1.28.23,2,2,1.82,3.24a2.34,2.34,0,0,1-2.72,1.9,4.23,4.23,0,0,1-2.42-1.81,10.87,10.87,0,0,0-15.5,0L217.17,52.74a11,11,0,0,0,15.5,15.5l10-10A2.35,2.35,0,0,1,246,61.55l0,.05-10,10Zm22.14-22.14a15.68,15.68,0,0,1-22.14,0,2.35,2.35,0,0,1,3.32-3.33h0a10.87,10.87,0,0,0,15.5,0L265.89,35a11,11,0,0,0-15.5-15.5l-10,10a2.35,2.35,0,1,1-3.37-3.27l0-.05,10-10a15.66,15.66,0,0,1,22.15,22.14Z"/><path class="cls-3" d="M303,71.56a15.66,15.66,0,0,1-22.15-22.14L292,38.34a15.69,15.69,0,0,1,22.15,0c1.28.23,2,2,1.82,3.24a2.35,2.35,0,0,1-2.72,1.9,4.2,4.2,0,0,1-2.42-1.81,10.88,10.88,0,0,0-15.51,0L284.21,52.74a11,11,0,0,0,15.5,15.5l10-10a2.35,2.35,0,0,1,3.37,3.28l-.05.05-10,10Zm22.14-22.14a15.68,15.68,0,0,1-22.14,0,2.35,2.35,0,0,1,3.32-3.33h0a10.87,10.87,0,0,0,15.5,0L332.93,35a11,11,0,0,0-15.5-15.5l-10,10a2.34,2.34,0,1,1-3.36-3.27l0-.05,10-10a15.66,15.66,0,0,1,22.14,22.14Z"/><path class="cls-3" d="M34.12,219.46A15.66,15.66,0,0,1,12,197.32l11.07-11.08a15.69,15.69,0,0,1,22.15,0c1.27.23,2,2,1.82,3.24a2.37,2.37,0,0,1-2.72,1.91,4.31,4.31,0,0,1-2.43-1.82,10.87,10.87,0,0,0-15.5,0L15.3,200.64a11,11,0,0,0,15.5,15.5l10-10a2.35,2.35,0,1,1,3.37,3.27l0,.05-10,10Zm22.15-22.14a15.69,15.69,0,0,1-22.15,0A2.35,2.35,0,1,1,37.45,194h0A10.89,10.89,0,0,0,53,194L64,182.92a11,11,0,0,0-15.5-15.5l-10,10a2.35,2.35,0,0,1-3.37-3.28l0-.05,10-10a15.66,15.66,0,0,1,22.14,22.14Z"/><path class="cls-3" d="M101.16,219.46A15.66,15.66,0,0,1,79,197.32l11.07-11.08a15.68,15.68,0,0,1,22.14,0c1.28.23,2,2,1.82,3.24a2.36,2.36,0,0,1-2.72,1.91,4.33,4.33,0,0,1-2.42-1.82,10.87,10.87,0,0,0-15.5,0L82.34,200.64a11,11,0,0,0,15.5,15.5l10-10a2.34,2.34,0,1,1,3.36,3.27l0,.05-10,10Zm22.15-22.14a15.69,15.69,0,0,1-22.15,0,2.35,2.35,0,1,1,3.32-3.32h0A10.9,10.9,0,0,0,120,194l11.07-11.08a11,11,0,0,0-15.5-15.5l-10,10a2.35,2.35,0,0,1-3.37-3.28l0-.05,10-10a15.66,15.66,0,0,1,22.14,22.14Z"/><path class="cls-3" d="M168.2,219.46a15.66,15.66,0,0,1-22.15-22.14l11.08-11.08a15.68,15.68,0,0,1,22.14,0c1.28.23,2,2,1.82,3.24a2.36,2.36,0,0,1-2.72,1.91,4.29,4.29,0,0,1-2.42-1.82,10.87,10.87,0,0,0-15.5,0l-11.07,11.07a11,11,0,0,0,15.5,15.5l10-10a2.35,2.35,0,1,1,3.37,3.27l0,.05-10,10Zm22.15-22.14a15.69,15.69,0,0,1-22.15,0,2.35,2.35,0,0,1,3.32-3.32h0a10.89,10.89,0,0,0,15.5,0l11.08-11.08a11,11,0,0,0-15.5-15.5l-10,10a2.35,2.35,0,0,1-3.37-3.28l.05-.05,10-10a15.66,15.66,0,0,1,22.15,22.14Z"/><path class="cls-3" d="M235.24,219.46a15.66,15.66,0,0,1-22.15-22.14l11.08-11.08a15.68,15.68,0,0,1,22.14,0c1.28.23,2,2,1.82,3.24a2.36,2.36,0,0,1-2.72,1.91,4.29,4.29,0,0,1-2.42-1.82,10.87,10.87,0,0,0-15.5,0l-11.08,11.07a11,11,0,0,0,15.51,15.5l10-10a2.35,2.35,0,0,1,3.37,3.27s0,0-.05.05l-10,10Zm22.14-22.14a15.68,15.68,0,0,1-22.14,0,2.35,2.35,0,0,1,3.32-3.32h0a10.89,10.89,0,0,0,15.5,0l11.08-11.08a11,11,0,0,0-15.51-15.5l-10,10a2.35,2.35,0,0,1-3.37-3.28l0-.05,10-10a15.66,15.66,0,0,1,22.15,22.14Z"/><path class="cls-3" d="M302.28,219.46a15.66,15.66,0,0,1-22.15-22.14l11.07-11.08a15.69,15.69,0,0,1,22.15,0c1.28.23,2,2,1.82,3.24a2.36,2.36,0,0,1-2.72,1.91,4.26,4.26,0,0,1-2.42-1.82,10.87,10.87,0,0,0-15.5,0l-11.08,11.07a11,11,0,0,0,15.5,15.5l10-10a2.35,2.35,0,1,1,3.37,3.27l-.05.05-10,10Zm22.14-22.14a15.68,15.68,0,0,1-22.14,0A2.35,2.35,0,0,1,305.6,194h0a10.89,10.89,0,0,0,15.5,0l11.07-11.08a11,11,0,0,0-15.5-15.5l-10,10a2.35,2.35,0,0,1-3.37-3.28l0-.05,10-10a15.66,15.66,0,0,1,22.15,22.14Z"/></g><rect class="cls-4" x="99" y="45" width="144" height="144" rx="11.52"/></g><g id="_12" data-name="12"><circle cx="157.18" cy="61.7" r="2.3"/><circle cx="180.22" cy="61.7" r="2.3"/><circle cx="189.43" cy="61.7" r="2.3"/><circle cx="152.57" cy="66.31" r="2.3"/><circle cx="157.18" cy="66.31" r="2.3"/><circle cx="166.39" cy="66.31" r="2.3"/><circle cx="171" cy="66.31" r="2.3"/><circle cx="175.61" cy="66.31" r="2.3"/><circle cx="180.22" cy="66.31" r="2.3"/><circle cx="157.18" cy="70.92" r="2.3"/><circle cx="161.78" cy="70.92" r="2.3"/><circle cx="166.39" cy="70.92" r="2.3"/><circle cx="175.61" cy="70.92" r="2.3"/><circle cx="189.43" cy="70.92" r="2.3"/><circle cx="152.57" cy="75.53" r="2.3"/><circle cx="157.18" cy="75.53" r="2.3"/><circle cx="166.39" cy="75.53" r="2.3"/><circle cx="171" cy="75.53" r="2.3"/><circle cx="175.61" cy="75.53" r="2.3"/><circle cx="180.22" cy="75.53" r="2.3"/><circle cx="184.82" cy="75.53" r="2.3"/><circle cx="189.43" cy="75.53" r="2.3"/><circle cx="161.78" cy="80.14" r="2.3"/><circle cx="171" cy="80.14" r="2.3"/><circle cx="184.82" cy="80.14" r="2.3"/><circle cx="152.57" cy="84.74" r="2.3"/><circle cx="161.78" cy="84.74" r="2.3"/><circle cx="171" cy="84.74" r="2.3"/><circle cx="175.61" cy="84.74" r="2.3"/><circle cx="180.22" cy="84.74" r="2.3"/><circle cx="184.82" cy="84.74" r="2.3"/><circle cx="152.57" cy="89.35" r="2.3"/><circle cx="161.78" cy="89.35" r="2.3"/><circle cx="171" cy="89.35" r="2.3"/><circle cx="180.22" cy="89.35" r="2.3"/><circle cx="189.43" cy="89.35" r="2.3"/><circle cx="171" cy="93.96" r="2.3"/><circle cx="175.61" cy="93.96" r="2.3"/><circle cx="189.43" cy="93.96" r="2.3"/><circle cx="115.7" cy="98.57" r="2.3"/><circle cx="120.31" cy="98.57" r="2.3"/><circle cx="124.92" cy="98.57" r="2.3"/><circle cx="129.53" cy="98.57" r="2.3"/><circle cx="134.14" cy="98.57" r="2.3"/><circle cx="143.35" cy="98.57" r="2.3"/><circle cx="147.96" cy="98.57" r="2.3"/><circle cx="152.57" cy="98.57" r="2.3"/><circle cx="157.18" cy="98.57" r="2.3"/><circle cx="161.78" cy="98.57" r="2.3"/><circle cx="180.22" cy="98.57" r="2.3"/><circle cx="184.82" cy="98.57" r="2.3"/><circle cx="194.04" cy="98.57" r="2.3"/><circle cx="203.26" cy="98.57" r="2.3"/><circle cx="212.47" cy="98.57" r="2.3"/><circle cx="221.69" cy="98.57" r="2.3"/><circle cx="124.92" cy="103.18" r="2.3"/><circle cx="129.53" cy="103.18" r="2.3"/><circle cx="134.14" cy="103.18" r="2.3"/><circle cx="147.96" cy="103.18" r="2.3"/><circle cx="157.18" cy="103.18" r="2.3"/><circle cx="166.39" cy="103.18" r="2.3"/><circle cx="184.82" cy="103.18" r="2.3"/><circle cx="194.04" cy="103.18" r="2.3"/><circle cx="203.26" cy="103.18" r="2.3"/><circle cx="207.86" cy="103.18" r="2.3"/><circle cx="226.3" cy="103.18" r="2.3"/><circle cx="120.31" cy="107.78" r="2.3"/><circle cx="134.14" cy="107.78" r="2.3"/><circle cx="138.74" cy="107.78" r="2.3"/><circle cx="143.35" cy="107.78" r="2.3"/><circle cx="157.18" cy="107.78" r="2.3"/><circle cx="166.39" cy="107.78" r="2.3"/><circle cx="171" cy="107.78" r="2.3"/><circle cx="175.61" cy="107.78" r="2.3"/><circle cx="180.22" cy="107.78" r="2.3"/><circle cx="184.82" cy="107.78" r="2.3"/><circle cx="189.43" cy="107.78" r="2.3"/><circle cx="194.04" cy="107.78" r="2.3"/><circle cx="198.65" cy="107.78" r="2.3"/><circle cx="207.86" cy="107.78" r="2.3"/><circle cx="217.08" cy="107.78" r="2.3"/><circle cx="115.7" cy="112.39" r="2.3"/><circle cx="134.14" cy="112.39" r="2.3"/><circle cx="138.74" cy="112.39" r="2.3"/><circle cx="152.57" cy="112.39" r="2.3"/><circle cx="157.18" cy="112.39" r="2.3"/><circle cx="161.78" cy="112.39" r="2.3"/><circle cx="166.39" cy="112.39" r="2.3"/><circle cx="171" cy="112.39" r="2.3"/><circle cx="175.61" cy="112.39" r="2.3"/><circle cx="189.43" cy="112.39" r="2.3"/><circle cx="194.04" cy="112.39" r="2.3"/><circle cx="115.7" cy="117" r="2.3"/><circle cx="134.14" cy="117" r="2.3"/><circle cx="143.35" cy="117" r="2.3"/><circle cx="157.18" cy="117" r="2.3"/><circle cx="184.82" cy="117" r="2.3"/><circle cx="194.04" cy="117" r="2.3"/><circle cx="198.65" cy="117" r="2.3"/><circle cx="203.26" cy="117" r="2.3"/><circle cx="207.86" cy="117" r="2.3"/><circle cx="212.47" cy="117" r="2.3"/><circle cx="221.69" cy="117" r="2.3"/><circle cx="226.3" cy="117" r="2.3"/><circle cx="115.7" cy="121.61" r="2.3"/><circle cx="120.31" cy="121.61" r="2.3"/><circle cx="124.92" cy="121.61" r="2.3"/><circle cx="129.53" cy="121.61" r="2.3"/><circle cx="138.74" cy="121.61" r="2.3"/><circle cx="147.96" cy="121.61" r="2.3"/><circle cx="161.78" cy="121.61" r="2.3"/><circle cx="166.39" cy="121.61" r="2.3"/><circle cx="180.22" cy="121.61" r="2.3"/><circle cx="184.82" cy="121.61" r="2.3"/><circle cx="189.43" cy="121.61" r="2.3"/><circle cx="194.04" cy="121.61" r="2.3"/><circle cx="203.26" cy="121.61" r="2.3"/><circle cx="207.86" cy="121.61" r="2.3"/><circle cx="115.7" cy="126.22" r="2.3"/><circle cx="124.92" cy="126.22" r="2.3"/><circle cx="134.14" cy="126.22" r="2.3"/><circle cx="138.74" cy="126.22" r="2.3"/><circle cx="143.35" cy="126.22" r="2.3"/><circle cx="171" cy="126.22" r="2.3"/><circle cx="175.61" cy="126.22" r="2.3"/><circle cx="180.22" cy="126.22" r="2.3"/><circle cx="194.04" cy="126.22" r="2.3"/><circle cx="198.65" cy="126.22" r="2.3"/><circle cx="207.86" cy="126.22" r="2.3"/><circle cx="217.08" cy="126.22" r="2.3"/><circle cx="115.7" cy="130.82" r="2.3"/><circle cx="124.92" cy="130.82" r="2.3"/><circle cx="129.53" cy="130.82" r="2.3"/><circle cx="134.14" cy="130.82" r="2.3"/><circle cx="152.57" cy="130.82" r="2.3"/><circle cx="161.78" cy="130.82" r="2.3"/><circle cx="166.39" cy="130.82" r="2.3"/><circle cx="175.61" cy="130.82" r="2.3"/><circle cx="189.43" cy="130.82" r="2.3"/><circle cx="194.04" cy="130.82" r="2.3"/><circle cx="221.69" cy="130.82" r="2.3"/><circle cx="226.3" cy="130.82" r="2.3"/><circle cx="115.7" cy="135.43" r="2.3"/><circle cx="143.35" cy="135.43" r="2.3"/><circle cx="152.57" cy="135.43" r="2.3"/><circle cx="171" cy="135.43" r="2.3"/><circle cx="175.61" cy="135.43" r="2.3"/><circle cx="180.22" cy="135.43" r="2.3"/><circle cx="184.82" cy="135.43" r="2.3"/><circle cx="189.43" cy="135.43" r="2.3"/><circle cx="194.04" cy="135.43" r="2.3"/><circle cx="198.65" cy="135.43" r="2.3"/><circle cx="203.26" cy="135.43" r="2.3"/><circle cx="207.86" cy="135.43" r="2.3"/><circle cx="212.47" cy="135.43" r="2.3"/><circle cx="226.3" cy="135.43" r="2.3"/><circle cx="152.57" cy="140.04" r="2.3"/><circle cx="157.18" cy="140.04" r="2.3"/><circle cx="161.78" cy="140.04" r="2.3"/><circle cx="166.39" cy="140.04" r="2.3"/><circle cx="171" cy="140.04" r="2.3"/><circle cx="184.82" cy="140.04" r="2.3"/><circle cx="189.43" cy="140.04" r="2.3"/><circle cx="207.86" cy="140.04" r="2.3"/><circle cx="226.3" cy="140.04" r="2.3"/><circle cx="152.57" cy="144.65" r="2.3"/><circle cx="161.78" cy="144.65" r="2.3"/><circle cx="175.61" cy="144.65" r="2.3"/><circle cx="180.22" cy="144.65" r="2.3"/><circle cx="189.43" cy="144.65" r="2.3"/><circle cx="198.65" cy="144.65" r="2.3"/><circle cx="207.86" cy="144.65" r="2.3"/><circle cx="217.08" cy="144.65" r="2.3"/><circle cx="221.69" cy="144.65" r="2.3"/><circle cx="226.3" cy="144.65" r="2.3"/><circle cx="161.78" cy="149.26" r="2.3"/><circle cx="166.39" cy="149.26" r="2.3"/><circle cx="189.43" cy="149.26" r="2.3"/><circle cx="207.86" cy="149.26" r="2.3"/><circle cx="212.47" cy="149.26" r="2.3"/><circle cx="152.57" cy="153.86" r="2.3"/><circle cx="161.78" cy="153.86" r="2.3"/><circle cx="180.22" cy="153.86" r="2.3"/><circle cx="189.43" cy="153.86" r="2.3"/><circle cx="194.04" cy="153.86" r="2.3"/><circle cx="198.65" cy="153.86" r="2.3"/><circle cx="203.26" cy="153.86" r="2.3"/><circle cx="207.86" cy="153.86" r="2.3"/><circle cx="212.47" cy="153.86" r="2.3"/><circle cx="152.57" cy="158.47" r="2.3"/><circle cx="157.18" cy="158.47" r="2.3"/><circle cx="166.39" cy="158.47" r="2.3"/><circle cx="180.22" cy="158.47" r="2.3"/><circle cx="184.82" cy="158.47" r="2.3"/><circle cx="189.43" cy="158.47" r="2.3"/><circle cx="194.04" cy="158.47" r="2.3"/><circle cx="198.65" cy="158.47" r="2.3"/><circle cx="207.86" cy="158.47" r="2.3"/><circle cx="221.69" cy="158.47" r="2.3"/><circle cx="226.3" cy="158.47" r="2.3"/><circle cx="152.57" cy="163.08" r="2.3"/><circle cx="157.18" cy="163.08" r="2.3"/><circle cx="166.39" cy="163.08" r="2.3"/><circle cx="171" cy="163.08" r="2.3"/><circle cx="175.61" cy="163.08" r="2.3"/><circle cx="184.82" cy="163.08" r="2.3"/><circle cx="194.04" cy="163.08" r="2.3"/><circle cx="207.86" cy="163.08" r="2.3"/><circle cx="217.08" cy="163.08" r="2.3"/><circle cx="226.3" cy="163.08" r="2.3"/><circle cx="152.57" cy="167.69" r="2.3"/><circle cx="157.18" cy="167.69" r="2.3"/><circle cx="161.78" cy="167.69" r="2.3"/><circle cx="166.39" cy="167.69" r="2.3"/><circle cx="175.61" cy="167.69" r="2.3"/><circle cx="189.43" cy="167.69" r="2.3"/><circle cx="194.04" cy="167.69" r="2.3"/><circle cx="198.65" cy="167.69" r="2.3"/><circle cx="203.26" cy="167.69" r="2.3"/><circle cx="207.86" cy="167.69" r="2.3"/><circle cx="212.47" cy="167.69" r="2.3"/><circle cx="221.69" cy="167.69" r="2.3"/><circle cx="152.57" cy="172.3" r="2.3"/><circle cx="157.18" cy="172.3" r="2.3"/><circle cx="171" cy="172.3" r="2.3"/><circle cx="175.61" cy="172.3" r="2.3"/><circle cx="180.22" cy="172.3" r="2.3"/><circle cx="194.04" cy="172.3" r="2.3"/><circle cx="217.08" cy="172.3" r="2.3"/><circle cx="221.69" cy="172.3" r="2.3"/><circle cx="226.3" cy="172.3" r="2.3"/><path d="M114.38,59.4a1,1,0,0,0-1,1v30.3a1,1,0,0,0,1,1h30.3a1,1,0,0,0,1-1V60.38a1,1,0,0,0-1-1Zm26.67,9.22V86.49a.57.57,0,0,1-.56.56H118.57a.57.57,0,0,1-.56-.56V64.57a.56.56,0,0,1,.56-.56h21.92a.56.56,0,0,1,.56.56Z"/><path d="M136.44,77.83V69.59a1,1,0,0,0-1-1H123.59a1,1,0,0,0-1,1V81.46a1,1,0,0,0,1,1h11.87a1,1,0,0,0,1-1Z"/><path d="M197.32,59.4a1,1,0,0,0-1,1v30.3a1,1,0,0,0,1,1h30.3a1,1,0,0,0,1-1V60.38a1,1,0,0,0-1-1ZM224,68.62V86.49a.56.56,0,0,1-.56.56H201.51a.57.57,0,0,1-.56-.56V64.57a.57.57,0,0,1,.56-.56h21.92a.56.56,0,0,1,.56.56Z"/><path d="M219.38,77.83V69.59a1,1,0,0,0-1-1H206.54a1,1,0,0,0-1,1V81.46a1,1,0,0,0,1,1H218.4a1,1,0,0,0,1-1Z"/><path d="M114.38,142.34a1,1,0,0,0-1,1v30.3a1,1,0,0,0,1,1h30.3a1,1,0,0,0,1-1v-30.3a1,1,0,0,0-1-1Zm26.67,9.22v17.87a.57.57,0,0,1-.56.56H118.57a.56.56,0,0,1-.56-.56V147.51a.56.56,0,0,1,.56-.56h21.92a.57.57,0,0,1,.56.56Z"/><path d="M136.44,160.78v-8.24a1,1,0,0,0-1-1H123.59a1,1,0,0,0-1,1v11.87a1,1,0,0,0,1,1h11.87a1,1,0,0,0,1-1Z"/></g></g></svg>