<svg xmlns="http://www.w3.org/2000/svg" viewBox="0 0 342 234"><defs><style>.cls-1{fill:#f16522;}.cls-2{opacity:0.21;}.cls-3{opacity:0.5;}.cls-4{fill:#fff;}</style></defs><g id="Layer_2" data-name="Layer 2"><g id="orange_export_qr_with_background" data-name="orange export qr with background"><rect id="background" class="cls-1" width="342" height="234" rx="18"/><g id="link_icons" data-name="link icons" class="cls-2"><path class="cls-3" d="M34.88,71.56A15.66,15.66,0,0,1,12.74,49.42L23.81,38.34a15.69,15.69,0,0,1,22.15,0c1.27.23,2,2,1.81,3.24a2.34,2.34,0,0,1-2.71,1.9,4.25,4.25,0,0,1-2.43-1.81,10.87,10.87,0,0,0-15.5,0L16.06,52.74a11,11,0,0,0,15.5,15.5l10-10a2.35,2.35,0,0,1,3.37,3.28s0,0,0,.05l-10,10ZM57,49.42a15.69,15.69,0,0,1-22.15,0,2.35,2.35,0,0,1,3.32-3.33h0a10.88,10.88,0,0,0,15.51,0L64.78,35a11,11,0,0,0-15.5-15.5l-10,10a2.35,2.35,0,1,1-3.37-3.27l.05-.05,10-10A15.66,15.66,0,1,1,68.1,38.34Z"/><path class="cls-3" d="M101.92,71.56A15.66,15.66,0,0,1,79.77,49.42L90.85,38.34a15.68,15.68,0,0,1,22.14,0c1.28.23,2.05,2,1.82,3.24a2.34,2.34,0,0,1-2.72,1.9,4.26,4.26,0,0,1-2.42-1.81,10.87,10.87,0,0,0-15.5,0L83.1,52.74a11,11,0,0,0,15.5,15.5l10-10a2.35,2.35,0,0,1,3.37,3.28l0,.05-10,10Zm22.15-22.14a15.69,15.69,0,0,1-22.15,0,2.35,2.35,0,0,1,3.32-3.33h0a10.87,10.87,0,0,0,15.5,0L131.82,35a11,11,0,0,0-15.5-15.5l-10,10A2.35,2.35,0,0,1,103,26.21l0-.05,10-10a15.66,15.66,0,1,1,22.15,22.14Z"/><path class="cls-3" d="M169,71.56a15.66,15.66,0,1,1-22.15-22.14l11.08-11.08a15.68,15.68,0,0,1,22.14,0c1.28.23,2,2,1.82,3.24a2.34,2.34,0,0,1-2.72,1.9,4.23,4.23,0,0,1-2.42-1.81,10.87,10.87,0,0,0-15.5,0L150.13,52.74a11,11,0,0,0,15.51,15.5l10-10A2.35,2.35,0,0,1,179,61.55s0,0-.05.05l-10,10ZM191.1,49.42a15.68,15.68,0,0,1-22.14,0,2.35,2.35,0,0,1,3.32-3.33h0a10.87,10.87,0,0,0,15.5,0L198.86,35a11,11,0,1,0-15.51-15.5l-10,10A2.35,2.35,0,1,1,170,26.21s0,0,0-.05l10-10a15.66,15.66,0,1,1,22.15,22.14Z"/><path class="cls-3" d="M236,71.56a15.66,15.66,0,0,1-22.15-22.14l11.07-11.08a15.69,15.69,0,0,1,22.15,0c1.28.23,2,2,1.82,3.24a2.34,2.34,0,0,1-2.72,1.9,4.23,4.23,0,0,1-2.42-1.81,10.87,10.87,0,0,0-15.5,0L217.17,52.74a11,11,0,0,0,15.5,15.5l10-10A2.35,2.35,0,0,1,246,61.55l0,.05-10,10Zm22.14-22.14a15.68,15.68,0,0,1-22.14,0,2.35,2.35,0,0,1,3.32-3.33h0a10.87,10.87,0,0,0,15.5,0L265.89,35a11,11,0,0,0-15.5-15.5l-10,10a2.35,2.35,0,1,1-3.37-3.27l0-.05,10-10a15.66,15.66,0,0,1,22.15,22.14Z"/><path class="cls-3" d="M303,71.56a15.66,15.66,0,0,1-22.15-22.14L292,38.34a15.69,15.69,0,0,1,22.15,0c1.28.23,2,2,1.82,3.24a2.35,2.35,0,0,1-2.72,1.9,4.2,4.2,0,0,1-2.42-1.81,10.88,10.88,0,0,0-15.51,0L284.21,52.74a11,11,0,0,0,15.5,15.5l10-10a2.35,2.35,0,0,1,3.37,3.28l-.05.05-10,10Zm22.14-22.14a15.68,15.68,0,0,1-22.14,0,2.35,2.35,0,0,1,3.32-3.33h0a10.87,10.87,0,0,0,15.5,0L332.93,35a11,11,0,0,0-15.5-15.5l-10,10a2.34,2.34,0,1,1-3.36-3.27l0-.05,10-10a15.66,15.66,0,0,1,22.14,22.14Z"/><path class="cls-3" d="M34.12,219.46A15.66,15.66,0,0,1,12,197.32l11.07-11.08a15.69,15.69,0,0,1,22.15,0c1.27.23,2,2,1.82,3.24a2.37,2.37,0,0,1-2.72,1.91,4.31,4.31,0,0,1-2.43-1.82,10.87,10.87,0,0,0-15.5,0L15.3,200.64a11,11,0,0,0,15.5,15.5l10-10a2.35,2.35,0,1,1,3.37,3.27l0,.05-10,10Zm22.15-22.14a15.69,15.69,0,0,1-22.15,0A2.35,2.35,0,1,1,37.45,194h0A10.89,10.89,0,0,0,53,194L64,182.92a11,11,0,0,0-15.5-15.5l-10,10a2.35,2.35,0,0,1-3.37-3.28l0-.05,10-10a15.66,15.66,0,0,1,22.14,22.14Z"/><path class="cls-3" d="M101.16,219.46A15.66,15.66,0,0,1,79,197.32l11.07-11.08a15.68,15.68,0,0,1,22.14,0c1.28.23,2,2,1.82,3.24a2.36,2.36,0,0,1-2.72,1.91,4.33,4.33,0,0,1-2.42-1.82,10.87,10.87,0,0,0-15.5,0L82.34,200.64a11,11,0,0,0,15.5,15.5l10-10a2.34,2.34,0,1,1,3.36,3.27l0,.05-10,10Zm22.15-22.14a15.69,15.69,0,0,1-22.15,0,2.35,2.35,0,1,1,3.32-3.32h0A10.9,10.9,0,0,0,120,194l11.07-11.08a11,11,0,0,0-15.5-15.5l-10,10a2.35,2.35,0,0,1-3.37-3.28l0-.05,10-10a15.66,15.66,0,0,1,22.14,22.14Z"/><path class="cls-3" d="M168.2,219.46a15.66,15.66,0,0,1-22.15-22.14l11.08-11.08a15.68,15.68,0,0,1,22.14,0c1.28.23,2,2,1.82,3.24a2.36,2.36,0,0,1-2.72,1.91,4.29,4.29,0,0,1-2.42-1.82,10.87,10.87,0,0,0-15.5,0l-11.07,11.07a11,11,0,0,0,15.5,15.5l10-10a2.35,2.35,0,1,1,3.37,3.27l0,.05-10,10Zm22.15-22.14a15.69,15.69,0,0,1-22.15,0,2.35,2.35,0,0,1,3.32-3.32h0a10.89,10.89,0,0,0,15.5,0l11.08-11.08a11,11,0,0,0-15.5-15.5l-10,10a2.35,2.35,0,0,1-3.37-3.28l.05-.05,10-10a15.66,15.66,0,0,1,22.15,22.14Z"/><path class="cls-3" d="M235.24,219.46a15.66,15.66,0,0,1-22.15-22.14l11.08-11.08a15.68,15.68,0,0,1,22.14,0c1.28.23,2,2,1.82,3.24a2.36,2.36,0,0,1-2.72,1.91,4.29,4.29,0,0,1-2.42-1.82,10.87,10.87,0,0,0-15.5,0l-11.08,11.07a11,11,0,0,0,15.51,15.5l10-10a2.35,2.35,0,0,1,3.37,3.27s0,0-.05.05l-10,10Zm22.14-22.14a15.68,15.68,0,0,1-22.14,0,2.35,2.35,0,0,1,3.32-3.32h0a10.89,10.89,0,0,0,15.5,0l11.08-11.08a11,11,0,0,0-15.51-15.5l-10,10a2.35,2.35,0,0,1-3.37-3.28l0-.05,10-10a15.66,15.66,0,0,1,22.15,22.14Z"/><path class="cls-3" d="M302.28,219.46a15.66,15.66,0,0,1-22.15-22.14l11.07-11.08a15.69,15.69,0,0,1,22.15,0c1.28.23,2,2,1.82,3.24a2.36,2.36,0,0,1-2.72,1.91,4.26,4.26,0,0,1-2.42-1.82,10.87,10.87,0,0,0-15.5,0l-11.08,11.07a11,11,0,0,0,15.5,15.5l10-10a2.35,2.35,0,1,1,3.37,3.27l-.05.05-10,10Zm22.14-22.14a15.68,15.68,0,0,1-22.14,0A2.35,2.35,0,0,1,305.6,194h0a10.89,10.89,0,0,0,15.5,0l11.07-11.08a11,11,0,0,0-15.5-15.5l-10,10a2.35,2.35,0,0,1-3.37-3.28l0-.05,10-10a15.66,15.66,0,0,1,22.15,22.14Z"/></g><rect class="cls-4" x="99" y="45" width="144" height="144" rx="11.52"/></g><g id="_18" data-name="18"><circle cx="148.97" cy="60.84" r="1.84"/><circle cx="156.31" cy="60.84" r="1.84"/><circle cx="163.66" cy="60.84" r="1.84"/><circle cx="171" cy="60.84" r="1.84"/><circle cx="178.34" cy="60.84" r="1.84"/><circle cx="189.36" cy="60.84" r="1.84"/><circle cx="193.03" cy="60.84" r="1.84"/><circle cx="200.38" cy="60.84" r="1.84"/><circle cx="141.62" cy="64.52" r="1.84"/><circle cx="148.97" cy="64.52" r="1.84"/><circle cx="159.98" cy="64.52" r="1.84"/><circle cx="163.66" cy="64.52" r="1.84"/><circle cx="174.67" cy="64.52" r="1.84"/><circle cx="182.02" cy="64.52" r="1.84"/><circle cx="193.03" cy="64.52" r="1.84"/><circle cx="196.7" cy="64.52" r="1.84"/><circle cx="200.38" cy="64.52" r="1.84"/><circle cx="156.31" cy="68.19" r="1.84"/><circle cx="171" cy="68.19" r="1.84"/><circle cx="174.67" cy="68.19" r="1.84"/><circle cx="182.02" cy="68.19" r="1.84"/><circle cx="185.69" cy="68.19" r="1.84"/><circle cx="189.36" cy="68.19" r="1.84"/><circle cx="196.7" cy="68.19" r="1.84"/><circle cx="141.62" cy="71.86" r="1.84"/><circle cx="145.3" cy="71.86" r="1.84"/><circle cx="148.97" cy="71.86" r="1.84"/><circle cx="156.31" cy="71.86" r="1.84"/><circle cx="163.66" cy="71.86" r="1.84"/><circle cx="167.33" cy="71.86" r="1.84"/><circle cx="171" cy="71.86" r="1.84"/><circle cx="178.34" cy="71.86" r="1.84"/><circle cx="185.69" cy="71.86" r="1.84"/><circle cx="189.36" cy="71.86" r="1.84"/><circle cx="200.38" cy="71.86" r="1.84"/><circle cx="145.3" cy="75.53" r="1.84"/><circle cx="171" cy="75.53" r="1.84"/><circle cx="182.02" cy="75.53" r="1.84"/><circle cx="185.69" cy="75.53" r="1.84"/><circle cx="189.36" cy="75.53" r="1.84"/><circle cx="193.03" cy="75.53" r="1.84"/><circle cx="200.38" cy="75.53" r="1.84"/><circle cx="141.62" cy="79.2" r="1.84"/><circle cx="145.3" cy="79.2" r="1.84"/><circle cx="152.64" cy="79.2" r="1.84"/><circle cx="156.31" cy="79.2" r="1.84"/><circle cx="159.98" cy="79.2" r="1.84"/><circle cx="174.67" cy="79.2" r="1.84"/><circle cx="178.34" cy="79.2" r="1.84"/><circle cx="185.69" cy="79.2" r="1.84"/><circle cx="193.03" cy="79.2" r="1.84"/><circle cx="196.7" cy="79.2" r="1.84"/><circle cx="200.38" cy="79.2" r="1.84"/><circle cx="141.62" cy="82.88" r="1.84"/><circle cx="148.97" cy="82.88" r="1.84"/><circle cx="156.31" cy="82.88" r="1.84"/><circle cx="163.66" cy="82.88" r="1.84"/><circle cx="171" cy="82.88" r="1.84"/><circle cx="178.34" cy="82.88" r="1.84"/><circle cx="185.69" cy="82.88" r="1.84"/><circle cx="193.03" cy="82.88" r="1.84"/><circle cx="200.38" cy="82.88" r="1.84"/><circle cx="145.3" cy="86.55" r="1.84"/><circle cx="148.97" cy="86.55" r="1.84"/><circle cx="152.64" cy="86.55" r="1.84"/><circle cx="159.98" cy="86.55" r="1.84"/><circle cx="171" cy="86.55" r="1.84"/><circle cx="174.67" cy="86.55" r="1.84"/><circle cx="178.34" cy="86.55" r="1.84"/><circle cx="182.02" cy="86.55" r="1.84"/><circle cx="185.69" cy="86.55" r="1.84"/><circle cx="189.36" cy="86.55" r="1.84"/><circle cx="193.03" cy="86.55" r="1.84"/><circle cx="196.7" cy="86.55" r="1.84"/><circle cx="112.25" cy="90.22" r="1.84"/><circle cx="115.92" cy="90.22" r="1.84"/><circle cx="119.59" cy="90.22" r="1.84"/><circle cx="123.26" cy="90.22" r="1.84"/><circle cx="126.94" cy="90.22" r="1.84"/><circle cx="134.28" cy="90.22" r="1.84"/><circle cx="137.95" cy="90.22" r="1.84"/><circle cx="141.62" cy="90.22" r="1.84"/><circle cx="145.3" cy="90.22" r="1.84"/><circle cx="152.64" cy="90.22" r="1.84"/><circle cx="156.31" cy="90.22" r="1.84"/><circle cx="163.66" cy="90.22" r="1.84"/><circle cx="167.33" cy="90.22" r="1.84"/><circle cx="171" cy="90.22" r="1.84"/><circle cx="185.69" cy="90.22" r="1.84"/><circle cx="189.36" cy="90.22" r="1.84"/><circle cx="193.03" cy="90.22" r="1.84"/><circle cx="204.05" cy="90.22" r="1.84"/><circle cx="211.39" cy="90.22" r="1.84"/><circle cx="218.74" cy="90.22" r="1.84"/><circle cx="226.08" cy="90.22" r="1.84"/><circle cx="119.59" cy="93.89" r="1.84"/><circle cx="123.26" cy="93.89" r="1.84"/><circle cx="130.61" cy="93.89" r="1.84"/><circle cx="148.97" cy="93.89" r="1.84"/><circle cx="156.31" cy="93.89" r="1.84"/><circle cx="163.66" cy="93.89" r="1.84"/><circle cx="171" cy="93.89" r="1.84"/><circle cx="182.02" cy="93.89" r="1.84"/><circle cx="185.69" cy="93.89" r="1.84"/><circle cx="189.36" cy="93.89" r="1.84"/><circle cx="196.7" cy="93.89" r="1.84"/><circle cx="200.38" cy="93.89" r="1.84"/><circle cx="204.05" cy="93.89" r="1.84"/><circle cx="207.72" cy="93.89" r="1.84"/><circle cx="215.06" cy="93.89" r="1.84"/><circle cx="218.74" cy="93.89" r="1.84"/><circle cx="222.41" cy="93.89" r="1.84"/><circle cx="123.26" cy="97.56" r="1.84"/><circle cx="126.94" cy="97.56" r="1.84"/><circle cx="134.28" cy="97.56" r="1.84"/><circle cx="148.97" cy="97.56" r="1.84"/><circle cx="156.31" cy="97.56" r="1.84"/><circle cx="159.98" cy="97.56" r="1.84"/><circle cx="163.66" cy="97.56" r="1.84"/><circle cx="167.33" cy="97.56" r="1.84"/><circle cx="174.67" cy="97.56" r="1.84"/><circle cx="182.02" cy="97.56" r="1.84"/><circle cx="193.03" cy="97.56" r="1.84"/><circle cx="200.38" cy="97.56" r="1.84"/><circle cx="204.05" cy="97.56" r="1.84"/><circle cx="211.39" cy="97.56" r="1.84"/><circle cx="215.06" cy="97.56" r="1.84"/><circle cx="218.74" cy="97.56" r="1.84"/><circle cx="226.08" cy="97.56" r="1.84"/><circle cx="112.25" cy="101.24" r="1.84"/><circle cx="123.26" cy="101.24" r="1.84"/><circle cx="126.94" cy="101.24" r="1.84"/><circle cx="141.62" cy="101.24" r="1.84"/><circle cx="156.31" cy="101.24" r="1.84"/><circle cx="159.98" cy="101.24" r="1.84"/><circle cx="163.66" cy="101.24" r="1.84"/><circle cx="171" cy="101.24" r="1.84"/><circle cx="178.34" cy="101.24" r="1.84"/><circle cx="182.02" cy="101.24" r="1.84"/><circle cx="189.36" cy="101.24" r="1.84"/><circle cx="193.03" cy="101.24" r="1.84"/><circle cx="196.7" cy="101.24" r="1.84"/><circle cx="207.72" cy="101.24" r="1.84"/><circle cx="222.41" cy="101.24" r="1.84"/><circle cx="226.08" cy="101.24" r="1.84"/><circle cx="229.75" cy="101.24" r="1.84"/><circle cx="112.25" cy="104.91" r="1.84"/><circle cx="123.26" cy="104.91" r="1.84"/><circle cx="126.94" cy="104.91" r="1.84"/><circle cx="130.61" cy="104.91" r="1.84"/><circle cx="134.28" cy="104.91" r="1.84"/><circle cx="141.62" cy="104.91" r="1.84"/><circle cx="145.3" cy="104.91" r="1.84"/><circle cx="148.97" cy="104.91" r="1.84"/><circle cx="167.33" cy="104.91" r="1.84"/><circle cx="171" cy="104.91" r="1.84"/><circle cx="174.67" cy="104.91" r="1.84"/><circle cx="185.69" cy="104.91" r="1.84"/><circle cx="204.05" cy="104.91" r="1.84"/><circle cx="207.72" cy="104.91" r="1.84"/><circle cx="215.06" cy="104.91" r="1.84"/><circle cx="222.41" cy="104.91" r="1.84"/><circle cx="226.08" cy="104.91" r="1.84"/><circle cx="115.92" cy="108.58" r="1.84"/><circle cx="123.26" cy="108.58" r="1.84"/><circle cx="126.94" cy="108.58" r="1.84"/><circle cx="130.61" cy="108.58" r="1.84"/><circle cx="137.95" cy="108.58" r="1.84"/><circle cx="141.62" cy="108.58" r="1.84"/><circle cx="145.3" cy="108.58" r="1.84"/><circle cx="156.31" cy="108.58" r="1.84"/><circle cx="163.66" cy="108.58" r="1.84"/><circle cx="167.33" cy="108.58" r="1.84"/><circle cx="171" cy="108.58" r="1.84"/><circle cx="178.34" cy="108.58" r="1.84"/><circle cx="182.02" cy="108.58" r="1.84"/><circle cx="189.36" cy="108.58" r="1.84"/><circle cx="200.38" cy="108.58" r="1.84"/><circle cx="211.39" cy="108.58" r="1.84"/><circle cx="218.74" cy="108.58" r="1.84"/><circle cx="222.41" cy="108.58" r="1.84"/><circle cx="112.25" cy="112.25" r="1.84"/><circle cx="115.92" cy="112.25" r="1.84"/><circle cx="119.59" cy="112.25" r="1.84"/><circle cx="123.26" cy="112.25" r="1.84"/><circle cx="126.94" cy="112.25" r="1.84"/><circle cx="134.28" cy="112.25" r="1.84"/><circle cx="141.62" cy="112.25" r="1.84"/><circle cx="152.64" cy="112.25" r="1.84"/><circle cx="159.98" cy="112.25" r="1.84"/><circle cx="163.66" cy="112.25" r="1.84"/><circle cx="174.67" cy="112.25" r="1.84"/><circle cx="185.69" cy="112.25" r="1.84"/><circle cx="193.03" cy="112.25" r="1.84"/><circle cx="196.7" cy="112.25" r="1.84"/><circle cx="204.05" cy="112.25" r="1.84"/><circle cx="211.39" cy="112.25" r="1.84"/><circle cx="215.06" cy="112.25" r="1.84"/><circle cx="218.74" cy="112.25" r="1.84"/><circle cx="226.08" cy="112.25" r="1.84"/><circle cx="112.25" cy="115.92" r="1.84"/><circle cx="115.92" cy="115.92" r="1.84"/><circle cx="119.59" cy="115.92" r="1.84"/><circle cx="130.61" cy="115.92" r="1.84"/><circle cx="141.62" cy="115.92" r="1.84"/><circle cx="152.64" cy="115.92" r="1.84"/><circle cx="159.98" cy="115.92" r="1.84"/><circle cx="174.67" cy="115.92" r="1.84"/><circle cx="178.34" cy="115.92" r="1.84"/><circle cx="182.02" cy="115.92" r="1.84"/><circle cx="185.69" cy="115.92" r="1.84"/><circle cx="193.03" cy="115.92" r="1.84"/><circle cx="196.7" cy="115.92" r="1.84"/><circle cx="204.05" cy="115.92" r="1.84"/><circle cx="207.72" cy="115.92" r="1.84"/><circle cx="222.41" cy="115.92" r="1.84"/><circle cx="226.08" cy="115.92" r="1.84"/><circle cx="229.75" cy="115.92" r="1.84"/><circle cx="119.59" cy="119.6" r="1.84"/><circle cx="126.94" cy="119.6" r="1.84"/><circle cx="134.28" cy="119.6" r="1.84"/><circle cx="145.3" cy="119.6" r="1.84"/><circle cx="156.31" cy="119.6" r="1.84"/><circle cx="159.98" cy="119.6" r="1.84"/><circle cx="163.66" cy="119.6" r="1.84"/><circle cx="167.33" cy="119.6" r="1.84"/><circle cx="171" cy="119.6" r="1.84"/><circle cx="174.67" cy="119.6" r="1.84"/><circle cx="185.69" cy="119.6" r="1.84"/><circle cx="189.36" cy="119.6" r="1.84"/><circle cx="204.05" cy="119.6" r="1.84"/><circle cx="211.39" cy="119.6" r="1.84"/><circle cx="215.06" cy="119.6" r="1.84"/><circle cx="218.74" cy="119.6" r="1.84"/><circle cx="226.08" cy="119.6" r="1.84"/><circle cx="112.25" cy="123.27" r="1.84"/><circle cx="119.59" cy="123.27" r="1.84"/><circle cx="123.26" cy="123.27" r="1.84"/><circle cx="130.61" cy="123.27" r="1.84"/><circle cx="145.3" cy="123.27" r="1.84"/><circle cx="152.64" cy="123.27" r="1.84"/><circle cx="156.31" cy="123.27" r="1.84"/><circle cx="163.66" cy="123.27" r="1.84"/><circle cx="171" cy="123.27" r="1.84"/><circle cx="182.02" cy="123.27" r="1.84"/><circle cx="185.69" cy="123.27" r="1.84"/><circle cx="189.36" cy="123.27" r="1.84"/><circle cx="193.03" cy="123.27" r="1.84"/><circle cx="196.7" cy="123.27" r="1.84"/><circle cx="200.38" cy="123.27" r="1.84"/><circle cx="204.05" cy="123.27" r="1.84"/><circle cx="215.06" cy="123.27" r="1.84"/><circle cx="222.41" cy="123.27" r="1.84"/><circle cx="112.25" cy="126.94" r="1.84"/><circle cx="115.92" cy="126.94" r="1.84"/><circle cx="119.59" cy="126.94" r="1.84"/><circle cx="130.61" cy="126.94" r="1.84"/><circle cx="134.28" cy="126.94" r="1.84"/><circle cx="137.95" cy="126.94" r="1.84"/><circle cx="141.62" cy="126.94" r="1.84"/><circle cx="159.98" cy="126.94" r="1.84"/><circle cx="163.66" cy="126.94" r="1.84"/><circle cx="167.33" cy="126.94" r="1.84"/><circle cx="174.67" cy="126.94" r="1.84"/><circle cx="185.69" cy="126.94" r="1.84"/><circle cx="204.05" cy="126.94" r="1.84"/><circle cx="211.39" cy="126.94" r="1.84"/><circle cx="215.06" cy="126.94" r="1.84"/><circle cx="218.74" cy="126.94" r="1.84"/><circle cx="229.75" cy="126.94" r="1.84"/><circle cx="115.92" cy="130.61" r="1.84"/><circle cx="123.26" cy="130.61" r="1.84"/><circle cx="130.61" cy="130.61" r="1.84"/><circle cx="141.62" cy="130.61" r="1.84"/><circle cx="145.3" cy="130.61" r="1.84"/><circle cx="152.64" cy="130.61" r="1.84"/><circle cx="163.66" cy="130.61" r="1.84"/><circle cx="171" cy="130.61" r="1.84"/><circle cx="182.02" cy="130.61" r="1.84"/><circle cx="185.69" cy="130.61" r="1.84"/><circle cx="196.7" cy="130.61" r="1.84"/><circle cx="207.72" cy="130.61" r="1.84"/><circle cx="211.39" cy="130.61" r="1.84"/><circle cx="229.75" cy="130.61" r="1.84"/><circle cx="115.92" cy="134.28" r="1.84"/><circle cx="123.26" cy="134.28" r="1.84"/><circle cx="126.94" cy="134.28" r="1.84"/><circle cx="130.61" cy="134.28" r="1.84"/><circle cx="134.28" cy="134.28" r="1.84"/><circle cx="163.66" cy="134.28" r="1.84"/><circle cx="167.33" cy="134.28" r="1.84"/><circle cx="174.67" cy="134.28" r="1.84"/><circle cx="178.34" cy="134.28" r="1.84"/><circle cx="185.69" cy="134.28" r="1.84"/><circle cx="193.03" cy="134.28" r="1.84"/><circle cx="200.38" cy="134.28" r="1.84"/><circle cx="204.05" cy="134.28" r="1.84"/><circle cx="207.72" cy="134.28" r="1.84"/><circle cx="215.06" cy="134.28" r="1.84"/><circle cx="226.08" cy="134.28" r="1.84"/><circle cx="112.25" cy="137.96" r="1.84"/><circle cx="119.59" cy="137.96" r="1.84"/><circle cx="126.94" cy="137.96" r="1.84"/><circle cx="141.62" cy="137.96" r="1.84"/><circle cx="148.97" cy="137.96" r="1.84"/><circle cx="152.64" cy="137.96" r="1.84"/><circle cx="163.66" cy="137.96" r="1.84"/><circle cx="171" cy="137.96" r="1.84"/><circle cx="178.34" cy="137.96" r="1.84"/><circle cx="185.69" cy="137.96" r="1.84"/><circle cx="189.36" cy="137.96" r="1.84"/><circle cx="200.38" cy="137.96" r="1.84"/><circle cx="204.05" cy="137.96" r="1.84"/><circle cx="222.41" cy="137.96" r="1.84"/><circle cx="226.08" cy="137.96" r="1.84"/><circle cx="229.75" cy="137.96" r="1.84"/><circle cx="112.25" cy="141.63" r="1.84"/><circle cx="123.26" cy="141.63" r="1.84"/><circle cx="126.94" cy="141.63" r="1.84"/><circle cx="130.61" cy="141.63" r="1.84"/><circle cx="134.28" cy="141.63" r="1.84"/><circle cx="137.95" cy="141.63" r="1.84"/><circle cx="141.62" cy="141.63" r="1.84"/><circle cx="145.3" cy="141.63" r="1.84"/><circle cx="152.64" cy="141.63" r="1.84"/><circle cx="156.31" cy="141.63" r="1.84"/><circle cx="159.98" cy="141.63" r="1.84"/><circle cx="163.66" cy="141.63" r="1.84"/><circle cx="174.67" cy="141.63" r="1.84"/><circle cx="193.03" cy="141.63" r="1.84"/><circle cx="204.05" cy="141.63" r="1.84"/><circle cx="215.06" cy="141.63" r="1.84"/><circle cx="226.08" cy="141.63" r="1.84"/><circle cx="112.25" cy="145.3" r="1.84"/><circle cx="130.61" cy="145.3" r="1.84"/><circle cx="141.62" cy="145.3" r="1.84"/><circle cx="152.64" cy="145.3" r="1.84"/><circle cx="163.66" cy="145.3" r="1.84"/><circle cx="171" cy="145.3" r="1.84"/><circle cx="178.34" cy="145.3" r="1.84"/><circle cx="182.02" cy="145.3" r="1.84"/><circle cx="185.69" cy="145.3" r="1.84"/><circle cx="196.7" cy="145.3" r="1.84"/><circle cx="207.72" cy="145.3" r="1.84"/><circle cx="218.74" cy="145.3" r="1.84"/><circle cx="112.25" cy="148.97" r="1.84"/><circle cx="119.59" cy="148.97" r="1.84"/><circle cx="134.28" cy="148.97" r="1.84"/><circle cx="137.95" cy="148.97" r="1.84"/><circle cx="148.97" cy="148.97" r="1.84"/><circle cx="159.98" cy="148.97" r="1.84"/><circle cx="167.33" cy="148.97" r="1.84"/><circle cx="171" cy="148.97" r="1.84"/><circle cx="174.67" cy="148.97" r="1.84"/><circle cx="193.03" cy="148.97" r="1.84"/><circle cx="200.38" cy="148.97" r="1.84"/><circle cx="204.05" cy="148.97" r="1.84"/><circle cx="207.72" cy="148.97" r="1.84"/><circle cx="211.39" cy="148.97" r="1.84"/><circle cx="215.06" cy="148.97" r="1.84"/><circle cx="218.74" cy="148.97" r="1.84"/><circle cx="226.08" cy="148.97" r="1.84"/><circle cx="141.62" cy="152.64" r="1.84"/><circle cx="145.3" cy="152.64" r="1.84"/><circle cx="148.97" cy="152.64" r="1.84"/><circle cx="167.33" cy="152.64" r="1.84"/><circle cx="182.02" cy="152.64" r="1.84"/><circle cx="185.69" cy="152.64" r="1.84"/><circle cx="189.36" cy="152.64" r="1.84"/><circle cx="193.03" cy="152.64" r="1.84"/><circle cx="196.7" cy="152.64" r="1.84"/><circle cx="200.38" cy="152.64" r="1.84"/><circle cx="215.06" cy="152.64" r="1.84"/><circle cx="222.41" cy="152.64" r="1.84"/><circle cx="141.62" cy="156.32" r="1.84"/><circle cx="148.97" cy="156.32" r="1.84"/><circle cx="152.64" cy="156.32" r="1.84"/><circle cx="156.31" cy="156.32" r="1.84"/><circle cx="159.98" cy="156.32" r="1.84"/><circle cx="174.67" cy="156.32" r="1.84"/><circle cx="182.02" cy="156.32" r="1.84"/><circle cx="193.03" cy="156.32" r="1.84"/><circle cx="200.38" cy="156.32" r="1.84"/><circle cx="207.72" cy="156.32" r="1.84"/><circle cx="215.06" cy="156.32" r="1.84"/><circle cx="226.08" cy="156.32" r="1.84"/><circle cx="145.3" cy="159.99" r="1.84"/><circle cx="152.64" cy="159.99" r="1.84"/><circle cx="159.98" cy="159.99" r="1.84"/><circle cx="171" cy="159.99" r="1.84"/><circle cx="178.34" cy="159.99" r="1.84"/><circle cx="182.02" cy="159.99" r="1.84"/><circle cx="185.69" cy="159.99" r="1.84"/><circle cx="189.36" cy="159.99" r="1.84"/><circle cx="193.03" cy="159.99" r="1.84"/><circle cx="200.38" cy="159.99" r="1.84"/><circle cx="215.06" cy="159.99" r="1.84"/><circle cx="218.74" cy="159.99" r="1.84"/><circle cx="229.75" cy="159.99" r="1.84"/><circle cx="141.62" cy="163.66" r="1.84"/><circle cx="145.3" cy="163.66" r="1.84"/><circle cx="163.66" cy="163.66" r="1.84"/><circle cx="167.33" cy="163.66" r="1.84"/><circle cx="185.69" cy="163.66" r="1.84"/><circle cx="200.38" cy="163.66" r="1.84"/><circle cx="204.05" cy="163.66" r="1.84"/><circle cx="207.72" cy="163.66" r="1.84"/><circle cx="211.39" cy="163.66" r="1.84"/><circle cx="215.06" cy="163.66" r="1.84"/><circle cx="218.74" cy="163.66" r="1.84"/><circle cx="229.75" cy="163.66" r="1.84"/><circle cx="141.62" cy="167.33" r="1.84"/><circle cx="145.3" cy="167.33" r="1.84"/><circle cx="163.66" cy="167.33" r="1.84"/><circle cx="167.33" cy="167.33" r="1.84"/><circle cx="171" cy="167.33" r="1.84"/><circle cx="182.02" cy="167.33" r="1.84"/><circle cx="185.69" cy="167.33" r="1.84"/><circle cx="189.36" cy="167.33" r="1.84"/><circle cx="215.06" cy="167.33" r="1.84"/><circle cx="218.74" cy="167.33" r="1.84"/><circle cx="222.41" cy="167.33" r="1.84"/><circle cx="226.08" cy="167.33" r="1.84"/><circle cx="141.62" cy="171" r="1.84"/><circle cx="145.3" cy="171" r="1.84"/><circle cx="156.31" cy="171" r="1.84"/><circle cx="159.98" cy="171" r="1.84"/><circle cx="163.66" cy="171" r="1.84"/><circle cx="167.33" cy="171" r="1.84"/><circle cx="171" cy="171" r="1.84"/><circle cx="174.67" cy="171" r="1.84"/><circle cx="182.02" cy="171" r="1.84"/><circle cx="193.03" cy="171" r="1.84"/><circle cx="196.7" cy="171" r="1.84"/><circle cx="200.38" cy="171" r="1.84"/><circle cx="207.72" cy="171" r="1.84"/><circle cx="218.74" cy="171" r="1.84"/><circle cx="141.62" cy="174.68" r="1.84"/><circle cx="145.3" cy="174.68" r="1.84"/><circle cx="152.64" cy="174.68" r="1.84"/><circle cx="159.98" cy="174.68" r="1.84"/><circle cx="171" cy="174.68" r="1.84"/><circle cx="182.02" cy="174.68" r="1.84"/><circle cx="189.36" cy="174.68" r="1.84"/><circle cx="196.7" cy="174.68" r="1.84"/><circle cx="200.38" cy="174.68" r="1.84"/><circle cx="204.05" cy="174.68" r="1.84"/><circle cx="215.06" cy="174.68" r="1.84"/><circle cx="218.74" cy="174.68" r="1.84"/><circle cx="222.41" cy="174.68" r="1.84"/><circle cx="226.08" cy="174.68" r="1.84"/><circle cx="229.75" cy="174.68" r="1.84"/><circle cx="141.62" cy="178.35" r="1.84"/><circle cx="163.66" cy="178.35" r="1.84"/><circle cx="167.33" cy="178.35" r="1.84"/><circle cx="185.69" cy="178.35" r="1.84"/><circle cx="193.03" cy="178.35" r="1.84"/><circle cx="207.72" cy="178.35" r="1.84"/><circle cx="218.74" cy="178.35" r="1.84"/><circle cx="226.08" cy="178.35" r="1.84"/><path d="M111.19,59a.79.79,0,0,0-.78.79V83.93a.79.79,0,0,0,.78.79h24.15a.78.78,0,0,0,.78-.79V59.79a.79.79,0,0,0-.78-.79Zm21.25,7.35V80.59A.45.45,0,0,1,132,81H114.53a.45.45,0,0,1-.45-.45V63.13a.45.45,0,0,1,.45-.45H132a.44.44,0,0,1,.44.45Z"/><path d="M128.77,73.7V67.13a.78.78,0,0,0-.78-.78h-9.46a.78.78,0,0,0-.78.78v9.46a.78.78,0,0,0,.78.78H128a.78.78,0,0,0,.78-.78Z"/><path d="M206.66,59a.79.79,0,0,0-.78.79V83.93a.79.79,0,0,0,.78.79h24.15a.78.78,0,0,0,.78-.79V59.79a.79.79,0,0,0-.78-.79Zm21.26,7.35V80.59a.45.45,0,0,1-.45.45H210a.44.44,0,0,1-.44-.45V63.13a.45.45,0,0,1,.44-.45h17.47a.45.45,0,0,1,.45.45Z"/><path d="M224.24,73.7V67.13a.77.77,0,0,0-.78-.78H214a.79.79,0,0,0-.79.78v9.46a.78.78,0,0,0,.79.78h9.45a.78.78,0,0,0,.78-.78Z"/><path d="M111.19,154.48a.78.78,0,0,0-.78.78v24.15a.78.78,0,0,0,.78.78h24.15a.78.78,0,0,0,.78-.78V155.26a.78.78,0,0,0-.78-.78Zm21.25,7.34v14.24a.45.45,0,0,1-.44.45H114.53a.45.45,0,0,1-.45-.45V158.6a.45.45,0,0,1,.45-.45H132a.44.44,0,0,1,.44.45Z"/><path d="M128.77,169.17V162.6a.78.78,0,0,0-.78-.78h-9.46a.78.78,0,0,0-.78.78v9.46a.78.78,0,0,0,.78.78H128a.77.77,0,0,0,.78-.78Z"/></g></g></svg>