<svg xmlns="http://www.w3.org/2000/svg" viewBox="0 0 342 234"><defs><style>.cls-1{fill:#f16522;}.cls-2{opacity:0.21;}.cls-3{opacity:0.5;}.cls-4{fill:#fff;}</style></defs><g id="Layer_2" data-name="Layer 2"><g id="orange_export_qr_with_background" data-name="orange export qr with background"><rect id="background" class="cls-1" width="342" height="234" rx="18"/><g id="link_icons" data-name="link icons" class="cls-2"><path class="cls-3" d="M34.88,71.56A15.66,15.66,0,0,1,12.74,49.42L23.81,38.34a15.69,15.69,0,0,1,22.15,0c1.27.23,2,2,1.81,3.24a2.34,2.34,0,0,1-2.71,1.9,4.25,4.25,0,0,1-2.43-1.81,10.87,10.87,0,0,0-15.5,0L16.06,52.74a11,11,0,0,0,15.5,15.5l10-10a2.35,2.35,0,0,1,3.37,3.28s0,0,0,.05l-10,10ZM57,49.42a15.69,15.69,0,0,1-22.15,0,2.35,2.35,0,0,1,3.32-3.33h0a10.88,10.88,0,0,0,15.51,0L64.78,35a11,11,0,0,0-15.5-15.5l-10,10a2.35,2.35,0,1,1-3.37-3.27l.05-.05,10-10A15.66,15.66,0,1,1,68.1,38.34Z"/><path class="cls-3" d="M101.92,71.56A15.66,15.66,0,0,1,79.77,49.42L90.85,38.34a15.68,15.68,0,0,1,22.14,0c1.28.23,2.05,2,1.82,3.24a2.34,2.34,0,0,1-2.72,1.9,4.26,4.26,0,0,1-2.42-1.81,10.87,10.87,0,0,0-15.5,0L83.1,52.74a11,11,0,0,0,15.5,15.5l10-10a2.35,2.35,0,0,1,3.37,3.28l0,.05-10,10Zm22.15-22.14a15.69,15.69,0,0,1-22.15,0,2.35,2.35,0,0,1,3.32-3.33h0a10.87,10.87,0,0,0,15.5,0L131.82,35a11,11,0,0,0-15.5-15.5l-10,10A2.35,2.35,0,0,1,103,26.21l0-.05,10-10a15.66,15.66,0,1,1,22.15,22.14Z"/><path class="cls-3" d="M169,71.56a15.66,15.66,0,1,1-22.15-22.14l11.08-11.08a15.68,15.68,0,0,1,22.14,0c1.28.23,2,2,1.82,3.24a2.34,2.34,0,0,1-2.72,1.9,4.23,4.23,0,0,1-2.42-1.81,10.87,10.87,0,0,0-15.5,0L150.13,52.74a11,11,0,0,0,15.51,15.5l10-10A2.35,2.35,0,0,1,179,61.55s0,0-.05.05l-10,10ZM191.1,49.42a15.68,15.68,0,0,1-22.14,0,2.35,2.35,0,0,1,3.32-3.33h0a10.87,10.87,0,0,0,15.5,0L198.86,35a11,11,0,1,0-15.51-15.5l-10,10A2.35,2.35,0,1,1,170,26.21s0,0,0-.05l10-10a15.66,15.66,0,1,1,22.15,22.14Z"/><path class="cls-3" d="M236,71.56a15.66,15.66,0,0,1-22.15-22.14l11.07-11.08a15.69,15.69,0,0,1,22.15,0c1.28.23,2,2,1.82,3.24a2.34,2.34,0,0,1-2.72,1.9,4.23,4.23,0,0,1-2.42-1.81,10.87,10.87,0,0,0-15.5,0L217.17,52.74a11,11,0,0,0,15.5,15.5l10-10A2.35,2.35,0,0,1,246,61.55l0,.05-10,10Zm22.14-22.14a15.68,15.68,0,0,1-22.14,0,2.35,2.35,0,0,1,3.32-3.33h0a10.87,10.87,0,0,0,15.5,0L265.89,35a11,11,0,0,0-15.5-15.5l-10,10a2.35,2.35,0,1,1-3.37-3.27l0-.05,10-10a15.66,15.66,0,0,1,22.15,22.14Z"/><path class="cls-3" d="M303,71.56a15.66,15.66,0,0,1-22.15-22.14L292,38.34a15.69,15.69,0,0,1,22.15,0c1.28.23,2,2,1.82,3.24a2.35,2.35,0,0,1-2.72,1.9,4.2,4.2,0,0,1-2.42-1.81,10.88,10.88,0,0,0-15.51,0L284.21,52.74a11,11,0,0,0,15.5,15.5l10-10a2.35,2.35,0,0,1,3.37,3.28l-.05.05-10,10Zm22.14-22.14a15.68,15.68,0,0,1-22.14,0,2.35,2.35,0,0,1,3.32-3.33h0a10.87,10.87,0,0,0,15.5,0L332.93,35a11,11,0,0,0-15.5-15.5l-10,10a2.34,2.34,0,1,1-3.36-3.27l0-.05,10-10a15.66,15.66,0,0,1,22.14,22.14Z"/><path class="cls-3" d="M34.12,219.46A15.66,15.66,0,0,1,12,197.32l11.07-11.08a15.69,15.69,0,0,1,22.15,0c1.27.23,2,2,1.82,3.24a2.37,2.37,0,0,1-2.72,1.91,4.31,4.31,0,0,1-2.43-1.82,10.87,10.87,0,0,0-15.5,0L15.3,200.64a11,11,0,0,0,15.5,15.5l10-10a2.35,2.35,0,1,1,3.37,3.27l0,.05-10,10Zm22.15-22.14a15.69,15.69,0,0,1-22.15,0A2.35,2.35,0,1,1,37.45,194h0A10.89,10.89,0,0,0,53,194L64,182.92a11,11,0,0,0-15.5-15.5l-10,10a2.35,2.35,0,0,1-3.37-3.28l0-.05,10-10a15.66,15.66,0,0,1,22.14,22.14Z"/><path class="cls-3" d="M101.16,219.46A15.66,15.66,0,0,1,79,197.32l11.07-11.08a15.68,15.68,0,0,1,22.14,0c1.28.23,2,2,1.82,3.24a2.36,2.36,0,0,1-2.72,1.91,4.33,4.33,0,0,1-2.42-1.82,10.87,10.87,0,0,0-15.5,0L82.34,200.64a11,11,0,0,0,15.5,15.5l10-10a2.34,2.34,0,1,1,3.36,3.27l0,.05-10,10Zm22.15-22.14a15.69,15.69,0,0,1-22.15,0,2.35,2.35,0,1,1,3.32-3.32h0A10.9,10.9,0,0,0,120,194l11.07-11.08a11,11,0,0,0-15.5-15.5l-10,10a2.35,2.35,0,0,1-3.37-3.28l0-.05,10-10a15.66,15.66,0,0,1,22.14,22.14Z"/><path class="cls-3" d="M168.2,219.46a15.66,15.66,0,0,1-22.15-22.14l11.08-11.08a15.68,15.68,0,0,1,22.14,0c1.28.23,2,2,1.82,3.24a2.36,2.36,0,0,1-2.72,1.91,4.29,4.29,0,0,1-2.42-1.82,10.87,10.87,0,0,0-15.5,0l-11.07,11.07a11,11,0,0,0,15.5,15.5l10-10a2.35,2.35,0,1,1,3.37,3.27l0,.05-10,10Zm22.15-22.14a15.69,15.69,0,0,1-22.15,0,2.35,2.35,0,0,1,3.32-3.32h0a10.89,10.89,0,0,0,15.5,0l11.08-11.08a11,11,0,0,0-15.5-15.5l-10,10a2.35,2.35,0,0,1-3.37-3.28l.05-.05,10-10a15.66,15.66,0,0,1,22.15,22.14Z"/><path class="cls-3" d="M235.24,219.46a15.66,15.66,0,0,1-22.15-22.14l11.08-11.08a15.68,15.68,0,0,1,22.14,0c1.28.23,2,2,1.82,3.24a2.36,2.36,0,0,1-2.72,1.91,4.29,4.29,0,0,1-2.42-1.82,10.87,10.87,0,0,0-15.5,0l-11.08,11.07a11,11,0,0,0,15.51,15.5l10-10a2.35,2.35,0,0,1,3.37,3.27s0,0-.05.05l-10,10Zm22.14-22.14a15.68,15.68,0,0,1-22.14,0,2.35,2.35,0,0,1,3.32-3.32h0a10.89,10.89,0,0,0,15.5,0l11.08-11.08a11,11,0,0,0-15.51-15.5l-10,10a2.35,2.35,0,0,1-3.37-3.28l0-.05,10-10a15.66,15.66,0,0,1,22.15,22.14Z"/><path class="cls-3" d="M302.28,219.46a15.66,15.66,0,0,1-22.15-22.14l11.07-11.08a15.69,15.69,0,0,1,22.15,0c1.28.23,2,2,1.82,3.24a2.36,2.36,0,0,1-2.72,1.91,4.26,4.26,0,0,1-2.42-1.82,10.87,10.87,0,0,0-15.5,0l-11.08,11.07a11,11,0,0,0,15.5,15.5l10-10a2.35,2.35,0,1,1,3.37,3.27l-.05.05-10,10Zm22.14-22.14a15.68,15.68,0,0,1-22.14,0A2.35,2.35,0,0,1,305.6,194h0a10.89,10.89,0,0,0,15.5,0l11.07-11.08a11,11,0,0,0-15.5-15.5l-10,10a2.35,2.35,0,0,1-3.37-3.28l0-.05,10-10a15.66,15.66,0,0,1,22.15,22.14Z"/></g><rect class="cls-4" x="99" y="45" width="144" height="144" rx="11.52"/></g><g id="_19" data-name="19"><circle cx="154.58" cy="61.06" r="2.05"/><circle cx="162.79" cy="61.06" r="2.05"/><circle cx="166.9" cy="61.06" r="2.05"/><circle cx="171" cy="61.06" r="2.05"/><circle cx="175.1" cy="61.06" r="2.05"/><circle cx="187.42" cy="61.06" r="2.05"/><circle cx="146.38" cy="65.16" r="2.05"/><circle cx="154.58" cy="65.16" r="2.05"/><circle cx="166.9" cy="65.16" r="2.05"/><circle cx="171" cy="65.16" r="2.05"/><circle cx="175.1" cy="65.16" r="2.05"/><circle cx="179.21" cy="65.16" r="2.05"/><circle cx="183.31" cy="65.16" r="2.05"/><circle cx="195.62" cy="65.16" r="2.05"/><circle cx="162.79" cy="69.26" r="2.05"/><circle cx="166.9" cy="69.26" r="2.05"/><circle cx="175.1" cy="69.26" r="2.05"/><circle cx="183.31" cy="69.26" r="2.05"/><circle cx="187.42" cy="69.26" r="2.05"/><circle cx="191.52" cy="69.26" r="2.05"/><circle cx="195.62" cy="69.26" r="2.05"/><circle cx="146.38" cy="73.37" r="2.05"/><circle cx="150.48" cy="73.37" r="2.05"/><circle cx="154.58" cy="73.37" r="2.05"/><circle cx="162.79" cy="73.37" r="2.05"/><circle cx="171" cy="73.37" r="2.05"/><circle cx="175.1" cy="73.37" r="2.05"/><circle cx="183.31" cy="73.37" r="2.05"/><circle cx="150.48" cy="77.47" r="2.05"/><circle cx="175.1" cy="77.47" r="2.05"/><circle cx="179.21" cy="77.47" r="2.05"/><circle cx="195.62" cy="77.47" r="2.05"/><circle cx="146.38" cy="81.58" r="2.05"/><circle cx="150.48" cy="81.58" r="2.05"/><circle cx="158.69" cy="81.58" r="2.05"/><circle cx="162.79" cy="81.58" r="2.05"/><circle cx="183.31" cy="81.58" r="2.05"/><circle cx="191.52" cy="81.58" r="2.05"/><circle cx="146.38" cy="85.68" r="2.05"/><circle cx="154.58" cy="85.68" r="2.05"/><circle cx="162.79" cy="85.68" r="2.05"/><circle cx="171" cy="85.68" r="2.05"/><circle cx="179.21" cy="85.68" r="2.05"/><circle cx="187.42" cy="85.68" r="2.05"/><circle cx="195.62" cy="85.68" r="2.05"/><circle cx="150.48" cy="89.78" r="2.05"/><circle cx="154.58" cy="89.78" r="2.05"/><circle cx="158.69" cy="89.78" r="2.05"/><circle cx="171" cy="89.78" r="2.05"/><circle cx="179.21" cy="89.78" r="2.05"/><circle cx="187.42" cy="89.78" r="2.05"/><circle cx="191.52" cy="89.78" r="2.05"/><circle cx="195.62" cy="89.78" r="2.05"/><circle cx="113.54" cy="93.89" r="2.05"/><circle cx="117.65" cy="93.89" r="2.05"/><circle cx="121.75" cy="93.89" r="2.05"/><circle cx="125.86" cy="93.89" r="2.05"/><circle cx="129.96" cy="93.89" r="2.05"/><circle cx="138.17" cy="93.89" r="2.05"/><circle cx="142.27" cy="93.89" r="2.05"/><circle cx="146.38" cy="93.89" r="2.05"/><circle cx="150.48" cy="93.89" r="2.05"/><circle cx="158.69" cy="93.89" r="2.05"/><circle cx="199.73" cy="93.89" r="2.05"/><circle cx="207.94" cy="93.89" r="2.05"/><circle cx="216.14" cy="93.89" r="2.05"/><circle cx="224.35" cy="93.89" r="2.05"/><circle cx="117.65" cy="97.99" r="2.05"/><circle cx="121.75" cy="97.99" r="2.05"/><circle cx="129.96" cy="97.99" r="2.05"/><circle cx="134.06" cy="97.99" r="2.05"/><circle cx="146.38" cy="97.99" r="2.05"/><circle cx="154.58" cy="97.99" r="2.05"/><circle cx="162.79" cy="97.99" r="2.05"/><circle cx="166.9" cy="97.99" r="2.05"/><circle cx="171" cy="97.99" r="2.05"/><circle cx="175.1" cy="97.99" r="2.05"/><circle cx="187.42" cy="97.99" r="2.05"/><circle cx="195.62" cy="97.99" r="2.05"/><circle cx="203.83" cy="97.99" r="2.05"/><circle cx="207.94" cy="97.99" r="2.05"/><circle cx="212.04" cy="97.99" r="2.05"/><circle cx="216.14" cy="97.99" r="2.05"/><circle cx="224.35" cy="97.99" r="2.05"/><circle cx="117.65" cy="102.1" r="2.05"/><circle cx="121.75" cy="102.1" r="2.05"/><circle cx="134.06" cy="102.1" r="2.05"/><circle cx="138.17" cy="102.1" r="2.05"/><circle cx="142.27" cy="102.1" r="2.05"/><circle cx="154.58" cy="102.1" r="2.05"/><circle cx="166.9" cy="102.1" r="2.05"/><circle cx="171" cy="102.1" r="2.05"/><circle cx="175.1" cy="102.1" r="2.05"/><circle cx="183.31" cy="102.1" r="2.05"/><circle cx="191.52" cy="102.1" r="2.05"/><circle cx="199.73" cy="102.1" r="2.05"/><circle cx="207.94" cy="102.1" r="2.05"/><circle cx="216.14" cy="102.1" r="2.05"/><circle cx="220.25" cy="102.1" r="2.05"/><circle cx="117.65" cy="106.2" r="2.05"/><circle cx="121.75" cy="106.2" r="2.05"/><circle cx="125.86" cy="106.2" r="2.05"/><circle cx="162.79" cy="106.2" r="2.05"/><circle cx="166.9" cy="106.2" r="2.05"/><circle cx="175.1" cy="106.2" r="2.05"/><circle cx="187.42" cy="106.2" r="2.05"/><circle cx="191.52" cy="106.2" r="2.05"/><circle cx="195.62" cy="106.2" r="2.05"/><circle cx="199.73" cy="106.2" r="2.05"/><circle cx="203.83" cy="106.2" r="2.05"/><circle cx="207.94" cy="106.2" r="2.05"/><circle cx="212.04" cy="106.2" r="2.05"/><circle cx="216.14" cy="106.2" r="2.05"/><circle cx="228.46" cy="106.2" r="2.05"/><circle cx="113.54" cy="110.3" r="2.05"/><circle cx="117.65" cy="110.3" r="2.05"/><circle cx="121.75" cy="110.3" r="2.05"/><circle cx="125.86" cy="110.3" r="2.05"/><circle cx="138.17" cy="110.3" r="2.05"/><circle cx="142.27" cy="110.3" r="2.05"/><circle cx="150.48" cy="110.3" r="2.05"/><circle cx="154.58" cy="110.3" r="2.05"/><circle cx="162.79" cy="110.3" r="2.05"/><circle cx="171" cy="110.3" r="2.05"/><circle cx="175.1" cy="110.3" r="2.05"/><circle cx="179.21" cy="110.3" r="2.05"/><circle cx="183.31" cy="110.3" r="2.05"/><circle cx="187.42" cy="110.3" r="2.05"/><circle cx="195.62" cy="110.3" r="2.05"/><circle cx="203.83" cy="110.3" r="2.05"/><circle cx="207.94" cy="110.3" r="2.05"/><circle cx="113.54" cy="114.41" r="2.05"/><circle cx="134.06" cy="114.41" r="2.05"/><circle cx="179.21" cy="114.41" r="2.05"/><circle cx="195.62" cy="114.41" r="2.05"/><circle cx="199.73" cy="114.41" r="2.05"/><circle cx="203.83" cy="114.41" r="2.05"/><circle cx="207.94" cy="114.41" r="2.05"/><circle cx="212.04" cy="114.41" r="2.05"/><circle cx="216.14" cy="114.41" r="2.05"/><circle cx="224.35" cy="114.41" r="2.05"/><circle cx="129.96" cy="118.51" r="2.05"/><circle cx="138.17" cy="118.51" r="2.05"/><circle cx="142.27" cy="118.51" r="2.05"/><circle cx="158.69" cy="118.51" r="2.05"/><circle cx="162.79" cy="118.51" r="2.05"/><circle cx="183.31" cy="118.51" r="2.05"/><circle cx="207.94" cy="118.51" r="2.05"/><circle cx="216.14" cy="118.51" r="2.05"/><circle cx="220.25" cy="118.51" r="2.05"/><circle cx="224.35" cy="118.51" r="2.05"/><circle cx="228.46" cy="118.51" r="2.05"/><circle cx="121.75" cy="122.62" r="2.05"/><circle cx="134.06" cy="122.62" r="2.05"/><circle cx="146.38" cy="122.62" r="2.05"/><circle cx="154.58" cy="122.62" r="2.05"/><circle cx="158.69" cy="122.62" r="2.05"/><circle cx="171" cy="122.62" r="2.05"/><circle cx="187.42" cy="122.62" r="2.05"/><circle cx="191.52" cy="122.62" r="2.05"/><circle cx="195.62" cy="122.62" r="2.05"/><circle cx="203.83" cy="122.62" r="2.05"/><circle cx="207.94" cy="122.62" r="2.05"/><circle cx="212.04" cy="122.62" r="2.05"/><circle cx="224.35" cy="122.62" r="2.05"/><circle cx="228.46" cy="122.62" r="2.05"/><circle cx="113.54" cy="126.72" r="2.05"/><circle cx="117.65" cy="126.72" r="2.05"/><circle cx="121.75" cy="126.72" r="2.05"/><circle cx="125.86" cy="126.72" r="2.05"/><circle cx="138.17" cy="126.72" r="2.05"/><circle cx="142.27" cy="126.72" r="2.05"/><circle cx="158.69" cy="126.72" r="2.05"/><circle cx="175.1" cy="126.72" r="2.05"/><circle cx="179.21" cy="126.72" r="2.05"/><circle cx="187.42" cy="126.72" r="2.05"/><circle cx="195.62" cy="126.72" r="2.05"/><circle cx="207.94" cy="126.72" r="2.05"/><circle cx="113.54" cy="130.82" r="2.05"/><circle cx="117.65" cy="130.82" r="2.05"/><circle cx="121.75" cy="130.82" r="2.05"/><circle cx="125.86" cy="130.82" r="2.05"/><circle cx="129.96" cy="130.82" r="2.05"/><circle cx="142.27" cy="130.82" r="2.05"/><circle cx="146.38" cy="130.82" r="2.05"/><circle cx="162.79" cy="130.82" r="2.05"/><circle cx="166.9" cy="130.82" r="2.05"/><circle cx="171" cy="130.82" r="2.05"/><circle cx="175.1" cy="130.82" r="2.05"/><circle cx="179.21" cy="130.82" r="2.05"/><circle cx="195.62" cy="130.82" r="2.05"/><circle cx="199.73" cy="130.82" r="2.05"/><circle cx="207.94" cy="130.82" r="2.05"/><circle cx="212.04" cy="130.82" r="2.05"/><circle cx="216.14" cy="130.82" r="2.05"/><circle cx="224.35" cy="130.82" r="2.05"/><circle cx="113.54" cy="134.93" r="2.05"/><circle cx="125.86" cy="134.93" r="2.05"/><circle cx="138.17" cy="134.93" r="2.05"/><circle cx="154.58" cy="134.93" r="2.05"/><circle cx="166.9" cy="134.93" r="2.05"/><circle cx="171" cy="134.93" r="2.05"/><circle cx="183.31" cy="134.93" r="2.05"/><circle cx="191.52" cy="134.93" r="2.05"/><circle cx="207.94" cy="134.93" r="2.05"/><circle cx="216.14" cy="134.93" r="2.05"/><circle cx="220.25" cy="134.93" r="2.05"/><circle cx="224.35" cy="134.93" r="2.05"/><circle cx="113.54" cy="139.03" r="2.05"/><circle cx="129.96" cy="139.03" r="2.05"/><circle cx="142.27" cy="139.03" r="2.05"/><circle cx="146.38" cy="139.03" r="2.05"/><circle cx="154.58" cy="139.03" r="2.05"/><circle cx="162.79" cy="139.03" r="2.05"/><circle cx="166.9" cy="139.03" r="2.05"/><circle cx="179.21" cy="139.03" r="2.05"/><circle cx="191.52" cy="139.03" r="2.05"/><circle cx="195.62" cy="139.03" r="2.05"/><circle cx="199.73" cy="139.03" r="2.05"/><circle cx="203.83" cy="139.03" r="2.05"/><circle cx="207.94" cy="139.03" r="2.05"/><circle cx="212.04" cy="139.03" r="2.05"/><circle cx="224.35" cy="139.03" r="2.05"/><circle cx="228.46" cy="139.03" r="2.05"/><circle cx="113.54" cy="143.14" r="2.05"/><circle cx="121.75" cy="143.14" r="2.05"/><circle cx="125.86" cy="143.14" r="2.05"/><circle cx="129.96" cy="143.14" r="2.05"/><circle cx="134.06" cy="143.14" r="2.05"/><circle cx="138.17" cy="143.14" r="2.05"/><circle cx="142.27" cy="143.14" r="2.05"/><circle cx="146.38" cy="143.14" r="2.05"/><circle cx="162.79" cy="143.14" r="2.05"/><circle cx="171" cy="143.14" r="2.05"/><circle cx="175.1" cy="143.14" r="2.05"/><circle cx="179.21" cy="143.14" r="2.05"/><circle cx="183.31" cy="143.14" r="2.05"/><circle cx="187.42" cy="143.14" r="2.05"/><circle cx="195.62" cy="143.14" r="2.05"/><circle cx="199.73" cy="143.14" r="2.05"/><circle cx="203.83" cy="143.14" r="2.05"/><circle cx="207.94" cy="143.14" r="2.05"/><circle cx="212.04" cy="143.14" r="2.05"/><circle cx="216.14" cy="143.14" r="2.05"/><circle cx="220.25" cy="143.14" r="2.05"/><circle cx="224.35" cy="143.14" r="2.05"/><circle cx="146.38" cy="147.24" r="2.05"/><circle cx="154.58" cy="147.24" r="2.05"/><circle cx="179.21" cy="147.24" r="2.05"/><circle cx="191.52" cy="147.24" r="2.05"/><circle cx="195.62" cy="147.24" r="2.05"/><circle cx="212.04" cy="147.24" r="2.05"/><circle cx="224.35" cy="147.24" r="2.05"/><circle cx="146.38" cy="151.34" r="2.05"/><circle cx="154.58" cy="151.34" r="2.05"/><circle cx="158.69" cy="151.34" r="2.05"/><circle cx="162.79" cy="151.34" r="2.05"/><circle cx="183.31" cy="151.34" r="2.05"/><circle cx="191.52" cy="151.34" r="2.05"/><circle cx="195.62" cy="151.34" r="2.05"/><circle cx="203.83" cy="151.34" r="2.05"/><circle cx="212.04" cy="151.34" r="2.05"/><circle cx="216.14" cy="151.34" r="2.05"/><circle cx="220.25" cy="151.34" r="2.05"/><circle cx="158.69" cy="155.45" r="2.05"/><circle cx="171" cy="155.45" r="2.05"/><circle cx="179.21" cy="155.45" r="2.05"/><circle cx="195.62" cy="155.45" r="2.05"/><circle cx="212.04" cy="155.45" r="2.05"/><circle cx="220.25" cy="155.45" r="2.05"/><circle cx="224.35" cy="155.45" r="2.05"/><circle cx="228.46" cy="155.45" r="2.05"/><circle cx="146.38" cy="159.55" r="2.05"/><circle cx="158.69" cy="159.55" r="2.05"/><circle cx="175.1" cy="159.55" r="2.05"/><circle cx="179.21" cy="159.55" r="2.05"/><circle cx="195.62" cy="159.55" r="2.05"/><circle cx="199.73" cy="159.55" r="2.05"/><circle cx="203.83" cy="159.55" r="2.05"/><circle cx="207.94" cy="159.55" r="2.05"/><circle cx="212.04" cy="159.55" r="2.05"/><circle cx="220.25" cy="159.55" r="2.05"/><circle cx="224.35" cy="159.55" r="2.05"/><circle cx="228.46" cy="159.55" r="2.05"/><circle cx="146.38" cy="163.66" r="2.05"/><circle cx="162.79" cy="163.66" r="2.05"/><circle cx="166.9" cy="163.66" r="2.05"/><circle cx="171" cy="163.66" r="2.05"/><circle cx="187.42" cy="163.66" r="2.05"/><circle cx="191.52" cy="163.66" r="2.05"/><circle cx="195.62" cy="163.66" r="2.05"/><circle cx="199.73" cy="163.66" r="2.05"/><circle cx="203.83" cy="163.66" r="2.05"/><circle cx="207.94" cy="163.66" r="2.05"/><circle cx="146.38" cy="167.76" r="2.05"/><circle cx="150.48" cy="167.76" r="2.05"/><circle cx="154.58" cy="167.76" r="2.05"/><circle cx="166.9" cy="167.76" r="2.05"/><circle cx="171" cy="167.76" r="2.05"/><circle cx="175.1" cy="167.76" r="2.05"/><circle cx="183.31" cy="167.76" r="2.05"/><circle cx="187.42" cy="167.76" r="2.05"/><circle cx="191.52" cy="167.76" r="2.05"/><circle cx="199.73" cy="167.76" r="2.05"/><circle cx="207.94" cy="167.76" r="2.05"/><circle cx="220.25" cy="167.76" r="2.05"/><circle cx="224.35" cy="167.76" r="2.05"/><circle cx="146.38" cy="171.86" r="2.05"/><circle cx="154.58" cy="171.86" r="2.05"/><circle cx="162.79" cy="171.86" r="2.05"/><circle cx="166.9" cy="171.86" r="2.05"/><circle cx="179.21" cy="171.86" r="2.05"/><circle cx="183.31" cy="171.86" r="2.05"/><circle cx="187.42" cy="171.86" r="2.05"/><circle cx="191.52" cy="171.86" r="2.05"/><circle cx="216.14" cy="171.86" r="2.05"/><circle cx="220.25" cy="171.86" r="2.05"/><circle cx="228.46" cy="171.86" r="2.05"/><circle cx="146.38" cy="175.97" r="2.05"/><circle cx="154.58" cy="175.97" r="2.05"/><circle cx="162.79" cy="175.97" r="2.05"/><circle cx="171" cy="175.97" r="2.05"/><circle cx="175.1" cy="175.97" r="2.05"/><circle cx="183.31" cy="175.97" r="2.05"/><circle cx="191.52" cy="175.97" r="2.05"/><circle cx="199.73" cy="175.97" r="2.05"/><circle cx="203.83" cy="175.97" r="2.05"/><circle cx="212.04" cy="175.97" r="2.05"/><circle cx="216.14" cy="175.97" r="2.05"/><circle cx="220.25" cy="175.97" r="2.05"/><path d="M112.36,59a.87.87,0,0,0-.87.88v27a.88.88,0,0,0,.87.88h27a.87.87,0,0,0,.87-.88v-27a.87.87,0,0,0-.87-.88Zm23.76,8.21V83.13a.5.5,0,0,1-.5.5H116.1a.5.5,0,0,1-.5-.5V63.61a.5.5,0,0,1,.5-.5h19.52a.5.5,0,0,1,.5.5Z"/><path d="M132,75.42V68.08a.87.87,0,0,0-.87-.87H120.57a.87.87,0,0,0-.87.87V78.65a.87.87,0,0,0,.87.88h10.57a.87.87,0,0,0,.87-.88Z"/><path d="M202.65,59a.87.87,0,0,0-.87.88v27a.88.88,0,0,0,.87.88h27a.87.87,0,0,0,.87-.88v-27a.87.87,0,0,0-.87-.88Zm23.75,8.21V83.13a.5.5,0,0,1-.5.5H206.38a.51.51,0,0,1-.5-.5V63.61a.5.5,0,0,1,.5-.5H225.9a.5.5,0,0,1,.5.5Z"/><path d="M222.3,75.42V68.08a.87.87,0,0,0-.87-.87H210.86a.88.88,0,0,0-.88.87V78.65a.87.87,0,0,0,.88.88h10.57a.87.87,0,0,0,.87-.88Z"/><path d="M112.36,149.29a.87.87,0,0,0-.87.87v27a.88.88,0,0,0,.87.88h27a.87.87,0,0,0,.87-.88v-27a.87.87,0,0,0-.87-.87Zm23.76,8.21v15.92a.5.5,0,0,1-.5.5H116.1a.5.5,0,0,1-.5-.5V153.9a.5.5,0,0,1,.5-.5h19.52a.5.5,0,0,1,.5.5Z"/><path d="M132,165.71v-7.34a.87.87,0,0,0-.87-.87H120.57a.87.87,0,0,0-.87.87v10.57a.88.88,0,0,0,.87.88h10.57a.87.87,0,0,0,.87-.88Z"/></g></g></svg>