<svg xmlns="http://www.w3.org/2000/svg" viewBox="0 0 342 234"><defs><style>.cls-1{fill:#f16522;}.cls-2{opacity:0.21;}.cls-3{opacity:0.5;}.cls-4{fill:#fff;}</style></defs><g id="Layer_2" data-name="Layer 2"><g id="orange_export_qr_with_background" data-name="orange export qr with background"><rect id="background" class="cls-1" width="342" height="234" rx="18"/><g id="link_icons" data-name="link icons" class="cls-2"><path class="cls-3" d="M34.88,71.56A15.66,15.66,0,0,1,12.74,49.42L23.81,38.34a15.69,15.69,0,0,1,22.15,0c1.27.23,2,2,1.81,3.24a2.34,2.34,0,0,1-2.71,1.9,4.25,4.25,0,0,1-2.43-1.81,10.87,10.87,0,0,0-15.5,0L16.06,52.74a11,11,0,0,0,15.5,15.5l10-10a2.35,2.35,0,0,1,3.37,3.28s0,0,0,.05l-10,10ZM57,49.42a15.69,15.69,0,0,1-22.15,0,2.35,2.35,0,0,1,3.32-3.33h0a10.88,10.88,0,0,0,15.51,0L64.78,35a11,11,0,0,0-15.5-15.5l-10,10a2.35,2.35,0,1,1-3.37-3.27l.05-.05,10-10A15.66,15.66,0,1,1,68.1,38.34Z"/><path class="cls-3" d="M101.92,71.56A15.66,15.66,0,0,1,79.77,49.42L90.85,38.34a15.68,15.68,0,0,1,22.14,0c1.28.23,2.05,2,1.82,3.24a2.34,2.34,0,0,1-2.72,1.9,4.26,4.26,0,0,1-2.42-1.81,10.87,10.87,0,0,0-15.5,0L83.1,52.74a11,11,0,0,0,15.5,15.5l10-10a2.35,2.35,0,0,1,3.37,3.28l0,.05-10,10Zm22.15-22.14a15.69,15.69,0,0,1-22.15,0,2.35,2.35,0,0,1,3.32-3.33h0a10.87,10.87,0,0,0,15.5,0L131.82,35a11,11,0,0,0-15.5-15.5l-10,10A2.35,2.35,0,0,1,103,26.21l0-.05,10-10a15.66,15.66,0,1,1,22.15,22.14Z"/><path class="cls-3" d="M169,71.56a15.66,15.66,0,1,1-22.15-22.14l11.08-11.08a15.68,15.68,0,0,1,22.14,0c1.28.23,2,2,1.82,3.24a2.34,2.34,0,0,1-2.72,1.9,4.23,4.23,0,0,1-2.42-1.81,10.87,10.87,0,0,0-15.5,0L150.13,52.74a11,11,0,0,0,15.51,15.5l10-10A2.35,2.35,0,0,1,179,61.55s0,0-.05.05l-10,10ZM191.1,49.42a15.68,15.68,0,0,1-22.14,0,2.35,2.35,0,0,1,3.32-3.33h0a10.87,10.87,0,0,0,15.5,0L198.86,35a11,11,0,1,0-15.51-15.5l-10,10A2.35,2.35,0,1,1,170,26.21s0,0,0-.05l10-10a15.66,15.66,0,1,1,22.15,22.14Z"/><path class="cls-3" d="M236,71.56a15.66,15.66,0,0,1-22.15-22.14l11.07-11.08a15.69,15.69,0,0,1,22.15,0c1.28.23,2,2,1.82,3.24a2.34,2.34,0,0,1-2.72,1.9,4.23,4.23,0,0,1-2.42-1.81,10.87,10.87,0,0,0-15.5,0L217.17,52.74a11,11,0,0,0,15.5,15.5l10-10A2.35,2.35,0,0,1,246,61.55l0,.05-10,10Zm22.14-22.14a15.68,15.68,0,0,1-22.14,0,2.35,2.35,0,0,1,3.32-3.33h0a10.87,10.87,0,0,0,15.5,0L265.89,35a11,11,0,0,0-15.5-15.5l-10,10a2.35,2.35,0,1,1-3.37-3.27l0-.05,10-10a15.66,15.66,0,0,1,22.15,22.14Z"/><path class="cls-3" d="M303,71.56a15.66,15.66,0,0,1-22.15-22.14L292,38.34a15.69,15.69,0,0,1,22.15,0c1.28.23,2,2,1.82,3.24a2.35,2.35,0,0,1-2.72,1.9,4.2,4.2,0,0,1-2.42-1.81,10.88,10.88,0,0,0-15.51,0L284.21,52.74a11,11,0,0,0,15.5,15.5l10-10a2.35,2.35,0,0,1,3.37,3.28l-.05.05-10,10Zm22.14-22.14a15.68,15.68,0,0,1-22.14,0,2.35,2.35,0,0,1,3.32-3.33h0a10.87,10.87,0,0,0,15.5,0L332.93,35a11,11,0,0,0-15.5-15.5l-10,10a2.34,2.34,0,1,1-3.36-3.27l0-.05,10-10a15.66,15.66,0,0,1,22.14,22.14Z"/><path class="cls-3" d="M34.12,219.46A15.66,15.66,0,0,1,12,197.32l11.07-11.08a15.69,15.69,0,0,1,22.15,0c1.27.23,2,2,1.82,3.24a2.37,2.37,0,0,1-2.72,1.91,4.31,4.31,0,0,1-2.43-1.82,10.87,10.87,0,0,0-15.5,0L15.3,200.64a11,11,0,0,0,15.5,15.5l10-10a2.35,2.35,0,1,1,3.37,3.27l0,.05-10,10Zm22.15-22.14a15.69,15.69,0,0,1-22.15,0A2.35,2.35,0,1,1,37.45,194h0A10.89,10.89,0,0,0,53,194L64,182.92a11,11,0,0,0-15.5-15.5l-10,10a2.35,2.35,0,0,1-3.37-3.28l0-.05,10-10a15.66,15.66,0,0,1,22.14,22.14Z"/><path class="cls-3" d="M101.16,219.46A15.66,15.66,0,0,1,79,197.32l11.07-11.08a15.68,15.68,0,0,1,22.14,0c1.28.23,2,2,1.82,3.24a2.36,2.36,0,0,1-2.72,1.91,4.33,4.33,0,0,1-2.42-1.82,10.87,10.87,0,0,0-15.5,0L82.34,200.64a11,11,0,0,0,15.5,15.5l10-10a2.34,2.34,0,1,1,3.36,3.27l0,.05-10,10Zm22.15-22.14a15.69,15.69,0,0,1-22.15,0,2.35,2.35,0,1,1,3.32-3.32h0A10.9,10.9,0,0,0,120,194l11.07-11.08a11,11,0,0,0-15.5-15.5l-10,10a2.35,2.35,0,0,1-3.37-3.28l0-.05,10-10a15.66,15.66,0,0,1,22.14,22.14Z"/><path class="cls-3" d="M168.2,219.46a15.66,15.66,0,0,1-22.15-22.14l11.08-11.08a15.68,15.68,0,0,1,22.14,0c1.28.23,2,2,1.82,3.24a2.36,2.36,0,0,1-2.72,1.91,4.29,4.29,0,0,1-2.42-1.82,10.87,10.87,0,0,0-15.5,0l-11.07,11.07a11,11,0,0,0,15.5,15.5l10-10a2.35,2.35,0,1,1,3.37,3.27l0,.05-10,10Zm22.15-22.14a15.69,15.69,0,0,1-22.15,0,2.35,2.35,0,0,1,3.32-3.32h0a10.89,10.89,0,0,0,15.5,0l11.08-11.08a11,11,0,0,0-15.5-15.5l-10,10a2.35,2.35,0,0,1-3.37-3.28l.05-.05,10-10a15.66,15.66,0,0,1,22.15,22.14Z"/><path class="cls-3" d="M235.24,219.46a15.66,15.66,0,0,1-22.15-22.14l11.08-11.08a15.68,15.68,0,0,1,22.14,0c1.28.23,2,2,1.82,3.24a2.36,2.36,0,0,1-2.72,1.91,4.29,4.29,0,0,1-2.42-1.82,10.87,10.87,0,0,0-15.5,0l-11.08,11.07a11,11,0,0,0,15.51,15.5l10-10a2.35,2.35,0,0,1,3.37,3.27s0,0-.05.05l-10,10Zm22.14-22.14a15.68,15.68,0,0,1-22.14,0,2.35,2.35,0,0,1,3.32-3.32h0a10.89,10.89,0,0,0,15.5,0l11.08-11.08a11,11,0,0,0-15.51-15.5l-10,10a2.35,2.35,0,0,1-3.37-3.28l0-.05,10-10a15.66,15.66,0,0,1,22.15,22.14Z"/><path class="cls-3" d="M302.28,219.46a15.66,15.66,0,0,1-22.15-22.14l11.07-11.08a15.69,15.69,0,0,1,22.15,0c1.28.23,2,2,1.82,3.24a2.36,2.36,0,0,1-2.72,1.91,4.26,4.26,0,0,1-2.42-1.82,10.87,10.87,0,0,0-15.5,0l-11.08,11.07a11,11,0,0,0,15.5,15.5l10-10a2.35,2.35,0,1,1,3.37,3.27l-.05.05-10,10Zm22.14-22.14a15.68,15.68,0,0,1-22.14,0A2.35,2.35,0,0,1,305.6,194h0a10.89,10.89,0,0,0,15.5,0l11.07-11.08a11,11,0,0,0-15.5-15.5l-10,10a2.35,2.35,0,0,1-3.37-3.28l0-.05,10-10a15.66,15.66,0,0,1,22.15,22.14Z"/></g><rect class="cls-4" x="99" y="45" width="144" height="144" rx="11.52"/></g><g id="_21" data-name="21"><circle cx="141.98" cy="57.38" r="1.66"/><circle cx="161.85" cy="57.38" r="1.66"/><circle cx="165.16" cy="57.38" r="1.66"/><circle cx="175.1" cy="57.38" r="1.66"/><circle cx="181.72" cy="57.38" r="1.66"/><circle cx="185.04" cy="57.38" r="1.66"/><circle cx="188.35" cy="57.38" r="1.66"/><circle cx="191.66" cy="57.38" r="1.66"/><circle cx="198.28" cy="57.38" r="1.66"/><circle cx="201.6" cy="57.38" r="1.66"/><circle cx="204.91" cy="57.38" r="1.66"/><circle cx="138.67" cy="60.7" r="1.66"/><circle cx="141.98" cy="60.7" r="1.66"/><circle cx="148.6" cy="60.7" r="1.66"/><circle cx="151.92" cy="60.7" r="1.66"/><circle cx="168.48" cy="60.7" r="1.66"/><circle cx="171.79" cy="60.7" r="1.66"/><circle cx="178.41" cy="60.7" r="1.66"/><circle cx="185.04" cy="60.7" r="1.66"/><circle cx="194.97" cy="60.7" r="1.66"/><circle cx="198.28" cy="60.7" r="1.66"/><circle cx="141.98" cy="64.01" r="1.66"/><circle cx="145.29" cy="64.01" r="1.66"/><circle cx="148.6" cy="64.01" r="1.66"/><circle cx="158.54" cy="64.01" r="1.66"/><circle cx="165.16" cy="64.01" r="1.66"/><circle cx="168.48" cy="64.01" r="1.66"/><circle cx="171.79" cy="64.01" r="1.66"/><circle cx="175.1" cy="64.01" r="1.66"/><circle cx="178.41" cy="64.01" r="1.66"/><circle cx="188.35" cy="64.01" r="1.66"/><circle cx="194.97" cy="64.01" r="1.66"/><circle cx="138.67" cy="67.32" r="1.66"/><circle cx="141.98" cy="67.32" r="1.66"/><circle cx="148.6" cy="67.32" r="1.66"/><circle cx="165.16" cy="67.32" r="1.66"/><circle cx="178.41" cy="67.32" r="1.66"/><circle cx="181.72" cy="67.32" r="1.66"/><circle cx="198.28" cy="67.32" r="1.66"/><circle cx="201.6" cy="67.32" r="1.66"/><circle cx="145.29" cy="70.63" r="1.66"/><circle cx="151.92" cy="70.63" r="1.66"/><circle cx="155.23" cy="70.63" r="1.66"/><circle cx="158.54" cy="70.63" r="1.66"/><circle cx="161.85" cy="70.63" r="1.66"/><circle cx="178.41" cy="70.63" r="1.66"/><circle cx="181.72" cy="70.63" r="1.66"/><circle cx="185.04" cy="70.63" r="1.66"/><circle cx="201.6" cy="70.63" r="1.66"/><circle cx="138.67" cy="73.94" r="1.66"/><circle cx="145.29" cy="73.94" r="1.66"/><circle cx="155.23" cy="73.94" r="1.66"/><circle cx="158.54" cy="73.94" r="1.66"/><circle cx="161.85" cy="73.94" r="1.66"/><circle cx="165.16" cy="73.94" r="1.66"/><circle cx="168.48" cy="73.94" r="1.66"/><circle cx="175.1" cy="73.94" r="1.66"/><circle cx="185.04" cy="73.94" r="1.66"/><circle cx="194.97" cy="73.94" r="1.66"/><circle cx="198.28" cy="73.94" r="1.66"/><circle cx="138.67" cy="77.26" r="1.66"/><circle cx="145.29" cy="77.26" r="1.66"/><circle cx="151.92" cy="77.26" r="1.66"/><circle cx="158.54" cy="77.26" r="1.66"/><circle cx="165.16" cy="77.26" r="1.66"/><circle cx="171.79" cy="77.26" r="1.66"/><circle cx="178.41" cy="77.26" r="1.66"/><circle cx="185.04" cy="77.26" r="1.66"/><circle cx="191.66" cy="77.26" r="1.66"/><circle cx="198.28" cy="77.26" r="1.66"/><circle cx="204.91" cy="77.26" r="1.66"/><circle cx="151.92" cy="80.57" r="1.66"/><circle cx="155.23" cy="80.57" r="1.66"/><circle cx="161.85" cy="80.57" r="1.66"/><circle cx="171.79" cy="80.57" r="1.66"/><circle cx="175.1" cy="80.57" r="1.66"/><circle cx="178.41" cy="80.57" r="1.66"/><circle cx="181.72" cy="80.57" r="1.66"/><circle cx="188.35" cy="80.57" r="1.66"/><circle cx="194.97" cy="80.57" r="1.66"/><circle cx="204.91" cy="80.57" r="1.66"/><circle cx="112.17" cy="83.88" r="1.66"/><circle cx="115.48" cy="83.88" r="1.66"/><circle cx="118.8" cy="83.88" r="1.66"/><circle cx="122.11" cy="83.88" r="1.66"/><circle cx="125.42" cy="83.88" r="1.66"/><circle cx="132.04" cy="83.88" r="1.66"/><circle cx="135.36" cy="83.88" r="1.66"/><circle cx="138.67" cy="83.88" r="1.66"/><circle cx="141.98" cy="83.88" r="1.66"/><circle cx="145.29" cy="83.88" r="1.66"/><circle cx="151.92" cy="83.88" r="1.66"/><circle cx="158.54" cy="83.88" r="1.66"/><circle cx="161.85" cy="83.88" r="1.66"/><circle cx="171.79" cy="83.88" r="1.66"/><circle cx="178.41" cy="83.88" r="1.66"/><circle cx="181.72" cy="83.88" r="1.66"/><circle cx="201.6" cy="83.88" r="1.66"/><circle cx="208.22" cy="83.88" r="1.66"/><circle cx="214.84" cy="83.88" r="1.66"/><circle cx="221.47" cy="83.88" r="1.66"/><circle cx="228.09" cy="83.88" r="1.66"/><circle cx="112.17" cy="87.19" r="1.66"/><circle cx="122.11" cy="87.19" r="1.66"/><circle cx="125.42" cy="87.19" r="1.66"/><circle cx="128.73" cy="87.19" r="1.66"/><circle cx="135.36" cy="87.19" r="1.66"/><circle cx="161.85" cy="87.19" r="1.66"/><circle cx="165.16" cy="87.19" r="1.66"/><circle cx="175.1" cy="87.19" r="1.66"/><circle cx="178.41" cy="87.19" r="1.66"/><circle cx="181.72" cy="87.19" r="1.66"/><circle cx="185.04" cy="87.19" r="1.66"/><circle cx="198.28" cy="87.19" r="1.66"/><circle cx="201.6" cy="87.19" r="1.66"/><circle cx="204.91" cy="87.19" r="1.66"/><circle cx="208.22" cy="87.19" r="1.66"/><circle cx="211.53" cy="87.19" r="1.66"/><circle cx="214.84" cy="87.19" r="1.66"/><circle cx="231.4" cy="87.19" r="1.66"/><circle cx="115.48" cy="90.5" r="1.66"/><circle cx="118.8" cy="90.5" r="1.66"/><circle cx="125.42" cy="90.5" r="1.66"/><circle cx="128.73" cy="90.5" r="1.66"/><circle cx="132.04" cy="90.5" r="1.66"/><circle cx="135.36" cy="90.5" r="1.66"/><circle cx="141.98" cy="90.5" r="1.66"/><circle cx="148.6" cy="90.5" r="1.66"/><circle cx="151.92" cy="90.5" r="1.66"/><circle cx="168.48" cy="90.5" r="1.66"/><circle cx="175.1" cy="90.5" r="1.66"/><circle cx="191.66" cy="90.5" r="1.66"/><circle cx="194.97" cy="90.5" r="1.66"/><circle cx="198.28" cy="90.5" r="1.66"/><circle cx="201.6" cy="90.5" r="1.66"/><circle cx="204.91" cy="90.5" r="1.66"/><circle cx="208.22" cy="90.5" r="1.66"/><circle cx="211.53" cy="90.5" r="1.66"/><circle cx="218.16" cy="90.5" r="1.66"/><circle cx="224.78" cy="90.5" r="1.66"/><circle cx="231.4" cy="90.5" r="1.66"/><circle cx="112.17" cy="93.82" r="1.66"/><circle cx="115.48" cy="93.82" r="1.66"/><circle cx="118.8" cy="93.82" r="1.66"/><circle cx="125.42" cy="93.82" r="1.66"/><circle cx="128.73" cy="93.82" r="1.66"/><circle cx="145.29" cy="93.82" r="1.66"/><circle cx="148.6" cy="93.82" r="1.66"/><circle cx="158.54" cy="93.82" r="1.66"/><circle cx="165.16" cy="93.82" r="1.66"/><circle cx="168.48" cy="93.82" r="1.66"/><circle cx="171.79" cy="93.82" r="1.66"/><circle cx="175.1" cy="93.82" r="1.66"/><circle cx="178.41" cy="93.82" r="1.66"/><circle cx="188.35" cy="93.82" r="1.66"/><circle cx="204.91" cy="93.82" r="1.66"/><circle cx="214.84" cy="93.82" r="1.66"/><circle cx="221.47" cy="93.82" r="1.66"/><circle cx="228.09" cy="93.82" r="1.66"/><circle cx="112.17" cy="97.13" r="1.66"/><circle cx="115.48" cy="97.13" r="1.66"/><circle cx="122.11" cy="97.13" r="1.66"/><circle cx="125.42" cy="97.13" r="1.66"/><circle cx="128.73" cy="97.13" r="1.66"/><circle cx="132.04" cy="97.13" r="1.66"/><circle cx="138.67" cy="97.13" r="1.66"/><circle cx="148.6" cy="97.13" r="1.66"/><circle cx="168.48" cy="97.13" r="1.66"/><circle cx="181.72" cy="97.13" r="1.66"/><circle cx="185.04" cy="97.13" r="1.66"/><circle cx="194.97" cy="97.13" r="1.66"/><circle cx="201.6" cy="97.13" r="1.66"/><circle cx="208.22" cy="97.13" r="1.66"/><circle cx="211.53" cy="97.13" r="1.66"/><circle cx="214.84" cy="97.13" r="1.66"/><circle cx="224.78" cy="97.13" r="1.66"/><circle cx="228.09" cy="97.13" r="1.66"/><circle cx="231.4" cy="97.13" r="1.66"/><circle cx="115.48" cy="100.44" r="1.66"/><circle cx="118.8" cy="100.44" r="1.66"/><circle cx="125.42" cy="100.44" r="1.66"/><circle cx="135.36" cy="100.44" r="1.66"/><circle cx="141.98" cy="100.44" r="1.66"/><circle cx="145.29" cy="100.44" r="1.66"/><circle cx="151.92" cy="100.44" r="1.66"/><circle cx="155.23" cy="100.44" r="1.66"/><circle cx="158.54" cy="100.44" r="1.66"/><circle cx="161.85" cy="100.44" r="1.66"/><circle cx="171.79" cy="100.44" r="1.66"/><circle cx="178.41" cy="100.44" r="1.66"/><circle cx="181.72" cy="100.44" r="1.66"/><circle cx="185.04" cy="100.44" r="1.66"/><circle cx="188.35" cy="100.44" r="1.66"/><circle cx="201.6" cy="100.44" r="1.66"/><circle cx="204.91" cy="100.44" r="1.66"/><circle cx="211.53" cy="100.44" r="1.66"/><circle cx="214.84" cy="100.44" r="1.66"/><circle cx="218.16" cy="100.44" r="1.66"/><circle cx="221.47" cy="100.44" r="1.66"/><circle cx="231.4" cy="100.44" r="1.66"/><circle cx="112.17" cy="103.75" r="1.66"/><circle cx="115.48" cy="103.75" r="1.66"/><circle cx="132.04" cy="103.75" r="1.66"/><circle cx="145.29" cy="103.75" r="1.66"/><circle cx="155.23" cy="103.75" r="1.66"/><circle cx="158.54" cy="103.75" r="1.66"/><circle cx="161.85" cy="103.75" r="1.66"/><circle cx="168.48" cy="103.75" r="1.66"/><circle cx="178.41" cy="103.75" r="1.66"/><circle cx="185.04" cy="103.75" r="1.66"/><circle cx="191.66" cy="103.75" r="1.66"/><circle cx="194.97" cy="103.75" r="1.66"/><circle cx="198.28" cy="103.75" r="1.66"/><circle cx="208.22" cy="103.75" r="1.66"/><circle cx="211.53" cy="103.75" r="1.66"/><circle cx="218.16" cy="103.75" r="1.66"/><circle cx="224.78" cy="103.75" r="1.66"/><circle cx="228.09" cy="103.75" r="1.66"/><circle cx="231.4" cy="103.75" r="1.66"/><circle cx="112.17" cy="107.06" r="1.66"/><circle cx="115.48" cy="107.06" r="1.66"/><circle cx="125.42" cy="107.06" r="1.66"/><circle cx="128.73" cy="107.06" r="1.66"/><circle cx="138.67" cy="107.06" r="1.66"/><circle cx="141.98" cy="107.06" r="1.66"/><circle cx="151.92" cy="107.06" r="1.66"/><circle cx="155.23" cy="107.06" r="1.66"/><circle cx="161.85" cy="107.06" r="1.66"/><circle cx="171.79" cy="107.06" r="1.66"/><circle cx="175.1" cy="107.06" r="1.66"/><circle cx="178.41" cy="107.06" r="1.66"/><circle cx="181.72" cy="107.06" r="1.66"/><circle cx="188.35" cy="107.06" r="1.66"/><circle cx="198.28" cy="107.06" r="1.66"/><circle cx="204.91" cy="107.06" r="1.66"/><circle cx="208.22" cy="107.06" r="1.66"/><circle cx="214.84" cy="107.06" r="1.66"/><circle cx="221.47" cy="107.06" r="1.66"/><circle cx="224.78" cy="107.06" r="1.66"/><circle cx="228.09" cy="107.06" r="1.66"/><circle cx="115.48" cy="110.38" r="1.66"/><circle cx="118.8" cy="110.38" r="1.66"/><circle cx="132.04" cy="110.38" r="1.66"/><circle cx="138.67" cy="110.38" r="1.66"/><circle cx="151.92" cy="110.38" r="1.66"/><circle cx="158.54" cy="110.38" r="1.66"/><circle cx="161.85" cy="110.38" r="1.66"/><circle cx="194.97" cy="110.38" r="1.66"/><circle cx="201.6" cy="110.38" r="1.66"/><circle cx="204.91" cy="110.38" r="1.66"/><circle cx="211.53" cy="110.38" r="1.66"/><circle cx="221.47" cy="110.38" r="1.66"/><circle cx="224.78" cy="110.38" r="1.66"/><circle cx="228.09" cy="110.38" r="1.66"/><circle cx="231.4" cy="110.38" r="1.66"/><circle cx="112.17" cy="113.69" r="1.66"/><circle cx="115.48" cy="113.69" r="1.66"/><circle cx="122.11" cy="113.69" r="1.66"/><circle cx="138.67" cy="113.69" r="1.66"/><circle cx="141.98" cy="113.69" r="1.66"/><circle cx="161.85" cy="113.69" r="1.66"/><circle cx="165.16" cy="113.69" r="1.66"/><circle cx="171.79" cy="113.69" r="1.66"/><circle cx="181.72" cy="113.69" r="1.66"/><circle cx="185.04" cy="113.69" r="1.66"/><circle cx="191.66" cy="113.69" r="1.66"/><circle cx="201.6" cy="113.69" r="1.66"/><circle cx="208.22" cy="113.69" r="1.66"/><circle cx="214.84" cy="113.69" r="1.66"/><circle cx="221.47" cy="113.69" r="1.66"/><circle cx="231.4" cy="113.69" r="1.66"/><circle cx="112.17" cy="117" r="1.66"/><circle cx="122.11" cy="117" r="1.66"/><circle cx="128.73" cy="117" r="1.66"/><circle cx="132.04" cy="117" r="1.66"/><circle cx="135.36" cy="117" r="1.66"/><circle cx="138.67" cy="117" r="1.66"/><circle cx="148.6" cy="117" r="1.66"/><circle cx="151.92" cy="117" r="1.66"/><circle cx="161.85" cy="117" r="1.66"/><circle cx="165.16" cy="117" r="1.66"/><circle cx="168.48" cy="117" r="1.66"/><circle cx="171.79" cy="117" r="1.66"/><circle cx="178.41" cy="117" r="1.66"/><circle cx="185.04" cy="117" r="1.66"/><circle cx="191.66" cy="117" r="1.66"/><circle cx="194.97" cy="117" r="1.66"/><circle cx="198.28" cy="117" r="1.66"/><circle cx="201.6" cy="117" r="1.66"/><circle cx="211.53" cy="117" r="1.66"/><circle cx="214.84" cy="117" r="1.66"/><circle cx="218.16" cy="117" r="1.66"/><circle cx="221.47" cy="117" r="1.66"/><circle cx="224.78" cy="117" r="1.66"/><circle cx="228.09" cy="117" r="1.66"/><circle cx="231.4" cy="117" r="1.66"/><circle cx="112.17" cy="120.31" r="1.66"/><circle cx="115.48" cy="120.31" r="1.66"/><circle cx="118.8" cy="120.31" r="1.66"/><circle cx="128.73" cy="120.31" r="1.66"/><circle cx="135.36" cy="120.31" r="1.66"/><circle cx="138.67" cy="120.31" r="1.66"/><circle cx="145.29" cy="120.31" r="1.66"/><circle cx="148.6" cy="120.31" r="1.66"/><circle cx="158.54" cy="120.31" r="1.66"/><circle cx="165.16" cy="120.31" r="1.66"/><circle cx="168.48" cy="120.31" r="1.66"/><circle cx="171.79" cy="120.31" r="1.66"/><circle cx="175.1" cy="120.31" r="1.66"/><circle cx="178.41" cy="120.31" r="1.66"/><circle cx="181.72" cy="120.31" r="1.66"/><circle cx="188.35" cy="120.31" r="1.66"/><circle cx="204.91" cy="120.31" r="1.66"/><circle cx="214.84" cy="120.31" r="1.66"/><circle cx="224.78" cy="120.31" r="1.66"/><circle cx="228.09" cy="120.31" r="1.66"/><circle cx="122.11" cy="123.62" r="1.66"/><circle cx="125.42" cy="123.62" r="1.66"/><circle cx="128.73" cy="123.62" r="1.66"/><circle cx="132.04" cy="123.62" r="1.66"/><circle cx="138.67" cy="123.62" r="1.66"/><circle cx="145.29" cy="123.62" r="1.66"/><circle cx="148.6" cy="123.62" r="1.66"/><circle cx="161.85" cy="123.62" r="1.66"/><circle cx="178.41" cy="123.62" r="1.66"/><circle cx="181.72" cy="123.62" r="1.66"/><circle cx="201.6" cy="123.62" r="1.66"/><circle cx="204.91" cy="123.62" r="1.66"/><circle cx="208.22" cy="123.62" r="1.66"/><circle cx="214.84" cy="123.62" r="1.66"/><circle cx="224.78" cy="123.62" r="1.66"/><circle cx="228.09" cy="123.62" r="1.66"/><circle cx="231.4" cy="123.62" r="1.66"/><circle cx="112.17" cy="126.94" r="1.66"/><circle cx="118.8" cy="126.94" r="1.66"/><circle cx="122.11" cy="126.94" r="1.66"/><circle cx="125.42" cy="126.94" r="1.66"/><circle cx="128.73" cy="126.94" r="1.66"/><circle cx="135.36" cy="126.94" r="1.66"/><circle cx="141.98" cy="126.94" r="1.66"/><circle cx="145.29" cy="126.94" r="1.66"/><circle cx="151.92" cy="126.94" r="1.66"/><circle cx="155.23" cy="126.94" r="1.66"/><circle cx="158.54" cy="126.94" r="1.66"/><circle cx="165.16" cy="126.94" r="1.66"/><circle cx="178.41" cy="126.94" r="1.66"/><circle cx="181.72" cy="126.94" r="1.66"/><circle cx="185.04" cy="126.94" r="1.66"/><circle cx="188.35" cy="126.94" r="1.66"/><circle cx="198.28" cy="126.94" r="1.66"/><circle cx="201.6" cy="126.94" r="1.66"/><circle cx="204.91" cy="126.94" r="1.66"/><circle cx="214.84" cy="126.94" r="1.66"/><circle cx="221.47" cy="126.94" r="1.66"/><circle cx="231.4" cy="126.94" r="1.66"/><circle cx="112.17" cy="130.25" r="1.66"/><circle cx="115.48" cy="130.25" r="1.66"/><circle cx="118.8" cy="130.25" r="1.66"/><circle cx="128.73" cy="130.25" r="1.66"/><circle cx="132.04" cy="130.25" r="1.66"/><circle cx="145.29" cy="130.25" r="1.66"/><circle cx="155.23" cy="130.25" r="1.66"/><circle cx="158.54" cy="130.25" r="1.66"/><circle cx="168.48" cy="130.25" r="1.66"/><circle cx="175.1" cy="130.25" r="1.66"/><circle cx="185.04" cy="130.25" r="1.66"/><circle cx="188.35" cy="130.25" r="1.66"/><circle cx="191.66" cy="130.25" r="1.66"/><circle cx="194.97" cy="130.25" r="1.66"/><circle cx="198.28" cy="130.25" r="1.66"/><circle cx="201.6" cy="130.25" r="1.66"/><circle cx="208.22" cy="130.25" r="1.66"/><circle cx="211.53" cy="130.25" r="1.66"/><circle cx="218.16" cy="130.25" r="1.66"/><circle cx="221.47" cy="130.25" r="1.66"/><circle cx="224.78" cy="130.25" r="1.66"/><circle cx="112.17" cy="133.56" r="1.66"/><circle cx="115.48" cy="133.56" r="1.66"/><circle cx="118.8" cy="133.56" r="1.66"/><circle cx="125.42" cy="133.56" r="1.66"/><circle cx="138.67" cy="133.56" r="1.66"/><circle cx="141.98" cy="133.56" r="1.66"/><circle cx="151.92" cy="133.56" r="1.66"/><circle cx="155.23" cy="133.56" r="1.66"/><circle cx="165.16" cy="133.56" r="1.66"/><circle cx="175.1" cy="133.56" r="1.66"/><circle cx="178.41" cy="133.56" r="1.66"/><circle cx="181.72" cy="133.56" r="1.66"/><circle cx="185.04" cy="133.56" r="1.66"/><circle cx="188.35" cy="133.56" r="1.66"/><circle cx="191.66" cy="133.56" r="1.66"/><circle cx="198.28" cy="133.56" r="1.66"/><circle cx="204.91" cy="133.56" r="1.66"/><circle cx="214.84" cy="133.56" r="1.66"/><circle cx="224.78" cy="133.56" r="1.66"/><circle cx="112.17" cy="136.87" r="1.66"/><circle cx="115.48" cy="136.87" r="1.66"/><circle cx="118.8" cy="136.87" r="1.66"/><circle cx="128.73" cy="136.87" r="1.66"/><circle cx="132.04" cy="136.87" r="1.66"/><circle cx="141.98" cy="136.87" r="1.66"/><circle cx="151.92" cy="136.87" r="1.66"/><circle cx="158.54" cy="136.87" r="1.66"/><circle cx="161.85" cy="136.87" r="1.66"/><circle cx="165.16" cy="136.87" r="1.66"/><circle cx="178.41" cy="136.87" r="1.66"/><circle cx="181.72" cy="136.87" r="1.66"/><circle cx="185.04" cy="136.87" r="1.66"/><circle cx="191.66" cy="136.87" r="1.66"/><circle cx="194.97" cy="136.87" r="1.66"/><circle cx="201.6" cy="136.87" r="1.66"/><circle cx="211.53" cy="136.87" r="1.66"/><circle cx="218.16" cy="136.87" r="1.66"/><circle cx="224.78" cy="136.87" r="1.66"/><circle cx="228.09" cy="136.87" r="1.66"/><circle cx="231.4" cy="136.87" r="1.66"/><circle cx="112.17" cy="140.18" r="1.66"/><circle cx="122.11" cy="140.18" r="1.66"/><circle cx="125.42" cy="140.18" r="1.66"/><circle cx="128.73" cy="140.18" r="1.66"/><circle cx="141.98" cy="140.18" r="1.66"/><circle cx="161.85" cy="140.18" r="1.66"/><circle cx="165.16" cy="140.18" r="1.66"/><circle cx="171.79" cy="140.18" r="1.66"/><circle cx="181.72" cy="140.18" r="1.66"/><circle cx="185.04" cy="140.18" r="1.66"/><circle cx="201.6" cy="140.18" r="1.66"/><circle cx="208.22" cy="140.18" r="1.66"/><circle cx="214.84" cy="140.18" r="1.66"/><circle cx="218.16" cy="140.18" r="1.66"/><circle cx="228.09" cy="140.18" r="1.66"/><circle cx="231.4" cy="140.18" r="1.66"/><circle cx="112.17" cy="143.5" r="1.66"/><circle cx="132.04" cy="143.5" r="1.66"/><circle cx="138.67" cy="143.5" r="1.66"/><circle cx="145.29" cy="143.5" r="1.66"/><circle cx="148.6" cy="143.5" r="1.66"/><circle cx="151.92" cy="143.5" r="1.66"/><circle cx="161.85" cy="143.5" r="1.66"/><circle cx="168.48" cy="143.5" r="1.66"/><circle cx="175.1" cy="143.5" r="1.66"/><circle cx="178.41" cy="143.5" r="1.66"/><circle cx="185.04" cy="143.5" r="1.66"/><circle cx="194.97" cy="143.5" r="1.66"/><circle cx="198.28" cy="143.5" r="1.66"/><circle cx="208.22" cy="143.5" r="1.66"/><circle cx="211.53" cy="143.5" r="1.66"/><circle cx="218.16" cy="143.5" r="1.66"/><circle cx="224.78" cy="143.5" r="1.66"/><circle cx="231.4" cy="143.5" r="1.66"/><circle cx="112.17" cy="146.81" r="1.66"/><circle cx="122.11" cy="146.81" r="1.66"/><circle cx="125.42" cy="146.81" r="1.66"/><circle cx="135.36" cy="146.81" r="1.66"/><circle cx="138.67" cy="146.81" r="1.66"/><circle cx="145.29" cy="146.81" r="1.66"/><circle cx="148.6" cy="146.81" r="1.66"/><circle cx="158.54" cy="146.81" r="1.66"/><circle cx="165.16" cy="146.81" r="1.66"/><circle cx="175.1" cy="146.81" r="1.66"/><circle cx="178.41" cy="146.81" r="1.66"/><circle cx="181.72" cy="146.81" r="1.66"/><circle cx="185.04" cy="146.81" r="1.66"/><circle cx="188.35" cy="146.81" r="1.66"/><circle cx="194.97" cy="146.81" r="1.66"/><circle cx="198.28" cy="146.81" r="1.66"/><circle cx="204.91" cy="146.81" r="1.66"/><circle cx="214.84" cy="146.81" r="1.66"/><circle cx="228.09" cy="146.81" r="1.66"/><circle cx="231.4" cy="146.81" r="1.66"/><circle cx="112.17" cy="150.12" r="1.66"/><circle cx="128.73" cy="150.12" r="1.66"/><circle cx="132.04" cy="150.12" r="1.66"/><circle cx="141.98" cy="150.12" r="1.66"/><circle cx="148.6" cy="150.12" r="1.66"/><circle cx="161.85" cy="150.12" r="1.66"/><circle cx="165.16" cy="150.12" r="1.66"/><circle cx="168.48" cy="150.12" r="1.66"/><circle cx="171.79" cy="150.12" r="1.66"/><circle cx="178.41" cy="150.12" r="1.66"/><circle cx="201.6" cy="150.12" r="1.66"/><circle cx="204.91" cy="150.12" r="1.66"/><circle cx="208.22" cy="150.12" r="1.66"/><circle cx="211.53" cy="150.12" r="1.66"/><circle cx="214.84" cy="150.12" r="1.66"/><circle cx="218.16" cy="150.12" r="1.66"/><circle cx="224.78" cy="150.12" r="1.66"/><circle cx="228.09" cy="150.12" r="1.66"/><circle cx="231.4" cy="150.12" r="1.66"/><circle cx="138.67" cy="153.43" r="1.66"/><circle cx="141.98" cy="153.43" r="1.66"/><circle cx="151.92" cy="153.43" r="1.66"/><circle cx="155.23" cy="153.43" r="1.66"/><circle cx="158.54" cy="153.43" r="1.66"/><circle cx="161.85" cy="153.43" r="1.66"/><circle cx="165.16" cy="153.43" r="1.66"/><circle cx="171.79" cy="153.43" r="1.66"/><circle cx="175.1" cy="153.43" r="1.66"/><circle cx="181.72" cy="153.43" r="1.66"/><circle cx="185.04" cy="153.43" r="1.66"/><circle cx="188.35" cy="153.43" r="1.66"/><circle cx="191.66" cy="153.43" r="1.66"/><circle cx="198.28" cy="153.43" r="1.66"/><circle cx="204.91" cy="153.43" r="1.66"/><circle cx="218.16" cy="153.43" r="1.66"/><circle cx="231.4" cy="153.43" r="1.66"/><circle cx="138.67" cy="156.74" r="1.66"/><circle cx="145.29" cy="156.74" r="1.66"/><circle cx="155.23" cy="156.74" r="1.66"/><circle cx="158.54" cy="156.74" r="1.66"/><circle cx="168.48" cy="156.74" r="1.66"/><circle cx="178.41" cy="156.74" r="1.66"/><circle cx="185.04" cy="156.74" r="1.66"/><circle cx="194.97" cy="156.74" r="1.66"/><circle cx="204.91" cy="156.74" r="1.66"/><circle cx="211.53" cy="156.74" r="1.66"/><circle cx="218.16" cy="156.74" r="1.66"/><circle cx="224.78" cy="156.74" r="1.66"/><circle cx="228.09" cy="156.74" r="1.66"/><circle cx="231.4" cy="156.74" r="1.66"/><circle cx="141.98" cy="160.06" r="1.66"/><circle cx="145.29" cy="160.06" r="1.66"/><circle cx="151.92" cy="160.06" r="1.66"/><circle cx="155.23" cy="160.06" r="1.66"/><circle cx="165.16" cy="160.06" r="1.66"/><circle cx="171.79" cy="160.06" r="1.66"/><circle cx="175.1" cy="160.06" r="1.66"/><circle cx="178.41" cy="160.06" r="1.66"/><circle cx="181.72" cy="160.06" r="1.66"/><circle cx="188.35" cy="160.06" r="1.66"/><circle cx="194.97" cy="160.06" r="1.66"/><circle cx="204.91" cy="160.06" r="1.66"/><circle cx="218.16" cy="160.06" r="1.66"/><circle cx="138.67" cy="163.37" r="1.66"/><circle cx="141.98" cy="163.37" r="1.66"/><circle cx="151.92" cy="163.37" r="1.66"/><circle cx="158.54" cy="163.37" r="1.66"/><circle cx="161.85" cy="163.37" r="1.66"/><circle cx="178.41" cy="163.37" r="1.66"/><circle cx="181.72" cy="163.37" r="1.66"/><circle cx="185.04" cy="163.37" r="1.66"/><circle cx="194.97" cy="163.37" r="1.66"/><circle cx="198.28" cy="163.37" r="1.66"/><circle cx="204.91" cy="163.37" r="1.66"/><circle cx="208.22" cy="163.37" r="1.66"/><circle cx="211.53" cy="163.37" r="1.66"/><circle cx="214.84" cy="163.37" r="1.66"/><circle cx="218.16" cy="163.37" r="1.66"/><circle cx="224.78" cy="163.37" r="1.66"/><circle cx="138.67" cy="166.68" r="1.66"/><circle cx="161.85" cy="166.68" r="1.66"/><circle cx="165.16" cy="166.68" r="1.66"/><circle cx="178.41" cy="166.68" r="1.66"/><circle cx="181.72" cy="166.68" r="1.66"/><circle cx="185.04" cy="166.68" r="1.66"/><circle cx="188.35" cy="166.68" r="1.66"/><circle cx="198.28" cy="166.68" r="1.66"/><circle cx="201.6" cy="166.68" r="1.66"/><circle cx="204.91" cy="166.68" r="1.66"/><circle cx="208.22" cy="166.68" r="1.66"/><circle cx="218.16" cy="166.68" r="1.66"/><circle cx="228.09" cy="166.68" r="1.66"/><circle cx="231.4" cy="166.68" r="1.66"/><circle cx="138.67" cy="169.99" r="1.66"/><circle cx="148.6" cy="169.99" r="1.66"/><circle cx="151.92" cy="169.99" r="1.66"/><circle cx="161.85" cy="169.99" r="1.66"/><circle cx="165.16" cy="169.99" r="1.66"/><circle cx="168.48" cy="169.99" r="1.66"/><circle cx="175.1" cy="169.99" r="1.66"/><circle cx="185.04" cy="169.99" r="1.66"/><circle cx="188.35" cy="169.99" r="1.66"/><circle cx="191.66" cy="169.99" r="1.66"/><circle cx="194.97" cy="169.99" r="1.66"/><circle cx="198.28" cy="169.99" r="1.66"/><circle cx="201.6" cy="169.99" r="1.66"/><circle cx="208.22" cy="169.99" r="1.66"/><circle cx="214.84" cy="169.99" r="1.66"/><circle cx="218.16" cy="169.99" r="1.66"/><circle cx="224.78" cy="169.99" r="1.66"/><circle cx="231.4" cy="169.99" r="1.66"/><circle cx="138.67" cy="173.3" r="1.66"/><circle cx="141.98" cy="173.3" r="1.66"/><circle cx="145.29" cy="173.3" r="1.66"/><circle cx="148.6" cy="173.3" r="1.66"/><circle cx="158.54" cy="173.3" r="1.66"/><circle cx="165.16" cy="173.3" r="1.66"/><circle cx="171.79" cy="173.3" r="1.66"/><circle cx="175.1" cy="173.3" r="1.66"/><circle cx="181.72" cy="173.3" r="1.66"/><circle cx="185.04" cy="173.3" r="1.66"/><circle cx="188.35" cy="173.3" r="1.66"/><circle cx="198.28" cy="173.3" r="1.66"/><circle cx="208.22" cy="173.3" r="1.66"/><circle cx="211.53" cy="173.3" r="1.66"/><circle cx="218.16" cy="173.3" r="1.66"/><circle cx="228.09" cy="173.3" r="1.66"/><circle cx="138.67" cy="176.62" r="1.66"/><circle cx="141.98" cy="176.62" r="1.66"/><circle cx="148.6" cy="176.62" r="1.66"/><circle cx="161.85" cy="176.62" r="1.66"/><circle cx="165.16" cy="176.62" r="1.66"/><circle cx="171.79" cy="176.62" r="1.66"/><circle cx="178.41" cy="176.62" r="1.66"/><circle cx="191.66" cy="176.62" r="1.66"/><circle cx="204.91" cy="176.62" r="1.66"/><circle cx="224.78" cy="176.62" r="1.66"/><circle cx="228.09" cy="176.62" r="1.66"/><circle cx="231.4" cy="176.62" r="1.66"/><path d="M111.22,55.72a.71.71,0,0,0-.71.71V78.21a.71.71,0,0,0,.71.71H133a.7.7,0,0,0,.7-.71V56.43a.7.7,0,0,0-.7-.71Zm19.17,6.63V75.2a.4.4,0,0,1-.41.4H114.23a.4.4,0,0,1-.4-.4V59.44a.4.4,0,0,1,.4-.4H130a.4.4,0,0,1,.41.4Z"/><path d="M127.08,69V63.05a.71.71,0,0,0-.71-.7h-8.53a.7.7,0,0,0-.7.7v8.54a.7.7,0,0,0,.7.7h8.53a.7.7,0,0,0,.71-.7Z"/><path d="M210.58,55.72a.71.71,0,0,0-.71.71V78.21a.71.71,0,0,0,.71.71h21.78a.7.7,0,0,0,.7-.71V56.43a.7.7,0,0,0-.7-.71Zm19.17,6.63V75.2a.4.4,0,0,1-.41.4H213.59a.4.4,0,0,1-.4-.4V59.44a.4.4,0,0,1,.4-.4h15.75a.4.4,0,0,1,.41.4Z"/><path d="M226.44,69V63.05a.71.71,0,0,0-.71-.7H217.2a.7.7,0,0,0-.7.7v8.54a.7.7,0,0,0,.7.7h8.53a.7.7,0,0,0,.71-.7Z"/><path d="M111.22,155.08a.71.71,0,0,0-.71.71v21.78a.71.71,0,0,0,.71.71H133a.7.7,0,0,0,.7-.71V155.79a.7.7,0,0,0-.7-.71Zm19.17,6.63v12.85a.4.4,0,0,1-.41.4H114.23a.4.4,0,0,1-.4-.4V158.8a.4.4,0,0,1,.4-.4H130a.4.4,0,0,1,.41.4Z"/><path d="M127.08,168.34v-5.93a.71.71,0,0,0-.71-.7h-8.53a.7.7,0,0,0-.7.7V171a.7.7,0,0,0,.7.7h8.53a.7.7,0,0,0,.71-.7Z"/></g></g></svg>