<svg xmlns="http://www.w3.org/2000/svg" viewBox="0 0 349.66 492.81"><defs><style>.cls-1{fill:#ed5d24;}.cls-2{fill:#231f20;}.cls-3{fill:none;stroke:#000;stroke-miterlimit:10;}</style></defs><g id="Layer_2" data-name="Layer 2"><g id="orange"><rect id="card_back_orange" data-name="card back orange" class="cls-1" width="349.66" height="492.81" rx="20.72"/><g id="ability_cards_label" data-name="ability cards label"><path class="cls-2" d="M112.88,416.37l-.78,3.25h-3.87l4-14h5l4.15,14h-4l-.88-3.25Zm3.08-2.79-.64-2.51c-.21-.79-.48-1.94-.68-2.77h0c-.21.83-.42,2-.62,2.79l-.6,2.49Z"/><path class="cls-2" d="M123.16,405.79a30.81,30.81,0,0,1,4.4-.29,8.91,8.91,0,0,1,4.26.68,3.14,3.14,0,0,1,1.88,2.87,3.1,3.1,0,0,1-2.28,2.95v.05a3.43,3.43,0,0,1,2.73,3.41,3.73,3.73,0,0,1-1.55,3.05c-1,.79-2.79,1.25-5.76,1.25a23.42,23.42,0,0,1-3.68-.23Zm3.7,5.19h.74c1.59,0,2.36-.56,2.36-1.45s-.62-1.35-1.88-1.35a7.39,7.39,0,0,0-1.22.08Zm0,6a6.34,6.34,0,0,0,1.07,0c1.24,0,2.3-.5,2.3-1.73s-1.08-1.64-2.48-1.64h-.89Z"/><path class="cls-2" d="M139.93,405.6v14h-3.74v-14Z"/><path class="cls-2" d="M142.49,405.6h3.74v10.88h5.35v3.14h-9.09Z"/><path class="cls-2" d="M157.13,405.6v14H153.4v-14Z"/><path class="cls-2" d="M162.4,408.74h-3.55V405.6h10.9v3.14h-3.61v10.88H162.4Z"/><path class="cls-2" d="M174.73,419.62V414l-4.4-8.36h4.27l1.18,3.16c.39,1,.64,1.68.95,2.58h0c.27-.85.56-1.62.89-2.58l1.16-3.16H183l-4.57,8.21v5.81Z"/><path class="cls-2" d="M203.06,419.26a9.49,9.49,0,0,1-3.51.56c-5.21,0-7.5-3.26-7.5-7,0-4.95,3.6-7.47,7.75-7.47a8.37,8.37,0,0,1,3.49.62l-.72,3a6.82,6.82,0,0,0-2.59-.5,4.14,4.14,0,0,0,.06,8.27,7.58,7.58,0,0,0,2.5-.41Z"/><path class="cls-2" d="M209,416.37l-.79,3.25h-3.86l4.05-14h4.95l4.16,14h-4l-.89-3.25Zm3.07-2.79-.64-2.51c-.2-.79-.47-1.94-.68-2.77h0c-.21.83-.41,2-.62,2.79l-.6,2.49Z"/><path class="cls-2" d="M219.25,405.79a30.07,30.07,0,0,1,4.5-.29c2.13,0,3.66.29,4.71,1.08a3.61,3.61,0,0,1,1.38,3.05,3.72,3.72,0,0,1-2.39,3.39v.09a3.46,3.46,0,0,1,1.77,2.49c.44,1.44.89,3.47,1.16,4h-3.82a18.77,18.77,0,0,1-1-3.23c-.37-1.68-.89-2-2.05-2h-.6v5.27h-3.69Zm3.69,5.88h1c1.41,0,2.22-.71,2.22-1.75s-.69-1.64-1.93-1.66a6.71,6.71,0,0,0-1.26.08Z"/><path class="cls-2" d="M232,405.79a30,30,0,0,1,4.44-.29c2.66,0,4.34.43,5.72,1.39a6.14,6.14,0,0,1,2.52,5.38,6.92,6.92,0,0,1-2.44,5.76c-1.52,1.21-3.8,1.73-6.52,1.73a22.52,22.52,0,0,1-3.72-.23Zm3.74,11a4.66,4.66,0,0,0,.78,0c2.42,0,4.2-1.31,4.2-4.47,0-2.73-1.62-4-3.85-4a5.42,5.42,0,0,0-1.13.09Z"/><path class="cls-2" d="M246.9,415.87a8.33,8.33,0,0,0,3.61.88c1.28,0,1.9-.44,1.9-1.15s-.62-1.08-2.19-1.62c-2.35-.83-3.9-2.14-3.9-4.22,0-2.48,2.06-4.39,5.58-4.39a8.9,8.9,0,0,1,3.78.73l-.79,3a7.26,7.26,0,0,0-3-.66c-1.13,0-1.75.41-1.75,1s.74,1,2.5,1.66c2.5.92,3.63,2.27,3.63,4.22,0,2.41-1.88,4.47-6,4.47a9.78,9.78,0,0,1-4.09-.85Z"/></g><g id="ability_icon" data-name="ability icon"><path d="M268.45,170.59c1.41-6.14-2.67-8.64-11.42-7.29-12.21-6.29-38.82-.2-69,15.77-20-27.8-41.18-45.14-54.88-44.95-1.78-3.83-3,1.32-1.15,4.95h0c12.51-.25,32.49,16.58,51.31,42.26-8.69,2.53-17.89,7.65-26.31,14.72-10.05,4.47-18.69,10.52-24.81,17.25-8.19-14.49-12.93-27.89-13.3-37.81-6.66-21.26-5.32-35.12,3.46-35.62.25-5.14,3.62-5.42,9.64-.8-1.82-3.63-.62-8.78,1.16-4.95q-2.67-5.75,0,0c-7.24-5.12-12-4.7-13.45,1.43-16.77,5.25-12.33,40,8.44,81-36.67,27.43-56,56.6-43.25,68.8-1.4,6.14,2.68,8.64,11.43,7.29,12.21,6.29,38.82.2,69-15.77,20,27.79,41.18,45.13,54.88,44.95,7.25,5.12,12,4.7,13.46-1.43,16.77-5.25,12.33-40-8.43-81C261.88,212,281.17,182.79,268.45,170.59Zm-11.52-2.89c5.32-.35,8.22,1.41,8.29,5,5.53,5.47.63,18.49-12.6,33.47-6.81,9.83-17,19.72-28.58,27.95-4.62-7.67-9.7-16.95-14.63-26.55-6.54-9-12.53-17.69-17.1-24.93C218.39,169.14,243.71,163,256.93,167.7ZM234.15,280.89c7.25,20.3,5.91,34.16-3.46,35.62.34,4.18-3,4.46-9.64.8-11.93-.71-31.91-17.55-51.32-42.28a15,15,0,0,0,8.51-4.37c.66.76-7.25-1.1-7.6-1.79a4.81,4.81,0,0,1-4.14,2.05,10.21,10.21,0,0,1-2.8-3.69c.07.63-7.85-1.24-7.6-1.79a26.21,26.21,0,0,0,5.69,7.72c-27.61,13.66-52.93,19.83-64.62,15-6.84.49-9.74-1.27-8.29-5-7.06-5.33-2.16-18.36,12.6-33.47,5.29-9.7,15.44-19.59,28.58-28,1.21,3.92,3.92,9.14,7.85,15-.1-2.64.88-4.49,2.8-5.37a66.26,66.26,0,0,1-6.6-12.86,68.92,68.92,0,0,1,25.26-17.61c9.2-7.91,18.63-13.11,26.88-14.92,7.29,5.47,13.45,14.34,17.52,25.38a57.06,57.06,0,0,1,14.88,27.07c-2,2.81-6.51,6.13-13,9.54,1.94,1.86,2,4,.07,6.1,7.3-3.65,12.55-7.46,15.12-11C229.64,256.6,234.37,270,234.15,280.89Z"/><path class="cls-3" d="M268.45,170.59c1.41-6.14-2.67-8.64-11.42-7.29-12.21-6.29-38.82-.2-69,15.77-20-27.8-41.18-45.14-54.88-44.95-1.78-3.83-3,1.32-1.15,4.95h0c12.51-.25,32.49,16.58,51.31,42.26-8.69,2.53-17.89,7.65-26.31,14.72-10.05,4.47-18.69,10.52-24.81,17.25-8.19-14.49-12.93-27.89-13.3-37.81-6.66-21.26-5.32-35.12,3.46-35.62.25-5.14,3.62-5.42,9.64-.8-1.82-3.63-.62-8.78,1.16-4.95q-2.67-5.75,0,0c-7.24-5.12-12-4.7-13.45,1.43-16.77,5.25-12.33,40,8.44,81-36.67,27.43-56,56.6-43.25,68.8-1.4,6.14,2.68,8.64,11.43,7.29,12.21,6.29,38.82.2,69-15.77,20,27.79,41.18,45.13,54.88,44.95,7.25,5.12,12,4.7,13.46-1.43,16.77-5.25,12.33-40-8.43-81C261.88,212,281.17,182.79,268.45,170.59Zm-11.52-2.89c5.32-.35,8.22,1.41,8.29,5,5.53,5.47.63,18.49-12.6,33.47-6.81,9.83-17,19.72-28.58,27.95-4.62-7.67-9.7-16.95-14.63-26.55-6.54-9-12.53-17.69-17.1-24.93C218.39,169.14,243.71,163,256.93,167.7ZM234.15,280.89c7.25,20.3,5.91,34.16-3.46,35.62.34,4.18-3,4.46-9.64.8-11.93-.71-31.91-17.55-51.32-42.28a15,15,0,0,0,8.51-4.37c.66.76-7.25-1.1-7.6-1.79a4.81,4.81,0,0,1-4.14,2.05,10.21,10.21,0,0,1-2.8-3.69c.07.63-7.85-1.24-7.6-1.79a26.21,26.21,0,0,0,5.69,7.72c-27.61,13.66-52.93,19.83-64.62,15-6.84.49-9.74-1.27-8.29-5-7.06-5.33-2.16-18.36,12.6-33.47,5.29-9.7,15.44-19.59,28.58-28,1.21,3.92,3.92,9.14,7.85,15-.1-2.64.88-4.49,2.8-5.37a66.26,66.26,0,0,1-6.6-12.86,68.92,68.92,0,0,1,25.26-17.61c9.2-7.91,18.63-13.11,26.88-14.92,7.29,5.47,13.45,14.34,17.52,25.38a57.06,57.06,0,0,1,14.88,27.07c-2,2.81-6.51,6.13-13,9.54,1.94,1.86,2,4,.07,6.1,7.3-3.65,12.55-7.46,15.12-11C229.64,256.6,234.37,270,234.15,280.89Z"/><path d="M190.69,229.06c-1,.47-3,1.31-5.72,2.41,4.2,1.38,6.95,3.87,7.84,7.2,4.63,5.84,5.12,14.64,1.41,25.14,1,.75-51.47-11.61-50.41-11.87,1.44-11.44,5.54-19,12-22.16,2.63-2.7,6.53-3.69,11.18-2.88-1.73-2.24-3.08-4-3.88-4.91-17.12,1-23,16.88-24.45,29.74-1.74,2.57-.11,4.92,3.41,5-1.13.46,52.53,13.09,51.55,12.14,3.36,1.52,5.86.14,5.26-3C203.28,254.19,204.52,237.9,190.69,229.06Z"/><path class="cls-3" d="M190.69,229.06c-1,.47-3,1.31-5.72,2.41,4.2,1.38,6.95,3.87,7.84,7.2,4.63,5.84,5.12,14.64,1.41,25.14,1,.75-51.47-11.61-50.41-11.87,1.44-11.44,5.54-19,12-22.16,2.63-2.7,6.53-3.69,11.18-2.88-1.73-2.24-3.08-4-3.88-4.91-17.12,1-23,16.88-24.45,29.74-1.74,2.57-.11,4.92,3.41,5-1.13.46,52.53,13.09,51.55,12.14,3.36,1.52,5.86.14,5.26-3C203.28,254.19,204.52,237.9,190.69,229.06Z"/><path d="M177.32,225.14a14,14,0,0,0,6.33-27.24,14,14,0,0,0-6.33,27.24Zm5.18-22.28a8.9,8.9,0,1,1-10.62,6.64A8.28,8.28,0,0,1,182.5,202.86Z"/><path class="cls-3" d="M177.32,225.14a14,14,0,0,0,6.33-27.24,14,14,0,0,0-6.33,27.24Zm5.18-22.28a8.9,8.9,0,1,1-10.62,6.64A8.28,8.28,0,0,1,182.5,202.86Z"/><path d="M139.76,181.7a10.55,10.55,0,0,0,13.66-8.53,10.63,10.63,0,0,0-8.48-13.75A10.56,10.56,0,0,0,131.28,168,10.64,10.64,0,0,0,139.76,181.7Zm4-17.33a6.36,6.36,0,1,1-7.59,4.74A5.91,5.91,0,0,1,143.79,164.37Z"/><path class="cls-3" d="M139.76,181.7a10.55,10.55,0,0,0,13.66-8.53,10.63,10.63,0,0,0-8.48-13.75A10.56,10.56,0,0,0,131.28,168,10.64,10.64,0,0,0,139.76,181.7Zm4-17.33a6.36,6.36,0,1,1-7.59,4.74A5.91,5.91,0,0,1,143.79,164.37Z"/><path d="M231.38,203.28A11.44,11.44,0,0,0,236.56,181a11.44,11.44,0,0,0-5.18,22.28Zm4-17.33a6.36,6.36,0,1,1-7.59,4.74A5.92,5.92,0,0,1,235.41,186Z"/><path class="cls-3" d="M231.38,203.28A11.44,11.44,0,0,0,236.56,181a11.44,11.44,0,0,0-5.18,22.28Zm4-17.33a6.36,6.36,0,1,1-7.59,4.74A5.92,5.92,0,0,1,235.41,186Z"/><path d="M121.67,253.88a11.44,11.44,0,0,0-5.18,22.29,11.44,11.44,0,0,0,5.18-22.29Zm-4,17.33a6.35,6.35,0,1,1,7.58-4.74A5.9,5.9,0,0,1,117.64,271.21Z"/><path class="cls-3" d="M121.67,253.88a11.44,11.44,0,0,0-5.18,22.29,11.44,11.44,0,0,0,5.18-22.29Zm-4,17.33a6.35,6.35,0,1,1,7.58-4.74A5.9,5.9,0,0,1,117.64,271.21Z"/><path d="M208.69,295.22a11.44,11.44,0,1,0-8.48-13.75A10.57,10.57,0,0,0,208.69,295.22Zm4-17.34a6.36,6.36,0,1,1-7.59,4.75A5.92,5.92,0,0,1,212.72,277.88Z"/><path class="cls-3" d="M208.69,295.22a11.44,11.44,0,1,0-8.48-13.75A10.57,10.57,0,0,0,208.69,295.22Zm4-17.34a6.36,6.36,0,1,1-7.59,4.75A5.92,5.92,0,0,1,212.72,277.88Z"/></g></g><g id="basics"><g id="logo"><path class="cls-2" d="M74.6,31.64a21.26,21.26,0,0,0-4.5-6.73,21,21,0,0,0-14.88-6.2h-31a21,21,0,0,1,14.88,6.2,21.28,21.28,0,0,1,0,30,21,21,0,0,1-14.88,6.2h31a21,21,0,0,0,14.88-6.2,21.29,21.29,0,0,0,4.5-23.22ZM55.22,53.56H50.78V26.21h4.44a13.68,13.68,0,0,1,0,27.35Z"/><path class="cls-2" d="M24.2,26.23H19.76V53.59H24.2a13.68,13.68,0,0,0,0-27.36Z"/></g></g></g></svg>